G04 #@! TF.GenerationSoftware,KiCad,Pcbnew,(7.0.0)*
G04 #@! TF.CreationDate,2023-06-13T19:07:53-07:00*
G04 #@! TF.ProjectId,breakbeam-emitter,62726561-6b62-4656-916d-2d656d697474,rev?*
G04 #@! TF.SameCoordinates,Original*
G04 #@! TF.FileFunction,Legend,Bot*
G04 #@! TF.FilePolarity,Positive*
%FSLAX46Y46*%
G04 Gerber Fmt 4.6, Leading zero omitted, Abs format (unit mm)*
G04 Created by KiCad (PCBNEW (7.0.0)) date 2023-06-13 19:07:53*
%MOMM*%
%LPD*%
G01*
G04 APERTURE LIST*
%ADD10C,0.153000*%
%ADD11C,0.120000*%
%ADD12C,2.200000*%
%ADD13R,1.800000X1.800000*%
%ADD14C,1.800000*%
G04 APERTURE END LIST*
D10*
X132200000Y-66550000D02*
X132200000Y-64650000D01*
X127000000Y-67400000D02*
X129600000Y-68400000D01*
X132200000Y-64650000D02*
X129600000Y-66500000D01*
X132200000Y-66550000D02*
X129600000Y-68400000D01*
X134400000Y-61700000D02*
X133300000Y-62800000D01*
X126999999Y-59600000D02*
G75*
G03*
X129559220Y-57698058I500001J2000000D01*
G01*
X135100000Y-62100000D02*
X134900000Y-63800000D01*
X129600000Y-68400000D02*
X129600000Y-66500000D01*
X126999999Y-59600000D02*
X127000000Y-65600000D01*
X132200000Y-64650000D02*
X129600000Y-63750000D01*
X129600000Y-57700000D02*
X129600000Y-63750000D01*
X133925000Y-61000000D02*
X132275000Y-61400000D01*
X129600000Y-66500000D02*
X127000000Y-65600000D01*
X127000000Y-65600000D02*
X127000000Y-67400000D01*
X126989377Y-65642488D02*
G75*
G03*
X129599999Y-63750000I510623J2042488D01*
G01*
X136957142Y-67515714D02*
X136719047Y-68182380D01*
X136719047Y-68182380D02*
X136480952Y-67515714D01*
X135576190Y-68182380D02*
X136147618Y-68182380D01*
X135861904Y-68182380D02*
X135861904Y-67182380D01*
X135861904Y-67182380D02*
X135957142Y-67325238D01*
X135957142Y-67325238D02*
X136052380Y-67420476D01*
X136052380Y-67420476D02*
X136147618Y-67468095D01*
X135147618Y-68087142D02*
X135099999Y-68134761D01*
X135099999Y-68134761D02*
X135147618Y-68182380D01*
X135147618Y-68182380D02*
X135195237Y-68134761D01*
X135195237Y-68134761D02*
X135147618Y-68087142D01*
X135147618Y-68087142D02*
X135147618Y-68182380D01*
X134480952Y-67182380D02*
X134385714Y-67182380D01*
X134385714Y-67182380D02*
X134290476Y-67230000D01*
X134290476Y-67230000D02*
X134242857Y-67277619D01*
X134242857Y-67277619D02*
X134195238Y-67372857D01*
X134195238Y-67372857D02*
X134147619Y-67563333D01*
X134147619Y-67563333D02*
X134147619Y-67801428D01*
X134147619Y-67801428D02*
X134195238Y-67991904D01*
X134195238Y-67991904D02*
X134242857Y-68087142D01*
X134242857Y-68087142D02*
X134290476Y-68134761D01*
X134290476Y-68134761D02*
X134385714Y-68182380D01*
X134385714Y-68182380D02*
X134480952Y-68182380D01*
X134480952Y-68182380D02*
X134576190Y-68134761D01*
X134576190Y-68134761D02*
X134623809Y-68087142D01*
X134623809Y-68087142D02*
X134671428Y-67991904D01*
X134671428Y-67991904D02*
X134719047Y-67801428D01*
X134719047Y-67801428D02*
X134719047Y-67563333D01*
X134719047Y-67563333D02*
X134671428Y-67372857D01*
X134671428Y-67372857D02*
X134623809Y-67277619D01*
X134623809Y-67277619D02*
X134576190Y-67230000D01*
X134576190Y-67230000D02*
X134480952Y-67182380D01*
X125567380Y-67238095D02*
X124567380Y-67238095D01*
X125043571Y-67238095D02*
X125043571Y-67809523D01*
X125567380Y-67809523D02*
X124567380Y-67809523D01*
X125567380Y-68809523D02*
X125567380Y-68238095D01*
X125567380Y-68523809D02*
X124567380Y-68523809D01*
X124567380Y-68523809D02*
X124710238Y-68428571D01*
X124710238Y-68428571D02*
X124805476Y-68333333D01*
X124805476Y-68333333D02*
X124853095Y-68238095D01*
X125567380Y-58238095D02*
X124567380Y-58238095D01*
X125043571Y-58238095D02*
X125043571Y-58809523D01*
X125567380Y-58809523D02*
X124567380Y-58809523D01*
X124662619Y-59238095D02*
X124615000Y-59285714D01*
X124615000Y-59285714D02*
X124567380Y-59380952D01*
X124567380Y-59380952D02*
X124567380Y-59619047D01*
X124567380Y-59619047D02*
X124615000Y-59714285D01*
X124615000Y-59714285D02*
X124662619Y-59761904D01*
X124662619Y-59761904D02*
X124757857Y-59809523D01*
X124757857Y-59809523D02*
X124853095Y-59809523D01*
X124853095Y-59809523D02*
X124995952Y-59761904D01*
X124995952Y-59761904D02*
X125567380Y-59190476D01*
X125567380Y-59190476D02*
X125567380Y-59809523D01*
X126238094Y-64367380D02*
X126238094Y-63367380D01*
X126238094Y-63367380D02*
X125999999Y-63367380D01*
X125999999Y-63367380D02*
X125857142Y-63415000D01*
X125857142Y-63415000D02*
X125761904Y-63510238D01*
X125761904Y-63510238D02*
X125714285Y-63605476D01*
X125714285Y-63605476D02*
X125666666Y-63795952D01*
X125666666Y-63795952D02*
X125666666Y-63938809D01*
X125666666Y-63938809D02*
X125714285Y-64129285D01*
X125714285Y-64129285D02*
X125761904Y-64224523D01*
X125761904Y-64224523D02*
X125857142Y-64319761D01*
X125857142Y-64319761D02*
X125999999Y-64367380D01*
X125999999Y-64367380D02*
X126238094Y-64367380D01*
X124714285Y-64367380D02*
X125285713Y-64367380D01*
X124999999Y-64367380D02*
X124999999Y-63367380D01*
X124999999Y-63367380D02*
X125095237Y-63510238D01*
X125095237Y-63510238D02*
X125190475Y-63605476D01*
X125190475Y-63605476D02*
X125285713Y-63653095D01*
G36*
X136518603Y-59955349D02*
G01*
X136569489Y-60042156D01*
X136624291Y-60170199D01*
X136662321Y-60303958D01*
X136683275Y-60442676D01*
X136685827Y-60544829D01*
X136686846Y-60585598D01*
X136686317Y-60598711D01*
X136671790Y-60747663D01*
X136641751Y-60887687D01*
X136634597Y-60908255D01*
X136619157Y-60952647D01*
X136595913Y-61019473D01*
X136533991Y-61143709D01*
X136455699Y-61261086D01*
X136360752Y-61372292D01*
X136327272Y-61406083D01*
X136285034Y-61445517D01*
X136244269Y-61480440D01*
X136207671Y-61508677D01*
X136177934Y-61528048D01*
X136157751Y-61536378D01*
X136154125Y-61536841D01*
X136128984Y-61534956D01*
X136118104Y-61522852D01*
X136121783Y-61501625D01*
X136140319Y-61472368D01*
X136146567Y-61463980D01*
X136161162Y-61437874D01*
X136165154Y-61417858D01*
X136161046Y-61402871D01*
X136150086Y-61390779D01*
X136130143Y-61385808D01*
X136098485Y-61387405D01*
X136052385Y-61395016D01*
X136029599Y-61399073D01*
X135978609Y-61406792D01*
X135922852Y-61413920D01*
X135870873Y-61419314D01*
X135846878Y-61421525D01*
X135799391Y-61427213D01*
X135762363Y-61434743D01*
X135730453Y-61445786D01*
X135698320Y-61462012D01*
X135660621Y-61485094D01*
X135658639Y-61486356D01*
X135623545Y-61507134D01*
X135581289Y-61530115D01*
X135540580Y-61550549D01*
X135514673Y-61563561D01*
X135479647Y-61585606D01*
X135460975Y-61605820D01*
X135457805Y-61625336D01*
X135469287Y-61645286D01*
X135471930Y-61648126D01*
X135480977Y-61655500D01*
X135493151Y-61659927D01*
X135512168Y-61661889D01*
X135541745Y-61661866D01*
X135585598Y-61660339D01*
X135593707Y-61659979D01*
X135660195Y-61654429D01*
X135728096Y-61643572D01*
X135804866Y-61626246D01*
X135812124Y-61624434D01*
X135859637Y-61612977D01*
X135892797Y-61606021D01*
X135914253Y-61603201D01*
X135926649Y-61604147D01*
X135932634Y-61608492D01*
X135936223Y-61617189D01*
X135931117Y-61635776D01*
X135908108Y-61653427D01*
X135867262Y-61670079D01*
X135846968Y-61676579D01*
X135793991Y-61692294D01*
X135748617Y-61703130D01*
X135704020Y-61710554D01*
X135653377Y-61716032D01*
X135635733Y-61717528D01*
X135567413Y-61721863D01*
X135503478Y-61723729D01*
X135447297Y-61723141D01*
X135402239Y-61720116D01*
X135371672Y-61714670D01*
X135357559Y-61709743D01*
X135337839Y-61697038D01*
X135325155Y-61676104D01*
X135315740Y-61642049D01*
X135313127Y-61633896D01*
X135304676Y-61621967D01*
X135288355Y-61609113D01*
X135261289Y-61593223D01*
X135220605Y-61572186D01*
X135200632Y-61561967D01*
X135150175Y-61534748D01*
X135097555Y-61504714D01*
X135045788Y-61473740D01*
X134997891Y-61443696D01*
X134956879Y-61416456D01*
X134925768Y-61393890D01*
X134907573Y-61377872D01*
X134901623Y-61370676D01*
X134889511Y-61346657D01*
X134890407Y-61320079D01*
X134904117Y-61285789D01*
X134915488Y-61259375D01*
X134928896Y-61221672D01*
X134942776Y-61177582D01*
X134956068Y-61131010D01*
X134967714Y-61085860D01*
X134976654Y-61046033D01*
X134981831Y-61015433D01*
X134982185Y-60997964D01*
X134976778Y-60983987D01*
X134963740Y-60956967D01*
X134945427Y-60922200D01*
X134923949Y-60883824D01*
X134910311Y-60859822D01*
X134880923Y-60806529D01*
X134851373Y-60751257D01*
X134826362Y-60702731D01*
X134810557Y-60672241D01*
X134791316Y-60637747D01*
X134775052Y-60611402D01*
X134764157Y-60597264D01*
X134756437Y-60591837D01*
X134729002Y-60579553D01*
X134690314Y-60567349D01*
X134644906Y-60556552D01*
X134597314Y-60548486D01*
X134571931Y-60546231D01*
X134551186Y-60548979D01*
X134535582Y-60558854D01*
X134525216Y-60571668D01*
X134509914Y-60604805D01*
X134497543Y-60649101D01*
X134488752Y-60700335D01*
X134484190Y-60754286D01*
X134484503Y-60806736D01*
X134490340Y-60853465D01*
X134496686Y-60876518D01*
X134512690Y-60919416D01*
X134534794Y-60969727D01*
X134560764Y-61022937D01*
X134588365Y-61074530D01*
X134615361Y-61119991D01*
X134639517Y-61154807D01*
X134679126Y-61198694D01*
X134725167Y-61233656D01*
X134782073Y-61261604D01*
X134798241Y-61269103D01*
X134825987Y-61286197D01*
X134844511Y-61303127D01*
X134853303Y-61315668D01*
X134857227Y-61327688D01*
X134853877Y-61342790D01*
X134843106Y-61367611D01*
X134837109Y-61382188D01*
X134829973Y-61406629D01*
X134829397Y-61422035D01*
X134829682Y-61422691D01*
X134841598Y-61435898D01*
X134866196Y-61455229D01*
X134900383Y-61478656D01*
X134941065Y-61504152D01*
X134985149Y-61529688D01*
X135029540Y-61553236D01*
X135044466Y-61560945D01*
X135074658Y-61577938D01*
X135096437Y-61592172D01*
X135105863Y-61601175D01*
X135107944Y-61611266D01*
X135101631Y-61628601D01*
X135082310Y-61635103D01*
X135077532Y-61634525D01*
X135054397Y-61626850D01*
X135020756Y-61611702D01*
X134980008Y-61590934D01*
X134935547Y-61566397D01*
X134890771Y-61539945D01*
X134849077Y-61513429D01*
X134813860Y-61488703D01*
X134776679Y-61459267D01*
X134697932Y-61387591D01*
X134623237Y-61307472D01*
X134555752Y-61222728D01*
X134498632Y-61137177D01*
X134455033Y-61054637D01*
X134434056Y-61004554D01*
X134394744Y-60886416D01*
X134366696Y-60763808D01*
X134350945Y-60641850D01*
X134348904Y-60544017D01*
X134884723Y-60544017D01*
X134890919Y-60578961D01*
X134905295Y-60619086D01*
X134927691Y-60667934D01*
X134957945Y-60729047D01*
X134970484Y-60753946D01*
X135003296Y-60815981D01*
X135031687Y-60863757D01*
X135057153Y-60899192D01*
X135081192Y-60924203D01*
X135105301Y-60940707D01*
X135130977Y-60950622D01*
X135150669Y-60953722D01*
X135185206Y-60956678D01*
X135230711Y-60959207D01*
X135283611Y-60961112D01*
X135340336Y-60962197D01*
X135402144Y-60962823D01*
X135456819Y-60962387D01*
X135499274Y-60959309D01*
X135532569Y-60952090D01*
X135559765Y-60939233D01*
X135583921Y-60919240D01*
X135608097Y-60890613D01*
X135635355Y-60851856D01*
X135668753Y-60801469D01*
X135669723Y-60800003D01*
X135706613Y-60745626D01*
X135735853Y-60705893D01*
X135758523Y-60679724D01*
X135775700Y-60666034D01*
X135788461Y-60663743D01*
X135797883Y-60671767D01*
X135798975Y-60673521D01*
X135803510Y-60682995D01*
X135804304Y-60693542D01*
X135800282Y-60708057D01*
X135790366Y-60729432D01*
X135773479Y-60760561D01*
X135748545Y-60804336D01*
X135735291Y-60827575D01*
X135700349Y-60891005D01*
X135674567Y-60941954D01*
X135657143Y-60982216D01*
X135647275Y-61013583D01*
X135644164Y-61037845D01*
X135644610Y-61043307D01*
X135651565Y-61069340D01*
X135665450Y-61105285D01*
X135684326Y-61147335D01*
X135706253Y-61191680D01*
X135729293Y-61234510D01*
X135751505Y-61272018D01*
X135770951Y-61300393D01*
X135785691Y-61315826D01*
X135812463Y-61327455D01*
X135854673Y-61333580D01*
X135910281Y-61332088D01*
X135924021Y-61330293D01*
X136250668Y-61330293D01*
X136252474Y-61338143D01*
X136255874Y-61342511D01*
X136267320Y-61346240D01*
X136283769Y-61338046D01*
X136306829Y-61316867D01*
X136338107Y-61281642D01*
X136382784Y-61225865D01*
X136451332Y-61126641D01*
X136505427Y-61028715D01*
X136518750Y-61000241D01*
X136530701Y-60971114D01*
X136534917Y-60952647D01*
X136531944Y-60941823D01*
X136522332Y-60935623D01*
X136510356Y-60934954D01*
X136494586Y-60944134D01*
X136475323Y-60965326D01*
X136451259Y-61000000D01*
X136421088Y-61049627D01*
X136409869Y-61068584D01*
X136379705Y-61118010D01*
X136347840Y-61168557D01*
X136319541Y-61211813D01*
X136306720Y-61230949D01*
X136280757Y-61270608D01*
X136263581Y-61298841D01*
X136253961Y-61317964D01*
X136250668Y-61330293D01*
X135924021Y-61330293D01*
X135980251Y-61322947D01*
X136065544Y-61306123D01*
X136084269Y-61301474D01*
X136128400Y-61285380D01*
X136168483Y-61261774D01*
X136206503Y-61228751D01*
X136244445Y-61184407D01*
X136284291Y-61126835D01*
X136328028Y-61054133D01*
X136350239Y-61014355D01*
X136371150Y-60972343D01*
X136383604Y-60938286D01*
X136388575Y-60908255D01*
X136387035Y-60878323D01*
X136379958Y-60844561D01*
X136365671Y-60796222D01*
X136345426Y-60741062D01*
X136322832Y-60689902D01*
X136299917Y-60647286D01*
X136278710Y-60617757D01*
X136249777Y-60586186D01*
X136070862Y-60603471D01*
X136065346Y-60604002D01*
X136008781Y-60609288D01*
X135956926Y-60613854D01*
X135913085Y-60617428D01*
X135880565Y-60619741D01*
X135862670Y-60620522D01*
X135858520Y-60620373D01*
X135825165Y-60609484D01*
X135797028Y-60581739D01*
X135774643Y-60537638D01*
X135771871Y-60530434D01*
X135761785Y-60507368D01*
X136354031Y-60507368D01*
X136396743Y-60600544D01*
X136411078Y-60632218D01*
X136428473Y-60671733D01*
X136442495Y-60704802D01*
X136451017Y-60726485D01*
X136451501Y-60727848D01*
X136463624Y-60758353D01*
X136476522Y-60786213D01*
X136479333Y-60791427D01*
X136496852Y-60813342D01*
X136516090Y-60817991D01*
X136539067Y-60806015D01*
X136545479Y-60800455D01*
X136565057Y-60774174D01*
X136579548Y-60736539D01*
X136589597Y-60685420D01*
X136595850Y-60618687D01*
X136597503Y-60544829D01*
X136590667Y-60438860D01*
X136573765Y-60335817D01*
X136547596Y-60240162D01*
X136512960Y-60156353D01*
X136499048Y-60130648D01*
X136479726Y-60103731D01*
X136460299Y-60089615D01*
X136437823Y-60085527D01*
X136431904Y-60085659D01*
X136414743Y-60088836D01*
X136402154Y-60098058D01*
X136393261Y-60115721D01*
X136387184Y-60144218D01*
X136383046Y-60185945D01*
X136379967Y-60243297D01*
X136379793Y-60247274D01*
X136376846Y-60300929D01*
X136372955Y-60354707D01*
X136368604Y-60402562D01*
X136364281Y-60438450D01*
X136363375Y-60444545D01*
X136354031Y-60507368D01*
X135761785Y-60507368D01*
X135755577Y-60493172D01*
X135733392Y-60447661D01*
X135716770Y-60415694D01*
X135890650Y-60415694D01*
X135891296Y-60424963D01*
X135894367Y-60437279D01*
X135896452Y-60460191D01*
X135897528Y-60471734D01*
X135905455Y-60479681D01*
X135925736Y-60480629D01*
X135961688Y-60478510D01*
X135985714Y-60474608D01*
X135998532Y-60466834D01*
X136003650Y-60452971D01*
X136004576Y-60430801D01*
X136004576Y-60389830D01*
X135961777Y-60395872D01*
X135953513Y-60397058D01*
X135918914Y-60402915D01*
X135898908Y-60408736D01*
X135890650Y-60415694D01*
X135716770Y-60415694D01*
X135707261Y-60397406D01*
X135679134Y-60345909D01*
X135650956Y-60296673D01*
X135624676Y-60253201D01*
X135602241Y-60218997D01*
X135585598Y-60197564D01*
X135574328Y-60186266D01*
X135551132Y-60167882D01*
X135524318Y-60154396D01*
X135490287Y-60144611D01*
X135445438Y-60137332D01*
X135386169Y-60131365D01*
X135348656Y-60127432D01*
X135310467Y-60120215D01*
X135287242Y-60110207D01*
X135277226Y-60096541D01*
X135278665Y-60078353D01*
X135281448Y-60071183D01*
X135288158Y-60062323D01*
X135300019Y-60055838D01*
X135319605Y-60051199D01*
X135349488Y-60047878D01*
X135392243Y-60045345D01*
X135450443Y-60043072D01*
X135585598Y-60038378D01*
X135692265Y-59932311D01*
X135831047Y-59932311D01*
X135831407Y-59947875D01*
X135835465Y-59974935D01*
X135842594Y-60008939D01*
X135844794Y-60018812D01*
X135852477Y-60059528D01*
X135860635Y-60110397D01*
X135868665Y-60166768D01*
X135875963Y-60223994D01*
X135881926Y-60277423D01*
X135885950Y-60322408D01*
X135887431Y-60354299D01*
X135888644Y-60373888D01*
X135895385Y-60381040D01*
X135912220Y-60379189D01*
X135925586Y-60376546D01*
X135957586Y-60370674D01*
X135995230Y-60364142D01*
X136033842Y-60357721D01*
X136068746Y-60352181D01*
X136095267Y-60348292D01*
X136108728Y-60346825D01*
X136114216Y-60350505D01*
X136123197Y-60368626D01*
X136129064Y-60389830D01*
X136131500Y-60398634D01*
X136136816Y-60421526D01*
X136143291Y-60444588D01*
X136147914Y-60455514D01*
X136156812Y-60456946D01*
X136179008Y-60456004D01*
X136208880Y-60452565D01*
X136264515Y-60444545D01*
X136259435Y-60411453D01*
X136257873Y-60403609D01*
X136249940Y-60375205D01*
X136237724Y-60338550D01*
X136223152Y-60299581D01*
X136213057Y-60274530D01*
X136200691Y-60246709D01*
X136191140Y-60231146D01*
X136182433Y-60224938D01*
X136172597Y-60225183D01*
X136114341Y-60238230D01*
X136068881Y-60247900D01*
X136036428Y-60253894D01*
X136014681Y-60256482D01*
X136001340Y-60255934D01*
X135994106Y-60252518D01*
X135990678Y-60246505D01*
X135989325Y-60241114D01*
X135985658Y-60220133D01*
X135981566Y-60190962D01*
X135977656Y-60158804D01*
X135974539Y-60128862D01*
X135972823Y-60106342D01*
X135973117Y-60096447D01*
X135977870Y-60100171D01*
X135988724Y-60115338D01*
X136002744Y-60137654D01*
X136017151Y-60162485D01*
X136029162Y-60185202D01*
X136035997Y-60201171D01*
X136036177Y-60201762D01*
X136045299Y-60216754D01*
X136061896Y-60217294D01*
X136071384Y-60215016D01*
X136097616Y-60209051D01*
X136128449Y-60202306D01*
X136175421Y-60192232D01*
X136161604Y-60159153D01*
X136149181Y-60132757D01*
X136121094Y-60083423D01*
X136086290Y-60030482D01*
X136048530Y-59979525D01*
X136011573Y-59936139D01*
X135958103Y-59878980D01*
X135898005Y-59901601D01*
X135896099Y-59902320D01*
X135865808Y-59914310D01*
X135842747Y-59924424D01*
X135831776Y-59930539D01*
X135831047Y-59932311D01*
X135692265Y-59932311D01*
X135706236Y-59918419D01*
X135714289Y-59910414D01*
X135757517Y-59867071D01*
X135788990Y-59833428D01*
X135809507Y-59806806D01*
X135819864Y-59784526D01*
X135820859Y-59763910D01*
X135813288Y-59742279D01*
X135797951Y-59716956D01*
X135775643Y-59685261D01*
X135751382Y-59653154D01*
X135707779Y-59605226D01*
X135666589Y-59572740D01*
X135636050Y-59559716D01*
X135828624Y-59559716D01*
X135831900Y-59579741D01*
X135849520Y-59609867D01*
X135863578Y-59630463D01*
X135886771Y-59665186D01*
X135909027Y-59699192D01*
X135923709Y-59720459D01*
X135945176Y-59745452D01*
X135971500Y-59768248D01*
X136006534Y-59792056D01*
X136054132Y-59820087D01*
X136057465Y-59821997D01*
X136084191Y-59838094D01*
X136120744Y-59860972D01*
X136162746Y-59887862D01*
X136205817Y-59915996D01*
X136252928Y-59946113D01*
X136294762Y-59969750D01*
X136326907Y-59983146D01*
X136351600Y-59986945D01*
X136371076Y-59981792D01*
X136387571Y-59968329D01*
X136390254Y-59965324D01*
X136397017Y-59955349D01*
X136396891Y-59944747D01*
X136388710Y-59928819D01*
X136371305Y-59902866D01*
X136368028Y-59898202D01*
X136335795Y-59857886D01*
X136293692Y-59812032D01*
X136246018Y-59764915D01*
X136197074Y-59720809D01*
X136151158Y-59683990D01*
X136120118Y-59662471D01*
X136073812Y-59633933D01*
X136024400Y-59606610D01*
X135975491Y-59582274D01*
X135930695Y-59562697D01*
X135893622Y-59549652D01*
X135867879Y-59544909D01*
X135866531Y-59544914D01*
X135840049Y-59548527D01*
X135828624Y-59559716D01*
X135636050Y-59559716D01*
X135628934Y-59556681D01*
X135613759Y-59554732D01*
X135581685Y-59552611D01*
X135538303Y-59550926D01*
X135487314Y-59549815D01*
X135432423Y-59549415D01*
X135270237Y-59549415D01*
X135212030Y-59580951D01*
X135205206Y-59584779D01*
X135168585Y-59608793D01*
X135133887Y-59635610D01*
X135129023Y-59639369D01*
X135089471Y-59673695D01*
X135052883Y-59708956D01*
X135022209Y-59742337D01*
X135000403Y-59771025D01*
X134990416Y-59792205D01*
X134989717Y-59799664D01*
X134994710Y-59830871D01*
X135008988Y-59870161D01*
X135030287Y-59913623D01*
X135056340Y-59957349D01*
X135084883Y-59997428D01*
X135113650Y-60029952D01*
X135140375Y-60051011D01*
X135166078Y-60070047D01*
X135173432Y-60085349D01*
X135176006Y-60090705D01*
X135167926Y-60111879D01*
X135141841Y-60133704D01*
X135136471Y-60137198D01*
X135098768Y-60167516D01*
X135060553Y-60208970D01*
X135020157Y-60263565D01*
X134975913Y-60333310D01*
X134944961Y-60385192D01*
X134916827Y-60434840D01*
X134897516Y-60475499D01*
X134886869Y-60510710D01*
X134884723Y-60544017D01*
X134348904Y-60544017D01*
X134348521Y-60525662D01*
X134352361Y-60469962D01*
X134359277Y-60428983D01*
X134369987Y-60402085D01*
X134385260Y-60387351D01*
X134405867Y-60382866D01*
X134428506Y-60378709D01*
X134451554Y-60360157D01*
X134452235Y-60358680D01*
X134535935Y-60358680D01*
X134536061Y-60368225D01*
X134540337Y-60402924D01*
X134552554Y-60428387D01*
X134575230Y-60446878D01*
X134610887Y-60460661D01*
X134662043Y-60472001D01*
X134691341Y-60477371D01*
X134723094Y-60483274D01*
X134744631Y-60487374D01*
X134747078Y-60487778D01*
X134772176Y-60483430D01*
X134799105Y-60463428D01*
X134828535Y-60427120D01*
X134861133Y-60373856D01*
X134877113Y-60345995D01*
X134903039Y-60302676D01*
X134932118Y-60255578D01*
X134960556Y-60210919D01*
X134987687Y-60167723D01*
X135007803Y-60131630D01*
X135018992Y-60104983D01*
X135022455Y-60085349D01*
X135022259Y-60082164D01*
X135015779Y-60058327D01*
X135001856Y-60024867D01*
X134982844Y-59986121D01*
X134961094Y-59946426D01*
X134938960Y-59910121D01*
X134918795Y-59881543D01*
X134902951Y-59865030D01*
X134888483Y-59856721D01*
X134868373Y-59852612D01*
X134844706Y-59857601D01*
X134814101Y-59872556D01*
X134773174Y-59898345D01*
X134718668Y-59937218D01*
X134655268Y-59991986D01*
X134609742Y-60045298D01*
X134582042Y-60097206D01*
X134580740Y-60100838D01*
X134567846Y-60145081D01*
X134555715Y-60199815D01*
X134545550Y-60258212D01*
X134538556Y-60313443D01*
X134535935Y-60358680D01*
X134452235Y-60358680D01*
X134467236Y-60326126D01*
X134475989Y-60275951D01*
X134477889Y-60251996D01*
X134478103Y-60220484D01*
X134473725Y-60195322D01*
X134463942Y-60169309D01*
X134458827Y-60156656D01*
X134449495Y-60126033D01*
X134445796Y-60101525D01*
X134448550Y-60084869D01*
X134460273Y-60052204D01*
X134479439Y-60011470D01*
X134504128Y-59966355D01*
X134532420Y-59920543D01*
X134562394Y-59877721D01*
X134587077Y-59845880D01*
X134627749Y-59800421D01*
X134735879Y-59800421D01*
X134741169Y-59813228D01*
X134757937Y-59820813D01*
X134783839Y-59816921D01*
X134816935Y-59802462D01*
X134855284Y-59778346D01*
X134896946Y-59745481D01*
X134939980Y-59704778D01*
X134952469Y-59691280D01*
X134976147Y-59659137D01*
X134984755Y-59635610D01*
X134979444Y-59621940D01*
X134961364Y-59619368D01*
X134931666Y-59629135D01*
X134891501Y-59652483D01*
X134878994Y-59661089D01*
X134831308Y-59696267D01*
X134791181Y-59729664D01*
X134760586Y-59759405D01*
X134741495Y-59783616D01*
X134735879Y-59800421D01*
X134627749Y-59800421D01*
X134687527Y-59733608D01*
X134797375Y-59636370D01*
X134916074Y-59554508D01*
X135043075Y-59488364D01*
X135177831Y-59438282D01*
X135319794Y-59404602D01*
X135352096Y-59400125D01*
X135415333Y-59395392D01*
X135487567Y-59393642D01*
X135563424Y-59394758D01*
X135637534Y-59398623D01*
X135704526Y-59405121D01*
X135759030Y-59414134D01*
X135883578Y-59447720D01*
X136009057Y-59496650D01*
X136125713Y-59559608D01*
X136235934Y-59637901D01*
X136342106Y-59732832D01*
X136410794Y-59806235D01*
X136498222Y-59920582D01*
X136518603Y-59955349D01*
G37*
D11*
X123565000Y-64580000D02*
X123565000Y-64736000D01*
X123565000Y-62264000D02*
X123565000Y-62420000D01*
X120332666Y-64578608D02*
G75*
G03*
X123564999Y-64735515I1672334J1078608D01*
G01*
X120963871Y-64579836D02*
G75*
G03*
X123045960Y-64579999I1041129J1079836D01*
G01*
X123045960Y-62420001D02*
G75*
G03*
X120963871Y-62420164I-1040960J-1079999D01*
G01*
X123564999Y-62264485D02*
G75*
G03*
X120332666Y-62421392I-1559999J-1235515D01*
G01*
%LPC*%
D12*
X122000000Y-68000000D03*
X122000000Y-59000000D03*
D13*
X123274999Y-63499999D03*
D14*
X120735000Y-63500000D03*
M02*
