G04 #@! TF.GenerationSoftware,KiCad,Pcbnew,(7.0.0)*
G04 #@! TF.CreationDate,2023-06-13T19:07:52-07:00*
G04 #@! TF.ProjectId,breakbeam-emitter,62726561-6b62-4656-916d-2d656d697474,rev?*
G04 #@! TF.SameCoordinates,Original*
G04 #@! TF.FileFunction,Copper,L1,Top*
G04 #@! TF.FilePolarity,Positive*
%FSLAX46Y46*%
G04 Gerber Fmt 4.6, Leading zero omitted, Abs format (unit mm)*
G04 Created by KiCad (PCBNEW (7.0.0)) date 2023-06-13 19:07:52*
%MOMM*%
%LPD*%
G01*
G04 APERTURE LIST*
G04 Aperture macros list*
%AMRoundRect*
0 Rectangle with rounded corners*
0 $1 Rounding radius*
0 $2 $3 $4 $5 $6 $7 $8 $9 X,Y pos of 4 corners*
0 Add a 4 corners polygon primitive as box body*
4,1,4,$2,$3,$4,$5,$6,$7,$8,$9,$2,$3,0*
0 Add four circle primitives for the rounded corners*
1,1,$1+$1,$2,$3*
1,1,$1+$1,$4,$5*
1,1,$1+$1,$6,$7*
1,1,$1+$1,$8,$9*
0 Add four rect primitives between the rounded corners*
20,1,$1+$1,$2,$3,$4,$5,0*
20,1,$1+$1,$4,$5,$6,$7,0*
20,1,$1+$1,$6,$7,$8,$9,0*
20,1,$1+$1,$8,$9,$2,$3,0*%
G04 Aperture macros list end*
G04 #@! TA.AperFunction,SMDPad,CuDef*
%ADD10RoundRect,0.237500X-0.250000X-0.237500X0.250000X-0.237500X0.250000X0.237500X-0.250000X0.237500X0*%
G04 #@! TD*
G04 #@! TA.AperFunction,SMDPad,CuDef*
%ADD11RoundRect,0.150000X0.625000X-0.150000X0.625000X0.150000X-0.625000X0.150000X-0.625000X-0.150000X0*%
G04 #@! TD*
G04 #@! TA.AperFunction,SMDPad,CuDef*
%ADD12RoundRect,0.250000X0.650000X-0.350000X0.650000X0.350000X-0.650000X0.350000X-0.650000X-0.350000X0*%
G04 #@! TD*
G04 #@! TA.AperFunction,SMDPad,CuDef*
%ADD13RoundRect,0.237500X0.237500X-0.250000X0.237500X0.250000X-0.237500X0.250000X-0.237500X-0.250000X0*%
G04 #@! TD*
G04 #@! TA.AperFunction,SMDPad,CuDef*
%ADD14RoundRect,0.237500X0.250000X0.237500X-0.250000X0.237500X-0.250000X-0.237500X0.250000X-0.237500X0*%
G04 #@! TD*
G04 #@! TA.AperFunction,SMDPad,CuDef*
%ADD15RoundRect,0.150000X0.587500X0.150000X-0.587500X0.150000X-0.587500X-0.150000X0.587500X-0.150000X0*%
G04 #@! TD*
G04 #@! TA.AperFunction,ComponentPad*
%ADD16R,1.800000X1.800000*%
G04 #@! TD*
G04 #@! TA.AperFunction,ComponentPad*
%ADD17C,1.800000*%
G04 #@! TD*
G04 #@! TA.AperFunction,Conductor*
%ADD18C,0.250000*%
G04 #@! TD*
G04 APERTURE END LIST*
D10*
X125487500Y-61900000D03*
X127312500Y-61900000D03*
D11*
X133000000Y-64500000D03*
X133000000Y-63500000D03*
X133000000Y-62500000D03*
D12*
X136875000Y-65800000D03*
X136875000Y-61200000D03*
D13*
X129800000Y-64512500D03*
X129800000Y-62687500D03*
D14*
X127312500Y-65500000D03*
X125487500Y-65500000D03*
D15*
X128537500Y-59950000D03*
X128537500Y-58050000D03*
X126662500Y-59000000D03*
D16*
X123274999Y-63499999D03*
D17*
X120735000Y-63500000D03*
D18*
X125487500Y-61900000D02*
X123887500Y-63500000D01*
X123887500Y-63500000D02*
X123275000Y-63500000D01*
X130000000Y-66600000D02*
X124800000Y-66600000D01*
X123200000Y-65000000D02*
X122235000Y-65000000D01*
X122235000Y-65000000D02*
X120735000Y-63500000D01*
X133000000Y-64500000D02*
X132100000Y-64500000D01*
X124800000Y-66600000D02*
X123200000Y-65000000D01*
X132100000Y-64500000D02*
X130000000Y-66600000D01*
X130812500Y-63500000D02*
X133000000Y-63500000D01*
X127312500Y-65500000D02*
X128812500Y-65500000D01*
X128812500Y-65500000D02*
X130812500Y-63500000D01*
X131412500Y-62687500D02*
X129800000Y-62687500D01*
X131600000Y-62500000D02*
X131412500Y-62687500D01*
X129800000Y-58600000D02*
X129250000Y-58050000D01*
X129250000Y-58050000D02*
X128537500Y-58050000D01*
X129800000Y-62687500D02*
X129800000Y-58600000D01*
X133000000Y-62500000D02*
X131600000Y-62500000D01*
X127312500Y-61900000D02*
X127312500Y-61312500D01*
X127312500Y-61312500D02*
X126662500Y-60662500D01*
X126662500Y-60662500D02*
X126662500Y-59000000D01*
X128537500Y-62362500D02*
X128537500Y-59950000D01*
X125487500Y-64612500D02*
X126500000Y-63600000D01*
X125487500Y-65500000D02*
X125487500Y-64612500D01*
X127300000Y-63600000D02*
X128537500Y-62362500D01*
X126500000Y-63600000D02*
X127300000Y-63600000D01*
M02*
