%TF.GenerationSoftware,KiCad,Pcbnew,8.0.7*%
%TF.CreationDate,2025-03-31T22:55:58-04:00*%
%TF.ProjectId,power,706f7765-722e-46b6-9963-61645f706362,1.1*%
%TF.SameCoordinates,Original*%
%TF.FileFunction,Copper,L1,Top*%
%TF.FilePolarity,Positive*%
%FSLAX46Y46*%
G04 Gerber Fmt 4.6, Leading zero omitted, Abs format (unit mm)*
G04 Created by KiCad (PCBNEW 8.0.7) date 2025-03-31 22:55:58*
%MOMM*%
%LPD*%
G01*
G04 APERTURE LIST*
G04 Aperture macros list*
%AMRoundRect*
0 Rectangle with rounded corners*
0 $1 Rounding radius*
0 $2 $3 $4 $5 $6 $7 $8 $9 X,Y pos of 4 corners*
0 Add a 4 corners polygon primitive as box body*
4,1,4,$2,$3,$4,$5,$6,$7,$8,$9,$2,$3,0*
0 Add four circle primitives for the rounded corners*
1,1,$1+$1,$2,$3*
1,1,$1+$1,$4,$5*
1,1,$1+$1,$6,$7*
1,1,$1+$1,$8,$9*
0 Add four rect primitives between the rounded corners*
20,1,$1+$1,$2,$3,$4,$5,0*
20,1,$1+$1,$4,$5,$6,$7,0*
20,1,$1+$1,$6,$7,$8,$9,0*
20,1,$1+$1,$8,$9,$2,$3,0*%
%AMRotRect*
0 Rectangle, with rotation*
0 The origin of the aperture is its center*
0 $1 length*
0 $2 width*
0 $3 Rotation angle, in degrees counterclockwise*
0 Add horizontal line*
21,1,$1,$2,0,0,$3*%
%AMFreePoly0*
4,1,6,1.037000,0.000000,0.437000,-0.600000,-0.150000,-0.600000,-0.150000,0.600000,0.437000,0.600000,1.037000,0.000000,1.037000,0.000000,$1*%
%AMFreePoly1*
4,1,6,0.150000,-0.600000,-1.037000,-0.600000,-0.437000,0.000000,-1.037000,0.600000,0.150000,0.600000,0.150000,-0.600000,0.150000,-0.600000,$1*%
G04 Aperture macros list end*
%TA.AperFunction,SMDPad,CuDef*%
%ADD10R,0.800000X2.200000*%
%TD*%
%TA.AperFunction,SMDPad,CuDef*%
%ADD11R,1.000000X2.700000*%
%TD*%
%TA.AperFunction,SMDPad,CuDef*%
%ADD12R,1.800000X3.800000*%
%TD*%
%TA.AperFunction,SMDPad,CuDef*%
%ADD13R,0.650000X1.150000*%
%TD*%
%TA.AperFunction,SMDPad,CuDef*%
%ADD14R,4.600000X4.650000*%
%TD*%
%TA.AperFunction,SMDPad,CuDef*%
%ADD15RoundRect,0.150000X0.150000X-0.825000X0.150000X0.825000X-0.150000X0.825000X-0.150000X-0.825000X0*%
%TD*%
%TA.AperFunction,HeatsinkPad*%
%ADD16R,3.000000X2.290000*%
%TD*%
%TA.AperFunction,SMDPad,CuDef*%
%ADD17RoundRect,0.250000X0.550000X-1.500000X0.550000X1.500000X-0.550000X1.500000X-0.550000X-1.500000X0*%
%TD*%
%TA.AperFunction,SMDPad,CuDef*%
%ADD18RoundRect,0.140000X-0.170000X0.140000X-0.170000X-0.140000X0.170000X-0.140000X0.170000X0.140000X0*%
%TD*%
%TA.AperFunction,SMDPad,CuDef*%
%ADD19RoundRect,0.150000X0.700000X-0.150000X0.700000X0.150000X-0.700000X0.150000X-0.700000X-0.150000X0*%
%TD*%
%TA.AperFunction,SMDPad,CuDef*%
%ADD20RoundRect,0.250000X1.100000X-0.250000X1.100000X0.250000X-1.100000X0.250000X-1.100000X-0.250000X0*%
%TD*%
%TA.AperFunction,SMDPad,CuDef*%
%ADD21C,2.500000*%
%TD*%
%TA.AperFunction,ComponentPad*%
%ADD22C,3.200000*%
%TD*%
%TA.AperFunction,SMDPad,CuDef*%
%ADD23RoundRect,0.250000X-1.500000X-0.550000X1.500000X-0.550000X1.500000X0.550000X-1.500000X0.550000X0*%
%TD*%
%TA.AperFunction,SMDPad,CuDef*%
%ADD24RoundRect,0.250000X0.450000X0.800000X-0.450000X0.800000X-0.450000X-0.800000X0.450000X-0.800000X0*%
%TD*%
%TA.AperFunction,SMDPad,CuDef*%
%ADD25RoundRect,0.135000X0.135000X0.185000X-0.135000X0.185000X-0.135000X-0.185000X0.135000X-0.185000X0*%
%TD*%
%TA.AperFunction,ComponentPad*%
%ADD26C,3.600000*%
%TD*%
%TA.AperFunction,ConnectorPad*%
%ADD27C,6.400000*%
%TD*%
%TA.AperFunction,SMDPad,CuDef*%
%ADD28RoundRect,0.135000X-0.135000X-0.185000X0.135000X-0.185000X0.135000X0.185000X-0.135000X0.185000X0*%
%TD*%
%TA.AperFunction,SMDPad,CuDef*%
%ADD29RoundRect,0.250000X-1.425000X0.362500X-1.425000X-0.362500X1.425000X-0.362500X1.425000X0.362500X0*%
%TD*%
%TA.AperFunction,SMDPad,CuDef*%
%ADD30R,3.500000X3.550000*%
%TD*%
%TA.AperFunction,SMDPad,CuDef*%
%ADD31RoundRect,0.250001X-0.462499X-0.624999X0.462499X-0.624999X0.462499X0.624999X-0.462499X0.624999X0*%
%TD*%
%TA.AperFunction,SMDPad,CuDef*%
%ADD32RoundRect,0.250000X0.475000X-0.250000X0.475000X0.250000X-0.475000X0.250000X-0.475000X-0.250000X0*%
%TD*%
%TA.AperFunction,SMDPad,CuDef*%
%ADD33RoundRect,0.140000X0.170000X-0.140000X0.170000X0.140000X-0.170000X0.140000X-0.170000X-0.140000X0*%
%TD*%
%TA.AperFunction,SMDPad,CuDef*%
%ADD34RoundRect,0.100000X0.100000X-0.225000X0.100000X0.225000X-0.100000X0.225000X-0.100000X-0.225000X0*%
%TD*%
%TA.AperFunction,SMDPad,CuDef*%
%ADD35RoundRect,0.135000X0.185000X-0.135000X0.185000X0.135000X-0.185000X0.135000X-0.185000X-0.135000X0*%
%TD*%
%TA.AperFunction,SMDPad,CuDef*%
%ADD36R,1.600000X1.400000*%
%TD*%
%TA.AperFunction,SMDPad,CuDef*%
%ADD37RoundRect,0.237500X-0.237500X0.250000X-0.237500X-0.250000X0.237500X-0.250000X0.237500X0.250000X0*%
%TD*%
%TA.AperFunction,SMDPad,CuDef*%
%ADD38RoundRect,0.075000X-0.650000X-0.075000X0.650000X-0.075000X0.650000X0.075000X-0.650000X0.075000X0*%
%TD*%
%TA.AperFunction,HeatsinkPad*%
%ADD39R,1.570000X1.880000*%
%TD*%
%TA.AperFunction,SMDPad,CuDef*%
%ADD40RoundRect,0.140000X-0.140000X-0.170000X0.140000X-0.170000X0.140000X0.170000X-0.140000X0.170000X0*%
%TD*%
%TA.AperFunction,SMDPad,CuDef*%
%ADD41RoundRect,0.250000X0.250000X0.475000X-0.250000X0.475000X-0.250000X-0.475000X0.250000X-0.475000X0*%
%TD*%
%TA.AperFunction,ComponentPad*%
%ADD42RoundRect,0.250000X0.600000X0.725000X-0.600000X0.725000X-0.600000X-0.725000X0.600000X-0.725000X0*%
%TD*%
%TA.AperFunction,ComponentPad*%
%ADD43O,1.700000X1.950000*%
%TD*%
%TA.AperFunction,SMDPad,CuDef*%
%ADD44RoundRect,0.317500X0.382500X0.317500X-0.382500X0.317500X-0.382500X-0.317500X0.382500X-0.317500X0*%
%TD*%
%TA.AperFunction,SMDPad,CuDef*%
%ADD45R,4.800000X4.720000*%
%TD*%
%TA.AperFunction,SMDPad,CuDef*%
%ADD46RoundRect,0.140000X0.140000X0.170000X-0.140000X0.170000X-0.140000X-0.170000X0.140000X-0.170000X0*%
%TD*%
%TA.AperFunction,ComponentPad*%
%ADD47C,1.400000*%
%TD*%
%TA.AperFunction,ComponentPad*%
%ADD48RoundRect,0.770000X0.980000X0.980000X-0.980000X0.980000X-0.980000X-0.980000X0.980000X-0.980000X0*%
%TD*%
%TA.AperFunction,ComponentPad*%
%ADD49C,3.500000*%
%TD*%
%TA.AperFunction,SMDPad,CuDef*%
%ADD50RoundRect,0.150000X-0.512500X-0.150000X0.512500X-0.150000X0.512500X0.150000X-0.512500X0.150000X0*%
%TD*%
%TA.AperFunction,SMDPad,CuDef*%
%ADD51RoundRect,0.250001X0.462499X0.624999X-0.462499X0.624999X-0.462499X-0.624999X0.462499X-0.624999X0*%
%TD*%
%TA.AperFunction,ComponentPad*%
%ADD52R,2.000000X0.900000*%
%TD*%
%TA.AperFunction,ComponentPad*%
%ADD53RoundRect,1.025000X-1.025000X1.025000X-1.025000X-1.025000X1.025000X-1.025000X1.025000X1.025000X0*%
%TD*%
%TA.AperFunction,ComponentPad*%
%ADD54C,4.100000*%
%TD*%
%TA.AperFunction,SMDPad,CuDef*%
%ADD55R,1.100000X3.700000*%
%TD*%
%TA.AperFunction,SMDPad,CuDef*%
%ADD56RoundRect,1.025000X-1.025000X-1.725000X1.025000X-1.725000X1.025000X1.725000X-1.025000X1.725000X0*%
%TD*%
%TA.AperFunction,SMDPad,CuDef*%
%ADD57RoundRect,0.237500X0.237500X-0.287500X0.237500X0.287500X-0.237500X0.287500X-0.237500X-0.287500X0*%
%TD*%
%TA.AperFunction,SMDPad,CuDef*%
%ADD58R,1.000000X1.500000*%
%TD*%
%TA.AperFunction,SMDPad,CuDef*%
%ADD59R,0.800000X1.800000*%
%TD*%
%TA.AperFunction,SMDPad,CuDef*%
%ADD60RoundRect,0.237500X0.237500X-0.250000X0.237500X0.250000X-0.237500X0.250000X-0.237500X-0.250000X0*%
%TD*%
%TA.AperFunction,SMDPad,CuDef*%
%ADD61RotRect,0.800000X0.800000X225.000000*%
%TD*%
%TA.AperFunction,SMDPad,CuDef*%
%ADD62R,2.500000X2.300000*%
%TD*%
%TA.AperFunction,SMDPad,CuDef*%
%ADD63FreePoly0,0.000000*%
%TD*%
%TA.AperFunction,SMDPad,CuDef*%
%ADD64FreePoly1,0.000000*%
%TD*%
%TA.AperFunction,SMDPad,CuDef*%
%ADD65R,2.300000X2.500000*%
%TD*%
%TA.AperFunction,SMDPad,CuDef*%
%ADD66RoundRect,0.150000X-0.150000X-0.700000X0.150000X-0.700000X0.150000X0.700000X-0.150000X0.700000X0*%
%TD*%
%TA.AperFunction,SMDPad,CuDef*%
%ADD67RoundRect,0.250000X-0.250000X-1.100000X0.250000X-1.100000X0.250000X1.100000X-0.250000X1.100000X0*%
%TD*%
%TA.AperFunction,SMDPad,CuDef*%
%ADD68R,1.400000X1.600000*%
%TD*%
%TA.AperFunction,SMDPad,CuDef*%
%ADD69RoundRect,0.250000X-1.100000X0.325000X-1.100000X-0.325000X1.100000X-0.325000X1.100000X0.325000X0*%
%TD*%
%TA.AperFunction,SMDPad,CuDef*%
%ADD70RoundRect,0.135000X-0.185000X0.135000X-0.185000X-0.135000X0.185000X-0.135000X0.185000X0.135000X0*%
%TD*%
%TA.AperFunction,SMDPad,CuDef*%
%ADD71RoundRect,0.150000X-0.825000X-0.150000X0.825000X-0.150000X0.825000X0.150000X-0.825000X0.150000X0*%
%TD*%
%TA.AperFunction,HeatsinkPad*%
%ADD72R,2.290000X3.000000*%
%TD*%
%TA.AperFunction,SMDPad,CuDef*%
%ADD73RoundRect,0.250000X-0.650000X0.325000X-0.650000X-0.325000X0.650000X-0.325000X0.650000X0.325000X0*%
%TD*%
%TA.AperFunction,SMDPad,CuDef*%
%ADD74RoundRect,0.237500X-0.287500X-0.237500X0.287500X-0.237500X0.287500X0.237500X-0.287500X0.237500X0*%
%TD*%
%TA.AperFunction,SMDPad,CuDef*%
%ADD75RoundRect,0.317500X0.317500X-0.382500X0.317500X0.382500X-0.317500X0.382500X-0.317500X-0.382500X0*%
%TD*%
%TA.AperFunction,SMDPad,CuDef*%
%ADD76R,4.720000X4.800000*%
%TD*%
%TA.AperFunction,SMDPad,CuDef*%
%ADD77RoundRect,0.075000X-0.075000X0.650000X-0.075000X-0.650000X0.075000X-0.650000X0.075000X0.650000X0*%
%TD*%
%TA.AperFunction,SMDPad,CuDef*%
%ADD78RoundRect,0.100000X0.900000X0.100000X-0.900000X0.100000X-0.900000X-0.100000X0.900000X-0.100000X0*%
%TD*%
%TA.AperFunction,SMDPad,CuDef*%
%ADD79RoundRect,0.225000X-0.375000X0.225000X-0.375000X-0.225000X0.375000X-0.225000X0.375000X0.225000X0*%
%TD*%
%TA.AperFunction,SMDPad,CuDef*%
%ADD80RoundRect,0.150000X-0.150000X0.587500X-0.150000X-0.587500X0.150000X-0.587500X0.150000X0.587500X0*%
%TD*%
%TA.AperFunction,SMDPad,CuDef*%
%ADD81RoundRect,0.150000X0.150000X-0.587500X0.150000X0.587500X-0.150000X0.587500X-0.150000X-0.587500X0*%
%TD*%
%TA.AperFunction,SMDPad,CuDef*%
%ADD82RoundRect,0.250000X0.325000X0.650000X-0.325000X0.650000X-0.325000X-0.650000X0.325000X-0.650000X0*%
%TD*%
%TA.AperFunction,ViaPad*%
%ADD83C,0.450000*%
%TD*%
%TA.AperFunction,ViaPad*%
%ADD84C,1.000000*%
%TD*%
%TA.AperFunction,ViaPad*%
%ADD85C,2.000000*%
%TD*%
%TA.AperFunction,Conductor*%
%ADD86C,0.153000*%
%TD*%
%TA.AperFunction,Conductor*%
%ADD87C,0.200000*%
%TD*%
%TA.AperFunction,Conductor*%
%ADD88C,0.300000*%
%TD*%
%TA.AperFunction,Conductor*%
%ADD89C,0.600000*%
%TD*%
%TA.AperFunction,Conductor*%
%ADD90C,0.400000*%
%TD*%
G04 APERTURE END LIST*
D10*
%TO.P,J1,1,VTref*%
%TO.N,+3.3V_LOCAL*%
X171600000Y-93260000D03*
%TO.P,J1,2,SWDIO/TMS*%
%TO.N,/mcu/SWDIO*%
X171600000Y-96900000D03*
%TO.P,J1,3,GND*%
%TO.N,GND*%
X170330000Y-93260000D03*
%TO.P,J1,4,SWDCLK/TCK*%
%TO.N,/mcu/SWCLK*%
X170330000Y-96900000D03*
%TO.P,J1,5,GND*%
%TO.N,GND*%
X169060000Y-93260000D03*
%TO.P,J1,6,SWO/TDO*%
%TO.N,unconnected-(J1-SWO{slash}TDO-Pad6)*%
X169060000Y-96900000D03*
%TO.P,J1,7,KEY*%
%TO.N,unconnected-(J1-KEY-Pad7)*%
X167790000Y-93260000D03*
%TO.P,J1,8,NC/TDI*%
%TO.N,unconnected-(J1-NC{slash}TDI-Pad8)*%
X167790000Y-96900000D03*
%TO.P,J1,9,GNDDetect*%
%TO.N,GND*%
X166520000Y-93260000D03*
%TO.P,J1,10,~{RESET}*%
%TO.N,/mcu/NRST*%
X166520000Y-96900000D03*
%TD*%
D11*
%TO.P,J4,1,Pin_1*%
%TO.N,+5V*%
X145300000Y-134600000D03*
%TO.P,J4,2,Pin_2*%
%TO.N,+3.3V*%
X147300000Y-134600000D03*
%TO.P,J4,3,Pin_3*%
%TO.N,GND*%
X149300000Y-134600000D03*
%TO.P,J4,4,Pin_4*%
X151300000Y-134600000D03*
D12*
%TO.P,J4,MP*%
%TO.N,N/C*%
X153650000Y-139050000D03*
X142950000Y-139050000D03*
%TD*%
D13*
%TO.P,Q4,1,S*%
%TO.N,+BATT*%
X97595000Y-109725000D03*
%TO.P,Q4,2,S*%
X98865000Y-109725000D03*
%TO.P,Q4,3,S*%
X100135000Y-109725000D03*
%TO.P,Q4,4,G*%
%TO.N,/power_protection/GATE*%
X101405000Y-109725000D03*
D14*
%TO.P,Q4,5,D*%
%TO.N,Net-(Q4-D)*%
X99500000Y-106025000D03*
%TD*%
D15*
%TO.P,U8,1,BOOT*%
%TO.N,Net-(U8-BOOT)*%
X129095001Y-107725000D03*
%TO.P,U8,2,VIN*%
%TO.N,+BATT*%
X130365001Y-107725000D03*
%TO.P,U8,3,EN*%
%TO.N,Net-(U8-EN)*%
X131635001Y-107725000D03*
%TO.P,U8,4,RT/SYNC*%
%TO.N,Net-(U8-RT{slash}SYNC)*%
X132905001Y-107725000D03*
%TO.P,U8,5,FB*%
%TO.N,Net-(U8-FB)*%
X132905001Y-102775000D03*
%TO.P,U8,6,SS*%
%TO.N,Net-(U8-SS)*%
X131635001Y-102775000D03*
%TO.P,U8,7,GND*%
%TO.N,GND*%
X130365001Y-102775000D03*
%TO.P,U8,8,SW*%
%TO.N,Net-(D16-K)*%
X129095001Y-102775000D03*
D16*
%TO.P,U8,9,PAD*%
%TO.N,GND*%
X131000001Y-105250000D03*
%TD*%
D17*
%TO.P,C36,1*%
%TO.N,Net-(C30-Pad2)*%
X132000000Y-85450000D03*
%TO.P,C36,2*%
%TO.N,GND*%
X132000000Y-80050000D03*
%TD*%
D18*
%TO.P,C38,1*%
%TO.N,+5V_LOCAL*%
X172800000Y-111370000D03*
%TO.P,C38,2*%
%TO.N,GND*%
X172800000Y-112330000D03*
%TD*%
D19*
%TO.P,SW2,1,1*%
%TO.N,GND*%
X175750000Y-88325000D03*
%TO.P,SW2,2,2*%
%TO.N,~{PB}*%
X175750000Y-87075000D03*
D20*
%TO.P,SW2,MP*%
%TO.N,N/C*%
X178950000Y-90175000D03*
X178950000Y-85225000D03*
%TD*%
D21*
%TO.P,TP3,1,1*%
%TO.N,Net-(U4-OVLO)*%
X94249999Y-95600000D03*
%TD*%
D22*
%TO.P,F6,1*%
%TO.N,+V_{batt_raw}*%
X116200000Y-80265000D03*
X112800000Y-80265000D03*
%TO.P,F6,2*%
%TO.N,+V_{batt_fused}*%
X116200000Y-93735000D03*
X112800000Y-93735000D03*
%TD*%
D23*
%TO.P,C25,1*%
%TO.N,Net-(C22-Pad1)*%
X172600000Y-127100000D03*
%TO.P,C25,2*%
%TO.N,GND*%
X178000000Y-127100000D03*
%TD*%
D15*
%TO.P,U7,1,BOOT*%
%TO.N,Net-(U7-BOOT)*%
X143595000Y-107725000D03*
%TO.P,U7,2,VIN*%
%TO.N,+BATT*%
X144865000Y-107725000D03*
%TO.P,U7,3,EN*%
%TO.N,Net-(U7-EN)*%
X146135000Y-107725000D03*
%TO.P,U7,4,RT/SYNC*%
%TO.N,Net-(U7-RT{slash}SYNC)*%
X147405000Y-107725000D03*
%TO.P,U7,5,FB*%
%TO.N,Net-(U7-FB)*%
X147405000Y-102775000D03*
%TO.P,U7,6,SS*%
%TO.N,Net-(U7-SS)*%
X146135000Y-102775000D03*
%TO.P,U7,7,GND*%
%TO.N,GND*%
X144865000Y-102775000D03*
%TO.P,U7,8,SW*%
%TO.N,Net-(D15-K)*%
X143595000Y-102775000D03*
D16*
%TO.P,U7,9,PAD*%
%TO.N,GND*%
X145500000Y-105250000D03*
%TD*%
D24*
%TO.P,D18,1,K*%
%TO.N,Net-(D18-K)*%
X161750000Y-105350000D03*
%TO.P,D18,2,A*%
%TO.N,GND*%
X157350000Y-105350000D03*
%TD*%
D25*
%TO.P,R13,1*%
%TO.N,Net-(U4-OVLO)*%
X97510000Y-94750000D03*
%TO.P,R13,2*%
%TO.N,GND*%
X96490000Y-94750000D03*
%TD*%
%TO.P,R38,1*%
%TO.N,Net-(U10-RT{slash}CLK)*%
X155560000Y-112100000D03*
%TO.P,R38,2*%
%TO.N,GND*%
X154540000Y-112100000D03*
%TD*%
D26*
%TO.P,H3,1*%
%TO.N,N/C*%
X178000000Y-142000000D03*
D27*
X178000000Y-142000000D03*
%TD*%
D28*
%TO.P,R73,1*%
%TO.N,GND*%
X145990000Y-129900000D03*
%TO.P,R73,2*%
%TO.N,Net-(U6-EN)*%
X147010000Y-129900000D03*
%TD*%
D29*
%TO.P,R14,1*%
%TO.N,+V_{batt_fused}*%
X106250000Y-96037500D03*
%TO.P,R14,2*%
%TO.N,Net-(Q4-D)*%
X106250000Y-101962500D03*
%TD*%
D30*
%TO.P,L2,1,1*%
%TO.N,Net-(D15-K)*%
X143000000Y-98975000D03*
%TO.P,L2,2,2*%
%TO.N,Net-(C29-Pad2)*%
X143000000Y-90025000D03*
%TD*%
D31*
%TO.P,F2,1*%
%TO.N,Net-(C29-Pad2)*%
X144812500Y-74800000D03*
%TO.P,F2,2*%
%TO.N,+5V*%
X147787500Y-74800000D03*
%TD*%
D32*
%TO.P,C37,1*%
%TO.N,+BATT*%
X155050000Y-109300000D03*
%TO.P,C37,2*%
%TO.N,GND*%
X155050000Y-107400000D03*
%TD*%
D26*
%TO.P,H1,1*%
%TO.N,N/C*%
X96000000Y-78000000D03*
D27*
X96000000Y-78000000D03*
%TD*%
D33*
%TO.P,C31,1*%
%TO.N,Net-(U6-SS)*%
X154800000Y-127080000D03*
%TO.P,C31,2*%
%TO.N,GND*%
X154800000Y-126120000D03*
%TD*%
D34*
%TO.P,D9,1,K1*%
%TO.N,~{PB}*%
X170750000Y-101250000D03*
%TO.P,D9,2,A*%
%TO.N,GND*%
X171400000Y-101250000D03*
%TO.P,D9,3,K2*%
%TO.N,/mcu/LED_SHUTDOWN_ACK_PWR*%
X172050000Y-101250000D03*
%TO.P,D9,4,K3*%
%TO.N,/mcu/NRST*%
X172050000Y-99350000D03*
%TO.P,D9,5,K4*%
%TO.N,/mcu/SWDIO*%
X171400000Y-99350000D03*
%TO.P,D9,6,K5*%
%TO.N,/mcu/SWCLK*%
X170750000Y-99350000D03*
%TD*%
D13*
%TO.P,Q5,1,S*%
%TO.N,+BATT*%
X103595000Y-109725000D03*
%TO.P,Q5,2,S*%
X104865000Y-109725000D03*
%TO.P,Q5,3,S*%
X106135000Y-109725000D03*
%TO.P,Q5,4,G*%
%TO.N,/power_protection/GATE*%
X107405000Y-109725000D03*
D14*
%TO.P,Q5,5,D*%
%TO.N,Net-(Q4-D)*%
X105500000Y-106025000D03*
%TD*%
D35*
%TO.P,R27,1*%
%TO.N,/mcu/PWR_3v3_EN*%
X132500000Y-110760000D03*
%TO.P,R27,2*%
%TO.N,Net-(U8-EN)*%
X132500000Y-109740000D03*
%TD*%
D18*
%TO.P,C40,1*%
%TO.N,Net-(C40-Pad1)*%
X166290000Y-110620000D03*
%TO.P,C40,2*%
%TO.N,GND*%
X166290000Y-111580000D03*
%TD*%
D33*
%TO.P,C29,1*%
%TO.N,Net-(U7-FB)*%
X150000000Y-97230000D03*
%TO.P,C29,2*%
%TO.N,Net-(C29-Pad2)*%
X150000000Y-96270000D03*
%TD*%
D23*
%TO.P,C22,1*%
%TO.N,Net-(C22-Pad1)*%
X172600000Y-119600000D03*
%TO.P,C22,2*%
%TO.N,GND*%
X178000000Y-119600000D03*
%TD*%
D36*
%TO.P,SW3,1,1*%
%TO.N,GND*%
X139350000Y-75500000D03*
X132150000Y-75500000D03*
%TO.P,SW3,2,2*%
%TO.N,~{PB}*%
X139350000Y-72500000D03*
X132150000Y-72500000D03*
%TD*%
D35*
%TO.P,R35,1*%
%TO.N,Net-(U8-FB)*%
X134500000Y-97260000D03*
%TO.P,R35,2*%
%TO.N,Net-(C30-Pad2)*%
X134500000Y-96240000D03*
%TD*%
D37*
%TO.P,JP3,1,A*%
%TO.N,Net-(JP3-A)*%
X172550000Y-107937500D03*
%TO.P,JP3,2,B*%
%TO.N,+5V_LOCAL*%
X172550000Y-109762500D03*
%TD*%
D38*
%TO.P,U10,1,BOOT*%
%TO.N,Net-(U10-BOOT)*%
X157400000Y-109100000D03*
%TO.P,U10,2,VIN*%
%TO.N,+BATT*%
X157400000Y-109600000D03*
%TO.P,U10,3,EN*%
%TO.N,unconnected-(U10-EN-Pad3)*%
X157400000Y-110100000D03*
%TO.P,U10,4,SS/TR*%
%TO.N,Net-(U10-SS{slash}TR)*%
X157400000Y-110600000D03*
%TO.P,U10,5,RT/CLK*%
%TO.N,Net-(U10-RT{slash}CLK)*%
X157400000Y-111100000D03*
%TO.P,U10,6,PWRGD*%
%TO.N,/power_regulation/3v3L_EN*%
X161700000Y-111100000D03*
%TO.P,U10,7,VSENSE*%
%TO.N,Net-(U10-VSENSE)*%
X161700000Y-110600000D03*
%TO.P,U10,8,COMP*%
%TO.N,Net-(U10-COMP)*%
X161700000Y-110100000D03*
%TO.P,U10,9,GND*%
%TO.N,GND*%
X161700000Y-109600000D03*
%TO.P,U10,10,PH*%
%TO.N,Net-(D18-K)*%
X161700000Y-109100000D03*
D39*
%TO.P,U10,11,GND*%
%TO.N,GND*%
X159550000Y-110100000D03*
%TD*%
D17*
%TO.P,C32,1*%
%TO.N,Net-(C29-Pad2)*%
X139500000Y-85450000D03*
%TO.P,C32,2*%
%TO.N,GND*%
X139500000Y-80050000D03*
%TD*%
D33*
%TO.P,C27,1*%
%TO.N,Net-(U8-BOOT)*%
X127499999Y-108480000D03*
%TO.P,C27,2*%
%TO.N,Net-(D16-K)*%
X127499999Y-107520000D03*
%TD*%
D40*
%TO.P,C39,1*%
%TO.N,Net-(U10-COMP)*%
X164060000Y-111600000D03*
%TO.P,C39,2*%
%TO.N,GND*%
X165020000Y-111600000D03*
%TD*%
D41*
%TO.P,C17,1*%
%TO.N,+BATT*%
X129700000Y-112250000D03*
%TO.P,C17,2*%
%TO.N,GND*%
X127800000Y-112250000D03*
%TD*%
%TO.P,C16,1*%
%TO.N,+BATT*%
X144200001Y-112250000D03*
%TO.P,C16,2*%
%TO.N,GND*%
X142300001Y-112250000D03*
%TD*%
D42*
%TO.P,J8,1,Pin_1*%
%TO.N,/input_connectors/BATT_BALANCE.CELL_6*%
X170500000Y-79450000D03*
D43*
%TO.P,J8,2,Pin_2*%
%TO.N,/input_connectors/BATT_BALANCE.CELL_5*%
X168000000Y-79450000D03*
%TO.P,J8,3,Pin_3*%
%TO.N,/input_connectors/BATT_BALANCE.CELL_4*%
X165500000Y-79450000D03*
%TO.P,J8,4,Pin_4*%
%TO.N,/input_connectors/BATT_BALANCE.CELL_3*%
X163000000Y-79450000D03*
%TO.P,J8,5,Pin_5*%
%TO.N,/input_connectors/BATT_BALANCE.CELL_2*%
X160500000Y-79450000D03*
%TO.P,J8,6,Pin_6*%
%TO.N,/input_connectors/BATT_BALANCE.CELL_1*%
X158000000Y-79450000D03*
%TO.P,J8,7,Pin_7*%
%TO.N,Net-(J8-Pin_7)*%
X155500000Y-79450000D03*
%TD*%
D44*
%TO.P,D15,1,A*%
%TO.N,GND*%
X139790000Y-108000000D03*
%TO.P,D15,2,A*%
X137710000Y-108000000D03*
D45*
%TO.P,D15,3,K*%
%TO.N,Net-(D15-K)*%
X138750000Y-104195000D03*
%TD*%
D35*
%TO.P,R36,1*%
%TO.N,GND*%
X134500000Y-99260000D03*
%TO.P,R36,2*%
%TO.N,Net-(U8-FB)*%
X134500000Y-98240000D03*
%TD*%
D46*
%TO.P,C24,1*%
%TO.N,Net-(U8-SS)*%
X132230001Y-100750000D03*
%TO.P,C24,2*%
%TO.N,GND*%
X131270001Y-100750000D03*
%TD*%
D35*
%TO.P,R24,1*%
%TO.N,+BATT*%
X145750000Y-110760000D03*
%TO.P,R24,2*%
%TO.N,Net-(U7-EN)*%
X145750000Y-109740000D03*
%TD*%
D25*
%TO.P,R11,1*%
%TO.N,/power_protection/EN_UVLO_OVRR*%
X98010000Y-93250000D03*
%TO.P,R11,2*%
%TO.N,GND*%
X96990000Y-93250000D03*
%TD*%
D47*
%TO.P,J5,*%
%TO.N,*%
X125449999Y-130550000D03*
X114449999Y-130550000D03*
D48*
%TO.P,J5,1,Pin_1*%
%TO.N,GND*%
X122449999Y-125550000D03*
D49*
%TO.P,J5,2,Pin_2*%
%TO.N,+BATT*%
X117449999Y-125550000D03*
%TD*%
D50*
%TO.P,U9,1,IN*%
%TO.N,+5V_LOCAL*%
X174412500Y-111400000D03*
%TO.P,U9,2,GND*%
%TO.N,GND*%
X174412500Y-112350000D03*
%TO.P,U9,3,EN*%
%TO.N,/power_regulation/3v3L_EN*%
X174412500Y-113300000D03*
%TO.P,U9,4,NC*%
%TO.N,unconnected-(U9-NC-Pad4)*%
X176687500Y-113300000D03*
%TO.P,U9,5,OUT*%
%TO.N,+3.3V_LOCAL_ALWAYS_ON*%
X176687500Y-111400000D03*
%TD*%
D51*
%TO.P,F1,1*%
%TO.N,Net-(C22-Pad1)*%
X170537500Y-133750000D03*
%TO.P,F1,2*%
%TO.N,+12V*%
X167562500Y-133750000D03*
%TD*%
D35*
%TO.P,R25,1*%
%TO.N,/mcu/PWR_5v0_EN*%
X146999999Y-110760000D03*
%TO.P,R25,2*%
%TO.N,Net-(U7-EN)*%
X146999999Y-109740000D03*
%TD*%
D52*
%TO.P,J7,*%
%TO.N,*%
X117850000Y-55250000D03*
X117850000Y-68750000D03*
D53*
%TO.P,J7,1,Pin_1*%
%TO.N,GND*%
X111850000Y-58400000D03*
D54*
%TO.P,J7,2,Pin_2*%
%TO.N,+V_{batt_raw}*%
X111850000Y-65600000D03*
%TD*%
D35*
%TO.P,R31,1*%
%TO.N,GND*%
X133750000Y-110760000D03*
%TO.P,R31,2*%
%TO.N,Net-(U8-EN)*%
X133750000Y-109740000D03*
%TD*%
D40*
%TO.P,C28,1*%
%TO.N,Net-(U6-FB)*%
X169120000Y-131700000D03*
%TO.P,C28,2*%
%TO.N,Net-(C22-Pad1)*%
X170080000Y-131700000D03*
%TD*%
D46*
%TO.P,C12,1*%
%TO.N,Net-(U4-TIMER)*%
X95480000Y-102250000D03*
%TO.P,C12,2*%
%TO.N,GND*%
X94520000Y-102250000D03*
%TD*%
D55*
%TO.P,L4,1,1*%
%TO.N,Net-(D18-K)*%
X163800000Y-107600000D03*
%TO.P,L4,2,2*%
%TO.N,Net-(C44-Pad1)*%
X166800000Y-107600000D03*
%TD*%
D56*
%TO.P,L5,1,1*%
%TO.N,Net-(D1-K)*%
X157700000Y-123300000D03*
%TO.P,L5,2,2*%
%TO.N,Net-(C22-Pad1)*%
X168300000Y-123300000D03*
%TD*%
D33*
%TO.P,C26,1*%
%TO.N,Net-(U7-BOOT)*%
X142000000Y-108480000D03*
%TO.P,C26,2*%
%TO.N,Net-(D15-K)*%
X142000000Y-107520000D03*
%TD*%
D57*
%TO.P,F4,1*%
%TO.N,Net-(JP2-B)*%
X176800000Y-106225000D03*
%TO.P,F4,2*%
%TO.N,+3.3V_LOCAL*%
X176800000Y-104475000D03*
%TD*%
D58*
%TO.P,U1,1,SDI*%
%TO.N,/mcu/DOTSTAR_MOSI*%
X152900000Y-90300000D03*
%TO.P,U1,2,CKI*%
%TO.N,/mcu/DOTSTAR_SCK*%
X154500000Y-90300000D03*
%TO.P,U1,3,GND*%
%TO.N,GND*%
X156100000Y-90300000D03*
%TO.P,U1,4,VCC*%
%TO.N,+5V_LOCAL*%
X156100000Y-85400000D03*
%TO.P,U1,5,CKO*%
%TO.N,Net-(U1-CKO)*%
X154500000Y-85400000D03*
%TO.P,U1,6,SDO*%
%TO.N,Net-(U1-SDO)*%
X152900000Y-85400000D03*
%TD*%
D25*
%TO.P,R10,1*%
%TO.N,+V_{batt_fused}*%
X100010000Y-93250001D03*
%TO.P,R10,2*%
%TO.N,/power_protection/EN_UVLO_OVRR*%
X98990000Y-93250001D03*
%TD*%
D28*
%TO.P,R54,1*%
%TO.N,+BATT*%
X143590000Y-129910000D03*
%TO.P,R54,2*%
%TO.N,Net-(U6-EN)*%
X144610000Y-129910000D03*
%TD*%
D41*
%TO.P,C18,1*%
%TO.N,+BATT*%
X145800001Y-126200000D03*
%TO.P,C18,2*%
%TO.N,GND*%
X143900001Y-126200000D03*
%TD*%
D25*
%TO.P,R12,1*%
%TO.N,+V_{batt_fused}*%
X99510000Y-94750000D03*
%TO.P,R12,2*%
%TO.N,Net-(U4-OVLO)*%
X98490000Y-94750000D03*
%TD*%
D19*
%TO.P,J2,1,Pin_1*%
%TO.N,+BATT*%
X175750000Y-96750000D03*
%TO.P,J2,2,Pin_2*%
%TO.N,/mcu/LED_SHUTDOWN_ACK_PWR*%
X175750000Y-95500000D03*
%TO.P,J2,3,Pin_3*%
%TO.N,GND*%
X175750000Y-94250000D03*
D20*
%TO.P,J2,MP*%
%TO.N,N/C*%
X178950000Y-98600000D03*
X178950000Y-92400000D03*
%TD*%
D40*
%TO.P,C21,1*%
%TO.N,Net-(U6-BOOT)*%
X148670000Y-123300000D03*
%TO.P,C21,2*%
%TO.N,Net-(D1-K)*%
X149630000Y-123300000D03*
%TD*%
D28*
%TO.P,R72,1*%
%TO.N,Net-(U6-FB)*%
X169090000Y-130700000D03*
%TO.P,R72,2*%
%TO.N,Net-(C22-Pad1)*%
X170110000Y-130700000D03*
%TD*%
%TO.P,R55,1*%
%TO.N,/mcu/PWR_12v0_EN*%
X143590000Y-131050000D03*
%TO.P,R55,2*%
%TO.N,Net-(U6-EN)*%
X144610000Y-131050000D03*
%TD*%
%TO.P,R75,1*%
%TO.N,GND*%
X167090000Y-130700000D03*
%TO.P,R75,2*%
%TO.N,Net-(U6-FB)*%
X168110000Y-130700000D03*
%TD*%
D59*
%TO.P,BZ1,*%
%TO.N,*%
X176600000Y-136350000D03*
%TO.P,BZ1,1,-*%
%TO.N,+3.3V_LOCAL*%
X180100000Y-136350000D03*
%TO.P,BZ1,2,+*%
%TO.N,Net-(BZ1-+)*%
X180100000Y-132550000D03*
%TD*%
D28*
%TO.P,R37,1*%
%TO.N,Net-(U10-COMP)*%
X164030001Y-110600000D03*
%TO.P,R37,2*%
%TO.N,Net-(C40-Pad1)*%
X165050001Y-110600000D03*
%TD*%
D35*
%TO.P,R26,1*%
%TO.N,+BATT*%
X131250000Y-110760000D03*
%TO.P,R26,2*%
%TO.N,Net-(U8-EN)*%
X131250000Y-109740000D03*
%TD*%
D40*
%TO.P,C43,1*%
%TO.N,Net-(U10-BOOT)*%
X156820000Y-107600000D03*
%TO.P,C43,2*%
%TO.N,Net-(D18-K)*%
X157780000Y-107600000D03*
%TD*%
D17*
%TO.P,C35,1*%
%TO.N,Net-(C29-Pad2)*%
X147000000Y-85450000D03*
%TO.P,C35,2*%
%TO.N,GND*%
X147000000Y-80050000D03*
%TD*%
D60*
%TO.P,JP2,1,A*%
%TO.N,+3.3V_LOCAL_ALWAYS_ON*%
X176800000Y-109762500D03*
%TO.P,JP2,2,B*%
%TO.N,Net-(JP2-B)*%
X176800000Y-107937500D03*
%TD*%
D61*
%TO.P,D5,1,K*%
%TO.N,GND*%
X100369670Y-70630330D03*
%TO.P,D5,2,A*%
%TO.N,Net-(D5-A)*%
X101430330Y-69569670D03*
%TD*%
D44*
%TO.P,D16,1,A*%
%TO.N,GND*%
X125290000Y-108015000D03*
%TO.P,D16,2,A*%
X123210000Y-108015000D03*
D45*
%TO.P,D16,3,K*%
%TO.N,Net-(D16-K)*%
X124250000Y-104210000D03*
%TD*%
D51*
%TO.P,F3,1*%
%TO.N,Net-(C30-Pad2)*%
X126675000Y-74800000D03*
%TO.P,F3,2*%
%TO.N,+3.3V*%
X123700000Y-74800000D03*
%TD*%
D33*
%TO.P,C30,1*%
%TO.N,Net-(U8-FB)*%
X135500000Y-97230000D03*
%TO.P,C30,2*%
%TO.N,Net-(C30-Pad2)*%
X135500000Y-96270000D03*
%TD*%
D35*
%TO.P,R34,1*%
%TO.N,GND*%
X149000000Y-99260000D03*
%TO.P,R34,2*%
%TO.N,Net-(U7-FB)*%
X149000000Y-98240000D03*
%TD*%
D47*
%TO.P,J3,*%
%TO.N,*%
X139950000Y-130550000D03*
X128950000Y-130550000D03*
D48*
%TO.P,J3,1,Pin_1*%
%TO.N,GND*%
X136950000Y-125550000D03*
D49*
%TO.P,J3,2,Pin_2*%
%TO.N,+BATT*%
X131950000Y-125550000D03*
%TD*%
D46*
%TO.P,C23,1*%
%TO.N,Net-(U7-SS)*%
X146710000Y-100749999D03*
%TO.P,C23,2*%
%TO.N,GND*%
X145750000Y-100749999D03*
%TD*%
D62*
%TO.P,D12,1,A1*%
%TO.N,GND*%
X94350000Y-113000000D03*
%TO.P,D12,2,A2*%
%TO.N,+BATT*%
X98650000Y-113000000D03*
%TD*%
D63*
%TO.P,JP1,1,A*%
%TO.N,GND*%
X162700000Y-101857949D03*
D64*
%TO.P,JP1,2,B*%
%TO.N,/mcu/NRST*%
X164400000Y-101857949D03*
%TD*%
D65*
%TO.P,D10,1,A1*%
%TO.N,GND*%
X105750000Y-88600000D03*
%TO.P,D10,2,A2*%
%TO.N,+V_{batt_fused}*%
X105750000Y-92900000D03*
%TD*%
D26*
%TO.P,H4,1*%
%TO.N,N/C*%
X178000000Y-78000000D03*
D27*
X178000000Y-78000000D03*
%TD*%
D41*
%TO.P,C19,1*%
%TO.N,+BATT*%
X144200000Y-110250000D03*
%TO.P,C19,2*%
%TO.N,GND*%
X142300000Y-110250000D03*
%TD*%
D61*
%TO.P,D2,1,K*%
%TO.N,GND*%
X97894796Y-68155456D03*
%TO.P,D2,2,A*%
%TO.N,Net-(D2-A)*%
X98955456Y-67094796D03*
%TD*%
D28*
%TO.P,R17,1*%
%TO.N,+3.3V_LOCAL_ALWAYS_ON*%
X94490000Y-104250000D03*
%TO.P,R17,2*%
%TO.N,/mcu/LOAD_SW_PGOOD*%
X95510000Y-104250000D03*
%TD*%
D25*
%TO.P,R74,1*%
%TO.N,GND*%
X149110000Y-129900000D03*
%TO.P,R74,2*%
%TO.N,Net-(U6-RT{slash}SYNC)*%
X148090000Y-129900000D03*
%TD*%
D35*
%TO.P,R33,1*%
%TO.N,Net-(U7-FB)*%
X149000000Y-97259999D03*
%TO.P,R33,2*%
%TO.N,Net-(C29-Pad2)*%
X149000000Y-96239999D03*
%TD*%
D25*
%TO.P,R39,1*%
%TO.N,Net-(C44-Pad1)*%
X167060000Y-113100000D03*
%TO.P,R39,2*%
%TO.N,Net-(U10-VSENSE)*%
X166040000Y-113100000D03*
%TD*%
D66*
%TO.P,J6,1,Pin_1*%
%TO.N,Net-(J6-Pin_1)*%
X166500000Y-139350000D03*
%TO.P,J6,2,Pin_2*%
%TO.N,Net-(J6-Pin_2)*%
X167750000Y-139350000D03*
%TO.P,J6,3,Pin_3*%
%TO.N,Net-(J6-Pin_3)*%
X169000000Y-139350000D03*
%TO.P,J6,4,Pin_4*%
%TO.N,Net-(J6-Pin_4)*%
X170250000Y-139350000D03*
%TO.P,J6,5,Pin_5*%
%TO.N,GND*%
X171500000Y-139350000D03*
D67*
%TO.P,J6,MP*%
%TO.N,N/C*%
X164650000Y-142550000D03*
X173350000Y-142550000D03*
%TD*%
D21*
%TO.P,TP4,1,1*%
%TO.N,/power_protection/GATE*%
X94250000Y-99250000D03*
%TD*%
D35*
%TO.P,R30,1*%
%TO.N,GND*%
X135000000Y-110760000D03*
%TO.P,R30,2*%
%TO.N,Net-(U8-RT{slash}SYNC)*%
X135000000Y-109740000D03*
%TD*%
D26*
%TO.P,H2,1*%
%TO.N,N/C*%
X96000000Y-142000000D03*
D27*
X96000000Y-142000000D03*
%TD*%
D11*
%TO.P,J10,1,Pin_1*%
%TO.N,GND*%
X158200000Y-134700000D03*
%TO.P,J10,2,Pin_2*%
%TO.N,+12V*%
X160200000Y-134700000D03*
D12*
%TO.P,J10,MP*%
%TO.N,N/C*%
X162550000Y-139150000D03*
X155850000Y-139150000D03*
%TD*%
D68*
%TO.P,SW1,1,1*%
%TO.N,GND*%
X167550000Y-90500000D03*
X167550000Y-83300000D03*
%TO.P,SW1,2,2*%
%TO.N,/mcu/NRST*%
X170550000Y-90500000D03*
X170550000Y-83300000D03*
%TD*%
D69*
%TO.P,C44,1*%
%TO.N,Net-(C44-Pad1)*%
X169550000Y-109124999D03*
%TO.P,C44,2*%
%TO.N,GND*%
X169550000Y-112074999D03*
%TD*%
D25*
%TO.P,R18,1*%
%TO.N,Net-(U4-PWR)*%
X95510000Y-103250000D03*
%TO.P,R18,2*%
%TO.N,GND*%
X94490000Y-103250000D03*
%TD*%
D41*
%TO.P,C15,1*%
%TO.N,+BATT*%
X145800001Y-128289999D03*
%TO.P,C15,2*%
%TO.N,GND*%
X143900001Y-128289999D03*
%TD*%
D46*
%TO.P,C41,1*%
%TO.N,Net-(U10-SS{slash}TR)*%
X155530000Y-110850000D03*
%TO.P,C41,2*%
%TO.N,GND*%
X154570000Y-110850000D03*
%TD*%
D70*
%TO.P,R23,1*%
%TO.N,+5V_LOCAL*%
X171800000Y-111340000D03*
%TO.P,R23,2*%
%TO.N,/power_regulation/3v3L_EN*%
X171800000Y-112360000D03*
%TD*%
D61*
%TO.P,D4,1,K*%
%TO.N,GND*%
X99132233Y-69392893D03*
%TO.P,D4,2,A*%
%TO.N,Net-(D4-A)*%
X100192893Y-68332233D03*
%TD*%
D25*
%TO.P,R40,1*%
%TO.N,Net-(U10-VSENSE)*%
X165060000Y-113100000D03*
%TO.P,R40,2*%
%TO.N,GND*%
X164040000Y-113100000D03*
%TD*%
D71*
%TO.P,U6,1,BOOT*%
%TO.N,Net-(U6-BOOT)*%
X148025000Y-124645000D03*
%TO.P,U6,2,VIN*%
%TO.N,+BATT*%
X148025000Y-125915000D03*
%TO.P,U6,3,EN*%
%TO.N,Net-(U6-EN)*%
X148025000Y-127185000D03*
%TO.P,U6,4,RT/SYNC*%
%TO.N,Net-(U6-RT{slash}SYNC)*%
X148025000Y-128455000D03*
%TO.P,U6,5,FB*%
%TO.N,Net-(U6-FB)*%
X152975000Y-128455000D03*
%TO.P,U6,6,SS*%
%TO.N,Net-(U6-SS)*%
X152975000Y-127185000D03*
%TO.P,U6,7,GND*%
%TO.N,GND*%
X152975000Y-125915000D03*
%TO.P,U6,8,SW*%
%TO.N,Net-(D1-K)*%
X152975000Y-124645000D03*
D72*
%TO.P,U6,9,PAD*%
%TO.N,GND*%
X150500000Y-126550000D03*
%TD*%
D21*
%TO.P,TP2,1,1*%
%TO.N,/power_protection/EN_UVLO_OVRR*%
X94250000Y-92000000D03*
%TD*%
D73*
%TO.P,C42,1*%
%TO.N,+3.3V_LOCAL_ALWAYS_ON*%
X179000000Y-111525000D03*
%TO.P,C42,2*%
%TO.N,GND*%
X179000000Y-114475000D03*
%TD*%
D17*
%TO.P,C33,1*%
%TO.N,Net-(C30-Pad2)*%
X124499999Y-85450000D03*
%TO.P,C33,2*%
%TO.N,GND*%
X124499999Y-80050000D03*
%TD*%
D21*
%TO.P,TP1,1,1*%
%TO.N,/power_protection/~{EN}*%
X94250000Y-88400000D03*
%TD*%
D30*
%TO.P,L3,1,1*%
%TO.N,Net-(D16-K)*%
X128500000Y-98975000D03*
%TO.P,L3,2,2*%
%TO.N,Net-(C30-Pad2)*%
X128500000Y-90025000D03*
%TD*%
D61*
%TO.P,D3,1,K*%
%TO.N,GND*%
X96657359Y-66918019D03*
%TO.P,D3,2,A*%
%TO.N,Net-(D3-A)*%
X97718019Y-65857359D03*
%TD*%
D33*
%TO.P,C6,1*%
%TO.N,GND*%
X150650000Y-88080000D03*
%TO.P,C6,2*%
%TO.N,+5V_LOCAL*%
X150650000Y-87120000D03*
%TD*%
D29*
%TO.P,R15,1*%
%TO.N,+V_{batt_fused}*%
X102250000Y-96037500D03*
%TO.P,R15,2*%
%TO.N,Net-(Q4-D)*%
X102250000Y-101962500D03*
%TD*%
D41*
%TO.P,C20,1*%
%TO.N,+BATT*%
X129700000Y-110230000D03*
%TO.P,C20,2*%
%TO.N,GND*%
X127800000Y-110230000D03*
%TD*%
D74*
%TO.P,F5,1*%
%TO.N,Net-(C44-Pad1)*%
X168925000Y-106100000D03*
%TO.P,F5,2*%
%TO.N,Net-(JP3-A)*%
X170675000Y-106100000D03*
%TD*%
D75*
%TO.P,D1,1,A*%
%TO.N,GND*%
X147935000Y-121140000D03*
%TO.P,D1,2,A*%
X147935000Y-119060000D03*
D76*
%TO.P,D1,3,K*%
%TO.N,Net-(D1-K)*%
X151740000Y-120100000D03*
%TD*%
D58*
%TO.P,U2,1,SDI*%
%TO.N,Net-(U1-SDO)*%
X160450000Y-90250000D03*
%TO.P,U2,2,CKI*%
%TO.N,Net-(U1-CKO)*%
X162050000Y-90250000D03*
%TO.P,U2,3,GND*%
%TO.N,GND*%
X163650000Y-90250000D03*
%TO.P,U2,4,VCC*%
%TO.N,+5V_LOCAL*%
X163650000Y-85350000D03*
%TO.P,U2,5,CKO*%
%TO.N,unconnected-(U2-CKO-Pad5)*%
X162050000Y-85350000D03*
%TO.P,U2,6,SDO*%
%TO.N,unconnected-(U2-SDO-Pad6)*%
X160450000Y-85350000D03*
%TD*%
D11*
%TO.P,J9,1,Pin_1*%
%TO.N,+5V*%
X103150000Y-134550000D03*
%TO.P,J9,2,Pin_2*%
%TO.N,+3.3V*%
X105150000Y-134550000D03*
%TO.P,J9,3,Pin_3*%
%TO.N,GND*%
X107150000Y-134550000D03*
%TO.P,J9,4,Pin_4*%
X109150000Y-134550000D03*
D12*
%TO.P,J9,MP*%
%TO.N,N/C*%
X111500000Y-139000000D03*
X100800000Y-139000000D03*
%TD*%
D75*
%TO.P,D11,1,A*%
%TO.N,GND*%
X94095000Y-119840000D03*
%TO.P,D11,2,A*%
X94095000Y-117760000D03*
D76*
%TO.P,D11,3,K*%
%TO.N,+BATT*%
X97900000Y-118800000D03*
%TD*%
D77*
%TO.P,U4,1,SENSE*%
%TO.N,Net-(Q4-D)*%
X99250000Y-96800000D03*
%TO.P,U4,2,VIN*%
%TO.N,+V_{batt_fused}*%
X98750000Y-96800000D03*
%TO.P,U4,3,UVLO/EN*%
%TO.N,/power_protection/EN_UVLO_OVRR*%
X98250000Y-96800000D03*
%TO.P,U4,4,OVLO*%
%TO.N,Net-(U4-OVLO)*%
X97750000Y-96800000D03*
%TO.P,U4,5,GND*%
%TO.N,GND*%
X97250000Y-96800000D03*
%TO.P,U4,6,TIMER*%
%TO.N,Net-(U4-TIMER)*%
X97250000Y-101200000D03*
%TO.P,U4,7,PWR*%
%TO.N,Net-(U4-PWR)*%
X97750000Y-101200000D03*
%TO.P,U4,8,PGD*%
%TO.N,/mcu/LOAD_SW_PGOOD*%
X98250000Y-101200000D03*
%TO.P,U4,9,OUT*%
%TO.N,+BATT*%
X98750000Y-101200000D03*
%TO.P,U4,10,GATE*%
%TO.N,/power_protection/GATE*%
X99250000Y-101200000D03*
%TD*%
D35*
%TO.P,R32,1*%
%TO.N,GND*%
X148250000Y-110760000D03*
%TO.P,R32,2*%
%TO.N,Net-(U7-EN)*%
X148250000Y-109740000D03*
%TD*%
D41*
%TO.P,C34,1*%
%TO.N,+BATT*%
X145800001Y-124100000D03*
%TO.P,C34,2*%
%TO.N,GND*%
X143900001Y-124100000D03*
%TD*%
D35*
%TO.P,R29,1*%
%TO.N,GND*%
X149550000Y-110760000D03*
%TO.P,R29,2*%
%TO.N,Net-(U7-RT{slash}SYNC)*%
X149550000Y-109740000D03*
%TD*%
%TO.P,R20,1*%
%TO.N,+3.3V_LOCAL_ALWAYS_ON*%
X103800000Y-85210000D03*
%TO.P,R20,2*%
%TO.N,/mcu/PWR_~{KILL}*%
X103800000Y-84190000D03*
%TD*%
D28*
%TO.P,R1,1*%
%TO.N,+3.3V_LOCAL*%
X163090000Y-99300000D03*
%TO.P,R1,2*%
%TO.N,/mcu/NRST*%
X164110000Y-99300000D03*
%TD*%
D78*
%TO.P,U5,1,ON*%
%TO.N,GND*%
X106936284Y-82770000D03*
%TO.P,U5,2,~{KILL}*%
%TO.N,/mcu/PWR_~{KILL}*%
X106936284Y-82130000D03*
%TO.P,U5,3,TMR*%
%TO.N,Net-(U5-TMR)*%
X106936284Y-81470000D03*
%TO.P,U5,4,GND*%
%TO.N,GND*%
X106936284Y-80830000D03*
%TO.P,U5,5,~{PB}*%
%TO.N,Net-(U5-~{PB})*%
X103516284Y-80830000D03*
%TO.P,U5,6,V_{in}*%
%TO.N,Net-(U5-V_{in})*%
X103516284Y-81470000D03*
%TO.P,U5,7,~{EN}*%
%TO.N,/power_protection/~{EN}*%
X103516284Y-82130000D03*
%TO.P,U5,8,~{INT}*%
%TO.N,/mcu/PWR_BTN_~{INT}*%
X103516284Y-82770000D03*
%TD*%
D33*
%TO.P,C14,1*%
%TO.N,Net-(D13-K)*%
X113000001Y-105080000D03*
%TO.P,C14,2*%
%TO.N,GND*%
X113000001Y-104120000D03*
%TD*%
D79*
%TO.P,D13,1,K*%
%TO.N,Net-(D13-K)*%
X113500000Y-106450000D03*
%TO.P,D13,2,A*%
%TO.N,/power_protection/GATE*%
X113500000Y-109750000D03*
%TD*%
D25*
%TO.P,R16,1*%
%TO.N,Net-(U5-~{PB})*%
X102221284Y-79300000D03*
%TO.P,R16,2*%
%TO.N,~{PB}*%
X101201284Y-79300000D03*
%TD*%
D18*
%TO.P,C10,1*%
%TO.N,Net-(U5-V_{in})*%
X101476284Y-81070000D03*
%TO.P,C10,2*%
%TO.N,GND*%
X101476284Y-82030000D03*
%TD*%
D80*
%TO.P,Q3,1,G*%
%TO.N,/power_protection/~{EN}*%
X98350000Y-82862500D03*
%TO.P,Q3,2,S*%
%TO.N,GND*%
X96450000Y-82862500D03*
%TO.P,Q3,3,D*%
%TO.N,/power_protection/EN_UVLO_OVRR*%
X97400000Y-84737500D03*
%TD*%
D81*
%TO.P,Q6,1,B*%
%TO.N,Net-(Q6-B)*%
X109550000Y-106287500D03*
%TO.P,Q6,2,E*%
%TO.N,Net-(D13-K)*%
X111450000Y-106287500D03*
%TO.P,Q6,3,C*%
%TO.N,GND*%
X110500000Y-104412500D03*
%TD*%
D35*
%TO.P,R9,1*%
%TO.N,Net-(U5-V_{in})*%
X100226284Y-81060000D03*
%TO.P,R9,2*%
%TO.N,+V_{batt_fused}*%
X100226284Y-80040000D03*
%TD*%
%TO.P,R21,1*%
%TO.N,/power_protection/GATE*%
X111750001Y-108860000D03*
%TO.P,R21,2*%
%TO.N,Net-(Q6-B)*%
X111750001Y-107840000D03*
%TD*%
D82*
%TO.P,C13,1*%
%TO.N,Net-(U5-TMR)*%
X108475000Y-78600000D03*
%TO.P,C13,2*%
%TO.N,GND*%
X105525000Y-78600000D03*
%TD*%
D40*
%TO.P,C11,1*%
%TO.N,Net-(U5-~{PB})*%
X103231284Y-79300000D03*
%TO.P,C11,2*%
%TO.N,GND*%
X104191284Y-79300000D03*
%TD*%
D46*
%TO.P,C5,1*%
%TO.N,/mcu/NRST*%
X164080000Y-100550000D03*
%TO.P,C5,2*%
%TO.N,GND*%
X163120000Y-100550000D03*
%TD*%
D83*
%TO.N,/mcu/RX*%
X172300000Y-91650000D03*
%TO.N,/mcu/TX*%
X172500000Y-90200000D03*
%TO.N,/mcu/RX*%
X177140001Y-87600000D03*
%TO.N,/mcu/TX*%
X177140001Y-84600000D03*
%TO.N,Net-(J6-Pin_1)*%
X174209999Y-84600000D03*
%TO.N,Net-(J6-Pin_2)*%
X174209999Y-87600000D03*
%TO.N,Net-(J6-Pin_3)*%
X174209999Y-86600000D03*
%TO.N,Net-(J6-Pin_4)*%
X174209999Y-85600000D03*
%TO.N,+3.3V_LOCAL*%
X178159999Y-84000000D03*
X178159999Y-87600000D03*
%TO.N,GND*%
X170040001Y-86600000D03*
X171500000Y-139350000D03*
%TO.N,~{PB}*%
X127800000Y-69650000D03*
X108850000Y-71850000D03*
%TO.N,/mcu/LED_SHUTDOWN_ACK_PWR*%
X149350000Y-89350000D03*
%TO.N,/mcu/LED_RED*%
X149950000Y-90500000D03*
%TO.N,/mcu/LED_GREEN*%
X150800000Y-90500000D03*
%TO.N,/mcu/LED_SHUTDOWN_ACK_PWR*%
X168700000Y-102100000D03*
X173862500Y-101250000D03*
%TO.N,+3.3V_LOCAL*%
X175737500Y-102200000D03*
%TO.N,/mcu/LED_RED*%
X99360624Y-64239376D03*
%TO.N,/mcu/LED_GREEN*%
X100560624Y-65439376D03*
%TO.N,/mcu/LED_SHUTDOWN_ACK_PWR*%
X101810624Y-66689376D03*
%TO.N,~{PB}*%
X101201284Y-79300000D03*
%TO.N,+BATT*%
X103060624Y-67939376D03*
%TO.N,Net-(D5-A)*%
X101430330Y-69569670D03*
%TO.N,Net-(D4-A)*%
X100192893Y-68332233D03*
%TO.N,Net-(D2-A)*%
X98955456Y-67094796D03*
%TO.N,Net-(D3-A)*%
X97718019Y-65857359D03*
%TO.N,+3.3V_LOCAL*%
X174509999Y-89750000D03*
%TO.N,/mcu/PWR_~{KILL}*%
X122300000Y-96500000D03*
%TO.N,/mcu/PWR_BTN_~{INT}*%
X120400000Y-95700000D03*
%TO.N,/mcu/BUZZER*%
X181400000Y-98650000D03*
%TO.N,/mcu/BATT_POST*%
X153450000Y-83150000D03*
%TO.N,/mcu/BATT_PRE*%
X152150000Y-83150000D03*
%TO.N,/mcu/PWR_BTN_~{INT}*%
X172400000Y-89350000D03*
%TO.N,/mcu/PWR_~{KILL}*%
X171750000Y-89850000D03*
%TO.N,GND*%
X167550000Y-90500000D03*
X167550000Y-83300000D03*
%TO.N,/mcu/BATT_POST*%
X153950000Y-94140001D03*
%TO.N,/mcu/BATT_PRE*%
X151450000Y-94140000D03*
%TO.N,+V_{batt_fused}*%
X151450000Y-92140002D03*
%TO.N,+BATT*%
X153950000Y-92204525D03*
%TO.N,GND*%
X150450000Y-95130000D03*
X151450000Y-95159999D03*
X152950000Y-95130000D03*
X153950000Y-95159999D03*
%TO.N,+3.3V_LOCAL*%
X163090001Y-99300000D03*
%TO.N,GND*%
X162700000Y-101857949D03*
X163120000Y-100550000D03*
%TO.N,+5V_LOCAL*%
X153200000Y-88100000D03*
%TO.N,GND*%
X150650000Y-88080000D03*
%TO.N,/mcu/DOTSTAR_SCK*%
X165150000Y-92650000D03*
%TO.N,/mcu/DOTSTAR_MOSI*%
X165150000Y-93450000D03*
%TO.N,/mcu/LOAD_SW_PGOOD*%
X161650000Y-97800000D03*
D84*
%TO.N,GND*%
X94095000Y-119840000D03*
X94095000Y-117760000D03*
X94349999Y-113000000D03*
D83*
%TO.N,+3.3V_LOCAL_ALWAYS_ON*%
X94490001Y-104250000D03*
%TO.N,GND*%
X108400000Y-82800000D03*
%TO.N,/mcu/BATT_PRE*%
X167950000Y-85700000D03*
%TO.N,/mcu/BATT_POST*%
X167450000Y-85000000D03*
%TO.N,/mcu/5v0*%
X165950000Y-85050000D03*
%TO.N,/mcu/3v3*%
X165450000Y-85700000D03*
%TO.N,/mcu/5v0*%
X154400001Y-76150000D03*
%TO.N,/mcu/3v3*%
X151900000Y-76140002D03*
%TO.N,GND*%
X152800000Y-82100000D03*
X154400000Y-74140001D03*
X153399999Y-74190001D03*
X151900000Y-74140001D03*
X150900000Y-74170000D03*
%TO.N,+3.3V*%
X151900000Y-77160000D03*
%TO.N,+5V*%
X154400001Y-77179999D03*
%TO.N,/mcu/BUZZER*%
X175350000Y-136710000D03*
%TO.N,GND*%
X175412500Y-132000000D03*
X174200000Y-135690000D03*
%TO.N,Net-(BZ1-+)*%
X180100000Y-132550000D03*
%TO.N,+3.3V_LOCAL*%
X180100000Y-136350000D03*
D84*
%TO.N,GND*%
X147935000Y-119060000D03*
X147935000Y-121140000D03*
D83*
%TO.N,+V_{batt_fused}*%
X100009999Y-93250001D03*
X100226284Y-80040000D03*
%TO.N,/mcu/NRST*%
X163550000Y-89000000D03*
%TO.N,/mcu/PWR_3v3_EN*%
X163950000Y-96600000D03*
%TO.N,/mcu/PWR_5v0_EN*%
X164450000Y-97250000D03*
%TO.N,/mcu/PWR_12v0_EN*%
X164950000Y-96600000D03*
%TO.N,+3.3V_LOCAL*%
X172450000Y-93250000D03*
%TO.N,GND*%
X166520000Y-93260000D03*
X169060000Y-93260000D03*
%TO.N,/mcu/SWDIO*%
X171600000Y-96900000D03*
%TO.N,/mcu/SWCLK*%
X170330000Y-96900000D03*
%TO.N,GND*%
X174900002Y-72600000D03*
X156100000Y-90300000D03*
X163650000Y-90250000D03*
%TO.N,+3.3V_LOCAL*%
X157050000Y-92625000D03*
X159517500Y-90500000D03*
X159517500Y-92850000D03*
%TO.N,GND*%
X158510589Y-83660589D03*
X157126777Y-84521142D03*
X156773223Y-87278858D03*
X155389411Y-88139411D03*
X155635715Y-96646518D03*
X157403482Y-98414285D03*
X158557500Y-90500000D03*
X158537500Y-91850001D03*
X158557500Y-92850000D03*
%TO.N,/mcu/PWR_3v3_EN*%
X132500000Y-110759999D03*
%TO.N,GND*%
X133750000Y-110759999D03*
%TO.N,/mcu/PWR_5v0_EN*%
X146999999Y-110759999D03*
%TO.N,GND*%
X148250000Y-110759999D03*
%TO.N,+3.3V*%
X105150000Y-137750000D03*
%TO.N,+5V*%
X103150000Y-140749999D03*
X103150000Y-138750000D03*
X103150000Y-141750000D03*
X103150000Y-139750001D03*
X103150000Y-137750000D03*
%TO.N,+3.3V*%
X105150000Y-140749999D03*
X105150000Y-141750000D03*
X105150000Y-138750000D03*
X105150000Y-139750001D03*
%TO.N,+5V*%
X145300000Y-137800000D03*
X145300000Y-140799999D03*
X145300000Y-141800000D03*
X145300000Y-138800000D03*
X145300000Y-139800001D03*
%TO.N,+3.3V*%
X147300000Y-137800000D03*
X147300000Y-139800001D03*
X147300000Y-138800000D03*
X147300000Y-141800000D03*
X147300000Y-140799999D03*
%TO.N,/mcu/PWR_12v0_EN*%
X143590000Y-131050000D03*
%TO.N,GND*%
X149109999Y-129900000D03*
X145990000Y-129900000D03*
%TO.N,+BATT*%
X98700000Y-99800000D03*
%TO.N,GND*%
X96450000Y-82862500D03*
X101476284Y-82030000D03*
X105525000Y-78600000D03*
X104191284Y-79300000D03*
%TO.N,+3.3V*%
X122000000Y-74299999D03*
X123000000Y-74300000D03*
X124000000Y-74300000D03*
X123000000Y-75300000D03*
X124000000Y-75300000D03*
X121999999Y-75300000D03*
%TO.N,+5V*%
X147500000Y-74299999D03*
X148500000Y-74300000D03*
X149500000Y-74300000D03*
X148500000Y-75300000D03*
X149500000Y-75300000D03*
X147499999Y-75300000D03*
D85*
%TO.N,+3.3V*%
X123675000Y-72600000D03*
%TO.N,Net-(C30-Pad2)*%
X126650000Y-72600000D03*
%TO.N,+5V*%
X147787500Y-72600000D03*
%TO.N,Net-(C29-Pad2)*%
X144812500Y-72600000D03*
D83*
%TO.N,GND*%
X132150000Y-75500000D03*
X139350000Y-75500000D03*
D85*
%TO.N,Net-(C22-Pad1)*%
X170537500Y-136100000D03*
%TO.N,+12V*%
X167562500Y-136100000D03*
D83*
%TO.N,/mcu/LOAD_SW_PGOOD*%
X95510000Y-104250000D03*
%TO.N,GND*%
X171400000Y-101249999D03*
X96657359Y-66918019D03*
X97894796Y-68155456D03*
X99132233Y-69392893D03*
X100369670Y-70630330D03*
X179000000Y-114475001D03*
%TO.N,+5V_LOCAL*%
X174400000Y-111400000D03*
%TO.N,+3.3V_LOCAL_ALWAYS_ON*%
X176700000Y-111400000D03*
%TO.N,GND*%
X175750000Y-88325000D03*
X175750000Y-94250000D03*
%TO.N,Net-(J6-Pin_4)*%
X170250000Y-139350000D03*
%TO.N,Net-(J6-Pin_3)*%
X169000000Y-139350000D03*
%TO.N,Net-(J6-Pin_2)*%
X167750000Y-139350000D03*
%TO.N,Net-(J6-Pin_1)*%
X166500000Y-139350000D03*
%TO.N,GND*%
X147499999Y-81050000D03*
X146499999Y-80050000D03*
X147499999Y-80050000D03*
X147500000Y-79050000D03*
X146499999Y-81050000D03*
X146499999Y-79050000D03*
X139999999Y-81050000D03*
X138999999Y-80050000D03*
X139999999Y-80050000D03*
X140000000Y-79050000D03*
X138999999Y-81050000D03*
X138999999Y-79050000D03*
X124999999Y-81050000D03*
X123999999Y-80050000D03*
X124999999Y-80050000D03*
X125000000Y-79050000D03*
X123999999Y-81050000D03*
X123999999Y-79050000D03*
X132499999Y-81050000D03*
X131499999Y-80050000D03*
X132499999Y-80050000D03*
X132500000Y-79050000D03*
X131499999Y-81050000D03*
X131499999Y-79050000D03*
X179000000Y-119100001D03*
X178000000Y-120100001D03*
X178000000Y-119100001D03*
X177000000Y-119100000D03*
X179000000Y-120100001D03*
X177000000Y-120100000D03*
X179000000Y-126600001D03*
X178000000Y-127600001D03*
X178000000Y-126600001D03*
X177000000Y-126600000D03*
X179000000Y-127600001D03*
X177000000Y-127600000D03*
X160300000Y-139800000D03*
X159300000Y-140800000D03*
X160300000Y-140800000D03*
X158300000Y-137800000D03*
X159300000Y-138800000D03*
X160300000Y-141800000D03*
X158300000Y-139800001D03*
X160300000Y-138800000D03*
X158300000Y-138800000D03*
X159300000Y-137800000D03*
X158300000Y-141800000D03*
X160300001Y-137800000D03*
X158300000Y-140799999D03*
X159300000Y-141800000D03*
X159300000Y-139800000D03*
X167090001Y-130700000D03*
X151229614Y-126537517D03*
X151235001Y-125535001D03*
X149735000Y-127535001D03*
X150485000Y-127035001D03*
X149735000Y-126535001D03*
X149734999Y-125535001D03*
X151235000Y-127535001D03*
X150485002Y-126035001D03*
X96490000Y-94740000D03*
X96990001Y-93250000D03*
D84*
X105750000Y-88599999D03*
D83*
X94520000Y-102250000D03*
X94490001Y-103250000D03*
X110500000Y-104412499D03*
X113000001Y-104120000D03*
%TO.N,/power_protection/GATE*%
X113500000Y-109750000D03*
D84*
%TO.N,GND*%
X143900002Y-124090000D03*
X143900002Y-126200000D03*
X143900002Y-128289999D03*
D83*
X155500000Y-76190001D03*
X171500000Y-74220000D03*
X170500000Y-74190001D03*
X169000000Y-74220000D03*
X168000000Y-74190001D03*
X166500000Y-74220000D03*
X165500000Y-74190001D03*
X164000000Y-74210000D03*
X163000000Y-74190001D03*
X161500000Y-74220000D03*
X160500000Y-74190001D03*
X159000000Y-74220000D03*
X158000000Y-74190001D03*
X149300000Y-138800000D03*
X108150000Y-141750000D03*
X150300000Y-137800000D03*
X109150000Y-141750000D03*
X140200000Y-109800000D03*
X151300000Y-138800000D03*
X126600000Y-110600000D03*
X149300000Y-139800001D03*
X146500000Y-106000000D03*
X150300000Y-138800000D03*
X138400000Y-109800000D03*
X159055385Y-110597484D03*
X151300000Y-141800000D03*
X97250000Y-95600000D03*
X170550000Y-112050000D03*
X139300000Y-109800000D03*
X126600001Y-111800000D03*
X131500000Y-105250000D03*
X124800000Y-110600000D03*
X139300000Y-110600000D03*
X141100000Y-110600000D03*
X108150000Y-139750001D03*
X149550000Y-110759999D03*
X159050000Y-109600001D03*
X140200000Y-111800000D03*
X131999999Y-106000000D03*
X149300000Y-137800000D03*
X107150000Y-141750000D03*
X126600000Y-109800000D03*
X123900000Y-109800000D03*
X108150000Y-137750000D03*
X154800000Y-104849999D03*
X154540001Y-112100000D03*
X107150000Y-140750000D03*
X130500001Y-105250000D03*
X155800000Y-104850000D03*
X125700000Y-110600000D03*
X155800000Y-105850000D03*
X141100001Y-112700000D03*
X160050000Y-109600000D03*
X132000000Y-104500000D03*
X131002516Y-104505385D03*
X151300000Y-140800000D03*
X172800000Y-112330000D03*
X149000000Y-99259999D03*
X107150000Y-139750000D03*
X165050000Y-112350000D03*
X108150000Y-140749999D03*
X134500000Y-99259999D03*
X140200000Y-110600000D03*
X141100000Y-111800000D03*
X135000000Y-110759999D03*
X108150000Y-138750000D03*
X109150000Y-139750000D03*
X150300000Y-140800000D03*
X151300000Y-139800000D03*
X145502516Y-104505386D03*
X141100000Y-109799999D03*
X144500000Y-104499999D03*
X154570000Y-110850000D03*
X109150000Y-138750000D03*
X109150000Y-137750000D03*
X146000000Y-105250000D03*
X126600001Y-112700000D03*
X144500000Y-106000001D03*
X130000000Y-106000000D03*
X145500000Y-106000000D03*
X168550000Y-112050000D03*
X124800000Y-109800000D03*
X150300000Y-141800000D03*
X149300000Y-140799999D03*
X109150000Y-140750000D03*
X146500000Y-104500000D03*
X145000000Y-105249999D03*
X125700000Y-109800000D03*
X125700000Y-111799999D03*
X149300000Y-141800000D03*
X150300000Y-139800000D03*
X166290000Y-111580000D03*
X160055385Y-110597484D03*
X151300001Y-137800000D03*
X107150000Y-137750000D03*
X164040001Y-113100000D03*
X169550000Y-112050000D03*
X130000000Y-104500000D03*
X107150000Y-138750000D03*
X131000001Y-106000000D03*
X154800000Y-105850000D03*
D85*
%TO.N,+3.3V_LOCAL*%
X178800000Y-104300000D03*
D83*
%TO.N,/power_protection/GATE*%
X99250000Y-102400000D03*
D85*
%TO.N,Net-(C44-Pad1)*%
X168200000Y-104200000D03*
%TO.N,Net-(JP2-B)*%
X178800000Y-107100000D03*
%TO.N,Net-(JP3-A)*%
X171200000Y-104200000D03*
%TD*%
D86*
%TO.N,~{PB}*%
X173729499Y-87400970D02*
X174010969Y-87119500D01*
X173729499Y-91779499D02*
X173729499Y-87400970D01*
X173800000Y-99900000D02*
X173800000Y-91850000D01*
X173000000Y-100700000D02*
X173800000Y-99900000D01*
X173800000Y-91850000D02*
X173729499Y-91779499D01*
X175705500Y-87119500D02*
X175750000Y-87075000D01*
X170750000Y-100925001D02*
X170975001Y-100700000D01*
X174010969Y-87119500D02*
X175705500Y-87119500D01*
X170975001Y-100700000D02*
X173000000Y-100700000D01*
X170750000Y-101250000D02*
X170750000Y-100925001D01*
X127800000Y-69650000D02*
X130650000Y-72500000D01*
X130650000Y-72500000D02*
X132150000Y-72500000D01*
%TO.N,/mcu/LED_SHUTDOWN_ACK_PWR*%
X172050000Y-101574999D02*
X171524999Y-102100000D01*
X171524999Y-102100000D02*
X168700000Y-102100000D01*
X172050000Y-101250000D02*
X172050000Y-101574999D01*
X172050000Y-101250000D02*
X173862500Y-101250000D01*
X174400000Y-100712500D02*
X173862500Y-101250000D01*
X174400000Y-95800000D02*
X174400000Y-100712500D01*
X174700000Y-95500000D02*
X174400000Y-95800000D01*
X175749999Y-95500000D02*
X174700000Y-95500000D01*
D87*
%TO.N,+BATT*%
X174200000Y-102800000D02*
X175750000Y-101250000D01*
X154350000Y-102800000D02*
X174200000Y-102800000D01*
X175750000Y-101250000D02*
X175750000Y-96750000D01*
X152800000Y-106137233D02*
X152800000Y-104350000D01*
X152800001Y-106137234D02*
X152800000Y-106137233D01*
X152800000Y-104350000D02*
X154350000Y-102800000D01*
X152800001Y-109299999D02*
X152800001Y-106137234D01*
D86*
%TO.N,GND*%
X106400000Y-78600000D02*
X105525000Y-78600000D01*
X106936284Y-79136284D02*
X106400000Y-78600000D01*
X106936284Y-80830000D02*
X106936284Y-79136284D01*
%TO.N,Net-(U5-TMR)*%
X108475000Y-81175000D02*
X108475000Y-78600000D01*
X108180000Y-81470000D02*
X108475000Y-81175000D01*
X106936284Y-81470000D02*
X108180000Y-81470000D01*
%TO.N,/mcu/PWR_~{KILL}*%
X122300000Y-95350000D02*
X109080000Y-82130000D01*
X109080000Y-82130000D02*
X106936284Y-82130000D01*
X122300000Y-96500000D02*
X122300000Y-95350000D01*
D88*
%TO.N,+5V_LOCAL*%
X152450000Y-83800000D02*
X154450000Y-83800000D01*
X154450000Y-83800000D02*
X155250000Y-83000000D01*
X151650000Y-84600000D02*
X152450000Y-83800000D01*
X151650000Y-87120000D02*
X151650000Y-84600000D01*
X152026000Y-87120000D02*
X151650000Y-87120000D01*
X155250000Y-83000000D02*
X156100000Y-83000000D01*
D86*
%TO.N,/mcu/PWR_BTN_~{INT}*%
X102500000Y-84700000D02*
X102050000Y-84250000D01*
X102050000Y-84250000D02*
X102050000Y-82950000D01*
X102050000Y-82950000D02*
X102230000Y-82770000D01*
X109715535Y-84700000D02*
X102500000Y-84700000D01*
X120400000Y-95384465D02*
X109715535Y-84700000D01*
X120400000Y-95700000D02*
X120400000Y-95384465D01*
X102230000Y-82770000D02*
X103516284Y-82770000D01*
%TO.N,/mcu/NRST*%
X163550000Y-89000000D02*
X170500000Y-89000000D01*
X170550000Y-88950000D02*
X170550000Y-83300000D01*
X170550000Y-90500000D02*
X170550000Y-88950000D01*
X170500000Y-89000000D02*
X170550000Y-88950000D01*
X172040000Y-90500000D02*
X170550000Y-90500000D01*
X173520000Y-91980000D02*
X172040000Y-90500000D01*
D88*
%TO.N,+5V_LOCAL*%
X152220000Y-87120000D02*
X152026000Y-87120000D01*
X153200000Y-88100000D02*
X152220000Y-87120000D01*
X152026000Y-87120000D02*
X150650000Y-87120000D01*
D86*
%TO.N,/mcu/NRST*%
X172850000Y-99350000D02*
X172050000Y-99350000D01*
X173520000Y-98680000D02*
X172850000Y-99350000D01*
X173520000Y-91980000D02*
X173520000Y-98680000D01*
X167125000Y-99425000D02*
X167700000Y-100000000D01*
X166000000Y-100550000D02*
X167125000Y-99425000D01*
X166520000Y-98820000D02*
X167125000Y-99425000D01*
X164080000Y-100550000D02*
X166000000Y-100550000D01*
X164080000Y-100930000D02*
X164080000Y-100550000D01*
X164400000Y-101250000D02*
X164080000Y-100930000D01*
X164400000Y-101857949D02*
X164400000Y-101250000D01*
X164109999Y-100520001D02*
X164080000Y-100550000D01*
X164109999Y-99300000D02*
X164109999Y-100520001D01*
D88*
%TO.N,+5V_LOCAL*%
X156100000Y-83000000D02*
X162900000Y-83000000D01*
X156100000Y-85400000D02*
X156100000Y-83000000D01*
X163650000Y-83750000D02*
X163650000Y-85350000D01*
X162900000Y-83000000D02*
X163650000Y-83750000D01*
D86*
%TO.N,/mcu/DOTSTAR_SCK*%
X154500000Y-91450000D02*
X154500000Y-90300001D01*
X154950000Y-91900000D02*
X154500000Y-91450000D01*
X157400000Y-91900000D02*
X154950000Y-91900000D01*
X164869500Y-92369500D02*
X157869500Y-92369500D01*
X165150000Y-92650000D02*
X164869500Y-92369500D01*
X157869500Y-92369500D02*
X157400000Y-91900000D01*
%TO.N,/mcu/DOTSTAR_MOSI*%
X152900000Y-92300000D02*
X152900000Y-90300000D01*
X154050000Y-93450000D02*
X152900000Y-92300000D01*
X165150000Y-93450000D02*
X154050000Y-93450000D01*
%TO.N,GND*%
X108370000Y-82770000D02*
X108400000Y-82800000D01*
X106936284Y-82770000D02*
X108370000Y-82770000D01*
%TO.N,+5V*%
X152520002Y-75300000D02*
X154400001Y-77179999D01*
X149500000Y-75300000D02*
X152520002Y-75300000D01*
D87*
%TO.N,Net-(U6-BOOT)*%
X148300000Y-123300000D02*
X148670000Y-123300000D01*
X148025000Y-123575000D02*
X148300000Y-123300000D01*
X148025000Y-124645000D02*
X148025000Y-123575000D01*
D86*
%TO.N,Net-(U1-CKO)*%
X154848358Y-86798358D02*
X154500000Y-86450000D01*
X160598358Y-86798358D02*
X154848358Y-86798358D01*
X162050000Y-88250000D02*
X160598358Y-86798358D01*
X162050000Y-90250001D02*
X162050000Y-88250000D01*
X154500000Y-86450000D02*
X154500000Y-85399999D01*
%TO.N,Net-(U1-SDO)*%
X154419911Y-88619911D02*
X152900000Y-87100000D01*
X159819911Y-88619911D02*
X154419911Y-88619911D01*
X160450000Y-89250000D02*
X159819911Y-88619911D01*
X152900000Y-87100000D02*
X152900000Y-85400000D01*
X160450000Y-90250000D02*
X160450000Y-89250000D01*
%TO.N,+3.3V_LOCAL*%
X172440000Y-93260000D02*
X172450000Y-93250000D01*
X171600000Y-93260000D02*
X172440000Y-93260000D01*
%TO.N,GND*%
X170330000Y-93260000D02*
X169060000Y-93260000D01*
X154570000Y-110850000D02*
X154570000Y-110850001D01*
X154540001Y-112100000D02*
X154540000Y-112100000D01*
%TO.N,Net-(U8-EN)*%
X132500000Y-109740001D02*
X133750000Y-109740001D01*
%TO.N,Net-(U8-RT{slash}SYNC)*%
X135000000Y-109200000D02*
X135000000Y-109740001D01*
X133000000Y-108900000D02*
X134700000Y-108900000D01*
X134700000Y-108900000D02*
X135000000Y-109200000D01*
X132905001Y-108805000D02*
X133000000Y-108900000D01*
X132905000Y-107725000D02*
X132905001Y-108805000D01*
%TO.N,Net-(U7-RT{slash}SYNC)*%
X149350000Y-109100000D02*
X149550000Y-109300000D01*
X147600000Y-109100000D02*
X149350000Y-109100000D01*
X147405000Y-108905000D02*
X147600000Y-109100000D01*
X149550000Y-109300000D02*
X149550000Y-109740001D01*
X147405000Y-107725000D02*
X147405000Y-108905000D01*
%TO.N,Net-(U7-EN)*%
X146999999Y-109740001D02*
X148250000Y-109740001D01*
%TO.N,+BATT*%
X142500000Y-129700000D02*
X142500000Y-129100000D01*
X142710000Y-129910000D02*
X142500000Y-129700000D01*
X143590000Y-129910000D02*
X142710000Y-129910000D01*
%TO.N,Net-(U6-EN)*%
X147010000Y-130490000D02*
X147010000Y-129900000D01*
X144610000Y-131050000D02*
X146450000Y-131050000D01*
X146450000Y-131050000D02*
X147010000Y-130490000D01*
X144610000Y-129910000D02*
X144610000Y-131050000D01*
X146700000Y-127535001D02*
X146700000Y-129000000D01*
X147010000Y-129310000D02*
X147010000Y-129900000D01*
X147050001Y-127185000D02*
X146700000Y-127535001D01*
X146700000Y-129000000D02*
X147010000Y-129310000D01*
X148025000Y-127185000D02*
X147050001Y-127185000D01*
%TO.N,Net-(U6-RT{slash}SYNC)*%
X148090001Y-128520001D02*
X148025000Y-128455000D01*
X148090001Y-129900000D02*
X148090001Y-128520001D01*
%TO.N,GND*%
X134500000Y-99259999D02*
X134500000Y-99260000D01*
%TO.N,+BATT*%
X98749999Y-99849999D02*
X98700000Y-99800000D01*
X98749999Y-101200000D02*
X98749999Y-99849999D01*
%TO.N,/power_protection/GATE*%
X98850000Y-99250000D02*
X94250000Y-99250000D01*
X99250000Y-99650000D02*
X98850000Y-99250000D01*
X99250000Y-102400000D02*
X99250000Y-99650000D01*
%TO.N,/power_protection/~{EN}*%
X98100000Y-81800000D02*
X98350000Y-82050000D01*
X98350000Y-82050000D02*
X98350000Y-82862500D01*
X95700000Y-86950000D02*
X95700000Y-82000000D01*
X95700000Y-82000000D02*
X95900000Y-81800000D01*
X95900000Y-81800000D02*
X98100000Y-81800000D01*
X94250000Y-88400000D02*
X95700000Y-86950000D01*
%TO.N,+3.3V_LOCAL_ALWAYS_ON*%
X99309999Y-85209999D02*
X103800000Y-85209999D01*
X97800000Y-83700000D02*
X99309999Y-85209999D01*
X97000000Y-83700000D02*
X97800000Y-83700000D01*
X96600000Y-89000000D02*
X96600000Y-84100000D01*
X96600000Y-84100000D02*
X97000000Y-83700000D01*
X95400000Y-90200000D02*
X96600000Y-89000000D01*
X93400000Y-90200000D02*
X95400000Y-90200000D01*
X92400000Y-102159999D02*
X92400000Y-91200000D01*
X94490001Y-104250000D02*
X92400000Y-102159999D01*
X92400000Y-91200000D02*
X93400000Y-90200000D01*
%TO.N,+V_{batt_fused}*%
X100009999Y-93790001D02*
X100009999Y-93250001D01*
X99509999Y-94290001D02*
X100009999Y-93790001D01*
X99509999Y-94750000D02*
X99509999Y-94290001D01*
%TO.N,Net-(U4-OVLO)*%
X96570470Y-95500000D02*
X94249999Y-95500000D01*
X97000000Y-95070470D02*
X96570470Y-95500000D01*
X97150000Y-94750000D02*
X97000000Y-94900000D01*
X97509999Y-94750000D02*
X97150000Y-94750000D01*
X97000000Y-94900000D02*
X97000000Y-95070470D01*
%TO.N,/power_protection/EN_UVLO_OVRR*%
X98009999Y-92360000D02*
X98009999Y-93250000D01*
X97400000Y-91750001D02*
X98009999Y-92360000D01*
X97400000Y-91750001D02*
X97050001Y-91750001D01*
X97400000Y-84737501D02*
X97400000Y-91750001D01*
%TO.N,/power_protection/~{EN}*%
X101537500Y-82862500D02*
X102270000Y-82130000D01*
X98350000Y-82862500D02*
X101537500Y-82862500D01*
X102270000Y-82130000D02*
X103516284Y-82130000D01*
%TO.N,/mcu/PWR_~{KILL}*%
X104509999Y-84190001D02*
X103800000Y-84190001D01*
X105000000Y-82500000D02*
X105000000Y-83700000D01*
X105370000Y-82130000D02*
X105000000Y-82500000D01*
X106936284Y-82130000D02*
X105370000Y-82130000D01*
X105000000Y-83700000D02*
X104509999Y-84190001D01*
%TO.N,Net-(U5-V_{in})*%
X101870000Y-81070000D02*
X102270000Y-81470000D01*
X102270000Y-81470000D02*
X103516284Y-81470000D01*
X101476284Y-81070000D02*
X101870000Y-81070000D01*
X101466284Y-81060000D02*
X101476284Y-81070000D01*
X100226284Y-81060000D02*
X101466284Y-81060000D01*
%TO.N,Net-(U5-~{PB})*%
X103516284Y-80316284D02*
X103516284Y-80830000D01*
X103231284Y-80031284D02*
X103516284Y-80316284D01*
X103231284Y-79300000D02*
X103231284Y-80031284D01*
X102221284Y-79300000D02*
X103231284Y-79300000D01*
%TO.N,~{PB}*%
X139350000Y-72500000D02*
X132150000Y-72500000D01*
X141300000Y-72500000D02*
X139350000Y-72500000D01*
X142900000Y-70900000D02*
X141300000Y-72500000D01*
X171000000Y-70900000D02*
X142900000Y-70900000D01*
X173650000Y-73550000D02*
X171000000Y-70900000D01*
X175750000Y-82050000D02*
X173650000Y-79950000D01*
X173650000Y-79950000D02*
X173650000Y-73550000D01*
X175750000Y-87075000D02*
X175750000Y-82050000D01*
%TO.N,Net-(C30-Pad2)*%
X126675000Y-72625000D02*
X126675000Y-74800000D01*
X126650000Y-72600000D02*
X126675000Y-72625000D01*
%TO.N,+3.3V*%
X123700000Y-72625000D02*
X123700000Y-74800000D01*
X123675000Y-72600000D02*
X123700000Y-72625000D01*
%TO.N,+5V*%
X147787500Y-72600000D02*
X147787500Y-74800000D01*
%TO.N,Net-(C29-Pad2)*%
X144812500Y-72600000D02*
X144812500Y-74800000D01*
%TO.N,+12V*%
X167562500Y-136100000D02*
X167562500Y-133750000D01*
%TO.N,Net-(C22-Pad1)*%
X170537500Y-136100000D02*
X170537500Y-133750000D01*
X170110000Y-130700000D02*
X170900000Y-130700000D01*
D87*
%TO.N,GND*%
X164040000Y-113100000D02*
X164040001Y-113100000D01*
D86*
%TO.N,/mcu/NRST*%
X172050000Y-99850000D02*
X172050000Y-99350000D01*
X171900000Y-100000000D02*
X172050000Y-99850000D01*
X167700000Y-100000000D02*
X171900000Y-100000000D01*
X166520000Y-96900000D02*
X166520000Y-98820000D01*
%TO.N,/mcu/SWCLK*%
X170330000Y-98430000D02*
X170330000Y-96900000D01*
X170750000Y-99350000D02*
X170750000Y-98850000D01*
X170750000Y-98850000D02*
X170330000Y-98430000D01*
%TO.N,/mcu/SWDIO*%
X171600000Y-96900000D02*
X171600000Y-98600000D01*
X171400000Y-98800000D02*
X171600000Y-98600000D01*
X171400000Y-99350001D02*
X171400000Y-98800000D01*
D89*
%TO.N,+BATT*%
X146085000Y-125915000D02*
X145800000Y-126200000D01*
X148025000Y-125915000D02*
X146085000Y-125915000D01*
D86*
%TO.N,GND*%
X97250000Y-96800000D02*
X97250000Y-95600000D01*
D89*
%TO.N,+5V_LOCAL*%
X174400000Y-111400000D02*
X172830000Y-111400000D01*
D90*
%TO.N,+3.3V_LOCAL_ALWAYS_ON*%
X176700000Y-111400000D02*
X178875000Y-111400000D01*
D86*
%TO.N,Net-(U6-FB)*%
X154355000Y-128455000D02*
X152975000Y-128455000D01*
X154700000Y-128800000D02*
X154355000Y-128455000D01*
X155500000Y-130000000D02*
X154700000Y-129200000D01*
X167800000Y-130000000D02*
X155500000Y-130000000D01*
X168109999Y-130700000D02*
X168109999Y-130309999D01*
X168109999Y-130309999D02*
X167800000Y-130000000D01*
X154700000Y-129200000D02*
X154700000Y-128800000D01*
%TO.N,Net-(C22-Pad1)*%
X170110000Y-131670000D02*
X170080000Y-131700000D01*
X170110000Y-130700000D02*
X170110000Y-131670000D01*
%TO.N,Net-(U6-FB)*%
X169090000Y-131670000D02*
X169120000Y-131700000D01*
X169090000Y-130700000D02*
X169090000Y-131670000D01*
X169090000Y-130700000D02*
X168109999Y-130700000D01*
%TO.N,GND*%
X154115000Y-125915000D02*
X152975000Y-125915000D01*
X154320000Y-126120000D02*
X154115000Y-125915000D01*
X154800000Y-126120000D02*
X154320000Y-126120000D01*
%TO.N,Net-(U6-SS)*%
X154185000Y-127185000D02*
X152975000Y-127185000D01*
X154290000Y-127080000D02*
X154185000Y-127185000D01*
X154800000Y-127080000D02*
X154290000Y-127080000D01*
%TO.N,GND*%
X151600000Y-125900000D02*
X151235001Y-125535001D01*
X152960000Y-125900001D02*
X151600000Y-125900000D01*
%TO.N,/power_protection/EN_UVLO_OVRR*%
X94250000Y-91750001D02*
X97050001Y-91750001D01*
%TO.N,+3.3V_LOCAL_ALWAYS_ON*%
X94470000Y-104270000D02*
X94490000Y-104250000D01*
%TO.N,+BATT*%
X96825000Y-109725000D02*
X97595001Y-109725000D01*
X96500000Y-103655980D02*
X96500000Y-109400000D01*
X96500000Y-109400000D02*
X96825000Y-109725000D01*
X97065980Y-103090000D02*
X96500000Y-103655980D01*
X97607990Y-103090000D02*
X97065980Y-103090000D01*
X98750000Y-101947990D02*
X97607990Y-103090000D01*
X98749999Y-101199999D02*
X98750000Y-101947990D01*
%TO.N,/power_protection/GATE*%
X107400000Y-108700000D02*
X110100000Y-108700000D01*
X102429999Y-108700000D02*
X107400000Y-108700000D01*
X107404999Y-109725000D02*
X107404999Y-108704999D01*
X107404999Y-108704999D02*
X107400000Y-108700000D01*
X110100000Y-108700000D02*
X110259999Y-108859999D01*
X110259999Y-108859999D02*
X111750001Y-108859999D01*
X101404999Y-109725000D02*
X102429999Y-108700000D01*
D89*
%TO.N,+BATT*%
X145600000Y-116500000D02*
X144200000Y-116500000D01*
X155050000Y-109299999D02*
X152800001Y-109299999D01*
X152800001Y-109299999D02*
X145600000Y-116500000D01*
D86*
%TO.N,GND*%
X130365000Y-102775000D02*
X130365000Y-104135000D01*
X130365000Y-104135000D02*
X130000000Y-104500000D01*
X131270000Y-100750000D02*
X131250000Y-100750000D01*
X144864999Y-104135000D02*
X144500000Y-104499999D01*
D87*
X165020000Y-111600000D02*
X165019999Y-112320000D01*
D90*
X172820000Y-112350000D02*
X172800000Y-112330000D01*
X174412500Y-112350000D02*
X172820000Y-112350000D01*
D86*
X96490000Y-94750000D02*
X96490000Y-94740000D01*
X131250000Y-100750000D02*
X130365000Y-101635000D01*
D88*
X161699999Y-109600000D02*
X160050000Y-109600000D01*
D87*
X165019999Y-112320000D02*
X165050000Y-112350000D01*
D86*
X144865000Y-101635001D02*
X144865000Y-102775000D01*
X145750000Y-100750001D02*
X144865000Y-101635001D01*
X144865000Y-102775000D02*
X144864999Y-104135000D01*
X130365000Y-101635000D02*
X130365000Y-102775000D01*
D89*
%TO.N,+5V_LOCAL*%
X174412500Y-111400000D02*
X174400000Y-111400000D01*
X172550000Y-109700000D02*
X172550000Y-110500000D01*
X172550000Y-111119999D02*
X172800001Y-111370000D01*
D86*
X171800000Y-111340001D02*
X171800000Y-110750000D01*
D89*
X172830000Y-111400000D02*
X172800001Y-111370000D01*
D86*
X172050000Y-110500000D02*
X172550000Y-110500000D01*
X171800000Y-110750000D02*
X172050000Y-110500000D01*
D89*
X172550000Y-110500000D02*
X172550000Y-111119999D01*
D90*
%TO.N,+3.3V_LOCAL*%
X178625000Y-104975000D02*
X178800000Y-104800000D01*
X176800000Y-104475000D02*
X178625000Y-104475000D01*
D86*
%TO.N,Net-(U4-TIMER)*%
X97250000Y-102000000D02*
X97000000Y-102250001D01*
X97000000Y-102250001D02*
X95480000Y-102250000D01*
X97250000Y-101200000D02*
X97250000Y-102000000D01*
D88*
%TO.N,+BATT*%
X156249999Y-109300000D02*
X155050000Y-109300000D01*
X156550000Y-109600001D02*
X156249999Y-109300000D01*
X157400000Y-109600000D02*
X156550000Y-109600001D01*
D86*
X131250000Y-110760000D02*
X130230000Y-110760000D01*
X145750000Y-110759999D02*
X144710000Y-110759999D01*
X144710000Y-110759999D02*
X144200000Y-110249999D01*
X130230000Y-110760000D02*
X129700000Y-110230000D01*
%TO.N,Net-(U7-SS)*%
X146710000Y-100750000D02*
X146710000Y-101140000D01*
X146710000Y-101140000D02*
X146135001Y-101715000D01*
X146135001Y-101715000D02*
X146135000Y-102775000D01*
%TO.N,Net-(U8-SS)*%
X131635000Y-101865000D02*
X132230000Y-101270000D01*
X132230000Y-101270000D02*
X132230000Y-100749999D01*
X131635000Y-102775000D02*
X131635000Y-101865000D01*
D90*
%TO.N,Net-(U7-BOOT)*%
X142000001Y-108480000D02*
X142520000Y-108480000D01*
X143275000Y-107725000D02*
X143595000Y-107725000D01*
X142520000Y-108480000D02*
X143275000Y-107725000D01*
D86*
%TO.N,Net-(D13-K)*%
X111450000Y-106287500D02*
X112500000Y-106287500D01*
X113337500Y-106287500D02*
X113500000Y-106450002D01*
X113000000Y-105350000D02*
X112500000Y-105850000D01*
X112500000Y-105850000D02*
X112500000Y-106287500D01*
X112500000Y-106287500D02*
X113337500Y-106287500D01*
%TO.N,Net-(U8-BOOT)*%
X129070000Y-107700000D02*
X129095000Y-107725000D01*
D90*
X127500000Y-108480000D02*
X128020000Y-108480000D01*
X128020000Y-108480000D02*
X128775000Y-107725000D01*
X128775000Y-107725000D02*
X129095000Y-107725000D01*
D86*
%TO.N,Net-(U7-FB)*%
X150000000Y-97230000D02*
X149029999Y-97230000D01*
X148500000Y-98240000D02*
X148250001Y-98490000D01*
X148250001Y-98490000D02*
X148249999Y-100000000D01*
X149000000Y-98240001D02*
X148500000Y-98240000D01*
X149029999Y-97230000D02*
X149000000Y-97260000D01*
X149000000Y-97260000D02*
X149000000Y-98240001D01*
X148249999Y-100000000D02*
X147405000Y-100845000D01*
X147405000Y-100845000D02*
X147405000Y-102775000D01*
%TO.N,Net-(C29-Pad2)*%
X149030000Y-96270000D02*
X149000000Y-96240000D01*
X149000000Y-89750000D02*
X149000000Y-96240000D01*
X143000000Y-90025000D02*
X144975000Y-90025000D01*
X149999999Y-96270000D02*
X149030000Y-96270000D01*
X148500000Y-89250000D02*
X149000000Y-89750000D01*
X145750000Y-89250001D02*
X148500000Y-89250000D01*
X144975000Y-90025000D02*
X145750000Y-89250001D01*
%TO.N,Net-(C30-Pad2)*%
X131250000Y-89250000D02*
X134000000Y-89249999D01*
X134000000Y-89249999D02*
X134500000Y-89750000D01*
X134530001Y-96270000D02*
X134500000Y-96240000D01*
X130475000Y-90025000D02*
X131250000Y-89250000D01*
X134500000Y-89750000D02*
X134500000Y-96240000D01*
X135500000Y-96270000D02*
X134530001Y-96270000D01*
X128500000Y-90025000D02*
X130475000Y-90025000D01*
%TO.N,Net-(U8-FB)*%
X133750000Y-98500000D02*
X133750000Y-100250001D01*
X134010000Y-98239999D02*
X133750000Y-98500000D01*
X134530000Y-97230000D02*
X134500000Y-97260000D01*
X132905000Y-101095000D02*
X132905000Y-102775001D01*
X134500000Y-98240000D02*
X134010000Y-98239999D01*
X135500001Y-97230000D02*
X134530000Y-97230000D01*
X134500000Y-98240000D02*
X134500000Y-97260000D01*
X133750000Y-100250001D02*
X132905000Y-101095000D01*
D90*
%TO.N,+3.3V_LOCAL_ALWAYS_ON*%
X178875000Y-111400000D02*
X179000000Y-111525000D01*
X176687500Y-109812500D02*
X176800000Y-109700000D01*
D86*
X94440000Y-104300000D02*
X94470000Y-104270000D01*
D90*
X176687500Y-111400000D02*
X176687500Y-109812500D01*
X176687500Y-111400000D02*
X176700000Y-111400000D01*
D86*
%TO.N,+V_{batt_fused}*%
X106250000Y-96037500D02*
X106250000Y-98000000D01*
X99000000Y-95750000D02*
X98750000Y-96000000D01*
X99499999Y-95749999D02*
X99000000Y-95750000D01*
X99750000Y-97500000D02*
X99750000Y-96000000D01*
X98750000Y-96000000D02*
X98750000Y-96800000D01*
X105750000Y-98500000D02*
X101750000Y-98500000D01*
X100750000Y-98500000D02*
X99750000Y-97500000D01*
X99750000Y-96000000D02*
X99499999Y-95749999D01*
X102250000Y-96037500D02*
X102250000Y-98500000D01*
X106250000Y-98000000D02*
X105750000Y-98500000D01*
X100010000Y-93250000D02*
X101500000Y-93250000D01*
X99510000Y-94750000D02*
X99510000Y-94490000D01*
X102250000Y-98500000D02*
X101750000Y-98500000D01*
X101750000Y-98500000D02*
X100750000Y-98500000D01*
%TO.N,/power_protection/GATE*%
X112260001Y-108860000D02*
X113150001Y-109750000D01*
X111750000Y-108860000D02*
X112260001Y-108860000D01*
%TO.N,/power_protection/EN_UVLO_OVRR*%
X98240000Y-96790000D02*
X98250000Y-96800000D01*
%TO.N,Net-(U4-OVLO)*%
X98490000Y-94750000D02*
X97510000Y-94750000D01*
X97750001Y-95750000D02*
X97749999Y-96800000D01*
X98490000Y-94750000D02*
X98490001Y-95010000D01*
X97320470Y-94750000D02*
X97510000Y-94750000D01*
X97740000Y-96790001D02*
X97749999Y-96800000D01*
X98490001Y-95010000D02*
X97750001Y-95750000D01*
%TO.N,/mcu/LOAD_SW_PGOOD*%
X98250000Y-101200000D02*
X98250000Y-101820936D01*
X98250000Y-101820936D02*
X97260936Y-102810000D01*
X96950000Y-102810000D02*
X95510000Y-104250000D01*
X97260936Y-102810000D02*
X96950000Y-102810000D01*
%TO.N,Net-(U4-PWR)*%
X97115980Y-102529999D02*
X96230000Y-102530000D01*
X96230000Y-102530000D02*
X95509999Y-103250000D01*
X97750001Y-101200000D02*
X97749999Y-101895980D01*
X97749999Y-101895980D02*
X97115980Y-102529999D01*
%TO.N,Net-(U7-EN)*%
X147000000Y-109740000D02*
X147000000Y-109700000D01*
X145749999Y-109740000D02*
X145750000Y-109350000D01*
X146135001Y-108700000D02*
X146135000Y-107725000D01*
X146135000Y-108965000D02*
X146135001Y-108700000D01*
X147000000Y-109700000D02*
X146135000Y-108835000D01*
X145750000Y-109350000D02*
X146135000Y-108965000D01*
X146135000Y-108835000D02*
X146135001Y-108700000D01*
%TO.N,Net-(U8-EN)*%
X131635000Y-108864999D02*
X131250000Y-109250000D01*
X132500001Y-109730000D02*
X131635000Y-108864999D01*
X131635000Y-107725000D02*
X131635000Y-108864999D01*
X131250000Y-109250000D02*
X131250000Y-109740000D01*
X132500001Y-109740000D02*
X132500001Y-109730000D01*
%TO.N,Net-(U7-EN)*%
X148249999Y-109740000D02*
X148250001Y-109550000D01*
D87*
%TO.N,Net-(U10-COMP)*%
X164030000Y-110600000D02*
X163550000Y-110600000D01*
X163050000Y-110100000D02*
X161700000Y-110100000D01*
X164030000Y-110600000D02*
X164030000Y-111570000D01*
X163550000Y-110600000D02*
X163050000Y-110100000D01*
X164030000Y-111570000D02*
X164060000Y-111600000D01*
%TO.N,Net-(C40-Pad1)*%
X166290000Y-110620001D02*
X165070000Y-110620000D01*
X165070000Y-110620000D02*
X165050000Y-110600000D01*
D86*
%TO.N,Net-(U10-SS{slash}TR)*%
X156300000Y-110600000D02*
X156050000Y-110850001D01*
X156050000Y-110850001D02*
X155530000Y-110850000D01*
X157400000Y-110600000D02*
X156300000Y-110600000D01*
%TO.N,Net-(C44-Pad1)*%
X167300000Y-112100000D02*
X167800000Y-111600000D01*
X167060000Y-112340000D02*
X167300000Y-112100000D01*
D87*
X168200000Y-104200000D02*
X168925000Y-104925000D01*
D86*
X167800000Y-111600000D02*
X167800000Y-109600000D01*
D87*
X168925000Y-104925000D02*
X168925000Y-106100000D01*
D86*
X167060000Y-113100000D02*
X167060000Y-112340000D01*
D87*
%TO.N,Net-(JP2-B)*%
X178800000Y-107100000D02*
X177925000Y-106225000D01*
D90*
X176800000Y-108000000D02*
X176800000Y-106725000D01*
D87*
X177925000Y-106225000D02*
X176800000Y-106225000D01*
D89*
%TO.N,Net-(JP3-A)*%
X172550000Y-106350000D02*
X172550000Y-108000000D01*
X170675000Y-106100000D02*
X172300000Y-106100000D01*
D87*
X170675000Y-104725000D02*
X170675000Y-106100000D01*
X171200000Y-104200000D02*
X170675000Y-104725000D01*
D89*
X172300000Y-106100000D02*
X172550000Y-106350000D01*
D86*
%TO.N,Net-(Q4-D)*%
X100749999Y-99499999D02*
X99250000Y-98000000D01*
X102250000Y-101962500D02*
X102250000Y-99500000D01*
X101750000Y-99500000D02*
X100749999Y-99499999D01*
X106250000Y-101962500D02*
X106250000Y-100000000D01*
X102250000Y-99500000D02*
X101750000Y-99500000D01*
X105750000Y-99500000D02*
X101750000Y-99500000D01*
X99250000Y-98000000D02*
X99250000Y-96800001D01*
X106250000Y-100000000D02*
X105750000Y-99500000D01*
%TO.N,Net-(Q6-B)*%
X111750000Y-107840000D02*
X110240000Y-107840000D01*
X109550000Y-107150000D02*
X109550000Y-106287500D01*
X110240000Y-107840000D02*
X109550000Y-107150000D01*
%TO.N,Net-(U10-RT{slash}CLK)*%
X156550000Y-111100000D02*
X156300000Y-111350000D01*
X156050000Y-112100000D02*
X155560000Y-112100000D01*
X157400000Y-111100000D02*
X156550000Y-111100000D01*
X156300000Y-111850000D02*
X156050000Y-112100000D01*
X156300000Y-111350000D02*
X156300000Y-111850000D01*
D87*
%TO.N,Net-(U10-VSENSE)*%
X164300000Y-112350000D02*
X163550000Y-112350000D01*
X163300000Y-111100000D02*
X162800000Y-110600000D01*
X165060000Y-113100000D02*
X165050000Y-113100000D01*
X163550000Y-112350000D02*
X163300000Y-112100000D01*
X166040000Y-113100000D02*
X165060000Y-113100000D01*
X165050000Y-113100000D02*
X164300000Y-112350000D01*
X163300000Y-112100000D02*
X163300000Y-111100000D01*
X162800000Y-110600000D02*
X161699999Y-110600000D01*
D86*
%TO.N,/power_regulation/3v3L_EN*%
X173350000Y-113300000D02*
X174412500Y-113300000D01*
X162996500Y-111296500D02*
X162996500Y-112403500D01*
X162800000Y-111100000D02*
X162996500Y-111296500D01*
X171800000Y-112359999D02*
X171800000Y-114100000D01*
X162800000Y-113350000D02*
X163550000Y-114100001D01*
X162800000Y-112600000D02*
X162800000Y-113350000D01*
X163550000Y-114100001D02*
X171800000Y-114100000D01*
X161700000Y-111100000D02*
X162800000Y-111100000D01*
X171800000Y-114100000D02*
X172550000Y-114100001D01*
X162996500Y-112403500D02*
X162800000Y-112600000D01*
X172550000Y-114100001D02*
X173350000Y-113300000D01*
%TO.N,/power_protection/EN_UVLO_OVRR*%
X98990000Y-93250000D02*
X98990000Y-95052455D01*
X98990000Y-93250000D02*
X98010000Y-93250000D01*
X98990000Y-95052455D02*
X98250000Y-95792455D01*
X98250000Y-95792455D02*
X98250000Y-96800000D01*
%TD*%
%TA.AperFunction,Conductor*%
%TO.N,Net-(U10-BOOT)*%
G36*
X157009191Y-107368906D02*
G01*
X157045155Y-107418406D01*
X157050000Y-107448999D01*
X157050000Y-108850000D01*
X157951001Y-108850000D01*
X158009192Y-108868907D01*
X158045156Y-108918407D01*
X158050001Y-108949000D01*
X158050000Y-109150500D01*
X158031092Y-109208691D01*
X157981592Y-109244655D01*
X157951000Y-109249500D01*
X156736189Y-109249500D01*
X156677998Y-109230593D01*
X156666185Y-109220504D01*
X156578996Y-109133315D01*
X156551219Y-109078798D01*
X156550000Y-109063311D01*
X156550000Y-107448999D01*
X156568907Y-107390808D01*
X156618407Y-107354844D01*
X156648998Y-107349999D01*
X156951002Y-107349999D01*
X157009191Y-107368906D01*
G37*
%TD.AperFunction*%
%TD*%
%TA.AperFunction,Conductor*%
%TO.N,GND*%
G36*
X158009191Y-104118907D02*
G01*
X158045155Y-104168407D01*
X158050000Y-104199000D01*
X158050000Y-106501000D01*
X158031093Y-106559191D01*
X157981593Y-106595155D01*
X157951000Y-106600000D01*
X156050000Y-106600000D01*
X156050000Y-106600001D01*
X156050000Y-108001000D01*
X156031093Y-108059191D01*
X155981593Y-108095155D01*
X155951000Y-108100000D01*
X154399000Y-108100000D01*
X154340809Y-108081093D01*
X154304845Y-108031593D01*
X154300000Y-108001000D01*
X154300000Y-104199000D01*
X154318907Y-104140809D01*
X154368407Y-104104845D01*
X154399000Y-104100000D01*
X157951000Y-104100000D01*
X158009191Y-104118907D01*
G37*
%TD.AperFunction*%
%TD*%
%TA.AperFunction,Conductor*%
%TO.N,GND*%
G36*
X109843039Y-133069685D02*
G01*
X109888794Y-133122489D01*
X109900000Y-133174000D01*
X109900000Y-142326000D01*
X109880315Y-142393039D01*
X109827511Y-142438794D01*
X109776000Y-142450000D01*
X106524000Y-142450000D01*
X106456961Y-142430315D01*
X106411206Y-142377511D01*
X106400000Y-142326000D01*
X106400000Y-133174000D01*
X106419685Y-133106961D01*
X106472489Y-133061206D01*
X106524000Y-133050000D01*
X109776000Y-133050000D01*
X109843039Y-133069685D01*
G37*
%TD.AperFunction*%
%TD*%
%TA.AperFunction,Conductor*%
%TO.N,+BATT*%
G36*
X130643037Y-106915184D02*
G01*
X130688792Y-106967988D01*
X130699998Y-107019499D01*
X130699999Y-109019904D01*
X130680314Y-109086943D01*
X130663681Y-109107585D01*
X130558866Y-109212400D01*
X130558860Y-109212407D01*
X130525249Y-109269241D01*
X130506199Y-109293800D01*
X130300000Y-109499999D01*
X130300000Y-109500000D01*
X130300000Y-116300000D01*
X129100000Y-116300000D01*
X129100000Y-109551362D01*
X129119685Y-109484323D01*
X129136314Y-109463685D01*
X129402345Y-109197653D01*
X129455424Y-109166263D01*
X129505399Y-109151744D01*
X129563695Y-109117268D01*
X129626816Y-109100000D01*
X129799998Y-109100000D01*
X129799999Y-109100000D01*
X130000000Y-108900000D01*
X130000000Y-107019499D01*
X130019685Y-106952460D01*
X130072489Y-106906705D01*
X130124000Y-106895499D01*
X130575998Y-106895499D01*
X130643037Y-106915184D01*
G37*
%TD.AperFunction*%
%TD*%
%TA.AperFunction,Conductor*%
%TO.N,Net-(Q4-D)*%
G36*
X107959191Y-101268907D02*
G01*
X107995155Y-101318407D01*
X108000000Y-101349000D01*
X108000001Y-108301000D01*
X107981094Y-108359191D01*
X107931594Y-108395155D01*
X107901001Y-108400000D01*
X97099000Y-108400000D01*
X97040809Y-108381093D01*
X97004845Y-108331593D01*
X97000000Y-108301000D01*
X97000000Y-103599000D01*
X97018907Y-103540809D01*
X97068407Y-103504845D01*
X97099000Y-103500000D01*
X99750001Y-103500000D01*
X100500000Y-102749999D01*
X100500000Y-101349000D01*
X100518907Y-101290809D01*
X100568407Y-101254845D01*
X100599000Y-101250000D01*
X107901000Y-101250000D01*
X107959191Y-101268907D01*
G37*
%TD.AperFunction*%
%TD*%
%TA.AperFunction,Conductor*%
%TO.N,Net-(D16-K)*%
G36*
X130359190Y-99818906D02*
G01*
X130395154Y-99868406D01*
X130399999Y-99898999D01*
X130399999Y-100858993D01*
X130381092Y-100917184D01*
X130371007Y-100928992D01*
X130328996Y-100971004D01*
X130274479Y-100998781D01*
X130258993Y-101000000D01*
X130100001Y-101000000D01*
X130100000Y-101000001D01*
X129500000Y-101600001D01*
X129500000Y-101600002D01*
X129500000Y-103758993D01*
X129481093Y-103817184D01*
X129471005Y-103828995D01*
X129428995Y-103871004D01*
X129374480Y-103898781D01*
X129358993Y-103900000D01*
X128599999Y-103900000D01*
X128300001Y-104199999D01*
X128300000Y-104200000D01*
X128300000Y-107058992D01*
X128281093Y-107117183D01*
X128271004Y-107128995D01*
X127900000Y-107499999D01*
X127900000Y-107701000D01*
X127881093Y-107759191D01*
X127831593Y-107795155D01*
X127801000Y-107800000D01*
X127199000Y-107800000D01*
X127140809Y-107781093D01*
X127104845Y-107731593D01*
X127100000Y-107701000D01*
X127100000Y-107500000D01*
X126328996Y-106728996D01*
X126301219Y-106674479D01*
X126300000Y-106658992D01*
X126300000Y-101541008D01*
X126318907Y-101482817D01*
X126328990Y-101471010D01*
X126600001Y-101200000D01*
X126600000Y-99898998D01*
X126618907Y-99840808D01*
X126668407Y-99804844D01*
X126698993Y-99799999D01*
X130300999Y-99799999D01*
X130359190Y-99818906D01*
G37*
%TD.AperFunction*%
%TD*%
%TA.AperFunction,Conductor*%
%TO.N,+V_{batt_fused}*%
G36*
X116140981Y-91518907D02*
G01*
X116152794Y-91528996D01*
X118121004Y-93497206D01*
X118148781Y-93551723D01*
X118150000Y-93567210D01*
X118150000Y-95901000D01*
X118131093Y-95959191D01*
X118081593Y-95995155D01*
X118051000Y-96000000D01*
X100599000Y-96000000D01*
X100540809Y-95981093D01*
X100504845Y-95931593D01*
X100500000Y-95901000D01*
X100500000Y-95541007D01*
X100518907Y-95482816D01*
X100528990Y-95471009D01*
X101250000Y-94750000D01*
X101250000Y-91599000D01*
X101268907Y-91540809D01*
X101318407Y-91504845D01*
X101349000Y-91500000D01*
X116082790Y-91500000D01*
X116140981Y-91518907D01*
G37*
%TD.AperFunction*%
%TD*%
%TA.AperFunction,Conductor*%
%TO.N,+BATT*%
G36*
X145143039Y-106915184D02*
G01*
X145188794Y-106967988D01*
X145200000Y-107019499D01*
X145200000Y-109019905D01*
X145180315Y-109086944D01*
X145163681Y-109107586D01*
X145058869Y-109212397D01*
X145058862Y-109212406D01*
X145025251Y-109269238D01*
X145006202Y-109293796D01*
X144836320Y-109463679D01*
X144800000Y-109499999D01*
X144800000Y-116500000D01*
X143600000Y-116500000D01*
X143600000Y-109551360D01*
X143619685Y-109484321D01*
X143636314Y-109463684D01*
X143902347Y-109197652D01*
X143955424Y-109166262D01*
X144005398Y-109151744D01*
X144005401Y-109151742D01*
X144063695Y-109117268D01*
X144126816Y-109100000D01*
X144300000Y-109100000D01*
X144500000Y-108900000D01*
X144500000Y-107019499D01*
X144519685Y-106952460D01*
X144572489Y-106906705D01*
X144624000Y-106895499D01*
X145076000Y-106895499D01*
X145143039Y-106915184D01*
G37*
%TD.AperFunction*%
%TD*%
%TA.AperFunction,Conductor*%
%TO.N,+BATT*%
G36*
X97000000Y-116200000D02*
G01*
X106600000Y-116200000D01*
X106700000Y-116100000D01*
X106700000Y-116000000D01*
X129100000Y-116000000D01*
X129100000Y-116300000D01*
X130300000Y-116300000D01*
X130300000Y-116000000D01*
X143600000Y-116000000D01*
X143600000Y-116500000D01*
X144800000Y-116500000D01*
X144800000Y-116000000D01*
X146276000Y-116000000D01*
X146343039Y-116019685D01*
X146388794Y-116072489D01*
X146400000Y-116124000D01*
X146400000Y-129176000D01*
X146380315Y-129243039D01*
X146327511Y-129288794D01*
X146276000Y-129300000D01*
X144558662Y-129300000D01*
X144491623Y-129280315D01*
X144445868Y-129227511D01*
X144435924Y-129158353D01*
X144464949Y-129094797D01*
X144470981Y-129088319D01*
X144472147Y-129087151D01*
X144472151Y-129087149D01*
X144552794Y-128977881D01*
X144575220Y-128913789D01*
X144597647Y-128849700D01*
X144597647Y-128849698D01*
X144600501Y-128819268D01*
X144600501Y-128339880D01*
X144601405Y-128324933D01*
X144601407Y-128324917D01*
X144605647Y-128289999D01*
X144601405Y-128255062D01*
X144600501Y-128240116D01*
X144600501Y-127760729D01*
X144597647Y-127730299D01*
X144597647Y-127730297D01*
X144552794Y-127602118D01*
X144552793Y-127602116D01*
X144472151Y-127492849D01*
X144362883Y-127412206D01*
X144362881Y-127412205D01*
X144234705Y-127367354D01*
X144229161Y-127366143D01*
X144167867Y-127332605D01*
X144134434Y-127271253D01*
X144139478Y-127201566D01*
X144181398Y-127145668D01*
X144229170Y-127123853D01*
X144234693Y-127122646D01*
X144234700Y-127122646D01*
X144234706Y-127122643D01*
X144234710Y-127122643D01*
X144288068Y-127103971D01*
X144362883Y-127077793D01*
X144472151Y-126997150D01*
X144552794Y-126887882D01*
X144575220Y-126823790D01*
X144597647Y-126759701D01*
X144597647Y-126759699D01*
X144600501Y-126729269D01*
X144600501Y-126249881D01*
X144601405Y-126234934D01*
X144601407Y-126234918D01*
X144605647Y-126200000D01*
X144601405Y-126165063D01*
X144600501Y-126150117D01*
X144600501Y-125670730D01*
X144597647Y-125640300D01*
X144597647Y-125640298D01*
X144552794Y-125512119D01*
X144552793Y-125512117D01*
X144472151Y-125402850D01*
X144362883Y-125322207D01*
X144362881Y-125322206D01*
X144234701Y-125277353D01*
X144204271Y-125274500D01*
X144204267Y-125274500D01*
X143595735Y-125274500D01*
X143595731Y-125274500D01*
X143565301Y-125277353D01*
X143565299Y-125277353D01*
X143437120Y-125322206D01*
X143437118Y-125322207D01*
X143327851Y-125402850D01*
X143247208Y-125512117D01*
X143247207Y-125512119D01*
X143202354Y-125640298D01*
X143202354Y-125640300D01*
X143199501Y-125670730D01*
X143199501Y-126150134D01*
X143198597Y-126165080D01*
X143194357Y-126199999D01*
X143198597Y-126234918D01*
X143199501Y-126249865D01*
X143199501Y-126729269D01*
X143202354Y-126759699D01*
X143202354Y-126759701D01*
X143247207Y-126887880D01*
X143247208Y-126887882D01*
X143327851Y-126997150D01*
X143437119Y-127077793D01*
X143468064Y-127088621D01*
X143565296Y-127122645D01*
X143570833Y-127123854D01*
X143632129Y-127157388D01*
X143665565Y-127218738D01*
X143660525Y-127288425D01*
X143618609Y-127344326D01*
X143570842Y-127366142D01*
X143565301Y-127367352D01*
X143437120Y-127412205D01*
X143437118Y-127412206D01*
X143327851Y-127492849D01*
X143247208Y-127602116D01*
X143247207Y-127602118D01*
X143202354Y-127730297D01*
X143202354Y-127730299D01*
X143199501Y-127760729D01*
X143199501Y-128240133D01*
X143198597Y-128255079D01*
X143194357Y-128289998D01*
X143198597Y-128324917D01*
X143199501Y-128339864D01*
X143199501Y-128819268D01*
X143202354Y-128849698D01*
X143202354Y-128849700D01*
X143247207Y-128977879D01*
X143247208Y-128977881D01*
X143327852Y-129087150D01*
X143329021Y-129088319D01*
X143329891Y-129089912D01*
X143333369Y-129094625D01*
X143332724Y-129095100D01*
X143362506Y-129149642D01*
X143357522Y-129219334D01*
X143315650Y-129275267D01*
X143250186Y-129299684D01*
X143241340Y-129300000D01*
X111851362Y-129300000D01*
X111784323Y-129280315D01*
X111763681Y-129263681D01*
X107013709Y-124513709D01*
X120499499Y-124513709D01*
X120499499Y-126586290D01*
X120509794Y-126702093D01*
X120509795Y-126702097D01*
X120564091Y-126891859D01*
X120655480Y-127066813D01*
X120780212Y-127219786D01*
X120843332Y-127271253D01*
X120933186Y-127344519D01*
X121108136Y-127435906D01*
X121297901Y-127490204D01*
X121413705Y-127500500D01*
X121413711Y-127500500D01*
X123486287Y-127500500D01*
X123486293Y-127500500D01*
X123602097Y-127490204D01*
X123791862Y-127435906D01*
X123966812Y-127344519D01*
X124119785Y-127219786D01*
X124244518Y-127066813D01*
X124335905Y-126891863D01*
X124390203Y-126702098D01*
X124400499Y-126586294D01*
X124400499Y-124513709D01*
X134999500Y-124513709D01*
X134999500Y-126586290D01*
X135009795Y-126702093D01*
X135009796Y-126702097D01*
X135064092Y-126891859D01*
X135155481Y-127066813D01*
X135280213Y-127219786D01*
X135343333Y-127271253D01*
X135433187Y-127344519D01*
X135608137Y-127435906D01*
X135797902Y-127490204D01*
X135913706Y-127500500D01*
X135913712Y-127500500D01*
X137986288Y-127500500D01*
X137986294Y-127500500D01*
X138102098Y-127490204D01*
X138291863Y-127435906D01*
X138466813Y-127344519D01*
X138619786Y-127219786D01*
X138744519Y-127066813D01*
X138835906Y-126891863D01*
X138890204Y-126702098D01*
X138900500Y-126586294D01*
X138900500Y-124513706D01*
X138890204Y-124397902D01*
X138835906Y-124208137D01*
X138774195Y-124089999D01*
X143194357Y-124089999D01*
X143198597Y-124124918D01*
X143199501Y-124139865D01*
X143199501Y-124629269D01*
X143202354Y-124659699D01*
X143202354Y-124659701D01*
X143247207Y-124787880D01*
X143247208Y-124787882D01*
X143327851Y-124897150D01*
X143437119Y-124977793D01*
X143479846Y-124992744D01*
X143565300Y-125022646D01*
X143595731Y-125025500D01*
X143595735Y-125025500D01*
X144204271Y-125025500D01*
X144234700Y-125022646D01*
X144234702Y-125022646D01*
X144298791Y-125000219D01*
X144362883Y-124977793D01*
X144472151Y-124897150D01*
X144552794Y-124787882D01*
X144575220Y-124723790D01*
X144597647Y-124659701D01*
X144597647Y-124659699D01*
X144600501Y-124629269D01*
X144600501Y-124139881D01*
X144601405Y-124124934D01*
X144601407Y-124124918D01*
X144605647Y-124090000D01*
X144601405Y-124055063D01*
X144600501Y-124040117D01*
X144600501Y-123570730D01*
X144597647Y-123540300D01*
X144597647Y-123540298D01*
X144552794Y-123412119D01*
X144552793Y-123412117D01*
X144472151Y-123302850D01*
X144362883Y-123222207D01*
X144362881Y-123222206D01*
X144234701Y-123177353D01*
X144204271Y-123174500D01*
X144204267Y-123174500D01*
X143595735Y-123174500D01*
X143595731Y-123174500D01*
X143565301Y-123177353D01*
X143565299Y-123177353D01*
X143437120Y-123222206D01*
X143437118Y-123222207D01*
X143327851Y-123302850D01*
X143247208Y-123412117D01*
X143247207Y-123412119D01*
X143202354Y-123540298D01*
X143202354Y-123540300D01*
X143199501Y-123570730D01*
X143199501Y-124040134D01*
X143198597Y-124055080D01*
X143194357Y-124089999D01*
X138774195Y-124089999D01*
X138744519Y-124033187D01*
X138721491Y-124004946D01*
X138619786Y-123880213D01*
X138466813Y-123755481D01*
X138291859Y-123664092D01*
X138149659Y-123623404D01*
X138102098Y-123609796D01*
X138102096Y-123609795D01*
X138102093Y-123609795D01*
X138031492Y-123603518D01*
X137986294Y-123599500D01*
X135913706Y-123599500D01*
X135879807Y-123602513D01*
X135797906Y-123609795D01*
X135797902Y-123609796D01*
X135608140Y-123664092D01*
X135433186Y-123755481D01*
X135280213Y-123880213D01*
X135155481Y-124033186D01*
X135064092Y-124208140D01*
X135009796Y-124397902D01*
X135009795Y-124397906D01*
X134999500Y-124513709D01*
X124400499Y-124513709D01*
X124400499Y-124513706D01*
X124390203Y-124397902D01*
X124335905Y-124208137D01*
X124244518Y-124033187D01*
X124221490Y-124004946D01*
X124119785Y-123880213D01*
X123966812Y-123755481D01*
X123791858Y-123664092D01*
X123649658Y-123623404D01*
X123602097Y-123609796D01*
X123602095Y-123609795D01*
X123602092Y-123609795D01*
X123531491Y-123603518D01*
X123486293Y-123599500D01*
X121413705Y-123599500D01*
X121379806Y-123602513D01*
X121297905Y-123609795D01*
X121297901Y-123609796D01*
X121108139Y-123664092D01*
X120933185Y-123755481D01*
X120780212Y-123880213D01*
X120655480Y-124033186D01*
X120564091Y-124208140D01*
X120509795Y-124397902D01*
X120509794Y-124397906D01*
X120499499Y-124513709D01*
X107013709Y-124513709D01*
X104000000Y-121500000D01*
X95624000Y-121500000D01*
X95556961Y-121480315D01*
X95511206Y-121427511D01*
X95500000Y-121376000D01*
X95500000Y-116124000D01*
X95519685Y-116056961D01*
X95572489Y-116011206D01*
X95624000Y-116000000D01*
X97000000Y-116000000D01*
X97000000Y-116200000D01*
G37*
%TD.AperFunction*%
%TD*%
%TA.AperFunction,Conductor*%
%TO.N,Net-(D15-K)*%
G36*
X144859191Y-99968907D02*
G01*
X144895155Y-100018407D01*
X144900000Y-100049000D01*
X144899999Y-101008993D01*
X144881092Y-101067184D01*
X144871003Y-101078996D01*
X144828997Y-101121003D01*
X144774481Y-101148781D01*
X144758993Y-101150000D01*
X144650000Y-101150000D01*
X144050000Y-101750000D01*
X144050000Y-101750001D01*
X144050000Y-103809378D01*
X144031093Y-103867569D01*
X143981593Y-103903533D01*
X143970317Y-103906475D01*
X143921771Y-103916132D01*
X143921766Y-103916134D01*
X143855451Y-103960445D01*
X143855445Y-103960451D01*
X143825009Y-104006002D01*
X143776959Y-104043881D01*
X143742694Y-104050000D01*
X143150000Y-104050000D01*
X142850000Y-104350000D01*
X142850000Y-104350001D01*
X142850000Y-107208992D01*
X142831093Y-107267183D01*
X142821004Y-107278995D01*
X142450000Y-107649999D01*
X142450000Y-107851000D01*
X142431093Y-107909191D01*
X142381593Y-107945155D01*
X142351000Y-107950000D01*
X141749000Y-107950000D01*
X141690809Y-107931093D01*
X141654845Y-107881593D01*
X141650000Y-107851000D01*
X141650000Y-107650000D01*
X140878996Y-106878996D01*
X140851219Y-106824479D01*
X140850000Y-106808992D01*
X140850000Y-101691007D01*
X140868907Y-101632816D01*
X140878990Y-101621009D01*
X141150000Y-101350000D01*
X141149999Y-100048999D01*
X141168906Y-99990809D01*
X141218406Y-99954845D01*
X141248999Y-99950000D01*
X144801000Y-99950000D01*
X144859191Y-99968907D01*
G37*
%TD.AperFunction*%
%TD*%
%TA.AperFunction,Conductor*%
%TO.N,GND*%
G36*
X126001036Y-107300000D02*
G01*
X126059220Y-107318928D01*
X126095166Y-107368441D01*
X126100000Y-107399000D01*
X126100000Y-108600001D01*
X126999997Y-109399999D01*
X126999998Y-109399999D01*
X127000000Y-109400001D01*
X128301000Y-109400000D01*
X128359191Y-109418907D01*
X128395155Y-109468407D01*
X128400000Y-109499000D01*
X128400000Y-113001000D01*
X128381093Y-113059191D01*
X128331593Y-113095155D01*
X128301000Y-113100000D01*
X126141007Y-113100000D01*
X126082816Y-113081093D01*
X126071003Y-113071004D01*
X122428996Y-109428996D01*
X122401219Y-109374479D01*
X122400000Y-109358992D01*
X122400000Y-107397736D01*
X122418907Y-107339545D01*
X122468407Y-107303581D01*
X122499031Y-107298736D01*
X126001036Y-107300000D01*
G37*
%TD.AperFunction*%
%TD*%
%TA.AperFunction,Conductor*%
%TO.N,Net-(C44-Pad1)*%
G36*
X169509191Y-105368907D02*
G01*
X169545155Y-105418407D01*
X169550000Y-105449000D01*
X169550000Y-106600000D01*
X171021005Y-108071005D01*
X171048781Y-108125520D01*
X171050000Y-108141007D01*
X171050000Y-109751000D01*
X171031093Y-109809191D01*
X170981593Y-109845155D01*
X170951000Y-109850000D01*
X166149000Y-109850000D01*
X166090809Y-109831093D01*
X166054845Y-109781593D01*
X166050000Y-109751000D01*
X166050000Y-105449000D01*
X166068907Y-105390809D01*
X166118407Y-105354845D01*
X166149000Y-105350000D01*
X169451000Y-105350000D01*
X169509191Y-105368907D01*
G37*
%TD.AperFunction*%
%TD*%
%TA.AperFunction,Conductor*%
%TO.N,GND*%
G36*
X140501036Y-107299999D02*
G01*
X140559220Y-107318927D01*
X140595166Y-107368440D01*
X140600000Y-107398999D01*
X140600000Y-108600000D01*
X141500000Y-109400000D01*
X142801000Y-109400000D01*
X142859191Y-109418907D01*
X142895155Y-109468407D01*
X142900000Y-109499000D01*
X142900000Y-113001000D01*
X142881093Y-113059191D01*
X142831593Y-113095155D01*
X142801000Y-113100000D01*
X140641008Y-113100000D01*
X140582817Y-113081093D01*
X140571004Y-113071004D01*
X136928996Y-109428995D01*
X136901219Y-109374478D01*
X136900000Y-109359003D01*
X136900000Y-107397734D01*
X136918907Y-107339544D01*
X136968407Y-107303580D01*
X136999031Y-107298735D01*
X140501036Y-107299999D01*
G37*
%TD.AperFunction*%
%TD*%
%TA.AperFunction,Conductor*%
%TO.N,Net-(D18-K)*%
G36*
X164509191Y-103868907D02*
G01*
X164545155Y-103918407D01*
X164550000Y-103949000D01*
X164550000Y-109501000D01*
X164531093Y-109559191D01*
X164481593Y-109595155D01*
X164451000Y-109600000D01*
X163091007Y-109600000D01*
X163032816Y-109581093D01*
X163021003Y-109571004D01*
X162950999Y-109501000D01*
X162800000Y-109350000D01*
X162799999Y-109350000D01*
X162613255Y-109350000D01*
X162556817Y-109331662D01*
X162556731Y-109331793D01*
X162556269Y-109331484D01*
X162555064Y-109331093D01*
X162552837Y-109329191D01*
X162457497Y-109265486D01*
X162457496Y-109265485D01*
X162457495Y-109265485D01*
X162377133Y-109249500D01*
X160899000Y-109249500D01*
X160840809Y-109230593D01*
X160804845Y-109181093D01*
X160800000Y-109150500D01*
X160800000Y-108100001D01*
X160800000Y-108100000D01*
X160799999Y-108100000D01*
X157649000Y-108100000D01*
X157590809Y-108081093D01*
X157554845Y-108031593D01*
X157550000Y-108001000D01*
X157550000Y-106949000D01*
X157568907Y-106890809D01*
X157618407Y-106854845D01*
X157649000Y-106850000D01*
X160799999Y-106850000D01*
X160800000Y-106850000D01*
X160800000Y-103949000D01*
X160818907Y-103890809D01*
X160868407Y-103854845D01*
X160899000Y-103850000D01*
X164451000Y-103850000D01*
X164509191Y-103868907D01*
G37*
%TD.AperFunction*%
%TD*%
%TA.AperFunction,Conductor*%
%TO.N,GND*%
G36*
X151993039Y-133119685D02*
G01*
X152038794Y-133172489D01*
X152050000Y-133224000D01*
X152050000Y-142376000D01*
X152030315Y-142443039D01*
X151977511Y-142488794D01*
X151926000Y-142500000D01*
X148674000Y-142500000D01*
X148606961Y-142480315D01*
X148561206Y-142427511D01*
X148550000Y-142376000D01*
X148550000Y-133224000D01*
X148569685Y-133156961D01*
X148622489Y-133111206D01*
X148674000Y-133100000D01*
X151926000Y-133100000D01*
X151993039Y-133119685D01*
G37*
%TD.AperFunction*%
%TD*%
%TA.AperFunction,Conductor*%
%TO.N,Net-(C29-Pad2)*%
G36*
X145643039Y-73719685D02*
G01*
X145688794Y-73772489D01*
X145700000Y-73824000D01*
X145700000Y-78488778D01*
X145699589Y-78496831D01*
X145699661Y-78496835D01*
X145699500Y-78499997D01*
X145699500Y-81600004D01*
X145699662Y-81603167D01*
X145699590Y-81603170D01*
X145700000Y-81611213D01*
X145700000Y-86150000D01*
X147876000Y-86150000D01*
X147943039Y-86169685D01*
X147988794Y-86222489D01*
X148000000Y-86274000D01*
X148000000Y-88876000D01*
X147980315Y-88943039D01*
X147927511Y-88988794D01*
X147876000Y-89000000D01*
X138624000Y-89000000D01*
X138556961Y-88980315D01*
X138511206Y-88927511D01*
X138500000Y-88876000D01*
X138500000Y-86274000D01*
X138519685Y-86206961D01*
X138572489Y-86161206D01*
X138623995Y-86150000D01*
X140800000Y-86150000D01*
X140800000Y-81611213D01*
X140800410Y-81603169D01*
X140800339Y-81603166D01*
X140800497Y-81600034D01*
X140800500Y-81600009D01*
X140800499Y-78499992D01*
X140800498Y-78499986D01*
X140800338Y-78496836D01*
X140800409Y-78496832D01*
X140800000Y-78488788D01*
X140800000Y-73824000D01*
X140819685Y-73756961D01*
X140872489Y-73711206D01*
X140924000Y-73700000D01*
X145576000Y-73700000D01*
X145643039Y-73719685D01*
G37*
%TD.AperFunction*%
%TD*%
%TA.AperFunction,Conductor*%
%TO.N,+BATT*%
G36*
X100822555Y-109019685D02*
G01*
X100868310Y-109072489D01*
X100876881Y-109124160D01*
X100879500Y-109124160D01*
X100879500Y-110319752D01*
X100891131Y-110378229D01*
X100891132Y-110378230D01*
X100935447Y-110444552D01*
X101001769Y-110488867D01*
X101001770Y-110488868D01*
X101060247Y-110500499D01*
X101060250Y-110500500D01*
X101060252Y-110500500D01*
X101749750Y-110500500D01*
X101749751Y-110500499D01*
X101764568Y-110497552D01*
X101808229Y-110488868D01*
X101808229Y-110488867D01*
X101808231Y-110488867D01*
X101874552Y-110444552D01*
X101918867Y-110378231D01*
X101918867Y-110378229D01*
X101918868Y-110378229D01*
X101930499Y-110319752D01*
X101930500Y-110319750D01*
X101930500Y-109642598D01*
X101950185Y-109575559D01*
X101966819Y-109554917D01*
X102485417Y-109036319D01*
X102546740Y-109002834D01*
X102573098Y-109000000D01*
X106576000Y-109000000D01*
X106643039Y-109019685D01*
X106688794Y-109072489D01*
X106700000Y-109124000D01*
X106700000Y-116100000D01*
X106600000Y-116200000D01*
X97000000Y-116200000D01*
X97000000Y-109124000D01*
X97019685Y-109056961D01*
X97072489Y-109011206D01*
X97124000Y-109000000D01*
X100755516Y-109000000D01*
X100822555Y-109019685D01*
G37*
%TD.AperFunction*%
%TD*%
%TA.AperFunction,Conductor*%
%TO.N,Net-(C22-Pad1)*%
G36*
X174443039Y-118619685D02*
G01*
X174488794Y-118672489D01*
X174500000Y-118724000D01*
X174500000Y-128100000D01*
X166124000Y-128100000D01*
X166056961Y-128080315D01*
X166011206Y-128027511D01*
X166000000Y-127976000D01*
X166000000Y-118724000D01*
X166019685Y-118656961D01*
X166072489Y-118611206D01*
X166124000Y-118600000D01*
X174376000Y-118600000D01*
X174443039Y-118619685D01*
G37*
%TD.AperFunction*%
%TD*%
%TA.AperFunction,Conductor*%
%TO.N,GND*%
G36*
X158793039Y-133219685D02*
G01*
X158838794Y-133272489D01*
X158850000Y-133324000D01*
X158850000Y-137200000D01*
X160976000Y-137200000D01*
X161043039Y-137219685D01*
X161088794Y-137272489D01*
X161100000Y-137324000D01*
X161100000Y-142376000D01*
X161080315Y-142443039D01*
X161027511Y-142488794D01*
X160976000Y-142500000D01*
X157674000Y-142500000D01*
X157606961Y-142480315D01*
X157561206Y-142427511D01*
X157550000Y-142376000D01*
X157550000Y-133324000D01*
X157569685Y-133256961D01*
X157622489Y-133211206D01*
X157674000Y-133200000D01*
X158726000Y-133200000D01*
X158793039Y-133219685D01*
G37*
%TD.AperFunction*%
%TD*%
%TA.AperFunction,Conductor*%
%TO.N,Net-(C22-Pad1)*%
G36*
X174500000Y-134676000D02*
G01*
X174480315Y-134743039D01*
X174427511Y-134788794D01*
X174376000Y-134800000D01*
X169724000Y-134800000D01*
X169656961Y-134780315D01*
X169611206Y-134727511D01*
X169600000Y-134676000D01*
X169600000Y-132824000D01*
X169619685Y-132756961D01*
X169672489Y-132711206D01*
X169724000Y-132700000D01*
X170700000Y-132700000D01*
X170700000Y-128100000D01*
X174500000Y-128100000D01*
X174500000Y-134676000D01*
G37*
%TD.AperFunction*%
%TD*%
%TA.AperFunction,Conductor*%
%TO.N,+12V*%
G36*
X168443038Y-132719685D02*
G01*
X168488793Y-132772489D01*
X168499999Y-132824000D01*
X168500000Y-134676000D01*
X168480315Y-134743039D01*
X168427512Y-134788794D01*
X168376000Y-134800000D01*
X160900000Y-134800000D01*
X160900000Y-136076000D01*
X160880315Y-136143039D01*
X160827511Y-136188794D01*
X160776000Y-136200000D01*
X159624000Y-136200000D01*
X159556961Y-136180315D01*
X159511206Y-136127511D01*
X159500000Y-136076000D01*
X159500000Y-132824000D01*
X159519685Y-132756961D01*
X159572489Y-132711206D01*
X159624000Y-132700000D01*
X168375999Y-132700000D01*
X168443038Y-132719685D01*
G37*
%TD.AperFunction*%
%TD*%
%TA.AperFunction,Conductor*%
%TO.N,Net-(C30-Pad2)*%
G36*
X130643039Y-73719685D02*
G01*
X130688794Y-73772489D01*
X130700000Y-73824000D01*
X130700000Y-78488778D01*
X130699589Y-78496831D01*
X130699661Y-78496835D01*
X130699500Y-78499997D01*
X130699500Y-81600004D01*
X130699662Y-81603167D01*
X130699590Y-81603170D01*
X130700000Y-81611213D01*
X130700000Y-86150000D01*
X132876000Y-86150000D01*
X132943039Y-86169685D01*
X132988794Y-86222489D01*
X133000000Y-86274000D01*
X133000000Y-88876000D01*
X132980315Y-88943039D01*
X132927511Y-88988794D01*
X132876000Y-89000000D01*
X123624000Y-89000000D01*
X123556961Y-88980315D01*
X123511206Y-88927511D01*
X123500000Y-88876000D01*
X123500000Y-86274000D01*
X123519685Y-86206961D01*
X123572489Y-86161206D01*
X123623995Y-86150000D01*
X125800000Y-86150000D01*
X125800000Y-81611213D01*
X125800409Y-81603171D01*
X125800338Y-81603168D01*
X125800496Y-81600032D01*
X125800499Y-81600009D01*
X125800498Y-78499992D01*
X125800497Y-78499983D01*
X125800337Y-78496840D01*
X125800409Y-78496836D01*
X125800000Y-78488800D01*
X125800000Y-73824000D01*
X125819685Y-73756961D01*
X125872489Y-73711206D01*
X125924000Y-73700000D01*
X130576000Y-73700000D01*
X130643039Y-73719685D01*
G37*
%TD.AperFunction*%
%TD*%
%TA.AperFunction,Conductor*%
%TO.N,+3.3V*%
G36*
X124543039Y-73719685D02*
G01*
X124588794Y-73772489D01*
X124600000Y-73824000D01*
X124600000Y-75776000D01*
X124580315Y-75843039D01*
X124527511Y-75888794D01*
X124476000Y-75900000D01*
X121624000Y-75900000D01*
X121556961Y-75880315D01*
X121511206Y-75827511D01*
X121500000Y-75776000D01*
X121500000Y-73824000D01*
X121519685Y-73756961D01*
X121572489Y-73711206D01*
X121624000Y-73700000D01*
X124476000Y-73700000D01*
X124543039Y-73719685D01*
G37*
%TD.AperFunction*%
%TD*%
%TA.AperFunction,Conductor*%
%TO.N,+5V*%
G36*
X149943039Y-73719685D02*
G01*
X149988794Y-73772489D01*
X150000000Y-73824000D01*
X150000000Y-75776000D01*
X149980315Y-75843039D01*
X149927511Y-75888794D01*
X149876000Y-75900000D01*
X147024000Y-75900000D01*
X146956961Y-75880315D01*
X146911206Y-75827511D01*
X146900000Y-75776000D01*
X146900000Y-73824000D01*
X146919685Y-73756961D01*
X146972489Y-73711206D01*
X147024000Y-73700000D01*
X149876000Y-73700000D01*
X149943039Y-73719685D01*
G37*
%TD.AperFunction*%
%TD*%
%TA.AperFunction,Conductor*%
%TO.N,+3.3V*%
G36*
X147943039Y-133119685D02*
G01*
X147988794Y-133172489D01*
X148000000Y-133224000D01*
X148000000Y-142376000D01*
X147980315Y-142443039D01*
X147927511Y-142488794D01*
X147876000Y-142500000D01*
X146724000Y-142500000D01*
X146656961Y-142480315D01*
X146611206Y-142427511D01*
X146600000Y-142376000D01*
X146600000Y-133224000D01*
X146619685Y-133156961D01*
X146672489Y-133111206D01*
X146724000Y-133100000D01*
X147876000Y-133100000D01*
X147943039Y-133119685D01*
G37*
%TD.AperFunction*%
%TD*%
%TA.AperFunction,Conductor*%
%TO.N,+5V*%
G36*
X145943039Y-133119685D02*
G01*
X145988794Y-133172489D01*
X146000000Y-133224000D01*
X146000000Y-142376000D01*
X145980315Y-142443039D01*
X145927511Y-142488794D01*
X145876000Y-142500000D01*
X144724000Y-142500000D01*
X144656961Y-142480315D01*
X144611206Y-142427511D01*
X144600000Y-142376000D01*
X144600000Y-133224000D01*
X144619685Y-133156961D01*
X144672489Y-133111206D01*
X144724000Y-133100000D01*
X145876000Y-133100000D01*
X145943039Y-133119685D01*
G37*
%TD.AperFunction*%
%TD*%
%TA.AperFunction,Conductor*%
%TO.N,+5V*%
G36*
X103793039Y-133069685D02*
G01*
X103838794Y-133122489D01*
X103850000Y-133174000D01*
X103850000Y-142326000D01*
X103830315Y-142393039D01*
X103777511Y-142438794D01*
X103726000Y-142450000D01*
X102574000Y-142450000D01*
X102506961Y-142430315D01*
X102461206Y-142377511D01*
X102450000Y-142326000D01*
X102450000Y-133174000D01*
X102469685Y-133106961D01*
X102522489Y-133061206D01*
X102574000Y-133050000D01*
X103726000Y-133050000D01*
X103793039Y-133069685D01*
G37*
%TD.AperFunction*%
%TD*%
%TA.AperFunction,Conductor*%
%TO.N,+3.3V*%
G36*
X105793039Y-133069685D02*
G01*
X105838794Y-133122489D01*
X105850000Y-133174000D01*
X105850000Y-142326000D01*
X105830315Y-142393039D01*
X105777511Y-142438794D01*
X105726000Y-142450000D01*
X104574000Y-142450000D01*
X104506961Y-142430315D01*
X104461206Y-142377511D01*
X104450000Y-142326000D01*
X104450000Y-133174000D01*
X104469685Y-133106961D01*
X104522489Y-133061206D01*
X104574000Y-133050000D01*
X105726000Y-133050000D01*
X105793039Y-133069685D01*
G37*
%TD.AperFunction*%
%TD*%
%TA.AperFunction,Conductor*%
%TO.N,Net-(D1-K)*%
G36*
X156965677Y-117669685D02*
G01*
X156986319Y-117686319D01*
X159763681Y-120463681D01*
X159797166Y-120525004D01*
X159800000Y-120551362D01*
X159800000Y-125976000D01*
X159780315Y-126043039D01*
X159727511Y-126088794D01*
X159676000Y-126100000D01*
X156051362Y-126100000D01*
X155984323Y-126080315D01*
X155963681Y-126063681D01*
X154900000Y-125000000D01*
X152246626Y-125000000D01*
X152179587Y-124980315D01*
X152133832Y-124927511D01*
X152130444Y-124919333D01*
X152088797Y-124807671D01*
X152088793Y-124807664D01*
X152002547Y-124692455D01*
X152002544Y-124692452D01*
X151887335Y-124606206D01*
X151887328Y-124606202D01*
X151752482Y-124555908D01*
X151752483Y-124555908D01*
X151692883Y-124549501D01*
X151692881Y-124549500D01*
X151692873Y-124549500D01*
X151692865Y-124549500D01*
X151650862Y-124549500D01*
X151583823Y-124529815D01*
X151563181Y-124513181D01*
X150700000Y-123650000D01*
X149574500Y-123650000D01*
X149507461Y-123630315D01*
X149461706Y-123577511D01*
X149450500Y-123526000D01*
X149450500Y-123065317D01*
X149450499Y-123065302D01*
X149447643Y-123029008D01*
X149447642Y-123029002D01*
X149402495Y-122873609D01*
X149402494Y-122873606D01*
X149402494Y-122873605D01*
X149320117Y-122734313D01*
X149317268Y-122729495D01*
X149300000Y-122666374D01*
X149300000Y-117774000D01*
X149319685Y-117706961D01*
X149372489Y-117661206D01*
X149424000Y-117650000D01*
X156898638Y-117650000D01*
X156965677Y-117669685D01*
G37*
%TD.AperFunction*%
%TD*%
%TA.AperFunction,Conductor*%
%TO.N,+V_{batt_raw}*%
G36*
X115943039Y-63019685D02*
G01*
X115988794Y-63072489D01*
X116000000Y-63124000D01*
X116000000Y-77000000D01*
X118463681Y-79463681D01*
X118497166Y-79525004D01*
X118500000Y-79551362D01*
X118500000Y-80948638D01*
X118480315Y-81015677D01*
X118463681Y-81036319D01*
X117036319Y-82463681D01*
X116974996Y-82497166D01*
X116948638Y-82500000D01*
X112051362Y-82500000D01*
X111984323Y-82480315D01*
X111963681Y-82463681D01*
X109536319Y-80036319D01*
X109502834Y-79974996D01*
X109500000Y-79948638D01*
X109500000Y-79543514D01*
X109506293Y-79504513D01*
X109539999Y-79402797D01*
X109550500Y-79300009D01*
X109550499Y-77899992D01*
X109539999Y-77797203D01*
X109506294Y-77695487D01*
X109500000Y-77656483D01*
X109500000Y-72210101D01*
X109506959Y-72169146D01*
X109561787Y-72012457D01*
X109580091Y-71850003D01*
X109580091Y-71849996D01*
X109561787Y-71687544D01*
X109561786Y-71687542D01*
X109561786Y-71687539D01*
X109507789Y-71533225D01*
X109506958Y-71530850D01*
X109500000Y-71489896D01*
X109500000Y-63124000D01*
X109519685Y-63056961D01*
X109572489Y-63011206D01*
X109624000Y-63000000D01*
X115876000Y-63000000D01*
X115943039Y-63019685D01*
G37*
%TD.AperFunction*%
%TD*%
M02*
