%TF.GenerationSoftware,KiCad,Pcbnew,8.0.7*%
%TF.CreationDate,2025-04-05T22:12:11-04:00*%
%TF.ProjectId,power,706f7765-722e-46b6-9963-61645f706362,1.1*%
%TF.SameCoordinates,Original*%
%TF.FileFunction,Copper,L3,Inr*%
%TF.FilePolarity,Positive*%
%FSLAX46Y46*%
G04 Gerber Fmt 4.6, Leading zero omitted, Abs format (unit mm)*
G04 Created by KiCad (PCBNEW 8.0.7) date 2025-04-05 22:12:11*
%MOMM*%
%LPD*%
G01*
G04 APERTURE LIST*
G04 Aperture macros list*
%AMRoundRect*
0 Rectangle with rounded corners*
0 $1 Rounding radius*
0 $2 $3 $4 $5 $6 $7 $8 $9 X,Y pos of 4 corners*
0 Add a 4 corners polygon primitive as box body*
4,1,4,$2,$3,$4,$5,$6,$7,$8,$9,$2,$3,0*
0 Add four circle primitives for the rounded corners*
1,1,$1+$1,$2,$3*
1,1,$1+$1,$4,$5*
1,1,$1+$1,$6,$7*
1,1,$1+$1,$8,$9*
0 Add four rect primitives between the rounded corners*
20,1,$1+$1,$2,$3,$4,$5,0*
20,1,$1+$1,$4,$5,$6,$7,0*
20,1,$1+$1,$6,$7,$8,$9,0*
20,1,$1+$1,$8,$9,$2,$3,0*%
G04 Aperture macros list end*
%TA.AperFunction,ComponentPad*%
%ADD10C,3.200000*%
%TD*%
%TA.AperFunction,ComponentPad*%
%ADD11C,3.600000*%
%TD*%
%TA.AperFunction,ComponentPad*%
%ADD12RoundRect,0.250000X0.600000X0.725000X-0.600000X0.725000X-0.600000X-0.725000X0.600000X-0.725000X0*%
%TD*%
%TA.AperFunction,ComponentPad*%
%ADD13O,1.700000X1.950000*%
%TD*%
%TA.AperFunction,ComponentPad*%
%ADD14C,1.400000*%
%TD*%
%TA.AperFunction,ComponentPad*%
%ADD15RoundRect,0.770000X0.980000X0.980000X-0.980000X0.980000X-0.980000X-0.980000X0.980000X-0.980000X0*%
%TD*%
%TA.AperFunction,ComponentPad*%
%ADD16C,3.500000*%
%TD*%
%TA.AperFunction,ComponentPad*%
%ADD17R,2.000000X0.900000*%
%TD*%
%TA.AperFunction,ComponentPad*%
%ADD18RoundRect,1.025000X-1.025000X1.025000X-1.025000X-1.025000X1.025000X-1.025000X1.025000X1.025000X0*%
%TD*%
%TA.AperFunction,ComponentPad*%
%ADD19C,4.100000*%
%TD*%
%TA.AperFunction,ViaPad*%
%ADD20C,0.450000*%
%TD*%
%TA.AperFunction,ViaPad*%
%ADD21C,1.000000*%
%TD*%
%TA.AperFunction,ViaPad*%
%ADD22C,2.000000*%
%TD*%
%TA.AperFunction,Conductor*%
%ADD23C,0.153000*%
%TD*%
%TA.AperFunction,Conductor*%
%ADD24C,0.300000*%
%TD*%
G04 APERTURE END LIST*
D10*
%TO.N,+V_{batt_raw}*%
%TO.C,F6*%
X116200000Y-80265000D03*
X112800000Y-80265000D03*
%TO.N,+V_{batt_fused}*%
X116200000Y-93735000D03*
X112800000Y-93735000D03*
%TD*%
D11*
%TO.N,N/C*%
%TO.C,H3*%
X178000000Y-142000000D03*
%TD*%
%TO.N,N/C*%
%TO.C,H1*%
X96000000Y-78000000D03*
%TD*%
D12*
%TO.N,/input_connectors/BATT_BALANCE.CELL_6*%
%TO.C,J8*%
X170500000Y-79450000D03*
D13*
%TO.N,/input_connectors/BATT_BALANCE.CELL_5*%
X168000000Y-79450000D03*
%TO.N,/input_connectors/BATT_BALANCE.CELL_4*%
X165500000Y-79450000D03*
%TO.N,/input_connectors/BATT_BALANCE.CELL_3*%
X163000000Y-79450000D03*
%TO.N,/input_connectors/BATT_BALANCE.CELL_2*%
X160500000Y-79450000D03*
%TO.N,/input_connectors/BATT_BALANCE.CELL_1*%
X158000000Y-79450000D03*
%TO.N,Net-(J8-Pin_7)*%
X155500000Y-79450000D03*
%TD*%
D14*
%TO.N,*%
%TO.C,J5*%
X125449999Y-130550000D03*
X114449999Y-130550000D03*
D15*
%TO.N,GND*%
X122449999Y-125550000D03*
D16*
%TO.N,+BATT*%
X117449999Y-125550000D03*
%TD*%
D17*
%TO.N,*%
%TO.C,J7*%
X117850000Y-55250000D03*
X117850000Y-68750000D03*
D18*
%TO.N,GND*%
X111850000Y-58400000D03*
D19*
%TO.N,+V_{batt_raw}*%
X111850000Y-65600000D03*
%TD*%
D14*
%TO.N,*%
%TO.C,J3*%
X139950000Y-130550000D03*
X128950000Y-130550000D03*
D15*
%TO.N,GND*%
X136950000Y-125550000D03*
D16*
%TO.N,+BATT*%
X131950000Y-125550000D03*
%TD*%
D11*
%TO.N,N/C*%
%TO.C,H4*%
X178000000Y-78000000D03*
%TD*%
%TO.N,N/C*%
%TO.C,H2*%
X96000000Y-142000000D03*
%TD*%
D20*
%TO.N,GND*%
X149300000Y-138800000D03*
X108150000Y-141750000D03*
X150300000Y-137800000D03*
X109150000Y-141750000D03*
D21*
X147935000Y-119060000D03*
D20*
X151235001Y-125535001D03*
X140200000Y-109800000D03*
X160300001Y-137800000D03*
X151300000Y-138800000D03*
X166500000Y-74220000D03*
D21*
X94095000Y-119840000D03*
D20*
X179000000Y-127600001D03*
X179000000Y-120100001D03*
X166520000Y-93260000D03*
X158537500Y-91850001D03*
X171500000Y-74220000D03*
X159300000Y-141800000D03*
X126600000Y-110600000D03*
X94490001Y-103250000D03*
X139350000Y-75500000D03*
X113000001Y-104120000D03*
X124999999Y-81050000D03*
X149300000Y-139800001D03*
X179000000Y-114475001D03*
X96657359Y-66918019D03*
D21*
X94349999Y-113000000D03*
D20*
X146500000Y-106000000D03*
X150300000Y-138800000D03*
D21*
X147935000Y-121140000D03*
D20*
X146499999Y-80050000D03*
X131499999Y-79050000D03*
X138400000Y-109800000D03*
X175412500Y-132000000D03*
X159055385Y-110597484D03*
X151300000Y-141800000D03*
X96990001Y-93250000D03*
X97250000Y-95600000D03*
X96490000Y-94740000D03*
X165500000Y-74190001D03*
X132150000Y-75500000D03*
X170550000Y-112050000D03*
X139300000Y-109800000D03*
X108400000Y-82800000D03*
X126600001Y-111800000D03*
X158000000Y-74190001D03*
X131500000Y-105250000D03*
X156100000Y-90300000D03*
X160300000Y-139800000D03*
X179000000Y-126600001D03*
X124800000Y-110600000D03*
X149109999Y-129900000D03*
X139999999Y-80050000D03*
X139300000Y-110600000D03*
X141100000Y-110600000D03*
X174200000Y-135690000D03*
X177000000Y-119100000D03*
X94520000Y-102250000D03*
X108150000Y-139750001D03*
X140000000Y-79050000D03*
X151900000Y-74140001D03*
X150485002Y-126035001D03*
X149550000Y-110759999D03*
X159300000Y-138800000D03*
X171500000Y-139350000D03*
X159300000Y-140800000D03*
X123999999Y-81050000D03*
X138999999Y-79050000D03*
X132499999Y-80050000D03*
X178000000Y-126600001D03*
X163650000Y-90250000D03*
X150900000Y-74170000D03*
X177000000Y-126600000D03*
X159050000Y-109600001D03*
X171400000Y-101249999D03*
X158557500Y-90500000D03*
X138999999Y-80050000D03*
X97894796Y-68155456D03*
X140200000Y-111800000D03*
X99132233Y-69392893D03*
X133750000Y-110759999D03*
X96450000Y-82862500D03*
D21*
X143900002Y-124090000D03*
D20*
X138999999Y-81050000D03*
X110500000Y-104412499D03*
X131999999Y-106000000D03*
X158300000Y-139800001D03*
X149300000Y-137800000D03*
X107150000Y-141750000D03*
X147499999Y-81050000D03*
X154400000Y-74140001D03*
X126600000Y-109800000D03*
X177000000Y-120100000D03*
X151235000Y-127535001D03*
X123900000Y-109800000D03*
X160300000Y-141800000D03*
X108150000Y-137750000D03*
X154800000Y-104849999D03*
X154540001Y-112100000D03*
X131499999Y-80050000D03*
X107150000Y-140750000D03*
X130500001Y-105250000D03*
X153399999Y-74190001D03*
X149735000Y-127535001D03*
X170500000Y-74190001D03*
X146499999Y-79050000D03*
X158510589Y-83660589D03*
X147499999Y-80050000D03*
X132499999Y-81050000D03*
X155800000Y-104850000D03*
D21*
X143900002Y-128289999D03*
D20*
X125700000Y-110600000D03*
X155800000Y-105850000D03*
X150650000Y-88080000D03*
X141100001Y-112700000D03*
X124999999Y-80050000D03*
X160050000Y-109600000D03*
X155500000Y-76190001D03*
X132000000Y-104500000D03*
D21*
X94095000Y-117760000D03*
D20*
X131002516Y-104505385D03*
X151300000Y-140800000D03*
X145990000Y-129900000D03*
X172800000Y-112330000D03*
X160500000Y-74190001D03*
X149000000Y-99259999D03*
X107150000Y-139750000D03*
X163120000Y-100550000D03*
X165050000Y-112350000D03*
X158557500Y-92850000D03*
X160300000Y-140800000D03*
X108150000Y-140749999D03*
X149735000Y-126535001D03*
X179000000Y-119100001D03*
D21*
X143900002Y-126200000D03*
D20*
X175750000Y-88325000D03*
X134500000Y-99259999D03*
X140200000Y-110600000D03*
X141100000Y-111800000D03*
X157403482Y-98414285D03*
X125000000Y-79050000D03*
X178000000Y-119100001D03*
X135000000Y-110759999D03*
X108150000Y-138750000D03*
X159000000Y-74220000D03*
X169000000Y-74220000D03*
X132500000Y-79050000D03*
X109150000Y-139750000D03*
X150300000Y-140800000D03*
X151300000Y-139800000D03*
X177000000Y-127600000D03*
X148250000Y-110759999D03*
X158300000Y-137800000D03*
X146499999Y-81050000D03*
X151450000Y-95159999D03*
X145502516Y-104505386D03*
X141100000Y-109799999D03*
X144500000Y-104499999D03*
X169060000Y-93260000D03*
X154570000Y-110850000D03*
X167550000Y-90500000D03*
X152800000Y-82100000D03*
X164000000Y-74210000D03*
X152950000Y-95130000D03*
X109150000Y-138750000D03*
X178000000Y-127600001D03*
X109150000Y-137750000D03*
X175750000Y-94250000D03*
D21*
X105750000Y-88599999D03*
D20*
X131499999Y-81050000D03*
X161500000Y-74220000D03*
X146000000Y-105250000D03*
X158300000Y-140799999D03*
X153950000Y-95159999D03*
X156773223Y-87278858D03*
X104191284Y-79300000D03*
X123999999Y-80050000D03*
X126600001Y-112700000D03*
X144500000Y-106000001D03*
X167090001Y-130700000D03*
X130000000Y-106000000D03*
X145500000Y-106000000D03*
X162700000Y-101857949D03*
X168550000Y-112050000D03*
X124800000Y-109800000D03*
X163000000Y-74190001D03*
X150300000Y-141800000D03*
X139999999Y-81050000D03*
X147500000Y-79050000D03*
X160300000Y-138800000D03*
X149300000Y-140799999D03*
X109150000Y-140750000D03*
X105525000Y-78600000D03*
X168000000Y-74190001D03*
X146500000Y-104500000D03*
X145000000Y-105249999D03*
X125700000Y-109800000D03*
X159300000Y-137800000D03*
X125700000Y-111799999D03*
X174900002Y-72600000D03*
X167550000Y-83300000D03*
X150485000Y-127035001D03*
X150450000Y-95130000D03*
X149300000Y-141800000D03*
X150300000Y-139800000D03*
X166290000Y-111580000D03*
X101476284Y-82030000D03*
X159300000Y-139800000D03*
X160055385Y-110597484D03*
X155389411Y-88139411D03*
X151300001Y-137800000D03*
X107150000Y-137750000D03*
X164040001Y-113100000D03*
X178000000Y-120100001D03*
X149734999Y-125535001D03*
X169550000Y-112050000D03*
X130000000Y-104500000D03*
X100369670Y-70630330D03*
X157126777Y-84521142D03*
X107150000Y-138750000D03*
X123999999Y-79050000D03*
X151229614Y-126537517D03*
X131000001Y-106000000D03*
X170040001Y-86600000D03*
X158300000Y-138800000D03*
X154800000Y-105850000D03*
X158300000Y-141800000D03*
X155635715Y-96646518D03*
%TO.N,/mcu/NRST*%
X163550000Y-89000000D03*
%TO.N,+5V_LOCAL*%
X174400000Y-111400000D03*
X153200000Y-88100000D03*
%TO.N,+3.3V_LOCAL*%
X178159999Y-87600000D03*
X174509999Y-89750000D03*
X172450000Y-93250000D03*
D22*
X178800000Y-104300000D03*
D20*
X163090001Y-99300000D03*
X175737500Y-102200000D03*
X178159999Y-84000000D03*
X159517500Y-92850000D03*
X180100000Y-136350000D03*
X159517500Y-90500000D03*
X157050000Y-92625000D03*
%TO.N,+BATT*%
X103060624Y-67939376D03*
X98700000Y-99800000D03*
X153950000Y-92204525D03*
%TO.N,~{PB}*%
X108850000Y-71850000D03*
X101201284Y-79300000D03*
X127800000Y-69650000D03*
D22*
%TO.N,Net-(C29-Pad2)*%
X144812500Y-72600000D03*
%TO.N,Net-(C30-Pad2)*%
X126650000Y-72600000D03*
D20*
%TO.N,+3.3V_LOCAL_ALWAYS_ON*%
X176700000Y-111400000D03*
X94490001Y-104250000D03*
%TO.N,/mcu/BATT_PRE*%
X151450000Y-94140000D03*
X167950000Y-85700000D03*
X152150000Y-83150000D03*
%TO.N,Net-(D2-A)*%
X98955456Y-67094796D03*
%TO.N,Net-(D3-A)*%
X97718019Y-65857359D03*
%TO.N,Net-(D4-A)*%
X100192893Y-68332233D03*
%TO.N,Net-(D5-A)*%
X101430330Y-69569670D03*
%TO.N,/mcu/BATT_POST*%
X153450000Y-83150000D03*
X153950000Y-94140001D03*
X167450000Y-85000000D03*
%TO.N,/mcu/PWR_BTN_~{INT}*%
X120400000Y-95700000D03*
X172400000Y-89350000D03*
%TO.N,/mcu/5v0*%
X154400001Y-76150000D03*
X165950000Y-85050000D03*
%TO.N,/mcu/3v3*%
X165450000Y-85700000D03*
X151900000Y-76140002D03*
%TO.N,+V_{batt_fused}*%
X100226284Y-80040000D03*
X100009999Y-93250001D03*
X151450000Y-92140002D03*
%TO.N,/power_protection/GATE*%
X113500000Y-109750000D03*
X99250000Y-102400000D03*
%TO.N,+5V*%
X149500000Y-75300000D03*
X145300000Y-139800001D03*
X103150000Y-139750001D03*
X148500000Y-74300000D03*
X103150000Y-137750000D03*
X148500000Y-75300000D03*
X145300000Y-138800000D03*
X147500000Y-74299999D03*
X103150000Y-140749999D03*
X154400001Y-77179999D03*
X103150000Y-141750000D03*
X149500000Y-74300000D03*
X145300000Y-137800000D03*
X103150000Y-138750000D03*
X145300000Y-141800000D03*
D22*
X147787500Y-72600000D03*
D20*
X145300000Y-140799999D03*
X147499999Y-75300000D03*
%TO.N,+3.3V*%
X147300000Y-140799999D03*
X147300000Y-139800001D03*
X124000000Y-75300000D03*
X151900000Y-77160000D03*
X147300000Y-138800000D03*
X147300000Y-141800000D03*
X123000000Y-75300000D03*
X147300000Y-137800000D03*
X105150000Y-137750000D03*
X105150000Y-138750000D03*
D22*
X123675000Y-72600000D03*
D20*
X124000000Y-74300000D03*
X105150000Y-139750001D03*
X123000000Y-74300000D03*
X121999999Y-75300000D03*
X105150000Y-141750000D03*
X105150000Y-140749999D03*
X122000000Y-74299999D03*
%TO.N,/mcu/SWDIO*%
X171600000Y-96900000D03*
%TO.N,/mcu/SWCLK*%
X170330000Y-96900000D03*
%TO.N,/mcu/LED_SHUTDOWN_ACK_PWR*%
X101810624Y-66689376D03*
X173862500Y-101250000D03*
X149350000Y-89350000D03*
X168700000Y-102100000D03*
%TO.N,/mcu/LED_GREEN*%
X150800000Y-90500000D03*
X100560624Y-65439376D03*
%TO.N,/mcu/LED_RED*%
X149950000Y-90500000D03*
X99360624Y-64239376D03*
%TO.N,/mcu/LOAD_SW_PGOOD*%
X161650000Y-97800000D03*
X95510000Y-104250000D03*
%TO.N,/mcu/PWR_~{KILL}*%
X171750000Y-89850000D03*
X122300000Y-96500000D03*
%TO.N,/mcu/PWR_5v0_EN*%
X164450000Y-97250000D03*
X146999999Y-110759999D03*
%TO.N,/mcu/PWR_3v3_EN*%
X163950000Y-96600000D03*
X132500000Y-110759999D03*
%TO.N,/mcu/RX*%
X172300000Y-91650000D03*
X177140001Y-87600000D03*
%TO.N,/mcu/TX*%
X177140001Y-84600000D03*
X172500000Y-90200000D03*
%TO.N,/mcu/DOTSTAR_MOSI*%
X165150000Y-93450000D03*
%TO.N,/mcu/DOTSTAR_SCK*%
X165150000Y-92650000D03*
%TO.N,Net-(BZ1-+)*%
X180100000Y-132550000D03*
%TO.N,/mcu/BUZZER*%
X175350000Y-136710000D03*
X181400000Y-98650000D03*
D22*
%TO.N,Net-(C44-Pad1)*%
X168200000Y-104200000D03*
%TO.N,Net-(JP2-B)*%
X178800000Y-107100000D03*
%TO.N,Net-(JP3-A)*%
X171200000Y-104200000D03*
D20*
%TO.N,Net-(J6-Pin_1)*%
X166500000Y-139350000D03*
X174209999Y-84600000D03*
%TO.N,Net-(J6-Pin_3)*%
X169000000Y-139350000D03*
X174209999Y-86600000D03*
%TO.N,Net-(J6-Pin_4)*%
X174209999Y-85600000D03*
X170250000Y-139350000D03*
%TO.N,Net-(J6-Pin_2)*%
X167750000Y-139350000D03*
X174209999Y-87600000D03*
D22*
%TO.N,Net-(C22-Pad1)*%
X170537500Y-136100000D03*
%TO.N,+12V*%
X167562500Y-136100000D03*
D20*
%TO.N,/mcu/PWR_12v0_EN*%
X164950000Y-96600000D03*
X143590000Y-131050000D03*
%TD*%
D23*
%TO.N,+BATT*%
X117100000Y-96150000D02*
X98700000Y-96150000D01*
X118600000Y-94650000D02*
X117100000Y-96150000D01*
X153950000Y-92450000D02*
X151750000Y-94650000D01*
X153950000Y-92204525D02*
X153950000Y-92450000D01*
X151750000Y-94650000D02*
X118600000Y-94650000D01*
X98700000Y-96150000D02*
X98700000Y-95850000D01*
X98700000Y-95850000D02*
X98700000Y-80550000D01*
X98700000Y-80550000D02*
X100850000Y-78400000D01*
X100850000Y-78400000D02*
X100850000Y-72250000D01*
X103060624Y-70039376D02*
X103060624Y-67939376D01*
X100850000Y-72250000D02*
X103060624Y-70039376D01*
X98700000Y-99800000D02*
X98700000Y-95850000D01*
%TO.N,~{PB}*%
X105681784Y-74819500D02*
X101201284Y-79300000D01*
X108651284Y-71850000D02*
X108850000Y-71850000D01*
X105681784Y-74819500D02*
X108651284Y-71850000D01*
D24*
%TO.N,+3.3V_LOCAL_ALWAYS_ON*%
X176700000Y-111400000D02*
X155900000Y-132200000D01*
X155900000Y-132200000D02*
X120450000Y-132200000D01*
X120450000Y-132200000D02*
X94490001Y-106240001D01*
X94490001Y-106240001D02*
X94490001Y-104250000D01*
D23*
%TO.N,/mcu/BATT_PRE*%
X151450000Y-94140000D02*
X152150000Y-93440000D01*
X158500000Y-82650000D02*
X162450000Y-86600000D01*
X162450000Y-86600000D02*
X167050000Y-86600000D01*
X167050000Y-86600000D02*
X167950000Y-85700000D01*
X152150000Y-82825001D02*
X152325001Y-82650000D01*
X152150000Y-93440000D02*
X152150000Y-83150000D01*
X152325001Y-82650000D02*
X158500000Y-82650000D01*
X152150000Y-83150000D02*
X152150000Y-82825001D01*
%TO.N,/mcu/BATT_POST*%
X153450000Y-83150000D02*
X157330000Y-87030000D01*
X157300000Y-87000000D02*
X153450000Y-83150000D01*
X157300000Y-90790001D02*
X157300000Y-87000000D01*
X157330000Y-87030000D02*
X167620000Y-87030000D01*
X167929530Y-85000000D02*
X167450000Y-85000000D01*
X153950000Y-94140001D02*
X157300000Y-90790001D01*
X168430500Y-86219500D02*
X168430500Y-85500970D01*
X168430500Y-85500970D02*
X167929530Y-85000000D01*
X167620000Y-87030000D02*
X168430500Y-86219500D01*
%TO.N,/mcu/PWR_BTN_~{INT}*%
X120400000Y-95700000D02*
X161420470Y-95700000D01*
X167770470Y-89350000D02*
X172400000Y-89350000D01*
X161420470Y-95700000D02*
X167770470Y-89350000D01*
%TO.N,/mcu/5v0*%
X154400001Y-76150000D02*
X154840500Y-75709501D01*
X164250000Y-79085126D02*
X164250000Y-83350000D01*
X164250000Y-83350000D02*
X165950000Y-85050000D01*
X154840500Y-75709501D02*
X160874375Y-75709501D01*
X160874375Y-75709501D02*
X164250000Y-79085126D01*
%TO.N,/mcu/3v3*%
X165450000Y-85700000D02*
X161750000Y-82000000D01*
X159470501Y-76670501D02*
X152430499Y-76670501D01*
X152430499Y-76670501D02*
X151900000Y-76140002D01*
X161750000Y-78950000D02*
X159470501Y-76670501D01*
X161750000Y-82000000D02*
X161750000Y-78950000D01*
%TO.N,+V_{batt_fused}*%
X116200000Y-93735000D02*
X149855002Y-93735000D01*
X149855002Y-93735000D02*
X151450000Y-92140002D01*
X100226284Y-80040000D02*
X100226284Y-93033716D01*
X100226284Y-93033716D02*
X100009999Y-93250001D01*
%TO.N,/power_protection/GATE*%
X105200000Y-108700000D02*
X112450000Y-108700000D01*
X99250000Y-102400000D02*
X99250000Y-102750000D01*
X112450000Y-108700000D02*
X113500000Y-109750000D01*
X99250000Y-102750000D02*
X105200000Y-108700000D01*
%TO.N,+3.3V*%
X124000000Y-75300000D02*
X125300000Y-76600000D01*
X150050000Y-76600000D02*
X150610000Y-77160000D01*
X125300000Y-76600000D02*
X150050000Y-76600000D01*
X150610000Y-77160000D02*
X151900000Y-77160000D01*
%TO.N,/mcu/LED_SHUTDOWN_ACK_PWR*%
X128458040Y-89350000D02*
X105797416Y-66689376D01*
X149350000Y-89350000D02*
X128458040Y-89350000D01*
X105797416Y-66689376D02*
X101810624Y-66689376D01*
%TO.N,/mcu/LED_GREEN*%
X128170000Y-88270000D02*
X149770000Y-88270000D01*
X149770000Y-88270000D02*
X150800000Y-89300000D01*
X100560624Y-65439376D02*
X105339376Y-65439376D01*
X105339376Y-65439376D02*
X128170000Y-88270000D01*
X150800000Y-89300000D02*
X150800000Y-90500000D01*
%TO.N,/mcu/LED_RED*%
X149950000Y-89200000D02*
X149300000Y-88550000D01*
X100650594Y-66208876D02*
X99360624Y-64918906D01*
X149300000Y-88550000D02*
X128054020Y-88550000D01*
X149950000Y-90500000D02*
X149950000Y-89200000D01*
X99360624Y-64918906D02*
X99360624Y-64239376D01*
X128054020Y-88550000D02*
X105712896Y-66208876D01*
X105712896Y-66208876D02*
X100650594Y-66208876D01*
%TO.N,/mcu/LOAD_SW_PGOOD*%
X161000000Y-97150000D02*
X161650000Y-97800000D01*
X95510000Y-104250000D02*
X102610000Y-97150000D01*
X102610000Y-97150000D02*
X161000000Y-97150000D01*
%TO.N,/mcu/PWR_~{KILL}*%
X145830000Y-96500000D02*
X122300000Y-96500000D01*
X171750000Y-89850000D02*
X165500000Y-96100000D01*
X165500000Y-96100000D02*
X146230000Y-96100000D01*
X146230000Y-96100000D02*
X145830000Y-96500000D01*
%TO.N,/mcu/PWR_5v0_EN*%
X154959998Y-102800000D02*
X146999999Y-110759999D01*
X158900000Y-102800000D02*
X154959998Y-102800000D01*
X164450000Y-97250000D02*
X158900000Y-102800000D01*
%TO.N,/mcu/PWR_3v3_EN*%
X158350000Y-102200000D02*
X153000000Y-102200000D01*
X153000000Y-102200000D02*
X146450000Y-108750000D01*
X146450000Y-108750000D02*
X134509999Y-108750000D01*
X134509999Y-108750000D02*
X132500000Y-110759999D01*
X163950000Y-96600000D02*
X158350000Y-102200000D01*
%TO.N,/mcu/BUZZER*%
X181400000Y-98700000D02*
X181400000Y-98650000D01*
X178340000Y-136710000D02*
X181550000Y-133500000D01*
X175350000Y-136710000D02*
X178340000Y-136710000D01*
X181550000Y-98850000D02*
X181400000Y-98700000D01*
X181550000Y-133500000D02*
X181550000Y-98850000D01*
%TO.N,Net-(J6-Pin_1)*%
X179410000Y-88900000D02*
X174830469Y-88900000D01*
X172842010Y-136020050D02*
X172842010Y-132220050D01*
X167610000Y-138240000D02*
X170622060Y-138240000D01*
X174830469Y-88900000D02*
X173729499Y-87799030D01*
X172842010Y-132220050D02*
X174802060Y-130260000D01*
X178602060Y-130260000D02*
X180060000Y-128802060D01*
X170622060Y-138240000D02*
X172842010Y-136020050D01*
X173729499Y-85080500D02*
X174209999Y-84600000D01*
X173729499Y-87799030D02*
X173729499Y-85080500D01*
X174802060Y-130260000D02*
X178602060Y-130260000D01*
X180060000Y-89550000D02*
X179410000Y-88900000D01*
X166500000Y-139350000D02*
X167610000Y-138240000D01*
X180060000Y-128802060D02*
X180060000Y-89550000D01*
%TO.N,Net-(J6-Pin_3)*%
X169550000Y-138800000D02*
X170854020Y-138800000D01*
X175034020Y-130820000D02*
X178834020Y-130820000D01*
X180620000Y-89284020D02*
X177935980Y-86600000D01*
X173402010Y-136252010D02*
X173402010Y-132452010D01*
X173402010Y-132452010D02*
X175034020Y-130820000D01*
X177935980Y-86600000D02*
X174209999Y-86600000D01*
X178834020Y-130820000D02*
X180620000Y-129034020D01*
X170854020Y-138800000D02*
X173402010Y-136252010D01*
X169000000Y-139350000D02*
X169550000Y-138800000D01*
X180620000Y-129034020D02*
X180620000Y-89284020D01*
%TO.N,Net-(J6-Pin_4)*%
X170250000Y-139350000D02*
X170700000Y-139350000D01*
X177331960Y-85600000D02*
X174209999Y-85600000D01*
X175150000Y-131100000D02*
X178950000Y-131100000D01*
X178950000Y-131100000D02*
X180900000Y-129150000D01*
X173700000Y-136350000D02*
X173700000Y-132550000D01*
X180900000Y-129150000D02*
X180900000Y-89168040D01*
X180900000Y-89168040D02*
X177331960Y-85600000D01*
X170700000Y-139350000D02*
X173700000Y-136350000D01*
X173700000Y-132550000D02*
X175150000Y-131100000D01*
%TO.N,Net-(J6-Pin_2)*%
X180340000Y-128918040D02*
X180340000Y-89400000D01*
X168580000Y-138520000D02*
X170738040Y-138520000D01*
X178718040Y-130540000D02*
X180340000Y-128918040D01*
X173122010Y-132336030D02*
X174918040Y-130540000D01*
X167750000Y-139350000D02*
X168580000Y-138520000D01*
X170738040Y-138520000D02*
X173122010Y-136136030D01*
X174918040Y-130540000D02*
X178718040Y-130540000D01*
X176193530Y-87600000D02*
X174209999Y-87600000D01*
X173122010Y-136136030D02*
X173122010Y-132336030D01*
X180340000Y-89400000D02*
X179020500Y-88080500D01*
X176674030Y-88080500D02*
X176193530Y-87600000D01*
X179020500Y-88080500D02*
X176674030Y-88080500D01*
%TO.N,/mcu/PWR_12v0_EN*%
X164950000Y-110750000D02*
X165650000Y-111450000D01*
X165650000Y-111450000D02*
X165650000Y-121500000D01*
X165650000Y-121500000D02*
X156100000Y-131050000D01*
X164950000Y-96600000D02*
X164950000Y-110750000D01*
X156100000Y-131050000D02*
X143590000Y-131050000D01*
%TD*%
M02*
