M48
; DRILL file {KiCad 8.0.7} date 2025-03-31T22:55:58-0400
; FORMAT={-:-/ absolute / inch / decimal}
; #@! TF.CreationDate,2025-03-31T22:55:58-04:00
; #@! TF.GenerationSoftware,Kicad,Pcbnew,8.0.7
; #@! TF.FileFunction,Plated,1,6,PTH
FMAT,2
INCH
; #@! TA.AperFunction,Plated,PTH,ViaDrill
T1C0.0118
; #@! TA.AperFunction,Plated,PTH,ViaDrill
T2C0.0236
; #@! TA.AperFunction,Plated,PTH,ComponentDrill
T3C0.0236
; #@! TA.AperFunction,Plated,PTH,ComponentDrill
T4C0.0374
; #@! TA.AperFunction,Plated,PTH,ViaDrill
T5C0.0394
; #@! TA.AperFunction,Plated,PTH,ComponentDrill
T6C0.0394
; #@! TA.AperFunction,Plated,PTH,ComponentDrill
T7C0.0709
; #@! TA.AperFunction,Plated,PTH,ComponentDrill
T8C0.0748
; #@! TA.AperFunction,Plated,PTH,ComponentDrill
T9C0.1063
; #@! TA.AperFunction,Plated,PTH,ComponentDrill
T10C0.1260
%
G90
G05
T1
X3.7201Y-4.065
X3.7201Y-4.1043
X3.7213Y-4.0256
X3.7602Y-4.1043
X3.7972Y-3.2623
X3.7988Y-3.7299
X3.8054Y-2.6346
X3.8185Y-3.6713
X3.8287Y-3.7638
X3.8472Y-2.5928
X3.8541Y-2.6833
X3.8858Y-3.9291
X3.8959Y-2.6415
X3.9028Y-2.732
X3.9075Y-4.0315
X3.9118Y-2.5291
X3.9374Y-3.6713
X3.9446Y-2.6902
X3.9459Y-3.1512
X3.9516Y-2.7807
X3.9591Y-2.5764
X3.9843Y-3.122
X3.9933Y-2.739
X3.9951Y-3.2295
X4.0083Y-2.6256
X4.0575Y-2.6748
X4.061Y-5.4232
X4.061Y-5.4626
X4.061Y-5.502
X4.061Y-5.5413
X4.061Y-5.5807
X4.102Y-3.122
X4.1398Y-5.4232
X4.1398Y-5.4626
X4.1398Y-5.502
X4.1398Y-5.5413
X4.1398Y-5.5807
X4.1545Y-3.0945
X4.2185Y-5.4232
X4.2185Y-5.4626
X4.2185Y-5.502
X4.2185Y-5.5413
X4.2185Y-5.5807
X4.2579Y-5.4232
X4.2579Y-5.4626
X4.2579Y-5.502
X4.2579Y-5.5413
X4.2579Y-5.5807
X4.2677Y-3.2598
X4.2854Y-2.8287
X4.2972Y-5.4232
X4.2972Y-5.4626
X4.2972Y-5.502
X4.2972Y-5.5413
X4.2972Y-5.5807
X4.3504Y-4.1107
X4.4488Y-4.0992
X4.4685Y-4.3209
X4.7402Y-3.7677
X4.8031Y-2.9646
X4.8031Y-2.9252
X4.815Y-3.7992
X4.8425Y-2.9252
X4.8425Y-2.9646
X4.878Y-4.3228
X4.8819Y-3.1122
X4.8819Y-3.1516
X4.8819Y-3.1909
X4.8819Y-2.9252
X4.8819Y-2.9646
X4.9134Y-4.3228
X4.9134Y-4.3543
X4.9213Y-3.1516
X4.9213Y-3.1909
X4.9213Y-3.1122
X4.9488Y-4.3228
X4.9488Y-4.3543
X4.9488Y-4.4016
X4.9843Y-4.3228
X4.9843Y-4.3543
X4.9843Y-4.4016
X4.9843Y-4.437
X5.0315Y-2.7421
X5.1181Y-4.1142
X5.1181Y-4.1732
X5.1378Y-4.1437
X5.1575Y-4.1732
X5.1576Y-4.1144
X5.1772Y-3.1122
X5.1772Y-3.1516
X5.1772Y-3.1909
X5.1772Y-4.1437
X5.1969Y-4.1732
X5.1969Y-4.1142
X5.2028Y-2.9724
X5.2165Y-3.1516
X5.2165Y-3.1909
X5.2165Y-3.1122
X5.2165Y-4.3606
X5.2657Y-4.3606
X5.2953Y-3.9079
X5.315Y-4.3606
X5.4488Y-4.3228
X5.4724Y-3.1122
X5.4724Y-3.1516
X5.4724Y-3.1909
X5.4843Y-4.3228
X5.4843Y-4.3543
X5.4862Y-2.9724
X5.5118Y-3.1516
X5.5118Y-3.1909
X5.5118Y-3.1122
X5.5197Y-4.3228
X5.5197Y-4.3543
X5.5197Y-4.4016
X5.5551Y-4.3228
X5.5551Y-4.3543
X5.5551Y-4.4016
X5.5551Y-4.437
X5.6531Y-5.1594
X5.689Y-4.1142
X5.689Y-4.1732
X5.7087Y-4.1437
X5.7205Y-5.4252
X5.7205Y-5.4646
X5.7205Y-5.5039
X5.7205Y-5.5433
X5.7205Y-5.5827
X5.7283Y-4.1732
X5.7284Y-4.1144
X5.7476Y-5.1142
X5.748Y-4.1437
X5.7677Y-3.1122
X5.7677Y-3.1516
X5.7677Y-3.1909
X5.7677Y-4.1142
X5.7677Y-4.1732
X5.7874Y-4.3606
X5.7992Y-5.4252
X5.7992Y-5.4646
X5.7992Y-5.5039
X5.7992Y-5.5433
X5.7992Y-5.5827
X5.8071Y-2.9646
X5.8071Y-3.1516
X5.8071Y-3.1909
X5.8071Y-2.9252
X5.8071Y-3.1122
X5.8366Y-4.3606
X5.8465Y-2.9252
X5.8465Y-2.9646
X5.8661Y-3.9079
X5.8705Y-5.1142
X5.878Y-5.4252
X5.878Y-5.4646
X5.878Y-5.5039
X5.878Y-5.5433
X5.878Y-5.5827
X5.8799Y-3.5177
X5.8858Y-2.9252
X5.8858Y-2.9646
X5.8878Y-4.3606
X5.8951Y-4.9423
X5.8951Y-4.9817
X5.8951Y-5.0211
X5.9035Y-3.563
X5.9173Y-5.4252
X5.9173Y-5.4646
X5.9173Y-5.5039
X5.9173Y-5.5433
X5.9173Y-5.5827
X5.9232Y-3.7453
X5.9246Y-5.0014
X5.9246Y-4.962
X5.9311Y-3.4677
X5.937Y-3.563
X5.9409Y-2.9201
X5.9539Y-4.9818
X5.9541Y-5.0211
X5.9541Y-4.9423
X5.9567Y-5.4646
X5.9567Y-5.5039
X5.9567Y-5.5433
X5.9567Y-5.5827
X5.9567Y-5.4252
X5.9626Y-3.6276
X5.9626Y-3.7063
X5.9626Y-3.7465
X5.9803Y-2.9189
X5.9803Y-2.9976
X5.9803Y-3.0378
X5.9902Y-3.2736
X6.0157Y-3.2323
X6.0217Y-3.7453
X6.0315Y-3.4685
X6.0394Y-2.9209
X6.0413Y-3.2736
X6.061Y-3.6301
X6.061Y-3.7063
X6.061Y-3.7465
X6.0787Y-2.9189
X6.0787Y-2.998
X6.0787Y-3.0386
X6.0843Y-4.4134
X6.0854Y-4.3642
X6.0945Y-4.128
X6.0945Y-4.1673
X6.1177Y-3.4701
X6.122Y-2.9996
X6.1274Y-3.805
X6.1339Y-4.128
X6.1339Y-4.1673
X6.1457Y-3.5551
X6.1722Y-3.4362
X6.1831Y-3.6467
X6.1861Y-3.3276
X6.197Y-3.8746
X6.2205Y-2.9209
X6.2323Y-5.4252
X6.2323Y-5.4646
X6.2323Y-5.5039
X6.2323Y-5.5433
X6.2323Y-5.5827
X6.2406Y-3.2937
X6.2416Y-3.6161
X6.2424Y-3.563
X6.2424Y-3.6555
X6.2598Y-2.922
X6.2618Y-4.315
X6.262Y-4.3542
X6.2717Y-5.4252
X6.2717Y-5.4646
X6.2717Y-5.5039
X6.2717Y-5.5433
X6.2717Y-5.5827
X6.2802Y-3.563
X6.2802Y-3.6555
X6.3012Y-4.315
X6.3014Y-4.3542
X6.311Y-5.4646
X6.311Y-5.5039
X6.311Y-5.5433
X6.311Y-5.5827
X6.311Y-5.4252
X6.3189Y-2.9209
X6.3583Y-2.922
X6.3642Y-3.8504
X6.4055Y-4.0102
X6.4173Y-2.9209
X6.4209Y-3.9094
X6.422Y-3.9587
X6.439Y-3.5039
X6.4429Y-3.5531
X6.4547Y-3.8031
X6.4567Y-2.9217
X6.4583Y-4.4528
X6.4744Y-3.8287
X6.4941Y-3.8031
X6.498Y-4.4232
X6.502Y-3.6476
X6.502Y-3.6791
X6.5138Y-3.374
X6.5157Y-2.9209
X6.5335Y-3.3484
X6.5469Y-4.3929
X6.5551Y-2.922
X6.5551Y-5.4862
X6.5559Y-3.6717
X6.5783Y-5.1457
X6.5925Y-3.3465
X6.5965Y-3.2795
X6.5965Y-3.563
X6.6043Y-5.4862
X6.6122Y-3.374
X6.6142Y-2.9209
X6.6358Y-4.4114
X6.6417Y-4.0197
X6.6535Y-2.922
X6.6535Y-5.4862
X6.6559Y-3.6717
X6.6752Y-4.4114
X6.6945Y-3.4094
X6.7028Y-5.4862
X6.7059Y-3.815
X6.7126Y-2.9209
X6.7146Y-4.4114
X6.748Y-3.9862
X6.752Y-2.922
X6.752Y-5.4862
X6.7559Y-3.815
X6.7618Y-3.5374
X6.7835Y-3.6083
X6.7874Y-3.5177
X6.7894Y-3.6713
X6.7913Y-3.5512
X6.8031Y-4.4224
X6.845Y-3.9862
X6.8583Y-5.3421
X6.8587Y-3.3307
X6.8587Y-3.3701
X6.8587Y-3.4094
X6.8587Y-3.4488
X6.8661Y-4.3858
X6.8705Y-3.5335
X6.8858Y-2.8583
X6.9035Y-5.3823
X6.906Y-5.1969
X6.9188Y-4.0236
X6.9193Y-3.4774
X6.9193Y-3.7106
X6.9567Y-4.3858
X6.9685Y-4.689
X6.9685Y-4.7283
X6.9685Y-4.9843
X6.9685Y-5.0236
X6.974Y-3.3307
X6.974Y-3.4488
X7.0079Y-4.689
X7.0079Y-4.7283
X7.0079Y-4.9843
X7.0079Y-5.0236
X7.0142Y-3.3071
X7.0142Y-3.4488
X7.0472Y-4.5069
X7.0472Y-4.689
X7.0472Y-4.7283
X7.0472Y-4.9843
X7.0472Y-5.0236
X7.0906Y-5.2185
X7.0906Y-5.3681
X7.1417Y-3.8839
T2
X3.7045Y-4.6362
X3.7045Y-4.7181
X3.7146Y-4.4488
X4.1634Y-3.4882
X5.6654Y-4.8854
X5.6654Y-4.9685
X5.6654Y-5.0508
X5.8242Y-4.6874
X5.8242Y-4.7693
T4
X6.122Y-3.128
X6.2205Y-3.128
X6.3189Y-3.128
X6.4173Y-3.128
X6.5157Y-3.128
X6.6142Y-3.128
X6.7126Y-3.128
T5
X4.8691Y-2.8583
X4.9862Y-2.8583
X5.7013Y-2.8583
X5.8184Y-2.8583
X6.5969Y-5.3583
X6.622Y-4.1024
X6.7141Y-5.3583
X6.7402Y-4.1024
X7.0394Y-4.1063
X7.0394Y-4.2165
T6
X4.5059Y-5.1398
X4.939Y-5.1398
X5.0768Y-5.1398
X5.5098Y-5.1398
T7
X4.4409Y-3.16
X4.4409Y-3.6904
X4.5748Y-3.16
X4.5748Y-3.6904
T8
X4.624Y-4.9429
X4.8209Y-4.9429
X5.1949Y-4.9429
X5.3917Y-4.9429
T9
X4.4035Y-2.2992
X4.4035Y-2.5827
T10
X3.7795Y-3.0709
X3.7795Y-5.5906
X7.0079Y-3.0709
X7.0079Y-5.5906
T3
G00X4.6614Y-2.1752
M15
G01X4.6181Y-2.1752
M16
G05
G00X4.6614Y-2.7067
M15
G01X4.6181Y-2.7067
M16
G05
M30
