%TF.GenerationSoftware,KiCad,Pcbnew,8.0.7*%
%TF.CreationDate,2025-03-31T23:05:00-04:00*%
%TF.ProjectId,power,706f7765-722e-46b6-9963-61645f706362,1.1*%
%TF.SameCoordinates,Original*%
%TF.FileFunction,Legend,Bot*%
%TF.FilePolarity,Positive*%
%FSLAX46Y46*%
G04 Gerber Fmt 4.6, Leading zero omitted, Abs format (unit mm)*
G04 Created by KiCad (PCBNEW 8.0.7) date 2025-03-31 23:05:00*
%MOMM*%
%LPD*%
G01*
G04 APERTURE LIST*
G04 Aperture macros list*
%AMRoundRect*
0 Rectangle with rounded corners*
0 $1 Rounding radius*
0 $2 $3 $4 $5 $6 $7 $8 $9 X,Y pos of 4 corners*
0 Add a 4 corners polygon primitive as box body*
4,1,4,$2,$3,$4,$5,$6,$7,$8,$9,$2,$3,0*
0 Add four circle primitives for the rounded corners*
1,1,$1+$1,$2,$3*
1,1,$1+$1,$4,$5*
1,1,$1+$1,$6,$7*
1,1,$1+$1,$8,$9*
0 Add four rect primitives between the rounded corners*
20,1,$1+$1,$2,$3,$4,$5,0*
20,1,$1+$1,$4,$5,$6,$7,0*
20,1,$1+$1,$6,$7,$8,$9,0*
20,1,$1+$1,$8,$9,$2,$3,0*%
%AMRotRect*
0 Rectangle, with rotation*
0 The origin of the aperture is its center*
0 $1 length*
0 $2 width*
0 $3 Rotation angle, in degrees counterclockwise*
0 Add horizontal line*
21,1,$1,$2,0,0,$3*%
G04 Aperture macros list end*
%ADD10C,0.150000*%
%ADD11C,0.120000*%
%ADD12C,3.200000*%
%ADD13C,3.600000*%
%ADD14C,6.400000*%
%ADD15RoundRect,0.250000X0.600000X0.725000X-0.600000X0.725000X-0.600000X-0.725000X0.600000X-0.725000X0*%
%ADD16O,1.700000X1.950000*%
%ADD17C,1.400000*%
%ADD18RoundRect,0.770000X0.980000X0.980000X-0.980000X0.980000X-0.980000X-0.980000X0.980000X-0.980000X0*%
%ADD19C,3.500000*%
%ADD20R,2.000000X0.900000*%
%ADD21RoundRect,1.025000X-1.025000X1.025000X-1.025000X-1.025000X1.025000X-1.025000X1.025000X1.025000X0*%
%ADD22C,4.100000*%
%ADD23C,0.800000*%
%ADD24RoundRect,0.135000X-0.135000X-0.185000X0.135000X-0.185000X0.135000X0.185000X-0.135000X0.185000X0*%
%ADD25RoundRect,0.250000X0.800000X-0.450000X0.800000X0.450000X-0.800000X0.450000X-0.800000X-0.450000X0*%
%ADD26RoundRect,0.150000X-0.587500X-0.150000X0.587500X-0.150000X0.587500X0.150000X-0.587500X0.150000X0*%
%ADD27RoundRect,0.135000X0.135000X0.185000X-0.135000X0.185000X-0.135000X-0.185000X0.135000X-0.185000X0*%
%ADD28RoundRect,0.140000X0.140000X0.170000X-0.140000X0.170000X-0.140000X-0.170000X0.140000X-0.170000X0*%
%ADD29RoundRect,0.135000X-0.035355X0.226274X-0.226274X0.035355X0.035355X-0.226274X0.226274X-0.035355X0*%
%ADD30RoundRect,0.135000X-0.185000X0.135000X-0.185000X-0.135000X0.185000X-0.135000X0.185000X0.135000X0*%
%ADD31RoundRect,0.100000X-0.225000X-0.100000X0.225000X-0.100000X0.225000X0.100000X-0.225000X0.100000X0*%
%ADD32RoundRect,0.135000X0.185000X-0.135000X0.185000X0.135000X-0.185000X0.135000X-0.185000X-0.135000X0*%
%ADD33RoundRect,0.250000X-1.000000X-0.650000X1.000000X-0.650000X1.000000X0.650000X-1.000000X0.650000X0*%
%ADD34RoundRect,0.140000X0.170000X-0.140000X0.170000X0.140000X-0.170000X0.140000X-0.170000X-0.140000X0*%
%ADD35RoundRect,0.140000X-0.021213X0.219203X-0.219203X0.021213X0.021213X-0.219203X0.219203X-0.021213X0*%
%ADD36RotRect,1.000000X1.800000X315.000000*%
%ADD37RoundRect,0.075000X-0.662500X-0.075000X0.662500X-0.075000X0.662500X0.075000X-0.662500X0.075000X0*%
%ADD38RoundRect,0.075000X-0.075000X-0.662500X0.075000X-0.662500X0.075000X0.662500X-0.075000X0.662500X0*%
%ADD39RoundRect,0.140000X-0.219203X-0.021213X-0.021213X-0.219203X0.219203X0.021213X0.021213X0.219203X0*%
%ADD40RoundRect,0.140000X-0.170000X0.140000X-0.170000X-0.140000X0.170000X-0.140000X0.170000X0.140000X0*%
%ADD41RoundRect,0.140000X0.219203X0.021213X0.021213X0.219203X-0.219203X-0.021213X-0.021213X-0.219203X0*%
%ADD42RotRect,1.400000X1.200000X225.000000*%
%ADD43RoundRect,0.150000X0.587500X0.150000X-0.587500X0.150000X-0.587500X-0.150000X0.587500X-0.150000X0*%
%ADD44RoundRect,0.200000X-0.275000X0.200000X-0.275000X-0.200000X0.275000X-0.200000X0.275000X0.200000X0*%
%ADD45RoundRect,0.100000X0.100000X-0.225000X0.100000X0.225000X-0.100000X0.225000X-0.100000X-0.225000X0*%
G04 APERTURE END LIST*
D10*
X173942857Y-83954819D02*
X174276190Y-83478628D01*
X174514285Y-83954819D02*
X174514285Y-82954819D01*
X174514285Y-82954819D02*
X174133333Y-82954819D01*
X174133333Y-82954819D02*
X174038095Y-83002438D01*
X174038095Y-83002438D02*
X173990476Y-83050057D01*
X173990476Y-83050057D02*
X173942857Y-83145295D01*
X173942857Y-83145295D02*
X173942857Y-83288152D01*
X173942857Y-83288152D02*
X173990476Y-83383390D01*
X173990476Y-83383390D02*
X174038095Y-83431009D01*
X174038095Y-83431009D02*
X174133333Y-83478628D01*
X174133333Y-83478628D02*
X174514285Y-83478628D01*
X173085714Y-83288152D02*
X173085714Y-83954819D01*
X173323809Y-82907200D02*
X173561904Y-83621485D01*
X173561904Y-83621485D02*
X172942857Y-83621485D01*
X172514285Y-83954819D02*
X172323809Y-83954819D01*
X172323809Y-83954819D02*
X172228571Y-83907200D01*
X172228571Y-83907200D02*
X172180952Y-83859580D01*
X172180952Y-83859580D02*
X172085714Y-83716723D01*
X172085714Y-83716723D02*
X172038095Y-83526247D01*
X172038095Y-83526247D02*
X172038095Y-83145295D01*
X172038095Y-83145295D02*
X172085714Y-83050057D01*
X172085714Y-83050057D02*
X172133333Y-83002438D01*
X172133333Y-83002438D02*
X172228571Y-82954819D01*
X172228571Y-82954819D02*
X172419047Y-82954819D01*
X172419047Y-82954819D02*
X172514285Y-83002438D01*
X172514285Y-83002438D02*
X172561904Y-83050057D01*
X172561904Y-83050057D02*
X172609523Y-83145295D01*
X172609523Y-83145295D02*
X172609523Y-83383390D01*
X172609523Y-83383390D02*
X172561904Y-83478628D01*
X172561904Y-83478628D02*
X172514285Y-83526247D01*
X172514285Y-83526247D02*
X172419047Y-83573866D01*
X172419047Y-83573866D02*
X172228571Y-83573866D01*
X172228571Y-83573866D02*
X172133333Y-83526247D01*
X172133333Y-83526247D02*
X172085714Y-83478628D01*
X172085714Y-83478628D02*
X172038095Y-83383390D01*
X178504819Y-135911905D02*
X177504819Y-135911905D01*
X177504819Y-135911905D02*
X177504819Y-136150000D01*
X177504819Y-136150000D02*
X177552438Y-136292857D01*
X177552438Y-136292857D02*
X177647676Y-136388095D01*
X177647676Y-136388095D02*
X177742914Y-136435714D01*
X177742914Y-136435714D02*
X177933390Y-136483333D01*
X177933390Y-136483333D02*
X178076247Y-136483333D01*
X178076247Y-136483333D02*
X178266723Y-136435714D01*
X178266723Y-136435714D02*
X178361961Y-136388095D01*
X178361961Y-136388095D02*
X178457200Y-136292857D01*
X178457200Y-136292857D02*
X178504819Y-136150000D01*
X178504819Y-136150000D02*
X178504819Y-135911905D01*
X177504819Y-137340476D02*
X177504819Y-137150000D01*
X177504819Y-137150000D02*
X177552438Y-137054762D01*
X177552438Y-137054762D02*
X177600057Y-137007143D01*
X177600057Y-137007143D02*
X177742914Y-136911905D01*
X177742914Y-136911905D02*
X177933390Y-136864286D01*
X177933390Y-136864286D02*
X178314342Y-136864286D01*
X178314342Y-136864286D02*
X178409580Y-136911905D01*
X178409580Y-136911905D02*
X178457200Y-136959524D01*
X178457200Y-136959524D02*
X178504819Y-137054762D01*
X178504819Y-137054762D02*
X178504819Y-137245238D01*
X178504819Y-137245238D02*
X178457200Y-137340476D01*
X178457200Y-137340476D02*
X178409580Y-137388095D01*
X178409580Y-137388095D02*
X178314342Y-137435714D01*
X178314342Y-137435714D02*
X178076247Y-137435714D01*
X178076247Y-137435714D02*
X177981009Y-137388095D01*
X177981009Y-137388095D02*
X177933390Y-137340476D01*
X177933390Y-137340476D02*
X177885771Y-137245238D01*
X177885771Y-137245238D02*
X177885771Y-137054762D01*
X177885771Y-137054762D02*
X177933390Y-136959524D01*
X177933390Y-136959524D02*
X177981009Y-136911905D01*
X177981009Y-136911905D02*
X178076247Y-136864286D01*
X177445238Y-131100057D02*
X177540476Y-131052438D01*
X177540476Y-131052438D02*
X177635714Y-130957200D01*
X177635714Y-130957200D02*
X177778571Y-130814342D01*
X177778571Y-130814342D02*
X177873809Y-130766723D01*
X177873809Y-130766723D02*
X177969047Y-130766723D01*
X177921428Y-131004819D02*
X178016666Y-130957200D01*
X178016666Y-130957200D02*
X178111904Y-130861961D01*
X178111904Y-130861961D02*
X178159523Y-130671485D01*
X178159523Y-130671485D02*
X178159523Y-130338152D01*
X178159523Y-130338152D02*
X178111904Y-130147676D01*
X178111904Y-130147676D02*
X178016666Y-130052438D01*
X178016666Y-130052438D02*
X177921428Y-130004819D01*
X177921428Y-130004819D02*
X177730952Y-130004819D01*
X177730952Y-130004819D02*
X177635714Y-130052438D01*
X177635714Y-130052438D02*
X177540476Y-130147676D01*
X177540476Y-130147676D02*
X177492857Y-130338152D01*
X177492857Y-130338152D02*
X177492857Y-130671485D01*
X177492857Y-130671485D02*
X177540476Y-130861961D01*
X177540476Y-130861961D02*
X177635714Y-130957200D01*
X177635714Y-130957200D02*
X177730952Y-131004819D01*
X177730952Y-131004819D02*
X177921428Y-131004819D01*
X177111904Y-130100057D02*
X177064285Y-130052438D01*
X177064285Y-130052438D02*
X176969047Y-130004819D01*
X176969047Y-130004819D02*
X176730952Y-130004819D01*
X176730952Y-130004819D02*
X176635714Y-130052438D01*
X176635714Y-130052438D02*
X176588095Y-130100057D01*
X176588095Y-130100057D02*
X176540476Y-130195295D01*
X176540476Y-130195295D02*
X176540476Y-130290533D01*
X176540476Y-130290533D02*
X176588095Y-130433390D01*
X176588095Y-130433390D02*
X177159523Y-131004819D01*
X177159523Y-131004819D02*
X176540476Y-131004819D01*
X171042857Y-82084819D02*
X171376190Y-81608628D01*
X171614285Y-82084819D02*
X171614285Y-81084819D01*
X171614285Y-81084819D02*
X171233333Y-81084819D01*
X171233333Y-81084819D02*
X171138095Y-81132438D01*
X171138095Y-81132438D02*
X171090476Y-81180057D01*
X171090476Y-81180057D02*
X171042857Y-81275295D01*
X171042857Y-81275295D02*
X171042857Y-81418152D01*
X171042857Y-81418152D02*
X171090476Y-81513390D01*
X171090476Y-81513390D02*
X171138095Y-81561009D01*
X171138095Y-81561009D02*
X171233333Y-81608628D01*
X171233333Y-81608628D02*
X171614285Y-81608628D01*
X170709523Y-81084819D02*
X170042857Y-81084819D01*
X170042857Y-81084819D02*
X170471428Y-82084819D01*
X169233333Y-81084819D02*
X169423809Y-81084819D01*
X169423809Y-81084819D02*
X169519047Y-81132438D01*
X169519047Y-81132438D02*
X169566666Y-81180057D01*
X169566666Y-81180057D02*
X169661904Y-81322914D01*
X169661904Y-81322914D02*
X169709523Y-81513390D01*
X169709523Y-81513390D02*
X169709523Y-81894342D01*
X169709523Y-81894342D02*
X169661904Y-81989580D01*
X169661904Y-81989580D02*
X169614285Y-82037200D01*
X169614285Y-82037200D02*
X169519047Y-82084819D01*
X169519047Y-82084819D02*
X169328571Y-82084819D01*
X169328571Y-82084819D02*
X169233333Y-82037200D01*
X169233333Y-82037200D02*
X169185714Y-81989580D01*
X169185714Y-81989580D02*
X169138095Y-81894342D01*
X169138095Y-81894342D02*
X169138095Y-81656247D01*
X169138095Y-81656247D02*
X169185714Y-81561009D01*
X169185714Y-81561009D02*
X169233333Y-81513390D01*
X169233333Y-81513390D02*
X169328571Y-81465771D01*
X169328571Y-81465771D02*
X169519047Y-81465771D01*
X169519047Y-81465771D02*
X169614285Y-81513390D01*
X169614285Y-81513390D02*
X169661904Y-81561009D01*
X169661904Y-81561009D02*
X169709523Y-81656247D01*
X155616665Y-90859580D02*
X155664284Y-90907200D01*
X155664284Y-90907200D02*
X155807141Y-90954819D01*
X155807141Y-90954819D02*
X155902379Y-90954819D01*
X155902379Y-90954819D02*
X156045236Y-90907200D01*
X156045236Y-90907200D02*
X156140474Y-90811961D01*
X156140474Y-90811961D02*
X156188093Y-90716723D01*
X156188093Y-90716723D02*
X156235712Y-90526247D01*
X156235712Y-90526247D02*
X156235712Y-90383390D01*
X156235712Y-90383390D02*
X156188093Y-90192914D01*
X156188093Y-90192914D02*
X156140474Y-90097676D01*
X156140474Y-90097676D02*
X156045236Y-90002438D01*
X156045236Y-90002438D02*
X155902379Y-89954819D01*
X155902379Y-89954819D02*
X155807141Y-89954819D01*
X155807141Y-89954819D02*
X155664284Y-90002438D01*
X155664284Y-90002438D02*
X155616665Y-90050057D01*
X155045236Y-90383390D02*
X155140474Y-90335771D01*
X155140474Y-90335771D02*
X155188093Y-90288152D01*
X155188093Y-90288152D02*
X155235712Y-90192914D01*
X155235712Y-90192914D02*
X155235712Y-90145295D01*
X155235712Y-90145295D02*
X155188093Y-90050057D01*
X155188093Y-90050057D02*
X155140474Y-90002438D01*
X155140474Y-90002438D02*
X155045236Y-89954819D01*
X155045236Y-89954819D02*
X154854760Y-89954819D01*
X154854760Y-89954819D02*
X154759522Y-90002438D01*
X154759522Y-90002438D02*
X154711903Y-90050057D01*
X154711903Y-90050057D02*
X154664284Y-90145295D01*
X154664284Y-90145295D02*
X154664284Y-90192914D01*
X154664284Y-90192914D02*
X154711903Y-90288152D01*
X154711903Y-90288152D02*
X154759522Y-90335771D01*
X154759522Y-90335771D02*
X154854760Y-90383390D01*
X154854760Y-90383390D02*
X155045236Y-90383390D01*
X155045236Y-90383390D02*
X155140474Y-90431009D01*
X155140474Y-90431009D02*
X155188093Y-90478628D01*
X155188093Y-90478628D02*
X155235712Y-90573866D01*
X155235712Y-90573866D02*
X155235712Y-90764342D01*
X155235712Y-90764342D02*
X155188093Y-90859580D01*
X155188093Y-90859580D02*
X155140474Y-90907200D01*
X155140474Y-90907200D02*
X155045236Y-90954819D01*
X155045236Y-90954819D02*
X154854760Y-90954819D01*
X154854760Y-90954819D02*
X154759522Y-90907200D01*
X154759522Y-90907200D02*
X154711903Y-90859580D01*
X154711903Y-90859580D02*
X154664284Y-90764342D01*
X154664284Y-90764342D02*
X154664284Y-90573866D01*
X154664284Y-90573866D02*
X154711903Y-90478628D01*
X154711903Y-90478628D02*
X154759522Y-90431009D01*
X154759522Y-90431009D02*
X154854760Y-90383390D01*
X173942857Y-82754819D02*
X174276190Y-82278628D01*
X174514285Y-82754819D02*
X174514285Y-81754819D01*
X174514285Y-81754819D02*
X174133333Y-81754819D01*
X174133333Y-81754819D02*
X174038095Y-81802438D01*
X174038095Y-81802438D02*
X173990476Y-81850057D01*
X173990476Y-81850057D02*
X173942857Y-81945295D01*
X173942857Y-81945295D02*
X173942857Y-82088152D01*
X173942857Y-82088152D02*
X173990476Y-82183390D01*
X173990476Y-82183390D02*
X174038095Y-82231009D01*
X174038095Y-82231009D02*
X174133333Y-82278628D01*
X174133333Y-82278628D02*
X174514285Y-82278628D01*
X173085714Y-82088152D02*
X173085714Y-82754819D01*
X173323809Y-81707200D02*
X173561904Y-82421485D01*
X173561904Y-82421485D02*
X172942857Y-82421485D01*
X172133333Y-81754819D02*
X172323809Y-81754819D01*
X172323809Y-81754819D02*
X172419047Y-81802438D01*
X172419047Y-81802438D02*
X172466666Y-81850057D01*
X172466666Y-81850057D02*
X172561904Y-81992914D01*
X172561904Y-81992914D02*
X172609523Y-82183390D01*
X172609523Y-82183390D02*
X172609523Y-82564342D01*
X172609523Y-82564342D02*
X172561904Y-82659580D01*
X172561904Y-82659580D02*
X172514285Y-82707200D01*
X172514285Y-82707200D02*
X172419047Y-82754819D01*
X172419047Y-82754819D02*
X172228571Y-82754819D01*
X172228571Y-82754819D02*
X172133333Y-82707200D01*
X172133333Y-82707200D02*
X172085714Y-82659580D01*
X172085714Y-82659580D02*
X172038095Y-82564342D01*
X172038095Y-82564342D02*
X172038095Y-82326247D01*
X172038095Y-82326247D02*
X172085714Y-82231009D01*
X172085714Y-82231009D02*
X172133333Y-82183390D01*
X172133333Y-82183390D02*
X172228571Y-82135771D01*
X172228571Y-82135771D02*
X172419047Y-82135771D01*
X172419047Y-82135771D02*
X172514285Y-82183390D01*
X172514285Y-82183390D02*
X172561904Y-82231009D01*
X172561904Y-82231009D02*
X172609523Y-82326247D01*
X155616667Y-92209581D02*
X155664286Y-92257201D01*
X155664286Y-92257201D02*
X155807143Y-92304820D01*
X155807143Y-92304820D02*
X155902381Y-92304820D01*
X155902381Y-92304820D02*
X156045238Y-92257201D01*
X156045238Y-92257201D02*
X156140476Y-92161962D01*
X156140476Y-92161962D02*
X156188095Y-92066724D01*
X156188095Y-92066724D02*
X156235714Y-91876248D01*
X156235714Y-91876248D02*
X156235714Y-91733391D01*
X156235714Y-91733391D02*
X156188095Y-91542915D01*
X156188095Y-91542915D02*
X156140476Y-91447677D01*
X156140476Y-91447677D02*
X156045238Y-91352439D01*
X156045238Y-91352439D02*
X155902381Y-91304820D01*
X155902381Y-91304820D02*
X155807143Y-91304820D01*
X155807143Y-91304820D02*
X155664286Y-91352439D01*
X155664286Y-91352439D02*
X155616667Y-91400058D01*
X155140476Y-92304820D02*
X154950000Y-92304820D01*
X154950000Y-92304820D02*
X154854762Y-92257201D01*
X154854762Y-92257201D02*
X154807143Y-92209581D01*
X154807143Y-92209581D02*
X154711905Y-92066724D01*
X154711905Y-92066724D02*
X154664286Y-91876248D01*
X154664286Y-91876248D02*
X154664286Y-91495296D01*
X154664286Y-91495296D02*
X154711905Y-91400058D01*
X154711905Y-91400058D02*
X154759524Y-91352439D01*
X154759524Y-91352439D02*
X154854762Y-91304820D01*
X154854762Y-91304820D02*
X155045238Y-91304820D01*
X155045238Y-91304820D02*
X155140476Y-91352439D01*
X155140476Y-91352439D02*
X155188095Y-91400058D01*
X155188095Y-91400058D02*
X155235714Y-91495296D01*
X155235714Y-91495296D02*
X155235714Y-91733391D01*
X155235714Y-91733391D02*
X155188095Y-91828629D01*
X155188095Y-91828629D02*
X155140476Y-91876248D01*
X155140476Y-91876248D02*
X155045238Y-91923867D01*
X155045238Y-91923867D02*
X154854762Y-91923867D01*
X154854762Y-91923867D02*
X154759524Y-91876248D01*
X154759524Y-91876248D02*
X154711905Y-91828629D01*
X154711905Y-91828629D02*
X154664286Y-91733391D01*
X104553670Y-67089540D02*
X104452655Y-66517121D01*
X104957731Y-66685479D02*
X104250624Y-65978373D01*
X104250624Y-65978373D02*
X103981250Y-66247747D01*
X103981250Y-66247747D02*
X103947578Y-66348762D01*
X103947578Y-66348762D02*
X103947578Y-66416105D01*
X103947578Y-66416105D02*
X103981250Y-66517121D01*
X103981250Y-66517121D02*
X104082265Y-66618136D01*
X104082265Y-66618136D02*
X104183281Y-66651808D01*
X104183281Y-66651808D02*
X104250624Y-66651808D01*
X104250624Y-66651808D02*
X104351639Y-66618136D01*
X104351639Y-66618136D02*
X104621013Y-66348762D01*
X103240472Y-66988525D02*
X103375159Y-66853838D01*
X103375159Y-66853838D02*
X103476174Y-66820166D01*
X103476174Y-66820166D02*
X103543517Y-66820166D01*
X103543517Y-66820166D02*
X103711876Y-66853838D01*
X103711876Y-66853838D02*
X103880235Y-66954853D01*
X103880235Y-66954853D02*
X104149609Y-67224227D01*
X104149609Y-67224227D02*
X104183281Y-67325243D01*
X104183281Y-67325243D02*
X104183281Y-67392586D01*
X104183281Y-67392586D02*
X104149609Y-67493601D01*
X104149609Y-67493601D02*
X104014922Y-67628288D01*
X104014922Y-67628288D02*
X103913907Y-67661960D01*
X103913907Y-67661960D02*
X103846563Y-67661960D01*
X103846563Y-67661960D02*
X103745548Y-67628288D01*
X103745548Y-67628288D02*
X103577189Y-67459930D01*
X103577189Y-67459930D02*
X103543517Y-67358914D01*
X103543517Y-67358914D02*
X103543517Y-67291571D01*
X103543517Y-67291571D02*
X103577189Y-67190556D01*
X103577189Y-67190556D02*
X103711876Y-67055869D01*
X103711876Y-67055869D02*
X103812891Y-67022197D01*
X103812891Y-67022197D02*
X103880235Y-67022197D01*
X103880235Y-67022197D02*
X103981250Y-67055869D01*
X173992857Y-89204819D02*
X174326190Y-88728628D01*
X174564285Y-89204819D02*
X174564285Y-88204819D01*
X174564285Y-88204819D02*
X174183333Y-88204819D01*
X174183333Y-88204819D02*
X174088095Y-88252438D01*
X174088095Y-88252438D02*
X174040476Y-88300057D01*
X174040476Y-88300057D02*
X173992857Y-88395295D01*
X173992857Y-88395295D02*
X173992857Y-88538152D01*
X173992857Y-88538152D02*
X174040476Y-88633390D01*
X174040476Y-88633390D02*
X174088095Y-88681009D01*
X174088095Y-88681009D02*
X174183333Y-88728628D01*
X174183333Y-88728628D02*
X174564285Y-88728628D01*
X173135714Y-88538152D02*
X173135714Y-89204819D01*
X173373809Y-88157200D02*
X173611904Y-88871485D01*
X173611904Y-88871485D02*
X172992857Y-88871485D01*
X172707142Y-88204819D02*
X172040476Y-88204819D01*
X172040476Y-88204819D02*
X172469047Y-89204819D01*
X154654819Y-96507142D02*
X154178628Y-96173809D01*
X154654819Y-95935714D02*
X153654819Y-95935714D01*
X153654819Y-95935714D02*
X153654819Y-96316666D01*
X153654819Y-96316666D02*
X153702438Y-96411904D01*
X153702438Y-96411904D02*
X153750057Y-96459523D01*
X153750057Y-96459523D02*
X153845295Y-96507142D01*
X153845295Y-96507142D02*
X153988152Y-96507142D01*
X153988152Y-96507142D02*
X154083390Y-96459523D01*
X154083390Y-96459523D02*
X154131009Y-96411904D01*
X154131009Y-96411904D02*
X154178628Y-96316666D01*
X154178628Y-96316666D02*
X154178628Y-95935714D01*
X153654819Y-97411904D02*
X153654819Y-96935714D01*
X153654819Y-96935714D02*
X154131009Y-96888095D01*
X154131009Y-96888095D02*
X154083390Y-96935714D01*
X154083390Y-96935714D02*
X154035771Y-97030952D01*
X154035771Y-97030952D02*
X154035771Y-97269047D01*
X154035771Y-97269047D02*
X154083390Y-97364285D01*
X154083390Y-97364285D02*
X154131009Y-97411904D01*
X154131009Y-97411904D02*
X154226247Y-97459523D01*
X154226247Y-97459523D02*
X154464342Y-97459523D01*
X154464342Y-97459523D02*
X154559580Y-97411904D01*
X154559580Y-97411904D02*
X154607200Y-97364285D01*
X154607200Y-97364285D02*
X154654819Y-97269047D01*
X154654819Y-97269047D02*
X154654819Y-97030952D01*
X154654819Y-97030952D02*
X154607200Y-96935714D01*
X154607200Y-96935714D02*
X154559580Y-96888095D01*
X153654819Y-97792857D02*
X153654819Y-98411904D01*
X153654819Y-98411904D02*
X154035771Y-98078571D01*
X154035771Y-98078571D02*
X154035771Y-98221428D01*
X154035771Y-98221428D02*
X154083390Y-98316666D01*
X154083390Y-98316666D02*
X154131009Y-98364285D01*
X154131009Y-98364285D02*
X154226247Y-98411904D01*
X154226247Y-98411904D02*
X154464342Y-98411904D01*
X154464342Y-98411904D02*
X154559580Y-98364285D01*
X154559580Y-98364285D02*
X154607200Y-98316666D01*
X154607200Y-98316666D02*
X154654819Y-98221428D01*
X154654819Y-98221428D02*
X154654819Y-97935714D01*
X154654819Y-97935714D02*
X154607200Y-97840476D01*
X154607200Y-97840476D02*
X154559580Y-97792857D01*
X178754819Y-71861905D02*
X177754819Y-71861905D01*
X177754819Y-71861905D02*
X177754819Y-72100000D01*
X177754819Y-72100000D02*
X177802438Y-72242857D01*
X177802438Y-72242857D02*
X177897676Y-72338095D01*
X177897676Y-72338095D02*
X177992914Y-72385714D01*
X177992914Y-72385714D02*
X178183390Y-72433333D01*
X178183390Y-72433333D02*
X178326247Y-72433333D01*
X178326247Y-72433333D02*
X178516723Y-72385714D01*
X178516723Y-72385714D02*
X178611961Y-72338095D01*
X178611961Y-72338095D02*
X178707200Y-72242857D01*
X178707200Y-72242857D02*
X178754819Y-72100000D01*
X178754819Y-72100000D02*
X178754819Y-71861905D01*
X177754819Y-72766667D02*
X177754819Y-73433333D01*
X177754819Y-73433333D02*
X178754819Y-73004762D01*
X167154819Y-76357142D02*
X166678628Y-76023809D01*
X167154819Y-75785714D02*
X166154819Y-75785714D01*
X166154819Y-75785714D02*
X166154819Y-76166666D01*
X166154819Y-76166666D02*
X166202438Y-76261904D01*
X166202438Y-76261904D02*
X166250057Y-76309523D01*
X166250057Y-76309523D02*
X166345295Y-76357142D01*
X166345295Y-76357142D02*
X166488152Y-76357142D01*
X166488152Y-76357142D02*
X166583390Y-76309523D01*
X166583390Y-76309523D02*
X166631009Y-76261904D01*
X166631009Y-76261904D02*
X166678628Y-76166666D01*
X166678628Y-76166666D02*
X166678628Y-75785714D01*
X166154819Y-77214285D02*
X166154819Y-77023809D01*
X166154819Y-77023809D02*
X166202438Y-76928571D01*
X166202438Y-76928571D02*
X166250057Y-76880952D01*
X166250057Y-76880952D02*
X166392914Y-76785714D01*
X166392914Y-76785714D02*
X166583390Y-76738095D01*
X166583390Y-76738095D02*
X166964342Y-76738095D01*
X166964342Y-76738095D02*
X167059580Y-76785714D01*
X167059580Y-76785714D02*
X167107200Y-76833333D01*
X167107200Y-76833333D02*
X167154819Y-76928571D01*
X167154819Y-76928571D02*
X167154819Y-77119047D01*
X167154819Y-77119047D02*
X167107200Y-77214285D01*
X167107200Y-77214285D02*
X167059580Y-77261904D01*
X167059580Y-77261904D02*
X166964342Y-77309523D01*
X166964342Y-77309523D02*
X166726247Y-77309523D01*
X166726247Y-77309523D02*
X166631009Y-77261904D01*
X166631009Y-77261904D02*
X166583390Y-77214285D01*
X166583390Y-77214285D02*
X166535771Y-77119047D01*
X166535771Y-77119047D02*
X166535771Y-76928571D01*
X166535771Y-76928571D02*
X166583390Y-76833333D01*
X166583390Y-76833333D02*
X166631009Y-76785714D01*
X166631009Y-76785714D02*
X166726247Y-76738095D01*
X166488152Y-78166666D02*
X167154819Y-78166666D01*
X166107200Y-77928571D02*
X166821485Y-77690476D01*
X166821485Y-77690476D02*
X166821485Y-78309523D01*
X179104819Y-113085714D02*
X178104819Y-113085714D01*
X178104819Y-113085714D02*
X178104819Y-113323809D01*
X178104819Y-113323809D02*
X178152438Y-113466666D01*
X178152438Y-113466666D02*
X178247676Y-113561904D01*
X178247676Y-113561904D02*
X178342914Y-113609523D01*
X178342914Y-113609523D02*
X178533390Y-113657142D01*
X178533390Y-113657142D02*
X178676247Y-113657142D01*
X178676247Y-113657142D02*
X178866723Y-113609523D01*
X178866723Y-113609523D02*
X178961961Y-113561904D01*
X178961961Y-113561904D02*
X179057200Y-113466666D01*
X179057200Y-113466666D02*
X179104819Y-113323809D01*
X179104819Y-113323809D02*
X179104819Y-113085714D01*
X179104819Y-114609523D02*
X179104819Y-114038095D01*
X179104819Y-114323809D02*
X178104819Y-114323809D01*
X178104819Y-114323809D02*
X178247676Y-114228571D01*
X178247676Y-114228571D02*
X178342914Y-114133333D01*
X178342914Y-114133333D02*
X178390533Y-114038095D01*
X178104819Y-114942857D02*
X178104819Y-115609523D01*
X178104819Y-115609523D02*
X179104819Y-115180952D01*
X152554819Y-71557142D02*
X152078628Y-71223809D01*
X152554819Y-70985714D02*
X151554819Y-70985714D01*
X151554819Y-70985714D02*
X151554819Y-71366666D01*
X151554819Y-71366666D02*
X151602438Y-71461904D01*
X151602438Y-71461904D02*
X151650057Y-71509523D01*
X151650057Y-71509523D02*
X151745295Y-71557142D01*
X151745295Y-71557142D02*
X151888152Y-71557142D01*
X151888152Y-71557142D02*
X151983390Y-71509523D01*
X151983390Y-71509523D02*
X152031009Y-71461904D01*
X152031009Y-71461904D02*
X152078628Y-71366666D01*
X152078628Y-71366666D02*
X152078628Y-70985714D01*
X151554819Y-72461904D02*
X151554819Y-71985714D01*
X151554819Y-71985714D02*
X152031009Y-71938095D01*
X152031009Y-71938095D02*
X151983390Y-71985714D01*
X151983390Y-71985714D02*
X151935771Y-72080952D01*
X151935771Y-72080952D02*
X151935771Y-72319047D01*
X151935771Y-72319047D02*
X151983390Y-72414285D01*
X151983390Y-72414285D02*
X152031009Y-72461904D01*
X152031009Y-72461904D02*
X152126247Y-72509523D01*
X152126247Y-72509523D02*
X152364342Y-72509523D01*
X152364342Y-72509523D02*
X152459580Y-72461904D01*
X152459580Y-72461904D02*
X152507200Y-72414285D01*
X152507200Y-72414285D02*
X152554819Y-72319047D01*
X152554819Y-72319047D02*
X152554819Y-72080952D01*
X152554819Y-72080952D02*
X152507200Y-71985714D01*
X152507200Y-71985714D02*
X152459580Y-71938095D01*
X152554819Y-72985714D02*
X152554819Y-73176190D01*
X152554819Y-73176190D02*
X152507200Y-73271428D01*
X152507200Y-73271428D02*
X152459580Y-73319047D01*
X152459580Y-73319047D02*
X152316723Y-73414285D01*
X152316723Y-73414285D02*
X152126247Y-73461904D01*
X152126247Y-73461904D02*
X151745295Y-73461904D01*
X151745295Y-73461904D02*
X151650057Y-73414285D01*
X151650057Y-73414285D02*
X151602438Y-73366666D01*
X151602438Y-73366666D02*
X151554819Y-73271428D01*
X151554819Y-73271428D02*
X151554819Y-73080952D01*
X151554819Y-73080952D02*
X151602438Y-72985714D01*
X151602438Y-72985714D02*
X151650057Y-72938095D01*
X151650057Y-72938095D02*
X151745295Y-72890476D01*
X151745295Y-72890476D02*
X151983390Y-72890476D01*
X151983390Y-72890476D02*
X152078628Y-72938095D01*
X152078628Y-72938095D02*
X152126247Y-72985714D01*
X152126247Y-72985714D02*
X152173866Y-73080952D01*
X152173866Y-73080952D02*
X152173866Y-73271428D01*
X152173866Y-73271428D02*
X152126247Y-73366666D01*
X152126247Y-73366666D02*
X152078628Y-73414285D01*
X152078628Y-73414285D02*
X151983390Y-73461904D01*
X172154819Y-76357142D02*
X171678628Y-76023809D01*
X172154819Y-75785714D02*
X171154819Y-75785714D01*
X171154819Y-75785714D02*
X171154819Y-76166666D01*
X171154819Y-76166666D02*
X171202438Y-76261904D01*
X171202438Y-76261904D02*
X171250057Y-76309523D01*
X171250057Y-76309523D02*
X171345295Y-76357142D01*
X171345295Y-76357142D02*
X171488152Y-76357142D01*
X171488152Y-76357142D02*
X171583390Y-76309523D01*
X171583390Y-76309523D02*
X171631009Y-76261904D01*
X171631009Y-76261904D02*
X171678628Y-76166666D01*
X171678628Y-76166666D02*
X171678628Y-75785714D01*
X171154819Y-77214285D02*
X171154819Y-77023809D01*
X171154819Y-77023809D02*
X171202438Y-76928571D01*
X171202438Y-76928571D02*
X171250057Y-76880952D01*
X171250057Y-76880952D02*
X171392914Y-76785714D01*
X171392914Y-76785714D02*
X171583390Y-76738095D01*
X171583390Y-76738095D02*
X171964342Y-76738095D01*
X171964342Y-76738095D02*
X172059580Y-76785714D01*
X172059580Y-76785714D02*
X172107200Y-76833333D01*
X172107200Y-76833333D02*
X172154819Y-76928571D01*
X172154819Y-76928571D02*
X172154819Y-77119047D01*
X172154819Y-77119047D02*
X172107200Y-77214285D01*
X172107200Y-77214285D02*
X172059580Y-77261904D01*
X172059580Y-77261904D02*
X171964342Y-77309523D01*
X171964342Y-77309523D02*
X171726247Y-77309523D01*
X171726247Y-77309523D02*
X171631009Y-77261904D01*
X171631009Y-77261904D02*
X171583390Y-77214285D01*
X171583390Y-77214285D02*
X171535771Y-77119047D01*
X171535771Y-77119047D02*
X171535771Y-76928571D01*
X171535771Y-76928571D02*
X171583390Y-76833333D01*
X171583390Y-76833333D02*
X171631009Y-76785714D01*
X171631009Y-76785714D02*
X171726247Y-76738095D01*
X171154819Y-77928571D02*
X171154819Y-78023809D01*
X171154819Y-78023809D02*
X171202438Y-78119047D01*
X171202438Y-78119047D02*
X171250057Y-78166666D01*
X171250057Y-78166666D02*
X171345295Y-78214285D01*
X171345295Y-78214285D02*
X171535771Y-78261904D01*
X171535771Y-78261904D02*
X171773866Y-78261904D01*
X171773866Y-78261904D02*
X171964342Y-78214285D01*
X171964342Y-78214285D02*
X172059580Y-78166666D01*
X172059580Y-78166666D02*
X172107200Y-78119047D01*
X172107200Y-78119047D02*
X172154819Y-78023809D01*
X172154819Y-78023809D02*
X172154819Y-77928571D01*
X172154819Y-77928571D02*
X172107200Y-77833333D01*
X172107200Y-77833333D02*
X172059580Y-77785714D01*
X172059580Y-77785714D02*
X171964342Y-77738095D01*
X171964342Y-77738095D02*
X171773866Y-77690476D01*
X171773866Y-77690476D02*
X171535771Y-77690476D01*
X171535771Y-77690476D02*
X171345295Y-77738095D01*
X171345295Y-77738095D02*
X171250057Y-77785714D01*
X171250057Y-77785714D02*
X171202438Y-77833333D01*
X171202438Y-77833333D02*
X171154819Y-77928571D01*
X102053670Y-64589540D02*
X101952655Y-64017121D01*
X102457731Y-64185479D02*
X101750624Y-63478373D01*
X101750624Y-63478373D02*
X101481250Y-63747747D01*
X101481250Y-63747747D02*
X101447578Y-63848762D01*
X101447578Y-63848762D02*
X101447578Y-63916105D01*
X101447578Y-63916105D02*
X101481250Y-64017121D01*
X101481250Y-64017121D02*
X101582265Y-64118136D01*
X101582265Y-64118136D02*
X101683281Y-64151808D01*
X101683281Y-64151808D02*
X101750624Y-64151808D01*
X101750624Y-64151808D02*
X101851639Y-64118136D01*
X101851639Y-64118136D02*
X102121013Y-63848762D01*
X101110861Y-64118136D02*
X100673128Y-64555869D01*
X100673128Y-64555869D02*
X101178204Y-64589540D01*
X101178204Y-64589540D02*
X101077189Y-64690556D01*
X101077189Y-64690556D02*
X101043517Y-64791571D01*
X101043517Y-64791571D02*
X101043517Y-64858914D01*
X101043517Y-64858914D02*
X101077189Y-64959930D01*
X101077189Y-64959930D02*
X101245548Y-65128288D01*
X101245548Y-65128288D02*
X101346563Y-65161960D01*
X101346563Y-65161960D02*
X101413907Y-65161960D01*
X101413907Y-65161960D02*
X101514922Y-65128288D01*
X101514922Y-65128288D02*
X101716952Y-64926258D01*
X101716952Y-64926258D02*
X101750624Y-64825243D01*
X101750624Y-64825243D02*
X101750624Y-64757899D01*
X166859580Y-71557142D02*
X166907200Y-71509523D01*
X166907200Y-71509523D02*
X166954819Y-71366666D01*
X166954819Y-71366666D02*
X166954819Y-71271428D01*
X166954819Y-71271428D02*
X166907200Y-71128571D01*
X166907200Y-71128571D02*
X166811961Y-71033333D01*
X166811961Y-71033333D02*
X166716723Y-70985714D01*
X166716723Y-70985714D02*
X166526247Y-70938095D01*
X166526247Y-70938095D02*
X166383390Y-70938095D01*
X166383390Y-70938095D02*
X166192914Y-70985714D01*
X166192914Y-70985714D02*
X166097676Y-71033333D01*
X166097676Y-71033333D02*
X166002438Y-71128571D01*
X166002438Y-71128571D02*
X165954819Y-71271428D01*
X165954819Y-71271428D02*
X165954819Y-71366666D01*
X165954819Y-71366666D02*
X166002438Y-71509523D01*
X166002438Y-71509523D02*
X166050057Y-71557142D01*
X165954819Y-72461904D02*
X165954819Y-71985714D01*
X165954819Y-71985714D02*
X166431009Y-71938095D01*
X166431009Y-71938095D02*
X166383390Y-71985714D01*
X166383390Y-71985714D02*
X166335771Y-72080952D01*
X166335771Y-72080952D02*
X166335771Y-72319047D01*
X166335771Y-72319047D02*
X166383390Y-72414285D01*
X166383390Y-72414285D02*
X166431009Y-72461904D01*
X166431009Y-72461904D02*
X166526247Y-72509523D01*
X166526247Y-72509523D02*
X166764342Y-72509523D01*
X166764342Y-72509523D02*
X166859580Y-72461904D01*
X166859580Y-72461904D02*
X166907200Y-72414285D01*
X166907200Y-72414285D02*
X166954819Y-72319047D01*
X166954819Y-72319047D02*
X166954819Y-72080952D01*
X166954819Y-72080952D02*
X166907200Y-71985714D01*
X166907200Y-71985714D02*
X166859580Y-71938095D01*
X166050057Y-72890476D02*
X166002438Y-72938095D01*
X166002438Y-72938095D02*
X165954819Y-73033333D01*
X165954819Y-73033333D02*
X165954819Y-73271428D01*
X165954819Y-73271428D02*
X166002438Y-73366666D01*
X166002438Y-73366666D02*
X166050057Y-73414285D01*
X166050057Y-73414285D02*
X166145295Y-73461904D01*
X166145295Y-73461904D02*
X166240533Y-73461904D01*
X166240533Y-73461904D02*
X166383390Y-73414285D01*
X166383390Y-73414285D02*
X166954819Y-72842857D01*
X166954819Y-72842857D02*
X166954819Y-73461904D01*
X180692857Y-85054819D02*
X181026190Y-84578628D01*
X181264285Y-85054819D02*
X181264285Y-84054819D01*
X181264285Y-84054819D02*
X180883333Y-84054819D01*
X180883333Y-84054819D02*
X180788095Y-84102438D01*
X180788095Y-84102438D02*
X180740476Y-84150057D01*
X180740476Y-84150057D02*
X180692857Y-84245295D01*
X180692857Y-84245295D02*
X180692857Y-84388152D01*
X180692857Y-84388152D02*
X180740476Y-84483390D01*
X180740476Y-84483390D02*
X180788095Y-84531009D01*
X180788095Y-84531009D02*
X180883333Y-84578628D01*
X180883333Y-84578628D02*
X181264285Y-84578628D01*
X179835714Y-84388152D02*
X179835714Y-85054819D01*
X180073809Y-84007200D02*
X180311904Y-84721485D01*
X180311904Y-84721485D02*
X179692857Y-84721485D01*
X179359523Y-84150057D02*
X179311904Y-84102438D01*
X179311904Y-84102438D02*
X179216666Y-84054819D01*
X179216666Y-84054819D02*
X178978571Y-84054819D01*
X178978571Y-84054819D02*
X178883333Y-84102438D01*
X178883333Y-84102438D02*
X178835714Y-84150057D01*
X178835714Y-84150057D02*
X178788095Y-84245295D01*
X178788095Y-84245295D02*
X178788095Y-84340533D01*
X178788095Y-84340533D02*
X178835714Y-84483390D01*
X178835714Y-84483390D02*
X179407142Y-85054819D01*
X179407142Y-85054819D02*
X178788095Y-85054819D01*
X153709580Y-71557142D02*
X153757200Y-71509523D01*
X153757200Y-71509523D02*
X153804819Y-71366666D01*
X153804819Y-71366666D02*
X153804819Y-71271428D01*
X153804819Y-71271428D02*
X153757200Y-71128571D01*
X153757200Y-71128571D02*
X153661961Y-71033333D01*
X153661961Y-71033333D02*
X153566723Y-70985714D01*
X153566723Y-70985714D02*
X153376247Y-70938095D01*
X153376247Y-70938095D02*
X153233390Y-70938095D01*
X153233390Y-70938095D02*
X153042914Y-70985714D01*
X153042914Y-70985714D02*
X152947676Y-71033333D01*
X152947676Y-71033333D02*
X152852438Y-71128571D01*
X152852438Y-71128571D02*
X152804819Y-71271428D01*
X152804819Y-71271428D02*
X152804819Y-71366666D01*
X152804819Y-71366666D02*
X152852438Y-71509523D01*
X152852438Y-71509523D02*
X152900057Y-71557142D01*
X153138152Y-72414285D02*
X153804819Y-72414285D01*
X152757200Y-72176190D02*
X153471485Y-71938095D01*
X153471485Y-71938095D02*
X153471485Y-72557142D01*
X153233390Y-73080952D02*
X153185771Y-72985714D01*
X153185771Y-72985714D02*
X153138152Y-72938095D01*
X153138152Y-72938095D02*
X153042914Y-72890476D01*
X153042914Y-72890476D02*
X152995295Y-72890476D01*
X152995295Y-72890476D02*
X152900057Y-72938095D01*
X152900057Y-72938095D02*
X152852438Y-72985714D01*
X152852438Y-72985714D02*
X152804819Y-73080952D01*
X152804819Y-73080952D02*
X152804819Y-73271428D01*
X152804819Y-73271428D02*
X152852438Y-73366666D01*
X152852438Y-73366666D02*
X152900057Y-73414285D01*
X152900057Y-73414285D02*
X152995295Y-73461904D01*
X152995295Y-73461904D02*
X153042914Y-73461904D01*
X153042914Y-73461904D02*
X153138152Y-73414285D01*
X153138152Y-73414285D02*
X153185771Y-73366666D01*
X153185771Y-73366666D02*
X153233390Y-73271428D01*
X153233390Y-73271428D02*
X153233390Y-73080952D01*
X153233390Y-73080952D02*
X153281009Y-72985714D01*
X153281009Y-72985714D02*
X153328628Y-72938095D01*
X153328628Y-72938095D02*
X153423866Y-72890476D01*
X153423866Y-72890476D02*
X153614342Y-72890476D01*
X153614342Y-72890476D02*
X153709580Y-72938095D01*
X153709580Y-72938095D02*
X153757200Y-72985714D01*
X153757200Y-72985714D02*
X153804819Y-73080952D01*
X153804819Y-73080952D02*
X153804819Y-73271428D01*
X153804819Y-73271428D02*
X153757200Y-73366666D01*
X153757200Y-73366666D02*
X153709580Y-73414285D01*
X153709580Y-73414285D02*
X153614342Y-73461904D01*
X153614342Y-73461904D02*
X153423866Y-73461904D01*
X153423866Y-73461904D02*
X153328628Y-73414285D01*
X153328628Y-73414285D02*
X153281009Y-73366666D01*
X153281009Y-73366666D02*
X153233390Y-73271428D01*
X155054820Y-71557141D02*
X154578629Y-71223808D01*
X155054820Y-70985713D02*
X154054820Y-70985713D01*
X154054820Y-70985713D02*
X154054820Y-71366665D01*
X154054820Y-71366665D02*
X154102439Y-71461903D01*
X154102439Y-71461903D02*
X154150058Y-71509522D01*
X154150058Y-71509522D02*
X154245296Y-71557141D01*
X154245296Y-71557141D02*
X154388153Y-71557141D01*
X154388153Y-71557141D02*
X154483391Y-71509522D01*
X154483391Y-71509522D02*
X154531010Y-71461903D01*
X154531010Y-71461903D02*
X154578629Y-71366665D01*
X154578629Y-71366665D02*
X154578629Y-70985713D01*
X154054820Y-72461903D02*
X154054820Y-71985713D01*
X154054820Y-71985713D02*
X154531010Y-71938094D01*
X154531010Y-71938094D02*
X154483391Y-71985713D01*
X154483391Y-71985713D02*
X154435772Y-72080951D01*
X154435772Y-72080951D02*
X154435772Y-72319046D01*
X154435772Y-72319046D02*
X154483391Y-72414284D01*
X154483391Y-72414284D02*
X154531010Y-72461903D01*
X154531010Y-72461903D02*
X154626248Y-72509522D01*
X154626248Y-72509522D02*
X154864343Y-72509522D01*
X154864343Y-72509522D02*
X154959581Y-72461903D01*
X154959581Y-72461903D02*
X155007201Y-72414284D01*
X155007201Y-72414284D02*
X155054820Y-72319046D01*
X155054820Y-72319046D02*
X155054820Y-72080951D01*
X155054820Y-72080951D02*
X155007201Y-71985713D01*
X155007201Y-71985713D02*
X154959581Y-71938094D01*
X154054820Y-72842856D02*
X154054820Y-73509522D01*
X154054820Y-73509522D02*
X155054820Y-73080951D01*
X159359580Y-71557142D02*
X159407200Y-71509523D01*
X159407200Y-71509523D02*
X159454819Y-71366666D01*
X159454819Y-71366666D02*
X159454819Y-71271428D01*
X159454819Y-71271428D02*
X159407200Y-71128571D01*
X159407200Y-71128571D02*
X159311961Y-71033333D01*
X159311961Y-71033333D02*
X159216723Y-70985714D01*
X159216723Y-70985714D02*
X159026247Y-70938095D01*
X159026247Y-70938095D02*
X158883390Y-70938095D01*
X158883390Y-70938095D02*
X158692914Y-70985714D01*
X158692914Y-70985714D02*
X158597676Y-71033333D01*
X158597676Y-71033333D02*
X158502438Y-71128571D01*
X158502438Y-71128571D02*
X158454819Y-71271428D01*
X158454819Y-71271428D02*
X158454819Y-71366666D01*
X158454819Y-71366666D02*
X158502438Y-71509523D01*
X158502438Y-71509523D02*
X158550057Y-71557142D01*
X158454819Y-72461904D02*
X158454819Y-71985714D01*
X158454819Y-71985714D02*
X158931009Y-71938095D01*
X158931009Y-71938095D02*
X158883390Y-71985714D01*
X158883390Y-71985714D02*
X158835771Y-72080952D01*
X158835771Y-72080952D02*
X158835771Y-72319047D01*
X158835771Y-72319047D02*
X158883390Y-72414285D01*
X158883390Y-72414285D02*
X158931009Y-72461904D01*
X158931009Y-72461904D02*
X159026247Y-72509523D01*
X159026247Y-72509523D02*
X159264342Y-72509523D01*
X159264342Y-72509523D02*
X159359580Y-72461904D01*
X159359580Y-72461904D02*
X159407200Y-72414285D01*
X159407200Y-72414285D02*
X159454819Y-72319047D01*
X159454819Y-72319047D02*
X159454819Y-72080952D01*
X159454819Y-72080952D02*
X159407200Y-71985714D01*
X159407200Y-71985714D02*
X159359580Y-71938095D01*
X158454819Y-73414285D02*
X158454819Y-72938095D01*
X158454819Y-72938095D02*
X158931009Y-72890476D01*
X158931009Y-72890476D02*
X158883390Y-72938095D01*
X158883390Y-72938095D02*
X158835771Y-73033333D01*
X158835771Y-73033333D02*
X158835771Y-73271428D01*
X158835771Y-73271428D02*
X158883390Y-73366666D01*
X158883390Y-73366666D02*
X158931009Y-73414285D01*
X158931009Y-73414285D02*
X159026247Y-73461904D01*
X159026247Y-73461904D02*
X159264342Y-73461904D01*
X159264342Y-73461904D02*
X159359580Y-73414285D01*
X159359580Y-73414285D02*
X159407200Y-73366666D01*
X159407200Y-73366666D02*
X159454819Y-73271428D01*
X159454819Y-73271428D02*
X159454819Y-73033333D01*
X159454819Y-73033333D02*
X159407200Y-72938095D01*
X159407200Y-72938095D02*
X159359580Y-72890476D01*
X155822112Y-98786411D02*
X155889456Y-98786411D01*
X155889456Y-98786411D02*
X156024143Y-98719067D01*
X156024143Y-98719067D02*
X156091486Y-98651724D01*
X156091486Y-98651724D02*
X156158830Y-98517037D01*
X156158830Y-98517037D02*
X156158830Y-98382350D01*
X156158830Y-98382350D02*
X156125158Y-98281335D01*
X156125158Y-98281335D02*
X156024143Y-98112976D01*
X156024143Y-98112976D02*
X155923128Y-98011961D01*
X155923128Y-98011961D02*
X155754769Y-97910945D01*
X155754769Y-97910945D02*
X155653754Y-97877274D01*
X155653754Y-97877274D02*
X155519067Y-97877274D01*
X155519067Y-97877274D02*
X155384380Y-97944617D01*
X155384380Y-97944617D02*
X155317036Y-98011961D01*
X155317036Y-98011961D02*
X155249693Y-98146648D01*
X155249693Y-98146648D02*
X155249693Y-98213991D01*
X154811960Y-98988441D02*
X155283364Y-99459846D01*
X154710945Y-98550709D02*
X155384380Y-98887426D01*
X155384380Y-98887426D02*
X154946647Y-99325159D01*
X157180615Y-96839160D02*
X157517333Y-97175878D01*
X157045928Y-96233069D02*
X157180615Y-96839160D01*
X157180615Y-96839160D02*
X156574524Y-96704473D01*
X156439837Y-96973847D02*
X156372493Y-96973847D01*
X156372493Y-96973847D02*
X156271478Y-97007519D01*
X156271478Y-97007519D02*
X156103119Y-97175878D01*
X156103119Y-97175878D02*
X156069447Y-97276893D01*
X156069447Y-97276893D02*
X156069447Y-97344236D01*
X156069447Y-97344236D02*
X156103119Y-97445252D01*
X156103119Y-97445252D02*
X156170463Y-97512595D01*
X156170463Y-97512595D02*
X156305150Y-97579939D01*
X156305150Y-97579939D02*
X157113272Y-97579939D01*
X157113272Y-97579939D02*
X156675539Y-98017671D01*
X176792857Y-86954819D02*
X177126190Y-86478628D01*
X177364285Y-86954819D02*
X177364285Y-85954819D01*
X177364285Y-85954819D02*
X176983333Y-85954819D01*
X176983333Y-85954819D02*
X176888095Y-86002438D01*
X176888095Y-86002438D02*
X176840476Y-86050057D01*
X176840476Y-86050057D02*
X176792857Y-86145295D01*
X176792857Y-86145295D02*
X176792857Y-86288152D01*
X176792857Y-86288152D02*
X176840476Y-86383390D01*
X176840476Y-86383390D02*
X176888095Y-86431009D01*
X176888095Y-86431009D02*
X176983333Y-86478628D01*
X176983333Y-86478628D02*
X177364285Y-86478628D01*
X175935714Y-86288152D02*
X175935714Y-86954819D01*
X176173809Y-85907200D02*
X176411904Y-86621485D01*
X176411904Y-86621485D02*
X175792857Y-86621485D01*
X175269047Y-86383390D02*
X175364285Y-86335771D01*
X175364285Y-86335771D02*
X175411904Y-86288152D01*
X175411904Y-86288152D02*
X175459523Y-86192914D01*
X175459523Y-86192914D02*
X175459523Y-86145295D01*
X175459523Y-86145295D02*
X175411904Y-86050057D01*
X175411904Y-86050057D02*
X175364285Y-86002438D01*
X175364285Y-86002438D02*
X175269047Y-85954819D01*
X175269047Y-85954819D02*
X175078571Y-85954819D01*
X175078571Y-85954819D02*
X174983333Y-86002438D01*
X174983333Y-86002438D02*
X174935714Y-86050057D01*
X174935714Y-86050057D02*
X174888095Y-86145295D01*
X174888095Y-86145295D02*
X174888095Y-86192914D01*
X174888095Y-86192914D02*
X174935714Y-86288152D01*
X174935714Y-86288152D02*
X174983333Y-86335771D01*
X174983333Y-86335771D02*
X175078571Y-86383390D01*
X175078571Y-86383390D02*
X175269047Y-86383390D01*
X175269047Y-86383390D02*
X175364285Y-86431009D01*
X175364285Y-86431009D02*
X175411904Y-86478628D01*
X175411904Y-86478628D02*
X175459523Y-86573866D01*
X175459523Y-86573866D02*
X175459523Y-86764342D01*
X175459523Y-86764342D02*
X175411904Y-86859580D01*
X175411904Y-86859580D02*
X175364285Y-86907200D01*
X175364285Y-86907200D02*
X175269047Y-86954819D01*
X175269047Y-86954819D02*
X175078571Y-86954819D01*
X175078571Y-86954819D02*
X174983333Y-86907200D01*
X174983333Y-86907200D02*
X174935714Y-86859580D01*
X174935714Y-86859580D02*
X174888095Y-86764342D01*
X174888095Y-86764342D02*
X174888095Y-86573866D01*
X174888095Y-86573866D02*
X174935714Y-86478628D01*
X174935714Y-86478628D02*
X174983333Y-86431009D01*
X174983333Y-86431009D02*
X175078571Y-86383390D01*
X155616666Y-93459580D02*
X155664285Y-93507200D01*
X155664285Y-93507200D02*
X155807142Y-93554819D01*
X155807142Y-93554819D02*
X155902380Y-93554819D01*
X155902380Y-93554819D02*
X156045237Y-93507200D01*
X156045237Y-93507200D02*
X156140475Y-93411961D01*
X156140475Y-93411961D02*
X156188094Y-93316723D01*
X156188094Y-93316723D02*
X156235713Y-93126247D01*
X156235713Y-93126247D02*
X156235713Y-92983390D01*
X156235713Y-92983390D02*
X156188094Y-92792914D01*
X156188094Y-92792914D02*
X156140475Y-92697676D01*
X156140475Y-92697676D02*
X156045237Y-92602438D01*
X156045237Y-92602438D02*
X155902380Y-92554819D01*
X155902380Y-92554819D02*
X155807142Y-92554819D01*
X155807142Y-92554819D02*
X155664285Y-92602438D01*
X155664285Y-92602438D02*
X155616666Y-92650057D01*
X155283332Y-92554819D02*
X154616666Y-92554819D01*
X154616666Y-92554819D02*
X155045237Y-93554819D01*
X166961904Y-96404819D02*
X166961904Y-97214342D01*
X166961904Y-97214342D02*
X166914285Y-97309580D01*
X166914285Y-97309580D02*
X166866666Y-97357200D01*
X166866666Y-97357200D02*
X166771428Y-97404819D01*
X166771428Y-97404819D02*
X166580952Y-97404819D01*
X166580952Y-97404819D02*
X166485714Y-97357200D01*
X166485714Y-97357200D02*
X166438095Y-97309580D01*
X166438095Y-97309580D02*
X166390476Y-97214342D01*
X166390476Y-97214342D02*
X166390476Y-96404819D01*
X166009523Y-96404819D02*
X165390476Y-96404819D01*
X165390476Y-96404819D02*
X165723809Y-96785771D01*
X165723809Y-96785771D02*
X165580952Y-96785771D01*
X165580952Y-96785771D02*
X165485714Y-96833390D01*
X165485714Y-96833390D02*
X165438095Y-96881009D01*
X165438095Y-96881009D02*
X165390476Y-96976247D01*
X165390476Y-96976247D02*
X165390476Y-97214342D01*
X165390476Y-97214342D02*
X165438095Y-97309580D01*
X165438095Y-97309580D02*
X165485714Y-97357200D01*
X165485714Y-97357200D02*
X165580952Y-97404819D01*
X165580952Y-97404819D02*
X165866666Y-97404819D01*
X165866666Y-97404819D02*
X165961904Y-97357200D01*
X165961904Y-97357200D02*
X166009523Y-97309580D01*
X171192857Y-86004819D02*
X171526190Y-85528628D01*
X171764285Y-86004819D02*
X171764285Y-85004819D01*
X171764285Y-85004819D02*
X171383333Y-85004819D01*
X171383333Y-85004819D02*
X171288095Y-85052438D01*
X171288095Y-85052438D02*
X171240476Y-85100057D01*
X171240476Y-85100057D02*
X171192857Y-85195295D01*
X171192857Y-85195295D02*
X171192857Y-85338152D01*
X171192857Y-85338152D02*
X171240476Y-85433390D01*
X171240476Y-85433390D02*
X171288095Y-85481009D01*
X171288095Y-85481009D02*
X171383333Y-85528628D01*
X171383333Y-85528628D02*
X171764285Y-85528628D01*
X170335714Y-85338152D02*
X170335714Y-86004819D01*
X170573809Y-84957200D02*
X170811904Y-85671485D01*
X170811904Y-85671485D02*
X170192857Y-85671485D01*
X169907142Y-85004819D02*
X169288095Y-85004819D01*
X169288095Y-85004819D02*
X169621428Y-85385771D01*
X169621428Y-85385771D02*
X169478571Y-85385771D01*
X169478571Y-85385771D02*
X169383333Y-85433390D01*
X169383333Y-85433390D02*
X169335714Y-85481009D01*
X169335714Y-85481009D02*
X169288095Y-85576247D01*
X169288095Y-85576247D02*
X169288095Y-85814342D01*
X169288095Y-85814342D02*
X169335714Y-85909580D01*
X169335714Y-85909580D02*
X169383333Y-85957200D01*
X169383333Y-85957200D02*
X169478571Y-86004819D01*
X169478571Y-86004819D02*
X169764285Y-86004819D01*
X169764285Y-86004819D02*
X169859523Y-85957200D01*
X169859523Y-85957200D02*
X169907142Y-85909580D01*
X152154819Y-96507142D02*
X151678628Y-96173809D01*
X152154819Y-95935714D02*
X151154819Y-95935714D01*
X151154819Y-95935714D02*
X151154819Y-96316666D01*
X151154819Y-96316666D02*
X151202438Y-96411904D01*
X151202438Y-96411904D02*
X151250057Y-96459523D01*
X151250057Y-96459523D02*
X151345295Y-96507142D01*
X151345295Y-96507142D02*
X151488152Y-96507142D01*
X151488152Y-96507142D02*
X151583390Y-96459523D01*
X151583390Y-96459523D02*
X151631009Y-96411904D01*
X151631009Y-96411904D02*
X151678628Y-96316666D01*
X151678628Y-96316666D02*
X151678628Y-95935714D01*
X151154819Y-97411904D02*
X151154819Y-96935714D01*
X151154819Y-96935714D02*
X151631009Y-96888095D01*
X151631009Y-96888095D02*
X151583390Y-96935714D01*
X151583390Y-96935714D02*
X151535771Y-97030952D01*
X151535771Y-97030952D02*
X151535771Y-97269047D01*
X151535771Y-97269047D02*
X151583390Y-97364285D01*
X151583390Y-97364285D02*
X151631009Y-97411904D01*
X151631009Y-97411904D02*
X151726247Y-97459523D01*
X151726247Y-97459523D02*
X151964342Y-97459523D01*
X151964342Y-97459523D02*
X152059580Y-97411904D01*
X152059580Y-97411904D02*
X152107200Y-97364285D01*
X152107200Y-97364285D02*
X152154819Y-97269047D01*
X152154819Y-97269047D02*
X152154819Y-97030952D01*
X152154819Y-97030952D02*
X152107200Y-96935714D01*
X152107200Y-96935714D02*
X152059580Y-96888095D01*
X152154819Y-98411904D02*
X152154819Y-97840476D01*
X152154819Y-98126190D02*
X151154819Y-98126190D01*
X151154819Y-98126190D02*
X151297676Y-98030952D01*
X151297676Y-98030952D02*
X151392914Y-97935714D01*
X151392914Y-97935714D02*
X151440533Y-97840476D01*
X154063588Y-89222112D02*
X154063588Y-89289456D01*
X154063588Y-89289456D02*
X154130932Y-89424143D01*
X154130932Y-89424143D02*
X154198275Y-89491486D01*
X154198275Y-89491486D02*
X154332962Y-89558830D01*
X154332962Y-89558830D02*
X154467649Y-89558830D01*
X154467649Y-89558830D02*
X154568664Y-89525158D01*
X154568664Y-89525158D02*
X154737023Y-89424143D01*
X154737023Y-89424143D02*
X154838038Y-89323128D01*
X154838038Y-89323128D02*
X154939054Y-89154769D01*
X154939054Y-89154769D02*
X154972725Y-89053754D01*
X154972725Y-89053754D02*
X154972725Y-88919067D01*
X154972725Y-88919067D02*
X154905382Y-88784380D01*
X154905382Y-88784380D02*
X154838038Y-88717036D01*
X154838038Y-88717036D02*
X154703351Y-88649693D01*
X154703351Y-88649693D02*
X154636008Y-88649693D01*
X153322810Y-88616021D02*
X153726871Y-89020082D01*
X153524840Y-88818051D02*
X154231947Y-88110945D01*
X154231947Y-88110945D02*
X154198275Y-88279303D01*
X154198275Y-88279303D02*
X154198275Y-88413990D01*
X154198275Y-88413990D02*
X154231947Y-88515006D01*
X164359580Y-71547142D02*
X164407200Y-71499523D01*
X164407200Y-71499523D02*
X164454819Y-71356666D01*
X164454819Y-71356666D02*
X164454819Y-71261428D01*
X164454819Y-71261428D02*
X164407200Y-71118571D01*
X164407200Y-71118571D02*
X164311961Y-71023333D01*
X164311961Y-71023333D02*
X164216723Y-70975714D01*
X164216723Y-70975714D02*
X164026247Y-70928095D01*
X164026247Y-70928095D02*
X163883390Y-70928095D01*
X163883390Y-70928095D02*
X163692914Y-70975714D01*
X163692914Y-70975714D02*
X163597676Y-71023333D01*
X163597676Y-71023333D02*
X163502438Y-71118571D01*
X163502438Y-71118571D02*
X163454819Y-71261428D01*
X163454819Y-71261428D02*
X163454819Y-71356666D01*
X163454819Y-71356666D02*
X163502438Y-71499523D01*
X163502438Y-71499523D02*
X163550057Y-71547142D01*
X163454819Y-72451904D02*
X163454819Y-71975714D01*
X163454819Y-71975714D02*
X163931009Y-71928095D01*
X163931009Y-71928095D02*
X163883390Y-71975714D01*
X163883390Y-71975714D02*
X163835771Y-72070952D01*
X163835771Y-72070952D02*
X163835771Y-72309047D01*
X163835771Y-72309047D02*
X163883390Y-72404285D01*
X163883390Y-72404285D02*
X163931009Y-72451904D01*
X163931009Y-72451904D02*
X164026247Y-72499523D01*
X164026247Y-72499523D02*
X164264342Y-72499523D01*
X164264342Y-72499523D02*
X164359580Y-72451904D01*
X164359580Y-72451904D02*
X164407200Y-72404285D01*
X164407200Y-72404285D02*
X164454819Y-72309047D01*
X164454819Y-72309047D02*
X164454819Y-72070952D01*
X164454819Y-72070952D02*
X164407200Y-71975714D01*
X164407200Y-71975714D02*
X164359580Y-71928095D01*
X163454819Y-72832857D02*
X163454819Y-73451904D01*
X163454819Y-73451904D02*
X163835771Y-73118571D01*
X163835771Y-73118571D02*
X163835771Y-73261428D01*
X163835771Y-73261428D02*
X163883390Y-73356666D01*
X163883390Y-73356666D02*
X163931009Y-73404285D01*
X163931009Y-73404285D02*
X164026247Y-73451904D01*
X164026247Y-73451904D02*
X164264342Y-73451904D01*
X164264342Y-73451904D02*
X164359580Y-73404285D01*
X164359580Y-73404285D02*
X164407200Y-73356666D01*
X164407200Y-73356666D02*
X164454819Y-73261428D01*
X164454819Y-73261428D02*
X164454819Y-72975714D01*
X164454819Y-72975714D02*
X164407200Y-72880476D01*
X164407200Y-72880476D02*
X164359580Y-72832857D01*
X156700791Y-99625499D02*
X156768135Y-99625499D01*
X156768135Y-99625499D02*
X156902822Y-99558155D01*
X156902822Y-99558155D02*
X156970165Y-99490812D01*
X156970165Y-99490812D02*
X157037509Y-99356125D01*
X157037509Y-99356125D02*
X157037509Y-99221438D01*
X157037509Y-99221438D02*
X157003837Y-99120423D01*
X157003837Y-99120423D02*
X156902822Y-98952064D01*
X156902822Y-98952064D02*
X156801807Y-98851049D01*
X156801807Y-98851049D02*
X156633448Y-98750033D01*
X156633448Y-98750033D02*
X156532433Y-98716362D01*
X156532433Y-98716362D02*
X156397746Y-98716362D01*
X156397746Y-98716362D02*
X156263059Y-98783705D01*
X156263059Y-98783705D02*
X156195715Y-98851049D01*
X156195715Y-98851049D02*
X156128372Y-98985736D01*
X156128372Y-98985736D02*
X156128372Y-99053079D01*
X155858998Y-99322453D02*
X155791654Y-99322453D01*
X155791654Y-99322453D02*
X155690639Y-99356125D01*
X155690639Y-99356125D02*
X155522280Y-99524484D01*
X155522280Y-99524484D02*
X155488608Y-99625499D01*
X155488608Y-99625499D02*
X155488608Y-99692842D01*
X155488608Y-99692842D02*
X155522280Y-99793858D01*
X155522280Y-99793858D02*
X155589624Y-99861201D01*
X155589624Y-99861201D02*
X155724311Y-99928545D01*
X155724311Y-99928545D02*
X156532433Y-99928545D01*
X156532433Y-99928545D02*
X156094700Y-100366277D01*
X159654819Y-76357142D02*
X159178628Y-76023809D01*
X159654819Y-75785714D02*
X158654819Y-75785714D01*
X158654819Y-75785714D02*
X158654819Y-76166666D01*
X158654819Y-76166666D02*
X158702438Y-76261904D01*
X158702438Y-76261904D02*
X158750057Y-76309523D01*
X158750057Y-76309523D02*
X158845295Y-76357142D01*
X158845295Y-76357142D02*
X158988152Y-76357142D01*
X158988152Y-76357142D02*
X159083390Y-76309523D01*
X159083390Y-76309523D02*
X159131009Y-76261904D01*
X159131009Y-76261904D02*
X159178628Y-76166666D01*
X159178628Y-76166666D02*
X159178628Y-75785714D01*
X158654819Y-77214285D02*
X158654819Y-77023809D01*
X158654819Y-77023809D02*
X158702438Y-76928571D01*
X158702438Y-76928571D02*
X158750057Y-76880952D01*
X158750057Y-76880952D02*
X158892914Y-76785714D01*
X158892914Y-76785714D02*
X159083390Y-76738095D01*
X159083390Y-76738095D02*
X159464342Y-76738095D01*
X159464342Y-76738095D02*
X159559580Y-76785714D01*
X159559580Y-76785714D02*
X159607200Y-76833333D01*
X159607200Y-76833333D02*
X159654819Y-76928571D01*
X159654819Y-76928571D02*
X159654819Y-77119047D01*
X159654819Y-77119047D02*
X159607200Y-77214285D01*
X159607200Y-77214285D02*
X159559580Y-77261904D01*
X159559580Y-77261904D02*
X159464342Y-77309523D01*
X159464342Y-77309523D02*
X159226247Y-77309523D01*
X159226247Y-77309523D02*
X159131009Y-77261904D01*
X159131009Y-77261904D02*
X159083390Y-77214285D01*
X159083390Y-77214285D02*
X159035771Y-77119047D01*
X159035771Y-77119047D02*
X159035771Y-76928571D01*
X159035771Y-76928571D02*
X159083390Y-76833333D01*
X159083390Y-76833333D02*
X159131009Y-76785714D01*
X159131009Y-76785714D02*
X159226247Y-76738095D01*
X159083390Y-77880952D02*
X159035771Y-77785714D01*
X159035771Y-77785714D02*
X158988152Y-77738095D01*
X158988152Y-77738095D02*
X158892914Y-77690476D01*
X158892914Y-77690476D02*
X158845295Y-77690476D01*
X158845295Y-77690476D02*
X158750057Y-77738095D01*
X158750057Y-77738095D02*
X158702438Y-77785714D01*
X158702438Y-77785714D02*
X158654819Y-77880952D01*
X158654819Y-77880952D02*
X158654819Y-78071428D01*
X158654819Y-78071428D02*
X158702438Y-78166666D01*
X158702438Y-78166666D02*
X158750057Y-78214285D01*
X158750057Y-78214285D02*
X158845295Y-78261904D01*
X158845295Y-78261904D02*
X158892914Y-78261904D01*
X158892914Y-78261904D02*
X158988152Y-78214285D01*
X158988152Y-78214285D02*
X159035771Y-78166666D01*
X159035771Y-78166666D02*
X159083390Y-78071428D01*
X159083390Y-78071428D02*
X159083390Y-77880952D01*
X159083390Y-77880952D02*
X159131009Y-77785714D01*
X159131009Y-77785714D02*
X159178628Y-77738095D01*
X159178628Y-77738095D02*
X159273866Y-77690476D01*
X159273866Y-77690476D02*
X159464342Y-77690476D01*
X159464342Y-77690476D02*
X159559580Y-77738095D01*
X159559580Y-77738095D02*
X159607200Y-77785714D01*
X159607200Y-77785714D02*
X159654819Y-77880952D01*
X159654819Y-77880952D02*
X159654819Y-78071428D01*
X159654819Y-78071428D02*
X159607200Y-78166666D01*
X159607200Y-78166666D02*
X159559580Y-78214285D01*
X159559580Y-78214285D02*
X159464342Y-78261904D01*
X159464342Y-78261904D02*
X159273866Y-78261904D01*
X159273866Y-78261904D02*
X159178628Y-78214285D01*
X159178628Y-78214285D02*
X159131009Y-78166666D01*
X159131009Y-78166666D02*
X159083390Y-78071428D01*
X173054818Y-98557142D02*
X172578627Y-98223809D01*
X173054818Y-97985714D02*
X172054818Y-97985714D01*
X172054818Y-97985714D02*
X172054818Y-98366666D01*
X172054818Y-98366666D02*
X172102437Y-98461904D01*
X172102437Y-98461904D02*
X172150056Y-98509523D01*
X172150056Y-98509523D02*
X172245294Y-98557142D01*
X172245294Y-98557142D02*
X172388151Y-98557142D01*
X172388151Y-98557142D02*
X172483389Y-98509523D01*
X172483389Y-98509523D02*
X172531008Y-98461904D01*
X172531008Y-98461904D02*
X172578627Y-98366666D01*
X172578627Y-98366666D02*
X172578627Y-97985714D01*
X172150056Y-98938095D02*
X172102437Y-98985714D01*
X172102437Y-98985714D02*
X172054818Y-99080952D01*
X172054818Y-99080952D02*
X172054818Y-99319047D01*
X172054818Y-99319047D02*
X172102437Y-99414285D01*
X172102437Y-99414285D02*
X172150056Y-99461904D01*
X172150056Y-99461904D02*
X172245294Y-99509523D01*
X172245294Y-99509523D02*
X172340532Y-99509523D01*
X172340532Y-99509523D02*
X172483389Y-99461904D01*
X172483389Y-99461904D02*
X173054818Y-98890476D01*
X173054818Y-98890476D02*
X173054818Y-99509523D01*
X172150056Y-99890476D02*
X172102437Y-99938095D01*
X172102437Y-99938095D02*
X172054818Y-100033333D01*
X172054818Y-100033333D02*
X172054818Y-100271428D01*
X172054818Y-100271428D02*
X172102437Y-100366666D01*
X172102437Y-100366666D02*
X172150056Y-100414285D01*
X172150056Y-100414285D02*
X172245294Y-100461904D01*
X172245294Y-100461904D02*
X172340532Y-100461904D01*
X172340532Y-100461904D02*
X172483389Y-100414285D01*
X172483389Y-100414285D02*
X173054818Y-99842857D01*
X173054818Y-99842857D02*
X173054818Y-100461904D01*
X150804819Y-91557142D02*
X150328628Y-91223809D01*
X150804819Y-90985714D02*
X149804819Y-90985714D01*
X149804819Y-90985714D02*
X149804819Y-91366666D01*
X149804819Y-91366666D02*
X149852438Y-91461904D01*
X149852438Y-91461904D02*
X149900057Y-91509523D01*
X149900057Y-91509523D02*
X149995295Y-91557142D01*
X149995295Y-91557142D02*
X150138152Y-91557142D01*
X150138152Y-91557142D02*
X150233390Y-91509523D01*
X150233390Y-91509523D02*
X150281009Y-91461904D01*
X150281009Y-91461904D02*
X150328628Y-91366666D01*
X150328628Y-91366666D02*
X150328628Y-90985714D01*
X149804819Y-92461904D02*
X149804819Y-91985714D01*
X149804819Y-91985714D02*
X150281009Y-91938095D01*
X150281009Y-91938095D02*
X150233390Y-91985714D01*
X150233390Y-91985714D02*
X150185771Y-92080952D01*
X150185771Y-92080952D02*
X150185771Y-92319047D01*
X150185771Y-92319047D02*
X150233390Y-92414285D01*
X150233390Y-92414285D02*
X150281009Y-92461904D01*
X150281009Y-92461904D02*
X150376247Y-92509523D01*
X150376247Y-92509523D02*
X150614342Y-92509523D01*
X150614342Y-92509523D02*
X150709580Y-92461904D01*
X150709580Y-92461904D02*
X150757200Y-92414285D01*
X150757200Y-92414285D02*
X150804819Y-92319047D01*
X150804819Y-92319047D02*
X150804819Y-92080952D01*
X150804819Y-92080952D02*
X150757200Y-91985714D01*
X150757200Y-91985714D02*
X150709580Y-91938095D01*
X149804819Y-93128571D02*
X149804819Y-93223809D01*
X149804819Y-93223809D02*
X149852438Y-93319047D01*
X149852438Y-93319047D02*
X149900057Y-93366666D01*
X149900057Y-93366666D02*
X149995295Y-93414285D01*
X149995295Y-93414285D02*
X150185771Y-93461904D01*
X150185771Y-93461904D02*
X150423866Y-93461904D01*
X150423866Y-93461904D02*
X150614342Y-93414285D01*
X150614342Y-93414285D02*
X150709580Y-93366666D01*
X150709580Y-93366666D02*
X150757200Y-93319047D01*
X150757200Y-93319047D02*
X150804819Y-93223809D01*
X150804819Y-93223809D02*
X150804819Y-93128571D01*
X150804819Y-93128571D02*
X150757200Y-93033333D01*
X150757200Y-93033333D02*
X150709580Y-92985714D01*
X150709580Y-92985714D02*
X150614342Y-92938095D01*
X150614342Y-92938095D02*
X150423866Y-92890476D01*
X150423866Y-92890476D02*
X150185771Y-92890476D01*
X150185771Y-92890476D02*
X149995295Y-92938095D01*
X149995295Y-92938095D02*
X149900057Y-92985714D01*
X149900057Y-92985714D02*
X149852438Y-93033333D01*
X149852438Y-93033333D02*
X149804819Y-93128571D01*
X168204819Y-71557142D02*
X167728628Y-71223809D01*
X168204819Y-70985714D02*
X167204819Y-70985714D01*
X167204819Y-70985714D02*
X167204819Y-71366666D01*
X167204819Y-71366666D02*
X167252438Y-71461904D01*
X167252438Y-71461904D02*
X167300057Y-71509523D01*
X167300057Y-71509523D02*
X167395295Y-71557142D01*
X167395295Y-71557142D02*
X167538152Y-71557142D01*
X167538152Y-71557142D02*
X167633390Y-71509523D01*
X167633390Y-71509523D02*
X167681009Y-71461904D01*
X167681009Y-71461904D02*
X167728628Y-71366666D01*
X167728628Y-71366666D02*
X167728628Y-70985714D01*
X167204819Y-72414285D02*
X167204819Y-72223809D01*
X167204819Y-72223809D02*
X167252438Y-72128571D01*
X167252438Y-72128571D02*
X167300057Y-72080952D01*
X167300057Y-72080952D02*
X167442914Y-71985714D01*
X167442914Y-71985714D02*
X167633390Y-71938095D01*
X167633390Y-71938095D02*
X168014342Y-71938095D01*
X168014342Y-71938095D02*
X168109580Y-71985714D01*
X168109580Y-71985714D02*
X168157200Y-72033333D01*
X168157200Y-72033333D02*
X168204819Y-72128571D01*
X168204819Y-72128571D02*
X168204819Y-72319047D01*
X168204819Y-72319047D02*
X168157200Y-72414285D01*
X168157200Y-72414285D02*
X168109580Y-72461904D01*
X168109580Y-72461904D02*
X168014342Y-72509523D01*
X168014342Y-72509523D02*
X167776247Y-72509523D01*
X167776247Y-72509523D02*
X167681009Y-72461904D01*
X167681009Y-72461904D02*
X167633390Y-72414285D01*
X167633390Y-72414285D02*
X167585771Y-72319047D01*
X167585771Y-72319047D02*
X167585771Y-72128571D01*
X167585771Y-72128571D02*
X167633390Y-72033333D01*
X167633390Y-72033333D02*
X167681009Y-71985714D01*
X167681009Y-71985714D02*
X167776247Y-71938095D01*
X167204819Y-72842857D02*
X167204819Y-73461904D01*
X167204819Y-73461904D02*
X167585771Y-73128571D01*
X167585771Y-73128571D02*
X167585771Y-73271428D01*
X167585771Y-73271428D02*
X167633390Y-73366666D01*
X167633390Y-73366666D02*
X167681009Y-73414285D01*
X167681009Y-73414285D02*
X167776247Y-73461904D01*
X167776247Y-73461904D02*
X168014342Y-73461904D01*
X168014342Y-73461904D02*
X168109580Y-73414285D01*
X168109580Y-73414285D02*
X168157200Y-73366666D01*
X168157200Y-73366666D02*
X168204819Y-73271428D01*
X168204819Y-73271428D02*
X168204819Y-72985714D01*
X168204819Y-72985714D02*
X168157200Y-72890476D01*
X168157200Y-72890476D02*
X168109580Y-72842857D01*
X162154819Y-76357142D02*
X161678628Y-76023809D01*
X162154819Y-75785714D02*
X161154819Y-75785714D01*
X161154819Y-75785714D02*
X161154819Y-76166666D01*
X161154819Y-76166666D02*
X161202438Y-76261904D01*
X161202438Y-76261904D02*
X161250057Y-76309523D01*
X161250057Y-76309523D02*
X161345295Y-76357142D01*
X161345295Y-76357142D02*
X161488152Y-76357142D01*
X161488152Y-76357142D02*
X161583390Y-76309523D01*
X161583390Y-76309523D02*
X161631009Y-76261904D01*
X161631009Y-76261904D02*
X161678628Y-76166666D01*
X161678628Y-76166666D02*
X161678628Y-75785714D01*
X161154819Y-76690476D02*
X161154819Y-77357142D01*
X161154819Y-77357142D02*
X162154819Y-76928571D01*
X161154819Y-77928571D02*
X161154819Y-78023809D01*
X161154819Y-78023809D02*
X161202438Y-78119047D01*
X161202438Y-78119047D02*
X161250057Y-78166666D01*
X161250057Y-78166666D02*
X161345295Y-78214285D01*
X161345295Y-78214285D02*
X161535771Y-78261904D01*
X161535771Y-78261904D02*
X161773866Y-78261904D01*
X161773866Y-78261904D02*
X161964342Y-78214285D01*
X161964342Y-78214285D02*
X162059580Y-78166666D01*
X162059580Y-78166666D02*
X162107200Y-78119047D01*
X162107200Y-78119047D02*
X162154819Y-78023809D01*
X162154819Y-78023809D02*
X162154819Y-77928571D01*
X162154819Y-77928571D02*
X162107200Y-77833333D01*
X162107200Y-77833333D02*
X162059580Y-77785714D01*
X162059580Y-77785714D02*
X161964342Y-77738095D01*
X161964342Y-77738095D02*
X161773866Y-77690476D01*
X161773866Y-77690476D02*
X161535771Y-77690476D01*
X161535771Y-77690476D02*
X161345295Y-77738095D01*
X161345295Y-77738095D02*
X161250057Y-77785714D01*
X161250057Y-77785714D02*
X161202438Y-77833333D01*
X161202438Y-77833333D02*
X161154819Y-77928571D01*
X157124819Y-76357142D02*
X156648628Y-76023809D01*
X157124819Y-75785714D02*
X156124819Y-75785714D01*
X156124819Y-75785714D02*
X156124819Y-76166666D01*
X156124819Y-76166666D02*
X156172438Y-76261904D01*
X156172438Y-76261904D02*
X156220057Y-76309523D01*
X156220057Y-76309523D02*
X156315295Y-76357142D01*
X156315295Y-76357142D02*
X156458152Y-76357142D01*
X156458152Y-76357142D02*
X156553390Y-76309523D01*
X156553390Y-76309523D02*
X156601009Y-76261904D01*
X156601009Y-76261904D02*
X156648628Y-76166666D01*
X156648628Y-76166666D02*
X156648628Y-75785714D01*
X156220057Y-76738095D02*
X156172438Y-76785714D01*
X156172438Y-76785714D02*
X156124819Y-76880952D01*
X156124819Y-76880952D02*
X156124819Y-77119047D01*
X156124819Y-77119047D02*
X156172438Y-77214285D01*
X156172438Y-77214285D02*
X156220057Y-77261904D01*
X156220057Y-77261904D02*
X156315295Y-77309523D01*
X156315295Y-77309523D02*
X156410533Y-77309523D01*
X156410533Y-77309523D02*
X156553390Y-77261904D01*
X156553390Y-77261904D02*
X157124819Y-76690476D01*
X157124819Y-76690476D02*
X157124819Y-77309523D01*
X156553390Y-77880952D02*
X156505771Y-77785714D01*
X156505771Y-77785714D02*
X156458152Y-77738095D01*
X156458152Y-77738095D02*
X156362914Y-77690476D01*
X156362914Y-77690476D02*
X156315295Y-77690476D01*
X156315295Y-77690476D02*
X156220057Y-77738095D01*
X156220057Y-77738095D02*
X156172438Y-77785714D01*
X156172438Y-77785714D02*
X156124819Y-77880952D01*
X156124819Y-77880952D02*
X156124819Y-78071428D01*
X156124819Y-78071428D02*
X156172438Y-78166666D01*
X156172438Y-78166666D02*
X156220057Y-78214285D01*
X156220057Y-78214285D02*
X156315295Y-78261904D01*
X156315295Y-78261904D02*
X156362914Y-78261904D01*
X156362914Y-78261904D02*
X156458152Y-78214285D01*
X156458152Y-78214285D02*
X156505771Y-78166666D01*
X156505771Y-78166666D02*
X156553390Y-78071428D01*
X156553390Y-78071428D02*
X156553390Y-77880952D01*
X156553390Y-77880952D02*
X156601009Y-77785714D01*
X156601009Y-77785714D02*
X156648628Y-77738095D01*
X156648628Y-77738095D02*
X156743866Y-77690476D01*
X156743866Y-77690476D02*
X156934342Y-77690476D01*
X156934342Y-77690476D02*
X157029580Y-77738095D01*
X157029580Y-77738095D02*
X157077200Y-77785714D01*
X157077200Y-77785714D02*
X157124819Y-77880952D01*
X157124819Y-77880952D02*
X157124819Y-78071428D01*
X157124819Y-78071428D02*
X157077200Y-78166666D01*
X157077200Y-78166666D02*
X157029580Y-78214285D01*
X157029580Y-78214285D02*
X156934342Y-78261904D01*
X156934342Y-78261904D02*
X156743866Y-78261904D01*
X156743866Y-78261904D02*
X156648628Y-78214285D01*
X156648628Y-78214285D02*
X156601009Y-78166666D01*
X156601009Y-78166666D02*
X156553390Y-78071428D01*
X158204819Y-71557142D02*
X157728628Y-71223809D01*
X158204819Y-70985714D02*
X157204819Y-70985714D01*
X157204819Y-70985714D02*
X157204819Y-71366666D01*
X157204819Y-71366666D02*
X157252438Y-71461904D01*
X157252438Y-71461904D02*
X157300057Y-71509523D01*
X157300057Y-71509523D02*
X157395295Y-71557142D01*
X157395295Y-71557142D02*
X157538152Y-71557142D01*
X157538152Y-71557142D02*
X157633390Y-71509523D01*
X157633390Y-71509523D02*
X157681009Y-71461904D01*
X157681009Y-71461904D02*
X157728628Y-71366666D01*
X157728628Y-71366666D02*
X157728628Y-70985714D01*
X157204819Y-71890476D02*
X157204819Y-72557142D01*
X157204819Y-72557142D02*
X158204819Y-72128571D01*
X158204819Y-73461904D02*
X158204819Y-72890476D01*
X158204819Y-73176190D02*
X157204819Y-73176190D01*
X157204819Y-73176190D02*
X157347676Y-73080952D01*
X157347676Y-73080952D02*
X157442914Y-72985714D01*
X157442914Y-72985714D02*
X157490533Y-72890476D01*
X151209580Y-71557142D02*
X151257200Y-71509523D01*
X151257200Y-71509523D02*
X151304819Y-71366666D01*
X151304819Y-71366666D02*
X151304819Y-71271428D01*
X151304819Y-71271428D02*
X151257200Y-71128571D01*
X151257200Y-71128571D02*
X151161961Y-71033333D01*
X151161961Y-71033333D02*
X151066723Y-70985714D01*
X151066723Y-70985714D02*
X150876247Y-70938095D01*
X150876247Y-70938095D02*
X150733390Y-70938095D01*
X150733390Y-70938095D02*
X150542914Y-70985714D01*
X150542914Y-70985714D02*
X150447676Y-71033333D01*
X150447676Y-71033333D02*
X150352438Y-71128571D01*
X150352438Y-71128571D02*
X150304819Y-71271428D01*
X150304819Y-71271428D02*
X150304819Y-71366666D01*
X150304819Y-71366666D02*
X150352438Y-71509523D01*
X150352438Y-71509523D02*
X150400057Y-71557142D01*
X150304819Y-72461904D02*
X150304819Y-71985714D01*
X150304819Y-71985714D02*
X150781009Y-71938095D01*
X150781009Y-71938095D02*
X150733390Y-71985714D01*
X150733390Y-71985714D02*
X150685771Y-72080952D01*
X150685771Y-72080952D02*
X150685771Y-72319047D01*
X150685771Y-72319047D02*
X150733390Y-72414285D01*
X150733390Y-72414285D02*
X150781009Y-72461904D01*
X150781009Y-72461904D02*
X150876247Y-72509523D01*
X150876247Y-72509523D02*
X151114342Y-72509523D01*
X151114342Y-72509523D02*
X151209580Y-72461904D01*
X151209580Y-72461904D02*
X151257200Y-72414285D01*
X151257200Y-72414285D02*
X151304819Y-72319047D01*
X151304819Y-72319047D02*
X151304819Y-72080952D01*
X151304819Y-72080952D02*
X151257200Y-71985714D01*
X151257200Y-71985714D02*
X151209580Y-71938095D01*
X150304819Y-73128571D02*
X150304819Y-73223809D01*
X150304819Y-73223809D02*
X150352438Y-73319047D01*
X150352438Y-73319047D02*
X150400057Y-73366666D01*
X150400057Y-73366666D02*
X150495295Y-73414285D01*
X150495295Y-73414285D02*
X150685771Y-73461904D01*
X150685771Y-73461904D02*
X150923866Y-73461904D01*
X150923866Y-73461904D02*
X151114342Y-73414285D01*
X151114342Y-73414285D02*
X151209580Y-73366666D01*
X151209580Y-73366666D02*
X151257200Y-73319047D01*
X151257200Y-73319047D02*
X151304819Y-73223809D01*
X151304819Y-73223809D02*
X151304819Y-73128571D01*
X151304819Y-73128571D02*
X151257200Y-73033333D01*
X151257200Y-73033333D02*
X151209580Y-72985714D01*
X151209580Y-72985714D02*
X151114342Y-72938095D01*
X151114342Y-72938095D02*
X150923866Y-72890476D01*
X150923866Y-72890476D02*
X150685771Y-72890476D01*
X150685771Y-72890476D02*
X150495295Y-72938095D01*
X150495295Y-72938095D02*
X150400057Y-72985714D01*
X150400057Y-72985714D02*
X150352438Y-73033333D01*
X150352438Y-73033333D02*
X150304819Y-73128571D01*
X170704819Y-71557142D02*
X170228628Y-71223809D01*
X170704819Y-70985714D02*
X169704819Y-70985714D01*
X169704819Y-70985714D02*
X169704819Y-71366666D01*
X169704819Y-71366666D02*
X169752438Y-71461904D01*
X169752438Y-71461904D02*
X169800057Y-71509523D01*
X169800057Y-71509523D02*
X169895295Y-71557142D01*
X169895295Y-71557142D02*
X170038152Y-71557142D01*
X170038152Y-71557142D02*
X170133390Y-71509523D01*
X170133390Y-71509523D02*
X170181009Y-71461904D01*
X170181009Y-71461904D02*
X170228628Y-71366666D01*
X170228628Y-71366666D02*
X170228628Y-70985714D01*
X169704819Y-72414285D02*
X169704819Y-72223809D01*
X169704819Y-72223809D02*
X169752438Y-72128571D01*
X169752438Y-72128571D02*
X169800057Y-72080952D01*
X169800057Y-72080952D02*
X169942914Y-71985714D01*
X169942914Y-71985714D02*
X170133390Y-71938095D01*
X170133390Y-71938095D02*
X170514342Y-71938095D01*
X170514342Y-71938095D02*
X170609580Y-71985714D01*
X170609580Y-71985714D02*
X170657200Y-72033333D01*
X170657200Y-72033333D02*
X170704819Y-72128571D01*
X170704819Y-72128571D02*
X170704819Y-72319047D01*
X170704819Y-72319047D02*
X170657200Y-72414285D01*
X170657200Y-72414285D02*
X170609580Y-72461904D01*
X170609580Y-72461904D02*
X170514342Y-72509523D01*
X170514342Y-72509523D02*
X170276247Y-72509523D01*
X170276247Y-72509523D02*
X170181009Y-72461904D01*
X170181009Y-72461904D02*
X170133390Y-72414285D01*
X170133390Y-72414285D02*
X170085771Y-72319047D01*
X170085771Y-72319047D02*
X170085771Y-72128571D01*
X170085771Y-72128571D02*
X170133390Y-72033333D01*
X170133390Y-72033333D02*
X170181009Y-71985714D01*
X170181009Y-71985714D02*
X170276247Y-71938095D01*
X170704819Y-73461904D02*
X170704819Y-72890476D01*
X170704819Y-73176190D02*
X169704819Y-73176190D01*
X169704819Y-73176190D02*
X169847676Y-73080952D01*
X169847676Y-73080952D02*
X169942914Y-72985714D01*
X169942914Y-72985714D02*
X169990533Y-72890476D01*
X176974819Y-136033333D02*
X176498628Y-135700000D01*
X176974819Y-135461905D02*
X175974819Y-135461905D01*
X175974819Y-135461905D02*
X175974819Y-135842857D01*
X175974819Y-135842857D02*
X176022438Y-135938095D01*
X176022438Y-135938095D02*
X176070057Y-135985714D01*
X176070057Y-135985714D02*
X176165295Y-136033333D01*
X176165295Y-136033333D02*
X176308152Y-136033333D01*
X176308152Y-136033333D02*
X176403390Y-135985714D01*
X176403390Y-135985714D02*
X176451009Y-135938095D01*
X176451009Y-135938095D02*
X176498628Y-135842857D01*
X176498628Y-135842857D02*
X176498628Y-135461905D01*
X176403390Y-136604762D02*
X176355771Y-136509524D01*
X176355771Y-136509524D02*
X176308152Y-136461905D01*
X176308152Y-136461905D02*
X176212914Y-136414286D01*
X176212914Y-136414286D02*
X176165295Y-136414286D01*
X176165295Y-136414286D02*
X176070057Y-136461905D01*
X176070057Y-136461905D02*
X176022438Y-136509524D01*
X176022438Y-136509524D02*
X175974819Y-136604762D01*
X175974819Y-136604762D02*
X175974819Y-136795238D01*
X175974819Y-136795238D02*
X176022438Y-136890476D01*
X176022438Y-136890476D02*
X176070057Y-136938095D01*
X176070057Y-136938095D02*
X176165295Y-136985714D01*
X176165295Y-136985714D02*
X176212914Y-136985714D01*
X176212914Y-136985714D02*
X176308152Y-136938095D01*
X176308152Y-136938095D02*
X176355771Y-136890476D01*
X176355771Y-136890476D02*
X176403390Y-136795238D01*
X176403390Y-136795238D02*
X176403390Y-136604762D01*
X176403390Y-136604762D02*
X176451009Y-136509524D01*
X176451009Y-136509524D02*
X176498628Y-136461905D01*
X176498628Y-136461905D02*
X176593866Y-136414286D01*
X176593866Y-136414286D02*
X176784342Y-136414286D01*
X176784342Y-136414286D02*
X176879580Y-136461905D01*
X176879580Y-136461905D02*
X176927200Y-136509524D01*
X176927200Y-136509524D02*
X176974819Y-136604762D01*
X176974819Y-136604762D02*
X176974819Y-136795238D01*
X176974819Y-136795238D02*
X176927200Y-136890476D01*
X176927200Y-136890476D02*
X176879580Y-136938095D01*
X176879580Y-136938095D02*
X176784342Y-136985714D01*
X176784342Y-136985714D02*
X176593866Y-136985714D01*
X176593866Y-136985714D02*
X176498628Y-136938095D01*
X176498628Y-136938095D02*
X176451009Y-136890476D01*
X176451009Y-136890476D02*
X176403390Y-136795238D01*
X100853670Y-63389540D02*
X100752655Y-62817121D01*
X101257731Y-62985479D02*
X100550624Y-62278373D01*
X100550624Y-62278373D02*
X100281250Y-62547747D01*
X100281250Y-62547747D02*
X100247578Y-62648762D01*
X100247578Y-62648762D02*
X100247578Y-62716105D01*
X100247578Y-62716105D02*
X100281250Y-62817121D01*
X100281250Y-62817121D02*
X100382265Y-62918136D01*
X100382265Y-62918136D02*
X100483281Y-62951808D01*
X100483281Y-62951808D02*
X100550624Y-62951808D01*
X100550624Y-62951808D02*
X100651639Y-62918136D01*
X100651639Y-62918136D02*
X100921013Y-62648762D01*
X99776174Y-63524227D02*
X100247578Y-63995632D01*
X99675159Y-63086495D02*
X100348594Y-63423212D01*
X100348594Y-63423212D02*
X99910861Y-63860945D01*
X163204819Y-71547142D02*
X162728628Y-71213809D01*
X163204819Y-70975714D02*
X162204819Y-70975714D01*
X162204819Y-70975714D02*
X162204819Y-71356666D01*
X162204819Y-71356666D02*
X162252438Y-71451904D01*
X162252438Y-71451904D02*
X162300057Y-71499523D01*
X162300057Y-71499523D02*
X162395295Y-71547142D01*
X162395295Y-71547142D02*
X162538152Y-71547142D01*
X162538152Y-71547142D02*
X162633390Y-71499523D01*
X162633390Y-71499523D02*
X162681009Y-71451904D01*
X162681009Y-71451904D02*
X162728628Y-71356666D01*
X162728628Y-71356666D02*
X162728628Y-70975714D01*
X162204819Y-72404285D02*
X162204819Y-72213809D01*
X162204819Y-72213809D02*
X162252438Y-72118571D01*
X162252438Y-72118571D02*
X162300057Y-72070952D01*
X162300057Y-72070952D02*
X162442914Y-71975714D01*
X162442914Y-71975714D02*
X162633390Y-71928095D01*
X162633390Y-71928095D02*
X163014342Y-71928095D01*
X163014342Y-71928095D02*
X163109580Y-71975714D01*
X163109580Y-71975714D02*
X163157200Y-72023333D01*
X163157200Y-72023333D02*
X163204819Y-72118571D01*
X163204819Y-72118571D02*
X163204819Y-72309047D01*
X163204819Y-72309047D02*
X163157200Y-72404285D01*
X163157200Y-72404285D02*
X163109580Y-72451904D01*
X163109580Y-72451904D02*
X163014342Y-72499523D01*
X163014342Y-72499523D02*
X162776247Y-72499523D01*
X162776247Y-72499523D02*
X162681009Y-72451904D01*
X162681009Y-72451904D02*
X162633390Y-72404285D01*
X162633390Y-72404285D02*
X162585771Y-72309047D01*
X162585771Y-72309047D02*
X162585771Y-72118571D01*
X162585771Y-72118571D02*
X162633390Y-72023333D01*
X162633390Y-72023333D02*
X162681009Y-71975714D01*
X162681009Y-71975714D02*
X162776247Y-71928095D01*
X162204819Y-72832857D02*
X162204819Y-73499523D01*
X162204819Y-73499523D02*
X163204819Y-73070952D01*
X176742857Y-83954819D02*
X177076190Y-83478628D01*
X177314285Y-83954819D02*
X177314285Y-82954819D01*
X177314285Y-82954819D02*
X176933333Y-82954819D01*
X176933333Y-82954819D02*
X176838095Y-83002438D01*
X176838095Y-83002438D02*
X176790476Y-83050057D01*
X176790476Y-83050057D02*
X176742857Y-83145295D01*
X176742857Y-83145295D02*
X176742857Y-83288152D01*
X176742857Y-83288152D02*
X176790476Y-83383390D01*
X176790476Y-83383390D02*
X176838095Y-83431009D01*
X176838095Y-83431009D02*
X176933333Y-83478628D01*
X176933333Y-83478628D02*
X177314285Y-83478628D01*
X175885714Y-83288152D02*
X175885714Y-83954819D01*
X176123809Y-82907200D02*
X176361904Y-83621485D01*
X176361904Y-83621485D02*
X175742857Y-83621485D01*
X174885714Y-82954819D02*
X175361904Y-82954819D01*
X175361904Y-82954819D02*
X175409523Y-83431009D01*
X175409523Y-83431009D02*
X175361904Y-83383390D01*
X175361904Y-83383390D02*
X175266666Y-83335771D01*
X175266666Y-83335771D02*
X175028571Y-83335771D01*
X175028571Y-83335771D02*
X174933333Y-83383390D01*
X174933333Y-83383390D02*
X174885714Y-83431009D01*
X174885714Y-83431009D02*
X174838095Y-83526247D01*
X174838095Y-83526247D02*
X174838095Y-83764342D01*
X174838095Y-83764342D02*
X174885714Y-83859580D01*
X174885714Y-83859580D02*
X174933333Y-83907200D01*
X174933333Y-83907200D02*
X175028571Y-83954819D01*
X175028571Y-83954819D02*
X175266666Y-83954819D01*
X175266666Y-83954819D02*
X175361904Y-83907200D01*
X175361904Y-83907200D02*
X175409523Y-83859580D01*
X167142857Y-83099580D02*
X167190476Y-83147200D01*
X167190476Y-83147200D02*
X167333333Y-83194819D01*
X167333333Y-83194819D02*
X167428571Y-83194819D01*
X167428571Y-83194819D02*
X167571428Y-83147200D01*
X167571428Y-83147200D02*
X167666666Y-83051961D01*
X167666666Y-83051961D02*
X167714285Y-82956723D01*
X167714285Y-82956723D02*
X167761904Y-82766247D01*
X167761904Y-82766247D02*
X167761904Y-82623390D01*
X167761904Y-82623390D02*
X167714285Y-82432914D01*
X167714285Y-82432914D02*
X167666666Y-82337676D01*
X167666666Y-82337676D02*
X167571428Y-82242438D01*
X167571428Y-82242438D02*
X167428571Y-82194819D01*
X167428571Y-82194819D02*
X167333333Y-82194819D01*
X167333333Y-82194819D02*
X167190476Y-82242438D01*
X167190476Y-82242438D02*
X167142857Y-82290057D01*
X166285714Y-82528152D02*
X166285714Y-83194819D01*
X166523809Y-82147200D02*
X166761904Y-82861485D01*
X166761904Y-82861485D02*
X166142857Y-82861485D01*
X165857142Y-82194819D02*
X165190476Y-82194819D01*
X165190476Y-82194819D02*
X165619047Y-83194819D01*
X160704819Y-71557142D02*
X160228628Y-71223809D01*
X160704819Y-70985714D02*
X159704819Y-70985714D01*
X159704819Y-70985714D02*
X159704819Y-71366666D01*
X159704819Y-71366666D02*
X159752438Y-71461904D01*
X159752438Y-71461904D02*
X159800057Y-71509523D01*
X159800057Y-71509523D02*
X159895295Y-71557142D01*
X159895295Y-71557142D02*
X160038152Y-71557142D01*
X160038152Y-71557142D02*
X160133390Y-71509523D01*
X160133390Y-71509523D02*
X160181009Y-71461904D01*
X160181009Y-71461904D02*
X160228628Y-71366666D01*
X160228628Y-71366666D02*
X160228628Y-70985714D01*
X159704819Y-72414285D02*
X159704819Y-72223809D01*
X159704819Y-72223809D02*
X159752438Y-72128571D01*
X159752438Y-72128571D02*
X159800057Y-72080952D01*
X159800057Y-72080952D02*
X159942914Y-71985714D01*
X159942914Y-71985714D02*
X160133390Y-71938095D01*
X160133390Y-71938095D02*
X160514342Y-71938095D01*
X160514342Y-71938095D02*
X160609580Y-71985714D01*
X160609580Y-71985714D02*
X160657200Y-72033333D01*
X160657200Y-72033333D02*
X160704819Y-72128571D01*
X160704819Y-72128571D02*
X160704819Y-72319047D01*
X160704819Y-72319047D02*
X160657200Y-72414285D01*
X160657200Y-72414285D02*
X160609580Y-72461904D01*
X160609580Y-72461904D02*
X160514342Y-72509523D01*
X160514342Y-72509523D02*
X160276247Y-72509523D01*
X160276247Y-72509523D02*
X160181009Y-72461904D01*
X160181009Y-72461904D02*
X160133390Y-72414285D01*
X160133390Y-72414285D02*
X160085771Y-72319047D01*
X160085771Y-72319047D02*
X160085771Y-72128571D01*
X160085771Y-72128571D02*
X160133390Y-72033333D01*
X160133390Y-72033333D02*
X160181009Y-71985714D01*
X160181009Y-71985714D02*
X160276247Y-71938095D01*
X160704819Y-72985714D02*
X160704819Y-73176190D01*
X160704819Y-73176190D02*
X160657200Y-73271428D01*
X160657200Y-73271428D02*
X160609580Y-73319047D01*
X160609580Y-73319047D02*
X160466723Y-73414285D01*
X160466723Y-73414285D02*
X160276247Y-73461904D01*
X160276247Y-73461904D02*
X159895295Y-73461904D01*
X159895295Y-73461904D02*
X159800057Y-73414285D01*
X159800057Y-73414285D02*
X159752438Y-73366666D01*
X159752438Y-73366666D02*
X159704819Y-73271428D01*
X159704819Y-73271428D02*
X159704819Y-73080952D01*
X159704819Y-73080952D02*
X159752438Y-72985714D01*
X159752438Y-72985714D02*
X159800057Y-72938095D01*
X159800057Y-72938095D02*
X159895295Y-72890476D01*
X159895295Y-72890476D02*
X160133390Y-72890476D01*
X160133390Y-72890476D02*
X160228628Y-72938095D01*
X160228628Y-72938095D02*
X160276247Y-72985714D01*
X160276247Y-72985714D02*
X160323866Y-73080952D01*
X160323866Y-73080952D02*
X160323866Y-73271428D01*
X160323866Y-73271428D02*
X160276247Y-73366666D01*
X160276247Y-73366666D02*
X160228628Y-73414285D01*
X160228628Y-73414285D02*
X160133390Y-73461904D01*
X153309580Y-96507142D02*
X153357200Y-96459523D01*
X153357200Y-96459523D02*
X153404819Y-96316666D01*
X153404819Y-96316666D02*
X153404819Y-96221428D01*
X153404819Y-96221428D02*
X153357200Y-96078571D01*
X153357200Y-96078571D02*
X153261961Y-95983333D01*
X153261961Y-95983333D02*
X153166723Y-95935714D01*
X153166723Y-95935714D02*
X152976247Y-95888095D01*
X152976247Y-95888095D02*
X152833390Y-95888095D01*
X152833390Y-95888095D02*
X152642914Y-95935714D01*
X152642914Y-95935714D02*
X152547676Y-95983333D01*
X152547676Y-95983333D02*
X152452438Y-96078571D01*
X152452438Y-96078571D02*
X152404819Y-96221428D01*
X152404819Y-96221428D02*
X152404819Y-96316666D01*
X152404819Y-96316666D02*
X152452438Y-96459523D01*
X152452438Y-96459523D02*
X152500057Y-96507142D01*
X152738152Y-97364285D02*
X153404819Y-97364285D01*
X152357200Y-97126190D02*
X153071485Y-96888095D01*
X153071485Y-96888095D02*
X153071485Y-97507142D01*
X152404819Y-98316666D02*
X152404819Y-98126190D01*
X152404819Y-98126190D02*
X152452438Y-98030952D01*
X152452438Y-98030952D02*
X152500057Y-97983333D01*
X152500057Y-97983333D02*
X152642914Y-97888095D01*
X152642914Y-97888095D02*
X152833390Y-97840476D01*
X152833390Y-97840476D02*
X153214342Y-97840476D01*
X153214342Y-97840476D02*
X153309580Y-97888095D01*
X153309580Y-97888095D02*
X153357200Y-97935714D01*
X153357200Y-97935714D02*
X153404819Y-98030952D01*
X153404819Y-98030952D02*
X153404819Y-98221428D01*
X153404819Y-98221428D02*
X153357200Y-98316666D01*
X153357200Y-98316666D02*
X153309580Y-98364285D01*
X153309580Y-98364285D02*
X153214342Y-98411904D01*
X153214342Y-98411904D02*
X152976247Y-98411904D01*
X152976247Y-98411904D02*
X152881009Y-98364285D01*
X152881009Y-98364285D02*
X152833390Y-98316666D01*
X152833390Y-98316666D02*
X152785771Y-98221428D01*
X152785771Y-98221428D02*
X152785771Y-98030952D01*
X152785771Y-98030952D02*
X152833390Y-97935714D01*
X152833390Y-97935714D02*
X152881009Y-97888095D01*
X152881009Y-97888095D02*
X152976247Y-97840476D01*
X169359580Y-71557142D02*
X169407200Y-71509523D01*
X169407200Y-71509523D02*
X169454819Y-71366666D01*
X169454819Y-71366666D02*
X169454819Y-71271428D01*
X169454819Y-71271428D02*
X169407200Y-71128571D01*
X169407200Y-71128571D02*
X169311961Y-71033333D01*
X169311961Y-71033333D02*
X169216723Y-70985714D01*
X169216723Y-70985714D02*
X169026247Y-70938095D01*
X169026247Y-70938095D02*
X168883390Y-70938095D01*
X168883390Y-70938095D02*
X168692914Y-70985714D01*
X168692914Y-70985714D02*
X168597676Y-71033333D01*
X168597676Y-71033333D02*
X168502438Y-71128571D01*
X168502438Y-71128571D02*
X168454819Y-71271428D01*
X168454819Y-71271428D02*
X168454819Y-71366666D01*
X168454819Y-71366666D02*
X168502438Y-71509523D01*
X168502438Y-71509523D02*
X168550057Y-71557142D01*
X168454819Y-72461904D02*
X168454819Y-71985714D01*
X168454819Y-71985714D02*
X168931009Y-71938095D01*
X168931009Y-71938095D02*
X168883390Y-71985714D01*
X168883390Y-71985714D02*
X168835771Y-72080952D01*
X168835771Y-72080952D02*
X168835771Y-72319047D01*
X168835771Y-72319047D02*
X168883390Y-72414285D01*
X168883390Y-72414285D02*
X168931009Y-72461904D01*
X168931009Y-72461904D02*
X169026247Y-72509523D01*
X169026247Y-72509523D02*
X169264342Y-72509523D01*
X169264342Y-72509523D02*
X169359580Y-72461904D01*
X169359580Y-72461904D02*
X169407200Y-72414285D01*
X169407200Y-72414285D02*
X169454819Y-72319047D01*
X169454819Y-72319047D02*
X169454819Y-72080952D01*
X169454819Y-72080952D02*
X169407200Y-71985714D01*
X169407200Y-71985714D02*
X169359580Y-71938095D01*
X169454819Y-73461904D02*
X169454819Y-72890476D01*
X169454819Y-73176190D02*
X168454819Y-73176190D01*
X168454819Y-73176190D02*
X168597676Y-73080952D01*
X168597676Y-73080952D02*
X168692914Y-72985714D01*
X168692914Y-72985714D02*
X168740533Y-72890476D01*
X165704819Y-71557142D02*
X165228628Y-71223809D01*
X165704819Y-70985714D02*
X164704819Y-70985714D01*
X164704819Y-70985714D02*
X164704819Y-71366666D01*
X164704819Y-71366666D02*
X164752438Y-71461904D01*
X164752438Y-71461904D02*
X164800057Y-71509523D01*
X164800057Y-71509523D02*
X164895295Y-71557142D01*
X164895295Y-71557142D02*
X165038152Y-71557142D01*
X165038152Y-71557142D02*
X165133390Y-71509523D01*
X165133390Y-71509523D02*
X165181009Y-71461904D01*
X165181009Y-71461904D02*
X165228628Y-71366666D01*
X165228628Y-71366666D02*
X165228628Y-70985714D01*
X164704819Y-72414285D02*
X164704819Y-72223809D01*
X164704819Y-72223809D02*
X164752438Y-72128571D01*
X164752438Y-72128571D02*
X164800057Y-72080952D01*
X164800057Y-72080952D02*
X164942914Y-71985714D01*
X164942914Y-71985714D02*
X165133390Y-71938095D01*
X165133390Y-71938095D02*
X165514342Y-71938095D01*
X165514342Y-71938095D02*
X165609580Y-71985714D01*
X165609580Y-71985714D02*
X165657200Y-72033333D01*
X165657200Y-72033333D02*
X165704819Y-72128571D01*
X165704819Y-72128571D02*
X165704819Y-72319047D01*
X165704819Y-72319047D02*
X165657200Y-72414285D01*
X165657200Y-72414285D02*
X165609580Y-72461904D01*
X165609580Y-72461904D02*
X165514342Y-72509523D01*
X165514342Y-72509523D02*
X165276247Y-72509523D01*
X165276247Y-72509523D02*
X165181009Y-72461904D01*
X165181009Y-72461904D02*
X165133390Y-72414285D01*
X165133390Y-72414285D02*
X165085771Y-72319047D01*
X165085771Y-72319047D02*
X165085771Y-72128571D01*
X165085771Y-72128571D02*
X165133390Y-72033333D01*
X165133390Y-72033333D02*
X165181009Y-71985714D01*
X165181009Y-71985714D02*
X165276247Y-71938095D01*
X164704819Y-73414285D02*
X164704819Y-72938095D01*
X164704819Y-72938095D02*
X165181009Y-72890476D01*
X165181009Y-72890476D02*
X165133390Y-72938095D01*
X165133390Y-72938095D02*
X165085771Y-73033333D01*
X165085771Y-73033333D02*
X165085771Y-73271428D01*
X165085771Y-73271428D02*
X165133390Y-73366666D01*
X165133390Y-73366666D02*
X165181009Y-73414285D01*
X165181009Y-73414285D02*
X165276247Y-73461904D01*
X165276247Y-73461904D02*
X165514342Y-73461904D01*
X165514342Y-73461904D02*
X165609580Y-73414285D01*
X165609580Y-73414285D02*
X165657200Y-73366666D01*
X165657200Y-73366666D02*
X165704819Y-73271428D01*
X165704819Y-73271428D02*
X165704819Y-73033333D01*
X165704819Y-73033333D02*
X165657200Y-72938095D01*
X165657200Y-72938095D02*
X165609580Y-72890476D01*
X176792857Y-89204819D02*
X177126190Y-88728628D01*
X177364285Y-89204819D02*
X177364285Y-88204819D01*
X177364285Y-88204819D02*
X176983333Y-88204819D01*
X176983333Y-88204819D02*
X176888095Y-88252438D01*
X176888095Y-88252438D02*
X176840476Y-88300057D01*
X176840476Y-88300057D02*
X176792857Y-88395295D01*
X176792857Y-88395295D02*
X176792857Y-88538152D01*
X176792857Y-88538152D02*
X176840476Y-88633390D01*
X176840476Y-88633390D02*
X176888095Y-88681009D01*
X176888095Y-88681009D02*
X176983333Y-88728628D01*
X176983333Y-88728628D02*
X177364285Y-88728628D01*
X175935714Y-88538152D02*
X175935714Y-89204819D01*
X176173809Y-88157200D02*
X176411904Y-88871485D01*
X176411904Y-88871485D02*
X175792857Y-88871485D01*
X174983333Y-88538152D02*
X174983333Y-89204819D01*
X175221428Y-88157200D02*
X175459523Y-88871485D01*
X175459523Y-88871485D02*
X174840476Y-88871485D01*
X151254819Y-76307142D02*
X150778628Y-75973809D01*
X151254819Y-75735714D02*
X150254819Y-75735714D01*
X150254819Y-75735714D02*
X150254819Y-76116666D01*
X150254819Y-76116666D02*
X150302438Y-76211904D01*
X150302438Y-76211904D02*
X150350057Y-76259523D01*
X150350057Y-76259523D02*
X150445295Y-76307142D01*
X150445295Y-76307142D02*
X150588152Y-76307142D01*
X150588152Y-76307142D02*
X150683390Y-76259523D01*
X150683390Y-76259523D02*
X150731009Y-76211904D01*
X150731009Y-76211904D02*
X150778628Y-76116666D01*
X150778628Y-76116666D02*
X150778628Y-75735714D01*
X150254819Y-77211904D02*
X150254819Y-76735714D01*
X150254819Y-76735714D02*
X150731009Y-76688095D01*
X150731009Y-76688095D02*
X150683390Y-76735714D01*
X150683390Y-76735714D02*
X150635771Y-76830952D01*
X150635771Y-76830952D02*
X150635771Y-77069047D01*
X150635771Y-77069047D02*
X150683390Y-77164285D01*
X150683390Y-77164285D02*
X150731009Y-77211904D01*
X150731009Y-77211904D02*
X150826247Y-77259523D01*
X150826247Y-77259523D02*
X151064342Y-77259523D01*
X151064342Y-77259523D02*
X151159580Y-77211904D01*
X151159580Y-77211904D02*
X151207200Y-77164285D01*
X151207200Y-77164285D02*
X151254819Y-77069047D01*
X151254819Y-77069047D02*
X151254819Y-76830952D01*
X151254819Y-76830952D02*
X151207200Y-76735714D01*
X151207200Y-76735714D02*
X151159580Y-76688095D01*
X150683390Y-77830952D02*
X150635771Y-77735714D01*
X150635771Y-77735714D02*
X150588152Y-77688095D01*
X150588152Y-77688095D02*
X150492914Y-77640476D01*
X150492914Y-77640476D02*
X150445295Y-77640476D01*
X150445295Y-77640476D02*
X150350057Y-77688095D01*
X150350057Y-77688095D02*
X150302438Y-77735714D01*
X150302438Y-77735714D02*
X150254819Y-77830952D01*
X150254819Y-77830952D02*
X150254819Y-78021428D01*
X150254819Y-78021428D02*
X150302438Y-78116666D01*
X150302438Y-78116666D02*
X150350057Y-78164285D01*
X150350057Y-78164285D02*
X150445295Y-78211904D01*
X150445295Y-78211904D02*
X150492914Y-78211904D01*
X150492914Y-78211904D02*
X150588152Y-78164285D01*
X150588152Y-78164285D02*
X150635771Y-78116666D01*
X150635771Y-78116666D02*
X150683390Y-78021428D01*
X150683390Y-78021428D02*
X150683390Y-77830952D01*
X150683390Y-77830952D02*
X150731009Y-77735714D01*
X150731009Y-77735714D02*
X150778628Y-77688095D01*
X150778628Y-77688095D02*
X150873866Y-77640476D01*
X150873866Y-77640476D02*
X151064342Y-77640476D01*
X151064342Y-77640476D02*
X151159580Y-77688095D01*
X151159580Y-77688095D02*
X151207200Y-77735714D01*
X151207200Y-77735714D02*
X151254819Y-77830952D01*
X151254819Y-77830952D02*
X151254819Y-78021428D01*
X151254819Y-78021428D02*
X151207200Y-78116666D01*
X151207200Y-78116666D02*
X151159580Y-78164285D01*
X151159580Y-78164285D02*
X151064342Y-78211904D01*
X151064342Y-78211904D02*
X150873866Y-78211904D01*
X150873866Y-78211904D02*
X150778628Y-78164285D01*
X150778628Y-78164285D02*
X150731009Y-78116666D01*
X150731009Y-78116666D02*
X150683390Y-78021428D01*
X153304819Y-91557142D02*
X152828628Y-91223809D01*
X153304819Y-90985714D02*
X152304819Y-90985714D01*
X152304819Y-90985714D02*
X152304819Y-91366666D01*
X152304819Y-91366666D02*
X152352438Y-91461904D01*
X152352438Y-91461904D02*
X152400057Y-91509523D01*
X152400057Y-91509523D02*
X152495295Y-91557142D01*
X152495295Y-91557142D02*
X152638152Y-91557142D01*
X152638152Y-91557142D02*
X152733390Y-91509523D01*
X152733390Y-91509523D02*
X152781009Y-91461904D01*
X152781009Y-91461904D02*
X152828628Y-91366666D01*
X152828628Y-91366666D02*
X152828628Y-90985714D01*
X152304819Y-92461904D02*
X152304819Y-91985714D01*
X152304819Y-91985714D02*
X152781009Y-91938095D01*
X152781009Y-91938095D02*
X152733390Y-91985714D01*
X152733390Y-91985714D02*
X152685771Y-92080952D01*
X152685771Y-92080952D02*
X152685771Y-92319047D01*
X152685771Y-92319047D02*
X152733390Y-92414285D01*
X152733390Y-92414285D02*
X152781009Y-92461904D01*
X152781009Y-92461904D02*
X152876247Y-92509523D01*
X152876247Y-92509523D02*
X153114342Y-92509523D01*
X153114342Y-92509523D02*
X153209580Y-92461904D01*
X153209580Y-92461904D02*
X153257200Y-92414285D01*
X153257200Y-92414285D02*
X153304819Y-92319047D01*
X153304819Y-92319047D02*
X153304819Y-92080952D01*
X153304819Y-92080952D02*
X153257200Y-91985714D01*
X153257200Y-91985714D02*
X153209580Y-91938095D01*
X152400057Y-92890476D02*
X152352438Y-92938095D01*
X152352438Y-92938095D02*
X152304819Y-93033333D01*
X152304819Y-93033333D02*
X152304819Y-93271428D01*
X152304819Y-93271428D02*
X152352438Y-93366666D01*
X152352438Y-93366666D02*
X152400057Y-93414285D01*
X152400057Y-93414285D02*
X152495295Y-93461904D01*
X152495295Y-93461904D02*
X152590533Y-93461904D01*
X152590533Y-93461904D02*
X152733390Y-93414285D01*
X152733390Y-93414285D02*
X153304819Y-92842857D01*
X153304819Y-92842857D02*
X153304819Y-93461904D01*
X159563588Y-83472112D02*
X159563588Y-83539456D01*
X159563588Y-83539456D02*
X159630932Y-83674143D01*
X159630932Y-83674143D02*
X159698275Y-83741486D01*
X159698275Y-83741486D02*
X159832962Y-83808830D01*
X159832962Y-83808830D02*
X159967649Y-83808830D01*
X159967649Y-83808830D02*
X160068664Y-83775158D01*
X160068664Y-83775158D02*
X160237023Y-83674143D01*
X160237023Y-83674143D02*
X160338038Y-83573128D01*
X160338038Y-83573128D02*
X160439054Y-83404769D01*
X160439054Y-83404769D02*
X160472725Y-83303754D01*
X160472725Y-83303754D02*
X160472725Y-83169067D01*
X160472725Y-83169067D02*
X160405382Y-83034380D01*
X160405382Y-83034380D02*
X160338038Y-82967036D01*
X160338038Y-82967036D02*
X160203351Y-82899693D01*
X160203351Y-82899693D02*
X160136008Y-82899693D01*
X159967649Y-82596647D02*
X159529916Y-82158914D01*
X159529916Y-82158914D02*
X159496245Y-82663990D01*
X159496245Y-82663990D02*
X159395229Y-82562975D01*
X159395229Y-82562975D02*
X159294214Y-82529303D01*
X159294214Y-82529303D02*
X159226871Y-82529303D01*
X159226871Y-82529303D02*
X159125855Y-82562975D01*
X159125855Y-82562975D02*
X158957497Y-82731334D01*
X158957497Y-82731334D02*
X158923825Y-82832349D01*
X158923825Y-82832349D02*
X158923825Y-82899693D01*
X158923825Y-82899693D02*
X158957497Y-83000708D01*
X158957497Y-83000708D02*
X159159527Y-83202738D01*
X159159527Y-83202738D02*
X159260542Y-83236410D01*
X159260542Y-83236410D02*
X159327886Y-83236410D01*
X155539193Y-83815758D02*
X155875911Y-84152476D01*
X155404506Y-83209667D02*
X155539193Y-83815758D01*
X155539193Y-83815758D02*
X154933102Y-83681071D01*
X155034117Y-84994269D02*
X155438178Y-84590208D01*
X155236147Y-84792239D02*
X154529041Y-84085132D01*
X154529041Y-84085132D02*
X154697399Y-84118804D01*
X154697399Y-84118804D02*
X154832086Y-84118804D01*
X154832086Y-84118804D02*
X154933102Y-84085132D01*
X174895238Y-99400057D02*
X174990476Y-99352438D01*
X174990476Y-99352438D02*
X175085714Y-99257200D01*
X175085714Y-99257200D02*
X175228571Y-99114342D01*
X175228571Y-99114342D02*
X175323809Y-99066723D01*
X175323809Y-99066723D02*
X175419047Y-99066723D01*
X175371428Y-99304819D02*
X175466666Y-99257200D01*
X175466666Y-99257200D02*
X175561904Y-99161961D01*
X175561904Y-99161961D02*
X175609523Y-98971485D01*
X175609523Y-98971485D02*
X175609523Y-98638152D01*
X175609523Y-98638152D02*
X175561904Y-98447676D01*
X175561904Y-98447676D02*
X175466666Y-98352438D01*
X175466666Y-98352438D02*
X175371428Y-98304819D01*
X175371428Y-98304819D02*
X175180952Y-98304819D01*
X175180952Y-98304819D02*
X175085714Y-98352438D01*
X175085714Y-98352438D02*
X174990476Y-98447676D01*
X174990476Y-98447676D02*
X174942857Y-98638152D01*
X174942857Y-98638152D02*
X174942857Y-98971485D01*
X174942857Y-98971485D02*
X174990476Y-99161961D01*
X174990476Y-99161961D02*
X175085714Y-99257200D01*
X175085714Y-99257200D02*
X175180952Y-99304819D01*
X175180952Y-99304819D02*
X175371428Y-99304819D01*
X173990476Y-99304819D02*
X174561904Y-99304819D01*
X174276190Y-99304819D02*
X174276190Y-98304819D01*
X174276190Y-98304819D02*
X174371428Y-98447676D01*
X174371428Y-98447676D02*
X174466666Y-98542914D01*
X174466666Y-98542914D02*
X174561904Y-98590533D01*
X157504819Y-89283333D02*
X157504819Y-88807143D01*
X157504819Y-88807143D02*
X156504819Y-88807143D01*
X157504819Y-90140476D02*
X157504819Y-89569048D01*
X157504819Y-89854762D02*
X156504819Y-89854762D01*
X156504819Y-89854762D02*
X156647676Y-89759524D01*
X156647676Y-89759524D02*
X156742914Y-89664286D01*
X156742914Y-89664286D02*
X156790533Y-89569048D01*
X169704819Y-99033333D02*
X169228628Y-98700000D01*
X169704819Y-98461905D02*
X168704819Y-98461905D01*
X168704819Y-98461905D02*
X168704819Y-98842857D01*
X168704819Y-98842857D02*
X168752438Y-98938095D01*
X168752438Y-98938095D02*
X168800057Y-98985714D01*
X168800057Y-98985714D02*
X168895295Y-99033333D01*
X168895295Y-99033333D02*
X169038152Y-99033333D01*
X169038152Y-99033333D02*
X169133390Y-98985714D01*
X169133390Y-98985714D02*
X169181009Y-98938095D01*
X169181009Y-98938095D02*
X169228628Y-98842857D01*
X169228628Y-98842857D02*
X169228628Y-98461905D01*
X168800057Y-99414286D02*
X168752438Y-99461905D01*
X168752438Y-99461905D02*
X168704819Y-99557143D01*
X168704819Y-99557143D02*
X168704819Y-99795238D01*
X168704819Y-99795238D02*
X168752438Y-99890476D01*
X168752438Y-99890476D02*
X168800057Y-99938095D01*
X168800057Y-99938095D02*
X168895295Y-99985714D01*
X168895295Y-99985714D02*
X168990533Y-99985714D01*
X168990533Y-99985714D02*
X169133390Y-99938095D01*
X169133390Y-99938095D02*
X169704819Y-99366667D01*
X169704819Y-99366667D02*
X169704819Y-99985714D01*
X150809580Y-96507142D02*
X150857200Y-96459523D01*
X150857200Y-96459523D02*
X150904819Y-96316666D01*
X150904819Y-96316666D02*
X150904819Y-96221428D01*
X150904819Y-96221428D02*
X150857200Y-96078571D01*
X150857200Y-96078571D02*
X150761961Y-95983333D01*
X150761961Y-95983333D02*
X150666723Y-95935714D01*
X150666723Y-95935714D02*
X150476247Y-95888095D01*
X150476247Y-95888095D02*
X150333390Y-95888095D01*
X150333390Y-95888095D02*
X150142914Y-95935714D01*
X150142914Y-95935714D02*
X150047676Y-95983333D01*
X150047676Y-95983333D02*
X149952438Y-96078571D01*
X149952438Y-96078571D02*
X149904819Y-96221428D01*
X149904819Y-96221428D02*
X149904819Y-96316666D01*
X149904819Y-96316666D02*
X149952438Y-96459523D01*
X149952438Y-96459523D02*
X150000057Y-96507142D01*
X150238152Y-97364285D02*
X150904819Y-97364285D01*
X149857200Y-97126190D02*
X150571485Y-96888095D01*
X150571485Y-96888095D02*
X150571485Y-97507142D01*
X149904819Y-98364285D02*
X149904819Y-97888095D01*
X149904819Y-97888095D02*
X150381009Y-97840476D01*
X150381009Y-97840476D02*
X150333390Y-97888095D01*
X150333390Y-97888095D02*
X150285771Y-97983333D01*
X150285771Y-97983333D02*
X150285771Y-98221428D01*
X150285771Y-98221428D02*
X150333390Y-98316666D01*
X150333390Y-98316666D02*
X150381009Y-98364285D01*
X150381009Y-98364285D02*
X150476247Y-98411904D01*
X150476247Y-98411904D02*
X150714342Y-98411904D01*
X150714342Y-98411904D02*
X150809580Y-98364285D01*
X150809580Y-98364285D02*
X150857200Y-98316666D01*
X150857200Y-98316666D02*
X150904819Y-98221428D01*
X150904819Y-98221428D02*
X150904819Y-97983333D01*
X150904819Y-97983333D02*
X150857200Y-97888095D01*
X150857200Y-97888095D02*
X150809580Y-97840476D01*
X171859580Y-71557142D02*
X171907200Y-71509523D01*
X171907200Y-71509523D02*
X171954819Y-71366666D01*
X171954819Y-71366666D02*
X171954819Y-71271428D01*
X171954819Y-71271428D02*
X171907200Y-71128571D01*
X171907200Y-71128571D02*
X171811961Y-71033333D01*
X171811961Y-71033333D02*
X171716723Y-70985714D01*
X171716723Y-70985714D02*
X171526247Y-70938095D01*
X171526247Y-70938095D02*
X171383390Y-70938095D01*
X171383390Y-70938095D02*
X171192914Y-70985714D01*
X171192914Y-70985714D02*
X171097676Y-71033333D01*
X171097676Y-71033333D02*
X171002438Y-71128571D01*
X171002438Y-71128571D02*
X170954819Y-71271428D01*
X170954819Y-71271428D02*
X170954819Y-71366666D01*
X170954819Y-71366666D02*
X171002438Y-71509523D01*
X171002438Y-71509523D02*
X171050057Y-71557142D01*
X171288152Y-72414285D02*
X171954819Y-72414285D01*
X170907200Y-72176190D02*
X171621485Y-71938095D01*
X171621485Y-71938095D02*
X171621485Y-72557142D01*
X171954819Y-72985714D02*
X171954819Y-73176190D01*
X171954819Y-73176190D02*
X171907200Y-73271428D01*
X171907200Y-73271428D02*
X171859580Y-73319047D01*
X171859580Y-73319047D02*
X171716723Y-73414285D01*
X171716723Y-73414285D02*
X171526247Y-73461904D01*
X171526247Y-73461904D02*
X171145295Y-73461904D01*
X171145295Y-73461904D02*
X171050057Y-73414285D01*
X171050057Y-73414285D02*
X171002438Y-73366666D01*
X171002438Y-73366666D02*
X170954819Y-73271428D01*
X170954819Y-73271428D02*
X170954819Y-73080952D01*
X170954819Y-73080952D02*
X171002438Y-72985714D01*
X171002438Y-72985714D02*
X171050057Y-72938095D01*
X171050057Y-72938095D02*
X171145295Y-72890476D01*
X171145295Y-72890476D02*
X171383390Y-72890476D01*
X171383390Y-72890476D02*
X171478628Y-72938095D01*
X171478628Y-72938095D02*
X171526247Y-72985714D01*
X171526247Y-72985714D02*
X171573866Y-73080952D01*
X171573866Y-73080952D02*
X171573866Y-73271428D01*
X171573866Y-73271428D02*
X171526247Y-73366666D01*
X171526247Y-73366666D02*
X171478628Y-73414285D01*
X171478628Y-73414285D02*
X171383390Y-73461904D01*
X167142857Y-84394819D02*
X167476190Y-83918628D01*
X167714285Y-84394819D02*
X167714285Y-83394819D01*
X167714285Y-83394819D02*
X167333333Y-83394819D01*
X167333333Y-83394819D02*
X167238095Y-83442438D01*
X167238095Y-83442438D02*
X167190476Y-83490057D01*
X167190476Y-83490057D02*
X167142857Y-83585295D01*
X167142857Y-83585295D02*
X167142857Y-83728152D01*
X167142857Y-83728152D02*
X167190476Y-83823390D01*
X167190476Y-83823390D02*
X167238095Y-83871009D01*
X167238095Y-83871009D02*
X167333333Y-83918628D01*
X167333333Y-83918628D02*
X167714285Y-83918628D01*
X166809523Y-83394819D02*
X166142857Y-83394819D01*
X166142857Y-83394819D02*
X166571428Y-84394819D01*
X165857142Y-83394819D02*
X165190476Y-83394819D01*
X165190476Y-83394819D02*
X165619047Y-84394819D01*
X151004819Y-81461905D02*
X150004819Y-81461905D01*
X150004819Y-81461905D02*
X150004819Y-81700000D01*
X150004819Y-81700000D02*
X150052438Y-81842857D01*
X150052438Y-81842857D02*
X150147676Y-81938095D01*
X150147676Y-81938095D02*
X150242914Y-81985714D01*
X150242914Y-81985714D02*
X150433390Y-82033333D01*
X150433390Y-82033333D02*
X150576247Y-82033333D01*
X150576247Y-82033333D02*
X150766723Y-81985714D01*
X150766723Y-81985714D02*
X150861961Y-81938095D01*
X150861961Y-81938095D02*
X150957200Y-81842857D01*
X150957200Y-81842857D02*
X151004819Y-81700000D01*
X151004819Y-81700000D02*
X151004819Y-81461905D01*
X150433390Y-82604762D02*
X150385771Y-82509524D01*
X150385771Y-82509524D02*
X150338152Y-82461905D01*
X150338152Y-82461905D02*
X150242914Y-82414286D01*
X150242914Y-82414286D02*
X150195295Y-82414286D01*
X150195295Y-82414286D02*
X150100057Y-82461905D01*
X150100057Y-82461905D02*
X150052438Y-82509524D01*
X150052438Y-82509524D02*
X150004819Y-82604762D01*
X150004819Y-82604762D02*
X150004819Y-82795238D01*
X150004819Y-82795238D02*
X150052438Y-82890476D01*
X150052438Y-82890476D02*
X150100057Y-82938095D01*
X150100057Y-82938095D02*
X150195295Y-82985714D01*
X150195295Y-82985714D02*
X150242914Y-82985714D01*
X150242914Y-82985714D02*
X150338152Y-82938095D01*
X150338152Y-82938095D02*
X150385771Y-82890476D01*
X150385771Y-82890476D02*
X150433390Y-82795238D01*
X150433390Y-82795238D02*
X150433390Y-82604762D01*
X150433390Y-82604762D02*
X150481009Y-82509524D01*
X150481009Y-82509524D02*
X150528628Y-82461905D01*
X150528628Y-82461905D02*
X150623866Y-82414286D01*
X150623866Y-82414286D02*
X150814342Y-82414286D01*
X150814342Y-82414286D02*
X150909580Y-82461905D01*
X150909580Y-82461905D02*
X150957200Y-82509524D01*
X150957200Y-82509524D02*
X151004819Y-82604762D01*
X151004819Y-82604762D02*
X151004819Y-82795238D01*
X151004819Y-82795238D02*
X150957200Y-82890476D01*
X150957200Y-82890476D02*
X150909580Y-82938095D01*
X150909580Y-82938095D02*
X150814342Y-82985714D01*
X150814342Y-82985714D02*
X150623866Y-82985714D01*
X150623866Y-82985714D02*
X150528628Y-82938095D01*
X150528628Y-82938095D02*
X150481009Y-82890476D01*
X150481009Y-82890476D02*
X150433390Y-82795238D01*
X161859580Y-71557142D02*
X161907200Y-71509523D01*
X161907200Y-71509523D02*
X161954819Y-71366666D01*
X161954819Y-71366666D02*
X161954819Y-71271428D01*
X161954819Y-71271428D02*
X161907200Y-71128571D01*
X161907200Y-71128571D02*
X161811961Y-71033333D01*
X161811961Y-71033333D02*
X161716723Y-70985714D01*
X161716723Y-70985714D02*
X161526247Y-70938095D01*
X161526247Y-70938095D02*
X161383390Y-70938095D01*
X161383390Y-70938095D02*
X161192914Y-70985714D01*
X161192914Y-70985714D02*
X161097676Y-71033333D01*
X161097676Y-71033333D02*
X161002438Y-71128571D01*
X161002438Y-71128571D02*
X160954819Y-71271428D01*
X160954819Y-71271428D02*
X160954819Y-71366666D01*
X160954819Y-71366666D02*
X161002438Y-71509523D01*
X161002438Y-71509523D02*
X161050057Y-71557142D01*
X160954819Y-72461904D02*
X160954819Y-71985714D01*
X160954819Y-71985714D02*
X161431009Y-71938095D01*
X161431009Y-71938095D02*
X161383390Y-71985714D01*
X161383390Y-71985714D02*
X161335771Y-72080952D01*
X161335771Y-72080952D02*
X161335771Y-72319047D01*
X161335771Y-72319047D02*
X161383390Y-72414285D01*
X161383390Y-72414285D02*
X161431009Y-72461904D01*
X161431009Y-72461904D02*
X161526247Y-72509523D01*
X161526247Y-72509523D02*
X161764342Y-72509523D01*
X161764342Y-72509523D02*
X161859580Y-72461904D01*
X161859580Y-72461904D02*
X161907200Y-72414285D01*
X161907200Y-72414285D02*
X161954819Y-72319047D01*
X161954819Y-72319047D02*
X161954819Y-72080952D01*
X161954819Y-72080952D02*
X161907200Y-71985714D01*
X161907200Y-71985714D02*
X161859580Y-71938095D01*
X161288152Y-73366666D02*
X161954819Y-73366666D01*
X160907200Y-73128571D02*
X161621485Y-72890476D01*
X161621485Y-72890476D02*
X161621485Y-73509523D01*
X180692857Y-88054819D02*
X181026190Y-87578628D01*
X181264285Y-88054819D02*
X181264285Y-87054819D01*
X181264285Y-87054819D02*
X180883333Y-87054819D01*
X180883333Y-87054819D02*
X180788095Y-87102438D01*
X180788095Y-87102438D02*
X180740476Y-87150057D01*
X180740476Y-87150057D02*
X180692857Y-87245295D01*
X180692857Y-87245295D02*
X180692857Y-87388152D01*
X180692857Y-87388152D02*
X180740476Y-87483390D01*
X180740476Y-87483390D02*
X180788095Y-87531009D01*
X180788095Y-87531009D02*
X180883333Y-87578628D01*
X180883333Y-87578628D02*
X181264285Y-87578628D01*
X179835714Y-87388152D02*
X179835714Y-88054819D01*
X180073809Y-87007200D02*
X180311904Y-87721485D01*
X180311904Y-87721485D02*
X179692857Y-87721485D01*
X178788095Y-88054819D02*
X179359523Y-88054819D01*
X179073809Y-88054819D02*
X179073809Y-87054819D01*
X179073809Y-87054819D02*
X179169047Y-87197676D01*
X179169047Y-87197676D02*
X179264285Y-87292914D01*
X179264285Y-87292914D02*
X179359523Y-87340533D01*
X103303670Y-65839540D02*
X103202655Y-65267121D01*
X103707731Y-65435479D02*
X103000624Y-64728373D01*
X103000624Y-64728373D02*
X102731250Y-64997747D01*
X102731250Y-64997747D02*
X102697578Y-65098762D01*
X102697578Y-65098762D02*
X102697578Y-65166105D01*
X102697578Y-65166105D02*
X102731250Y-65267121D01*
X102731250Y-65267121D02*
X102832265Y-65368136D01*
X102832265Y-65368136D02*
X102933281Y-65401808D01*
X102933281Y-65401808D02*
X103000624Y-65401808D01*
X103000624Y-65401808D02*
X103101639Y-65368136D01*
X103101639Y-65368136D02*
X103371013Y-65098762D01*
X101956800Y-65772197D02*
X102293517Y-65435479D01*
X102293517Y-65435479D02*
X102663907Y-65738525D01*
X102663907Y-65738525D02*
X102596563Y-65738525D01*
X102596563Y-65738525D02*
X102495548Y-65772197D01*
X102495548Y-65772197D02*
X102327189Y-65940556D01*
X102327189Y-65940556D02*
X102293517Y-66041571D01*
X102293517Y-66041571D02*
X102293517Y-66108914D01*
X102293517Y-66108914D02*
X102327189Y-66209930D01*
X102327189Y-66209930D02*
X102495548Y-66378288D01*
X102495548Y-66378288D02*
X102596563Y-66411960D01*
X102596563Y-66411960D02*
X102663907Y-66411960D01*
X102663907Y-66411960D02*
X102764922Y-66378288D01*
X102764922Y-66378288D02*
X102933281Y-66209930D01*
X102933281Y-66209930D02*
X102966952Y-66108914D01*
X102966952Y-66108914D02*
X102966952Y-66041571D01*
X174619141Y-91504819D02*
X174952474Y-91028628D01*
X175190569Y-91504819D02*
X175190569Y-90504819D01*
X175190569Y-90504819D02*
X174809617Y-90504819D01*
X174809617Y-90504819D02*
X174714379Y-90552438D01*
X174714379Y-90552438D02*
X174666760Y-90600057D01*
X174666760Y-90600057D02*
X174619141Y-90695295D01*
X174619141Y-90695295D02*
X174619141Y-90838152D01*
X174619141Y-90838152D02*
X174666760Y-90933390D01*
X174666760Y-90933390D02*
X174714379Y-90981009D01*
X174714379Y-90981009D02*
X174809617Y-91028628D01*
X174809617Y-91028628D02*
X175190569Y-91028628D01*
X173666760Y-91504819D02*
X174238188Y-91504819D01*
X173952474Y-91504819D02*
X173952474Y-90504819D01*
X173952474Y-90504819D02*
X174047712Y-90647676D01*
X174047712Y-90647676D02*
X174142950Y-90742914D01*
X174142950Y-90742914D02*
X174238188Y-90790533D01*
X173190569Y-91504819D02*
X173000093Y-91504819D01*
X173000093Y-91504819D02*
X172904855Y-91457200D01*
X172904855Y-91457200D02*
X172857236Y-91409580D01*
X172857236Y-91409580D02*
X172761998Y-91266723D01*
X172761998Y-91266723D02*
X172714379Y-91076247D01*
X172714379Y-91076247D02*
X172714379Y-90695295D01*
X172714379Y-90695295D02*
X172761998Y-90600057D01*
X172761998Y-90600057D02*
X172809617Y-90552438D01*
X172809617Y-90552438D02*
X172904855Y-90504819D01*
X172904855Y-90504819D02*
X173095331Y-90504819D01*
X173095331Y-90504819D02*
X173190569Y-90552438D01*
X173190569Y-90552438D02*
X173238188Y-90600057D01*
X173238188Y-90600057D02*
X173285807Y-90695295D01*
X173285807Y-90695295D02*
X173285807Y-90933390D01*
X173285807Y-90933390D02*
X173238188Y-91028628D01*
X173238188Y-91028628D02*
X173190569Y-91076247D01*
X173190569Y-91076247D02*
X173095331Y-91123866D01*
X173095331Y-91123866D02*
X172904855Y-91123866D01*
X172904855Y-91123866D02*
X172809617Y-91076247D01*
X172809617Y-91076247D02*
X172761998Y-91028628D01*
X172761998Y-91028628D02*
X172714379Y-90933390D01*
X164654819Y-76357142D02*
X164178628Y-76023809D01*
X164654819Y-75785714D02*
X163654819Y-75785714D01*
X163654819Y-75785714D02*
X163654819Y-76166666D01*
X163654819Y-76166666D02*
X163702438Y-76261904D01*
X163702438Y-76261904D02*
X163750057Y-76309523D01*
X163750057Y-76309523D02*
X163845295Y-76357142D01*
X163845295Y-76357142D02*
X163988152Y-76357142D01*
X163988152Y-76357142D02*
X164083390Y-76309523D01*
X164083390Y-76309523D02*
X164131009Y-76261904D01*
X164131009Y-76261904D02*
X164178628Y-76166666D01*
X164178628Y-76166666D02*
X164178628Y-75785714D01*
X163654819Y-77214285D02*
X163654819Y-77023809D01*
X163654819Y-77023809D02*
X163702438Y-76928571D01*
X163702438Y-76928571D02*
X163750057Y-76880952D01*
X163750057Y-76880952D02*
X163892914Y-76785714D01*
X163892914Y-76785714D02*
X164083390Y-76738095D01*
X164083390Y-76738095D02*
X164464342Y-76738095D01*
X164464342Y-76738095D02*
X164559580Y-76785714D01*
X164559580Y-76785714D02*
X164607200Y-76833333D01*
X164607200Y-76833333D02*
X164654819Y-76928571D01*
X164654819Y-76928571D02*
X164654819Y-77119047D01*
X164654819Y-77119047D02*
X164607200Y-77214285D01*
X164607200Y-77214285D02*
X164559580Y-77261904D01*
X164559580Y-77261904D02*
X164464342Y-77309523D01*
X164464342Y-77309523D02*
X164226247Y-77309523D01*
X164226247Y-77309523D02*
X164131009Y-77261904D01*
X164131009Y-77261904D02*
X164083390Y-77214285D01*
X164083390Y-77214285D02*
X164035771Y-77119047D01*
X164035771Y-77119047D02*
X164035771Y-76928571D01*
X164035771Y-76928571D02*
X164083390Y-76833333D01*
X164083390Y-76833333D02*
X164131009Y-76785714D01*
X164131009Y-76785714D02*
X164226247Y-76738095D01*
X163654819Y-78166666D02*
X163654819Y-77976190D01*
X163654819Y-77976190D02*
X163702438Y-77880952D01*
X163702438Y-77880952D02*
X163750057Y-77833333D01*
X163750057Y-77833333D02*
X163892914Y-77738095D01*
X163892914Y-77738095D02*
X164083390Y-77690476D01*
X164083390Y-77690476D02*
X164464342Y-77690476D01*
X164464342Y-77690476D02*
X164559580Y-77738095D01*
X164559580Y-77738095D02*
X164607200Y-77785714D01*
X164607200Y-77785714D02*
X164654819Y-77880952D01*
X164654819Y-77880952D02*
X164654819Y-78071428D01*
X164654819Y-78071428D02*
X164607200Y-78166666D01*
X164607200Y-78166666D02*
X164559580Y-78214285D01*
X164559580Y-78214285D02*
X164464342Y-78261904D01*
X164464342Y-78261904D02*
X164226247Y-78261904D01*
X164226247Y-78261904D02*
X164131009Y-78214285D01*
X164131009Y-78214285D02*
X164083390Y-78166666D01*
X164083390Y-78166666D02*
X164035771Y-78071428D01*
X164035771Y-78071428D02*
X164035771Y-77880952D01*
X164035771Y-77880952D02*
X164083390Y-77785714D01*
X164083390Y-77785714D02*
X164131009Y-77738095D01*
X164131009Y-77738095D02*
X164226247Y-77690476D01*
X173404819Y-136033333D02*
X172928628Y-135700000D01*
X173404819Y-135461905D02*
X172404819Y-135461905D01*
X172404819Y-135461905D02*
X172404819Y-135842857D01*
X172404819Y-135842857D02*
X172452438Y-135938095D01*
X172452438Y-135938095D02*
X172500057Y-135985714D01*
X172500057Y-135985714D02*
X172595295Y-136033333D01*
X172595295Y-136033333D02*
X172738152Y-136033333D01*
X172738152Y-136033333D02*
X172833390Y-135985714D01*
X172833390Y-135985714D02*
X172881009Y-135938095D01*
X172881009Y-135938095D02*
X172928628Y-135842857D01*
X172928628Y-135842857D02*
X172928628Y-135461905D01*
X172404819Y-136366667D02*
X172404819Y-137033333D01*
X172404819Y-137033333D02*
X173404819Y-136604762D01*
X169654819Y-76357142D02*
X169178628Y-76023809D01*
X169654819Y-75785714D02*
X168654819Y-75785714D01*
X168654819Y-75785714D02*
X168654819Y-76166666D01*
X168654819Y-76166666D02*
X168702438Y-76261904D01*
X168702438Y-76261904D02*
X168750057Y-76309523D01*
X168750057Y-76309523D02*
X168845295Y-76357142D01*
X168845295Y-76357142D02*
X168988152Y-76357142D01*
X168988152Y-76357142D02*
X169083390Y-76309523D01*
X169083390Y-76309523D02*
X169131009Y-76261904D01*
X169131009Y-76261904D02*
X169178628Y-76166666D01*
X169178628Y-76166666D02*
X169178628Y-75785714D01*
X168654819Y-77214285D02*
X168654819Y-77023809D01*
X168654819Y-77023809D02*
X168702438Y-76928571D01*
X168702438Y-76928571D02*
X168750057Y-76880952D01*
X168750057Y-76880952D02*
X168892914Y-76785714D01*
X168892914Y-76785714D02*
X169083390Y-76738095D01*
X169083390Y-76738095D02*
X169464342Y-76738095D01*
X169464342Y-76738095D02*
X169559580Y-76785714D01*
X169559580Y-76785714D02*
X169607200Y-76833333D01*
X169607200Y-76833333D02*
X169654819Y-76928571D01*
X169654819Y-76928571D02*
X169654819Y-77119047D01*
X169654819Y-77119047D02*
X169607200Y-77214285D01*
X169607200Y-77214285D02*
X169559580Y-77261904D01*
X169559580Y-77261904D02*
X169464342Y-77309523D01*
X169464342Y-77309523D02*
X169226247Y-77309523D01*
X169226247Y-77309523D02*
X169131009Y-77261904D01*
X169131009Y-77261904D02*
X169083390Y-77214285D01*
X169083390Y-77214285D02*
X169035771Y-77119047D01*
X169035771Y-77119047D02*
X169035771Y-76928571D01*
X169035771Y-76928571D02*
X169083390Y-76833333D01*
X169083390Y-76833333D02*
X169131009Y-76785714D01*
X169131009Y-76785714D02*
X169226247Y-76738095D01*
X168750057Y-77690476D02*
X168702438Y-77738095D01*
X168702438Y-77738095D02*
X168654819Y-77833333D01*
X168654819Y-77833333D02*
X168654819Y-78071428D01*
X168654819Y-78071428D02*
X168702438Y-78166666D01*
X168702438Y-78166666D02*
X168750057Y-78214285D01*
X168750057Y-78214285D02*
X168845295Y-78261904D01*
X168845295Y-78261904D02*
X168940533Y-78261904D01*
X168940533Y-78261904D02*
X169083390Y-78214285D01*
X169083390Y-78214285D02*
X169654819Y-77642857D01*
X169654819Y-77642857D02*
X169654819Y-78261904D01*
X153754819Y-76307142D02*
X153278628Y-75973809D01*
X153754819Y-75735714D02*
X152754819Y-75735714D01*
X152754819Y-75735714D02*
X152754819Y-76116666D01*
X152754819Y-76116666D02*
X152802438Y-76211904D01*
X152802438Y-76211904D02*
X152850057Y-76259523D01*
X152850057Y-76259523D02*
X152945295Y-76307142D01*
X152945295Y-76307142D02*
X153088152Y-76307142D01*
X153088152Y-76307142D02*
X153183390Y-76259523D01*
X153183390Y-76259523D02*
X153231009Y-76211904D01*
X153231009Y-76211904D02*
X153278628Y-76116666D01*
X153278628Y-76116666D02*
X153278628Y-75735714D01*
X152754819Y-77211904D02*
X152754819Y-76735714D01*
X152754819Y-76735714D02*
X153231009Y-76688095D01*
X153231009Y-76688095D02*
X153183390Y-76735714D01*
X153183390Y-76735714D02*
X153135771Y-76830952D01*
X153135771Y-76830952D02*
X153135771Y-77069047D01*
X153135771Y-77069047D02*
X153183390Y-77164285D01*
X153183390Y-77164285D02*
X153231009Y-77211904D01*
X153231009Y-77211904D02*
X153326247Y-77259523D01*
X153326247Y-77259523D02*
X153564342Y-77259523D01*
X153564342Y-77259523D02*
X153659580Y-77211904D01*
X153659580Y-77211904D02*
X153707200Y-77164285D01*
X153707200Y-77164285D02*
X153754819Y-77069047D01*
X153754819Y-77069047D02*
X153754819Y-76830952D01*
X153754819Y-76830952D02*
X153707200Y-76735714D01*
X153707200Y-76735714D02*
X153659580Y-76688095D01*
X152754819Y-78116666D02*
X152754819Y-77926190D01*
X152754819Y-77926190D02*
X152802438Y-77830952D01*
X152802438Y-77830952D02*
X152850057Y-77783333D01*
X152850057Y-77783333D02*
X152992914Y-77688095D01*
X152992914Y-77688095D02*
X153183390Y-77640476D01*
X153183390Y-77640476D02*
X153564342Y-77640476D01*
X153564342Y-77640476D02*
X153659580Y-77688095D01*
X153659580Y-77688095D02*
X153707200Y-77735714D01*
X153707200Y-77735714D02*
X153754819Y-77830952D01*
X153754819Y-77830952D02*
X153754819Y-78021428D01*
X153754819Y-78021428D02*
X153707200Y-78116666D01*
X153707200Y-78116666D02*
X153659580Y-78164285D01*
X153659580Y-78164285D02*
X153564342Y-78211904D01*
X153564342Y-78211904D02*
X153326247Y-78211904D01*
X153326247Y-78211904D02*
X153231009Y-78164285D01*
X153231009Y-78164285D02*
X153183390Y-78116666D01*
X153183390Y-78116666D02*
X153135771Y-78021428D01*
X153135771Y-78021428D02*
X153135771Y-77830952D01*
X153135771Y-77830952D02*
X153183390Y-77735714D01*
X153183390Y-77735714D02*
X153231009Y-77688095D01*
X153231009Y-77688095D02*
X153326247Y-77640476D01*
D11*
%TO.C,R49*%
X173853641Y-85220000D02*
X173546359Y-85220000D01*
X173853641Y-85980000D02*
X173546359Y-85980000D01*
%TO.C,D6*%
X178740000Y-132550000D02*
X178740000Y-137610000D01*
X178740000Y-137610000D02*
X181460000Y-137610000D01*
X181460000Y-132550000D02*
X181460000Y-137610000D01*
%TO.C,Q2*%
X175700000Y-131390000D02*
X176350000Y-131390000D01*
X175700000Y-134510000D02*
X176350000Y-134510000D01*
X177000000Y-131390000D02*
X176350000Y-131390000D01*
X177000000Y-134510000D02*
X176350000Y-134510000D01*
X175427500Y-134790000D02*
X174947500Y-134790000D01*
X175187500Y-134460000D01*
X175427500Y-134790000D01*
G36*
X175427500Y-134790000D02*
G01*
X174947500Y-134790000D01*
X175187500Y-134460000D01*
X175427500Y-134790000D01*
G37*
%TO.C,R76*%
X170606359Y-82420000D02*
X170913641Y-82420000D01*
X170606359Y-83180000D02*
X170913641Y-83180000D01*
%TO.C,C8*%
X158929664Y-90140000D02*
X159145336Y-90140000D01*
X158929664Y-90860000D02*
X159145336Y-90860000D01*
%TO.C,R46*%
X173853641Y-84220000D02*
X173546359Y-84220000D01*
X173853641Y-84980000D02*
X173546359Y-84980000D01*
%TO.C,C9*%
X158909664Y-91490001D02*
X159125336Y-91490001D01*
X158909664Y-92210001D02*
X159125336Y-92210001D01*
%TO.C,R6*%
X102322659Y-68139940D02*
X102539940Y-67922659D01*
X102860060Y-68677341D02*
X103077341Y-68460060D01*
%TO.C,R47*%
X173853641Y-87220000D02*
X173546359Y-87220000D01*
X173853641Y-87980000D02*
X173546359Y-87980000D01*
%TO.C,R53*%
X153570000Y-94803641D02*
X153570000Y-94496359D01*
X154330000Y-94803641D02*
X154330000Y-94496359D01*
%TO.C,D7*%
X176550001Y-71440000D02*
X175150001Y-71440000D01*
X176550001Y-73760000D02*
X175140001Y-73760000D01*
X175010001Y-74040000D02*
X174530001Y-74040000D01*
X174770001Y-73710000D01*
X175010001Y-74040000D01*
G36*
X175010001Y-74040000D02*
G01*
X174530001Y-74040000D01*
X174770001Y-73710000D01*
X175010001Y-74040000D01*
G37*
%TO.C,R64*%
X165120000Y-76574359D02*
X165120000Y-76881641D01*
X165880000Y-76574359D02*
X165880000Y-76881641D01*
%TO.C,D17*%
X170890000Y-112650000D02*
X170890000Y-115950000D01*
X176400000Y-112650000D02*
X170890000Y-112650000D01*
X176400000Y-115950000D02*
X170890000Y-115950000D01*
%TO.C,R59*%
X151520000Y-74496359D02*
X151520000Y-74803641D01*
X152280000Y-74496359D02*
X152280000Y-74803641D01*
%TO.C,R60*%
X170120000Y-76574359D02*
X170120000Y-76881641D01*
X170880000Y-76574359D02*
X170880000Y-76881641D01*
%TO.C,R3*%
X99822659Y-65639940D02*
X100039940Y-65422659D01*
X100360060Y-66177341D02*
X100577341Y-65960060D01*
%TO.C,C52*%
X166140000Y-74592164D02*
X166140000Y-74807836D01*
X166860000Y-74592164D02*
X166860000Y-74807836D01*
%TO.C,R42*%
X177496359Y-84220000D02*
X177803641Y-84220000D01*
X177496359Y-84980000D02*
X177803641Y-84980000D01*
%TO.C,C48*%
X153039999Y-74562165D02*
X153039999Y-74777837D01*
X153759999Y-74562165D02*
X153759999Y-74777837D01*
%TO.C,R57*%
X154020000Y-74496359D02*
X154020000Y-74803641D01*
X154780000Y-74496359D02*
X154780000Y-74803641D01*
%TO.C,C55*%
X158640000Y-74592164D02*
X158640000Y-74807836D01*
X159360000Y-74592164D02*
X159360000Y-74807836D01*
%TO.C,C4*%
X155644316Y-96128800D02*
X155796819Y-95976297D01*
X156153433Y-96637917D02*
X156305936Y-96485414D01*
%TO.C,Y2*%
X158308579Y-96696016D02*
X157353984Y-95741421D01*
X159546016Y-95458579D02*
X158591421Y-94503984D01*
%TO.C,R48*%
X173853641Y-86220000D02*
X173546359Y-86220000D01*
X173853641Y-86980000D02*
X173546359Y-86980000D01*
%TO.C,C7*%
X158929664Y-92490000D02*
X159145336Y-92490000D01*
X158929664Y-93210000D02*
X159145336Y-93210000D01*
%TO.C,U3*%
X162590000Y-87490000D02*
X163040000Y-87490000D01*
X162590000Y-87940000D02*
X162590000Y-87490000D01*
X162590000Y-94260000D02*
X162590000Y-94710000D01*
X162590000Y-94710000D02*
X163040000Y-94710000D01*
X169810000Y-87490000D02*
X169360000Y-87490000D01*
X169810000Y-87940000D02*
X169810000Y-87490000D01*
X169810000Y-94260000D02*
X169810000Y-94710000D01*
X169810000Y-94710000D02*
X169360000Y-94710000D01*
X162340000Y-94730000D02*
X161660000Y-94730000D01*
X162000000Y-94260000D01*
X162340000Y-94730000D01*
G36*
X162340000Y-94730000D02*
G01*
X161660000Y-94730000D01*
X162000000Y-94260000D01*
X162340000Y-94730000D01*
G37*
%TO.C,R43*%
X170396359Y-86220000D02*
X170703641Y-86220000D01*
X170396359Y-86980000D02*
X170703641Y-86980000D01*
%TO.C,R51*%
X151070000Y-94803641D02*
X151070000Y-94496359D01*
X151830000Y-94803641D02*
X151830000Y-94496359D01*
%TO.C,C1*%
X154871693Y-88130810D02*
X154719190Y-87978307D01*
X155380810Y-87621693D02*
X155228307Y-87469190D01*
%TO.C,C53*%
X163640000Y-74582164D02*
X163640000Y-74797836D01*
X164360000Y-74582164D02*
X164360000Y-74797836D01*
%TO.C,C2*%
X157412083Y-97896567D02*
X157564586Y-97744064D01*
X157921200Y-98405684D02*
X158073703Y-98253181D01*
%TO.C,R68*%
X160120001Y-76574359D02*
X160120001Y-76881641D01*
X160880001Y-76574359D02*
X160880001Y-76881641D01*
%TO.C,R22*%
X171120000Y-99353641D02*
X171120000Y-99046359D01*
X171880000Y-99353641D02*
X171880000Y-99046359D01*
%TO.C,R50*%
X151070000Y-92803642D02*
X151070000Y-92496360D01*
X151830000Y-92803642D02*
X151830000Y-92496360D01*
%TO.C,R63*%
X167620000Y-74546359D02*
X167620000Y-74853641D01*
X168380000Y-74546359D02*
X168380000Y-74853641D01*
%TO.C,R70*%
X157620001Y-76546359D02*
X157620001Y-76853641D01*
X158380001Y-76546359D02*
X158380001Y-76853641D01*
%TO.C,R28*%
X155120000Y-76546359D02*
X155120000Y-76853641D01*
X155880000Y-76546359D02*
X155880000Y-76853641D01*
%TO.C,R71*%
X157620000Y-74546359D02*
X157620000Y-74853641D01*
X158380000Y-74546359D02*
X158380000Y-74853641D01*
%TO.C,C50*%
X150540000Y-74542164D02*
X150540000Y-74757836D01*
X151260000Y-74542164D02*
X151260000Y-74757836D01*
%TO.C,R61*%
X170120000Y-74546359D02*
X170120000Y-74853641D01*
X170880000Y-74546359D02*
X170880000Y-74853641D01*
%TO.C,R8*%
X174970000Y-136046359D02*
X174970000Y-136353641D01*
X175730000Y-136046359D02*
X175730000Y-136353641D01*
%TO.C,R4*%
X98622659Y-64439940D02*
X98839940Y-64222659D01*
X99160060Y-64977341D02*
X99377341Y-64760060D01*
%TO.C,R67*%
X162620000Y-74546359D02*
X162620000Y-74853641D01*
X163380000Y-74546359D02*
X163380000Y-74853641D01*
%TO.C,R45*%
X175496359Y-84220000D02*
X175803641Y-84220000D01*
X175496359Y-84980000D02*
X175803641Y-84980000D01*
%TO.C,C47*%
X168712164Y-82430000D02*
X168927836Y-82430000D01*
X168712164Y-83150000D02*
X168927836Y-83150000D01*
%TO.C,R69*%
X160120000Y-74546359D02*
X160120000Y-74853641D01*
X160880000Y-74546359D02*
X160880000Y-74853641D01*
%TO.C,C46*%
X152590000Y-94757836D02*
X152590000Y-94542164D01*
X153310000Y-94757836D02*
X153310000Y-94542164D01*
%TO.C,C51*%
X168640000Y-74592164D02*
X168640000Y-74807836D01*
X169360000Y-74592164D02*
X169360000Y-74807836D01*
%TO.C,R65*%
X165120000Y-74546359D02*
X165120000Y-74853641D01*
X165880000Y-74546359D02*
X165880000Y-74853641D01*
%TO.C,R44*%
X175496359Y-87220000D02*
X175803641Y-87220000D01*
X175496359Y-87980000D02*
X175803641Y-87980000D01*
%TO.C,R58*%
X151520000Y-76496360D02*
X151520000Y-76803642D01*
X152280000Y-76496360D02*
X152280000Y-76803642D01*
%TO.C,R52*%
X153570000Y-92868165D02*
X153570000Y-92560883D01*
X154330000Y-92868165D02*
X154330000Y-92560883D01*
%TO.C,C3*%
X158519190Y-84178307D02*
X158671693Y-84330810D01*
X159028307Y-83669190D02*
X159180810Y-83821693D01*
%TO.C,Y1*%
X156702513Y-88480940D02*
X159530940Y-85652513D01*
X159530940Y-85652513D02*
X157197487Y-83319060D01*
%TO.C,Q1*%
X174150000Y-99690000D02*
X174800000Y-99690000D01*
X174150000Y-102810000D02*
X174800000Y-102810000D01*
X175450000Y-99690000D02*
X174800000Y-99690000D01*
X175450000Y-102810000D02*
X174800000Y-102810000D01*
X175962500Y-99740000D02*
X175722500Y-99410000D01*
X176202500Y-99410000D01*
X175962500Y-99740000D01*
G36*
X175962500Y-99740000D02*
G01*
X175722500Y-99410000D01*
X176202500Y-99410000D01*
X175962500Y-99740000D01*
G37*
%TO.C,L1*%
X156527500Y-92037258D02*
X156527500Y-91562742D01*
X157572500Y-92037258D02*
X157572500Y-91562742D01*
%TO.C,R2*%
X170019999Y-99353641D02*
X170019999Y-99046359D01*
X170779999Y-99353641D02*
X170779999Y-99046359D01*
%TO.C,C45*%
X150090000Y-94757836D02*
X150090000Y-94542164D01*
X150810000Y-94757836D02*
X150810000Y-94542164D01*
%TO.C,C49*%
X171140000Y-74592164D02*
X171140000Y-74807836D01*
X171860000Y-74592164D02*
X171860000Y-74807836D01*
%TO.C,R77*%
X168656359Y-83410000D02*
X168963641Y-83410000D01*
X168656359Y-84170000D02*
X168963641Y-84170000D01*
%TO.C,D8*%
X151640000Y-81500000D02*
X151640000Y-82900000D01*
X153960000Y-81500000D02*
X153960000Y-82910000D01*
X154240000Y-83520000D02*
X153910000Y-83280000D01*
X154240000Y-83040000D01*
X154240000Y-83520000D01*
G36*
X154240000Y-83520000D02*
G01*
X153910000Y-83280000D01*
X154240000Y-83040000D01*
X154240000Y-83520000D01*
G37*
%TO.C,C54*%
X161140000Y-74592164D02*
X161140000Y-74807836D01*
X161860000Y-74592164D02*
X161860000Y-74807836D01*
%TO.C,R41*%
X177496359Y-87220000D02*
X177803641Y-87220000D01*
X177496359Y-87980000D02*
X177803641Y-87980000D01*
%TO.C,R5*%
X101072659Y-66889940D02*
X101289940Y-66672659D01*
X101610060Y-67427341D02*
X101827341Y-67210060D01*
%TO.C,R19*%
X173846359Y-89370000D02*
X174153641Y-89370000D01*
X173846359Y-90130000D02*
X174153641Y-90130000D01*
%TO.C,R66*%
X162620000Y-76574359D02*
X162620000Y-76881641D01*
X163380000Y-76574359D02*
X163380000Y-76881641D01*
%TO.C,R7*%
X173820000Y-136046359D02*
X173820000Y-136353641D01*
X174580000Y-136046359D02*
X174580000Y-136353641D01*
%TO.C,R62*%
X167620000Y-76574359D02*
X167620000Y-76881641D01*
X168380000Y-76574359D02*
X168380000Y-76881641D01*
%TO.C,R56*%
X154020001Y-76516359D02*
X154020001Y-76823641D01*
X154780001Y-76516359D02*
X154780001Y-76823641D01*
%TD*%
%LPC*%
D12*
%TO.C,F6*%
X116200000Y-80265000D03*
X112800000Y-80265000D03*
X116200000Y-93735000D03*
X112800000Y-93735000D03*
%TD*%
D13*
%TO.C,H3*%
X178000000Y-142000000D03*
D14*
X178000000Y-142000000D03*
%TD*%
D13*
%TO.C,H1*%
X96000000Y-78000000D03*
D14*
X96000000Y-78000000D03*
%TD*%
D15*
%TO.C,J8*%
X170500000Y-79450000D03*
D16*
X168000000Y-79450000D03*
X165500000Y-79450000D03*
X163000000Y-79450000D03*
X160500000Y-79450000D03*
X158000000Y-79450000D03*
X155500000Y-79450000D03*
%TD*%
D17*
%TO.C,J5*%
X125449999Y-130550000D03*
X114449999Y-130550000D03*
D18*
X122449999Y-125550000D03*
D19*
X117449999Y-125550000D03*
%TD*%
D20*
%TO.C,J7*%
X117850000Y-55250000D03*
X117850000Y-68750000D03*
D21*
X111850000Y-58400000D03*
D22*
X111850000Y-65600000D03*
%TD*%
D17*
%TO.C,J3*%
X139950000Y-130550000D03*
X128950000Y-130550000D03*
D18*
X136950000Y-125550000D03*
D19*
X131950000Y-125550000D03*
%TD*%
D13*
%TO.C,H4*%
X178000000Y-78000000D03*
D14*
X178000000Y-78000000D03*
%TD*%
D13*
%TO.C,H2*%
X96000000Y-142000000D03*
D14*
X96000000Y-142000000D03*
%TD*%
D23*
%TO.C,J10*%
X162400000Y-135900000D03*
X156000000Y-135900000D03*
%TD*%
D24*
%TO.C,R49*%
X173190001Y-85600000D03*
X174209999Y-85600000D03*
%TD*%
D25*
%TO.C,D6*%
X180100000Y-136650000D03*
X180100000Y-132250000D03*
%TD*%
D26*
%TO.C,Q2*%
X175412500Y-133900000D03*
X175412500Y-132000000D03*
X177287500Y-132950000D03*
%TD*%
D27*
%TO.C,R76*%
X171270000Y-82800000D03*
X170250000Y-82800000D03*
%TD*%
D28*
%TO.C,C8*%
X159517500Y-90500000D03*
X158557500Y-90500000D03*
%TD*%
D24*
%TO.C,R46*%
X173190001Y-84600000D03*
X174209999Y-84600000D03*
%TD*%
D28*
%TO.C,C9*%
X159497500Y-91850001D03*
X158537500Y-91850001D03*
%TD*%
D29*
%TO.C,R6*%
X103060624Y-67939376D03*
X102339376Y-68660624D03*
%TD*%
D24*
%TO.C,R47*%
X173190001Y-87600000D03*
X174209999Y-87600000D03*
%TD*%
D30*
%TO.C,R53*%
X153950000Y-94140000D03*
X153950000Y-95160000D03*
%TD*%
D31*
%TO.C,D7*%
X174900001Y-73250000D03*
X174900001Y-72600000D03*
X174900001Y-71950000D03*
X176800001Y-71950000D03*
X176800001Y-72600000D03*
X176800001Y-73250000D03*
%TD*%
D32*
%TO.C,R64*%
X165500000Y-77238000D03*
X165500000Y-76218000D03*
%TD*%
D33*
%TO.C,D17*%
X172400000Y-114300000D03*
X176400000Y-114300000D03*
%TD*%
D32*
%TO.C,R59*%
X151900000Y-75160000D03*
X151900000Y-74140000D03*
%TD*%
%TO.C,R60*%
X170500000Y-77238000D03*
X170500000Y-76218000D03*
%TD*%
D29*
%TO.C,R3*%
X100560624Y-65439376D03*
X99839376Y-66160624D03*
%TD*%
D34*
%TO.C,C52*%
X166500000Y-75180000D03*
X166500000Y-74220000D03*
%TD*%
D27*
%TO.C,R42*%
X178159999Y-84600000D03*
X177140001Y-84600000D03*
%TD*%
D34*
%TO.C,C48*%
X153399999Y-75150001D03*
X153399999Y-74190001D03*
%TD*%
D32*
%TO.C,R57*%
X154400000Y-75160000D03*
X154400000Y-74140000D03*
%TD*%
D34*
%TO.C,C55*%
X159000000Y-75180000D03*
X159000000Y-74220000D03*
%TD*%
D35*
%TO.C,C4*%
X156314537Y-95967696D03*
X155635715Y-96646518D03*
%TD*%
D36*
%TO.C,Y2*%
X159333883Y-96483883D03*
X157566117Y-94716117D03*
%TD*%
D24*
%TO.C,R48*%
X173190001Y-86600000D03*
X174209999Y-86600000D03*
%TD*%
D28*
%TO.C,C7*%
X159517500Y-92850000D03*
X158557500Y-92850000D03*
%TD*%
D37*
%TO.C,U3*%
X162037500Y-93850000D03*
X162037500Y-93350000D03*
X162037500Y-92850000D03*
X162037500Y-92350000D03*
X162037500Y-91850000D03*
X162037500Y-91350000D03*
X162037500Y-90850000D03*
X162037500Y-90350000D03*
X162037500Y-89850000D03*
X162037500Y-89350000D03*
X162037500Y-88850000D03*
X162037500Y-88350000D03*
D38*
X163450000Y-86937500D03*
X163950000Y-86937500D03*
X164450000Y-86937500D03*
X164950000Y-86937500D03*
X165450000Y-86937500D03*
X165950000Y-86937500D03*
X166450000Y-86937500D03*
X166950000Y-86937500D03*
X167450000Y-86937500D03*
X167950000Y-86937500D03*
X168450000Y-86937500D03*
X168950000Y-86937500D03*
D37*
X170362500Y-88350000D03*
X170362500Y-88850000D03*
X170362500Y-89350000D03*
X170362500Y-89850000D03*
X170362500Y-90350000D03*
X170362500Y-90850000D03*
X170362500Y-91350000D03*
X170362500Y-91850000D03*
X170362500Y-92350000D03*
X170362500Y-92850000D03*
X170362500Y-93350000D03*
X170362500Y-93850000D03*
D38*
X168950000Y-95262500D03*
X168450000Y-95262500D03*
X167950000Y-95262500D03*
X167450000Y-95262500D03*
X166950000Y-95262500D03*
X166450000Y-95262500D03*
X165950000Y-95262500D03*
X165450000Y-95262500D03*
X164950000Y-95262500D03*
X164450000Y-95262500D03*
X163950000Y-95262500D03*
X163450000Y-95262500D03*
%TD*%
D27*
%TO.C,R43*%
X171059999Y-86600000D03*
X170040001Y-86600000D03*
%TD*%
D30*
%TO.C,R51*%
X151450000Y-94140000D03*
X151450000Y-95160000D03*
%TD*%
D39*
%TO.C,C1*%
X154710589Y-87460589D03*
X155389411Y-88139411D03*
%TD*%
D34*
%TO.C,C53*%
X164000000Y-75170000D03*
X164000000Y-74210000D03*
%TD*%
D35*
%TO.C,C2*%
X158082304Y-97735463D03*
X157403482Y-98414285D03*
%TD*%
D32*
%TO.C,R68*%
X160500001Y-77238000D03*
X160500001Y-76218000D03*
%TD*%
D30*
%TO.C,R22*%
X171500000Y-98690000D03*
X171500000Y-99710000D03*
%TD*%
%TO.C,R50*%
X151450000Y-92140001D03*
X151450000Y-93160001D03*
%TD*%
D32*
%TO.C,R63*%
X168000000Y-75210000D03*
X168000000Y-74190000D03*
%TD*%
%TO.C,R70*%
X158000001Y-77210000D03*
X158000001Y-76190000D03*
%TD*%
%TO.C,R28*%
X155500000Y-77210000D03*
X155500000Y-76190000D03*
%TD*%
%TO.C,R71*%
X158000000Y-75210000D03*
X158000000Y-74190000D03*
%TD*%
D34*
%TO.C,C50*%
X150900000Y-75130000D03*
X150900000Y-74170000D03*
%TD*%
D32*
%TO.C,R61*%
X170500000Y-75210000D03*
X170500000Y-74190000D03*
%TD*%
%TO.C,R8*%
X175350000Y-136710000D03*
X175350000Y-135690000D03*
%TD*%
D29*
%TO.C,R4*%
X99360624Y-64239376D03*
X98639376Y-64960624D03*
%TD*%
D32*
%TO.C,R67*%
X163000000Y-75210000D03*
X163000000Y-74190000D03*
%TD*%
D27*
%TO.C,R45*%
X176159999Y-84600000D03*
X175140001Y-84600000D03*
%TD*%
D28*
%TO.C,C47*%
X169300000Y-82790000D03*
X168340000Y-82790000D03*
%TD*%
D32*
%TO.C,R69*%
X160500000Y-75210000D03*
X160500000Y-74190000D03*
%TD*%
D40*
%TO.C,C46*%
X152950000Y-94170000D03*
X152950000Y-95130000D03*
%TD*%
D34*
%TO.C,C51*%
X169000000Y-75180000D03*
X169000000Y-74220000D03*
%TD*%
D32*
%TO.C,R65*%
X165500000Y-75210000D03*
X165500000Y-74190000D03*
%TD*%
D27*
%TO.C,R44*%
X176159999Y-87600000D03*
X175140001Y-87600000D03*
%TD*%
D32*
%TO.C,R58*%
X151900000Y-77160001D03*
X151900000Y-76140001D03*
%TD*%
D30*
%TO.C,R52*%
X153950000Y-92204524D03*
X153950000Y-93224524D03*
%TD*%
D41*
%TO.C,C3*%
X159189411Y-84339411D03*
X158510589Y-83660589D03*
%TD*%
D42*
%TO.C,Y1*%
X158328858Y-85723223D03*
X156773223Y-87278858D03*
X155571142Y-86076777D03*
X157126777Y-84521142D03*
%TD*%
D43*
%TO.C,Q1*%
X175737500Y-100300000D03*
X175737500Y-102200000D03*
X173862500Y-101250000D03*
%TD*%
D44*
%TO.C,L1*%
X157050000Y-90975000D03*
X157050000Y-92625000D03*
%TD*%
D30*
%TO.C,R2*%
X170399999Y-98690000D03*
X170399999Y-99710000D03*
%TD*%
D40*
%TO.C,C45*%
X150450000Y-94170000D03*
X150450000Y-95130000D03*
%TD*%
D34*
%TO.C,C49*%
X171500000Y-75180000D03*
X171500000Y-74220000D03*
%TD*%
D27*
%TO.C,R77*%
X169320000Y-83790000D03*
X168300000Y-83790000D03*
%TD*%
D45*
%TO.C,D8*%
X153450000Y-83150000D03*
X152800000Y-83150000D03*
X152150000Y-83150000D03*
X152150000Y-81250000D03*
X152800000Y-81250000D03*
X153450000Y-81250000D03*
%TD*%
D34*
%TO.C,C54*%
X161500000Y-75180000D03*
X161500000Y-74220000D03*
%TD*%
D27*
%TO.C,R41*%
X178159999Y-87600000D03*
X177140001Y-87600000D03*
%TD*%
D29*
%TO.C,R5*%
X101810624Y-66689376D03*
X101089376Y-67410624D03*
%TD*%
D27*
%TO.C,R19*%
X174509999Y-89750000D03*
X173490001Y-89750000D03*
%TD*%
D32*
%TO.C,R66*%
X163000000Y-77238000D03*
X163000000Y-76218000D03*
%TD*%
%TO.C,R7*%
X174200000Y-136710000D03*
X174200000Y-135690000D03*
%TD*%
%TO.C,R62*%
X168000000Y-77238000D03*
X168000000Y-76218000D03*
%TD*%
%TO.C,R56*%
X154400001Y-77180000D03*
X154400001Y-76160000D03*
%TD*%
%LPD*%
M02*
