%TF.GenerationSoftware,KiCad,Pcbnew,8.0.7*%
%TF.CreationDate,2025-03-31T23:05:00-04:00*%
%TF.ProjectId,power,706f7765-722e-46b6-9963-61645f706362,1.1*%
%TF.SameCoordinates,Original*%
%TF.FileFunction,Copper,L2,Inr*%
%TF.FilePolarity,Positive*%
%FSLAX46Y46*%
G04 Gerber Fmt 4.6, Leading zero omitted, Abs format (unit mm)*
G04 Created by KiCad (PCBNEW 8.0.7) date 2025-03-31 23:05:00*
%MOMM*%
%LPD*%
G01*
G04 APERTURE LIST*
G04 Aperture macros list*
%AMRoundRect*
0 Rectangle with rounded corners*
0 $1 Rounding radius*
0 $2 $3 $4 $5 $6 $7 $8 $9 X,Y pos of 4 corners*
0 Add a 4 corners polygon primitive as box body*
4,1,4,$2,$3,$4,$5,$6,$7,$8,$9,$2,$3,0*
0 Add four circle primitives for the rounded corners*
1,1,$1+$1,$2,$3*
1,1,$1+$1,$4,$5*
1,1,$1+$1,$6,$7*
1,1,$1+$1,$8,$9*
0 Add four rect primitives between the rounded corners*
20,1,$1+$1,$2,$3,$4,$5,0*
20,1,$1+$1,$4,$5,$6,$7,0*
20,1,$1+$1,$6,$7,$8,$9,0*
20,1,$1+$1,$8,$9,$2,$3,0*%
G04 Aperture macros list end*
%TA.AperFunction,ComponentPad*%
%ADD10C,3.200000*%
%TD*%
%TA.AperFunction,ComponentPad*%
%ADD11C,3.600000*%
%TD*%
%TA.AperFunction,ComponentPad*%
%ADD12RoundRect,0.250000X0.600000X0.725000X-0.600000X0.725000X-0.600000X-0.725000X0.600000X-0.725000X0*%
%TD*%
%TA.AperFunction,ComponentPad*%
%ADD13O,1.700000X1.950000*%
%TD*%
%TA.AperFunction,ComponentPad*%
%ADD14C,1.400000*%
%TD*%
%TA.AperFunction,ComponentPad*%
%ADD15RoundRect,0.770000X0.980000X0.980000X-0.980000X0.980000X-0.980000X-0.980000X0.980000X-0.980000X0*%
%TD*%
%TA.AperFunction,ComponentPad*%
%ADD16C,3.500000*%
%TD*%
%TA.AperFunction,ComponentPad*%
%ADD17R,2.000000X0.900000*%
%TD*%
%TA.AperFunction,ComponentPad*%
%ADD18RoundRect,1.025000X-1.025000X1.025000X-1.025000X-1.025000X1.025000X-1.025000X1.025000X1.025000X0*%
%TD*%
%TA.AperFunction,ComponentPad*%
%ADD19C,4.100000*%
%TD*%
%TA.AperFunction,ViaPad*%
%ADD20C,0.450000*%
%TD*%
%TA.AperFunction,ViaPad*%
%ADD21C,1.000000*%
%TD*%
%TA.AperFunction,ViaPad*%
%ADD22C,2.000000*%
%TD*%
%TA.AperFunction,Conductor*%
%ADD23C,0.153000*%
%TD*%
G04 APERTURE END LIST*
D10*
%TO.N,+V_{batt_raw}*%
%TO.C,F6*%
X116200000Y-80265000D03*
X112800000Y-80265000D03*
%TO.N,+V_{batt_fused}*%
X116200000Y-93735000D03*
X112800000Y-93735000D03*
%TD*%
D11*
%TO.N,N/C*%
%TO.C,H3*%
X178000000Y-142000000D03*
%TD*%
%TO.N,N/C*%
%TO.C,H1*%
X96000000Y-78000000D03*
%TD*%
D12*
%TO.N,/input_connectors/BATT_BALANCE.CELL_6*%
%TO.C,J8*%
X170500000Y-79450000D03*
D13*
%TO.N,/input_connectors/BATT_BALANCE.CELL_5*%
X168000000Y-79450000D03*
%TO.N,/input_connectors/BATT_BALANCE.CELL_4*%
X165500000Y-79450000D03*
%TO.N,/input_connectors/BATT_BALANCE.CELL_3*%
X163000000Y-79450000D03*
%TO.N,/input_connectors/BATT_BALANCE.CELL_2*%
X160500000Y-79450000D03*
%TO.N,/input_connectors/BATT_BALANCE.CELL_1*%
X158000000Y-79450000D03*
%TO.N,Net-(J8-Pin_7)*%
X155500000Y-79450000D03*
%TD*%
D14*
%TO.N,*%
%TO.C,J5*%
X125449999Y-130550000D03*
X114449999Y-130550000D03*
D15*
%TO.N,GND*%
X122449999Y-125550000D03*
D16*
%TO.N,+BATT*%
X117449999Y-125550000D03*
%TD*%
D17*
%TO.N,*%
%TO.C,J7*%
X117850000Y-55250000D03*
X117850000Y-68750000D03*
D18*
%TO.N,GND*%
X111850000Y-58400000D03*
D19*
%TO.N,+V_{batt_raw}*%
X111850000Y-65600000D03*
%TD*%
D14*
%TO.N,*%
%TO.C,J3*%
X139950000Y-130550000D03*
X128950000Y-130550000D03*
D15*
%TO.N,GND*%
X136950000Y-125550000D03*
D16*
%TO.N,+BATT*%
X131950000Y-125550000D03*
%TD*%
D11*
%TO.N,N/C*%
%TO.C,H4*%
X178000000Y-78000000D03*
%TD*%
%TO.N,N/C*%
%TO.C,H2*%
X96000000Y-142000000D03*
%TD*%
D20*
%TO.N,GND*%
X149300000Y-138800000D03*
X108150000Y-141750000D03*
X150300000Y-137800000D03*
X109150000Y-141750000D03*
D21*
X147935000Y-119060000D03*
D20*
X151235001Y-125535001D03*
X140200000Y-109800000D03*
X160300001Y-137800000D03*
X151300000Y-138800000D03*
X166500000Y-74220000D03*
D21*
X94095000Y-119840000D03*
D20*
X179000000Y-127600001D03*
X179000000Y-120100001D03*
X166520000Y-93260000D03*
X158537500Y-91850001D03*
X171500000Y-74220000D03*
X159300000Y-141800000D03*
X126600000Y-110600000D03*
X94490001Y-103250000D03*
X139350000Y-75500000D03*
X113000001Y-104120000D03*
X124999999Y-81050000D03*
X149300000Y-139800001D03*
X179000000Y-114475001D03*
X96657359Y-66918019D03*
D21*
X94349999Y-113000000D03*
D20*
X146500000Y-106000000D03*
X150300000Y-138800000D03*
D21*
X147935000Y-121140000D03*
D20*
X146499999Y-80050000D03*
X131499999Y-79050000D03*
X138400000Y-109800000D03*
X175412500Y-132000000D03*
X159055385Y-110597484D03*
X151300000Y-141800000D03*
X96990001Y-93250000D03*
X97250000Y-95600000D03*
X96490000Y-94740000D03*
X165500000Y-74190001D03*
X132150000Y-75500000D03*
X170550000Y-112050000D03*
X139300000Y-109800000D03*
X108400000Y-82800000D03*
X126600001Y-111800000D03*
X158000000Y-74190001D03*
X131500000Y-105250000D03*
X156100000Y-90300000D03*
X160300000Y-139800000D03*
X179000000Y-126600001D03*
X124800000Y-110600000D03*
X149109999Y-129900000D03*
X139999999Y-80050000D03*
X139300000Y-110600000D03*
X141100000Y-110600000D03*
X174200000Y-135690000D03*
X177000000Y-119100000D03*
X94520000Y-102250000D03*
X108150000Y-139750001D03*
X140000000Y-79050000D03*
X151900000Y-74140001D03*
X150485002Y-126035001D03*
X149550000Y-110759999D03*
X159300000Y-138800000D03*
X171500000Y-139350000D03*
X159300000Y-140800000D03*
X123999999Y-81050000D03*
X138999999Y-79050000D03*
X132499999Y-80050000D03*
X178000000Y-126600001D03*
X163650000Y-90250000D03*
X150900000Y-74170000D03*
X177000000Y-126600000D03*
X159050000Y-109600001D03*
X171400000Y-101249999D03*
X158557500Y-90500000D03*
X138999999Y-80050000D03*
X97894796Y-68155456D03*
X140200000Y-111800000D03*
X99132233Y-69392893D03*
X133750000Y-110759999D03*
X96450000Y-82862500D03*
D21*
X143900002Y-124090000D03*
D20*
X138999999Y-81050000D03*
X110500000Y-104412499D03*
X131999999Y-106000000D03*
X158300000Y-139800001D03*
X149300000Y-137800000D03*
X107150000Y-141750000D03*
X147499999Y-81050000D03*
X154400000Y-74140001D03*
X126600000Y-109800000D03*
X177000000Y-120100000D03*
X151235000Y-127535001D03*
X123900000Y-109800000D03*
X160300000Y-141800000D03*
X108150000Y-137750000D03*
X154800000Y-104849999D03*
X154540001Y-112100000D03*
X131499999Y-80050000D03*
X107150000Y-140750000D03*
X130500001Y-105250000D03*
X153399999Y-74190001D03*
X149735000Y-127535001D03*
X170500000Y-74190001D03*
X146499999Y-79050000D03*
X158510589Y-83660589D03*
X147499999Y-80050000D03*
X132499999Y-81050000D03*
X155800000Y-104850000D03*
D21*
X143900002Y-128289999D03*
D20*
X125700000Y-110600000D03*
X155800000Y-105850000D03*
X150650000Y-88080000D03*
X141100001Y-112700000D03*
X124999999Y-80050000D03*
X160050000Y-109600000D03*
X155500000Y-76190001D03*
X132000000Y-104500000D03*
D21*
X94095000Y-117760000D03*
D20*
X131002516Y-104505385D03*
X151300000Y-140800000D03*
X145990000Y-129900000D03*
X172800000Y-112330000D03*
X160500000Y-74190001D03*
X149000000Y-99259999D03*
X107150000Y-139750000D03*
X163120000Y-100550000D03*
X165050000Y-112350000D03*
X158557500Y-92850000D03*
X160300000Y-140800000D03*
X108150000Y-140749999D03*
X149735000Y-126535001D03*
X179000000Y-119100001D03*
D21*
X143900002Y-126200000D03*
D20*
X175750000Y-88325000D03*
X134500000Y-99259999D03*
X140200000Y-110600000D03*
X141100000Y-111800000D03*
X157403482Y-98414285D03*
X125000000Y-79050000D03*
X178000000Y-119100001D03*
X135000000Y-110759999D03*
X108150000Y-138750000D03*
X159000000Y-74220000D03*
X169000000Y-74220000D03*
X132500000Y-79050000D03*
X109150000Y-139750000D03*
X150300000Y-140800000D03*
X151300000Y-139800000D03*
X177000000Y-127600000D03*
X148250000Y-110759999D03*
X158300000Y-137800000D03*
X146499999Y-81050000D03*
X151450000Y-95159999D03*
X145502516Y-104505386D03*
X141100000Y-109799999D03*
X144500000Y-104499999D03*
X169060000Y-93260000D03*
X154570000Y-110850000D03*
X167550000Y-90500000D03*
X152800000Y-82100000D03*
X164000000Y-74210000D03*
X152950000Y-95130000D03*
X109150000Y-138750000D03*
X178000000Y-127600001D03*
X109150000Y-137750000D03*
X175750000Y-94250000D03*
D21*
X105750000Y-88599999D03*
D20*
X131499999Y-81050000D03*
X161500000Y-74220000D03*
X146000000Y-105250000D03*
X158300000Y-140799999D03*
X153950000Y-95159999D03*
X156773223Y-87278858D03*
X104191284Y-79300000D03*
X123999999Y-80050000D03*
X126600001Y-112700000D03*
X144500000Y-106000001D03*
X167090001Y-130700000D03*
X130000000Y-106000000D03*
X145500000Y-106000000D03*
X162700000Y-101857949D03*
X168550000Y-112050000D03*
X124800000Y-109800000D03*
X163000000Y-74190001D03*
X150300000Y-141800000D03*
X139999999Y-81050000D03*
X147500000Y-79050000D03*
X160300000Y-138800000D03*
X149300000Y-140799999D03*
X109150000Y-140750000D03*
X105525000Y-78600000D03*
X168000000Y-74190001D03*
X146500000Y-104500000D03*
X145000000Y-105249999D03*
X125700000Y-109800000D03*
X159300000Y-137800000D03*
X125700000Y-111799999D03*
X174900002Y-72600000D03*
X167550000Y-83300000D03*
X150485000Y-127035001D03*
X150450000Y-95130000D03*
X149300000Y-141800000D03*
X150300000Y-139800000D03*
X166290000Y-111580000D03*
X101476284Y-82030000D03*
X159300000Y-139800000D03*
X160055385Y-110597484D03*
X155389411Y-88139411D03*
X151300001Y-137800000D03*
X107150000Y-137750000D03*
X164040001Y-113100000D03*
X178000000Y-120100001D03*
X149734999Y-125535001D03*
X169550000Y-112050000D03*
X130000000Y-104500000D03*
X100369670Y-70630330D03*
X157126777Y-84521142D03*
X107150000Y-138750000D03*
X123999999Y-79050000D03*
X151229614Y-126537517D03*
X131000001Y-106000000D03*
X170040001Y-86600000D03*
X158300000Y-138800000D03*
X154800000Y-105850000D03*
X158300000Y-141800000D03*
X155635715Y-96646518D03*
%TO.N,/mcu/NRST*%
X163550000Y-89000000D03*
%TO.N,+5V_LOCAL*%
X174400000Y-111400000D03*
X153200000Y-88100000D03*
%TO.N,+3.3V_LOCAL*%
X178159999Y-87600000D03*
X174509999Y-89750000D03*
X172450000Y-93250000D03*
D22*
X178800000Y-104300000D03*
D20*
X163090001Y-99300000D03*
X175737500Y-102200000D03*
X178159999Y-84000000D03*
X159517500Y-92850000D03*
X180100000Y-136350000D03*
X159517500Y-90500000D03*
X157050000Y-92625000D03*
%TO.N,+BATT*%
X103060624Y-67939376D03*
X98700000Y-99800000D03*
X153950000Y-92204525D03*
%TO.N,~{PB}*%
X108850000Y-71850000D03*
X101201284Y-79300000D03*
X127800000Y-69650000D03*
D22*
%TO.N,Net-(C29-Pad2)*%
X144812500Y-72600000D03*
%TO.N,Net-(C30-Pad2)*%
X126650000Y-72600000D03*
D20*
%TO.N,+3.3V_LOCAL_ALWAYS_ON*%
X176700000Y-111400000D03*
X94490001Y-104250000D03*
%TO.N,/mcu/BATT_PRE*%
X151450000Y-94140000D03*
X167950000Y-85700000D03*
X152150000Y-83150000D03*
%TO.N,Net-(D2-A)*%
X98955456Y-67094796D03*
%TO.N,Net-(D3-A)*%
X97718019Y-65857359D03*
%TO.N,Net-(D4-A)*%
X100192893Y-68332233D03*
%TO.N,Net-(D5-A)*%
X101430330Y-69569670D03*
%TO.N,/mcu/BATT_POST*%
X153450000Y-83150000D03*
X153950000Y-94140001D03*
X167450000Y-85000000D03*
%TO.N,/mcu/PWR_BTN_~{INT}*%
X120400000Y-95700000D03*
X172400000Y-89350000D03*
%TO.N,/mcu/5v0*%
X154400001Y-76150000D03*
X165950000Y-85050000D03*
%TO.N,/mcu/3v3*%
X165450000Y-85700000D03*
X151900000Y-76140002D03*
%TO.N,+V_{batt_fused}*%
X100226284Y-80040000D03*
X100009999Y-93250001D03*
X151450000Y-92140002D03*
%TO.N,/power_protection/GATE*%
X113500000Y-109750000D03*
X99250000Y-102400000D03*
%TO.N,+5V*%
X149500000Y-75300000D03*
X145300000Y-139800001D03*
X103150000Y-139750001D03*
X148500000Y-74300000D03*
X103150000Y-137750000D03*
X148500000Y-75300000D03*
X145300000Y-138800000D03*
X147500000Y-74299999D03*
X103150000Y-140749999D03*
X154400001Y-77179999D03*
X103150000Y-141750000D03*
X149500000Y-74300000D03*
X145300000Y-137800000D03*
X103150000Y-138750000D03*
X145300000Y-141800000D03*
D22*
X147787500Y-72600000D03*
D20*
X145300000Y-140799999D03*
X147499999Y-75300000D03*
%TO.N,+3.3V*%
X147300000Y-140799999D03*
X147300000Y-139800001D03*
X124000000Y-75300000D03*
X151900000Y-77160000D03*
X147300000Y-138800000D03*
X147300000Y-141800000D03*
X123000000Y-75300000D03*
X147300000Y-137800000D03*
X105150000Y-137750000D03*
X105150000Y-138750000D03*
D22*
X123675000Y-72600000D03*
D20*
X124000000Y-74300000D03*
X105150000Y-139750001D03*
X123000000Y-74300000D03*
X121999999Y-75300000D03*
X105150000Y-141750000D03*
X105150000Y-140749999D03*
X122000000Y-74299999D03*
%TO.N,/mcu/SWDIO*%
X171600000Y-96900000D03*
%TO.N,/mcu/SWCLK*%
X170330000Y-96900000D03*
%TO.N,/mcu/LED_SHUTDOWN_ACK_PWR*%
X101810624Y-66689376D03*
X173862500Y-101250000D03*
X149350000Y-89350000D03*
X168700000Y-102100000D03*
%TO.N,/mcu/LED_GREEN*%
X150800000Y-90500000D03*
X100560624Y-65439376D03*
%TO.N,/mcu/LED_RED*%
X149950000Y-90500000D03*
X99360624Y-64239376D03*
%TO.N,/mcu/LOAD_SW_PGOOD*%
X161650000Y-97800000D03*
X95510000Y-104250000D03*
%TO.N,/mcu/PWR_~{KILL}*%
X171750000Y-89850000D03*
X122300000Y-96500000D03*
%TO.N,/mcu/PWR_5v0_EN*%
X164450000Y-97250000D03*
X146999999Y-110759999D03*
%TO.N,/mcu/PWR_3v3_EN*%
X163950000Y-96600000D03*
X132500000Y-110759999D03*
%TO.N,/mcu/RX*%
X172300000Y-91650000D03*
X177140001Y-87600000D03*
%TO.N,/mcu/TX*%
X177140001Y-84600000D03*
X172500000Y-90200000D03*
%TO.N,/mcu/DOTSTAR_MOSI*%
X165150000Y-93450000D03*
%TO.N,/mcu/DOTSTAR_SCK*%
X165150000Y-92650000D03*
%TO.N,Net-(BZ1-+)*%
X180100000Y-132550000D03*
%TO.N,/mcu/BUZZER*%
X175350000Y-136710000D03*
X181400000Y-98650000D03*
D22*
%TO.N,Net-(C44-Pad1)*%
X168200000Y-104200000D03*
%TO.N,Net-(JP2-B)*%
X178800000Y-107100000D03*
%TO.N,Net-(JP3-A)*%
X171200000Y-104200000D03*
D20*
%TO.N,Net-(J6-Pin_1)*%
X166500000Y-139350000D03*
X174209999Y-84600000D03*
%TO.N,Net-(J6-Pin_3)*%
X169000000Y-139350000D03*
X174209999Y-86600000D03*
%TO.N,Net-(J6-Pin_4)*%
X174209999Y-85600000D03*
X170250000Y-139350000D03*
%TO.N,Net-(J6-Pin_2)*%
X167750000Y-139350000D03*
X174209999Y-87600000D03*
D22*
%TO.N,Net-(C22-Pad1)*%
X170537500Y-136100000D03*
%TO.N,+12V*%
X167562500Y-136100000D03*
D20*
%TO.N,/mcu/PWR_12v0_EN*%
X164950000Y-96600000D03*
X143590000Y-131050000D03*
%TD*%
D23*
%TO.N,~{PB}*%
X118807000Y-69650000D02*
X127800000Y-69650000D01*
X116607000Y-71850000D02*
X118807000Y-69650000D01*
X108850000Y-71850000D02*
X116607000Y-71850000D01*
%TD*%
%TA.AperFunction,Conductor*%
%TO.N,+3.3V*%
G36*
X151993039Y-70219685D02*
G01*
X152038794Y-70272489D01*
X152050000Y-70324000D01*
X152050000Y-73288054D01*
X152030315Y-73355093D01*
X151977511Y-73400848D01*
X151912123Y-73411275D01*
X151900003Y-73409910D01*
X151899996Y-73409910D01*
X151737544Y-73428213D01*
X151583224Y-73482211D01*
X151442100Y-73570886D01*
X151374863Y-73589886D01*
X151310156Y-73570886D01*
X151216774Y-73512210D01*
X151062455Y-73458212D01*
X150900004Y-73439909D01*
X150899996Y-73439909D01*
X150737544Y-73458212D01*
X150583225Y-73512210D01*
X150444795Y-73599192D01*
X150329192Y-73714795D01*
X150329190Y-73714798D01*
X150262047Y-73821653D01*
X150209712Y-73867944D01*
X150140658Y-73878591D01*
X150076810Y-73850215D01*
X150069373Y-73843361D01*
X149955204Y-73729192D01*
X149816774Y-73642210D01*
X149662455Y-73588212D01*
X149500004Y-73569909D01*
X149499996Y-73569909D01*
X149337544Y-73588212D01*
X149183221Y-73642211D01*
X149180517Y-73643911D01*
X149178523Y-73644474D01*
X149176952Y-73645231D01*
X149176819Y-73644955D01*
X149113278Y-73662906D01*
X149046445Y-73642534D01*
X149001235Y-73589263D01*
X148992002Y-73520006D01*
X149010741Y-73471094D01*
X149111673Y-73316607D01*
X149211563Y-73088881D01*
X149272608Y-72847821D01*
X149293143Y-72600000D01*
X149291493Y-72580091D01*
X149272609Y-72352187D01*
X149272607Y-72352175D01*
X149211563Y-72111118D01*
X149111673Y-71883393D01*
X148975666Y-71675217D01*
X148954057Y-71651744D01*
X148807244Y-71492262D01*
X148611009Y-71339526D01*
X148611007Y-71339525D01*
X148611006Y-71339524D01*
X148392311Y-71221172D01*
X148392302Y-71221169D01*
X148157116Y-71140429D01*
X147911835Y-71099500D01*
X147663165Y-71099500D01*
X147417883Y-71140429D01*
X147182697Y-71221169D01*
X147182688Y-71221172D01*
X146963993Y-71339524D01*
X146767757Y-71492261D01*
X146599333Y-71675217D01*
X146463327Y-71883391D01*
X146413556Y-71996859D01*
X146368600Y-72050344D01*
X146301864Y-72071034D01*
X146234536Y-72052359D01*
X146187993Y-72000249D01*
X146186444Y-71996859D01*
X146136672Y-71883391D01*
X146000666Y-71675217D01*
X145979057Y-71651744D01*
X145832244Y-71492262D01*
X145636009Y-71339526D01*
X145636007Y-71339525D01*
X145636006Y-71339524D01*
X145417311Y-71221172D01*
X145417302Y-71221169D01*
X145182116Y-71140429D01*
X144936835Y-71099500D01*
X144688165Y-71099500D01*
X144442883Y-71140429D01*
X144207697Y-71221169D01*
X144207688Y-71221172D01*
X143988993Y-71339524D01*
X143792757Y-71492261D01*
X143624333Y-71675217D01*
X143488326Y-71883393D01*
X143388436Y-72111118D01*
X143327392Y-72352175D01*
X143327390Y-72352187D01*
X143306857Y-72599994D01*
X143306857Y-72600005D01*
X143327390Y-72847812D01*
X143327392Y-72847824D01*
X143388436Y-73088881D01*
X143488326Y-73316606D01*
X143624333Y-73524782D01*
X143624336Y-73524785D01*
X143792756Y-73707738D01*
X143988991Y-73860474D01*
X144207690Y-73978828D01*
X144442886Y-74059571D01*
X144688165Y-74100500D01*
X144936835Y-74100500D01*
X145182114Y-74059571D01*
X145417310Y-73978828D01*
X145636009Y-73860474D01*
X145832244Y-73707738D01*
X146000664Y-73524785D01*
X146136673Y-73316607D01*
X146186444Y-73203141D01*
X146231400Y-73149655D01*
X146298136Y-73128965D01*
X146365464Y-73147640D01*
X146412007Y-73199750D01*
X146413556Y-73203141D01*
X146463326Y-73316606D01*
X146599333Y-73524782D01*
X146599336Y-73524785D01*
X146767756Y-73707738D01*
X146776827Y-73714798D01*
X146845513Y-73768259D01*
X146886326Y-73824969D01*
X146890000Y-73894742D01*
X146874344Y-73932084D01*
X146842210Y-73983224D01*
X146788212Y-74137543D01*
X146769909Y-74299995D01*
X146769909Y-74300002D01*
X146788212Y-74462454D01*
X146842211Y-74616775D01*
X146915885Y-74734025D01*
X146934886Y-74801262D01*
X146915886Y-74865970D01*
X146842209Y-74983225D01*
X146788211Y-75137544D01*
X146769908Y-75299996D01*
X146769908Y-75300003D01*
X146788211Y-75462455D01*
X146842209Y-75616774D01*
X146884951Y-75684797D01*
X146929191Y-75755204D01*
X147044795Y-75870808D01*
X147183224Y-75957789D01*
X147337538Y-76011786D01*
X147337541Y-76011786D01*
X147337543Y-76011787D01*
X147499995Y-76030091D01*
X147499999Y-76030091D01*
X147500003Y-76030091D01*
X147662454Y-76011787D01*
X147662455Y-76011786D01*
X147662460Y-76011786D01*
X147816774Y-75957789D01*
X147934027Y-75884113D01*
X148001263Y-75865113D01*
X148065970Y-75884112D01*
X148183225Y-75957789D01*
X148337539Y-76011786D01*
X148337542Y-76011786D01*
X148337544Y-76011787D01*
X148499996Y-76030091D01*
X148500000Y-76030091D01*
X148500004Y-76030091D01*
X148662455Y-76011787D01*
X148662456Y-76011786D01*
X148662461Y-76011786D01*
X148816775Y-75957789D01*
X148934028Y-75884113D01*
X149001264Y-75865113D01*
X149065971Y-75884113D01*
X149183225Y-75957789D01*
X149337539Y-76011786D01*
X149337542Y-76011786D01*
X149337544Y-76011787D01*
X149499996Y-76030091D01*
X149500000Y-76030091D01*
X149500004Y-76030091D01*
X149662455Y-76011787D01*
X149662456Y-76011786D01*
X149662461Y-76011786D01*
X149816775Y-75957789D01*
X149955204Y-75870808D01*
X150070808Y-75755204D01*
X150157789Y-75616775D01*
X150211786Y-75462461D01*
X150211787Y-75462455D01*
X150230091Y-75300003D01*
X150230091Y-75299996D01*
X150211787Y-75137544D01*
X150211786Y-75137542D01*
X150211786Y-75137539D01*
X150157789Y-74983225D01*
X150084113Y-74865970D01*
X150065113Y-74798736D01*
X150084114Y-74734027D01*
X150084116Y-74734025D01*
X150137952Y-74648346D01*
X150190287Y-74602055D01*
X150259340Y-74591408D01*
X150323188Y-74619783D01*
X150330626Y-74626638D01*
X150444796Y-74740808D01*
X150583225Y-74827789D01*
X150737539Y-74881786D01*
X150737542Y-74881786D01*
X150737544Y-74881787D01*
X150899996Y-74900091D01*
X150900000Y-74900091D01*
X150900004Y-74900091D01*
X151062455Y-74881787D01*
X151062456Y-74881786D01*
X151062461Y-74881786D01*
X151216775Y-74827789D01*
X151355204Y-74740808D01*
X151355204Y-74740807D01*
X151357898Y-74739115D01*
X151425135Y-74720114D01*
X151489842Y-74739113D01*
X151583225Y-74797790D01*
X151737539Y-74851787D01*
X151737542Y-74851787D01*
X151737544Y-74851788D01*
X151899996Y-74870092D01*
X151900000Y-74870092D01*
X151900001Y-74870092D01*
X151912115Y-74868727D01*
X151980937Y-74880781D01*
X152032317Y-74928130D01*
X152050000Y-74991947D01*
X152050000Y-75288055D01*
X152030315Y-75355094D01*
X151977511Y-75400849D01*
X151912123Y-75411276D01*
X151900003Y-75409911D01*
X151899996Y-75409911D01*
X151737544Y-75428214D01*
X151583225Y-75482212D01*
X151444795Y-75569194D01*
X151329192Y-75684797D01*
X151242210Y-75823227D01*
X151188212Y-75977546D01*
X151169909Y-76139998D01*
X151169909Y-76140005D01*
X151188212Y-76302457D01*
X151242210Y-76456776D01*
X151242211Y-76456777D01*
X151329192Y-76595206D01*
X151444796Y-76710810D01*
X151583225Y-76797791D01*
X151737539Y-76851788D01*
X151737542Y-76851788D01*
X151737544Y-76851789D01*
X151899996Y-76870093D01*
X151900000Y-76870093D01*
X151900001Y-76870093D01*
X151912115Y-76868728D01*
X151980937Y-76880782D01*
X152032317Y-76928131D01*
X152050000Y-76991948D01*
X152050000Y-82328375D01*
X152030315Y-82395414D01*
X151977511Y-82441169D01*
X151966954Y-82445417D01*
X151833225Y-82492210D01*
X151694795Y-82579192D01*
X151579192Y-82694795D01*
X151492210Y-82833225D01*
X151438212Y-82987544D01*
X151419909Y-83149996D01*
X151419909Y-83150003D01*
X151438212Y-83312455D01*
X151492210Y-83466774D01*
X151492211Y-83466775D01*
X151579192Y-83605204D01*
X151694796Y-83720808D01*
X151833225Y-83807789D01*
X151966954Y-83854583D01*
X152023731Y-83895305D01*
X152049478Y-83960258D01*
X152050000Y-83971625D01*
X152050000Y-91435814D01*
X152030315Y-91502853D01*
X151977511Y-91548608D01*
X151908353Y-91558552D01*
X151860028Y-91540808D01*
X151766774Y-91482212D01*
X151612455Y-91428214D01*
X151450004Y-91409911D01*
X151449996Y-91409911D01*
X151287544Y-91428214D01*
X151133225Y-91482212D01*
X150994795Y-91569194D01*
X150879192Y-91684797D01*
X150792210Y-91823227D01*
X150738212Y-91977546D01*
X150719909Y-92139998D01*
X150719909Y-92140005D01*
X150738212Y-92302457D01*
X150792210Y-92456776D01*
X150792211Y-92456777D01*
X150879192Y-92595206D01*
X150994796Y-92710810D01*
X151133225Y-92797791D01*
X151287539Y-92851788D01*
X151287542Y-92851788D01*
X151287544Y-92851789D01*
X151449996Y-92870093D01*
X151450000Y-92870093D01*
X151450004Y-92870093D01*
X151612455Y-92851789D01*
X151612456Y-92851788D01*
X151612461Y-92851788D01*
X151766775Y-92797791D01*
X151860028Y-92739195D01*
X151927263Y-92720195D01*
X151994099Y-92740562D01*
X152039313Y-92793829D01*
X152050000Y-92844189D01*
X152050000Y-93435812D01*
X152030315Y-93502851D01*
X151977511Y-93548606D01*
X151908353Y-93558550D01*
X151860028Y-93540806D01*
X151766774Y-93482210D01*
X151612455Y-93428212D01*
X151450004Y-93409909D01*
X151449996Y-93409909D01*
X151287544Y-93428212D01*
X151133225Y-93482210D01*
X150994795Y-93569192D01*
X150879192Y-93684795D01*
X150792210Y-93823225D01*
X150738212Y-93977544D01*
X150719909Y-94139996D01*
X150719909Y-94140004D01*
X150735630Y-94279540D01*
X150723575Y-94348362D01*
X150676226Y-94399741D01*
X150608615Y-94417365D01*
X150598527Y-94416643D01*
X150450004Y-94399909D01*
X150449996Y-94399909D01*
X150287544Y-94418212D01*
X150133225Y-94472210D01*
X149994795Y-94559192D01*
X149879192Y-94674795D01*
X149792210Y-94813225D01*
X149738212Y-94967544D01*
X149719909Y-95129996D01*
X149719909Y-95130003D01*
X149738212Y-95292455D01*
X149792210Y-95446774D01*
X149849242Y-95537539D01*
X149879192Y-95585204D01*
X149994796Y-95700808D01*
X150133225Y-95787789D01*
X150287539Y-95841786D01*
X150287542Y-95841786D01*
X150287544Y-95841787D01*
X150449996Y-95860091D01*
X150450000Y-95860091D01*
X150450004Y-95860091D01*
X150612455Y-95841787D01*
X150612456Y-95841786D01*
X150612461Y-95841786D01*
X150766775Y-95787789D01*
X150860155Y-95729113D01*
X150927392Y-95710113D01*
X150992100Y-95729113D01*
X150994796Y-95730807D01*
X151133225Y-95817788D01*
X151287539Y-95871785D01*
X151287542Y-95871785D01*
X151287544Y-95871786D01*
X151449996Y-95890090D01*
X151450000Y-95890090D01*
X151450004Y-95890090D01*
X151612455Y-95871786D01*
X151612456Y-95871785D01*
X151612461Y-95871785D01*
X151766775Y-95817788D01*
X151860028Y-95759192D01*
X151927263Y-95740192D01*
X151994099Y-95760559D01*
X152039313Y-95813826D01*
X152050000Y-95864186D01*
X152050000Y-125038011D01*
X152030315Y-125105050D01*
X151977511Y-125150805D01*
X151908353Y-125160749D01*
X151844797Y-125131724D01*
X151821007Y-125103984D01*
X151805810Y-125079798D01*
X151690205Y-124964193D01*
X151551775Y-124877211D01*
X151397456Y-124823213D01*
X151235005Y-124804910D01*
X151234997Y-124804910D01*
X151072545Y-124823213D01*
X150918226Y-124877211D01*
X150779796Y-124964193D01*
X150664191Y-125079798D01*
X150589993Y-125197884D01*
X150537659Y-125244174D01*
X150468605Y-125254822D01*
X150404757Y-125226447D01*
X150380007Y-125197884D01*
X150305808Y-125079798D01*
X150190203Y-124964193D01*
X150051773Y-124877211D01*
X149897454Y-124823213D01*
X149735003Y-124804910D01*
X149734995Y-124804910D01*
X149572543Y-124823213D01*
X149418224Y-124877211D01*
X149279794Y-124964193D01*
X149164191Y-125079796D01*
X149077209Y-125218226D01*
X149023211Y-125372545D01*
X149004908Y-125534997D01*
X149004908Y-125535004D01*
X149023211Y-125697456D01*
X149077209Y-125851775D01*
X149150885Y-125969029D01*
X149169885Y-126036266D01*
X149150885Y-126100973D01*
X149077210Y-126218225D01*
X149023212Y-126372545D01*
X149004909Y-126534997D01*
X149004909Y-126535004D01*
X149023212Y-126697456D01*
X149077210Y-126851775D01*
X149150886Y-126969029D01*
X149169886Y-127036266D01*
X149150886Y-127100973D01*
X149077210Y-127218226D01*
X149023212Y-127372545D01*
X149004909Y-127534997D01*
X149004909Y-127535004D01*
X149023212Y-127697456D01*
X149077210Y-127851775D01*
X149148994Y-127966017D01*
X149164192Y-127990205D01*
X149279796Y-128105809D01*
X149418225Y-128192790D01*
X149572539Y-128246787D01*
X149572542Y-128246787D01*
X149572544Y-128246788D01*
X149734996Y-128265092D01*
X149735000Y-128265092D01*
X149735004Y-128265092D01*
X149897455Y-128246788D01*
X149897456Y-128246787D01*
X149897461Y-128246787D01*
X150051775Y-128192790D01*
X150190204Y-128105809D01*
X150305808Y-127990205D01*
X150380006Y-127872120D01*
X150432341Y-127825829D01*
X150501395Y-127815181D01*
X150565243Y-127843556D01*
X150589994Y-127872120D01*
X150664192Y-127990205D01*
X150779796Y-128105809D01*
X150918225Y-128192790D01*
X151072539Y-128246787D01*
X151072542Y-128246787D01*
X151072544Y-128246788D01*
X151234996Y-128265092D01*
X151235000Y-128265092D01*
X151235004Y-128265092D01*
X151397455Y-128246788D01*
X151397456Y-128246787D01*
X151397461Y-128246787D01*
X151551775Y-128192790D01*
X151690204Y-128105809D01*
X151805808Y-127990205D01*
X151821006Y-127966016D01*
X151873341Y-127919726D01*
X151942394Y-127909078D01*
X152006243Y-127937453D01*
X152044615Y-127995842D01*
X152050000Y-128031989D01*
X152050000Y-137224625D01*
X152030315Y-137291664D01*
X151977511Y-137337419D01*
X151908353Y-137347363D01*
X151844797Y-137318338D01*
X151838319Y-137312306D01*
X151755205Y-137229192D01*
X151616775Y-137142210D01*
X151462456Y-137088212D01*
X151300005Y-137069909D01*
X151299997Y-137069909D01*
X151137545Y-137088212D01*
X150983226Y-137142210D01*
X150865972Y-137215886D01*
X150798735Y-137234886D01*
X150734028Y-137215886D01*
X150616774Y-137142210D01*
X150462455Y-137088212D01*
X150300004Y-137069909D01*
X150299996Y-137069909D01*
X150137544Y-137088212D01*
X149983225Y-137142210D01*
X149865972Y-137215886D01*
X149798735Y-137234886D01*
X149734028Y-137215886D01*
X149616774Y-137142210D01*
X149462455Y-137088212D01*
X149300004Y-137069909D01*
X149299996Y-137069909D01*
X149137544Y-137088212D01*
X148983225Y-137142210D01*
X148844795Y-137229192D01*
X148729192Y-137344795D01*
X148642210Y-137483225D01*
X148588212Y-137637544D01*
X148569909Y-137799996D01*
X148569909Y-137800003D01*
X148588212Y-137962455D01*
X148642210Y-138116774D01*
X148715886Y-138234028D01*
X148734886Y-138301265D01*
X148715886Y-138365972D01*
X148642210Y-138483225D01*
X148588212Y-138637544D01*
X148569909Y-138799996D01*
X148569909Y-138800003D01*
X148588212Y-138962455D01*
X148642210Y-139116774D01*
X148715886Y-139234028D01*
X148734886Y-139301265D01*
X148715886Y-139365972D01*
X148642210Y-139483226D01*
X148588212Y-139637545D01*
X148569909Y-139799997D01*
X148569909Y-139800004D01*
X148588212Y-139962456D01*
X148642210Y-140116775D01*
X148715885Y-140234028D01*
X148734885Y-140301265D01*
X148715885Y-140365972D01*
X148642210Y-140483224D01*
X148588212Y-140637543D01*
X148569909Y-140799995D01*
X148569909Y-140800002D01*
X148588212Y-140962454D01*
X148642210Y-141116773D01*
X148715886Y-141234027D01*
X148734886Y-141301264D01*
X148715886Y-141365971D01*
X148642210Y-141483225D01*
X148588212Y-141637544D01*
X148569909Y-141799996D01*
X148569909Y-141800003D01*
X148588212Y-141962455D01*
X148642210Y-142116774D01*
X148729192Y-142255204D01*
X148762307Y-142288319D01*
X148795792Y-142349642D01*
X148790808Y-142419334D01*
X148748936Y-142475267D01*
X148683472Y-142499684D01*
X148674626Y-142500000D01*
X145925374Y-142500000D01*
X145858335Y-142480315D01*
X145812580Y-142427511D01*
X145802636Y-142358353D01*
X145831661Y-142294797D01*
X145837693Y-142288319D01*
X145850000Y-142276012D01*
X145870808Y-142255204D01*
X145957789Y-142116775D01*
X146011786Y-141962461D01*
X146017420Y-141912461D01*
X146030091Y-141800003D01*
X146030091Y-141799996D01*
X146011787Y-141637544D01*
X146011786Y-141637542D01*
X146011786Y-141637539D01*
X145957789Y-141483225D01*
X145884112Y-141365970D01*
X145865113Y-141298735D01*
X145884114Y-141234026D01*
X145902225Y-141205204D01*
X145957789Y-141116774D01*
X146011786Y-140962460D01*
X146017420Y-140912460D01*
X146030091Y-140800002D01*
X146030091Y-140799995D01*
X146011787Y-140637543D01*
X146011786Y-140637539D01*
X146011786Y-140637538D01*
X145957789Y-140483224D01*
X145926372Y-140433225D01*
X145884115Y-140365973D01*
X145865114Y-140298736D01*
X145884115Y-140234027D01*
X145902226Y-140205204D01*
X145957789Y-140116776D01*
X146011786Y-139962462D01*
X146017420Y-139912461D01*
X146030091Y-139800004D01*
X146030091Y-139799997D01*
X146011787Y-139637545D01*
X146011786Y-139637543D01*
X146011786Y-139637540D01*
X145957789Y-139483226D01*
X145884112Y-139365971D01*
X145865113Y-139298736D01*
X145884114Y-139234027D01*
X145915532Y-139184027D01*
X145957789Y-139116775D01*
X146011786Y-138962461D01*
X146017420Y-138912461D01*
X146030091Y-138800003D01*
X146030091Y-138799996D01*
X146011787Y-138637544D01*
X146011786Y-138637542D01*
X146011786Y-138637539D01*
X145957789Y-138483225D01*
X145884113Y-138365971D01*
X145865113Y-138298736D01*
X145884114Y-138234027D01*
X145915532Y-138184027D01*
X145957789Y-138116775D01*
X146011786Y-137962461D01*
X146017420Y-137912461D01*
X146030091Y-137800003D01*
X146030091Y-137799996D01*
X146011787Y-137637544D01*
X146011786Y-137637542D01*
X146011786Y-137637539D01*
X145957789Y-137483225D01*
X145870808Y-137344796D01*
X145755204Y-137229192D01*
X145675630Y-137179192D01*
X145616774Y-137142210D01*
X145462455Y-137088212D01*
X145300004Y-137069909D01*
X145299996Y-137069909D01*
X145137544Y-137088212D01*
X144983225Y-137142210D01*
X144844795Y-137229192D01*
X144729192Y-137344795D01*
X144642210Y-137483225D01*
X144588212Y-137637544D01*
X144569909Y-137799996D01*
X144569909Y-137800003D01*
X144588212Y-137962455D01*
X144642210Y-138116774D01*
X144715886Y-138234028D01*
X144734886Y-138301265D01*
X144715886Y-138365972D01*
X144642210Y-138483225D01*
X144588212Y-138637544D01*
X144569909Y-138799996D01*
X144569909Y-138800003D01*
X144588212Y-138962455D01*
X144642210Y-139116774D01*
X144715886Y-139234028D01*
X144734886Y-139301265D01*
X144715886Y-139365972D01*
X144642210Y-139483226D01*
X144588212Y-139637545D01*
X144569909Y-139799997D01*
X144569909Y-139800004D01*
X144588212Y-139962456D01*
X144642210Y-140116775D01*
X144715885Y-140234028D01*
X144734885Y-140301265D01*
X144715885Y-140365972D01*
X144642210Y-140483224D01*
X144588212Y-140637543D01*
X144569909Y-140799995D01*
X144569909Y-140800002D01*
X144588212Y-140962454D01*
X144642210Y-141116773D01*
X144715886Y-141234027D01*
X144734886Y-141301264D01*
X144715886Y-141365971D01*
X144642210Y-141483225D01*
X144588212Y-141637544D01*
X144569909Y-141799996D01*
X144569909Y-141800003D01*
X144588212Y-141962455D01*
X144642210Y-142116774D01*
X144729192Y-142255204D01*
X144762307Y-142288319D01*
X144795792Y-142349642D01*
X144790808Y-142419334D01*
X144748936Y-142475267D01*
X144683472Y-142499684D01*
X144674626Y-142500000D01*
X109725374Y-142500000D01*
X109658335Y-142480315D01*
X109612580Y-142427511D01*
X109602636Y-142358353D01*
X109631661Y-142294797D01*
X109637693Y-142288319D01*
X109670808Y-142255204D01*
X109720808Y-142205204D01*
X109807789Y-142066775D01*
X109861786Y-141912461D01*
X109874457Y-141800003D01*
X109880091Y-141750003D01*
X109880091Y-141749996D01*
X109861787Y-141587544D01*
X109861786Y-141587542D01*
X109861786Y-141587539D01*
X109807789Y-141433225D01*
X109734113Y-141315971D01*
X109715113Y-141248736D01*
X109734114Y-141184027D01*
X109776372Y-141116775D01*
X109807789Y-141066775D01*
X109861786Y-140912461D01*
X109874457Y-140800002D01*
X109880091Y-140750003D01*
X109880091Y-140749996D01*
X109861787Y-140587544D01*
X109861786Y-140587542D01*
X109861786Y-140587539D01*
X109807789Y-140433225D01*
X109734113Y-140315971D01*
X109715113Y-140248736D01*
X109734114Y-140184027D01*
X109776371Y-140116777D01*
X109807789Y-140066775D01*
X109861786Y-139912461D01*
X109874457Y-139800004D01*
X109880091Y-139750003D01*
X109880091Y-139749996D01*
X109861787Y-139587544D01*
X109861786Y-139587540D01*
X109861786Y-139587539D01*
X109807789Y-139433225D01*
X109734113Y-139315971D01*
X109715113Y-139248736D01*
X109734114Y-139184027D01*
X109776372Y-139116775D01*
X109807789Y-139066775D01*
X109861786Y-138912461D01*
X109874457Y-138800003D01*
X109880091Y-138750003D01*
X109880091Y-138749996D01*
X109861787Y-138587544D01*
X109861786Y-138587542D01*
X109861786Y-138587539D01*
X109807789Y-138433225D01*
X109734113Y-138315971D01*
X109715113Y-138248736D01*
X109734114Y-138184027D01*
X109776372Y-138116775D01*
X109807789Y-138066775D01*
X109861786Y-137912461D01*
X109874457Y-137800003D01*
X109880091Y-137750003D01*
X109880091Y-137749996D01*
X109861787Y-137587544D01*
X109861786Y-137587542D01*
X109861786Y-137587539D01*
X109807789Y-137433225D01*
X109720808Y-137294796D01*
X109605204Y-137179192D01*
X109584028Y-137165886D01*
X109466774Y-137092210D01*
X109312455Y-137038212D01*
X109150004Y-137019909D01*
X109149996Y-137019909D01*
X108987544Y-137038212D01*
X108833225Y-137092210D01*
X108715972Y-137165886D01*
X108648735Y-137184886D01*
X108584028Y-137165886D01*
X108466774Y-137092210D01*
X108312455Y-137038212D01*
X108150004Y-137019909D01*
X108149996Y-137019909D01*
X107987544Y-137038212D01*
X107833225Y-137092210D01*
X107715972Y-137165886D01*
X107648735Y-137184886D01*
X107584028Y-137165886D01*
X107466774Y-137092210D01*
X107312455Y-137038212D01*
X107150004Y-137019909D01*
X107149996Y-137019909D01*
X106987544Y-137038212D01*
X106833225Y-137092210D01*
X106694795Y-137179192D01*
X106579192Y-137294795D01*
X106492210Y-137433225D01*
X106438212Y-137587544D01*
X106419909Y-137749996D01*
X106419909Y-137750003D01*
X106438212Y-137912455D01*
X106492210Y-138066774D01*
X106565886Y-138184028D01*
X106584886Y-138251265D01*
X106565886Y-138315972D01*
X106492210Y-138433225D01*
X106438212Y-138587544D01*
X106419909Y-138749996D01*
X106419909Y-138750003D01*
X106438212Y-138912455D01*
X106492210Y-139066774D01*
X106565886Y-139184028D01*
X106584886Y-139251265D01*
X106565886Y-139315972D01*
X106492210Y-139433225D01*
X106438212Y-139587544D01*
X106419909Y-139749996D01*
X106419909Y-139750003D01*
X106438212Y-139912455D01*
X106492210Y-140066774D01*
X106565886Y-140184028D01*
X106584886Y-140251265D01*
X106565886Y-140315972D01*
X106492210Y-140433225D01*
X106438212Y-140587544D01*
X106419909Y-140749996D01*
X106419909Y-140750003D01*
X106438212Y-140912455D01*
X106492210Y-141066774D01*
X106565886Y-141184028D01*
X106584886Y-141251265D01*
X106565886Y-141315972D01*
X106492210Y-141433225D01*
X106438212Y-141587544D01*
X106419909Y-141749996D01*
X106419909Y-141750003D01*
X106438212Y-141912455D01*
X106492210Y-142066774D01*
X106579192Y-142205204D01*
X106662307Y-142288319D01*
X106695792Y-142349642D01*
X106690808Y-142419334D01*
X106648936Y-142475267D01*
X106583472Y-142499684D01*
X106574626Y-142500000D01*
X103725374Y-142500000D01*
X103658335Y-142480315D01*
X103612580Y-142427511D01*
X103602636Y-142358353D01*
X103631661Y-142294797D01*
X103637693Y-142288319D01*
X103670808Y-142255204D01*
X103720808Y-142205204D01*
X103807789Y-142066775D01*
X103861786Y-141912461D01*
X103874457Y-141800003D01*
X103880091Y-141750003D01*
X103880091Y-141749996D01*
X103861787Y-141587544D01*
X103861786Y-141587542D01*
X103861786Y-141587539D01*
X103807789Y-141433225D01*
X103734112Y-141315970D01*
X103715113Y-141248735D01*
X103734114Y-141184026D01*
X103776372Y-141116774D01*
X103807789Y-141066774D01*
X103861786Y-140912460D01*
X103874457Y-140800002D01*
X103880091Y-140750002D01*
X103880091Y-140749995D01*
X103861787Y-140587543D01*
X103861786Y-140587539D01*
X103861786Y-140587538D01*
X103807789Y-140433224D01*
X103734114Y-140315972D01*
X103715114Y-140248736D01*
X103734115Y-140184027D01*
X103807788Y-140066777D01*
X103807789Y-140066776D01*
X103861786Y-139912462D01*
X103874457Y-139800004D01*
X103880091Y-139750004D01*
X103880091Y-139749997D01*
X103861787Y-139587545D01*
X103861786Y-139587543D01*
X103861786Y-139587540D01*
X103807789Y-139433226D01*
X103734112Y-139315971D01*
X103715113Y-139248736D01*
X103734114Y-139184027D01*
X103776372Y-139116775D01*
X103807789Y-139066775D01*
X103861786Y-138912461D01*
X103874457Y-138800003D01*
X103880091Y-138750003D01*
X103880091Y-138749996D01*
X103861787Y-138587544D01*
X103861786Y-138587542D01*
X103861786Y-138587539D01*
X103807789Y-138433225D01*
X103734113Y-138315971D01*
X103715113Y-138248736D01*
X103734114Y-138184027D01*
X103776372Y-138116775D01*
X103807789Y-138066775D01*
X103861786Y-137912461D01*
X103874457Y-137800003D01*
X103880091Y-137750003D01*
X103880091Y-137749996D01*
X103861787Y-137587544D01*
X103861786Y-137587542D01*
X103861786Y-137587539D01*
X103807789Y-137433225D01*
X103720808Y-137294796D01*
X103605204Y-137179192D01*
X103584028Y-137165886D01*
X103466774Y-137092210D01*
X103312455Y-137038212D01*
X103150004Y-137019909D01*
X103149996Y-137019909D01*
X102987544Y-137038212D01*
X102833225Y-137092210D01*
X102694795Y-137179192D01*
X102661681Y-137212307D01*
X102600358Y-137245792D01*
X102530666Y-137240808D01*
X102474733Y-137198936D01*
X102450316Y-137133472D01*
X102450000Y-137124626D01*
X102450000Y-130549999D01*
X113244356Y-130549999D01*
X113244356Y-130550000D01*
X113264883Y-130771535D01*
X113264884Y-130771537D01*
X113325768Y-130985523D01*
X113325774Y-130985538D01*
X113424937Y-131184683D01*
X113424942Y-131184691D01*
X113559019Y-131362238D01*
X113723436Y-131512123D01*
X113723438Y-131512125D01*
X113912594Y-131629245D01*
X113912595Y-131629245D01*
X113912598Y-131629247D01*
X114120059Y-131709618D01*
X114338756Y-131750500D01*
X114338758Y-131750500D01*
X114561240Y-131750500D01*
X114561242Y-131750500D01*
X114779939Y-131709618D01*
X114987400Y-131629247D01*
X115176561Y-131512124D01*
X115340980Y-131362236D01*
X115475057Y-131184689D01*
X115574228Y-130985528D01*
X115635114Y-130771536D01*
X115655642Y-130550000D01*
X115655642Y-130549999D01*
X124244356Y-130549999D01*
X124244356Y-130550000D01*
X124264883Y-130771535D01*
X124264884Y-130771537D01*
X124325768Y-130985523D01*
X124325774Y-130985538D01*
X124424937Y-131184683D01*
X124424942Y-131184691D01*
X124559019Y-131362238D01*
X124723436Y-131512123D01*
X124723438Y-131512125D01*
X124912594Y-131629245D01*
X124912595Y-131629245D01*
X124912598Y-131629247D01*
X125120059Y-131709618D01*
X125338756Y-131750500D01*
X125338758Y-131750500D01*
X125561240Y-131750500D01*
X125561242Y-131750500D01*
X125779939Y-131709618D01*
X125987400Y-131629247D01*
X126176561Y-131512124D01*
X126340980Y-131362236D01*
X126475057Y-131184689D01*
X126574228Y-130985528D01*
X126635114Y-130771536D01*
X126655642Y-130550000D01*
X126655642Y-130549999D01*
X127744357Y-130549999D01*
X127744357Y-130550000D01*
X127764884Y-130771535D01*
X127764885Y-130771537D01*
X127825769Y-130985523D01*
X127825775Y-130985538D01*
X127924938Y-131184683D01*
X127924943Y-131184691D01*
X128059020Y-131362238D01*
X128223437Y-131512123D01*
X128223439Y-131512125D01*
X128412595Y-131629245D01*
X128412596Y-131629245D01*
X128412599Y-131629247D01*
X128620060Y-131709618D01*
X128838757Y-131750500D01*
X128838759Y-131750500D01*
X129061241Y-131750500D01*
X129061243Y-131750500D01*
X129279940Y-131709618D01*
X129487401Y-131629247D01*
X129676562Y-131512124D01*
X129840981Y-131362236D01*
X129975058Y-131184689D01*
X130074229Y-130985528D01*
X130135115Y-130771536D01*
X130155643Y-130550000D01*
X130155643Y-130549999D01*
X138744357Y-130549999D01*
X138744357Y-130550000D01*
X138764884Y-130771535D01*
X138764885Y-130771537D01*
X138825769Y-130985523D01*
X138825775Y-130985538D01*
X138924938Y-131184683D01*
X138924943Y-131184691D01*
X139059020Y-131362238D01*
X139223437Y-131512123D01*
X139223439Y-131512125D01*
X139412595Y-131629245D01*
X139412596Y-131629245D01*
X139412599Y-131629247D01*
X139620060Y-131709618D01*
X139838757Y-131750500D01*
X139838759Y-131750500D01*
X140061241Y-131750500D01*
X140061243Y-131750500D01*
X140279940Y-131709618D01*
X140487401Y-131629247D01*
X140676562Y-131512124D01*
X140840981Y-131362236D01*
X140975058Y-131184689D01*
X141042128Y-131049996D01*
X142859909Y-131049996D01*
X142859909Y-131050003D01*
X142878212Y-131212455D01*
X142932210Y-131366774D01*
X142932211Y-131366775D01*
X143019192Y-131505204D01*
X143134796Y-131620808D01*
X143273225Y-131707789D01*
X143427539Y-131761786D01*
X143427542Y-131761786D01*
X143427544Y-131761787D01*
X143589996Y-131780091D01*
X143590000Y-131780091D01*
X143590004Y-131780091D01*
X143752455Y-131761787D01*
X143752456Y-131761786D01*
X143752461Y-131761786D01*
X143906775Y-131707789D01*
X144045204Y-131620808D01*
X144160808Y-131505204D01*
X144247789Y-131366775D01*
X144301786Y-131212461D01*
X144320091Y-131050000D01*
X144312826Y-130985523D01*
X144301787Y-130887544D01*
X144301786Y-130887542D01*
X144301786Y-130887539D01*
X144247789Y-130733225D01*
X144160808Y-130594796D01*
X144045204Y-130479192D01*
X144031859Y-130470807D01*
X143906774Y-130392210D01*
X143752455Y-130338212D01*
X143590004Y-130319909D01*
X143589996Y-130319909D01*
X143427544Y-130338212D01*
X143273225Y-130392210D01*
X143134795Y-130479192D01*
X143019192Y-130594795D01*
X142932210Y-130733225D01*
X142878212Y-130887544D01*
X142859909Y-131049996D01*
X141042128Y-131049996D01*
X141074229Y-130985528D01*
X141135115Y-130771536D01*
X141155643Y-130550000D01*
X141135115Y-130328464D01*
X141074229Y-130114472D01*
X141074224Y-130114461D01*
X140975061Y-129915316D01*
X140975056Y-129915308D01*
X140963493Y-129899996D01*
X145259909Y-129899996D01*
X145259909Y-129900003D01*
X145278212Y-130062455D01*
X145332210Y-130216774D01*
X145332211Y-130216775D01*
X145419192Y-130355204D01*
X145534796Y-130470808D01*
X145673225Y-130557789D01*
X145827539Y-130611786D01*
X145827542Y-130611786D01*
X145827544Y-130611787D01*
X145989996Y-130630091D01*
X145990000Y-130630091D01*
X145990004Y-130630091D01*
X146152455Y-130611787D01*
X146152456Y-130611786D01*
X146152461Y-130611786D01*
X146306775Y-130557789D01*
X146445204Y-130470808D01*
X146560808Y-130355204D01*
X146647789Y-130216775D01*
X146701786Y-130062461D01*
X146701787Y-130062455D01*
X146720091Y-129900003D01*
X146720091Y-129899996D01*
X148379908Y-129899996D01*
X148379908Y-129900003D01*
X148398211Y-130062455D01*
X148452209Y-130216774D01*
X148452210Y-130216775D01*
X148539191Y-130355204D01*
X148654795Y-130470808D01*
X148793224Y-130557789D01*
X148947538Y-130611786D01*
X148947541Y-130611786D01*
X148947543Y-130611787D01*
X149109995Y-130630091D01*
X149109999Y-130630091D01*
X149110003Y-130630091D01*
X149272454Y-130611787D01*
X149272455Y-130611786D01*
X149272460Y-130611786D01*
X149426774Y-130557789D01*
X149565203Y-130470808D01*
X149680807Y-130355204D01*
X149767788Y-130216775D01*
X149821785Y-130062461D01*
X149821786Y-130062455D01*
X149840090Y-129900003D01*
X149840090Y-129899996D01*
X149821786Y-129737544D01*
X149821785Y-129737542D01*
X149821785Y-129737539D01*
X149767788Y-129583225D01*
X149680807Y-129444796D01*
X149565203Y-129329192D01*
X149511328Y-129295340D01*
X149426773Y-129242210D01*
X149272454Y-129188212D01*
X149110003Y-129169909D01*
X149109995Y-129169909D01*
X148947543Y-129188212D01*
X148793224Y-129242210D01*
X148654794Y-129329192D01*
X148539191Y-129444795D01*
X148452209Y-129583225D01*
X148398211Y-129737544D01*
X148379908Y-129899996D01*
X146720091Y-129899996D01*
X146701787Y-129737544D01*
X146701786Y-129737542D01*
X146701786Y-129737539D01*
X146647789Y-129583225D01*
X146560808Y-129444796D01*
X146445204Y-129329192D01*
X146391329Y-129295340D01*
X146306774Y-129242210D01*
X146152455Y-129188212D01*
X145990004Y-129169909D01*
X145989996Y-129169909D01*
X145827544Y-129188212D01*
X145673225Y-129242210D01*
X145534795Y-129329192D01*
X145419192Y-129444795D01*
X145332210Y-129583225D01*
X145278212Y-129737544D01*
X145259909Y-129899996D01*
X140963493Y-129899996D01*
X140840979Y-129737761D01*
X140676562Y-129587876D01*
X140676560Y-129587874D01*
X140487404Y-129470754D01*
X140487398Y-129470752D01*
X140279940Y-129390382D01*
X140061243Y-129349500D01*
X139838757Y-129349500D01*
X139620060Y-129390382D01*
X139488864Y-129441207D01*
X139412601Y-129470752D01*
X139412595Y-129470754D01*
X139223439Y-129587874D01*
X139223437Y-129587876D01*
X139059020Y-129737761D01*
X138924943Y-129915308D01*
X138924938Y-129915316D01*
X138825775Y-130114461D01*
X138825769Y-130114476D01*
X138764885Y-130328462D01*
X138764884Y-130328464D01*
X138744357Y-130549999D01*
X130155643Y-130549999D01*
X130135115Y-130328464D01*
X130074229Y-130114472D01*
X130074224Y-130114461D01*
X129975061Y-129915316D01*
X129975056Y-129915308D01*
X129840979Y-129737761D01*
X129676562Y-129587876D01*
X129676560Y-129587874D01*
X129487404Y-129470754D01*
X129487398Y-129470752D01*
X129279940Y-129390382D01*
X129061243Y-129349500D01*
X128838757Y-129349500D01*
X128620060Y-129390382D01*
X128488864Y-129441207D01*
X128412601Y-129470752D01*
X128412595Y-129470754D01*
X128223439Y-129587874D01*
X128223437Y-129587876D01*
X128059020Y-129737761D01*
X127924943Y-129915308D01*
X127924938Y-129915316D01*
X127825775Y-130114461D01*
X127825769Y-130114476D01*
X127764885Y-130328462D01*
X127764884Y-130328464D01*
X127744357Y-130549999D01*
X126655642Y-130549999D01*
X126635114Y-130328464D01*
X126574228Y-130114472D01*
X126574223Y-130114461D01*
X126475060Y-129915316D01*
X126475055Y-129915308D01*
X126340978Y-129737761D01*
X126176561Y-129587876D01*
X126176559Y-129587874D01*
X125987403Y-129470754D01*
X125987397Y-129470752D01*
X125779939Y-129390382D01*
X125561242Y-129349500D01*
X125338756Y-129349500D01*
X125120059Y-129390382D01*
X124988863Y-129441207D01*
X124912600Y-129470752D01*
X124912594Y-129470754D01*
X124723438Y-129587874D01*
X124723436Y-129587876D01*
X124559019Y-129737761D01*
X124424942Y-129915308D01*
X124424937Y-129915316D01*
X124325774Y-130114461D01*
X124325768Y-130114476D01*
X124264884Y-130328462D01*
X124264883Y-130328464D01*
X124244356Y-130549999D01*
X115655642Y-130549999D01*
X115635114Y-130328464D01*
X115574228Y-130114472D01*
X115574223Y-130114461D01*
X115475060Y-129915316D01*
X115475055Y-129915308D01*
X115340978Y-129737761D01*
X115176561Y-129587876D01*
X115176559Y-129587874D01*
X114987403Y-129470754D01*
X114987397Y-129470752D01*
X114779939Y-129390382D01*
X114561242Y-129349500D01*
X114338756Y-129349500D01*
X114120059Y-129390382D01*
X113988863Y-129441207D01*
X113912600Y-129470752D01*
X113912594Y-129470754D01*
X113723438Y-129587874D01*
X113723436Y-129587876D01*
X113559019Y-129737761D01*
X113424942Y-129915308D01*
X113424937Y-129915316D01*
X113325774Y-130114461D01*
X113325768Y-130114476D01*
X113264884Y-130328462D01*
X113264883Y-130328464D01*
X113244356Y-130549999D01*
X102450000Y-130549999D01*
X102450000Y-125549992D01*
X115194670Y-125549992D01*
X115194670Y-125550007D01*
X115213963Y-125844363D01*
X115213964Y-125844373D01*
X115213965Y-125844380D01*
X115251881Y-126035001D01*
X115271517Y-126133716D01*
X115271520Y-126133730D01*
X115366348Y-126413080D01*
X115496824Y-126677660D01*
X115496828Y-126677667D01*
X115660724Y-126922955D01*
X115855240Y-127144758D01*
X116077043Y-127339274D01*
X116126837Y-127372545D01*
X116322334Y-127503172D01*
X116586922Y-127633652D01*
X116866277Y-127728481D01*
X117155619Y-127786034D01*
X117183887Y-127787886D01*
X117449992Y-127805329D01*
X117449999Y-127805329D01*
X117450006Y-127805329D01*
X117685674Y-127789881D01*
X117744379Y-127786034D01*
X118033721Y-127728481D01*
X118313076Y-127633652D01*
X118577664Y-127503172D01*
X118822956Y-127339273D01*
X119044757Y-127144758D01*
X119239272Y-126922957D01*
X119403171Y-126677665D01*
X119533651Y-126413077D01*
X119628480Y-126133722D01*
X119686033Y-125844380D01*
X119699333Y-125641462D01*
X119705328Y-125550007D01*
X119705328Y-125549992D01*
X119686034Y-125255636D01*
X119686033Y-125255620D01*
X119628480Y-124966278D01*
X119533651Y-124686923D01*
X119443812Y-124504747D01*
X120199499Y-124504747D01*
X120199499Y-126595238D01*
X120199500Y-126595253D01*
X120205985Y-126677660D01*
X120210069Y-126729553D01*
X120265948Y-126951316D01*
X120303308Y-127033566D01*
X120360527Y-127159537D01*
X120360530Y-127159543D01*
X120490758Y-127347514D01*
X120490762Y-127347519D01*
X120490765Y-127347523D01*
X120652476Y-127509234D01*
X120652480Y-127509237D01*
X120652484Y-127509240D01*
X120840455Y-127639468D01*
X120840461Y-127639471D01*
X120840462Y-127639471D01*
X120840463Y-127639472D01*
X121048683Y-127734051D01*
X121270446Y-127789930D01*
X121404752Y-127800500D01*
X123495245Y-127800499D01*
X123629552Y-127789930D01*
X123851315Y-127734051D01*
X124059535Y-127639472D01*
X124059537Y-127639470D01*
X124059542Y-127639468D01*
X124247513Y-127509240D01*
X124247522Y-127509234D01*
X124409233Y-127347523D01*
X124452786Y-127284658D01*
X124539467Y-127159543D01*
X124539470Y-127159537D01*
X124539471Y-127159536D01*
X124634050Y-126951316D01*
X124689929Y-126729553D01*
X124700499Y-126595247D01*
X124700498Y-125549992D01*
X129694671Y-125549992D01*
X129694671Y-125550007D01*
X129713964Y-125844363D01*
X129713965Y-125844373D01*
X129713966Y-125844380D01*
X129751882Y-126035001D01*
X129771518Y-126133716D01*
X129771521Y-126133730D01*
X129866349Y-126413080D01*
X129996825Y-126677660D01*
X129996829Y-126677667D01*
X130160725Y-126922955D01*
X130355241Y-127144758D01*
X130577044Y-127339274D01*
X130626838Y-127372545D01*
X130822335Y-127503172D01*
X131086923Y-127633652D01*
X131366278Y-127728481D01*
X131655620Y-127786034D01*
X131683888Y-127787886D01*
X131949993Y-127805329D01*
X131950000Y-127805329D01*
X131950007Y-127805329D01*
X132185675Y-127789881D01*
X132244380Y-127786034D01*
X132533722Y-127728481D01*
X132813077Y-127633652D01*
X133077665Y-127503172D01*
X133322957Y-127339273D01*
X133544758Y-127144758D01*
X133739273Y-126922957D01*
X133903172Y-126677665D01*
X134033652Y-126413077D01*
X134128481Y-126133722D01*
X134186034Y-125844380D01*
X134199334Y-125641462D01*
X134205329Y-125550007D01*
X134205329Y-125549992D01*
X134186035Y-125255636D01*
X134186034Y-125255620D01*
X134128481Y-124966278D01*
X134033652Y-124686923D01*
X133943813Y-124504747D01*
X134699500Y-124504747D01*
X134699500Y-126595238D01*
X134699501Y-126595253D01*
X134705986Y-126677660D01*
X134710070Y-126729553D01*
X134765949Y-126951316D01*
X134803309Y-127033566D01*
X134860528Y-127159537D01*
X134860531Y-127159543D01*
X134990759Y-127347514D01*
X134990763Y-127347519D01*
X134990766Y-127347523D01*
X135152477Y-127509234D01*
X135152481Y-127509237D01*
X135152485Y-127509240D01*
X135340456Y-127639468D01*
X135340462Y-127639471D01*
X135340463Y-127639471D01*
X135340464Y-127639472D01*
X135548684Y-127734051D01*
X135770447Y-127789930D01*
X135904753Y-127800500D01*
X137995246Y-127800499D01*
X138129553Y-127789930D01*
X138351316Y-127734051D01*
X138559536Y-127639472D01*
X138559538Y-127639470D01*
X138559543Y-127639468D01*
X138747514Y-127509240D01*
X138747523Y-127509234D01*
X138909234Y-127347523D01*
X138952787Y-127284658D01*
X139039468Y-127159543D01*
X139039471Y-127159537D01*
X139039472Y-127159536D01*
X139134051Y-126951316D01*
X139189930Y-126729553D01*
X139200500Y-126595247D01*
X139200499Y-124504754D01*
X139189930Y-124370447D01*
X139134051Y-124148684D01*
X139107395Y-124090000D01*
X142894661Y-124090000D01*
X142913977Y-124286129D01*
X142971190Y-124474733D01*
X143064088Y-124648532D01*
X143064092Y-124648539D01*
X143189118Y-124800883D01*
X143341462Y-124925909D01*
X143341469Y-124925913D01*
X143515272Y-125018813D01*
X143540084Y-125026340D01*
X143598522Y-125064638D01*
X143626978Y-125128450D01*
X143616417Y-125197517D01*
X143570192Y-125249910D01*
X143540084Y-125263660D01*
X143515272Y-125271186D01*
X143341469Y-125364086D01*
X143341462Y-125364090D01*
X143189118Y-125489116D01*
X143064092Y-125641460D01*
X143064088Y-125641467D01*
X142971190Y-125815266D01*
X142913977Y-126003870D01*
X142894661Y-126200000D01*
X142913977Y-126396129D01*
X142913978Y-126396132D01*
X142956102Y-126534997D01*
X142971190Y-126584733D01*
X143064088Y-126758532D01*
X143064092Y-126758539D01*
X143189118Y-126910883D01*
X143341462Y-127035909D01*
X143341469Y-127035913D01*
X143515270Y-127128812D01*
X143519189Y-127130435D01*
X143573596Y-127174272D01*
X143595665Y-127240565D01*
X143578390Y-127308265D01*
X143527256Y-127355879D01*
X143519199Y-127359559D01*
X143515274Y-127361184D01*
X143341469Y-127454085D01*
X143341462Y-127454089D01*
X143189118Y-127579115D01*
X143064092Y-127731459D01*
X143064088Y-127731466D01*
X142971190Y-127905265D01*
X142913977Y-128093869D01*
X142894661Y-128289999D01*
X142913977Y-128486128D01*
X142971190Y-128674732D01*
X143064088Y-128848531D01*
X143064092Y-128848538D01*
X143189118Y-129000882D01*
X143341462Y-129125908D01*
X143341469Y-129125912D01*
X143515268Y-129218810D01*
X143515271Y-129218810D01*
X143515275Y-129218813D01*
X143703870Y-129276023D01*
X143900002Y-129295340D01*
X144096134Y-129276023D01*
X144284729Y-129218813D01*
X144341980Y-129188212D01*
X144458534Y-129125912D01*
X144458540Y-129125909D01*
X144610885Y-129000882D01*
X144735912Y-128848537D01*
X144828816Y-128674726D01*
X144886026Y-128486131D01*
X144905343Y-128289999D01*
X144886026Y-128093867D01*
X144828816Y-127905272D01*
X144828813Y-127905268D01*
X144828813Y-127905265D01*
X144735915Y-127731466D01*
X144735911Y-127731459D01*
X144610885Y-127579115D01*
X144458541Y-127454089D01*
X144458534Y-127454085D01*
X144284734Y-127361187D01*
X144280808Y-127359561D01*
X144226404Y-127315720D01*
X144204338Y-127249427D01*
X144221616Y-127181727D01*
X144272753Y-127134116D01*
X144280818Y-127130433D01*
X144284717Y-127128817D01*
X144284729Y-127128814D01*
X144458540Y-127035910D01*
X144610885Y-126910883D01*
X144735912Y-126758538D01*
X144823193Y-126595247D01*
X144828813Y-126584733D01*
X144828813Y-126584732D01*
X144828816Y-126584727D01*
X144886026Y-126396132D01*
X144905343Y-126200000D01*
X144886026Y-126003868D01*
X144828816Y-125815273D01*
X144828813Y-125815269D01*
X144828813Y-125815266D01*
X144735915Y-125641467D01*
X144735911Y-125641460D01*
X144610885Y-125489116D01*
X144458541Y-125364090D01*
X144458534Y-125364086D01*
X144284735Y-125271188D01*
X144284729Y-125271186D01*
X144259917Y-125263659D01*
X144201482Y-125225363D01*
X144173026Y-125161551D01*
X144183586Y-125092484D01*
X144229810Y-125040090D01*
X144259914Y-125026341D01*
X144284729Y-125018814D01*
X144458540Y-124925910D01*
X144610885Y-124800883D01*
X144735912Y-124648538D01*
X144782364Y-124561632D01*
X144828813Y-124474733D01*
X144828813Y-124474732D01*
X144828816Y-124474727D01*
X144886026Y-124286132D01*
X144905343Y-124090000D01*
X144886026Y-123893868D01*
X144828816Y-123705273D01*
X144828813Y-123705269D01*
X144828813Y-123705266D01*
X144735915Y-123531467D01*
X144735911Y-123531460D01*
X144610885Y-123379116D01*
X144458541Y-123254090D01*
X144458534Y-123254086D01*
X144284735Y-123161188D01*
X144284729Y-123161186D01*
X144096134Y-123103976D01*
X144096131Y-123103975D01*
X143900002Y-123084659D01*
X143703872Y-123103975D01*
X143515268Y-123161188D01*
X143341469Y-123254086D01*
X143341462Y-123254090D01*
X143189118Y-123379116D01*
X143064092Y-123531460D01*
X143064088Y-123531467D01*
X142971190Y-123705266D01*
X142913977Y-123893870D01*
X142894661Y-124090000D01*
X139107395Y-124090000D01*
X139039472Y-123940464D01*
X139039471Y-123940462D01*
X139039468Y-123940456D01*
X138909240Y-123752485D01*
X138909237Y-123752481D01*
X138909234Y-123752477D01*
X138747523Y-123590766D01*
X138747519Y-123590763D01*
X138747514Y-123590759D01*
X138559543Y-123460531D01*
X138559537Y-123460528D01*
X138455426Y-123413238D01*
X138351316Y-123365949D01*
X138129553Y-123310070D01*
X137995247Y-123299500D01*
X137995245Y-123299500D01*
X135904761Y-123299500D01*
X135904746Y-123299501D01*
X135770447Y-123310070D01*
X135548684Y-123365949D01*
X135340462Y-123460528D01*
X135340456Y-123460531D01*
X135152485Y-123590759D01*
X135152473Y-123590769D01*
X134990769Y-123752473D01*
X134990759Y-123752485D01*
X134860531Y-123940456D01*
X134860528Y-123940462D01*
X134765949Y-124148684D01*
X134710070Y-124370447D01*
X134699500Y-124504747D01*
X133943813Y-124504747D01*
X133903172Y-124422336D01*
X133739273Y-124177043D01*
X133662938Y-124090000D01*
X133544758Y-123955241D01*
X133322955Y-123760725D01*
X133077667Y-123596829D01*
X133077660Y-123596825D01*
X132813080Y-123466349D01*
X132533730Y-123371521D01*
X132533724Y-123371519D01*
X132533722Y-123371519D01*
X132244380Y-123313966D01*
X132244373Y-123313965D01*
X132244363Y-123313964D01*
X131950007Y-123294671D01*
X131949993Y-123294671D01*
X131655636Y-123313964D01*
X131655624Y-123313965D01*
X131655620Y-123313966D01*
X131655612Y-123313967D01*
X131655609Y-123313968D01*
X131366283Y-123371518D01*
X131366269Y-123371521D01*
X131086919Y-123466349D01*
X130822334Y-123596828D01*
X130577041Y-123760728D01*
X130355241Y-123955241D01*
X130160728Y-124177041D01*
X129996828Y-124422334D01*
X129866349Y-124686919D01*
X129771521Y-124966269D01*
X129771518Y-124966283D01*
X129713968Y-125255609D01*
X129713964Y-125255636D01*
X129694671Y-125549992D01*
X124700498Y-125549992D01*
X124700498Y-124504754D01*
X124689929Y-124370447D01*
X124634050Y-124148684D01*
X124539471Y-123940464D01*
X124539470Y-123940462D01*
X124539467Y-123940456D01*
X124409239Y-123752485D01*
X124409236Y-123752481D01*
X124409233Y-123752477D01*
X124247522Y-123590766D01*
X124247518Y-123590763D01*
X124247513Y-123590759D01*
X124059542Y-123460531D01*
X124059536Y-123460528D01*
X123955425Y-123413238D01*
X123851315Y-123365949D01*
X123629552Y-123310070D01*
X123495246Y-123299500D01*
X123495244Y-123299500D01*
X121404760Y-123299500D01*
X121404745Y-123299501D01*
X121270446Y-123310070D01*
X121048683Y-123365949D01*
X120840461Y-123460528D01*
X120840455Y-123460531D01*
X120652484Y-123590759D01*
X120652472Y-123590769D01*
X120490768Y-123752473D01*
X120490758Y-123752485D01*
X120360530Y-123940456D01*
X120360527Y-123940462D01*
X120265948Y-124148684D01*
X120210069Y-124370447D01*
X120199499Y-124504747D01*
X119443812Y-124504747D01*
X119403171Y-124422336D01*
X119239272Y-124177043D01*
X119162937Y-124090000D01*
X119044757Y-123955241D01*
X118822954Y-123760725D01*
X118577666Y-123596829D01*
X118577659Y-123596825D01*
X118313079Y-123466349D01*
X118033729Y-123371521D01*
X118033723Y-123371519D01*
X118033721Y-123371519D01*
X117744379Y-123313966D01*
X117744372Y-123313965D01*
X117744362Y-123313964D01*
X117450006Y-123294671D01*
X117449992Y-123294671D01*
X117155635Y-123313964D01*
X117155623Y-123313965D01*
X117155619Y-123313966D01*
X117155611Y-123313967D01*
X117155608Y-123313968D01*
X116866282Y-123371518D01*
X116866268Y-123371521D01*
X116586918Y-123466349D01*
X116322333Y-123596828D01*
X116077040Y-123760728D01*
X115855240Y-123955241D01*
X115660727Y-124177041D01*
X115496827Y-124422334D01*
X115366348Y-124686919D01*
X115271520Y-124966269D01*
X115271517Y-124966283D01*
X115213967Y-125255609D01*
X115213963Y-125255636D01*
X115194670Y-125549992D01*
X102450000Y-125549992D01*
X102450000Y-119060000D01*
X146929659Y-119060000D01*
X146948975Y-119256129D01*
X147006188Y-119444733D01*
X147099086Y-119618532D01*
X147099090Y-119618539D01*
X147224116Y-119770883D01*
X147376460Y-119895909D01*
X147376467Y-119895914D01*
X147553691Y-119990642D01*
X147603536Y-120039604D01*
X147618996Y-120107742D01*
X147595164Y-120173422D01*
X147553691Y-120209358D01*
X147376467Y-120304085D01*
X147376460Y-120304090D01*
X147224116Y-120429116D01*
X147099090Y-120581460D01*
X147099086Y-120581467D01*
X147006188Y-120755266D01*
X146948975Y-120943870D01*
X146929659Y-121140000D01*
X146948975Y-121336129D01*
X147006188Y-121524733D01*
X147099086Y-121698532D01*
X147099090Y-121698539D01*
X147224116Y-121850883D01*
X147376460Y-121975909D01*
X147376467Y-121975913D01*
X147550266Y-122068811D01*
X147550269Y-122068811D01*
X147550273Y-122068814D01*
X147738868Y-122126024D01*
X147935000Y-122145341D01*
X148131132Y-122126024D01*
X148319727Y-122068814D01*
X148493538Y-121975910D01*
X148645883Y-121850883D01*
X148770910Y-121698538D01*
X148863814Y-121524727D01*
X148921024Y-121336132D01*
X148940341Y-121140000D01*
X148921024Y-120943868D01*
X148863814Y-120755273D01*
X148863811Y-120755269D01*
X148863811Y-120755266D01*
X148770913Y-120581467D01*
X148770909Y-120581460D01*
X148645883Y-120429116D01*
X148493539Y-120304090D01*
X148493532Y-120304086D01*
X148316308Y-120209358D01*
X148266464Y-120160396D01*
X148251003Y-120092258D01*
X148274835Y-120026579D01*
X148316308Y-119990642D01*
X148441977Y-119923469D01*
X148493538Y-119895910D01*
X148645883Y-119770883D01*
X148770910Y-119618538D01*
X148863814Y-119444727D01*
X148921024Y-119256132D01*
X148940341Y-119060000D01*
X148921024Y-118863868D01*
X148863814Y-118675273D01*
X148863811Y-118675269D01*
X148863811Y-118675266D01*
X148770913Y-118501467D01*
X148770909Y-118501460D01*
X148645883Y-118349116D01*
X148493539Y-118224090D01*
X148493532Y-118224086D01*
X148319733Y-118131188D01*
X148319727Y-118131186D01*
X148131132Y-118073976D01*
X148131129Y-118073975D01*
X147935000Y-118054659D01*
X147738870Y-118073975D01*
X147550266Y-118131188D01*
X147376467Y-118224086D01*
X147376460Y-118224090D01*
X147224116Y-118349116D01*
X147099090Y-118501460D01*
X147099086Y-118501467D01*
X147006188Y-118675266D01*
X146948975Y-118863870D01*
X146929659Y-119060000D01*
X102450000Y-119060000D01*
X102450000Y-115124000D01*
X102469685Y-115056961D01*
X102522489Y-115011206D01*
X102574000Y-115000000D01*
X120950000Y-115000000D01*
X120950000Y-109799996D01*
X123169909Y-109799996D01*
X123169909Y-109800003D01*
X123188212Y-109962455D01*
X123242210Y-110116774D01*
X123287713Y-110189191D01*
X123329192Y-110255204D01*
X123444796Y-110370808D01*
X123583225Y-110457789D01*
X123737539Y-110511786D01*
X123737542Y-110511786D01*
X123737544Y-110511787D01*
X123899996Y-110530091D01*
X123900000Y-110530091D01*
X123900002Y-110530091D01*
X123936780Y-110525947D01*
X124005602Y-110538001D01*
X124056981Y-110585350D01*
X124073884Y-110635284D01*
X124088212Y-110762455D01*
X124142210Y-110916774D01*
X124142211Y-110916775D01*
X124229192Y-111055204D01*
X124344796Y-111170808D01*
X124483225Y-111257789D01*
X124637539Y-111311786D01*
X124637542Y-111311786D01*
X124637544Y-111311787D01*
X124799996Y-111330091D01*
X124800000Y-111330091D01*
X124800003Y-111330091D01*
X124911830Y-111317491D01*
X124980652Y-111329545D01*
X125032032Y-111376894D01*
X125049656Y-111444505D01*
X125042756Y-111481665D01*
X124988212Y-111637543D01*
X124969909Y-111799995D01*
X124969909Y-111800002D01*
X124988212Y-111962454D01*
X125042210Y-112116773D01*
X125084468Y-112184025D01*
X125129192Y-112255203D01*
X125244796Y-112370807D01*
X125383225Y-112457788D01*
X125537539Y-112511785D01*
X125537542Y-112511785D01*
X125537544Y-112511786D01*
X125699996Y-112530090D01*
X125700000Y-112530090D01*
X125700001Y-112530090D01*
X125707125Y-112529287D01*
X125736971Y-112525924D01*
X125805792Y-112537978D01*
X125857172Y-112585326D01*
X125874797Y-112652936D01*
X125874075Y-112663026D01*
X125869910Y-112699994D01*
X125869910Y-112700003D01*
X125888213Y-112862455D01*
X125942211Y-113016774D01*
X125942212Y-113016775D01*
X126029193Y-113155204D01*
X126144797Y-113270808D01*
X126283226Y-113357789D01*
X126437540Y-113411786D01*
X126437543Y-113411786D01*
X126437545Y-113411787D01*
X126599997Y-113430091D01*
X126600001Y-113430091D01*
X126600005Y-113430091D01*
X126762456Y-113411787D01*
X126762457Y-113411786D01*
X126762462Y-113411786D01*
X126916776Y-113357789D01*
X127055205Y-113270808D01*
X127170809Y-113155204D01*
X127257790Y-113016775D01*
X127311787Y-112862461D01*
X127330092Y-112700000D01*
X127330092Y-112699996D01*
X127311788Y-112537542D01*
X127257790Y-112383226D01*
X127257790Y-112383225D01*
X127215530Y-112315969D01*
X127196530Y-112248737D01*
X127215529Y-112184030D01*
X127257790Y-112116775D01*
X127311787Y-111962461D01*
X127311787Y-111962459D01*
X127311788Y-111962457D01*
X127330092Y-111800003D01*
X127330092Y-111799996D01*
X127311788Y-111637544D01*
X127311787Y-111637542D01*
X127311787Y-111637539D01*
X127257790Y-111483225D01*
X127170809Y-111344796D01*
X127113693Y-111287680D01*
X127080208Y-111226357D01*
X127085192Y-111156665D01*
X127113689Y-111112322D01*
X127170808Y-111055204D01*
X127257789Y-110916775D01*
X127311786Y-110762461D01*
X127312063Y-110760002D01*
X127312064Y-110759995D01*
X131769909Y-110759995D01*
X131769909Y-110760002D01*
X131788212Y-110922454D01*
X131842210Y-111076773D01*
X131901296Y-111170807D01*
X131929192Y-111215203D01*
X132044796Y-111330807D01*
X132183225Y-111417788D01*
X132337539Y-111471785D01*
X132337542Y-111471785D01*
X132337544Y-111471786D01*
X132499996Y-111490090D01*
X132500000Y-111490090D01*
X132500004Y-111490090D01*
X132662455Y-111471786D01*
X132662456Y-111471785D01*
X132662461Y-111471785D01*
X132816775Y-111417788D01*
X132955204Y-111330807D01*
X133037319Y-111248692D01*
X133098642Y-111215207D01*
X133168334Y-111220191D01*
X133212681Y-111248692D01*
X133294796Y-111330807D01*
X133433225Y-111417788D01*
X133587539Y-111471785D01*
X133587542Y-111471785D01*
X133587544Y-111471786D01*
X133749996Y-111490090D01*
X133750000Y-111490090D01*
X133750004Y-111490090D01*
X133912455Y-111471786D01*
X133912456Y-111471785D01*
X133912461Y-111471785D01*
X134066775Y-111417788D01*
X134205204Y-111330807D01*
X134287319Y-111248692D01*
X134348642Y-111215207D01*
X134418334Y-111220191D01*
X134462681Y-111248692D01*
X134544796Y-111330807D01*
X134683225Y-111417788D01*
X134837539Y-111471785D01*
X134837542Y-111471785D01*
X134837544Y-111471786D01*
X134999996Y-111490090D01*
X135000000Y-111490090D01*
X135000004Y-111490090D01*
X135162455Y-111471786D01*
X135162456Y-111471785D01*
X135162461Y-111471785D01*
X135316775Y-111417788D01*
X135455204Y-111330807D01*
X135570808Y-111215203D01*
X135657789Y-111076774D01*
X135711786Y-110922460D01*
X135729814Y-110762461D01*
X135730091Y-110760002D01*
X135730091Y-110759995D01*
X135711787Y-110597543D01*
X135711786Y-110597541D01*
X135711786Y-110597538D01*
X135657789Y-110443224D01*
X135570808Y-110304795D01*
X135455204Y-110189191D01*
X135339955Y-110116775D01*
X135316774Y-110102209D01*
X135162455Y-110048211D01*
X135000004Y-110029908D01*
X134999996Y-110029908D01*
X134837544Y-110048211D01*
X134683225Y-110102209D01*
X134544795Y-110189191D01*
X134462681Y-110271306D01*
X134401358Y-110304791D01*
X134331666Y-110299807D01*
X134287319Y-110271306D01*
X134205204Y-110189191D01*
X134066774Y-110102209D01*
X133912455Y-110048211D01*
X133750004Y-110029908D01*
X133749996Y-110029908D01*
X133587544Y-110048211D01*
X133433225Y-110102209D01*
X133294795Y-110189191D01*
X133212681Y-110271306D01*
X133151358Y-110304791D01*
X133081666Y-110299807D01*
X133037319Y-110271306D01*
X132955204Y-110189191D01*
X132816774Y-110102209D01*
X132662455Y-110048211D01*
X132500004Y-110029908D01*
X132499996Y-110029908D01*
X132337544Y-110048211D01*
X132183225Y-110102209D01*
X132044795Y-110189191D01*
X131929192Y-110304794D01*
X131842210Y-110443224D01*
X131788212Y-110597543D01*
X131769909Y-110759995D01*
X127312064Y-110759995D01*
X127330091Y-110600003D01*
X127330091Y-110599996D01*
X127311787Y-110437544D01*
X127311786Y-110437542D01*
X127311786Y-110437539D01*
X127257789Y-110283225D01*
X127246948Y-110265971D01*
X127227948Y-110198737D01*
X127246949Y-110134026D01*
X127246951Y-110134023D01*
X127257789Y-110116775D01*
X127311786Y-109962461D01*
X127330091Y-109800000D01*
X127330090Y-109799996D01*
X137669909Y-109799996D01*
X137669909Y-109800003D01*
X137688212Y-109962455D01*
X137742210Y-110116774D01*
X137787713Y-110189191D01*
X137829192Y-110255204D01*
X137944796Y-110370808D01*
X138083225Y-110457789D01*
X138237539Y-110511786D01*
X138237542Y-110511786D01*
X138237544Y-110511787D01*
X138399996Y-110530091D01*
X138400000Y-110530091D01*
X138400002Y-110530091D01*
X138436780Y-110525947D01*
X138505602Y-110538001D01*
X138556981Y-110585350D01*
X138573884Y-110635284D01*
X138588212Y-110762455D01*
X138642210Y-110916774D01*
X138642211Y-110916775D01*
X138729192Y-111055204D01*
X138844796Y-111170808D01*
X138983225Y-111257789D01*
X139137539Y-111311786D01*
X139137542Y-111311786D01*
X139137544Y-111311787D01*
X139299996Y-111330091D01*
X139300000Y-111330091D01*
X139300003Y-111330091D01*
X139411830Y-111317491D01*
X139480652Y-111329545D01*
X139532032Y-111376894D01*
X139549656Y-111444505D01*
X139542756Y-111481665D01*
X139488212Y-111637544D01*
X139469909Y-111799996D01*
X139469909Y-111800003D01*
X139488212Y-111962455D01*
X139542210Y-112116774D01*
X139625921Y-112249999D01*
X139629192Y-112255204D01*
X139744796Y-112370808D01*
X139883225Y-112457789D01*
X140037539Y-112511786D01*
X140037542Y-112511786D01*
X140037544Y-112511787D01*
X140199996Y-112530091D01*
X140200000Y-112530091D01*
X140200001Y-112530091D01*
X140207125Y-112529288D01*
X140236971Y-112525925D01*
X140305792Y-112537979D01*
X140357172Y-112585327D01*
X140374797Y-112652937D01*
X140374075Y-112663028D01*
X140369910Y-112699995D01*
X140369910Y-112700003D01*
X140388213Y-112862455D01*
X140442211Y-113016774D01*
X140442212Y-113016775D01*
X140529193Y-113155204D01*
X140644797Y-113270808D01*
X140783226Y-113357789D01*
X140937540Y-113411786D01*
X140937543Y-113411786D01*
X140937545Y-113411787D01*
X141099997Y-113430091D01*
X141100001Y-113430091D01*
X141100005Y-113430091D01*
X141262456Y-113411787D01*
X141262457Y-113411786D01*
X141262462Y-113411786D01*
X141416776Y-113357789D01*
X141555205Y-113270808D01*
X141670809Y-113155204D01*
X141757790Y-113016775D01*
X141811787Y-112862461D01*
X141830092Y-112700000D01*
X141830092Y-112699996D01*
X141811788Y-112537542D01*
X141757790Y-112383225D01*
X141757788Y-112383222D01*
X141715531Y-112315970D01*
X141696531Y-112248733D01*
X141715531Y-112184026D01*
X141757789Y-112116775D01*
X141811786Y-111962461D01*
X141811786Y-111962459D01*
X141811787Y-111962457D01*
X141830091Y-111800003D01*
X141830091Y-111799996D01*
X141811787Y-111637544D01*
X141811786Y-111637542D01*
X141811786Y-111637539D01*
X141757789Y-111483225D01*
X141670808Y-111344796D01*
X141613692Y-111287680D01*
X141580208Y-111226358D01*
X141585192Y-111156666D01*
X141613693Y-111112319D01*
X141636842Y-111089170D01*
X141670808Y-111055204D01*
X141757789Y-110916775D01*
X141811786Y-110762461D01*
X141812063Y-110760002D01*
X141812064Y-110759995D01*
X146269908Y-110759995D01*
X146269908Y-110760002D01*
X146288211Y-110922454D01*
X146342209Y-111076773D01*
X146401295Y-111170807D01*
X146429191Y-111215203D01*
X146544795Y-111330807D01*
X146683224Y-111417788D01*
X146837538Y-111471785D01*
X146837541Y-111471785D01*
X146837543Y-111471786D01*
X146999995Y-111490090D01*
X146999999Y-111490090D01*
X147000003Y-111490090D01*
X147162454Y-111471786D01*
X147162455Y-111471785D01*
X147162460Y-111471785D01*
X147316774Y-111417788D01*
X147455203Y-111330807D01*
X147537321Y-111248688D01*
X147598640Y-111215206D01*
X147668332Y-111220190D01*
X147712680Y-111248691D01*
X147794796Y-111330807D01*
X147933225Y-111417788D01*
X148087539Y-111471785D01*
X148087542Y-111471785D01*
X148087544Y-111471786D01*
X148249996Y-111490090D01*
X148250000Y-111490090D01*
X148250004Y-111490090D01*
X148412455Y-111471786D01*
X148412456Y-111471785D01*
X148412461Y-111471785D01*
X148566775Y-111417788D01*
X148705204Y-111330807D01*
X148812319Y-111223692D01*
X148873642Y-111190207D01*
X148943334Y-111195191D01*
X148987681Y-111223692D01*
X149094796Y-111330807D01*
X149233225Y-111417788D01*
X149387539Y-111471785D01*
X149387542Y-111471785D01*
X149387544Y-111471786D01*
X149549996Y-111490090D01*
X149550000Y-111490090D01*
X149550004Y-111490090D01*
X149712455Y-111471786D01*
X149712456Y-111471785D01*
X149712461Y-111471785D01*
X149866775Y-111417788D01*
X150005204Y-111330807D01*
X150120808Y-111215203D01*
X150207789Y-111076774D01*
X150261786Y-110922460D01*
X150279814Y-110762461D01*
X150280091Y-110760002D01*
X150280091Y-110759995D01*
X150261787Y-110597543D01*
X150261786Y-110597541D01*
X150261786Y-110597538D01*
X150207789Y-110443224D01*
X150120808Y-110304795D01*
X150005204Y-110189191D01*
X149889955Y-110116775D01*
X149866774Y-110102209D01*
X149712455Y-110048211D01*
X149550004Y-110029908D01*
X149549996Y-110029908D01*
X149387544Y-110048211D01*
X149233225Y-110102209D01*
X149094795Y-110189191D01*
X148987681Y-110296306D01*
X148926358Y-110329791D01*
X148856666Y-110324807D01*
X148812319Y-110296306D01*
X148705204Y-110189191D01*
X148566774Y-110102209D01*
X148412455Y-110048211D01*
X148250004Y-110029908D01*
X148249996Y-110029908D01*
X148087544Y-110048211D01*
X147933225Y-110102209D01*
X147794797Y-110189190D01*
X147712680Y-110271307D01*
X147651356Y-110304791D01*
X147581665Y-110299807D01*
X147537318Y-110271306D01*
X147455203Y-110189191D01*
X147316773Y-110102209D01*
X147162454Y-110048211D01*
X147000003Y-110029908D01*
X146999995Y-110029908D01*
X146837543Y-110048211D01*
X146683224Y-110102209D01*
X146544794Y-110189191D01*
X146429191Y-110304794D01*
X146342209Y-110443224D01*
X146288211Y-110597543D01*
X146269908Y-110759995D01*
X141812064Y-110759995D01*
X141830091Y-110600003D01*
X141830091Y-110599996D01*
X141811787Y-110437542D01*
X141801376Y-110407789D01*
X141757789Y-110283225D01*
X141746946Y-110265969D01*
X141727947Y-110198734D01*
X141746950Y-110134023D01*
X141757789Y-110116774D01*
X141811786Y-109962460D01*
X141811786Y-109962458D01*
X141811787Y-109962456D01*
X141830091Y-109800002D01*
X141830091Y-109799995D01*
X141811787Y-109637543D01*
X141811786Y-109637539D01*
X141811786Y-109637538D01*
X141757789Y-109483224D01*
X141670808Y-109344795D01*
X141555204Y-109229191D01*
X141484028Y-109184468D01*
X141416774Y-109142209D01*
X141282939Y-109095378D01*
X141262461Y-109088213D01*
X141262460Y-109088212D01*
X141262455Y-109088211D01*
X141100004Y-109069908D01*
X141099996Y-109069908D01*
X140937544Y-109088211D01*
X140783228Y-109142208D01*
X140783221Y-109142211D01*
X140715970Y-109184468D01*
X140648733Y-109203468D01*
X140584027Y-109184468D01*
X140516774Y-109142210D01*
X140362455Y-109088212D01*
X140200004Y-109069909D01*
X140199996Y-109069909D01*
X140037544Y-109088212D01*
X139883222Y-109142211D01*
X139815971Y-109184468D01*
X139748735Y-109203468D01*
X139684029Y-109184468D01*
X139616777Y-109142211D01*
X139462455Y-109088212D01*
X139300004Y-109069909D01*
X139299996Y-109069909D01*
X139137544Y-109088212D01*
X138983222Y-109142211D01*
X138915971Y-109184468D01*
X138848735Y-109203468D01*
X138784029Y-109184468D01*
X138716777Y-109142211D01*
X138562455Y-109088212D01*
X138400004Y-109069909D01*
X138399996Y-109069909D01*
X138237544Y-109088212D01*
X138083225Y-109142210D01*
X137944795Y-109229192D01*
X137829192Y-109344795D01*
X137742210Y-109483225D01*
X137688212Y-109637544D01*
X137669909Y-109799996D01*
X127330090Y-109799996D01*
X127330090Y-109799995D01*
X127311787Y-109637544D01*
X127311786Y-109637542D01*
X127311786Y-109637539D01*
X127257789Y-109483225D01*
X127170808Y-109344796D01*
X127055204Y-109229192D01*
X127014265Y-109203468D01*
X126916774Y-109142210D01*
X126762455Y-109088212D01*
X126600004Y-109069909D01*
X126599996Y-109069909D01*
X126437544Y-109088212D01*
X126283222Y-109142211D01*
X126215971Y-109184468D01*
X126148735Y-109203468D01*
X126084029Y-109184468D01*
X126016777Y-109142211D01*
X125862455Y-109088212D01*
X125700004Y-109069909D01*
X125699996Y-109069909D01*
X125537544Y-109088212D01*
X125383222Y-109142211D01*
X125315971Y-109184468D01*
X125248735Y-109203468D01*
X125184029Y-109184468D01*
X125116777Y-109142211D01*
X124962455Y-109088212D01*
X124800004Y-109069909D01*
X124799996Y-109069909D01*
X124637544Y-109088212D01*
X124483222Y-109142211D01*
X124415971Y-109184468D01*
X124348735Y-109203468D01*
X124284029Y-109184468D01*
X124216777Y-109142211D01*
X124062455Y-109088212D01*
X123900004Y-109069909D01*
X123899996Y-109069909D01*
X123737544Y-109088212D01*
X123583225Y-109142210D01*
X123444795Y-109229192D01*
X123329192Y-109344795D01*
X123242210Y-109483225D01*
X123188212Y-109637544D01*
X123169909Y-109799996D01*
X120950000Y-109799996D01*
X120950000Y-104499996D01*
X129269909Y-104499996D01*
X129269909Y-104500003D01*
X129288212Y-104662455D01*
X129342210Y-104816774D01*
X129429192Y-104955204D01*
X129544797Y-105070809D01*
X129662881Y-105145007D01*
X129709171Y-105197342D01*
X129719819Y-105266395D01*
X129691444Y-105330243D01*
X129662881Y-105354993D01*
X129544797Y-105429190D01*
X129429192Y-105544795D01*
X129342210Y-105683225D01*
X129288212Y-105837544D01*
X129269909Y-105999996D01*
X129269909Y-106000003D01*
X129288212Y-106162455D01*
X129342210Y-106316774D01*
X129429192Y-106455204D01*
X129544796Y-106570808D01*
X129683225Y-106657789D01*
X129837539Y-106711786D01*
X129837542Y-106711786D01*
X129837544Y-106711787D01*
X129999996Y-106730091D01*
X130000000Y-106730091D01*
X130000004Y-106730091D01*
X130162455Y-106711787D01*
X130162456Y-106711786D01*
X130162461Y-106711786D01*
X130316775Y-106657789D01*
X130434028Y-106584113D01*
X130501264Y-106565113D01*
X130565971Y-106584112D01*
X130683226Y-106657789D01*
X130837540Y-106711786D01*
X130837543Y-106711786D01*
X130837545Y-106711787D01*
X130999997Y-106730091D01*
X131000001Y-106730091D01*
X131000005Y-106730091D01*
X131162456Y-106711787D01*
X131162457Y-106711786D01*
X131162462Y-106711786D01*
X131316776Y-106657789D01*
X131434027Y-106584114D01*
X131501264Y-106565114D01*
X131565972Y-106584114D01*
X131683224Y-106657789D01*
X131837538Y-106711786D01*
X131837541Y-106711786D01*
X131837543Y-106711787D01*
X131999995Y-106730091D01*
X131999999Y-106730091D01*
X132000003Y-106730091D01*
X132162454Y-106711787D01*
X132162455Y-106711786D01*
X132162460Y-106711786D01*
X132316774Y-106657789D01*
X132455203Y-106570808D01*
X132570807Y-106455204D01*
X132657788Y-106316775D01*
X132711785Y-106162461D01*
X132730090Y-106000000D01*
X132711785Y-105837539D01*
X132657788Y-105683225D01*
X132570807Y-105544796D01*
X132455203Y-105429192D01*
X132337118Y-105354994D01*
X132290827Y-105302659D01*
X132280179Y-105233605D01*
X132308554Y-105169757D01*
X132337117Y-105145007D01*
X132455204Y-105070808D01*
X132570808Y-104955204D01*
X132657789Y-104816775D01*
X132711786Y-104662461D01*
X132730091Y-104500000D01*
X132730090Y-104499995D01*
X143769909Y-104499995D01*
X143769909Y-104500002D01*
X143788212Y-104662454D01*
X143842210Y-104816773D01*
X143929192Y-104955203D01*
X144044797Y-105070808D01*
X144162883Y-105145007D01*
X144209173Y-105197341D01*
X144219821Y-105266395D01*
X144191446Y-105330243D01*
X144162883Y-105354993D01*
X144044797Y-105429191D01*
X143929192Y-105544796D01*
X143842210Y-105683226D01*
X143788212Y-105837545D01*
X143769909Y-105999997D01*
X143769909Y-106000004D01*
X143788212Y-106162456D01*
X143842210Y-106316775D01*
X143842211Y-106316776D01*
X143929192Y-106455205D01*
X144044796Y-106570809D01*
X144183225Y-106657790D01*
X144337539Y-106711787D01*
X144337542Y-106711787D01*
X144337544Y-106711788D01*
X144499996Y-106730092D01*
X144500000Y-106730092D01*
X144500004Y-106730092D01*
X144662455Y-106711788D01*
X144662456Y-106711787D01*
X144662461Y-106711787D01*
X144816775Y-106657790D01*
X144934029Y-106584113D01*
X145001265Y-106565114D01*
X145065973Y-106584114D01*
X145183225Y-106657789D01*
X145337539Y-106711786D01*
X145337542Y-106711786D01*
X145337544Y-106711787D01*
X145499996Y-106730091D01*
X145500000Y-106730091D01*
X145500004Y-106730091D01*
X145662455Y-106711787D01*
X145662456Y-106711786D01*
X145662461Y-106711786D01*
X145816775Y-106657789D01*
X145934028Y-106584113D01*
X146001264Y-106565113D01*
X146065971Y-106584113D01*
X146183225Y-106657789D01*
X146337539Y-106711786D01*
X146337542Y-106711786D01*
X146337544Y-106711787D01*
X146499996Y-106730091D01*
X146500000Y-106730091D01*
X146500004Y-106730091D01*
X146662455Y-106711787D01*
X146662456Y-106711786D01*
X146662461Y-106711786D01*
X146816775Y-106657789D01*
X146955204Y-106570808D01*
X147070808Y-106455204D01*
X147157789Y-106316775D01*
X147211786Y-106162461D01*
X147230091Y-106000000D01*
X147211786Y-105837539D01*
X147157789Y-105683225D01*
X147070808Y-105544796D01*
X146955204Y-105429192D01*
X146837119Y-105354994D01*
X146790828Y-105302659D01*
X146780180Y-105233605D01*
X146808555Y-105169757D01*
X146837119Y-105145006D01*
X146870096Y-105124285D01*
X146955204Y-105070808D01*
X147070808Y-104955204D01*
X147157789Y-104816775D01*
X147211786Y-104662461D01*
X147230091Y-104500000D01*
X147230090Y-104499995D01*
X147211787Y-104337544D01*
X147211786Y-104337542D01*
X147211786Y-104337539D01*
X147157789Y-104183225D01*
X147070808Y-104044796D01*
X146955204Y-103929192D01*
X146825347Y-103847597D01*
X146816774Y-103842210D01*
X146677850Y-103793599D01*
X146662461Y-103788214D01*
X146662460Y-103788213D01*
X146662455Y-103788212D01*
X146500004Y-103769909D01*
X146499996Y-103769909D01*
X146337544Y-103788212D01*
X146183225Y-103842210D01*
X146062944Y-103917788D01*
X145995707Y-103936788D01*
X145931000Y-103917788D01*
X145819290Y-103847596D01*
X145664971Y-103793598D01*
X145502520Y-103775295D01*
X145502512Y-103775295D01*
X145340060Y-103793598D01*
X145185741Y-103847596D01*
X145071516Y-103919369D01*
X145004279Y-103938369D01*
X144939572Y-103919368D01*
X144816778Y-103842210D01*
X144662455Y-103788211D01*
X144500004Y-103769908D01*
X144499996Y-103769908D01*
X144337544Y-103788211D01*
X144183225Y-103842209D01*
X144044795Y-103929191D01*
X143929192Y-104044794D01*
X143842210Y-104183224D01*
X143788212Y-104337543D01*
X143769909Y-104499995D01*
X132730090Y-104499995D01*
X132711787Y-104337544D01*
X132711786Y-104337542D01*
X132711786Y-104337539D01*
X132657789Y-104183225D01*
X132570808Y-104044796D01*
X132455204Y-103929192D01*
X132325347Y-103847597D01*
X132316774Y-103842210D01*
X132177850Y-103793599D01*
X132162461Y-103788214D01*
X132162460Y-103788213D01*
X132162455Y-103788212D01*
X132000004Y-103769909D01*
X131999996Y-103769909D01*
X131837544Y-103788212D01*
X131683225Y-103842210D01*
X131562944Y-103917788D01*
X131495707Y-103936788D01*
X131430999Y-103917787D01*
X131319292Y-103847596D01*
X131164971Y-103793597D01*
X131002520Y-103775294D01*
X131002512Y-103775294D01*
X130840060Y-103793597D01*
X130685741Y-103847595D01*
X130571515Y-103919369D01*
X130504278Y-103938369D01*
X130439571Y-103919369D01*
X130316774Y-103842210D01*
X130177850Y-103793599D01*
X130162461Y-103788214D01*
X130162460Y-103788213D01*
X130162455Y-103788212D01*
X130000004Y-103769909D01*
X129999996Y-103769909D01*
X129837544Y-103788212D01*
X129683225Y-103842210D01*
X129544795Y-103929192D01*
X129429192Y-104044795D01*
X129342210Y-104183225D01*
X129288212Y-104337544D01*
X129269909Y-104499996D01*
X120950000Y-104499996D01*
X120950000Y-99259995D01*
X133769909Y-99259995D01*
X133769909Y-99260002D01*
X133788212Y-99422454D01*
X133842210Y-99576773D01*
X133842211Y-99576774D01*
X133929192Y-99715203D01*
X134044796Y-99830807D01*
X134183225Y-99917788D01*
X134337539Y-99971785D01*
X134337542Y-99971785D01*
X134337544Y-99971786D01*
X134499996Y-99990090D01*
X134500000Y-99990090D01*
X134500004Y-99990090D01*
X134662455Y-99971786D01*
X134662456Y-99971785D01*
X134662461Y-99971785D01*
X134816775Y-99917788D01*
X134955204Y-99830807D01*
X135070808Y-99715203D01*
X135157789Y-99576774D01*
X135211786Y-99422460D01*
X135230091Y-99259999D01*
X135230091Y-99259995D01*
X148269909Y-99259995D01*
X148269909Y-99260002D01*
X148288212Y-99422454D01*
X148342210Y-99576773D01*
X148342211Y-99576774D01*
X148429192Y-99715203D01*
X148544796Y-99830807D01*
X148683225Y-99917788D01*
X148837539Y-99971785D01*
X148837542Y-99971785D01*
X148837544Y-99971786D01*
X148999996Y-99990090D01*
X149000000Y-99990090D01*
X149000004Y-99990090D01*
X149162455Y-99971786D01*
X149162456Y-99971785D01*
X149162461Y-99971785D01*
X149316775Y-99917788D01*
X149455204Y-99830807D01*
X149570808Y-99715203D01*
X149657789Y-99576774D01*
X149711786Y-99422460D01*
X149730091Y-99259999D01*
X149711786Y-99097538D01*
X149657789Y-98943224D01*
X149570808Y-98804795D01*
X149455204Y-98689191D01*
X149316774Y-98602209D01*
X149162455Y-98548211D01*
X149000004Y-98529908D01*
X148999996Y-98529908D01*
X148837544Y-98548211D01*
X148683225Y-98602209D01*
X148544795Y-98689191D01*
X148429192Y-98804794D01*
X148342210Y-98943224D01*
X148288212Y-99097543D01*
X148269909Y-99259995D01*
X135230091Y-99259995D01*
X135211786Y-99097538D01*
X135157789Y-98943224D01*
X135070808Y-98804795D01*
X134955204Y-98689191D01*
X134816774Y-98602209D01*
X134662455Y-98548211D01*
X134500004Y-98529908D01*
X134499996Y-98529908D01*
X134337544Y-98548211D01*
X134183225Y-98602209D01*
X134044795Y-98689191D01*
X133929192Y-98804794D01*
X133842210Y-98943224D01*
X133788212Y-99097543D01*
X133769909Y-99259995D01*
X120950000Y-99259995D01*
X120950000Y-96499996D01*
X121569909Y-96499996D01*
X121569909Y-96500003D01*
X121588212Y-96662455D01*
X121642210Y-96816774D01*
X121642211Y-96816775D01*
X121729192Y-96955204D01*
X121844796Y-97070808D01*
X121983225Y-97157789D01*
X122137539Y-97211786D01*
X122137542Y-97211786D01*
X122137544Y-97211787D01*
X122299996Y-97230091D01*
X122300000Y-97230091D01*
X122300004Y-97230091D01*
X122462455Y-97211787D01*
X122462456Y-97211786D01*
X122462461Y-97211786D01*
X122616775Y-97157789D01*
X122755204Y-97070808D01*
X122870808Y-96955204D01*
X122957789Y-96816775D01*
X123011786Y-96662461D01*
X123030091Y-96500000D01*
X123022214Y-96430091D01*
X123011787Y-96337544D01*
X123011786Y-96337542D01*
X123011786Y-96337539D01*
X122957789Y-96183225D01*
X122870808Y-96044796D01*
X122755204Y-95929192D01*
X122692974Y-95890090D01*
X122616774Y-95842210D01*
X122462455Y-95788212D01*
X122300004Y-95769909D01*
X122299996Y-95769909D01*
X122137544Y-95788212D01*
X121983225Y-95842210D01*
X121844795Y-95929192D01*
X121729192Y-96044795D01*
X121642210Y-96183225D01*
X121588212Y-96337544D01*
X121569909Y-96499996D01*
X120950000Y-96499996D01*
X120950000Y-96224043D01*
X120969007Y-96158070D01*
X121040182Y-96044796D01*
X121057789Y-96016775D01*
X121111786Y-95862461D01*
X121114068Y-95842210D01*
X121130091Y-95700003D01*
X121130091Y-95699996D01*
X121111787Y-95537544D01*
X121111786Y-95537542D01*
X121111786Y-95537539D01*
X121057789Y-95383225D01*
X120970808Y-95244796D01*
X120969006Y-95241928D01*
X120950000Y-95175956D01*
X120950000Y-89349996D01*
X148619909Y-89349996D01*
X148619909Y-89350003D01*
X148638212Y-89512455D01*
X148692210Y-89666774D01*
X148692211Y-89666775D01*
X148779192Y-89805204D01*
X148894796Y-89920808D01*
X149033225Y-90007789D01*
X149187539Y-90061786D01*
X149187546Y-90061786D01*
X149188547Y-90062016D01*
X149189129Y-90062342D01*
X149194111Y-90064085D01*
X149193805Y-90064957D01*
X149249524Y-90096127D01*
X149282380Y-90157790D01*
X149277992Y-90223860D01*
X149238212Y-90337544D01*
X149219909Y-90499996D01*
X149219909Y-90500003D01*
X149238212Y-90662455D01*
X149292210Y-90816774D01*
X149292211Y-90816775D01*
X149379192Y-90955204D01*
X149494796Y-91070808D01*
X149633225Y-91157789D01*
X149787539Y-91211786D01*
X149787542Y-91211786D01*
X149787544Y-91211787D01*
X149949996Y-91230091D01*
X149950000Y-91230091D01*
X149950004Y-91230091D01*
X150112457Y-91211787D01*
X150112459Y-91211786D01*
X150112461Y-91211786D01*
X150266775Y-91157789D01*
X150309030Y-91131237D01*
X150376263Y-91112238D01*
X150440969Y-91131237D01*
X150483225Y-91157789D01*
X150483228Y-91157790D01*
X150637542Y-91211787D01*
X150799996Y-91230091D01*
X150800000Y-91230091D01*
X150800004Y-91230091D01*
X150962455Y-91211787D01*
X150962456Y-91211786D01*
X150962461Y-91211786D01*
X151116775Y-91157789D01*
X151255204Y-91070808D01*
X151370808Y-90955204D01*
X151457789Y-90816775D01*
X151511786Y-90662461D01*
X151530091Y-90500000D01*
X151511786Y-90337539D01*
X151457789Y-90183225D01*
X151370808Y-90044796D01*
X151255204Y-89929192D01*
X151189266Y-89887760D01*
X151116774Y-89842210D01*
X150962455Y-89788212D01*
X150800004Y-89769909D01*
X150799996Y-89769909D01*
X150637544Y-89788212D01*
X150483225Y-89842210D01*
X150440972Y-89868760D01*
X150373735Y-89887760D01*
X150309028Y-89868760D01*
X150266774Y-89842210D01*
X150112447Y-89788209D01*
X150111441Y-89787980D01*
X150110857Y-89787653D01*
X150105889Y-89785915D01*
X150106193Y-89785044D01*
X150050467Y-89753864D01*
X150017617Y-89692198D01*
X150022007Y-89626139D01*
X150061786Y-89512461D01*
X150061786Y-89512459D01*
X150061787Y-89512457D01*
X150080091Y-89350003D01*
X150080091Y-89349996D01*
X150061787Y-89187544D01*
X150061786Y-89187542D01*
X150061786Y-89187539D01*
X150007789Y-89033225D01*
X149920808Y-88894796D01*
X149805204Y-88779192D01*
X149739312Y-88737789D01*
X149666774Y-88692210D01*
X149512455Y-88638212D01*
X149350004Y-88619909D01*
X149349996Y-88619909D01*
X149187544Y-88638212D01*
X149033225Y-88692210D01*
X148894795Y-88779192D01*
X148779192Y-88894795D01*
X148692210Y-89033225D01*
X148638212Y-89187544D01*
X148619909Y-89349996D01*
X120950000Y-89349996D01*
X120950000Y-88079996D01*
X149919909Y-88079996D01*
X149919909Y-88080003D01*
X149938212Y-88242455D01*
X149992210Y-88396774D01*
X149992211Y-88396775D01*
X150079192Y-88535204D01*
X150194796Y-88650808D01*
X150333225Y-88737789D01*
X150487539Y-88791786D01*
X150487542Y-88791786D01*
X150487544Y-88791787D01*
X150649996Y-88810091D01*
X150650000Y-88810091D01*
X150650004Y-88810091D01*
X150812455Y-88791787D01*
X150812456Y-88791786D01*
X150812461Y-88791786D01*
X150966775Y-88737789D01*
X151105204Y-88650808D01*
X151220808Y-88535204D01*
X151307789Y-88396775D01*
X151361786Y-88242461D01*
X151361787Y-88242455D01*
X151380091Y-88080003D01*
X151380091Y-88079996D01*
X151361787Y-87917544D01*
X151361786Y-87917542D01*
X151361786Y-87917539D01*
X151307789Y-87763225D01*
X151220808Y-87624796D01*
X151105204Y-87509192D01*
X150966774Y-87422210D01*
X150812455Y-87368212D01*
X150650004Y-87349909D01*
X150649996Y-87349909D01*
X150487544Y-87368212D01*
X150333225Y-87422210D01*
X150194795Y-87509192D01*
X150079192Y-87624795D01*
X149992210Y-87763225D01*
X149938212Y-87917544D01*
X149919909Y-88079996D01*
X120950000Y-88079996D01*
X120950000Y-79049996D01*
X123269908Y-79049996D01*
X123269908Y-79050003D01*
X123288211Y-79212455D01*
X123342209Y-79366774D01*
X123415885Y-79484028D01*
X123434885Y-79551265D01*
X123415885Y-79615972D01*
X123342209Y-79733225D01*
X123288211Y-79887544D01*
X123269908Y-80049996D01*
X123269908Y-80050003D01*
X123288211Y-80212455D01*
X123342209Y-80366774D01*
X123415885Y-80484028D01*
X123434885Y-80551265D01*
X123415885Y-80615972D01*
X123342209Y-80733225D01*
X123288211Y-80887544D01*
X123269908Y-81049996D01*
X123269908Y-81050003D01*
X123288211Y-81212455D01*
X123342209Y-81366774D01*
X123342210Y-81366775D01*
X123429191Y-81505204D01*
X123544795Y-81620808D01*
X123683224Y-81707789D01*
X123837538Y-81761786D01*
X123837541Y-81761786D01*
X123837543Y-81761787D01*
X123999995Y-81780091D01*
X123999999Y-81780091D01*
X124000003Y-81780091D01*
X124162454Y-81761787D01*
X124162455Y-81761786D01*
X124162460Y-81761786D01*
X124316774Y-81707789D01*
X124434027Y-81634113D01*
X124501263Y-81615113D01*
X124565970Y-81634113D01*
X124683224Y-81707789D01*
X124837538Y-81761786D01*
X124837541Y-81761786D01*
X124837543Y-81761787D01*
X124999995Y-81780091D01*
X124999999Y-81780091D01*
X125000003Y-81780091D01*
X125162454Y-81761787D01*
X125162455Y-81761786D01*
X125162460Y-81761786D01*
X125316774Y-81707789D01*
X125455203Y-81620808D01*
X125570807Y-81505204D01*
X125657788Y-81366775D01*
X125711785Y-81212461D01*
X125730090Y-81050000D01*
X125711785Y-80887539D01*
X125657788Y-80733225D01*
X125584112Y-80615971D01*
X125565112Y-80548736D01*
X125584113Y-80484027D01*
X125657787Y-80366776D01*
X125657788Y-80366775D01*
X125711785Y-80212461D01*
X125730090Y-80050000D01*
X125725784Y-80011786D01*
X125711786Y-79887544D01*
X125711785Y-79887542D01*
X125711785Y-79887539D01*
X125657788Y-79733225D01*
X125584113Y-79615972D01*
X125565113Y-79548737D01*
X125584113Y-79484029D01*
X125597665Y-79462461D01*
X125657789Y-79366775D01*
X125711786Y-79212461D01*
X125711787Y-79212455D01*
X125730091Y-79050003D01*
X125730091Y-79049996D01*
X130769908Y-79049996D01*
X130769908Y-79050003D01*
X130788211Y-79212455D01*
X130842209Y-79366774D01*
X130915885Y-79484028D01*
X130934885Y-79551265D01*
X130915885Y-79615972D01*
X130842209Y-79733225D01*
X130788211Y-79887544D01*
X130769908Y-80049996D01*
X130769908Y-80050003D01*
X130788211Y-80212455D01*
X130842209Y-80366774D01*
X130915885Y-80484028D01*
X130934885Y-80551265D01*
X130915885Y-80615972D01*
X130842209Y-80733225D01*
X130788211Y-80887544D01*
X130769908Y-81049996D01*
X130769908Y-81050003D01*
X130788211Y-81212455D01*
X130842209Y-81366774D01*
X130842210Y-81366775D01*
X130929191Y-81505204D01*
X131044795Y-81620808D01*
X131183224Y-81707789D01*
X131337538Y-81761786D01*
X131337541Y-81761786D01*
X131337543Y-81761787D01*
X131499995Y-81780091D01*
X131499999Y-81780091D01*
X131500003Y-81780091D01*
X131662454Y-81761787D01*
X131662455Y-81761786D01*
X131662460Y-81761786D01*
X131816774Y-81707789D01*
X131934027Y-81634113D01*
X132001263Y-81615113D01*
X132065970Y-81634113D01*
X132183224Y-81707789D01*
X132337538Y-81761786D01*
X132337541Y-81761786D01*
X132337543Y-81761787D01*
X132499995Y-81780091D01*
X132499999Y-81780091D01*
X132500003Y-81780091D01*
X132662454Y-81761787D01*
X132662455Y-81761786D01*
X132662460Y-81761786D01*
X132816774Y-81707789D01*
X132955203Y-81620808D01*
X133070807Y-81505204D01*
X133157788Y-81366775D01*
X133211785Y-81212461D01*
X133230090Y-81050000D01*
X133211785Y-80887539D01*
X133157788Y-80733225D01*
X133084112Y-80615971D01*
X133065112Y-80548736D01*
X133084113Y-80484027D01*
X133157787Y-80366776D01*
X133157788Y-80366775D01*
X133211785Y-80212461D01*
X133230090Y-80050000D01*
X133225784Y-80011786D01*
X133211786Y-79887544D01*
X133211785Y-79887542D01*
X133211785Y-79887539D01*
X133157788Y-79733225D01*
X133084113Y-79615972D01*
X133065113Y-79548737D01*
X133084113Y-79484029D01*
X133097665Y-79462461D01*
X133157789Y-79366775D01*
X133211786Y-79212461D01*
X133211787Y-79212455D01*
X133230091Y-79050003D01*
X133230091Y-79049996D01*
X138269908Y-79049996D01*
X138269908Y-79050003D01*
X138288211Y-79212455D01*
X138342209Y-79366774D01*
X138415885Y-79484028D01*
X138434885Y-79551265D01*
X138415885Y-79615972D01*
X138342209Y-79733225D01*
X138288211Y-79887544D01*
X138269908Y-80049996D01*
X138269908Y-80050003D01*
X138288211Y-80212455D01*
X138342209Y-80366774D01*
X138415885Y-80484028D01*
X138434885Y-80551265D01*
X138415885Y-80615972D01*
X138342209Y-80733225D01*
X138288211Y-80887544D01*
X138269908Y-81049996D01*
X138269908Y-81050003D01*
X138288211Y-81212455D01*
X138342209Y-81366774D01*
X138342210Y-81366775D01*
X138429191Y-81505204D01*
X138544795Y-81620808D01*
X138683224Y-81707789D01*
X138837538Y-81761786D01*
X138837541Y-81761786D01*
X138837543Y-81761787D01*
X138999995Y-81780091D01*
X138999999Y-81780091D01*
X139000003Y-81780091D01*
X139162454Y-81761787D01*
X139162455Y-81761786D01*
X139162460Y-81761786D01*
X139316774Y-81707789D01*
X139434027Y-81634113D01*
X139501263Y-81615113D01*
X139565970Y-81634113D01*
X139683224Y-81707789D01*
X139837538Y-81761786D01*
X139837541Y-81761786D01*
X139837543Y-81761787D01*
X139999995Y-81780091D01*
X139999999Y-81780091D01*
X140000003Y-81780091D01*
X140162454Y-81761787D01*
X140162455Y-81761786D01*
X140162460Y-81761786D01*
X140316774Y-81707789D01*
X140455203Y-81620808D01*
X140570807Y-81505204D01*
X140657788Y-81366775D01*
X140711785Y-81212461D01*
X140730090Y-81050000D01*
X140711785Y-80887539D01*
X140657788Y-80733225D01*
X140584112Y-80615971D01*
X140565112Y-80548736D01*
X140584113Y-80484027D01*
X140657787Y-80366776D01*
X140657788Y-80366775D01*
X140711785Y-80212461D01*
X140730090Y-80050000D01*
X140725784Y-80011786D01*
X140711786Y-79887544D01*
X140711785Y-79887542D01*
X140711785Y-79887539D01*
X140657788Y-79733225D01*
X140584113Y-79615972D01*
X140565113Y-79548737D01*
X140584113Y-79484029D01*
X140597665Y-79462461D01*
X140657789Y-79366775D01*
X140711786Y-79212461D01*
X140711787Y-79212455D01*
X140730091Y-79050003D01*
X140730091Y-79049996D01*
X145769908Y-79049996D01*
X145769908Y-79050003D01*
X145788211Y-79212455D01*
X145842209Y-79366774D01*
X145915885Y-79484028D01*
X145934885Y-79551265D01*
X145915885Y-79615972D01*
X145842209Y-79733225D01*
X145788211Y-79887544D01*
X145769908Y-80049996D01*
X145769908Y-80050003D01*
X145788211Y-80212455D01*
X145842209Y-80366774D01*
X145915885Y-80484028D01*
X145934885Y-80551265D01*
X145915885Y-80615972D01*
X145842209Y-80733225D01*
X145788211Y-80887544D01*
X145769908Y-81049996D01*
X145769908Y-81050003D01*
X145788211Y-81212455D01*
X145842209Y-81366774D01*
X145842210Y-81366775D01*
X145929191Y-81505204D01*
X146044795Y-81620808D01*
X146183224Y-81707789D01*
X146337538Y-81761786D01*
X146337541Y-81761786D01*
X146337543Y-81761787D01*
X146499995Y-81780091D01*
X146499999Y-81780091D01*
X146500003Y-81780091D01*
X146662454Y-81761787D01*
X146662455Y-81761786D01*
X146662460Y-81761786D01*
X146816774Y-81707789D01*
X146934027Y-81634113D01*
X147001263Y-81615113D01*
X147065970Y-81634113D01*
X147183224Y-81707789D01*
X147337538Y-81761786D01*
X147337541Y-81761786D01*
X147337543Y-81761787D01*
X147499995Y-81780091D01*
X147499999Y-81780091D01*
X147500003Y-81780091D01*
X147662454Y-81761787D01*
X147662455Y-81761786D01*
X147662460Y-81761786D01*
X147816774Y-81707789D01*
X147955203Y-81620808D01*
X148070807Y-81505204D01*
X148157788Y-81366775D01*
X148211785Y-81212461D01*
X148230090Y-81050000D01*
X148211785Y-80887539D01*
X148157788Y-80733225D01*
X148084112Y-80615971D01*
X148065112Y-80548736D01*
X148084113Y-80484027D01*
X148157787Y-80366776D01*
X148157788Y-80366775D01*
X148211785Y-80212461D01*
X148230090Y-80050000D01*
X148225784Y-80011786D01*
X148211786Y-79887544D01*
X148211785Y-79887542D01*
X148211785Y-79887539D01*
X148157788Y-79733225D01*
X148084113Y-79615972D01*
X148065113Y-79548737D01*
X148084113Y-79484029D01*
X148097665Y-79462461D01*
X148157789Y-79366775D01*
X148211786Y-79212461D01*
X148211787Y-79212455D01*
X148230091Y-79050003D01*
X148230091Y-79049996D01*
X148211787Y-78887544D01*
X148211786Y-78887542D01*
X148211786Y-78887539D01*
X148157789Y-78733225D01*
X148070808Y-78594796D01*
X147955204Y-78479192D01*
X147822231Y-78395639D01*
X147816774Y-78392210D01*
X147662455Y-78338212D01*
X147500004Y-78319909D01*
X147499996Y-78319909D01*
X147337544Y-78338212D01*
X147183225Y-78392210D01*
X147065971Y-78465886D01*
X146998734Y-78484886D01*
X146934027Y-78465886D01*
X146816773Y-78392210D01*
X146662454Y-78338212D01*
X146500003Y-78319909D01*
X146499995Y-78319909D01*
X146337543Y-78338212D01*
X146183224Y-78392210D01*
X146044794Y-78479192D01*
X145929191Y-78594795D01*
X145842209Y-78733225D01*
X145788211Y-78887544D01*
X145769908Y-79049996D01*
X140730091Y-79049996D01*
X140711787Y-78887544D01*
X140711786Y-78887542D01*
X140711786Y-78887539D01*
X140657789Y-78733225D01*
X140570808Y-78594796D01*
X140455204Y-78479192D01*
X140322231Y-78395639D01*
X140316774Y-78392210D01*
X140162455Y-78338212D01*
X140000004Y-78319909D01*
X139999996Y-78319909D01*
X139837544Y-78338212D01*
X139683225Y-78392210D01*
X139565971Y-78465886D01*
X139498734Y-78484886D01*
X139434027Y-78465886D01*
X139316773Y-78392210D01*
X139162454Y-78338212D01*
X139000003Y-78319909D01*
X138999995Y-78319909D01*
X138837543Y-78338212D01*
X138683224Y-78392210D01*
X138544794Y-78479192D01*
X138429191Y-78594795D01*
X138342209Y-78733225D01*
X138288211Y-78887544D01*
X138269908Y-79049996D01*
X133230091Y-79049996D01*
X133211787Y-78887544D01*
X133211786Y-78887542D01*
X133211786Y-78887539D01*
X133157789Y-78733225D01*
X133070808Y-78594796D01*
X132955204Y-78479192D01*
X132822231Y-78395639D01*
X132816774Y-78392210D01*
X132662455Y-78338212D01*
X132500004Y-78319909D01*
X132499996Y-78319909D01*
X132337544Y-78338212D01*
X132183225Y-78392210D01*
X132065971Y-78465886D01*
X131998734Y-78484886D01*
X131934027Y-78465886D01*
X131816773Y-78392210D01*
X131662454Y-78338212D01*
X131500003Y-78319909D01*
X131499995Y-78319909D01*
X131337543Y-78338212D01*
X131183224Y-78392210D01*
X131044794Y-78479192D01*
X130929191Y-78594795D01*
X130842209Y-78733225D01*
X130788211Y-78887544D01*
X130769908Y-79049996D01*
X125730091Y-79049996D01*
X125711787Y-78887544D01*
X125711786Y-78887542D01*
X125711786Y-78887539D01*
X125657789Y-78733225D01*
X125570808Y-78594796D01*
X125455204Y-78479192D01*
X125322231Y-78395639D01*
X125316774Y-78392210D01*
X125162455Y-78338212D01*
X125000004Y-78319909D01*
X124999996Y-78319909D01*
X124837544Y-78338212D01*
X124683225Y-78392210D01*
X124565971Y-78465886D01*
X124498734Y-78484886D01*
X124434027Y-78465886D01*
X124316773Y-78392210D01*
X124162454Y-78338212D01*
X124000003Y-78319909D01*
X123999995Y-78319909D01*
X123837543Y-78338212D01*
X123683224Y-78392210D01*
X123544794Y-78479192D01*
X123429191Y-78594795D01*
X123342209Y-78733225D01*
X123288211Y-78887544D01*
X123269908Y-79049996D01*
X120950000Y-79049996D01*
X120950000Y-75499996D01*
X131419909Y-75499996D01*
X131419909Y-75500003D01*
X131438212Y-75662455D01*
X131492210Y-75816774D01*
X131526162Y-75870808D01*
X131579192Y-75955204D01*
X131694796Y-76070808D01*
X131833225Y-76157789D01*
X131987539Y-76211786D01*
X131987542Y-76211786D01*
X131987544Y-76211787D01*
X132149996Y-76230091D01*
X132150000Y-76230091D01*
X132150004Y-76230091D01*
X132312455Y-76211787D01*
X132312456Y-76211786D01*
X132312461Y-76211786D01*
X132466775Y-76157789D01*
X132605204Y-76070808D01*
X132720808Y-75955204D01*
X132807789Y-75816775D01*
X132861786Y-75662461D01*
X132880091Y-75500000D01*
X132880091Y-75499996D01*
X138619909Y-75499996D01*
X138619909Y-75500003D01*
X138638212Y-75662455D01*
X138692210Y-75816774D01*
X138726162Y-75870808D01*
X138779192Y-75955204D01*
X138894796Y-76070808D01*
X139033225Y-76157789D01*
X139187539Y-76211786D01*
X139187542Y-76211786D01*
X139187544Y-76211787D01*
X139349996Y-76230091D01*
X139350000Y-76230091D01*
X139350004Y-76230091D01*
X139512455Y-76211787D01*
X139512456Y-76211786D01*
X139512461Y-76211786D01*
X139666775Y-76157789D01*
X139805204Y-76070808D01*
X139920808Y-75955204D01*
X140007789Y-75816775D01*
X140061786Y-75662461D01*
X140080091Y-75500000D01*
X140075861Y-75462461D01*
X140061787Y-75337544D01*
X140061786Y-75337542D01*
X140061786Y-75337539D01*
X140007789Y-75183225D01*
X139920808Y-75044796D01*
X139805204Y-74929192D01*
X139728159Y-74880781D01*
X139666774Y-74842210D01*
X139512455Y-74788212D01*
X139350004Y-74769909D01*
X139349996Y-74769909D01*
X139187544Y-74788212D01*
X139033225Y-74842210D01*
X138894795Y-74929192D01*
X138779192Y-75044795D01*
X138692210Y-75183225D01*
X138638212Y-75337544D01*
X138619909Y-75499996D01*
X132880091Y-75499996D01*
X132875861Y-75462461D01*
X132861787Y-75337544D01*
X132861786Y-75337542D01*
X132861786Y-75337539D01*
X132807789Y-75183225D01*
X132720808Y-75044796D01*
X132605204Y-74929192D01*
X132528159Y-74880781D01*
X132466774Y-74842210D01*
X132312455Y-74788212D01*
X132150004Y-74769909D01*
X132149996Y-74769909D01*
X131987544Y-74788212D01*
X131833225Y-74842210D01*
X131694795Y-74929192D01*
X131579192Y-75044795D01*
X131492210Y-75183225D01*
X131438212Y-75337544D01*
X131419909Y-75499996D01*
X120950000Y-75499996D01*
X120950000Y-72599994D01*
X125144357Y-72599994D01*
X125144357Y-72600005D01*
X125164890Y-72847812D01*
X125164892Y-72847824D01*
X125225936Y-73088881D01*
X125325826Y-73316606D01*
X125461833Y-73524782D01*
X125461836Y-73524785D01*
X125630256Y-73707738D01*
X125826491Y-73860474D01*
X126045190Y-73978828D01*
X126280386Y-74059571D01*
X126525665Y-74100500D01*
X126774335Y-74100500D01*
X127019614Y-74059571D01*
X127254810Y-73978828D01*
X127473509Y-73860474D01*
X127669744Y-73707738D01*
X127838164Y-73524785D01*
X127974173Y-73316607D01*
X128074063Y-73088881D01*
X128135108Y-72847821D01*
X128155643Y-72600000D01*
X128153993Y-72580091D01*
X128135109Y-72352187D01*
X128135107Y-72352175D01*
X128074063Y-72111118D01*
X127974173Y-71883393D01*
X127838166Y-71675217D01*
X127816557Y-71651744D01*
X127669744Y-71492262D01*
X127473509Y-71339526D01*
X127473507Y-71339525D01*
X127473506Y-71339524D01*
X127254811Y-71221172D01*
X127254802Y-71221169D01*
X127019616Y-71140429D01*
X126774335Y-71099500D01*
X126525665Y-71099500D01*
X126280383Y-71140429D01*
X126045197Y-71221169D01*
X126045188Y-71221172D01*
X125826493Y-71339524D01*
X125630257Y-71492261D01*
X125461833Y-71675217D01*
X125325826Y-71883393D01*
X125225936Y-72111118D01*
X125164892Y-72352175D01*
X125164890Y-72352187D01*
X125144357Y-72599994D01*
X120950000Y-72599994D01*
X120950000Y-70351000D01*
X120969685Y-70283961D01*
X121022489Y-70238206D01*
X121074000Y-70227000D01*
X127318926Y-70227000D01*
X127384897Y-70246005D01*
X127483225Y-70307789D01*
X127637539Y-70361786D01*
X127637542Y-70361786D01*
X127637544Y-70361787D01*
X127799996Y-70380091D01*
X127800000Y-70380091D01*
X127800004Y-70380091D01*
X127962455Y-70361787D01*
X127962456Y-70361786D01*
X127962461Y-70361786D01*
X128116775Y-70307789D01*
X128255204Y-70220808D01*
X128255204Y-70220807D01*
X128258070Y-70219007D01*
X128324043Y-70200000D01*
X151926000Y-70200000D01*
X151993039Y-70219685D01*
G37*
%TD.AperFunction*%
%TD*%
%TA.AperFunction,Conductor*%
%TO.N,+3.3V_LOCAL*%
G36*
X180015677Y-70219685D02*
G01*
X180036319Y-70236319D01*
X181863681Y-72063681D01*
X181897166Y-72125004D01*
X181900000Y-72151362D01*
X181900000Y-97883102D01*
X181880315Y-97950141D01*
X181827511Y-97995896D01*
X181758353Y-98005840D01*
X181722198Y-97994822D01*
X181716777Y-97992211D01*
X181562455Y-97938212D01*
X181400004Y-97919909D01*
X181399996Y-97919909D01*
X181237544Y-97938212D01*
X181083225Y-97992210D01*
X180944795Y-98079192D01*
X180829192Y-98194795D01*
X180742210Y-98333225D01*
X180688212Y-98487544D01*
X180669909Y-98649996D01*
X180669909Y-98650003D01*
X180688212Y-98812455D01*
X180742210Y-98966774D01*
X180742211Y-98966775D01*
X180829192Y-99105204D01*
X180944796Y-99220808D01*
X181083225Y-99307789D01*
X181237539Y-99361786D01*
X181237542Y-99361786D01*
X181237544Y-99361787D01*
X181399996Y-99380091D01*
X181400000Y-99380091D01*
X181400004Y-99380091D01*
X181562455Y-99361787D01*
X181562456Y-99361786D01*
X181562461Y-99361786D01*
X181716775Y-99307789D01*
X181716778Y-99307786D01*
X181722190Y-99305181D01*
X181791131Y-99293824D01*
X181855267Y-99321542D01*
X181894237Y-99379534D01*
X181900000Y-99416897D01*
X181900000Y-115926000D01*
X181880315Y-115993039D01*
X181827511Y-116038794D01*
X181776000Y-116050000D01*
X152874000Y-116050000D01*
X152806961Y-116030315D01*
X152761206Y-115977511D01*
X152750000Y-115926000D01*
X152750000Y-114474997D01*
X178269909Y-114474997D01*
X178269909Y-114475004D01*
X178288212Y-114637456D01*
X178342210Y-114791775D01*
X178342211Y-114791776D01*
X178429192Y-114930205D01*
X178544796Y-115045809D01*
X178683225Y-115132790D01*
X178837539Y-115186787D01*
X178837542Y-115186787D01*
X178837544Y-115186788D01*
X178999996Y-115205092D01*
X179000000Y-115205092D01*
X179000004Y-115205092D01*
X179162455Y-115186788D01*
X179162456Y-115186787D01*
X179162461Y-115186787D01*
X179316775Y-115132790D01*
X179455204Y-115045809D01*
X179570808Y-114930205D01*
X179657789Y-114791776D01*
X179711786Y-114637462D01*
X179730091Y-114475001D01*
X179711786Y-114312540D01*
X179657789Y-114158226D01*
X179570808Y-114019797D01*
X179455204Y-113904193D01*
X179337272Y-113830091D01*
X179316774Y-113817211D01*
X179162455Y-113763213D01*
X179000004Y-113744910D01*
X178999996Y-113744910D01*
X178837544Y-113763213D01*
X178683225Y-113817211D01*
X178544795Y-113904193D01*
X178429192Y-114019796D01*
X178342210Y-114158226D01*
X178288212Y-114312545D01*
X178269909Y-114474997D01*
X152750000Y-114474997D01*
X152750000Y-113099996D01*
X163309910Y-113099996D01*
X163309910Y-113100003D01*
X163328213Y-113262455D01*
X163382211Y-113416774D01*
X163382212Y-113416775D01*
X163469193Y-113555204D01*
X163584797Y-113670808D01*
X163723226Y-113757789D01*
X163877540Y-113811786D01*
X163877543Y-113811786D01*
X163877545Y-113811787D01*
X164039997Y-113830091D01*
X164040001Y-113830091D01*
X164040005Y-113830091D01*
X164202456Y-113811787D01*
X164202457Y-113811786D01*
X164202462Y-113811786D01*
X164356776Y-113757789D01*
X164495205Y-113670808D01*
X164610809Y-113555204D01*
X164697790Y-113416775D01*
X164751787Y-113262461D01*
X164761932Y-113172419D01*
X164788998Y-113108006D01*
X164846592Y-113068450D01*
X164899035Y-113063082D01*
X165049996Y-113080091D01*
X165050000Y-113080091D01*
X165050004Y-113080091D01*
X165212455Y-113061787D01*
X165212456Y-113061786D01*
X165212461Y-113061786D01*
X165366775Y-113007789D01*
X165505204Y-112920808D01*
X165620808Y-112805204D01*
X165707789Y-112666775D01*
X165761786Y-112512461D01*
X165762604Y-112505204D01*
X165780091Y-112350003D01*
X165780091Y-112343036D01*
X165782612Y-112343036D01*
X165792646Y-112285702D01*
X165839987Y-112234316D01*
X165907595Y-112216683D01*
X165969794Y-112235633D01*
X165973225Y-112237789D01*
X166127539Y-112291786D01*
X166127542Y-112291786D01*
X166127544Y-112291787D01*
X166289996Y-112310091D01*
X166290000Y-112310091D01*
X166290004Y-112310091D01*
X166452455Y-112291787D01*
X166452456Y-112291786D01*
X166452461Y-112291786D01*
X166606775Y-112237789D01*
X166745204Y-112150808D01*
X166846016Y-112049996D01*
X167819909Y-112049996D01*
X167819909Y-112050003D01*
X167838212Y-112212455D01*
X167892210Y-112366774D01*
X167923628Y-112416775D01*
X167979192Y-112505204D01*
X168094796Y-112620808D01*
X168233225Y-112707789D01*
X168387539Y-112761786D01*
X168387542Y-112761786D01*
X168387544Y-112761787D01*
X168549996Y-112780091D01*
X168550000Y-112780091D01*
X168550004Y-112780091D01*
X168712455Y-112761787D01*
X168712456Y-112761786D01*
X168712461Y-112761786D01*
X168866775Y-112707789D01*
X168984028Y-112634113D01*
X169051264Y-112615113D01*
X169115971Y-112634113D01*
X169233225Y-112707789D01*
X169387539Y-112761786D01*
X169387542Y-112761786D01*
X169387544Y-112761787D01*
X169549996Y-112780091D01*
X169550000Y-112780091D01*
X169550004Y-112780091D01*
X169712455Y-112761787D01*
X169712456Y-112761786D01*
X169712461Y-112761786D01*
X169866775Y-112707789D01*
X169984028Y-112634113D01*
X170051264Y-112615113D01*
X170115971Y-112634113D01*
X170233225Y-112707789D01*
X170387539Y-112761786D01*
X170387542Y-112761786D01*
X170387544Y-112761787D01*
X170549996Y-112780091D01*
X170550000Y-112780091D01*
X170550004Y-112780091D01*
X170712455Y-112761787D01*
X170712456Y-112761786D01*
X170712461Y-112761786D01*
X170866775Y-112707789D01*
X171005204Y-112620808D01*
X171120808Y-112505204D01*
X171207789Y-112366775D01*
X171220659Y-112329996D01*
X172069909Y-112329996D01*
X172069909Y-112330003D01*
X172088212Y-112492455D01*
X172142210Y-112646774D01*
X172142211Y-112646775D01*
X172229192Y-112785204D01*
X172344796Y-112900808D01*
X172483225Y-112987789D01*
X172637539Y-113041786D01*
X172637542Y-113041786D01*
X172637544Y-113041787D01*
X172799996Y-113060091D01*
X172800000Y-113060091D01*
X172800004Y-113060091D01*
X172962455Y-113041787D01*
X172962456Y-113041786D01*
X172962461Y-113041786D01*
X173116775Y-112987789D01*
X173255204Y-112900808D01*
X173370808Y-112785204D01*
X173457789Y-112646775D01*
X173511786Y-112492461D01*
X173524283Y-112381550D01*
X173530091Y-112330003D01*
X173530091Y-112329996D01*
X173511787Y-112167544D01*
X173511786Y-112167542D01*
X173511786Y-112167539D01*
X173457789Y-112013225D01*
X173370808Y-111874796D01*
X173255204Y-111759192D01*
X173187698Y-111716775D01*
X173116774Y-111672210D01*
X172962455Y-111618212D01*
X172800004Y-111599909D01*
X172799996Y-111599909D01*
X172637544Y-111618212D01*
X172483225Y-111672210D01*
X172344795Y-111759192D01*
X172229192Y-111874795D01*
X172142210Y-112013225D01*
X172088212Y-112167544D01*
X172069909Y-112329996D01*
X171220659Y-112329996D01*
X171261786Y-112212461D01*
X171261787Y-112212455D01*
X171280091Y-112050003D01*
X171280091Y-112049996D01*
X171261787Y-111887544D01*
X171261786Y-111887542D01*
X171261786Y-111887539D01*
X171207789Y-111733225D01*
X171120808Y-111594796D01*
X171005204Y-111479192D01*
X170912287Y-111420808D01*
X170879165Y-111399996D01*
X173669909Y-111399996D01*
X173669909Y-111400003D01*
X173688212Y-111562455D01*
X173742210Y-111716774D01*
X173768863Y-111759192D01*
X173829192Y-111855204D01*
X173944796Y-111970808D01*
X174083225Y-112057789D01*
X174237539Y-112111786D01*
X174237542Y-112111786D01*
X174237544Y-112111787D01*
X174399996Y-112130091D01*
X174400000Y-112130091D01*
X174400004Y-112130091D01*
X174562455Y-112111787D01*
X174562456Y-112111786D01*
X174562461Y-112111786D01*
X174716775Y-112057789D01*
X174855204Y-111970808D01*
X174970808Y-111855204D01*
X175057789Y-111716775D01*
X175111786Y-111562461D01*
X175111787Y-111562455D01*
X175130091Y-111400003D01*
X175130091Y-111399996D01*
X175969909Y-111399996D01*
X175969909Y-111400003D01*
X175988212Y-111562455D01*
X176042210Y-111716774D01*
X176068863Y-111759192D01*
X176129192Y-111855204D01*
X176244796Y-111970808D01*
X176383225Y-112057789D01*
X176537539Y-112111786D01*
X176537542Y-112111786D01*
X176537544Y-112111787D01*
X176699996Y-112130091D01*
X176700000Y-112130091D01*
X176700004Y-112130091D01*
X176862455Y-112111787D01*
X176862456Y-112111786D01*
X176862461Y-112111786D01*
X177016775Y-112057789D01*
X177155204Y-111970808D01*
X177270808Y-111855204D01*
X177357789Y-111716775D01*
X177411786Y-111562461D01*
X177411787Y-111562455D01*
X177430091Y-111400003D01*
X177430091Y-111399996D01*
X177411787Y-111237544D01*
X177411786Y-111237542D01*
X177411786Y-111237539D01*
X177357789Y-111083225D01*
X177270808Y-110944796D01*
X177155204Y-110829192D01*
X177016774Y-110742210D01*
X176862455Y-110688212D01*
X176700004Y-110669909D01*
X176699996Y-110669909D01*
X176537544Y-110688212D01*
X176383225Y-110742210D01*
X176244795Y-110829192D01*
X176129192Y-110944795D01*
X176042210Y-111083225D01*
X175988212Y-111237544D01*
X175969909Y-111399996D01*
X175130091Y-111399996D01*
X175111787Y-111237544D01*
X175111786Y-111237542D01*
X175111786Y-111237539D01*
X175057789Y-111083225D01*
X174970808Y-110944796D01*
X174855204Y-110829192D01*
X174716774Y-110742210D01*
X174562455Y-110688212D01*
X174400004Y-110669909D01*
X174399996Y-110669909D01*
X174237544Y-110688212D01*
X174083225Y-110742210D01*
X173944795Y-110829192D01*
X173829192Y-110944795D01*
X173742210Y-111083225D01*
X173688212Y-111237544D01*
X173669909Y-111399996D01*
X170879165Y-111399996D01*
X170866774Y-111392210D01*
X170712455Y-111338212D01*
X170550004Y-111319909D01*
X170549996Y-111319909D01*
X170387544Y-111338212D01*
X170233225Y-111392210D01*
X170115972Y-111465886D01*
X170048735Y-111484886D01*
X169984028Y-111465886D01*
X169866774Y-111392210D01*
X169712455Y-111338212D01*
X169550004Y-111319909D01*
X169549996Y-111319909D01*
X169387544Y-111338212D01*
X169233225Y-111392210D01*
X169115972Y-111465886D01*
X169048735Y-111484886D01*
X168984028Y-111465886D01*
X168866774Y-111392210D01*
X168712455Y-111338212D01*
X168550004Y-111319909D01*
X168549996Y-111319909D01*
X168387544Y-111338212D01*
X168233225Y-111392210D01*
X168094795Y-111479192D01*
X167979192Y-111594795D01*
X167892210Y-111733225D01*
X167838212Y-111887544D01*
X167819909Y-112049996D01*
X166846016Y-112049996D01*
X166860808Y-112035204D01*
X166947789Y-111896775D01*
X167001786Y-111742461D01*
X167004680Y-111716775D01*
X167020091Y-111580003D01*
X167020091Y-111579996D01*
X167001787Y-111417544D01*
X167001786Y-111417542D01*
X167001786Y-111417539D01*
X166947789Y-111263225D01*
X166860808Y-111124796D01*
X166745204Y-111009192D01*
X166642719Y-110944796D01*
X166606774Y-110922210D01*
X166452455Y-110868212D01*
X166290004Y-110849909D01*
X166289996Y-110849909D01*
X166127544Y-110868212D01*
X165973225Y-110922210D01*
X165834795Y-111009192D01*
X165719192Y-111124795D01*
X165632210Y-111263225D01*
X165578212Y-111417544D01*
X165559909Y-111579996D01*
X165559909Y-111586964D01*
X165557396Y-111586964D01*
X165547333Y-111644337D01*
X165499973Y-111695706D01*
X165432359Y-111713315D01*
X165370206Y-111694367D01*
X165366773Y-111692210D01*
X165212455Y-111638212D01*
X165050004Y-111619909D01*
X165049996Y-111619909D01*
X164887544Y-111638212D01*
X164733225Y-111692210D01*
X164594795Y-111779192D01*
X164479192Y-111894795D01*
X164392210Y-112033225D01*
X164338212Y-112187544D01*
X164328068Y-112277581D01*
X164301001Y-112341995D01*
X164243407Y-112381550D01*
X164190965Y-112386917D01*
X164040005Y-112369909D01*
X164039997Y-112369909D01*
X163877545Y-112388212D01*
X163723226Y-112442210D01*
X163584796Y-112529192D01*
X163469193Y-112644795D01*
X163382211Y-112783225D01*
X163328213Y-112937544D01*
X163309910Y-113099996D01*
X152750000Y-113099996D01*
X152750000Y-112099996D01*
X153809910Y-112099996D01*
X153809910Y-112100003D01*
X153828213Y-112262455D01*
X153882211Y-112416774D01*
X153969193Y-112555204D01*
X154084797Y-112670808D01*
X154223226Y-112757789D01*
X154377540Y-112811786D01*
X154377543Y-112811786D01*
X154377545Y-112811787D01*
X154539997Y-112830091D01*
X154540001Y-112830091D01*
X154540005Y-112830091D01*
X154702456Y-112811787D01*
X154702457Y-112811786D01*
X154702462Y-112811786D01*
X154856776Y-112757789D01*
X154995205Y-112670808D01*
X155110809Y-112555204D01*
X155197790Y-112416775D01*
X155251787Y-112262461D01*
X155254810Y-112235634D01*
X155270092Y-112100003D01*
X155270092Y-112099996D01*
X155251788Y-111937544D01*
X155251787Y-111937542D01*
X155251787Y-111937539D01*
X155197790Y-111783225D01*
X155110809Y-111644796D01*
X155043693Y-111577680D01*
X155010208Y-111516357D01*
X155015192Y-111446665D01*
X155043689Y-111402322D01*
X155140808Y-111305204D01*
X155227789Y-111166775D01*
X155281786Y-111012461D01*
X155281787Y-111012455D01*
X155300091Y-110850003D01*
X155300091Y-110849996D01*
X155281787Y-110687544D01*
X155281786Y-110687542D01*
X155281786Y-110687539D01*
X155227789Y-110533225D01*
X155140808Y-110394796D01*
X155025204Y-110279192D01*
X154886774Y-110192210D01*
X154732455Y-110138212D01*
X154570004Y-110119909D01*
X154569996Y-110119909D01*
X154407544Y-110138212D01*
X154253225Y-110192210D01*
X154114795Y-110279192D01*
X153999192Y-110394795D01*
X153912210Y-110533225D01*
X153858212Y-110687544D01*
X153839909Y-110849996D01*
X153839909Y-110850003D01*
X153858212Y-111012455D01*
X153912210Y-111166774D01*
X153999192Y-111305204D01*
X154066307Y-111372319D01*
X154099792Y-111433642D01*
X154094808Y-111503334D01*
X154066308Y-111547681D01*
X153969192Y-111644797D01*
X153882211Y-111783225D01*
X153828213Y-111937544D01*
X153809910Y-112099996D01*
X152750000Y-112099996D01*
X152750000Y-109599997D01*
X158319909Y-109599997D01*
X158319909Y-109600004D01*
X158338212Y-109762456D01*
X158392211Y-109916777D01*
X158467787Y-110037054D01*
X158486788Y-110104291D01*
X158467788Y-110168999D01*
X158397595Y-110280709D01*
X158343597Y-110435028D01*
X158325294Y-110597480D01*
X158325294Y-110597487D01*
X158343597Y-110759939D01*
X158397595Y-110914258D01*
X158459297Y-111012455D01*
X158484577Y-111052688D01*
X158600181Y-111168292D01*
X158738610Y-111255273D01*
X158892924Y-111309270D01*
X158892927Y-111309270D01*
X158892929Y-111309271D01*
X159055381Y-111327575D01*
X159055385Y-111327575D01*
X159055389Y-111327575D01*
X159217840Y-111309271D01*
X159217841Y-111309270D01*
X159217846Y-111309270D01*
X159372160Y-111255273D01*
X159489413Y-111181597D01*
X159556649Y-111162597D01*
X159621356Y-111181597D01*
X159695162Y-111227973D01*
X159710394Y-111237544D01*
X159738610Y-111255273D01*
X159892924Y-111309270D01*
X159892927Y-111309270D01*
X159892929Y-111309271D01*
X160055381Y-111327575D01*
X160055385Y-111327575D01*
X160055389Y-111327575D01*
X160217840Y-111309271D01*
X160217841Y-111309270D01*
X160217846Y-111309270D01*
X160372160Y-111255273D01*
X160510589Y-111168292D01*
X160626193Y-111052688D01*
X160713174Y-110914259D01*
X160767171Y-110759945D01*
X160769169Y-110742211D01*
X160785476Y-110597487D01*
X160785476Y-110597480D01*
X160767172Y-110435028D01*
X160767171Y-110435026D01*
X160767171Y-110435023D01*
X160713174Y-110280709D01*
X160637596Y-110160428D01*
X160618596Y-110093193D01*
X160637597Y-110028484D01*
X160707789Y-109916775D01*
X160761786Y-109762461D01*
X160780091Y-109600000D01*
X160761786Y-109437539D01*
X160707789Y-109283225D01*
X160620808Y-109144796D01*
X160505204Y-109029192D01*
X160366777Y-108942212D01*
X160366774Y-108942210D01*
X160212455Y-108888212D01*
X160050004Y-108869909D01*
X160049996Y-108869909D01*
X159887544Y-108888212D01*
X159733225Y-108942210D01*
X159615971Y-109015886D01*
X159548734Y-109034886D01*
X159484027Y-109015886D01*
X159366774Y-108942211D01*
X159212455Y-108888213D01*
X159050004Y-108869910D01*
X159049996Y-108869910D01*
X158887544Y-108888213D01*
X158733225Y-108942211D01*
X158594795Y-109029193D01*
X158479192Y-109144796D01*
X158392210Y-109283226D01*
X158338212Y-109437545D01*
X158319909Y-109599997D01*
X152750000Y-109599997D01*
X152750000Y-107099994D01*
X177294357Y-107099994D01*
X177294357Y-107100005D01*
X177314890Y-107347812D01*
X177314892Y-107347824D01*
X177375936Y-107588881D01*
X177475826Y-107816606D01*
X177611833Y-108024782D01*
X177611836Y-108024785D01*
X177780256Y-108207738D01*
X177976491Y-108360474D01*
X178195190Y-108478828D01*
X178430386Y-108559571D01*
X178675665Y-108600500D01*
X178924335Y-108600500D01*
X179169614Y-108559571D01*
X179404810Y-108478828D01*
X179623509Y-108360474D01*
X179819744Y-108207738D01*
X179988164Y-108024785D01*
X180124173Y-107816607D01*
X180224063Y-107588881D01*
X180285108Y-107347821D01*
X180305643Y-107100000D01*
X180285108Y-106852179D01*
X180224063Y-106611119D01*
X180124173Y-106383393D01*
X180073090Y-106305204D01*
X179988166Y-106175217D01*
X179838338Y-106012461D01*
X179819744Y-105992262D01*
X179623509Y-105839526D01*
X179623507Y-105839525D01*
X179623506Y-105839524D01*
X179404811Y-105721172D01*
X179404802Y-105721169D01*
X179169616Y-105640429D01*
X178924335Y-105599500D01*
X178675665Y-105599500D01*
X178430383Y-105640429D01*
X178195197Y-105721169D01*
X178195188Y-105721172D01*
X177976493Y-105839524D01*
X177780257Y-105992261D01*
X177611833Y-106175217D01*
X177475826Y-106383393D01*
X177375936Y-106611118D01*
X177314892Y-106852175D01*
X177314890Y-106852187D01*
X177294357Y-107099994D01*
X152750000Y-107099994D01*
X152750000Y-104849995D01*
X154069909Y-104849995D01*
X154069909Y-104850002D01*
X154088212Y-105012454D01*
X154142210Y-105166773D01*
X154215886Y-105284027D01*
X154234886Y-105351264D01*
X154215886Y-105415971D01*
X154142210Y-105533225D01*
X154088212Y-105687544D01*
X154069909Y-105849996D01*
X154069909Y-105850003D01*
X154088212Y-106012455D01*
X154142210Y-106166774D01*
X154142211Y-106166775D01*
X154229192Y-106305204D01*
X154344796Y-106420808D01*
X154483225Y-106507789D01*
X154637539Y-106561786D01*
X154637542Y-106561786D01*
X154637544Y-106561787D01*
X154799996Y-106580091D01*
X154800000Y-106580091D01*
X154800004Y-106580091D01*
X154962455Y-106561787D01*
X154962456Y-106561786D01*
X154962461Y-106561786D01*
X155116775Y-106507789D01*
X155234028Y-106434113D01*
X155301264Y-106415113D01*
X155365971Y-106434113D01*
X155483225Y-106507789D01*
X155637539Y-106561786D01*
X155637542Y-106561786D01*
X155637544Y-106561787D01*
X155799996Y-106580091D01*
X155800000Y-106580091D01*
X155800004Y-106580091D01*
X155962455Y-106561787D01*
X155962456Y-106561786D01*
X155962461Y-106561786D01*
X156116775Y-106507789D01*
X156255204Y-106420808D01*
X156370808Y-106305204D01*
X156457789Y-106166775D01*
X156511786Y-106012461D01*
X156530091Y-105850000D01*
X156515575Y-105721169D01*
X156511787Y-105687544D01*
X156511786Y-105687542D01*
X156511786Y-105687539D01*
X156457789Y-105533225D01*
X156384113Y-105415971D01*
X156365113Y-105348736D01*
X156384114Y-105284027D01*
X156457788Y-105166776D01*
X156457789Y-105166775D01*
X156511786Y-105012461D01*
X156511787Y-105012454D01*
X156530091Y-104850003D01*
X156530091Y-104849996D01*
X156511787Y-104687544D01*
X156511786Y-104687542D01*
X156511786Y-104687539D01*
X156457789Y-104533225D01*
X156370808Y-104394796D01*
X156255204Y-104279192D01*
X156234026Y-104265885D01*
X156129162Y-104199994D01*
X166694357Y-104199994D01*
X166694357Y-104200005D01*
X166714890Y-104447812D01*
X166714892Y-104447824D01*
X166775936Y-104688881D01*
X166875826Y-104916606D01*
X167011833Y-105124782D01*
X167011836Y-105124785D01*
X167180256Y-105307738D01*
X167376491Y-105460474D01*
X167595190Y-105578828D01*
X167830386Y-105659571D01*
X168075665Y-105700500D01*
X168324335Y-105700500D01*
X168569614Y-105659571D01*
X168804810Y-105578828D01*
X169023509Y-105460474D01*
X169219744Y-105307738D01*
X169388164Y-105124785D01*
X169524173Y-104916607D01*
X169586444Y-104774644D01*
X169631400Y-104721158D01*
X169698136Y-104700468D01*
X169765464Y-104719143D01*
X169812007Y-104771253D01*
X169813556Y-104774644D01*
X169875826Y-104916606D01*
X170011833Y-105124782D01*
X170011836Y-105124785D01*
X170180256Y-105307738D01*
X170376491Y-105460474D01*
X170595190Y-105578828D01*
X170830386Y-105659571D01*
X171075665Y-105700500D01*
X171324335Y-105700500D01*
X171569614Y-105659571D01*
X171804810Y-105578828D01*
X172023509Y-105460474D01*
X172219744Y-105307738D01*
X172388164Y-105124785D01*
X172524173Y-104916607D01*
X172624063Y-104688881D01*
X172685108Y-104447821D01*
X172695369Y-104323987D01*
X172705643Y-104200005D01*
X172705643Y-104199994D01*
X172685109Y-103952187D01*
X172685107Y-103952175D01*
X172624063Y-103711118D01*
X172524173Y-103483393D01*
X172388166Y-103275217D01*
X172366557Y-103251744D01*
X172219744Y-103092262D01*
X172023509Y-102939526D01*
X172023507Y-102939525D01*
X172023506Y-102939524D01*
X171804811Y-102821172D01*
X171804802Y-102821169D01*
X171569616Y-102740429D01*
X171324335Y-102699500D01*
X171075665Y-102699500D01*
X170830383Y-102740429D01*
X170595197Y-102821169D01*
X170595188Y-102821172D01*
X170376493Y-102939524D01*
X170180257Y-103092261D01*
X170011833Y-103275217D01*
X169875826Y-103483393D01*
X169813556Y-103625355D01*
X169768600Y-103678841D01*
X169701864Y-103699531D01*
X169634536Y-103680856D01*
X169587993Y-103628746D01*
X169586444Y-103625355D01*
X169524173Y-103483393D01*
X169388166Y-103275217D01*
X169369014Y-103254413D01*
X169219744Y-103092262D01*
X169219739Y-103092258D01*
X169219737Y-103092256D01*
X169030956Y-102945322D01*
X168990143Y-102888612D01*
X168986468Y-102818839D01*
X169021100Y-102758156D01*
X169041141Y-102742478D01*
X169155204Y-102670808D01*
X169270808Y-102555204D01*
X169357789Y-102416775D01*
X169411786Y-102262461D01*
X169430091Y-102100000D01*
X169421123Y-102020410D01*
X169411787Y-101937544D01*
X169411786Y-101937542D01*
X169411786Y-101937539D01*
X169357789Y-101783225D01*
X169270808Y-101644796D01*
X169155204Y-101529192D01*
X169016774Y-101442210D01*
X168862455Y-101388212D01*
X168700004Y-101369909D01*
X168699996Y-101369909D01*
X168537544Y-101388212D01*
X168383225Y-101442210D01*
X168244795Y-101529192D01*
X168129192Y-101644795D01*
X168042210Y-101783225D01*
X167988212Y-101937544D01*
X167969909Y-102099996D01*
X167969909Y-102100003D01*
X167988212Y-102262455D01*
X168042210Y-102416774D01*
X168107124Y-102520083D01*
X168126124Y-102587319D01*
X168105756Y-102654155D01*
X168052489Y-102699369D01*
X168022540Y-102708364D01*
X167830382Y-102740429D01*
X167595197Y-102821169D01*
X167595188Y-102821172D01*
X167376493Y-102939524D01*
X167180257Y-103092261D01*
X167011833Y-103275217D01*
X166875826Y-103483393D01*
X166775936Y-103711118D01*
X166714892Y-103952175D01*
X166714890Y-103952187D01*
X166694357Y-104199994D01*
X156129162Y-104199994D01*
X156116774Y-104192210D01*
X155962455Y-104138212D01*
X155800004Y-104119909D01*
X155799996Y-104119909D01*
X155637544Y-104138212D01*
X155483224Y-104192210D01*
X155365972Y-104265885D01*
X155298735Y-104284885D01*
X155234028Y-104265885D01*
X155116774Y-104192209D01*
X154962455Y-104138211D01*
X154800004Y-104119908D01*
X154799996Y-104119908D01*
X154637544Y-104138211D01*
X154483225Y-104192209D01*
X154344795Y-104279191D01*
X154229192Y-104394794D01*
X154142210Y-104533224D01*
X154088212Y-104687543D01*
X154069909Y-104849995D01*
X152750000Y-104849995D01*
X152750000Y-101857945D01*
X161969909Y-101857945D01*
X161969909Y-101857952D01*
X161988212Y-102020404D01*
X162042210Y-102174723D01*
X162042211Y-102174724D01*
X162129192Y-102313153D01*
X162244796Y-102428757D01*
X162383225Y-102515738D01*
X162537539Y-102569735D01*
X162537542Y-102569735D01*
X162537544Y-102569736D01*
X162699996Y-102588040D01*
X162700000Y-102588040D01*
X162700004Y-102588040D01*
X162862455Y-102569736D01*
X162862456Y-102569735D01*
X162862461Y-102569735D01*
X163016775Y-102515738D01*
X163155204Y-102428757D01*
X163270808Y-102313153D01*
X163357789Y-102174724D01*
X163411786Y-102020410D01*
X163416329Y-101980090D01*
X163430091Y-101857952D01*
X163430091Y-101857945D01*
X163411787Y-101695493D01*
X163411786Y-101695491D01*
X163411786Y-101695488D01*
X163357789Y-101541174D01*
X163283027Y-101422192D01*
X163264028Y-101354957D01*
X163284396Y-101288121D01*
X163329313Y-101249995D01*
X170669909Y-101249995D01*
X170669909Y-101250002D01*
X170688212Y-101412454D01*
X170742210Y-101566773D01*
X170823088Y-101695488D01*
X170829192Y-101705203D01*
X170944796Y-101820807D01*
X171083225Y-101907788D01*
X171237539Y-101961785D01*
X171237542Y-101961785D01*
X171237544Y-101961786D01*
X171399996Y-101980090D01*
X171400000Y-101980090D01*
X171400004Y-101980090D01*
X171562455Y-101961786D01*
X171562456Y-101961785D01*
X171562461Y-101961785D01*
X171716775Y-101907788D01*
X171855204Y-101820807D01*
X171970808Y-101705203D01*
X172057789Y-101566774D01*
X172111786Y-101412460D01*
X172114518Y-101388212D01*
X172130091Y-101250002D01*
X172130091Y-101249996D01*
X173132409Y-101249996D01*
X173132409Y-101250003D01*
X173150712Y-101412455D01*
X173204710Y-101566774D01*
X173204711Y-101566775D01*
X173291692Y-101705204D01*
X173407296Y-101820808D01*
X173545725Y-101907789D01*
X173700039Y-101961786D01*
X173700042Y-101961786D01*
X173700044Y-101961787D01*
X173862496Y-101980091D01*
X173862500Y-101980091D01*
X173862504Y-101980091D01*
X174024955Y-101961787D01*
X174024956Y-101961786D01*
X174024961Y-101961786D01*
X174179275Y-101907789D01*
X174317704Y-101820808D01*
X174433308Y-101705204D01*
X174520289Y-101566775D01*
X174574286Y-101412461D01*
X174577018Y-101388214D01*
X174592591Y-101250003D01*
X174592591Y-101249996D01*
X174574287Y-101087544D01*
X174574286Y-101087542D01*
X174574286Y-101087539D01*
X174520289Y-100933225D01*
X174433308Y-100794796D01*
X174317704Y-100679192D01*
X174317702Y-100679191D01*
X174179274Y-100592210D01*
X174024955Y-100538212D01*
X173862504Y-100519909D01*
X173862496Y-100519909D01*
X173700044Y-100538212D01*
X173545725Y-100592210D01*
X173407295Y-100679192D01*
X173291692Y-100794795D01*
X173204710Y-100933225D01*
X173150712Y-101087544D01*
X173132409Y-101249996D01*
X172130091Y-101249996D01*
X172130091Y-101249995D01*
X172111787Y-101087543D01*
X172111786Y-101087539D01*
X172111786Y-101087538D01*
X172057789Y-100933224D01*
X171970808Y-100794795D01*
X171855204Y-100679191D01*
X171716777Y-100592211D01*
X171716774Y-100592209D01*
X171562455Y-100538211D01*
X171400004Y-100519908D01*
X171399996Y-100519908D01*
X171237544Y-100538211D01*
X171083225Y-100592209D01*
X170944795Y-100679191D01*
X170829192Y-100794794D01*
X170742210Y-100933224D01*
X170688212Y-101087543D01*
X170669909Y-101249995D01*
X163329313Y-101249995D01*
X163337663Y-101242907D01*
X163347068Y-101239179D01*
X163358111Y-101235314D01*
X163436775Y-101207789D01*
X163575204Y-101120808D01*
X163690808Y-101005204D01*
X163777789Y-100866775D01*
X163831786Y-100712461D01*
X163845335Y-100592210D01*
X163850091Y-100550003D01*
X163850091Y-100549996D01*
X163831787Y-100387544D01*
X163831786Y-100387542D01*
X163831786Y-100387539D01*
X163777789Y-100233225D01*
X163690808Y-100094796D01*
X163575204Y-99979192D01*
X163436774Y-99892210D01*
X163282455Y-99838212D01*
X163120004Y-99819909D01*
X163119996Y-99819909D01*
X162957544Y-99838212D01*
X162803225Y-99892210D01*
X162664795Y-99979192D01*
X162549192Y-100094795D01*
X162462210Y-100233225D01*
X162408212Y-100387544D01*
X162389909Y-100549996D01*
X162389909Y-100550003D01*
X162408212Y-100712455D01*
X162462210Y-100866774D01*
X162536972Y-100985756D01*
X162555972Y-101052992D01*
X162535604Y-101119828D01*
X162482337Y-101165042D01*
X162472932Y-101168770D01*
X162383225Y-101200159D01*
X162244795Y-101287141D01*
X162129192Y-101402744D01*
X162042210Y-101541174D01*
X161988212Y-101695493D01*
X161969909Y-101857945D01*
X152750000Y-101857945D01*
X152750000Y-98414281D01*
X156673391Y-98414281D01*
X156673391Y-98414288D01*
X156691694Y-98576740D01*
X156745692Y-98731059D01*
X156745693Y-98731060D01*
X156832674Y-98869489D01*
X156948278Y-98985093D01*
X157086707Y-99072074D01*
X157241021Y-99126071D01*
X157241024Y-99126071D01*
X157241026Y-99126072D01*
X157403478Y-99144376D01*
X157403482Y-99144376D01*
X157403486Y-99144376D01*
X157565937Y-99126072D01*
X157565938Y-99126071D01*
X157565943Y-99126071D01*
X157720257Y-99072074D01*
X157858686Y-98985093D01*
X157974290Y-98869489D01*
X158061271Y-98731060D01*
X158115268Y-98576746D01*
X158122587Y-98511787D01*
X158133573Y-98414288D01*
X158133573Y-98414281D01*
X158115269Y-98251829D01*
X158115268Y-98251827D01*
X158115268Y-98251824D01*
X158061271Y-98097510D01*
X157974290Y-97959081D01*
X157858686Y-97843477D01*
X157789487Y-97799996D01*
X160919909Y-97799996D01*
X160919909Y-97800003D01*
X160938212Y-97962455D01*
X160992210Y-98116774D01*
X160992211Y-98116775D01*
X161079192Y-98255204D01*
X161194796Y-98370808D01*
X161333225Y-98457789D01*
X161487539Y-98511786D01*
X161487542Y-98511786D01*
X161487544Y-98511787D01*
X161649996Y-98530091D01*
X161650000Y-98530091D01*
X161650004Y-98530091D01*
X161812455Y-98511787D01*
X161812456Y-98511786D01*
X161812461Y-98511786D01*
X161966775Y-98457789D01*
X162105204Y-98370808D01*
X162220808Y-98255204D01*
X162307789Y-98116775D01*
X162361786Y-97962461D01*
X162364518Y-97938214D01*
X162380091Y-97800003D01*
X162380091Y-97799996D01*
X162361787Y-97637544D01*
X162361786Y-97637542D01*
X162361786Y-97637539D01*
X162307789Y-97483225D01*
X162220808Y-97344796D01*
X162105204Y-97229192D01*
X161966774Y-97142210D01*
X161812455Y-97088212D01*
X161650004Y-97069909D01*
X161649996Y-97069909D01*
X161487544Y-97088212D01*
X161333225Y-97142210D01*
X161194795Y-97229192D01*
X161079192Y-97344795D01*
X160992210Y-97483225D01*
X160938212Y-97637544D01*
X160919909Y-97799996D01*
X157789487Y-97799996D01*
X157720256Y-97756495D01*
X157565937Y-97702497D01*
X157403486Y-97684194D01*
X157403478Y-97684194D01*
X157241026Y-97702497D01*
X157086707Y-97756495D01*
X156948277Y-97843477D01*
X156832674Y-97959080D01*
X156745692Y-98097510D01*
X156691694Y-98251829D01*
X156673391Y-98414281D01*
X152750000Y-98414281D01*
X152750000Y-96646514D01*
X154905624Y-96646514D01*
X154905624Y-96646521D01*
X154923927Y-96808973D01*
X154977925Y-96963292D01*
X155044917Y-97069909D01*
X155064907Y-97101722D01*
X155180511Y-97217326D01*
X155318940Y-97304307D01*
X155473254Y-97358304D01*
X155473257Y-97358304D01*
X155473259Y-97358305D01*
X155635711Y-97376609D01*
X155635715Y-97376609D01*
X155635719Y-97376609D01*
X155798170Y-97358305D01*
X155798171Y-97358304D01*
X155798176Y-97358304D01*
X155952490Y-97304307D01*
X156090919Y-97217326D01*
X156206523Y-97101722D01*
X156293504Y-96963293D01*
X156347501Y-96808979D01*
X156347502Y-96808973D01*
X156365806Y-96646521D01*
X156365806Y-96646514D01*
X156360565Y-96599996D01*
X163219909Y-96599996D01*
X163219909Y-96600003D01*
X163238212Y-96762455D01*
X163292210Y-96916774D01*
X163321440Y-96963293D01*
X163379192Y-97055204D01*
X163494796Y-97170808D01*
X163633225Y-97257789D01*
X163650837Y-97263951D01*
X163707612Y-97304671D01*
X163733103Y-97367109D01*
X163738212Y-97412455D01*
X163738213Y-97412460D01*
X163738214Y-97412461D01*
X163745379Y-97432939D01*
X163792210Y-97566774D01*
X163792211Y-97566775D01*
X163879192Y-97705204D01*
X163994796Y-97820808D01*
X164133225Y-97907789D01*
X164287539Y-97961786D01*
X164287542Y-97961786D01*
X164287544Y-97961787D01*
X164449996Y-97980091D01*
X164450000Y-97980091D01*
X164450004Y-97980091D01*
X164612455Y-97961787D01*
X164612456Y-97961786D01*
X164612461Y-97961786D01*
X164766775Y-97907789D01*
X164905204Y-97820808D01*
X165020808Y-97705204D01*
X165107789Y-97566775D01*
X165137025Y-97483225D01*
X165161784Y-97412468D01*
X165161785Y-97412463D01*
X165161786Y-97412461D01*
X165166895Y-97367108D01*
X165193959Y-97302698D01*
X165249161Y-97263951D01*
X165266775Y-97257789D01*
X165405204Y-97170808D01*
X165520808Y-97055204D01*
X165607789Y-96916775D01*
X165613660Y-96899996D01*
X169599909Y-96899996D01*
X169599909Y-96900003D01*
X169618212Y-97062455D01*
X169672210Y-97216774D01*
X169726200Y-97302698D01*
X169759192Y-97355204D01*
X169874796Y-97470808D01*
X170013225Y-97557789D01*
X170167539Y-97611786D01*
X170167542Y-97611786D01*
X170167544Y-97611787D01*
X170329996Y-97630091D01*
X170330000Y-97630091D01*
X170330004Y-97630091D01*
X170492455Y-97611787D01*
X170492456Y-97611786D01*
X170492461Y-97611786D01*
X170646775Y-97557789D01*
X170785204Y-97470808D01*
X170877319Y-97378693D01*
X170938642Y-97345208D01*
X171008334Y-97350192D01*
X171052681Y-97378693D01*
X171144796Y-97470808D01*
X171283225Y-97557789D01*
X171437539Y-97611786D01*
X171437542Y-97611786D01*
X171437544Y-97611787D01*
X171599996Y-97630091D01*
X171600000Y-97630091D01*
X171600004Y-97630091D01*
X171762455Y-97611787D01*
X171762456Y-97611786D01*
X171762461Y-97611786D01*
X171916775Y-97557789D01*
X172055204Y-97470808D01*
X172170808Y-97355204D01*
X172257789Y-97216775D01*
X172311786Y-97062461D01*
X172330091Y-96900000D01*
X172319835Y-96808979D01*
X172311787Y-96737544D01*
X172311786Y-96737542D01*
X172311786Y-96737539D01*
X172257789Y-96583225D01*
X172170808Y-96444796D01*
X172055204Y-96329192D01*
X171982048Y-96283225D01*
X171916774Y-96242210D01*
X171762455Y-96188212D01*
X171600004Y-96169909D01*
X171599996Y-96169909D01*
X171437544Y-96188212D01*
X171283225Y-96242210D01*
X171144795Y-96329192D01*
X171052681Y-96421307D01*
X170991358Y-96454792D01*
X170921666Y-96449808D01*
X170877319Y-96421307D01*
X170785204Y-96329192D01*
X170646774Y-96242210D01*
X170492455Y-96188212D01*
X170330004Y-96169909D01*
X170329996Y-96169909D01*
X170167544Y-96188212D01*
X170013225Y-96242210D01*
X169874795Y-96329192D01*
X169759192Y-96444795D01*
X169672210Y-96583225D01*
X169618212Y-96737544D01*
X169599909Y-96899996D01*
X165613660Y-96899996D01*
X165661786Y-96762461D01*
X165661787Y-96762455D01*
X165680091Y-96600003D01*
X165680091Y-96599996D01*
X165661787Y-96437544D01*
X165661786Y-96437542D01*
X165661786Y-96437539D01*
X165607789Y-96283225D01*
X165520808Y-96144796D01*
X165405204Y-96029192D01*
X165340806Y-95988728D01*
X165266774Y-95942210D01*
X165112455Y-95888212D01*
X164950004Y-95869909D01*
X164949996Y-95869909D01*
X164787544Y-95888212D01*
X164633225Y-95942210D01*
X164515972Y-96015886D01*
X164448735Y-96034886D01*
X164384028Y-96015886D01*
X164266774Y-95942210D01*
X164112455Y-95888212D01*
X163950004Y-95869909D01*
X163949996Y-95869909D01*
X163787544Y-95888212D01*
X163633225Y-95942210D01*
X163494795Y-96029192D01*
X163379192Y-96144795D01*
X163292210Y-96283225D01*
X163238212Y-96437544D01*
X163219909Y-96599996D01*
X156360565Y-96599996D01*
X156347502Y-96484062D01*
X156347501Y-96484060D01*
X156347501Y-96484057D01*
X156293504Y-96329743D01*
X156206523Y-96191314D01*
X156090919Y-96075710D01*
X156025948Y-96034886D01*
X155952489Y-95988728D01*
X155798170Y-95934730D01*
X155635719Y-95916427D01*
X155635711Y-95916427D01*
X155473259Y-95934730D01*
X155318940Y-95988728D01*
X155180510Y-96075710D01*
X155064907Y-96191313D01*
X154977925Y-96329743D01*
X154923927Y-96484062D01*
X154905624Y-96646514D01*
X152750000Y-96646514D01*
X152750000Y-95976312D01*
X152769685Y-95909273D01*
X152822489Y-95863518D01*
X152887883Y-95853092D01*
X152916442Y-95856310D01*
X152949998Y-95860091D01*
X152950000Y-95860091D01*
X152950004Y-95860091D01*
X153112455Y-95841787D01*
X153112456Y-95841786D01*
X153112461Y-95841786D01*
X153266775Y-95787789D01*
X153360155Y-95729113D01*
X153427392Y-95710113D01*
X153492100Y-95729113D01*
X153494796Y-95730807D01*
X153633225Y-95817788D01*
X153787539Y-95871785D01*
X153787542Y-95871785D01*
X153787544Y-95871786D01*
X153949996Y-95890090D01*
X153950000Y-95890090D01*
X153950004Y-95890090D01*
X154112455Y-95871786D01*
X154112456Y-95871785D01*
X154112461Y-95871785D01*
X154266775Y-95817788D01*
X154405204Y-95730807D01*
X154520808Y-95615203D01*
X154607789Y-95476774D01*
X154661786Y-95322460D01*
X154680091Y-95159999D01*
X154661786Y-94997538D01*
X154607789Y-94843224D01*
X154593703Y-94820807D01*
X154584554Y-94806246D01*
X154527830Y-94715971D01*
X154508830Y-94648736D01*
X154527830Y-94584028D01*
X154607789Y-94456776D01*
X154661786Y-94302462D01*
X154661787Y-94302456D01*
X154667698Y-94249996D01*
X175019909Y-94249996D01*
X175019909Y-94250003D01*
X175038212Y-94412455D01*
X175092210Y-94566774D01*
X175092211Y-94566775D01*
X175179192Y-94705204D01*
X175294796Y-94820808D01*
X175433225Y-94907789D01*
X175587539Y-94961786D01*
X175587542Y-94961786D01*
X175587544Y-94961787D01*
X175749996Y-94980091D01*
X175750000Y-94980091D01*
X175750004Y-94980091D01*
X175912455Y-94961787D01*
X175912456Y-94961786D01*
X175912461Y-94961786D01*
X176066775Y-94907789D01*
X176205204Y-94820808D01*
X176320808Y-94705204D01*
X176407789Y-94566775D01*
X176461786Y-94412461D01*
X176462412Y-94406907D01*
X176480091Y-94250003D01*
X176480091Y-94249996D01*
X176461787Y-94087544D01*
X176461786Y-94087542D01*
X176461786Y-94087539D01*
X176407789Y-93933225D01*
X176320808Y-93794796D01*
X176205204Y-93679192D01*
X176098993Y-93612455D01*
X176066774Y-93592210D01*
X175912455Y-93538212D01*
X175750004Y-93519909D01*
X175749996Y-93519909D01*
X175587544Y-93538212D01*
X175433225Y-93592210D01*
X175294795Y-93679192D01*
X175179192Y-93794795D01*
X175092210Y-93933225D01*
X175038212Y-94087544D01*
X175019909Y-94249996D01*
X154667698Y-94249996D01*
X154680091Y-94140004D01*
X154680091Y-94139997D01*
X154661787Y-93977545D01*
X154661786Y-93977543D01*
X154661786Y-93977540D01*
X154607789Y-93823226D01*
X154520808Y-93684797D01*
X154405204Y-93569193D01*
X154266774Y-93482211D01*
X154112455Y-93428213D01*
X153950004Y-93409910D01*
X153949996Y-93409910D01*
X153787544Y-93428213D01*
X153633225Y-93482211D01*
X153494795Y-93569193D01*
X153379192Y-93684796D01*
X153292210Y-93823226D01*
X153238212Y-93977545D01*
X153219909Y-94139997D01*
X153219909Y-94140005D01*
X153235630Y-94279540D01*
X153223575Y-94348362D01*
X153176226Y-94399741D01*
X153108615Y-94417365D01*
X153098527Y-94416643D01*
X152950004Y-94399909D01*
X152949996Y-94399909D01*
X152887883Y-94406907D01*
X152819061Y-94394852D01*
X152767682Y-94347503D01*
X152750000Y-94283687D01*
X152750000Y-92204521D01*
X153219909Y-92204521D01*
X153219909Y-92204528D01*
X153238212Y-92366980D01*
X153292210Y-92521299D01*
X153292211Y-92521300D01*
X153379192Y-92659729D01*
X153494796Y-92775333D01*
X153633225Y-92862314D01*
X153787539Y-92916311D01*
X153787542Y-92916311D01*
X153787544Y-92916312D01*
X153949996Y-92934616D01*
X153950000Y-92934616D01*
X153950004Y-92934616D01*
X154112455Y-92916312D01*
X154112456Y-92916311D01*
X154112461Y-92916311D01*
X154266775Y-92862314D01*
X154405204Y-92775333D01*
X154520808Y-92659729D01*
X154607789Y-92521300D01*
X154661786Y-92366986D01*
X154665590Y-92333225D01*
X154680091Y-92204528D01*
X154680091Y-92204521D01*
X154661787Y-92042069D01*
X154661786Y-92042067D01*
X154661786Y-92042064D01*
X154607789Y-91887750D01*
X154584067Y-91849997D01*
X157807409Y-91849997D01*
X157807409Y-91850004D01*
X157825712Y-92012456D01*
X157879711Y-92166779D01*
X157963385Y-92299943D01*
X157982386Y-92367179D01*
X157963386Y-92431887D01*
X157899710Y-92533225D01*
X157845712Y-92687544D01*
X157827409Y-92849996D01*
X157827409Y-92850003D01*
X157845712Y-93012455D01*
X157899710Y-93166774D01*
X157899711Y-93166775D01*
X157986692Y-93305204D01*
X158102296Y-93420808D01*
X158240725Y-93507789D01*
X158395039Y-93561786D01*
X158395042Y-93561786D01*
X158395044Y-93561787D01*
X158557496Y-93580091D01*
X158557500Y-93580091D01*
X158557504Y-93580091D01*
X158719955Y-93561787D01*
X158719956Y-93561786D01*
X158719961Y-93561786D01*
X158874275Y-93507789D01*
X159012704Y-93420808D01*
X159128308Y-93305204D01*
X159215289Y-93166775D01*
X159269286Y-93012461D01*
X159269287Y-93012455D01*
X159287591Y-92850003D01*
X159287591Y-92849996D01*
X159269287Y-92687544D01*
X159269286Y-92687542D01*
X159269286Y-92687539D01*
X159256149Y-92649996D01*
X164419909Y-92649996D01*
X164419909Y-92650003D01*
X164438212Y-92812455D01*
X164492211Y-92966776D01*
X164503053Y-92984032D01*
X164522051Y-93051269D01*
X164503053Y-93115968D01*
X164492211Y-93133223D01*
X164438212Y-93287544D01*
X164419909Y-93449996D01*
X164419909Y-93450003D01*
X164438212Y-93612455D01*
X164492210Y-93766774D01*
X164532445Y-93830807D01*
X164579192Y-93905204D01*
X164694796Y-94020808D01*
X164833225Y-94107789D01*
X164987539Y-94161786D01*
X164987542Y-94161786D01*
X164987544Y-94161787D01*
X165149996Y-94180091D01*
X165150000Y-94180091D01*
X165150004Y-94180091D01*
X165312455Y-94161787D01*
X165312456Y-94161786D01*
X165312461Y-94161786D01*
X165466775Y-94107789D01*
X165605204Y-94020808D01*
X165720808Y-93905204D01*
X165799528Y-93779921D01*
X165851862Y-93733632D01*
X165920915Y-93722984D01*
X165984764Y-93751359D01*
X165992202Y-93758214D01*
X166064796Y-93830808D01*
X166203225Y-93917789D01*
X166357539Y-93971786D01*
X166357542Y-93971786D01*
X166357544Y-93971787D01*
X166519996Y-93990091D01*
X166520000Y-93990091D01*
X166520004Y-93990091D01*
X166682455Y-93971787D01*
X166682456Y-93971786D01*
X166682461Y-93971786D01*
X166836775Y-93917789D01*
X166975204Y-93830808D01*
X167090808Y-93715204D01*
X167177789Y-93576775D01*
X167231786Y-93422461D01*
X167231787Y-93422455D01*
X167250091Y-93260003D01*
X167250091Y-93259996D01*
X168329909Y-93259996D01*
X168329909Y-93260003D01*
X168348212Y-93422455D01*
X168402210Y-93576774D01*
X168411909Y-93592210D01*
X168489192Y-93715204D01*
X168604796Y-93830808D01*
X168743225Y-93917789D01*
X168897539Y-93971786D01*
X168897542Y-93971786D01*
X168897544Y-93971787D01*
X169059996Y-93990091D01*
X169060000Y-93990091D01*
X169060004Y-93990091D01*
X169222455Y-93971787D01*
X169222456Y-93971786D01*
X169222461Y-93971786D01*
X169376775Y-93917789D01*
X169515204Y-93830808D01*
X169630808Y-93715204D01*
X169717789Y-93576775D01*
X169771786Y-93422461D01*
X169771787Y-93422455D01*
X169790091Y-93260003D01*
X169790091Y-93259996D01*
X169771787Y-93097544D01*
X169771786Y-93097542D01*
X169771786Y-93097539D01*
X169717789Y-92943225D01*
X169630808Y-92804796D01*
X169515204Y-92689192D01*
X169468314Y-92659729D01*
X169376774Y-92602210D01*
X169222455Y-92548212D01*
X169060004Y-92529909D01*
X169059996Y-92529909D01*
X168897544Y-92548212D01*
X168743225Y-92602210D01*
X168604795Y-92689192D01*
X168489192Y-92804795D01*
X168402210Y-92943225D01*
X168348212Y-93097544D01*
X168329909Y-93259996D01*
X167250091Y-93259996D01*
X167231787Y-93097544D01*
X167231786Y-93097542D01*
X167231786Y-93097539D01*
X167177789Y-92943225D01*
X167090808Y-92804796D01*
X166975204Y-92689192D01*
X166928314Y-92659729D01*
X166836774Y-92602210D01*
X166682455Y-92548212D01*
X166520004Y-92529909D01*
X166519996Y-92529909D01*
X166357544Y-92548212D01*
X166203225Y-92602210D01*
X166063523Y-92689991D01*
X165996286Y-92708991D01*
X165929451Y-92688623D01*
X165884237Y-92635355D01*
X165874331Y-92598880D01*
X165861787Y-92487544D01*
X165861786Y-92487542D01*
X165861786Y-92487539D01*
X165807789Y-92333225D01*
X165720808Y-92194796D01*
X165605204Y-92079192D01*
X165466774Y-91992210D01*
X165312455Y-91938212D01*
X165150004Y-91919909D01*
X165149996Y-91919909D01*
X164987544Y-91938212D01*
X164833225Y-91992210D01*
X164694795Y-92079192D01*
X164579192Y-92194795D01*
X164492210Y-92333225D01*
X164438212Y-92487544D01*
X164419909Y-92649996D01*
X159256149Y-92649996D01*
X159215289Y-92533225D01*
X159215288Y-92533221D01*
X159131615Y-92400058D01*
X159112614Y-92332822D01*
X159131614Y-92268114D01*
X159161339Y-92220807D01*
X159195289Y-92166776D01*
X159249286Y-92012462D01*
X159257652Y-91938212D01*
X159267591Y-91850004D01*
X159267591Y-91849997D01*
X159249287Y-91687545D01*
X159249286Y-91687543D01*
X159249286Y-91687540D01*
X159195289Y-91533226D01*
X159108308Y-91394797D01*
X158992704Y-91279193D01*
X158992700Y-91279190D01*
X158991996Y-91278629D01*
X158991657Y-91278146D01*
X158987780Y-91274269D01*
X158988459Y-91273589D01*
X158951857Y-91221439D01*
X158949010Y-91151627D01*
X158984357Y-91091358D01*
X159003337Y-91076693D01*
X159012704Y-91070808D01*
X159128308Y-90955204D01*
X159215289Y-90816775D01*
X159269286Y-90662461D01*
X159279149Y-90574925D01*
X159287591Y-90500003D01*
X159287591Y-90499996D01*
X159269287Y-90337544D01*
X159269286Y-90337542D01*
X159269286Y-90337539D01*
X159215289Y-90183225D01*
X159128308Y-90044796D01*
X159012704Y-89929192D01*
X158886676Y-89850003D01*
X158874274Y-89842210D01*
X158719955Y-89788212D01*
X158557504Y-89769909D01*
X158557496Y-89769909D01*
X158395044Y-89788212D01*
X158240725Y-89842210D01*
X158102295Y-89929192D01*
X157986692Y-90044795D01*
X157899710Y-90183225D01*
X157845712Y-90337544D01*
X157827409Y-90499996D01*
X157827409Y-90500003D01*
X157845712Y-90662455D01*
X157899710Y-90816774D01*
X157964515Y-90919909D01*
X157986692Y-90955204D01*
X158102296Y-91070808D01*
X158102298Y-91070809D01*
X158103001Y-91071370D01*
X158103337Y-91071849D01*
X158107220Y-91075732D01*
X158106539Y-91076412D01*
X158143141Y-91128559D01*
X158145990Y-91198370D01*
X158110643Y-91258640D01*
X158091660Y-91273309D01*
X158082297Y-91279191D01*
X157966692Y-91394796D01*
X157879710Y-91533226D01*
X157825712Y-91687545D01*
X157807409Y-91849997D01*
X154584067Y-91849997D01*
X154520808Y-91749321D01*
X154405204Y-91633717D01*
X154266774Y-91546735D01*
X154112455Y-91492737D01*
X153950004Y-91474434D01*
X153949996Y-91474434D01*
X153787544Y-91492737D01*
X153633225Y-91546735D01*
X153494795Y-91633717D01*
X153379192Y-91749320D01*
X153292210Y-91887750D01*
X153238212Y-92042069D01*
X153219909Y-92204521D01*
X152750000Y-92204521D01*
X152750000Y-90299996D01*
X155369909Y-90299996D01*
X155369909Y-90300003D01*
X155388212Y-90462455D01*
X155442210Y-90616774D01*
X155497775Y-90705204D01*
X155529192Y-90755204D01*
X155644796Y-90870808D01*
X155783225Y-90957789D01*
X155937539Y-91011786D01*
X155937542Y-91011786D01*
X155937544Y-91011787D01*
X156099996Y-91030091D01*
X156100000Y-91030091D01*
X156100004Y-91030091D01*
X156262455Y-91011787D01*
X156262456Y-91011786D01*
X156262461Y-91011786D01*
X156416775Y-90957789D01*
X156555204Y-90870808D01*
X156670808Y-90755204D01*
X156757789Y-90616775D01*
X156811786Y-90462461D01*
X156811787Y-90462455D01*
X156830091Y-90300003D01*
X156830091Y-90299996D01*
X156811787Y-90137544D01*
X156811786Y-90137542D01*
X156811786Y-90137539D01*
X156757789Y-89983225D01*
X156670808Y-89844796D01*
X156555204Y-89729192D01*
X156488914Y-89687539D01*
X156416774Y-89642210D01*
X156262455Y-89588212D01*
X156100004Y-89569909D01*
X156099996Y-89569909D01*
X155937544Y-89588212D01*
X155783225Y-89642210D01*
X155644795Y-89729192D01*
X155529192Y-89844795D01*
X155442210Y-89983225D01*
X155388212Y-90137544D01*
X155369909Y-90299996D01*
X152750000Y-90299996D01*
X152750000Y-88999996D01*
X162819909Y-88999996D01*
X162819909Y-89000003D01*
X162838212Y-89162455D01*
X162892210Y-89316774D01*
X162979192Y-89455204D01*
X163094797Y-89570809D01*
X163100246Y-89575155D01*
X163098704Y-89577087D01*
X163137387Y-89620794D01*
X163148055Y-89689845D01*
X163119699Y-89753701D01*
X163112821Y-89761166D01*
X163079192Y-89794795D01*
X162992210Y-89933225D01*
X162938212Y-90087544D01*
X162919909Y-90249996D01*
X162919909Y-90250003D01*
X162938212Y-90412455D01*
X162992210Y-90566774D01*
X163023628Y-90616775D01*
X163079192Y-90705204D01*
X163194796Y-90820808D01*
X163333225Y-90907789D01*
X163487539Y-90961786D01*
X163487542Y-90961786D01*
X163487544Y-90961787D01*
X163649996Y-90980091D01*
X163650000Y-90980091D01*
X163650004Y-90980091D01*
X163812455Y-90961787D01*
X163812456Y-90961786D01*
X163812461Y-90961786D01*
X163966775Y-90907789D01*
X164105204Y-90820808D01*
X164220808Y-90705204D01*
X164307789Y-90566775D01*
X164331156Y-90499996D01*
X166819909Y-90499996D01*
X166819909Y-90500003D01*
X166838212Y-90662455D01*
X166892210Y-90816774D01*
X166957015Y-90919909D01*
X166979192Y-90955204D01*
X167094796Y-91070808D01*
X167233225Y-91157789D01*
X167387539Y-91211786D01*
X167387542Y-91211786D01*
X167387544Y-91211787D01*
X167549996Y-91230091D01*
X167550000Y-91230091D01*
X167550004Y-91230091D01*
X167712455Y-91211787D01*
X167712456Y-91211786D01*
X167712461Y-91211786D01*
X167866775Y-91157789D01*
X168005204Y-91070808D01*
X168120808Y-90955204D01*
X168207789Y-90816775D01*
X168261786Y-90662461D01*
X168271649Y-90574925D01*
X168280091Y-90500003D01*
X168280091Y-90499996D01*
X168261787Y-90337544D01*
X168261786Y-90337542D01*
X168261786Y-90337539D01*
X168207789Y-90183225D01*
X168120808Y-90044796D01*
X168005204Y-89929192D01*
X167879176Y-89850003D01*
X167879165Y-89849996D01*
X171019909Y-89849996D01*
X171019909Y-89850003D01*
X171038212Y-90012455D01*
X171092210Y-90166774D01*
X171144502Y-90249996D01*
X171179192Y-90305204D01*
X171294796Y-90420808D01*
X171433225Y-90507789D01*
X171587539Y-90561786D01*
X171587542Y-90561786D01*
X171587544Y-90561787D01*
X171749997Y-90580091D01*
X171749999Y-90580091D01*
X171749999Y-90580090D01*
X171750000Y-90580091D01*
X171795843Y-90574925D01*
X171864663Y-90586978D01*
X171914721Y-90632173D01*
X171929192Y-90655204D01*
X172049720Y-90775732D01*
X172048540Y-90776911D01*
X172083709Y-90827018D01*
X172086559Y-90896830D01*
X172051213Y-90957099D01*
X172007210Y-90983818D01*
X171983225Y-90992210D01*
X171844795Y-91079192D01*
X171729192Y-91194795D01*
X171642210Y-91333225D01*
X171588212Y-91487544D01*
X171569909Y-91649996D01*
X171569909Y-91650003D01*
X171588212Y-91812455D01*
X171642210Y-91966774D01*
X171729192Y-92105204D01*
X171844796Y-92220808D01*
X171983225Y-92307789D01*
X172137539Y-92361786D01*
X172137542Y-92361786D01*
X172137544Y-92361787D01*
X172299996Y-92380091D01*
X172300000Y-92380091D01*
X172300004Y-92380091D01*
X172462455Y-92361787D01*
X172462456Y-92361786D01*
X172462461Y-92361786D01*
X172616775Y-92307789D01*
X172755204Y-92220808D01*
X172870808Y-92105204D01*
X172957789Y-91966775D01*
X173011786Y-91812461D01*
X173011787Y-91812455D01*
X173030091Y-91650003D01*
X173030091Y-91649996D01*
X173011787Y-91487544D01*
X173011786Y-91487542D01*
X173011786Y-91487539D01*
X172957789Y-91333225D01*
X172870808Y-91194796D01*
X172755204Y-91079192D01*
X172750280Y-91074268D01*
X172751459Y-91073088D01*
X172716288Y-91022977D01*
X172713441Y-90953166D01*
X172748789Y-90892897D01*
X172792790Y-90866181D01*
X172816775Y-90857789D01*
X172955204Y-90770808D01*
X173070808Y-90655204D01*
X173157789Y-90516775D01*
X173211786Y-90362461D01*
X173211787Y-90362455D01*
X173230091Y-90200003D01*
X173230091Y-90199996D01*
X173211787Y-90037544D01*
X173211786Y-90037542D01*
X173211786Y-90037539D01*
X173157789Y-89883225D01*
X173133642Y-89844796D01*
X173076681Y-89754143D01*
X173057680Y-89686906D01*
X173064633Y-89647215D01*
X173066384Y-89642211D01*
X173111786Y-89512461D01*
X173111786Y-89512459D01*
X173111787Y-89512457D01*
X173130091Y-89350003D01*
X173130091Y-89349996D01*
X173111787Y-89187544D01*
X173111786Y-89187542D01*
X173111786Y-89187539D01*
X173057789Y-89033225D01*
X172970808Y-88894796D01*
X172855204Y-88779192D01*
X172838810Y-88768891D01*
X172716774Y-88692210D01*
X172562455Y-88638212D01*
X172400004Y-88619909D01*
X172399996Y-88619909D01*
X172237544Y-88638212D01*
X172083225Y-88692210D01*
X171944795Y-88779192D01*
X171829192Y-88894795D01*
X171742212Y-89033222D01*
X171742211Y-89033224D01*
X171736046Y-89050842D01*
X171695322Y-89107616D01*
X171632891Y-89133103D01*
X171587544Y-89138212D01*
X171433225Y-89192210D01*
X171294795Y-89279192D01*
X171179192Y-89394795D01*
X171092210Y-89533225D01*
X171038212Y-89687544D01*
X171019909Y-89849996D01*
X167879165Y-89849996D01*
X167866774Y-89842210D01*
X167712455Y-89788212D01*
X167550004Y-89769909D01*
X167549996Y-89769909D01*
X167387544Y-89788212D01*
X167233225Y-89842210D01*
X167094795Y-89929192D01*
X166979192Y-90044795D01*
X166892210Y-90183225D01*
X166838212Y-90337544D01*
X166819909Y-90499996D01*
X164331156Y-90499996D01*
X164361786Y-90412461D01*
X164367420Y-90362461D01*
X164380091Y-90250003D01*
X164380091Y-90249996D01*
X164361787Y-90087544D01*
X164361786Y-90087542D01*
X164361786Y-90087539D01*
X164307789Y-89933225D01*
X164220808Y-89794796D01*
X164105204Y-89679192D01*
X164105202Y-89679190D01*
X164099754Y-89674845D01*
X164101290Y-89672917D01*
X164062596Y-89629168D01*
X164051950Y-89560114D01*
X164080327Y-89496267D01*
X164087180Y-89488832D01*
X164120808Y-89455204D01*
X164207789Y-89316775D01*
X164261786Y-89162461D01*
X164264518Y-89138214D01*
X164280091Y-89000003D01*
X164280091Y-88999996D01*
X164261787Y-88837544D01*
X164261786Y-88837542D01*
X164261786Y-88837539D01*
X164207789Y-88683225D01*
X164120808Y-88544796D01*
X164005204Y-88429192D01*
X163985441Y-88416774D01*
X163866774Y-88342210D01*
X163712455Y-88288212D01*
X163550004Y-88269909D01*
X163549996Y-88269909D01*
X163387544Y-88288212D01*
X163233225Y-88342210D01*
X163094795Y-88429192D01*
X162979192Y-88544795D01*
X162892210Y-88683225D01*
X162838212Y-88837544D01*
X162819909Y-88999996D01*
X152750000Y-88999996D01*
X152750000Y-88885932D01*
X152769685Y-88818893D01*
X152822489Y-88773138D01*
X152891647Y-88763194D01*
X152914946Y-88768889D01*
X153037539Y-88811786D01*
X153037542Y-88811787D01*
X153199996Y-88830091D01*
X153200000Y-88830091D01*
X153200004Y-88830091D01*
X153362455Y-88811787D01*
X153362456Y-88811786D01*
X153362461Y-88811786D01*
X153516775Y-88757789D01*
X153655204Y-88670808D01*
X153770808Y-88555204D01*
X153857789Y-88416775D01*
X153911786Y-88262461D01*
X153911787Y-88262455D01*
X153925651Y-88139407D01*
X154659320Y-88139407D01*
X154659320Y-88139414D01*
X154677623Y-88301866D01*
X154731621Y-88456185D01*
X154793839Y-88555204D01*
X154818603Y-88594615D01*
X154934207Y-88710219D01*
X155072636Y-88797200D01*
X155226950Y-88851197D01*
X155226953Y-88851197D01*
X155226955Y-88851198D01*
X155389407Y-88869502D01*
X155389411Y-88869502D01*
X155389415Y-88869502D01*
X155551866Y-88851198D01*
X155551867Y-88851197D01*
X155551872Y-88851197D01*
X155706186Y-88797200D01*
X155844615Y-88710219D01*
X155960219Y-88594615D01*
X156047200Y-88456186D01*
X156101197Y-88301872D01*
X156104487Y-88272672D01*
X156119502Y-88139414D01*
X156119502Y-88139407D01*
X156101198Y-87976956D01*
X156101197Y-87976954D01*
X156101197Y-87976950D01*
X156095410Y-87960414D01*
X156091848Y-87890639D01*
X156126576Y-87830011D01*
X156188569Y-87797783D01*
X156258144Y-87804186D01*
X156300133Y-87831780D01*
X156318019Y-87849666D01*
X156456448Y-87936647D01*
X156610762Y-87990644D01*
X156610765Y-87990644D01*
X156610767Y-87990645D01*
X156773219Y-88008949D01*
X156773223Y-88008949D01*
X156773227Y-88008949D01*
X156935678Y-87990645D01*
X156935679Y-87990644D01*
X156935684Y-87990644D01*
X157089998Y-87936647D01*
X157228427Y-87849666D01*
X157344031Y-87734062D01*
X157431012Y-87595633D01*
X157485009Y-87441319D01*
X157485010Y-87441313D01*
X157503314Y-87278861D01*
X157503314Y-87278854D01*
X157485010Y-87116402D01*
X157485009Y-87116400D01*
X157485009Y-87116397D01*
X157431012Y-86962083D01*
X157344031Y-86823654D01*
X157228427Y-86708050D01*
X157089997Y-86621068D01*
X157029776Y-86599996D01*
X169309910Y-86599996D01*
X169309910Y-86600003D01*
X169328213Y-86762455D01*
X169382211Y-86916774D01*
X169455887Y-87034027D01*
X169469193Y-87055204D01*
X169584797Y-87170808D01*
X169723226Y-87257789D01*
X169877540Y-87311786D01*
X169877543Y-87311786D01*
X169877545Y-87311787D01*
X170039997Y-87330091D01*
X170040001Y-87330091D01*
X170040005Y-87330091D01*
X170202456Y-87311787D01*
X170202457Y-87311786D01*
X170202462Y-87311786D01*
X170356776Y-87257789D01*
X170495205Y-87170808D01*
X170610809Y-87055204D01*
X170697790Y-86916775D01*
X170751787Y-86762461D01*
X170767718Y-86621069D01*
X170770092Y-86600003D01*
X170770092Y-86599996D01*
X170751788Y-86437544D01*
X170751787Y-86437542D01*
X170751787Y-86437539D01*
X170697790Y-86283225D01*
X170610809Y-86144796D01*
X170495205Y-86029192D01*
X170475439Y-86016772D01*
X170356775Y-85942210D01*
X170202456Y-85888212D01*
X170040005Y-85869909D01*
X170039997Y-85869909D01*
X169877545Y-85888212D01*
X169723226Y-85942210D01*
X169584796Y-86029192D01*
X169469193Y-86144795D01*
X169382211Y-86283225D01*
X169328213Y-86437544D01*
X169309910Y-86599996D01*
X157029776Y-86599996D01*
X156935678Y-86567070D01*
X156773227Y-86548767D01*
X156773219Y-86548767D01*
X156610767Y-86567070D01*
X156456448Y-86621068D01*
X156318018Y-86708050D01*
X156202415Y-86823653D01*
X156115433Y-86962083D01*
X156061435Y-87116402D01*
X156043132Y-87278854D01*
X156043132Y-87278861D01*
X156061435Y-87441313D01*
X156067223Y-87457853D01*
X156070784Y-87527632D01*
X156036055Y-87588259D01*
X155974061Y-87620486D01*
X155904486Y-87614080D01*
X155862500Y-87586488D01*
X155844615Y-87568603D01*
X155706185Y-87481621D01*
X155551866Y-87427623D01*
X155389415Y-87409320D01*
X155389407Y-87409320D01*
X155226955Y-87427623D01*
X155072636Y-87481621D01*
X154934206Y-87568603D01*
X154818603Y-87684206D01*
X154731621Y-87822636D01*
X154677623Y-87976955D01*
X154659320Y-88139407D01*
X153925651Y-88139407D01*
X153930091Y-88100003D01*
X153930091Y-88099996D01*
X153911787Y-87937544D01*
X153911786Y-87937542D01*
X153911786Y-87937539D01*
X153857789Y-87783225D01*
X153770808Y-87644796D01*
X153655204Y-87529192D01*
X153579497Y-87481622D01*
X153516774Y-87442210D01*
X153362455Y-87388212D01*
X153200004Y-87369909D01*
X153199996Y-87369909D01*
X153037544Y-87388212D01*
X152914954Y-87431108D01*
X152845175Y-87434669D01*
X152784548Y-87399940D01*
X152752321Y-87337946D01*
X152750000Y-87314066D01*
X152750000Y-85699996D01*
X164719909Y-85699996D01*
X164719909Y-85700003D01*
X164738212Y-85862455D01*
X164738213Y-85862460D01*
X164738214Y-85862461D01*
X164740820Y-85869909D01*
X164792210Y-86016774D01*
X164843711Y-86098736D01*
X164879192Y-86155204D01*
X164994796Y-86270808D01*
X165133225Y-86357789D01*
X165287539Y-86411786D01*
X165287542Y-86411786D01*
X165287544Y-86411787D01*
X165449996Y-86430091D01*
X165450000Y-86430091D01*
X165450004Y-86430091D01*
X165612455Y-86411787D01*
X165612456Y-86411786D01*
X165612461Y-86411786D01*
X165766775Y-86357789D01*
X165905204Y-86270808D01*
X166020808Y-86155204D01*
X166107789Y-86016775D01*
X166133881Y-85942210D01*
X166161784Y-85862468D01*
X166161785Y-85862463D01*
X166161786Y-85862461D01*
X166166895Y-85817108D01*
X166193959Y-85752698D01*
X166249161Y-85713951D01*
X166266775Y-85707789D01*
X166405204Y-85620808D01*
X166520808Y-85505204D01*
X166607789Y-85366775D01*
X166607789Y-85366772D01*
X166610714Y-85362119D01*
X166663049Y-85315828D01*
X166732102Y-85305180D01*
X166795951Y-85333555D01*
X166820701Y-85362118D01*
X166879190Y-85455202D01*
X166879192Y-85455204D01*
X166994796Y-85570808D01*
X167041248Y-85599996D01*
X167133224Y-85657789D01*
X167133227Y-85657790D01*
X167144970Y-85661899D01*
X167201747Y-85702619D01*
X167227238Y-85765057D01*
X167238212Y-85862455D01*
X167238213Y-85862460D01*
X167238214Y-85862461D01*
X167240820Y-85869909D01*
X167292210Y-86016774D01*
X167343711Y-86098736D01*
X167379192Y-86155204D01*
X167494796Y-86270808D01*
X167633225Y-86357789D01*
X167787539Y-86411786D01*
X167787542Y-86411786D01*
X167787544Y-86411787D01*
X167949996Y-86430091D01*
X167950000Y-86430091D01*
X167950004Y-86430091D01*
X168112455Y-86411787D01*
X168112456Y-86411786D01*
X168112461Y-86411786D01*
X168266775Y-86357789D01*
X168405204Y-86270808D01*
X168520808Y-86155204D01*
X168607789Y-86016775D01*
X168661786Y-85862461D01*
X168672761Y-85765057D01*
X168680091Y-85700003D01*
X168680091Y-85699996D01*
X168661787Y-85537544D01*
X168661786Y-85537542D01*
X168661786Y-85537539D01*
X168607789Y-85383225D01*
X168520808Y-85244796D01*
X168405204Y-85129192D01*
X168345932Y-85091949D01*
X168266777Y-85042212D01*
X168266776Y-85042211D01*
X168266775Y-85042211D01*
X168261376Y-85040321D01*
X168255022Y-85038098D01*
X168198247Y-84997374D01*
X168172761Y-84934941D01*
X168161787Y-84837544D01*
X168161786Y-84837542D01*
X168161786Y-84837539D01*
X168107789Y-84683225D01*
X168055493Y-84599996D01*
X173479908Y-84599996D01*
X173479908Y-84600003D01*
X173498211Y-84762455D01*
X173552209Y-84916774D01*
X173625885Y-85034028D01*
X173644885Y-85101265D01*
X173625885Y-85165972D01*
X173552209Y-85283225D01*
X173498211Y-85437544D01*
X173479908Y-85599996D01*
X173479908Y-85600003D01*
X173498211Y-85762455D01*
X173552209Y-85916774D01*
X173625885Y-86034028D01*
X173644885Y-86101265D01*
X173625885Y-86165972D01*
X173552209Y-86283225D01*
X173498211Y-86437544D01*
X173479908Y-86599996D01*
X173479908Y-86600003D01*
X173498211Y-86762455D01*
X173552209Y-86916774D01*
X173625885Y-87034028D01*
X173644885Y-87101265D01*
X173625885Y-87165972D01*
X173552209Y-87283225D01*
X173498211Y-87437544D01*
X173479908Y-87599996D01*
X173479908Y-87600003D01*
X173498211Y-87762455D01*
X173552209Y-87916774D01*
X173609672Y-88008225D01*
X173639191Y-88055204D01*
X173754795Y-88170808D01*
X173893224Y-88257789D01*
X174047538Y-88311786D01*
X174047541Y-88311786D01*
X174047543Y-88311787D01*
X174209995Y-88330091D01*
X174209999Y-88330091D01*
X174210003Y-88330091D01*
X174255222Y-88324996D01*
X175019909Y-88324996D01*
X175019909Y-88325003D01*
X175038212Y-88487455D01*
X175092210Y-88641774D01*
X175123902Y-88692211D01*
X175179192Y-88780204D01*
X175294796Y-88895808D01*
X175433225Y-88982789D01*
X175587539Y-89036786D01*
X175587542Y-89036786D01*
X175587544Y-89036787D01*
X175749996Y-89055091D01*
X175750000Y-89055091D01*
X175750004Y-89055091D01*
X175912455Y-89036787D01*
X175912456Y-89036786D01*
X175912461Y-89036786D01*
X176066775Y-88982789D01*
X176205204Y-88895808D01*
X176320808Y-88780204D01*
X176407789Y-88641775D01*
X176461786Y-88487461D01*
X176465310Y-88456185D01*
X176480091Y-88325003D01*
X176480091Y-88324997D01*
X176474195Y-88272672D01*
X176486249Y-88203850D01*
X176533598Y-88152471D01*
X176601208Y-88134846D01*
X176667614Y-88156572D01*
X176683305Y-88169618D01*
X176684796Y-88170807D01*
X176684797Y-88170808D01*
X176823226Y-88257789D01*
X176977540Y-88311786D01*
X176977543Y-88311786D01*
X176977545Y-88311787D01*
X177139997Y-88330091D01*
X177140001Y-88330091D01*
X177140005Y-88330091D01*
X177302456Y-88311787D01*
X177302457Y-88311786D01*
X177302462Y-88311786D01*
X177456776Y-88257789D01*
X177595205Y-88170808D01*
X177710809Y-88055204D01*
X177797790Y-87916775D01*
X177851787Y-87762461D01*
X177851788Y-87762455D01*
X177870092Y-87600003D01*
X177870092Y-87599996D01*
X177851788Y-87437544D01*
X177851787Y-87437542D01*
X177851787Y-87437539D01*
X177797790Y-87283225D01*
X177710809Y-87144796D01*
X177595205Y-87029192D01*
X177488402Y-86962083D01*
X177456775Y-86942210D01*
X177302456Y-86888212D01*
X177140005Y-86869909D01*
X177139997Y-86869909D01*
X176977545Y-86888212D01*
X176823226Y-86942210D01*
X176684796Y-87029192D01*
X176569193Y-87144795D01*
X176482211Y-87283225D01*
X176428213Y-87437544D01*
X176409910Y-87599996D01*
X176409910Y-87600005D01*
X176415805Y-87652329D01*
X176403750Y-87721150D01*
X176356401Y-87772529D01*
X176288790Y-87790153D01*
X176222384Y-87768426D01*
X176206698Y-87755384D01*
X176205204Y-87754192D01*
X176066774Y-87667210D01*
X175912455Y-87613212D01*
X175750004Y-87594909D01*
X175749996Y-87594909D01*
X175587544Y-87613212D01*
X175433225Y-87667210D01*
X175294795Y-87754192D01*
X175179192Y-87869795D01*
X175179190Y-87869798D01*
X175099044Y-87997348D01*
X175085094Y-88009686D01*
X175085274Y-88027344D01*
X175082989Y-88034578D01*
X175038212Y-88162544D01*
X175019909Y-88324996D01*
X174255222Y-88324996D01*
X174372454Y-88311787D01*
X174372455Y-88311786D01*
X174372460Y-88311786D01*
X174526774Y-88257789D01*
X174665203Y-88170808D01*
X174780807Y-88055204D01*
X174860954Y-87927650D01*
X174874903Y-87915312D01*
X174874724Y-87897654D01*
X174877010Y-87890420D01*
X174884227Y-87869795D01*
X174921785Y-87762461D01*
X174921785Y-87762459D01*
X174921786Y-87762457D01*
X174940090Y-87600003D01*
X174940090Y-87599996D01*
X174921786Y-87437544D01*
X174921785Y-87437542D01*
X174921785Y-87437539D01*
X174867788Y-87283225D01*
X174851805Y-87257789D01*
X174797151Y-87170808D01*
X174794112Y-87165971D01*
X174775112Y-87098736D01*
X174794113Y-87034027D01*
X174867787Y-86916776D01*
X174867788Y-86916775D01*
X174921785Y-86762461D01*
X174937716Y-86621069D01*
X174940090Y-86600003D01*
X174940090Y-86599996D01*
X174921786Y-86437544D01*
X174921785Y-86437542D01*
X174921785Y-86437539D01*
X174867788Y-86283225D01*
X174794112Y-86165971D01*
X174775112Y-86098736D01*
X174794113Y-86034027D01*
X174804954Y-86016775D01*
X174867788Y-85916775D01*
X174921785Y-85762461D01*
X174922885Y-85752698D01*
X174940090Y-85600003D01*
X174940090Y-85599996D01*
X174921786Y-85437544D01*
X174921785Y-85437542D01*
X174921785Y-85437539D01*
X174867788Y-85283225D01*
X174851805Y-85257789D01*
X174823324Y-85212461D01*
X174794112Y-85165971D01*
X174775112Y-85098736D01*
X174794113Y-85034027D01*
X174856374Y-84934941D01*
X174867788Y-84916775D01*
X174921785Y-84762461D01*
X174923773Y-84744819D01*
X174940090Y-84600003D01*
X174940090Y-84599996D01*
X176409910Y-84599996D01*
X176409910Y-84600003D01*
X176428213Y-84762455D01*
X176482211Y-84916774D01*
X176492338Y-84932891D01*
X176569193Y-85055204D01*
X176684797Y-85170808D01*
X176823226Y-85257789D01*
X176977540Y-85311786D01*
X176977543Y-85311786D01*
X176977545Y-85311787D01*
X177139997Y-85330091D01*
X177140001Y-85330091D01*
X177140005Y-85330091D01*
X177302456Y-85311787D01*
X177302457Y-85311786D01*
X177302462Y-85311786D01*
X177456776Y-85257789D01*
X177595205Y-85170808D01*
X177710809Y-85055204D01*
X177797790Y-84916775D01*
X177851787Y-84762461D01*
X177853775Y-84744819D01*
X177870092Y-84600003D01*
X177870092Y-84599996D01*
X177851788Y-84437544D01*
X177851787Y-84437542D01*
X177851787Y-84437539D01*
X177797790Y-84283225D01*
X177710809Y-84144796D01*
X177595205Y-84029192D01*
X177542080Y-83995811D01*
X177456775Y-83942210D01*
X177302456Y-83888212D01*
X177140005Y-83869909D01*
X177139997Y-83869909D01*
X176977545Y-83888212D01*
X176823226Y-83942210D01*
X176684796Y-84029192D01*
X176569193Y-84144795D01*
X176482211Y-84283225D01*
X176428213Y-84437544D01*
X176409910Y-84599996D01*
X174940090Y-84599996D01*
X174921786Y-84437544D01*
X174921785Y-84437542D01*
X174921785Y-84437539D01*
X174867788Y-84283225D01*
X174780807Y-84144796D01*
X174665203Y-84029192D01*
X174612078Y-83995811D01*
X174526773Y-83942210D01*
X174372454Y-83888212D01*
X174210003Y-83869909D01*
X174209995Y-83869909D01*
X174047543Y-83888212D01*
X173893224Y-83942210D01*
X173754794Y-84029192D01*
X173639191Y-84144795D01*
X173552209Y-84283225D01*
X173498211Y-84437544D01*
X173479908Y-84599996D01*
X168055493Y-84599996D01*
X168020808Y-84544796D01*
X167905204Y-84429192D01*
X167766774Y-84342210D01*
X167612455Y-84288212D01*
X167450004Y-84269909D01*
X167449996Y-84269909D01*
X167287544Y-84288212D01*
X167133225Y-84342210D01*
X166994795Y-84429192D01*
X166879190Y-84544797D01*
X166789284Y-84687881D01*
X166736949Y-84734172D01*
X166667896Y-84744819D01*
X166604048Y-84716444D01*
X166579298Y-84687881D01*
X166520809Y-84594797D01*
X166405204Y-84479192D01*
X166266774Y-84392210D01*
X166123881Y-84342210D01*
X166112461Y-84338214D01*
X166112460Y-84338213D01*
X166112455Y-84338212D01*
X165950004Y-84319909D01*
X165949996Y-84319909D01*
X165787544Y-84338212D01*
X165633225Y-84392210D01*
X165494795Y-84479192D01*
X165379192Y-84594795D01*
X165292210Y-84733225D01*
X165238212Y-84887544D01*
X165233103Y-84932891D01*
X165206036Y-84997304D01*
X165150842Y-85036046D01*
X165133224Y-85042211D01*
X165133222Y-85042212D01*
X164994795Y-85129192D01*
X164879192Y-85244795D01*
X164792210Y-85383225D01*
X164738212Y-85537544D01*
X164719909Y-85699996D01*
X152750000Y-85699996D01*
X152750000Y-84521138D01*
X156396686Y-84521138D01*
X156396686Y-84521145D01*
X156414989Y-84683597D01*
X156468987Y-84837916D01*
X156528664Y-84932891D01*
X156555969Y-84976346D01*
X156671573Y-85091950D01*
X156810002Y-85178931D01*
X156964316Y-85232928D01*
X156964319Y-85232928D01*
X156964321Y-85232929D01*
X157126773Y-85251233D01*
X157126777Y-85251233D01*
X157126781Y-85251233D01*
X157289232Y-85232929D01*
X157289233Y-85232928D01*
X157289238Y-85232928D01*
X157443552Y-85178931D01*
X157581981Y-85091950D01*
X157697585Y-84976346D01*
X157784566Y-84837917D01*
X157838563Y-84683603D01*
X157838606Y-84683225D01*
X157856868Y-84521145D01*
X157856868Y-84521138D01*
X157838564Y-84358687D01*
X157838563Y-84358685D01*
X157838563Y-84358681D01*
X157832776Y-84342145D01*
X157829214Y-84272370D01*
X157863942Y-84211742D01*
X157925935Y-84179514D01*
X157995510Y-84185917D01*
X158037499Y-84213511D01*
X158055385Y-84231397D01*
X158193814Y-84318378D01*
X158348128Y-84372375D01*
X158348131Y-84372375D01*
X158348133Y-84372376D01*
X158510585Y-84390680D01*
X158510589Y-84390680D01*
X158510593Y-84390680D01*
X158673044Y-84372376D01*
X158673045Y-84372375D01*
X158673050Y-84372375D01*
X158827364Y-84318378D01*
X158965793Y-84231397D01*
X159081397Y-84115793D01*
X159168378Y-83977364D01*
X159222375Y-83823050D01*
X159224095Y-83807789D01*
X159240680Y-83660592D01*
X159240680Y-83660585D01*
X159222376Y-83498133D01*
X159222375Y-83498131D01*
X159222375Y-83498128D01*
X159168378Y-83343814D01*
X159140845Y-83299996D01*
X166819909Y-83299996D01*
X166819909Y-83300003D01*
X166838212Y-83462455D01*
X166892210Y-83616774D01*
X166919741Y-83660589D01*
X166979192Y-83755204D01*
X167094796Y-83870808D01*
X167233225Y-83957789D01*
X167387539Y-84011786D01*
X167387542Y-84011786D01*
X167387544Y-84011787D01*
X167549996Y-84030091D01*
X167550000Y-84030091D01*
X167550004Y-84030091D01*
X167712455Y-84011787D01*
X167712456Y-84011786D01*
X167712461Y-84011786D01*
X167866775Y-83957789D01*
X168005204Y-83870808D01*
X168120808Y-83755204D01*
X168207789Y-83616775D01*
X168261786Y-83462461D01*
X168261787Y-83462455D01*
X168280091Y-83300003D01*
X168280091Y-83299996D01*
X168261787Y-83137544D01*
X168261786Y-83137542D01*
X168261786Y-83137539D01*
X168207789Y-82983225D01*
X168120808Y-82844796D01*
X168005204Y-82729192D01*
X167950462Y-82694795D01*
X167866774Y-82642210D01*
X167712455Y-82588212D01*
X167550004Y-82569909D01*
X167549996Y-82569909D01*
X167387544Y-82588212D01*
X167233225Y-82642210D01*
X167094795Y-82729192D01*
X166979192Y-82844795D01*
X166892210Y-82983225D01*
X166838212Y-83137544D01*
X166819909Y-83299996D01*
X159140845Y-83299996D01*
X159081397Y-83205385D01*
X158965793Y-83089781D01*
X158827363Y-83002799D01*
X158673044Y-82948801D01*
X158510593Y-82930498D01*
X158510585Y-82930498D01*
X158348133Y-82948801D01*
X158193814Y-83002799D01*
X158055384Y-83089781D01*
X157939781Y-83205384D01*
X157852799Y-83343814D01*
X157798801Y-83498133D01*
X157780498Y-83660585D01*
X157780498Y-83660592D01*
X157798801Y-83823044D01*
X157804589Y-83839584D01*
X157808150Y-83909363D01*
X157773421Y-83969990D01*
X157711427Y-84002217D01*
X157641852Y-83995811D01*
X157599866Y-83968219D01*
X157581981Y-83950334D01*
X157443551Y-83863352D01*
X157289232Y-83809354D01*
X157126781Y-83791051D01*
X157126773Y-83791051D01*
X156964321Y-83809354D01*
X156810002Y-83863352D01*
X156671572Y-83950334D01*
X156555969Y-84065937D01*
X156468987Y-84204367D01*
X156414989Y-84358686D01*
X156396686Y-84521138D01*
X152750000Y-84521138D01*
X152750000Y-83775374D01*
X152769685Y-83708335D01*
X152822489Y-83662580D01*
X152891647Y-83652636D01*
X152955203Y-83681661D01*
X152961681Y-83687693D01*
X152994796Y-83720808D01*
X153133225Y-83807789D01*
X153287539Y-83861786D01*
X153287542Y-83861786D01*
X153287544Y-83861787D01*
X153449996Y-83880091D01*
X153450000Y-83880091D01*
X153450004Y-83880091D01*
X153612455Y-83861787D01*
X153612456Y-83861786D01*
X153612461Y-83861786D01*
X153766775Y-83807789D01*
X153905204Y-83720808D01*
X154020808Y-83605204D01*
X154107789Y-83466775D01*
X154161786Y-83312461D01*
X154163190Y-83300000D01*
X154180091Y-83150003D01*
X154180091Y-83149996D01*
X154161787Y-82987544D01*
X154161786Y-82987542D01*
X154161786Y-82987539D01*
X154107789Y-82833225D01*
X154020808Y-82694796D01*
X153905204Y-82579192D01*
X153890430Y-82569909D01*
X153766774Y-82492210D01*
X153612455Y-82438212D01*
X153610949Y-82438043D01*
X153610039Y-82437660D01*
X153605665Y-82436662D01*
X153605839Y-82435896D01*
X153546536Y-82410975D01*
X153506982Y-82353379D01*
X153504845Y-82283542D01*
X153507791Y-82273877D01*
X153511786Y-82262461D01*
X153530091Y-82100000D01*
X153511786Y-81937539D01*
X153457789Y-81783225D01*
X153370808Y-81644796D01*
X153255204Y-81529192D01*
X153116774Y-81442210D01*
X152962455Y-81388212D01*
X152860117Y-81376682D01*
X152795703Y-81349616D01*
X152756147Y-81292021D01*
X152750000Y-81253462D01*
X152750000Y-79218713D01*
X154149500Y-79218713D01*
X154149500Y-79681286D01*
X154172899Y-79829025D01*
X154182754Y-79891243D01*
X154216976Y-79996568D01*
X154248444Y-80093414D01*
X154344951Y-80282820D01*
X154469890Y-80454786D01*
X154620213Y-80605109D01*
X154792179Y-80730048D01*
X154792181Y-80730049D01*
X154792184Y-80730051D01*
X154981588Y-80826557D01*
X155183757Y-80892246D01*
X155393713Y-80925500D01*
X155393714Y-80925500D01*
X155606286Y-80925500D01*
X155606287Y-80925500D01*
X155816243Y-80892246D01*
X156018412Y-80826557D01*
X156207816Y-80730051D01*
X156229789Y-80714086D01*
X156379786Y-80605109D01*
X156379788Y-80605106D01*
X156379792Y-80605104D01*
X156530104Y-80454792D01*
X156649683Y-80290204D01*
X156705011Y-80247540D01*
X156774624Y-80241561D01*
X156836420Y-80274166D01*
X156850313Y-80290199D01*
X156953925Y-80432809D01*
X156969896Y-80454792D01*
X157120213Y-80605109D01*
X157292179Y-80730048D01*
X157292181Y-80730049D01*
X157292184Y-80730051D01*
X157481588Y-80826557D01*
X157683757Y-80892246D01*
X157893713Y-80925500D01*
X157893714Y-80925500D01*
X158106286Y-80925500D01*
X158106287Y-80925500D01*
X158316243Y-80892246D01*
X158518412Y-80826557D01*
X158707816Y-80730051D01*
X158729789Y-80714086D01*
X158879786Y-80605109D01*
X158879788Y-80605106D01*
X158879792Y-80605104D01*
X159030104Y-80454792D01*
X159149683Y-80290204D01*
X159205011Y-80247540D01*
X159274624Y-80241561D01*
X159336420Y-80274166D01*
X159350313Y-80290199D01*
X159453925Y-80432809D01*
X159469896Y-80454792D01*
X159620213Y-80605109D01*
X159792179Y-80730048D01*
X159792181Y-80730049D01*
X159792184Y-80730051D01*
X159981588Y-80826557D01*
X160183757Y-80892246D01*
X160393713Y-80925500D01*
X160393714Y-80925500D01*
X160606286Y-80925500D01*
X160606287Y-80925500D01*
X160816243Y-80892246D01*
X161018412Y-80826557D01*
X161207816Y-80730051D01*
X161229789Y-80714086D01*
X161379786Y-80605109D01*
X161379788Y-80605106D01*
X161379792Y-80605104D01*
X161530104Y-80454792D01*
X161649683Y-80290204D01*
X161705011Y-80247540D01*
X161774624Y-80241561D01*
X161836420Y-80274166D01*
X161850313Y-80290199D01*
X161953925Y-80432809D01*
X161969896Y-80454792D01*
X162120213Y-80605109D01*
X162292179Y-80730048D01*
X162292181Y-80730049D01*
X162292184Y-80730051D01*
X162481588Y-80826557D01*
X162683757Y-80892246D01*
X162893713Y-80925500D01*
X162893714Y-80925500D01*
X163106286Y-80925500D01*
X163106287Y-80925500D01*
X163316243Y-80892246D01*
X163518412Y-80826557D01*
X163707816Y-80730051D01*
X163729789Y-80714086D01*
X163879786Y-80605109D01*
X163879788Y-80605106D01*
X163879792Y-80605104D01*
X164030104Y-80454792D01*
X164149683Y-80290204D01*
X164205011Y-80247540D01*
X164274624Y-80241561D01*
X164336420Y-80274166D01*
X164350313Y-80290199D01*
X164453925Y-80432809D01*
X164469896Y-80454792D01*
X164620213Y-80605109D01*
X164792179Y-80730048D01*
X164792181Y-80730049D01*
X164792184Y-80730051D01*
X164981588Y-80826557D01*
X165183757Y-80892246D01*
X165393713Y-80925500D01*
X165393714Y-80925500D01*
X165606286Y-80925500D01*
X165606287Y-80925500D01*
X165816243Y-80892246D01*
X166018412Y-80826557D01*
X166207816Y-80730051D01*
X166229789Y-80714086D01*
X166379786Y-80605109D01*
X166379788Y-80605106D01*
X166379792Y-80605104D01*
X166530104Y-80454792D01*
X166649683Y-80290204D01*
X166705011Y-80247540D01*
X166774624Y-80241561D01*
X166836420Y-80274166D01*
X166850313Y-80290199D01*
X166953925Y-80432809D01*
X166969896Y-80454792D01*
X167120213Y-80605109D01*
X167292179Y-80730048D01*
X167292181Y-80730049D01*
X167292184Y-80730051D01*
X167481588Y-80826557D01*
X167683757Y-80892246D01*
X167893713Y-80925500D01*
X167893714Y-80925500D01*
X168106286Y-80925500D01*
X168106287Y-80925500D01*
X168316243Y-80892246D01*
X168518412Y-80826557D01*
X168707816Y-80730051D01*
X168879792Y-80605104D01*
X169018604Y-80466291D01*
X169079923Y-80432809D01*
X169149615Y-80437793D01*
X169205549Y-80479664D01*
X169211821Y-80488878D01*
X169215185Y-80494333D01*
X169215186Y-80494334D01*
X169307288Y-80643656D01*
X169431344Y-80767712D01*
X169580666Y-80859814D01*
X169747203Y-80914999D01*
X169849991Y-80925500D01*
X171150008Y-80925499D01*
X171252797Y-80914999D01*
X171419334Y-80859814D01*
X171568656Y-80767712D01*
X171692712Y-80643656D01*
X171784814Y-80494334D01*
X171839999Y-80327797D01*
X171850500Y-80225009D01*
X171850499Y-78674992D01*
X171842500Y-78596691D01*
X171839999Y-78572203D01*
X171839998Y-78572200D01*
X171802104Y-78457845D01*
X171784814Y-78405666D01*
X171692712Y-78256344D01*
X171568656Y-78132288D01*
X171419334Y-78040186D01*
X171298061Y-78000000D01*
X175694564Y-78000000D01*
X175703234Y-78132288D01*
X175714287Y-78300918D01*
X175714288Y-78300930D01*
X175773118Y-78596683D01*
X175773122Y-78596698D01*
X175870053Y-78882247D01*
X175870062Y-78882268D01*
X176003431Y-79152713D01*
X176003435Y-79152720D01*
X176170973Y-79403459D01*
X176369810Y-79630189D01*
X176596540Y-79829026D01*
X176847279Y-79996564D01*
X176847286Y-79996568D01*
X177117731Y-80129937D01*
X177117736Y-80129939D01*
X177117748Y-80129945D01*
X177403309Y-80226880D01*
X177603251Y-80266651D01*
X177699069Y-80285711D01*
X177699070Y-80285711D01*
X177699080Y-80285713D01*
X178000000Y-80305436D01*
X178300920Y-80285713D01*
X178596691Y-80226880D01*
X178882252Y-80129945D01*
X179152718Y-79996566D01*
X179403461Y-79829025D01*
X179630189Y-79630189D01*
X179829025Y-79403461D01*
X179996566Y-79152718D01*
X180129945Y-78882252D01*
X180226880Y-78596691D01*
X180285713Y-78300920D01*
X180305436Y-78000000D01*
X180285713Y-77699080D01*
X180226880Y-77403309D01*
X180129945Y-77117748D01*
X180080529Y-77017543D01*
X179996568Y-76847286D01*
X179996564Y-76847279D01*
X179829026Y-76596540D01*
X179630189Y-76369810D01*
X179403459Y-76170973D01*
X179152720Y-76003435D01*
X179152713Y-76003431D01*
X178882268Y-75870062D01*
X178882247Y-75870053D01*
X178596698Y-75773122D01*
X178596692Y-75773120D01*
X178596691Y-75773120D01*
X178596689Y-75773119D01*
X178596683Y-75773118D01*
X178300930Y-75714288D01*
X178300921Y-75714287D01*
X178300920Y-75714287D01*
X178000000Y-75694564D01*
X177699080Y-75714287D01*
X177699079Y-75714287D01*
X177699069Y-75714288D01*
X177403316Y-75773118D01*
X177403301Y-75773122D01*
X177117752Y-75870053D01*
X177117731Y-75870062D01*
X176847286Y-76003431D01*
X176847279Y-76003435D01*
X176596540Y-76170973D01*
X176369810Y-76369810D01*
X176170973Y-76596540D01*
X176003435Y-76847279D01*
X176003431Y-76847286D01*
X175870062Y-77117731D01*
X175870053Y-77117752D01*
X175773122Y-77403301D01*
X175773118Y-77403316D01*
X175714288Y-77699069D01*
X175714287Y-77699079D01*
X175714287Y-77699080D01*
X175694564Y-78000000D01*
X171298061Y-78000000D01*
X171252797Y-77985001D01*
X171252795Y-77985000D01*
X171150010Y-77974500D01*
X169849998Y-77974500D01*
X169849981Y-77974501D01*
X169747203Y-77985000D01*
X169747200Y-77985001D01*
X169580668Y-78040185D01*
X169580663Y-78040187D01*
X169431342Y-78132289D01*
X169307289Y-78256342D01*
X169211821Y-78411121D01*
X169159873Y-78457845D01*
X169090910Y-78469068D01*
X169026828Y-78441224D01*
X169018601Y-78433705D01*
X168879786Y-78294890D01*
X168707820Y-78169951D01*
X168518414Y-78073444D01*
X168518413Y-78073443D01*
X168518412Y-78073443D01*
X168316243Y-78007754D01*
X168316241Y-78007753D01*
X168316240Y-78007753D01*
X168154957Y-77982208D01*
X168106287Y-77974500D01*
X167893713Y-77974500D01*
X167845042Y-77982208D01*
X167683760Y-78007753D01*
X167481585Y-78073444D01*
X167292179Y-78169951D01*
X167120213Y-78294890D01*
X166969894Y-78445209D01*
X166969890Y-78445214D01*
X166850318Y-78609793D01*
X166794989Y-78652459D01*
X166725375Y-78658438D01*
X166663580Y-78625833D01*
X166649682Y-78609793D01*
X166530109Y-78445214D01*
X166530105Y-78445209D01*
X166379786Y-78294890D01*
X166207820Y-78169951D01*
X166018414Y-78073444D01*
X166018413Y-78073443D01*
X166018412Y-78073443D01*
X165816243Y-78007754D01*
X165816241Y-78007753D01*
X165816240Y-78007753D01*
X165654957Y-77982208D01*
X165606287Y-77974500D01*
X165393713Y-77974500D01*
X165345042Y-77982208D01*
X165183760Y-78007753D01*
X164981585Y-78073444D01*
X164792179Y-78169951D01*
X164620213Y-78294890D01*
X164469894Y-78445209D01*
X164469890Y-78445214D01*
X164350318Y-78609793D01*
X164294989Y-78652459D01*
X164225375Y-78658438D01*
X164163580Y-78625833D01*
X164149682Y-78609793D01*
X164030109Y-78445214D01*
X164030105Y-78445209D01*
X163879786Y-78294890D01*
X163707820Y-78169951D01*
X163518414Y-78073444D01*
X163518413Y-78073443D01*
X163518412Y-78073443D01*
X163316243Y-78007754D01*
X163316241Y-78007753D01*
X163316240Y-78007753D01*
X163154957Y-77982208D01*
X163106287Y-77974500D01*
X162893713Y-77974500D01*
X162845042Y-77982208D01*
X162683760Y-78007753D01*
X162481585Y-78073444D01*
X162292179Y-78169951D01*
X162120213Y-78294890D01*
X161969894Y-78445209D01*
X161969890Y-78445214D01*
X161850318Y-78609793D01*
X161794989Y-78652459D01*
X161725375Y-78658438D01*
X161663580Y-78625833D01*
X161649682Y-78609793D01*
X161530109Y-78445214D01*
X161530105Y-78445209D01*
X161379786Y-78294890D01*
X161207820Y-78169951D01*
X161018414Y-78073444D01*
X161018413Y-78073443D01*
X161018412Y-78073443D01*
X160816243Y-78007754D01*
X160816241Y-78007753D01*
X160816240Y-78007753D01*
X160654957Y-77982208D01*
X160606287Y-77974500D01*
X160393713Y-77974500D01*
X160345042Y-77982208D01*
X160183760Y-78007753D01*
X159981585Y-78073444D01*
X159792179Y-78169951D01*
X159620213Y-78294890D01*
X159469894Y-78445209D01*
X159469890Y-78445214D01*
X159350318Y-78609793D01*
X159294989Y-78652459D01*
X159225375Y-78658438D01*
X159163580Y-78625833D01*
X159149682Y-78609793D01*
X159030109Y-78445214D01*
X159030105Y-78445209D01*
X158879786Y-78294890D01*
X158707820Y-78169951D01*
X158518414Y-78073444D01*
X158518413Y-78073443D01*
X158518412Y-78073443D01*
X158316243Y-78007754D01*
X158316241Y-78007753D01*
X158316240Y-78007753D01*
X158154957Y-77982208D01*
X158106287Y-77974500D01*
X157893713Y-77974500D01*
X157845042Y-77982208D01*
X157683760Y-78007753D01*
X157481585Y-78073444D01*
X157292179Y-78169951D01*
X157120213Y-78294890D01*
X156969894Y-78445209D01*
X156969890Y-78445214D01*
X156850318Y-78609793D01*
X156794989Y-78652459D01*
X156725375Y-78658438D01*
X156663580Y-78625833D01*
X156649682Y-78609793D01*
X156530109Y-78445214D01*
X156530105Y-78445209D01*
X156379786Y-78294890D01*
X156207820Y-78169951D01*
X156018414Y-78073444D01*
X156018413Y-78073443D01*
X156018412Y-78073443D01*
X155816243Y-78007754D01*
X155816241Y-78007753D01*
X155816240Y-78007753D01*
X155654957Y-77982208D01*
X155606287Y-77974500D01*
X155393713Y-77974500D01*
X155345042Y-77982208D01*
X155183760Y-78007753D01*
X154981585Y-78073444D01*
X154792179Y-78169951D01*
X154620213Y-78294890D01*
X154469890Y-78445213D01*
X154344951Y-78617179D01*
X154248444Y-78806585D01*
X154182753Y-79008760D01*
X154149500Y-79218713D01*
X152750000Y-79218713D01*
X152750000Y-76149996D01*
X153669910Y-76149996D01*
X153669910Y-76150003D01*
X153688213Y-76312455D01*
X153742211Y-76466774D01*
X153742212Y-76466775D01*
X153823748Y-76596539D01*
X153825312Y-76599027D01*
X153844312Y-76666263D01*
X153825312Y-76730971D01*
X153742211Y-76863224D01*
X153688213Y-77017543D01*
X153669910Y-77179995D01*
X153669910Y-77180002D01*
X153688213Y-77342454D01*
X153742211Y-77496773D01*
X153742212Y-77496774D01*
X153829193Y-77635203D01*
X153944797Y-77750807D01*
X154083226Y-77837788D01*
X154237540Y-77891785D01*
X154237543Y-77891785D01*
X154237545Y-77891786D01*
X154399997Y-77910090D01*
X154400001Y-77910090D01*
X154400005Y-77910090D01*
X154562456Y-77891786D01*
X154562457Y-77891785D01*
X154562462Y-77891785D01*
X154716776Y-77837788D01*
X154855205Y-77750807D01*
X154970809Y-77635203D01*
X155057790Y-77496774D01*
X155111787Y-77342460D01*
X155130092Y-77179999D01*
X155130092Y-77179995D01*
X155111040Y-77010904D01*
X155123094Y-76942082D01*
X155170444Y-76890702D01*
X155238054Y-76873078D01*
X155275211Y-76879977D01*
X155337539Y-76901787D01*
X155337543Y-76901787D01*
X155337545Y-76901788D01*
X155499996Y-76920092D01*
X155500000Y-76920092D01*
X155500004Y-76920092D01*
X155662455Y-76901788D01*
X155662456Y-76901787D01*
X155662461Y-76901787D01*
X155816775Y-76847790D01*
X155955204Y-76760809D01*
X156070808Y-76645205D01*
X156157789Y-76506776D01*
X156211786Y-76352462D01*
X156230091Y-76190001D01*
X156227947Y-76170975D01*
X156211787Y-76027545D01*
X156211786Y-76027543D01*
X156211786Y-76027540D01*
X156157789Y-75873226D01*
X156070808Y-75734797D01*
X155955204Y-75619193D01*
X155891543Y-75579192D01*
X155816774Y-75532211D01*
X155662455Y-75478213D01*
X155500004Y-75459910D01*
X155499996Y-75459910D01*
X155337544Y-75478213D01*
X155183225Y-75532211D01*
X155038900Y-75622898D01*
X155037592Y-75620816D01*
X154983461Y-75642884D01*
X154914772Y-75630093D01*
X154883216Y-75607203D01*
X154855205Y-75579192D01*
X154716775Y-75492210D01*
X154562456Y-75438212D01*
X154400005Y-75419909D01*
X154399997Y-75419909D01*
X154237545Y-75438212D01*
X154083226Y-75492210D01*
X153944796Y-75579192D01*
X153829193Y-75694795D01*
X153742211Y-75833225D01*
X153688213Y-75987544D01*
X153669910Y-76149996D01*
X152750000Y-76149996D01*
X152750000Y-74862772D01*
X152769685Y-74795733D01*
X152822489Y-74749978D01*
X152891647Y-74740034D01*
X152939973Y-74757779D01*
X152944794Y-74760808D01*
X152944795Y-74760809D01*
X153083224Y-74847790D01*
X153237538Y-74901787D01*
X153237541Y-74901787D01*
X153237543Y-74901788D01*
X153399995Y-74920092D01*
X153399999Y-74920092D01*
X153400003Y-74920092D01*
X153562454Y-74901788D01*
X153562455Y-74901787D01*
X153562460Y-74901787D01*
X153716774Y-74847790D01*
X153855203Y-74760809D01*
X153855204Y-74760808D01*
X153860647Y-74756468D01*
X153862602Y-74758920D01*
X153911662Y-74732017D01*
X153981362Y-74736876D01*
X154004210Y-74748142D01*
X154056198Y-74780808D01*
X154083225Y-74797790D01*
X154237539Y-74851787D01*
X154237542Y-74851787D01*
X154237544Y-74851788D01*
X154399996Y-74870092D01*
X154400000Y-74870092D01*
X154400004Y-74870092D01*
X154562455Y-74851788D01*
X154562456Y-74851787D01*
X154562461Y-74851787D01*
X154716775Y-74797790D01*
X154855204Y-74710809D01*
X154970808Y-74595205D01*
X155057789Y-74456776D01*
X155111786Y-74302462D01*
X155121077Y-74220003D01*
X155124458Y-74189997D01*
X157269909Y-74189997D01*
X157269909Y-74190004D01*
X157288212Y-74352456D01*
X157342210Y-74506775D01*
X157397775Y-74595205D01*
X157429192Y-74645205D01*
X157544796Y-74760809D01*
X157683225Y-74847790D01*
X157837539Y-74901787D01*
X157837542Y-74901787D01*
X157837544Y-74901788D01*
X157999996Y-74920092D01*
X158000000Y-74920092D01*
X158000004Y-74920092D01*
X158162455Y-74901788D01*
X158162456Y-74901787D01*
X158162461Y-74901787D01*
X158316775Y-74847790D01*
X158410155Y-74789114D01*
X158477392Y-74770114D01*
X158542100Y-74789114D01*
X158544796Y-74790808D01*
X158683225Y-74877789D01*
X158837539Y-74931786D01*
X158837542Y-74931786D01*
X158837544Y-74931787D01*
X158999996Y-74950091D01*
X159000000Y-74950091D01*
X159000004Y-74950091D01*
X159162455Y-74931787D01*
X159162456Y-74931786D01*
X159162461Y-74931786D01*
X159316775Y-74877789D01*
X159455204Y-74790808D01*
X159570808Y-74675204D01*
X159654432Y-74542116D01*
X159706764Y-74495828D01*
X159775818Y-74485179D01*
X159839666Y-74513554D01*
X159864417Y-74542118D01*
X159929190Y-74645203D01*
X159929192Y-74645205D01*
X160044796Y-74760809D01*
X160183225Y-74847790D01*
X160337539Y-74901787D01*
X160337542Y-74901787D01*
X160337544Y-74901788D01*
X160499996Y-74920092D01*
X160500000Y-74920092D01*
X160500004Y-74920092D01*
X160662455Y-74901788D01*
X160662456Y-74901787D01*
X160662461Y-74901787D01*
X160816775Y-74847790D01*
X160910155Y-74789114D01*
X160977392Y-74770114D01*
X161042100Y-74789114D01*
X161044796Y-74790808D01*
X161183225Y-74877789D01*
X161337539Y-74931786D01*
X161337542Y-74931786D01*
X161337544Y-74931787D01*
X161499996Y-74950091D01*
X161500000Y-74950091D01*
X161500004Y-74950091D01*
X161662455Y-74931787D01*
X161662456Y-74931786D01*
X161662461Y-74931786D01*
X161816775Y-74877789D01*
X161955204Y-74790808D01*
X162070808Y-74675204D01*
X162154432Y-74542116D01*
X162206764Y-74495828D01*
X162275818Y-74485179D01*
X162339666Y-74513554D01*
X162364417Y-74542118D01*
X162429190Y-74645203D01*
X162429192Y-74645205D01*
X162544796Y-74760809D01*
X162683225Y-74847790D01*
X162837539Y-74901787D01*
X162837542Y-74901787D01*
X162837544Y-74901788D01*
X162999996Y-74920092D01*
X163000000Y-74920092D01*
X163000004Y-74920092D01*
X163162455Y-74901788D01*
X163162456Y-74901787D01*
X163162461Y-74901787D01*
X163316775Y-74847790D01*
X163407463Y-74790807D01*
X163418113Y-74784115D01*
X163485350Y-74765114D01*
X163550058Y-74784115D01*
X163683221Y-74867788D01*
X163711803Y-74877789D01*
X163837539Y-74921786D01*
X163837542Y-74921786D01*
X163837544Y-74921787D01*
X163999996Y-74940091D01*
X164000000Y-74940091D01*
X164000004Y-74940091D01*
X164162455Y-74921787D01*
X164162456Y-74921786D01*
X164162461Y-74921786D01*
X164316775Y-74867789D01*
X164455204Y-74780808D01*
X164570808Y-74665204D01*
X164651289Y-74537118D01*
X164703624Y-74490828D01*
X164772677Y-74480180D01*
X164836526Y-74508555D01*
X164861276Y-74537118D01*
X164929192Y-74645205D01*
X165044796Y-74760809D01*
X165183225Y-74847790D01*
X165337539Y-74901787D01*
X165337542Y-74901787D01*
X165337544Y-74901788D01*
X165499996Y-74920092D01*
X165500000Y-74920092D01*
X165500004Y-74920092D01*
X165662455Y-74901788D01*
X165662456Y-74901787D01*
X165662461Y-74901787D01*
X165816775Y-74847790D01*
X165910155Y-74789114D01*
X165977392Y-74770114D01*
X166042100Y-74789114D01*
X166044796Y-74790808D01*
X166183225Y-74877789D01*
X166337539Y-74931786D01*
X166337542Y-74931786D01*
X166337544Y-74931787D01*
X166499996Y-74950091D01*
X166500000Y-74950091D01*
X166500004Y-74950091D01*
X166662455Y-74931787D01*
X166662456Y-74931786D01*
X166662461Y-74931786D01*
X166816775Y-74877789D01*
X166955204Y-74790808D01*
X167070808Y-74675204D01*
X167154432Y-74542116D01*
X167206764Y-74495828D01*
X167275818Y-74485179D01*
X167339666Y-74513554D01*
X167364417Y-74542118D01*
X167429190Y-74645203D01*
X167429192Y-74645205D01*
X167544796Y-74760809D01*
X167683225Y-74847790D01*
X167837539Y-74901787D01*
X167837542Y-74901787D01*
X167837544Y-74901788D01*
X167999996Y-74920092D01*
X168000000Y-74920092D01*
X168000004Y-74920092D01*
X168162455Y-74901788D01*
X168162456Y-74901787D01*
X168162461Y-74901787D01*
X168316775Y-74847790D01*
X168410155Y-74789114D01*
X168477392Y-74770114D01*
X168542100Y-74789114D01*
X168544796Y-74790808D01*
X168683225Y-74877789D01*
X168837539Y-74931786D01*
X168837542Y-74931786D01*
X168837544Y-74931787D01*
X168999996Y-74950091D01*
X169000000Y-74950091D01*
X169000004Y-74950091D01*
X169162455Y-74931787D01*
X169162456Y-74931786D01*
X169162461Y-74931786D01*
X169316775Y-74877789D01*
X169455204Y-74790808D01*
X169570808Y-74675204D01*
X169654432Y-74542116D01*
X169706764Y-74495828D01*
X169775818Y-74485179D01*
X169839666Y-74513554D01*
X169864417Y-74542118D01*
X169929190Y-74645203D01*
X169929192Y-74645205D01*
X170044796Y-74760809D01*
X170183225Y-74847790D01*
X170337539Y-74901787D01*
X170337542Y-74901787D01*
X170337544Y-74901788D01*
X170499996Y-74920092D01*
X170500000Y-74920092D01*
X170500004Y-74920092D01*
X170662455Y-74901788D01*
X170662456Y-74901787D01*
X170662461Y-74901787D01*
X170816775Y-74847790D01*
X170910155Y-74789114D01*
X170977392Y-74770114D01*
X171042100Y-74789114D01*
X171044796Y-74790808D01*
X171183225Y-74877789D01*
X171337539Y-74931786D01*
X171337542Y-74931786D01*
X171337544Y-74931787D01*
X171499996Y-74950091D01*
X171500000Y-74950091D01*
X171500004Y-74950091D01*
X171662455Y-74931787D01*
X171662456Y-74931786D01*
X171662461Y-74931786D01*
X171816775Y-74877789D01*
X171955204Y-74790808D01*
X172070808Y-74675204D01*
X172157789Y-74536775D01*
X172211786Y-74382461D01*
X172220800Y-74302462D01*
X172230091Y-74220003D01*
X172230091Y-74219996D01*
X172211787Y-74057544D01*
X172211786Y-74057542D01*
X172211786Y-74057539D01*
X172157789Y-73903225D01*
X172070808Y-73764796D01*
X171955204Y-73649192D01*
X171816774Y-73562210D01*
X171662455Y-73508212D01*
X171500004Y-73489909D01*
X171499996Y-73489909D01*
X171337544Y-73508212D01*
X171183224Y-73562210D01*
X171089843Y-73620886D01*
X171022606Y-73639886D01*
X170957899Y-73620886D01*
X170816774Y-73532211D01*
X170662455Y-73478213D01*
X170500004Y-73459910D01*
X170499996Y-73459910D01*
X170337544Y-73478213D01*
X170183225Y-73532211D01*
X170044795Y-73619193D01*
X169929190Y-73734798D01*
X169845568Y-73867882D01*
X169793234Y-73914172D01*
X169724180Y-73924820D01*
X169660332Y-73896445D01*
X169635582Y-73867881D01*
X169570812Y-73764801D01*
X169570807Y-73764795D01*
X169455204Y-73649192D01*
X169316774Y-73562210D01*
X169162455Y-73508212D01*
X169000004Y-73489909D01*
X168999996Y-73489909D01*
X168837544Y-73508212D01*
X168683224Y-73562210D01*
X168589843Y-73620886D01*
X168522606Y-73639886D01*
X168457899Y-73620886D01*
X168316774Y-73532211D01*
X168162455Y-73478213D01*
X168000004Y-73459910D01*
X167999996Y-73459910D01*
X167837544Y-73478213D01*
X167683225Y-73532211D01*
X167544795Y-73619193D01*
X167429190Y-73734798D01*
X167345568Y-73867882D01*
X167293234Y-73914172D01*
X167224180Y-73924820D01*
X167160332Y-73896445D01*
X167135582Y-73867881D01*
X167070812Y-73764801D01*
X167070807Y-73764795D01*
X166955204Y-73649192D01*
X166816774Y-73562210D01*
X166662455Y-73508212D01*
X166500004Y-73489909D01*
X166499996Y-73489909D01*
X166337544Y-73508212D01*
X166183224Y-73562210D01*
X166089843Y-73620886D01*
X166022606Y-73639886D01*
X165957899Y-73620886D01*
X165816774Y-73532211D01*
X165662455Y-73478213D01*
X165500004Y-73459910D01*
X165499996Y-73459910D01*
X165337544Y-73478213D01*
X165183225Y-73532211D01*
X165044795Y-73619193D01*
X164929192Y-73734796D01*
X164929190Y-73734799D01*
X164848709Y-73862882D01*
X164796374Y-73909173D01*
X164727321Y-73919820D01*
X164663472Y-73891445D01*
X164638723Y-73862882D01*
X164570808Y-73754796D01*
X164455204Y-73639192D01*
X164381641Y-73592969D01*
X164316774Y-73552210D01*
X164162455Y-73498212D01*
X164000004Y-73479909D01*
X163999996Y-73479909D01*
X163837544Y-73498212D01*
X163683222Y-73552211D01*
X163581884Y-73615886D01*
X163514648Y-73634886D01*
X163449941Y-73615886D01*
X163316774Y-73532211D01*
X163162455Y-73478213D01*
X163000004Y-73459910D01*
X162999996Y-73459910D01*
X162837544Y-73478213D01*
X162683225Y-73532211D01*
X162544795Y-73619193D01*
X162429190Y-73734798D01*
X162345568Y-73867882D01*
X162293234Y-73914172D01*
X162224180Y-73924820D01*
X162160332Y-73896445D01*
X162135582Y-73867881D01*
X162070812Y-73764801D01*
X162070807Y-73764795D01*
X161955204Y-73649192D01*
X161816774Y-73562210D01*
X161662455Y-73508212D01*
X161500004Y-73489909D01*
X161499996Y-73489909D01*
X161337544Y-73508212D01*
X161183224Y-73562210D01*
X161089843Y-73620886D01*
X161022606Y-73639886D01*
X160957899Y-73620886D01*
X160816774Y-73532211D01*
X160662455Y-73478213D01*
X160500004Y-73459910D01*
X160499996Y-73459910D01*
X160337544Y-73478213D01*
X160183225Y-73532211D01*
X160044795Y-73619193D01*
X159929190Y-73734798D01*
X159845568Y-73867882D01*
X159793234Y-73914172D01*
X159724180Y-73924820D01*
X159660332Y-73896445D01*
X159635582Y-73867881D01*
X159570812Y-73764801D01*
X159570807Y-73764795D01*
X159455204Y-73649192D01*
X159316774Y-73562210D01*
X159162455Y-73508212D01*
X159000004Y-73489909D01*
X158999996Y-73489909D01*
X158837544Y-73508212D01*
X158683224Y-73562210D01*
X158589843Y-73620886D01*
X158522606Y-73639886D01*
X158457899Y-73620886D01*
X158316774Y-73532211D01*
X158162455Y-73478213D01*
X158000004Y-73459910D01*
X157999996Y-73459910D01*
X157837544Y-73478213D01*
X157683225Y-73532211D01*
X157544795Y-73619193D01*
X157429192Y-73734796D01*
X157342210Y-73873226D01*
X157288212Y-74027545D01*
X157269909Y-74189997D01*
X155124458Y-74189997D01*
X155130091Y-74140004D01*
X155130091Y-74139997D01*
X155111787Y-73977545D01*
X155111786Y-73977543D01*
X155111786Y-73977540D01*
X155057789Y-73823226D01*
X154970808Y-73684797D01*
X154855204Y-73569193D01*
X154844091Y-73562210D01*
X154716774Y-73482211D01*
X154562455Y-73428213D01*
X154400004Y-73409910D01*
X154399996Y-73409910D01*
X154237544Y-73428213D01*
X154083225Y-73482211D01*
X153944792Y-73569195D01*
X153939348Y-73573537D01*
X153937439Y-73571143D01*
X153887901Y-73598078D01*
X153818218Y-73592969D01*
X153795788Y-73581859D01*
X153716774Y-73532211D01*
X153562454Y-73478213D01*
X153400003Y-73459910D01*
X153399995Y-73459910D01*
X153237543Y-73478213D01*
X153083224Y-73532211D01*
X152939972Y-73622223D01*
X152872735Y-73641223D01*
X152805900Y-73620855D01*
X152760686Y-73567587D01*
X152750000Y-73517229D01*
X152750000Y-72599996D01*
X174169911Y-72599996D01*
X174169911Y-72600003D01*
X174188214Y-72762455D01*
X174242212Y-72916774D01*
X174242213Y-72916775D01*
X174329194Y-73055204D01*
X174444798Y-73170808D01*
X174583227Y-73257789D01*
X174737541Y-73311786D01*
X174737544Y-73311786D01*
X174737546Y-73311787D01*
X174899998Y-73330091D01*
X174900002Y-73330091D01*
X174900006Y-73330091D01*
X175062457Y-73311787D01*
X175062458Y-73311786D01*
X175062463Y-73311786D01*
X175216777Y-73257789D01*
X175355206Y-73170808D01*
X175470810Y-73055204D01*
X175557791Y-72916775D01*
X175611788Y-72762461D01*
X175630093Y-72600000D01*
X175611788Y-72437539D01*
X175557791Y-72283225D01*
X175470810Y-72144796D01*
X175355206Y-72029192D01*
X175216776Y-71942210D01*
X175062457Y-71888212D01*
X174900006Y-71869909D01*
X174899998Y-71869909D01*
X174737546Y-71888212D01*
X174583227Y-71942210D01*
X174444797Y-72029192D01*
X174329194Y-72144795D01*
X174242212Y-72283225D01*
X174188214Y-72437544D01*
X174169911Y-72599996D01*
X152750000Y-72599996D01*
X152750000Y-70324000D01*
X152769685Y-70256961D01*
X152822489Y-70211206D01*
X152874000Y-70200000D01*
X179948638Y-70200000D01*
X180015677Y-70219685D01*
G37*
%TD.AperFunction*%
%TD*%
M02*
