%TF.GenerationSoftware,KiCad,Pcbnew,8.0.7*%
%TF.CreationDate,2025-03-31T22:55:58-04:00*%
%TF.ProjectId,power,706f7765-722e-46b6-9963-61645f706362,1.1*%
%TF.SameCoordinates,Original*%
%TF.FileFunction,Copper,L5,Inr*%
%TF.FilePolarity,Positive*%
%FSLAX46Y46*%
G04 Gerber Fmt 4.6, Leading zero omitted, Abs format (unit mm)*
G04 Created by KiCad (PCBNEW 8.0.7) date 2025-03-31 22:55:58*
%MOMM*%
%LPD*%
G01*
G04 APERTURE LIST*
G04 Aperture macros list*
%AMRoundRect*
0 Rectangle with rounded corners*
0 $1 Rounding radius*
0 $2 $3 $4 $5 $6 $7 $8 $9 X,Y pos of 4 corners*
0 Add a 4 corners polygon primitive as box body*
4,1,4,$2,$3,$4,$5,$6,$7,$8,$9,$2,$3,0*
0 Add four circle primitives for the rounded corners*
1,1,$1+$1,$2,$3*
1,1,$1+$1,$4,$5*
1,1,$1+$1,$6,$7*
1,1,$1+$1,$8,$9*
0 Add four rect primitives between the rounded corners*
20,1,$1+$1,$2,$3,$4,$5,0*
20,1,$1+$1,$4,$5,$6,$7,0*
20,1,$1+$1,$6,$7,$8,$9,0*
20,1,$1+$1,$8,$9,$2,$3,0*%
G04 Aperture macros list end*
%TA.AperFunction,ComponentPad*%
%ADD10C,3.200000*%
%TD*%
%TA.AperFunction,ComponentPad*%
%ADD11C,3.600000*%
%TD*%
%TA.AperFunction,ComponentPad*%
%ADD12RoundRect,0.250000X0.600000X0.725000X-0.600000X0.725000X-0.600000X-0.725000X0.600000X-0.725000X0*%
%TD*%
%TA.AperFunction,ComponentPad*%
%ADD13O,1.700000X1.950000*%
%TD*%
%TA.AperFunction,ComponentPad*%
%ADD14C,1.400000*%
%TD*%
%TA.AperFunction,ComponentPad*%
%ADD15RoundRect,0.770000X0.980000X0.980000X-0.980000X0.980000X-0.980000X-0.980000X0.980000X-0.980000X0*%
%TD*%
%TA.AperFunction,ComponentPad*%
%ADD16C,3.500000*%
%TD*%
%TA.AperFunction,ComponentPad*%
%ADD17R,2.000000X0.900000*%
%TD*%
%TA.AperFunction,ComponentPad*%
%ADD18RoundRect,1.025000X-1.025000X1.025000X-1.025000X-1.025000X1.025000X-1.025000X1.025000X1.025000X0*%
%TD*%
%TA.AperFunction,ComponentPad*%
%ADD19C,4.100000*%
%TD*%
%TA.AperFunction,ViaPad*%
%ADD20C,0.450000*%
%TD*%
%TA.AperFunction,ViaPad*%
%ADD21C,1.000000*%
%TD*%
%TA.AperFunction,ViaPad*%
%ADD22C,2.000000*%
%TD*%
G04 APERTURE END LIST*
D10*
%TO.N,+V_{batt_raw}*%
%TO.C,F6*%
X116200000Y-80265000D03*
X112800000Y-80265000D03*
%TO.N,+V_{batt_fused}*%
X116200000Y-93735000D03*
X112800000Y-93735000D03*
%TD*%
D11*
%TO.N,N/C*%
%TO.C,H3*%
X178000000Y-142000000D03*
%TD*%
%TO.N,N/C*%
%TO.C,H1*%
X96000000Y-78000000D03*
%TD*%
D12*
%TO.N,/input_connectors/BATT_BALANCE.CELL_6*%
%TO.C,J8*%
X170500000Y-79450000D03*
D13*
%TO.N,/input_connectors/BATT_BALANCE.CELL_5*%
X168000000Y-79450000D03*
%TO.N,/input_connectors/BATT_BALANCE.CELL_4*%
X165500000Y-79450000D03*
%TO.N,/input_connectors/BATT_BALANCE.CELL_3*%
X163000000Y-79450000D03*
%TO.N,/input_connectors/BATT_BALANCE.CELL_2*%
X160500000Y-79450000D03*
%TO.N,/input_connectors/BATT_BALANCE.CELL_1*%
X158000000Y-79450000D03*
%TO.N,Net-(J8-Pin_7)*%
X155500000Y-79450000D03*
%TD*%
D14*
%TO.N,*%
%TO.C,J5*%
X125449999Y-130550000D03*
X114449999Y-130550000D03*
D15*
%TO.N,GND*%
X122449999Y-125550000D03*
D16*
%TO.N,+BATT*%
X117449999Y-125550000D03*
%TD*%
D17*
%TO.N,*%
%TO.C,J7*%
X117850000Y-55250000D03*
X117850000Y-68750000D03*
D18*
%TO.N,GND*%
X111850000Y-58400000D03*
D19*
%TO.N,+V_{batt_raw}*%
X111850000Y-65600000D03*
%TD*%
D14*
%TO.N,*%
%TO.C,J3*%
X139950000Y-130550000D03*
X128950000Y-130550000D03*
D15*
%TO.N,GND*%
X136950000Y-125550000D03*
D16*
%TO.N,+BATT*%
X131950000Y-125550000D03*
%TD*%
D11*
%TO.N,N/C*%
%TO.C,H4*%
X178000000Y-78000000D03*
%TD*%
%TO.N,N/C*%
%TO.C,H2*%
X96000000Y-142000000D03*
%TD*%
D20*
%TO.N,/mcu/RX*%
X172300000Y-91650000D03*
%TO.N,/mcu/TX*%
X172500000Y-90200000D03*
%TO.N,/mcu/RX*%
X177140001Y-87600000D03*
%TO.N,/mcu/TX*%
X177140001Y-84600000D03*
%TO.N,Net-(J6-Pin_1)*%
X174209999Y-84600000D03*
%TO.N,Net-(J6-Pin_2)*%
X174209999Y-87600000D03*
%TO.N,Net-(J6-Pin_3)*%
X174209999Y-86600000D03*
%TO.N,Net-(J6-Pin_4)*%
X174209999Y-85600000D03*
%TO.N,+3.3V_LOCAL*%
X178159999Y-84000000D03*
X178159999Y-87600000D03*
%TO.N,GND*%
X170040001Y-86600000D03*
X171500000Y-139350000D03*
%TO.N,~{PB}*%
X127800000Y-69650000D03*
X108850000Y-71850000D03*
%TO.N,/mcu/LED_SHUTDOWN_ACK_PWR*%
X149350000Y-89350000D03*
%TO.N,/mcu/LED_RED*%
X149950000Y-90500000D03*
%TO.N,/mcu/LED_GREEN*%
X150800000Y-90500000D03*
%TO.N,/mcu/LED_SHUTDOWN_ACK_PWR*%
X168700000Y-102100000D03*
X173862500Y-101250000D03*
%TO.N,+3.3V_LOCAL*%
X175737500Y-102200000D03*
%TO.N,/mcu/LED_RED*%
X99360624Y-64239376D03*
%TO.N,/mcu/LED_GREEN*%
X100560624Y-65439376D03*
%TO.N,/mcu/LED_SHUTDOWN_ACK_PWR*%
X101810624Y-66689376D03*
%TO.N,~{PB}*%
X101201284Y-79300000D03*
%TO.N,+BATT*%
X103060624Y-67939376D03*
%TO.N,Net-(D5-A)*%
X101430330Y-69569670D03*
%TO.N,Net-(D4-A)*%
X100192893Y-68332233D03*
%TO.N,Net-(D2-A)*%
X98955456Y-67094796D03*
%TO.N,Net-(D3-A)*%
X97718019Y-65857359D03*
%TO.N,+3.3V_LOCAL*%
X174509999Y-89750000D03*
%TO.N,/mcu/PWR_~{KILL}*%
X122300000Y-96500000D03*
%TO.N,/mcu/PWR_BTN_~{INT}*%
X120400000Y-95700000D03*
%TO.N,/mcu/BUZZER*%
X181400000Y-98650000D03*
%TO.N,/mcu/BATT_POST*%
X153450000Y-83150000D03*
%TO.N,/mcu/BATT_PRE*%
X152150000Y-83150000D03*
%TO.N,/mcu/PWR_BTN_~{INT}*%
X172400000Y-89350000D03*
%TO.N,/mcu/PWR_~{KILL}*%
X171750000Y-89850000D03*
%TO.N,GND*%
X167550000Y-90500000D03*
X167550000Y-83300000D03*
%TO.N,/mcu/BATT_POST*%
X153950000Y-94140001D03*
%TO.N,/mcu/BATT_PRE*%
X151450000Y-94140000D03*
%TO.N,+V_{batt_fused}*%
X151450000Y-92140002D03*
%TO.N,+BATT*%
X153950000Y-92204525D03*
%TO.N,GND*%
X150450000Y-95130000D03*
X151450000Y-95159999D03*
X152950000Y-95130000D03*
X153950000Y-95159999D03*
%TO.N,+3.3V_LOCAL*%
X163090001Y-99300000D03*
%TO.N,GND*%
X162700000Y-101857949D03*
X163120000Y-100550000D03*
%TO.N,+5V_LOCAL*%
X153200000Y-88100000D03*
%TO.N,GND*%
X150650000Y-88080000D03*
%TO.N,/mcu/DOTSTAR_SCK*%
X165150000Y-92650000D03*
%TO.N,/mcu/DOTSTAR_MOSI*%
X165150000Y-93450000D03*
%TO.N,/mcu/LOAD_SW_PGOOD*%
X161650000Y-97800000D03*
D21*
%TO.N,GND*%
X94095000Y-119840000D03*
X94095000Y-117760000D03*
X94349999Y-113000000D03*
D20*
%TO.N,+3.3V_LOCAL_ALWAYS_ON*%
X94490001Y-104250000D03*
%TO.N,GND*%
X108400000Y-82800000D03*
%TO.N,/mcu/BATT_PRE*%
X167950000Y-85700000D03*
%TO.N,/mcu/BATT_POST*%
X167450000Y-85000000D03*
%TO.N,/mcu/5v0*%
X165950000Y-85050000D03*
%TO.N,/mcu/3v3*%
X165450000Y-85700000D03*
%TO.N,/mcu/5v0*%
X154400001Y-76150000D03*
%TO.N,/mcu/3v3*%
X151900000Y-76140002D03*
%TO.N,GND*%
X152800000Y-82100000D03*
X154400000Y-74140001D03*
X153399999Y-74190001D03*
X151900000Y-74140001D03*
X150900000Y-74170000D03*
%TO.N,+3.3V*%
X151900000Y-77160000D03*
%TO.N,+5V*%
X154400001Y-77179999D03*
%TO.N,/mcu/BUZZER*%
X175350000Y-136710000D03*
%TO.N,GND*%
X175412500Y-132000000D03*
X174200000Y-135690000D03*
%TO.N,Net-(BZ1-+)*%
X180100000Y-132550000D03*
%TO.N,+3.3V_LOCAL*%
X180100000Y-136350000D03*
D21*
%TO.N,GND*%
X147935000Y-119060000D03*
X147935000Y-121140000D03*
D20*
%TO.N,+V_{batt_fused}*%
X100009999Y-93250001D03*
X100226284Y-80040000D03*
%TO.N,/mcu/NRST*%
X163550000Y-89000000D03*
%TO.N,/mcu/PWR_3v3_EN*%
X163950000Y-96600000D03*
%TO.N,/mcu/PWR_5v0_EN*%
X164450000Y-97250000D03*
%TO.N,/mcu/PWR_12v0_EN*%
X164950000Y-96600000D03*
%TO.N,+3.3V_LOCAL*%
X172450000Y-93250000D03*
%TO.N,GND*%
X166520000Y-93260000D03*
X169060000Y-93260000D03*
%TO.N,/mcu/SWDIO*%
X171600000Y-96900000D03*
%TO.N,/mcu/SWCLK*%
X170330000Y-96900000D03*
%TO.N,GND*%
X174900002Y-72600000D03*
X156100000Y-90300000D03*
X163650000Y-90250000D03*
%TO.N,+3.3V_LOCAL*%
X157050000Y-92625000D03*
X159517500Y-90500000D03*
X159517500Y-92850000D03*
%TO.N,GND*%
X158510589Y-83660589D03*
X157126777Y-84521142D03*
X156773223Y-87278858D03*
X155389411Y-88139411D03*
X155635715Y-96646518D03*
X157403482Y-98414285D03*
X158557500Y-90500000D03*
X158537500Y-91850001D03*
X158557500Y-92850000D03*
%TO.N,/mcu/PWR_3v3_EN*%
X132500000Y-110759999D03*
%TO.N,GND*%
X133750000Y-110759999D03*
%TO.N,/mcu/PWR_5v0_EN*%
X146999999Y-110759999D03*
%TO.N,GND*%
X148250000Y-110759999D03*
%TO.N,+3.3V*%
X105150000Y-137750000D03*
%TO.N,+5V*%
X103150000Y-140749999D03*
X103150000Y-138750000D03*
X103150000Y-141750000D03*
X103150000Y-139750001D03*
X103150000Y-137750000D03*
%TO.N,+3.3V*%
X105150000Y-140749999D03*
X105150000Y-141750000D03*
X105150000Y-138750000D03*
X105150000Y-139750001D03*
%TO.N,+5V*%
X145300000Y-137800000D03*
X145300000Y-140799999D03*
X145300000Y-141800000D03*
X145300000Y-138800000D03*
X145300000Y-139800001D03*
%TO.N,+3.3V*%
X147300000Y-137800000D03*
X147300000Y-139800001D03*
X147300000Y-138800000D03*
X147300000Y-141800000D03*
X147300000Y-140799999D03*
%TO.N,/mcu/PWR_12v0_EN*%
X143590000Y-131050000D03*
%TO.N,GND*%
X149109999Y-129900000D03*
X145990000Y-129900000D03*
%TO.N,+BATT*%
X98700000Y-99800000D03*
%TO.N,GND*%
X96450000Y-82862500D03*
X101476284Y-82030000D03*
X105525000Y-78600000D03*
X104191284Y-79300000D03*
%TO.N,+3.3V*%
X122000000Y-74299999D03*
X123000000Y-74300000D03*
X124000000Y-74300000D03*
X123000000Y-75300000D03*
X124000000Y-75300000D03*
X121999999Y-75300000D03*
%TO.N,+5V*%
X147500000Y-74299999D03*
X148500000Y-74300000D03*
X149500000Y-74300000D03*
X148500000Y-75300000D03*
X149500000Y-75300000D03*
X147499999Y-75300000D03*
D22*
%TO.N,+3.3V*%
X123675000Y-72600000D03*
%TO.N,Net-(C30-Pad2)*%
X126650000Y-72600000D03*
%TO.N,+5V*%
X147787500Y-72600000D03*
%TO.N,Net-(C29-Pad2)*%
X144812500Y-72600000D03*
D20*
%TO.N,GND*%
X132150000Y-75500000D03*
X139350000Y-75500000D03*
D22*
%TO.N,Net-(C22-Pad1)*%
X170537500Y-136100000D03*
%TO.N,+12V*%
X167562500Y-136100000D03*
D20*
%TO.N,/mcu/LOAD_SW_PGOOD*%
X95510000Y-104250000D03*
%TO.N,GND*%
X171400000Y-101249999D03*
X96657359Y-66918019D03*
X97894796Y-68155456D03*
X99132233Y-69392893D03*
X100369670Y-70630330D03*
X179000000Y-114475001D03*
%TO.N,+5V_LOCAL*%
X174400000Y-111400000D03*
%TO.N,+3.3V_LOCAL_ALWAYS_ON*%
X176700000Y-111400000D03*
%TO.N,GND*%
X175750000Y-88325000D03*
X175750000Y-94250000D03*
%TO.N,Net-(J6-Pin_4)*%
X170250000Y-139350000D03*
%TO.N,Net-(J6-Pin_3)*%
X169000000Y-139350000D03*
%TO.N,Net-(J6-Pin_2)*%
X167750000Y-139350000D03*
%TO.N,Net-(J6-Pin_1)*%
X166500000Y-139350000D03*
%TO.N,GND*%
X147499999Y-81050000D03*
X146499999Y-80050000D03*
X147499999Y-80050000D03*
X147500000Y-79050000D03*
X146499999Y-81050000D03*
X146499999Y-79050000D03*
X139999999Y-81050000D03*
X138999999Y-80050000D03*
X139999999Y-80050000D03*
X140000000Y-79050000D03*
X138999999Y-81050000D03*
X138999999Y-79050000D03*
X124999999Y-81050000D03*
X123999999Y-80050000D03*
X124999999Y-80050000D03*
X125000000Y-79050000D03*
X123999999Y-81050000D03*
X123999999Y-79050000D03*
X132499999Y-81050000D03*
X131499999Y-80050000D03*
X132499999Y-80050000D03*
X132500000Y-79050000D03*
X131499999Y-81050000D03*
X131499999Y-79050000D03*
X179000000Y-119100001D03*
X178000000Y-120100001D03*
X178000000Y-119100001D03*
X177000000Y-119100000D03*
X179000000Y-120100001D03*
X177000000Y-120100000D03*
X179000000Y-126600001D03*
X178000000Y-127600001D03*
X178000000Y-126600001D03*
X177000000Y-126600000D03*
X179000000Y-127600001D03*
X177000000Y-127600000D03*
X160300000Y-139800000D03*
X159300000Y-140800000D03*
X160300000Y-140800000D03*
X158300000Y-137800000D03*
X159300000Y-138800000D03*
X160300000Y-141800000D03*
X158300000Y-139800001D03*
X160300000Y-138800000D03*
X158300000Y-138800000D03*
X159300000Y-137800000D03*
X158300000Y-141800000D03*
X160300001Y-137800000D03*
X158300000Y-140799999D03*
X159300000Y-141800000D03*
X159300000Y-139800000D03*
X167090001Y-130700000D03*
X151229614Y-126537517D03*
X151235001Y-125535001D03*
X149735000Y-127535001D03*
X150485000Y-127035001D03*
X149735000Y-126535001D03*
X149734999Y-125535001D03*
X151235000Y-127535001D03*
X150485002Y-126035001D03*
X96490000Y-94740000D03*
X96990001Y-93250000D03*
D21*
X105750000Y-88599999D03*
D20*
X94520000Y-102250000D03*
X94490001Y-103250000D03*
X110500000Y-104412499D03*
X113000001Y-104120000D03*
%TO.N,/power_protection/GATE*%
X113500000Y-109750000D03*
D21*
%TO.N,GND*%
X143900002Y-124090000D03*
X143900002Y-126200000D03*
X143900002Y-128289999D03*
D20*
X155500000Y-76190001D03*
X171500000Y-74220000D03*
X170500000Y-74190001D03*
X169000000Y-74220000D03*
X168000000Y-74190001D03*
X166500000Y-74220000D03*
X165500000Y-74190001D03*
X164000000Y-74210000D03*
X163000000Y-74190001D03*
X161500000Y-74220000D03*
X160500000Y-74190001D03*
X159000000Y-74220000D03*
X158000000Y-74190001D03*
X149300000Y-138800000D03*
X108150000Y-141750000D03*
X150300000Y-137800000D03*
X109150000Y-141750000D03*
X140200000Y-109800000D03*
X151300000Y-138800000D03*
X126600000Y-110600000D03*
X149300000Y-139800001D03*
X146500000Y-106000000D03*
X150300000Y-138800000D03*
X138400000Y-109800000D03*
X159055385Y-110597484D03*
X151300000Y-141800000D03*
X97250000Y-95600000D03*
X170550000Y-112050000D03*
X139300000Y-109800000D03*
X126600001Y-111800000D03*
X131500000Y-105250000D03*
X124800000Y-110600000D03*
X139300000Y-110600000D03*
X141100000Y-110600000D03*
X108150000Y-139750001D03*
X149550000Y-110759999D03*
X159050000Y-109600001D03*
X140200000Y-111800000D03*
X131999999Y-106000000D03*
X149300000Y-137800000D03*
X107150000Y-141750000D03*
X126600000Y-109800000D03*
X123900000Y-109800000D03*
X108150000Y-137750000D03*
X154800000Y-104849999D03*
X154540001Y-112100000D03*
X107150000Y-140750000D03*
X130500001Y-105250000D03*
X155800000Y-104850000D03*
X125700000Y-110600000D03*
X155800000Y-105850000D03*
X141100001Y-112700000D03*
X160050000Y-109600000D03*
X132000000Y-104500000D03*
X131002516Y-104505385D03*
X151300000Y-140800000D03*
X172800000Y-112330000D03*
X149000000Y-99259999D03*
X107150000Y-139750000D03*
X165050000Y-112350000D03*
X108150000Y-140749999D03*
X134500000Y-99259999D03*
X140200000Y-110600000D03*
X141100000Y-111800000D03*
X135000000Y-110759999D03*
X108150000Y-138750000D03*
X109150000Y-139750000D03*
X150300000Y-140800000D03*
X151300000Y-139800000D03*
X145502516Y-104505386D03*
X141100000Y-109799999D03*
X144500000Y-104499999D03*
X154570000Y-110850000D03*
X109150000Y-138750000D03*
X109150000Y-137750000D03*
X146000000Y-105250000D03*
X126600001Y-112700000D03*
X144500000Y-106000001D03*
X130000000Y-106000000D03*
X145500000Y-106000000D03*
X168550000Y-112050000D03*
X124800000Y-109800000D03*
X150300000Y-141800000D03*
X149300000Y-140799999D03*
X109150000Y-140750000D03*
X146500000Y-104500000D03*
X145000000Y-105249999D03*
X125700000Y-109800000D03*
X125700000Y-111799999D03*
X149300000Y-141800000D03*
X150300000Y-139800000D03*
X166290000Y-111580000D03*
X160055385Y-110597484D03*
X151300001Y-137800000D03*
X107150000Y-137750000D03*
X164040001Y-113100000D03*
X169550000Y-112050000D03*
X130000000Y-104500000D03*
X107150000Y-138750000D03*
X131000001Y-106000000D03*
X154800000Y-105850000D03*
D22*
%TO.N,+3.3V_LOCAL*%
X178800000Y-104300000D03*
D20*
%TO.N,/power_protection/GATE*%
X99250000Y-102400000D03*
D22*
%TO.N,Net-(C44-Pad1)*%
X168200000Y-104200000D03*
%TO.N,Net-(JP2-B)*%
X178800000Y-107100000D03*
%TO.N,Net-(JP3-A)*%
X171200000Y-104200000D03*
%TD*%
%TA.AperFunction,Conductor*%
%TO.N,GND*%
G36*
X126459082Y-53504943D02*
G01*
X126517266Y-53523866D01*
X126528968Y-53533851D01*
X128470917Y-55470989D01*
X128498762Y-55525471D01*
X128500000Y-55541079D01*
X128500000Y-70000000D01*
X145500000Y-70000000D01*
X179999132Y-70000000D01*
X180000897Y-70000016D01*
X180136676Y-70002437D01*
X180148984Y-70003428D01*
X180418667Y-70042202D01*
X180432457Y-70045201D01*
X180693027Y-70121712D01*
X180706260Y-70126647D01*
X180953286Y-70239460D01*
X180965675Y-70246226D01*
X181069032Y-70312650D01*
X181194132Y-70393047D01*
X181205439Y-70401512D01*
X181410668Y-70579343D01*
X181420656Y-70589331D01*
X181598487Y-70794560D01*
X181606952Y-70805867D01*
X181753771Y-71034320D01*
X181760541Y-71046718D01*
X181873351Y-71293738D01*
X181878287Y-71306972D01*
X181954796Y-71567536D01*
X181957798Y-71581339D01*
X181996570Y-71851007D01*
X181997562Y-71863330D01*
X181999984Y-71999101D01*
X182000000Y-72000867D01*
X182000000Y-98477956D01*
X181981093Y-98536147D01*
X181931593Y-98572111D01*
X181870407Y-98572111D01*
X181820907Y-98536147D01*
X181812791Y-98522902D01*
X181748529Y-98396782D01*
X181748528Y-98396780D01*
X181653220Y-98301472D01*
X181653217Y-98301470D01*
X181533129Y-98240282D01*
X181533127Y-98240281D01*
X181400000Y-98219196D01*
X181266872Y-98240281D01*
X181266870Y-98240282D01*
X181146782Y-98301470D01*
X181051470Y-98396782D01*
X180990282Y-98516870D01*
X180990281Y-98516872D01*
X180969196Y-98649999D01*
X180969196Y-98650000D01*
X180990281Y-98783127D01*
X180990282Y-98783129D01*
X181051470Y-98903217D01*
X181051472Y-98903220D01*
X181146780Y-98998528D01*
X181266874Y-99059719D01*
X181400000Y-99080804D01*
X181533126Y-99059719D01*
X181653220Y-98998528D01*
X181748528Y-98903220D01*
X181809719Y-98783126D01*
X181809719Y-98783124D01*
X181812790Y-98777098D01*
X181856055Y-98733833D01*
X181916487Y-98724262D01*
X181971004Y-98752040D01*
X181998781Y-98806556D01*
X182000000Y-98822043D01*
X182000000Y-143999132D01*
X181999984Y-144000898D01*
X181997562Y-144136669D01*
X181996570Y-144148992D01*
X181957798Y-144418660D01*
X181954796Y-144432463D01*
X181878287Y-144693027D01*
X181873351Y-144706261D01*
X181760541Y-144953281D01*
X181753771Y-144965679D01*
X181606952Y-145194132D01*
X181598487Y-145205439D01*
X181420656Y-145410668D01*
X181410668Y-145420656D01*
X181205439Y-145598487D01*
X181194132Y-145606952D01*
X180965679Y-145753771D01*
X180953281Y-145760541D01*
X180706261Y-145873351D01*
X180693027Y-145878287D01*
X180432463Y-145954796D01*
X180418660Y-145957798D01*
X180148992Y-145996570D01*
X180136669Y-145997562D01*
X180005773Y-145999897D01*
X180000896Y-145999984D01*
X179999132Y-146000000D01*
X94000868Y-146000000D01*
X93999103Y-145999984D01*
X93994027Y-145999893D01*
X93863330Y-145997562D01*
X93851007Y-145996570D01*
X93581339Y-145957798D01*
X93567536Y-145954796D01*
X93306972Y-145878287D01*
X93293738Y-145873351D01*
X93046718Y-145760541D01*
X93034320Y-145753771D01*
X92805867Y-145606952D01*
X92794560Y-145598487D01*
X92589331Y-145420656D01*
X92579343Y-145410668D01*
X92401512Y-145205439D01*
X92393047Y-145194132D01*
X92246228Y-144965679D01*
X92239458Y-144953281D01*
X92126648Y-144706261D01*
X92121712Y-144693027D01*
X92045203Y-144432463D01*
X92042202Y-144418667D01*
X92003428Y-144148984D01*
X92002437Y-144136676D01*
X92000016Y-144000897D01*
X92000000Y-143999132D01*
X92000000Y-142000000D01*
X93994390Y-142000000D01*
X94014803Y-142285422D01*
X94075632Y-142565050D01*
X94175633Y-142833162D01*
X94175634Y-142833164D01*
X94312771Y-143084310D01*
X94312774Y-143084315D01*
X94484261Y-143313395D01*
X94686605Y-143515739D01*
X94915685Y-143687226D01*
X95166839Y-143824367D01*
X95434954Y-143924369D01*
X95714572Y-143985196D01*
X96000000Y-144005610D01*
X96285428Y-143985196D01*
X96565046Y-143924369D01*
X96833161Y-143824367D01*
X97084315Y-143687226D01*
X97313395Y-143515739D01*
X97515739Y-143313395D01*
X97687226Y-143084315D01*
X97824367Y-142833161D01*
X97924369Y-142565046D01*
X97985196Y-142285428D01*
X98005610Y-142000000D01*
X97985196Y-141714572D01*
X97924369Y-141434954D01*
X97824367Y-141166839D01*
X97821609Y-141161789D01*
X97735022Y-141003216D01*
X97687226Y-140915685D01*
X97515739Y-140686605D01*
X97313395Y-140484261D01*
X97084315Y-140312774D01*
X97051664Y-140294945D01*
X96833164Y-140175634D01*
X96833162Y-140175633D01*
X96565050Y-140075632D01*
X96565046Y-140075631D01*
X96285428Y-140014804D01*
X96285425Y-140014803D01*
X96285422Y-140014803D01*
X96000000Y-139994390D01*
X95714577Y-140014803D01*
X95434949Y-140075632D01*
X95166837Y-140175633D01*
X95166835Y-140175634D01*
X94915689Y-140312771D01*
X94686609Y-140484257D01*
X94484257Y-140686609D01*
X94312771Y-140915689D01*
X94175634Y-141166835D01*
X94175633Y-141166837D01*
X94075632Y-141434949D01*
X94075631Y-141434954D01*
X94025181Y-141666872D01*
X94014803Y-141714577D01*
X93994390Y-142000000D01*
X92000000Y-142000000D01*
X92000000Y-137749999D01*
X102719196Y-137749999D01*
X102719196Y-137750000D01*
X102740281Y-137883127D01*
X102740282Y-137883129D01*
X102801470Y-138003217D01*
X102801472Y-138003220D01*
X102896780Y-138098528D01*
X102945940Y-138123576D01*
X103020939Y-138161791D01*
X103064203Y-138205056D01*
X103073774Y-138265488D01*
X103045996Y-138320004D01*
X103020939Y-138338209D01*
X102896781Y-138401471D01*
X102801470Y-138496782D01*
X102740282Y-138616870D01*
X102740281Y-138616872D01*
X102719196Y-138749999D01*
X102719196Y-138750000D01*
X102740281Y-138883127D01*
X102740282Y-138883129D01*
X102769403Y-138940282D01*
X102801472Y-139003220D01*
X102896780Y-139098528D01*
X102896782Y-139098529D01*
X103020939Y-139161791D01*
X103064204Y-139205055D01*
X103073775Y-139265487D01*
X103045997Y-139320004D01*
X103020940Y-139338209D01*
X102896781Y-139401472D01*
X102801470Y-139496783D01*
X102740282Y-139616871D01*
X102740281Y-139616873D01*
X102719196Y-139750000D01*
X102719196Y-139750001D01*
X102740281Y-139883128D01*
X102740282Y-139883130D01*
X102796972Y-139994390D01*
X102801472Y-140003221D01*
X102896780Y-140098529D01*
X102945222Y-140123211D01*
X103020937Y-140161791D01*
X103064201Y-140205056D01*
X103073772Y-140265488D01*
X103045994Y-140320004D01*
X103020937Y-140338209D01*
X102896781Y-140401470D01*
X102801470Y-140496781D01*
X102740282Y-140616869D01*
X102740281Y-140616871D01*
X102719196Y-140749998D01*
X102719196Y-140749999D01*
X102740281Y-140883126D01*
X102740282Y-140883128D01*
X102801470Y-141003216D01*
X102801472Y-141003219D01*
X102896780Y-141098527D01*
X102896782Y-141098528D01*
X103020939Y-141161790D01*
X103064204Y-141205054D01*
X103073775Y-141265486D01*
X103045997Y-141320003D01*
X103020940Y-141338208D01*
X102896781Y-141401471D01*
X102801470Y-141496782D01*
X102740282Y-141616870D01*
X102740281Y-141616872D01*
X102719196Y-141749999D01*
X102719196Y-141750000D01*
X102740281Y-141883127D01*
X102740282Y-141883129D01*
X102799831Y-142000000D01*
X102801472Y-142003220D01*
X102896780Y-142098528D01*
X103016874Y-142159719D01*
X103150000Y-142180804D01*
X103283126Y-142159719D01*
X103403220Y-142098528D01*
X103498528Y-142003220D01*
X103559719Y-141883126D01*
X103580804Y-141750000D01*
X103559719Y-141616874D01*
X103498528Y-141496780D01*
X103403220Y-141401472D01*
X103400174Y-141399920D01*
X103279059Y-141338208D01*
X103235795Y-141294943D01*
X103226224Y-141234511D01*
X103254002Y-141179995D01*
X103279060Y-141161789D01*
X103283123Y-141159718D01*
X103283126Y-141159718D01*
X103403220Y-141098527D01*
X103498528Y-141003219D01*
X103559719Y-140883125D01*
X103580804Y-140749999D01*
X103559719Y-140616873D01*
X103498528Y-140496779D01*
X103403220Y-140401471D01*
X103403217Y-140401469D01*
X103279063Y-140338209D01*
X103235798Y-140294945D01*
X103226227Y-140234513D01*
X103254005Y-140179996D01*
X103279063Y-140161791D01*
X103353687Y-140123767D01*
X103403220Y-140098529D01*
X103498528Y-140003221D01*
X103559719Y-139883127D01*
X103580804Y-139750001D01*
X103559719Y-139616875D01*
X103498528Y-139496781D01*
X103403220Y-139401473D01*
X103400174Y-139399921D01*
X103279059Y-139338209D01*
X103235795Y-139294944D01*
X103226224Y-139234512D01*
X103254002Y-139179996D01*
X103279060Y-139161790D01*
X103283123Y-139159719D01*
X103283126Y-139159719D01*
X103403220Y-139098528D01*
X103498528Y-139003220D01*
X103559719Y-138883126D01*
X103580804Y-138750000D01*
X103559719Y-138616874D01*
X103498528Y-138496780D01*
X103403220Y-138401472D01*
X103403217Y-138401470D01*
X103279061Y-138338209D01*
X103235796Y-138294945D01*
X103226225Y-138234513D01*
X103254003Y-138179996D01*
X103279061Y-138161791D01*
X103352963Y-138124134D01*
X103403220Y-138098528D01*
X103498528Y-138003220D01*
X103559719Y-137883126D01*
X103580804Y-137750000D01*
X103580804Y-137749999D01*
X104719196Y-137749999D01*
X104719196Y-137750000D01*
X104740281Y-137883127D01*
X104740282Y-137883129D01*
X104801470Y-138003217D01*
X104801472Y-138003220D01*
X104896780Y-138098528D01*
X104945940Y-138123576D01*
X105020939Y-138161791D01*
X105064203Y-138205056D01*
X105073774Y-138265488D01*
X105045996Y-138320004D01*
X105020939Y-138338209D01*
X104896781Y-138401471D01*
X104801470Y-138496782D01*
X104740282Y-138616870D01*
X104740281Y-138616872D01*
X104719196Y-138749999D01*
X104719196Y-138750000D01*
X104740281Y-138883127D01*
X104740282Y-138883129D01*
X104769403Y-138940282D01*
X104801472Y-139003220D01*
X104896780Y-139098528D01*
X104896782Y-139098529D01*
X105020939Y-139161791D01*
X105064204Y-139205055D01*
X105073775Y-139265487D01*
X105045997Y-139320004D01*
X105020940Y-139338209D01*
X104896781Y-139401472D01*
X104801470Y-139496783D01*
X104740282Y-139616871D01*
X104740281Y-139616873D01*
X104719196Y-139750000D01*
X104719196Y-139750001D01*
X104740281Y-139883128D01*
X104740282Y-139883130D01*
X104796972Y-139994390D01*
X104801472Y-140003221D01*
X104896780Y-140098529D01*
X104945222Y-140123211D01*
X105020937Y-140161791D01*
X105064201Y-140205056D01*
X105073772Y-140265488D01*
X105045994Y-140320004D01*
X105020937Y-140338209D01*
X104896781Y-140401470D01*
X104801470Y-140496781D01*
X104740282Y-140616869D01*
X104740281Y-140616871D01*
X104719196Y-140749998D01*
X104719196Y-140749999D01*
X104740281Y-140883126D01*
X104740282Y-140883128D01*
X104801470Y-141003216D01*
X104801472Y-141003219D01*
X104896780Y-141098527D01*
X104896782Y-141098528D01*
X105020939Y-141161790D01*
X105064204Y-141205054D01*
X105073775Y-141265486D01*
X105045997Y-141320003D01*
X105020940Y-141338208D01*
X104896781Y-141401471D01*
X104801470Y-141496782D01*
X104740282Y-141616870D01*
X104740281Y-141616872D01*
X104719196Y-141749999D01*
X104719196Y-141750000D01*
X104740281Y-141883127D01*
X104740282Y-141883129D01*
X104799831Y-142000000D01*
X104801472Y-142003220D01*
X104896780Y-142098528D01*
X105016874Y-142159719D01*
X105150000Y-142180804D01*
X105283126Y-142159719D01*
X105403220Y-142098528D01*
X105498528Y-142003220D01*
X105559719Y-141883126D01*
X105580804Y-141750000D01*
X105559719Y-141616874D01*
X105498528Y-141496780D01*
X105403220Y-141401472D01*
X105400174Y-141399920D01*
X105279059Y-141338208D01*
X105235795Y-141294943D01*
X105226224Y-141234511D01*
X105254002Y-141179995D01*
X105279060Y-141161789D01*
X105283123Y-141159718D01*
X105283126Y-141159718D01*
X105403220Y-141098527D01*
X105498528Y-141003219D01*
X105559719Y-140883125D01*
X105580804Y-140749999D01*
X105559719Y-140616873D01*
X105498528Y-140496779D01*
X105403220Y-140401471D01*
X105403217Y-140401469D01*
X105279063Y-140338209D01*
X105235798Y-140294945D01*
X105226227Y-140234513D01*
X105254005Y-140179996D01*
X105279063Y-140161791D01*
X105353687Y-140123767D01*
X105403220Y-140098529D01*
X105498528Y-140003221D01*
X105559719Y-139883127D01*
X105580804Y-139750001D01*
X105559719Y-139616875D01*
X105498528Y-139496781D01*
X105403220Y-139401473D01*
X105400174Y-139399921D01*
X105279059Y-139338209D01*
X105235795Y-139294944D01*
X105226224Y-139234512D01*
X105254002Y-139179996D01*
X105279060Y-139161790D01*
X105283123Y-139159719D01*
X105283126Y-139159719D01*
X105403220Y-139098528D01*
X105498528Y-139003220D01*
X105559719Y-138883126D01*
X105580804Y-138750000D01*
X105559719Y-138616874D01*
X105498528Y-138496780D01*
X105403220Y-138401472D01*
X105403217Y-138401470D01*
X105279061Y-138338209D01*
X105235796Y-138294945D01*
X105226225Y-138234513D01*
X105254003Y-138179996D01*
X105279061Y-138161791D01*
X105352963Y-138124134D01*
X105403220Y-138098528D01*
X105498528Y-138003220D01*
X105559719Y-137883126D01*
X105572885Y-137799999D01*
X144869196Y-137799999D01*
X144869196Y-137800000D01*
X144890281Y-137933127D01*
X144890282Y-137933129D01*
X144951470Y-138053217D01*
X144951472Y-138053220D01*
X145046780Y-138148528D01*
X145095940Y-138173576D01*
X145170939Y-138211791D01*
X145214203Y-138255056D01*
X145223774Y-138315488D01*
X145195996Y-138370004D01*
X145170939Y-138388209D01*
X145046781Y-138451471D01*
X144951470Y-138546782D01*
X144890282Y-138666870D01*
X144890281Y-138666872D01*
X144869196Y-138799999D01*
X144869196Y-138800000D01*
X144890281Y-138933127D01*
X144890282Y-138933129D01*
X144951470Y-139053217D01*
X144951472Y-139053220D01*
X145046780Y-139148528D01*
X145046782Y-139148529D01*
X145170939Y-139211791D01*
X145214204Y-139255055D01*
X145223775Y-139315487D01*
X145195997Y-139370004D01*
X145170940Y-139388209D01*
X145046781Y-139451472D01*
X144951470Y-139546783D01*
X144890282Y-139666871D01*
X144890281Y-139666873D01*
X144869196Y-139800000D01*
X144869196Y-139800001D01*
X144890281Y-139933128D01*
X144890282Y-139933130D01*
X144951470Y-140053218D01*
X144951472Y-140053221D01*
X145046780Y-140148529D01*
X145095222Y-140173211D01*
X145170937Y-140211791D01*
X145214201Y-140255056D01*
X145223772Y-140315488D01*
X145195994Y-140370004D01*
X145170937Y-140388209D01*
X145046781Y-140451470D01*
X144951470Y-140546781D01*
X144890282Y-140666869D01*
X144890281Y-140666871D01*
X144869196Y-140799998D01*
X144869196Y-140799999D01*
X144890281Y-140933126D01*
X144890282Y-140933128D01*
X144951470Y-141053216D01*
X144951472Y-141053219D01*
X145046780Y-141148527D01*
X145046782Y-141148528D01*
X145170939Y-141211790D01*
X145214204Y-141255054D01*
X145223775Y-141315486D01*
X145195997Y-141370003D01*
X145170940Y-141388208D01*
X145046781Y-141451471D01*
X144951470Y-141546782D01*
X144890282Y-141666870D01*
X144890281Y-141666872D01*
X144869196Y-141799999D01*
X144869196Y-141800000D01*
X144890281Y-141933127D01*
X144890282Y-141933129D01*
X144951470Y-142053217D01*
X144951472Y-142053220D01*
X145046780Y-142148528D01*
X145166874Y-142209719D01*
X145300000Y-142230804D01*
X145433126Y-142209719D01*
X145553220Y-142148528D01*
X145648528Y-142053220D01*
X145709719Y-141933126D01*
X145730804Y-141800000D01*
X145709719Y-141666874D01*
X145648528Y-141546780D01*
X145553220Y-141451472D01*
X145520792Y-141434949D01*
X145429059Y-141388208D01*
X145385795Y-141344943D01*
X145376224Y-141284511D01*
X145404002Y-141229995D01*
X145429060Y-141211789D01*
X145433123Y-141209718D01*
X145433126Y-141209718D01*
X145553220Y-141148527D01*
X145648528Y-141053219D01*
X145709719Y-140933125D01*
X145730804Y-140799999D01*
X145709719Y-140666873D01*
X145648528Y-140546779D01*
X145553220Y-140451471D01*
X145553217Y-140451469D01*
X145429063Y-140388209D01*
X145385798Y-140344945D01*
X145376227Y-140284513D01*
X145404005Y-140229996D01*
X145429063Y-140211791D01*
X145503687Y-140173767D01*
X145553220Y-140148529D01*
X145648528Y-140053221D01*
X145709719Y-139933127D01*
X145730804Y-139800001D01*
X145709719Y-139666875D01*
X145648528Y-139546781D01*
X145553220Y-139451473D01*
X145550174Y-139449921D01*
X145429059Y-139388209D01*
X145385795Y-139344944D01*
X145376224Y-139284512D01*
X145404002Y-139229996D01*
X145429060Y-139211790D01*
X145433123Y-139209719D01*
X145433126Y-139209719D01*
X145553220Y-139148528D01*
X145648528Y-139053220D01*
X145709719Y-138933126D01*
X145730804Y-138800000D01*
X145709719Y-138666874D01*
X145648528Y-138546780D01*
X145553220Y-138451472D01*
X145553217Y-138451470D01*
X145429061Y-138388209D01*
X145385796Y-138344945D01*
X145376225Y-138284513D01*
X145404003Y-138229996D01*
X145429061Y-138211791D01*
X145502963Y-138174134D01*
X145553220Y-138148528D01*
X145648528Y-138053220D01*
X145709719Y-137933126D01*
X145730804Y-137800000D01*
X145730804Y-137799999D01*
X146869196Y-137799999D01*
X146869196Y-137800000D01*
X146890281Y-137933127D01*
X146890282Y-137933129D01*
X146951470Y-138053217D01*
X146951472Y-138053220D01*
X147046780Y-138148528D01*
X147095940Y-138173576D01*
X147170939Y-138211791D01*
X147214203Y-138255056D01*
X147223774Y-138315488D01*
X147195996Y-138370004D01*
X147170939Y-138388209D01*
X147046781Y-138451471D01*
X146951470Y-138546782D01*
X146890282Y-138666870D01*
X146890281Y-138666872D01*
X146869196Y-138799999D01*
X146869196Y-138800000D01*
X146890281Y-138933127D01*
X146890282Y-138933129D01*
X146951470Y-139053217D01*
X146951472Y-139053220D01*
X147046780Y-139148528D01*
X147046782Y-139148529D01*
X147170939Y-139211791D01*
X147214204Y-139255055D01*
X147223775Y-139315487D01*
X147195997Y-139370004D01*
X147170940Y-139388209D01*
X147046781Y-139451472D01*
X146951470Y-139546783D01*
X146890282Y-139666871D01*
X146890281Y-139666873D01*
X146869196Y-139800000D01*
X146869196Y-139800001D01*
X146890281Y-139933128D01*
X146890282Y-139933130D01*
X146951470Y-140053218D01*
X146951472Y-140053221D01*
X147046780Y-140148529D01*
X147095222Y-140173211D01*
X147170937Y-140211791D01*
X147214201Y-140255056D01*
X147223772Y-140315488D01*
X147195994Y-140370004D01*
X147170937Y-140388209D01*
X147046781Y-140451470D01*
X146951470Y-140546781D01*
X146890282Y-140666869D01*
X146890281Y-140666871D01*
X146869196Y-140799998D01*
X146869196Y-140799999D01*
X146890281Y-140933126D01*
X146890282Y-140933128D01*
X146951470Y-141053216D01*
X146951472Y-141053219D01*
X147046780Y-141148527D01*
X147046782Y-141148528D01*
X147170939Y-141211790D01*
X147214204Y-141255054D01*
X147223775Y-141315486D01*
X147195997Y-141370003D01*
X147170940Y-141388208D01*
X147046781Y-141451471D01*
X146951470Y-141546782D01*
X146890282Y-141666870D01*
X146890281Y-141666872D01*
X146869196Y-141799999D01*
X146869196Y-141800000D01*
X146890281Y-141933127D01*
X146890282Y-141933129D01*
X146951470Y-142053217D01*
X146951472Y-142053220D01*
X147046780Y-142148528D01*
X147166874Y-142209719D01*
X147300000Y-142230804D01*
X147433126Y-142209719D01*
X147553220Y-142148528D01*
X147648528Y-142053220D01*
X147675645Y-142000000D01*
X175994390Y-142000000D01*
X176014803Y-142285422D01*
X176075632Y-142565050D01*
X176175633Y-142833162D01*
X176175634Y-142833164D01*
X176312771Y-143084310D01*
X176312774Y-143084315D01*
X176484261Y-143313395D01*
X176686605Y-143515739D01*
X176915685Y-143687226D01*
X177166839Y-143824367D01*
X177434954Y-143924369D01*
X177714572Y-143985196D01*
X178000000Y-144005610D01*
X178285428Y-143985196D01*
X178565046Y-143924369D01*
X178833161Y-143824367D01*
X179084315Y-143687226D01*
X179313395Y-143515739D01*
X179515739Y-143313395D01*
X179687226Y-143084315D01*
X179824367Y-142833161D01*
X179924369Y-142565046D01*
X179985196Y-142285428D01*
X180005610Y-142000000D01*
X179985196Y-141714572D01*
X179924369Y-141434954D01*
X179824367Y-141166839D01*
X179821609Y-141161789D01*
X179735022Y-141003216D01*
X179687226Y-140915685D01*
X179515739Y-140686605D01*
X179313395Y-140484261D01*
X179084315Y-140312774D01*
X179051664Y-140294945D01*
X178833164Y-140175634D01*
X178833162Y-140175633D01*
X178565050Y-140075632D01*
X178565046Y-140075631D01*
X178285428Y-140014804D01*
X178285425Y-140014803D01*
X178285422Y-140014803D01*
X178000000Y-139994390D01*
X177714577Y-140014803D01*
X177434949Y-140075632D01*
X177166837Y-140175633D01*
X177166835Y-140175634D01*
X176915689Y-140312771D01*
X176686609Y-140484257D01*
X176484257Y-140686609D01*
X176312771Y-140915689D01*
X176175634Y-141166835D01*
X176175633Y-141166837D01*
X176075632Y-141434949D01*
X176075631Y-141434954D01*
X176025181Y-141666872D01*
X176014803Y-141714577D01*
X175994390Y-142000000D01*
X147675645Y-142000000D01*
X147709719Y-141933126D01*
X147730804Y-141800000D01*
X147709719Y-141666874D01*
X147648528Y-141546780D01*
X147553220Y-141451472D01*
X147520792Y-141434949D01*
X147429059Y-141388208D01*
X147385795Y-141344943D01*
X147376224Y-141284511D01*
X147404002Y-141229995D01*
X147429060Y-141211789D01*
X147433123Y-141209718D01*
X147433126Y-141209718D01*
X147553220Y-141148527D01*
X147648528Y-141053219D01*
X147709719Y-140933125D01*
X147730804Y-140799999D01*
X147709719Y-140666873D01*
X147648528Y-140546779D01*
X147553220Y-140451471D01*
X147553217Y-140451469D01*
X147429063Y-140388209D01*
X147385798Y-140344945D01*
X147376227Y-140284513D01*
X147404005Y-140229996D01*
X147429063Y-140211791D01*
X147503687Y-140173767D01*
X147553220Y-140148529D01*
X147648528Y-140053221D01*
X147709719Y-139933127D01*
X147730804Y-139800001D01*
X147709719Y-139666875D01*
X147648528Y-139546781D01*
X147553220Y-139451473D01*
X147550174Y-139449921D01*
X147429059Y-139388209D01*
X147390850Y-139349999D01*
X166069196Y-139349999D01*
X166069196Y-139350000D01*
X166090281Y-139483127D01*
X166090282Y-139483129D01*
X166151470Y-139603217D01*
X166151472Y-139603220D01*
X166246780Y-139698528D01*
X166366874Y-139759719D01*
X166500000Y-139780804D01*
X166633126Y-139759719D01*
X166753220Y-139698528D01*
X166848528Y-139603220D01*
X166909719Y-139483126D01*
X166930804Y-139350000D01*
X166930804Y-139349999D01*
X167319196Y-139349999D01*
X167319196Y-139350000D01*
X167340281Y-139483127D01*
X167340282Y-139483129D01*
X167401470Y-139603217D01*
X167401472Y-139603220D01*
X167496780Y-139698528D01*
X167616874Y-139759719D01*
X167750000Y-139780804D01*
X167883126Y-139759719D01*
X168003220Y-139698528D01*
X168098528Y-139603220D01*
X168159719Y-139483126D01*
X168180804Y-139350000D01*
X168180804Y-139349999D01*
X168569196Y-139349999D01*
X168569196Y-139350000D01*
X168590281Y-139483127D01*
X168590282Y-139483129D01*
X168651470Y-139603217D01*
X168651472Y-139603220D01*
X168746780Y-139698528D01*
X168866874Y-139759719D01*
X169000000Y-139780804D01*
X169133126Y-139759719D01*
X169253220Y-139698528D01*
X169348528Y-139603220D01*
X169409719Y-139483126D01*
X169430804Y-139350000D01*
X169430804Y-139349999D01*
X169819196Y-139349999D01*
X169819196Y-139350000D01*
X169840281Y-139483127D01*
X169840282Y-139483129D01*
X169901470Y-139603217D01*
X169901472Y-139603220D01*
X169996780Y-139698528D01*
X170116874Y-139759719D01*
X170250000Y-139780804D01*
X170383126Y-139759719D01*
X170503220Y-139698528D01*
X170598528Y-139603220D01*
X170659719Y-139483126D01*
X170680804Y-139350000D01*
X170678936Y-139338209D01*
X170670432Y-139284512D01*
X170659719Y-139216874D01*
X170598528Y-139096780D01*
X170503220Y-139001472D01*
X170503217Y-139001470D01*
X170383129Y-138940282D01*
X170383127Y-138940281D01*
X170250000Y-138919196D01*
X170116872Y-138940281D01*
X170116870Y-138940282D01*
X169996782Y-139001470D01*
X169901470Y-139096782D01*
X169840282Y-139216870D01*
X169840281Y-139216872D01*
X169819196Y-139349999D01*
X169430804Y-139349999D01*
X169428936Y-139338209D01*
X169420432Y-139284512D01*
X169409719Y-139216874D01*
X169348528Y-139096780D01*
X169253220Y-139001472D01*
X169253217Y-139001470D01*
X169133129Y-138940282D01*
X169133127Y-138940281D01*
X169000000Y-138919196D01*
X168866872Y-138940281D01*
X168866870Y-138940282D01*
X168746782Y-139001470D01*
X168651470Y-139096782D01*
X168590282Y-139216870D01*
X168590281Y-139216872D01*
X168569196Y-139349999D01*
X168180804Y-139349999D01*
X168178936Y-139338209D01*
X168170432Y-139284512D01*
X168159719Y-139216874D01*
X168098528Y-139096780D01*
X168003220Y-139001472D01*
X168003217Y-139001470D01*
X167883129Y-138940282D01*
X167883127Y-138940281D01*
X167750000Y-138919196D01*
X167616872Y-138940281D01*
X167616870Y-138940282D01*
X167496782Y-139001470D01*
X167401470Y-139096782D01*
X167340282Y-139216870D01*
X167340281Y-139216872D01*
X167319196Y-139349999D01*
X166930804Y-139349999D01*
X166928936Y-139338209D01*
X166920432Y-139284512D01*
X166909719Y-139216874D01*
X166848528Y-139096780D01*
X166753220Y-139001472D01*
X166753217Y-139001470D01*
X166633129Y-138940282D01*
X166633127Y-138940281D01*
X166500000Y-138919196D01*
X166366872Y-138940281D01*
X166366870Y-138940282D01*
X166246782Y-139001470D01*
X166151470Y-139096782D01*
X166090282Y-139216870D01*
X166090281Y-139216872D01*
X166069196Y-139349999D01*
X147390850Y-139349999D01*
X147385795Y-139344944D01*
X147376224Y-139284512D01*
X147404002Y-139229996D01*
X147429060Y-139211790D01*
X147433123Y-139209719D01*
X147433126Y-139209719D01*
X147553220Y-139148528D01*
X147648528Y-139053220D01*
X147709719Y-138933126D01*
X147730804Y-138800000D01*
X147709719Y-138666874D01*
X147648528Y-138546780D01*
X147553220Y-138451472D01*
X147553217Y-138451470D01*
X147429061Y-138388209D01*
X147385796Y-138344945D01*
X147376225Y-138284513D01*
X147404003Y-138229996D01*
X147429061Y-138211791D01*
X147502963Y-138174134D01*
X147553220Y-138148528D01*
X147648528Y-138053220D01*
X147709719Y-137933126D01*
X147730804Y-137800000D01*
X147709719Y-137666874D01*
X147648528Y-137546780D01*
X147553220Y-137451472D01*
X147553217Y-137451470D01*
X147433129Y-137390282D01*
X147433127Y-137390281D01*
X147300000Y-137369196D01*
X147166872Y-137390281D01*
X147166870Y-137390282D01*
X147046782Y-137451470D01*
X146951470Y-137546782D01*
X146890282Y-137666870D01*
X146890281Y-137666872D01*
X146869196Y-137799999D01*
X145730804Y-137799999D01*
X145709719Y-137666874D01*
X145648528Y-137546780D01*
X145553220Y-137451472D01*
X145553217Y-137451470D01*
X145433129Y-137390282D01*
X145433127Y-137390281D01*
X145300000Y-137369196D01*
X145166872Y-137390281D01*
X145166870Y-137390282D01*
X145046782Y-137451470D01*
X144951470Y-137546782D01*
X144890282Y-137666870D01*
X144890281Y-137666872D01*
X144869196Y-137799999D01*
X105572885Y-137799999D01*
X105580804Y-137750000D01*
X105559719Y-137616874D01*
X105498528Y-137496780D01*
X105403220Y-137401472D01*
X105403217Y-137401470D01*
X105283129Y-137340282D01*
X105283127Y-137340281D01*
X105150000Y-137319196D01*
X105016872Y-137340281D01*
X105016870Y-137340282D01*
X104896782Y-137401470D01*
X104801470Y-137496782D01*
X104740282Y-137616870D01*
X104740281Y-137616872D01*
X104719196Y-137749999D01*
X103580804Y-137749999D01*
X103559719Y-137616874D01*
X103498528Y-137496780D01*
X103403220Y-137401472D01*
X103403217Y-137401470D01*
X103283129Y-137340282D01*
X103283127Y-137340281D01*
X103150000Y-137319196D01*
X103016872Y-137340281D01*
X103016870Y-137340282D01*
X102896782Y-137401470D01*
X102801470Y-137496782D01*
X102740282Y-137616870D01*
X102740281Y-137616872D01*
X102719196Y-137749999D01*
X92000000Y-137749999D01*
X92000000Y-135830610D01*
X155295500Y-135830610D01*
X155295500Y-135969389D01*
X155322572Y-136105493D01*
X155375679Y-136233704D01*
X155375683Y-136233713D01*
X155430815Y-136316222D01*
X155452779Y-136349093D01*
X155550907Y-136447221D01*
X155600100Y-136480090D01*
X155666286Y-136524316D01*
X155666292Y-136524318D01*
X155666294Y-136524320D01*
X155794505Y-136577427D01*
X155930613Y-136604500D01*
X155930614Y-136604500D01*
X156069386Y-136604500D01*
X156069387Y-136604500D01*
X156205495Y-136577427D01*
X156333706Y-136524320D01*
X156333709Y-136524317D01*
X156333713Y-136524316D01*
X156367028Y-136502054D01*
X156449093Y-136447221D01*
X156547221Y-136349093D01*
X156602054Y-136267028D01*
X156624316Y-136233713D01*
X156624317Y-136233709D01*
X156624320Y-136233706D01*
X156677427Y-136105495D01*
X156704500Y-135969387D01*
X156704500Y-135830613D01*
X156704499Y-135830610D01*
X161195500Y-135830610D01*
X161195500Y-135969389D01*
X161222572Y-136105493D01*
X161275679Y-136233704D01*
X161275683Y-136233713D01*
X161330815Y-136316222D01*
X161352779Y-136349093D01*
X161450907Y-136447221D01*
X161500100Y-136480090D01*
X161566286Y-136524316D01*
X161566292Y-136524318D01*
X161566294Y-136524320D01*
X161694505Y-136577427D01*
X161830613Y-136604500D01*
X161830614Y-136604500D01*
X162969386Y-136604500D01*
X162969387Y-136604500D01*
X163105495Y-136577427D01*
X163233706Y-136524320D01*
X163233709Y-136524317D01*
X163233713Y-136524316D01*
X163267028Y-136502054D01*
X163349093Y-136447221D01*
X163447221Y-136349093D01*
X163502054Y-136267028D01*
X163524316Y-136233713D01*
X163524317Y-136233709D01*
X163524320Y-136233706D01*
X163577427Y-136105495D01*
X163578520Y-136100000D01*
X166356857Y-136100000D01*
X166377385Y-136321536D01*
X166438271Y-136535528D01*
X166537442Y-136734689D01*
X166671519Y-136912236D01*
X166835938Y-137062124D01*
X167025099Y-137179247D01*
X167232560Y-137259618D01*
X167451257Y-137300500D01*
X167673743Y-137300500D01*
X167892440Y-137259618D01*
X168099901Y-137179247D01*
X168289062Y-137062124D01*
X168453481Y-136912236D01*
X168587558Y-136734689D01*
X168686729Y-136535528D01*
X168747615Y-136321536D01*
X168768143Y-136100000D01*
X169331857Y-136100000D01*
X169352385Y-136321536D01*
X169413271Y-136535528D01*
X169512442Y-136734689D01*
X169646519Y-136912236D01*
X169810938Y-137062124D01*
X170000099Y-137179247D01*
X170207560Y-137259618D01*
X170426257Y-137300500D01*
X170648743Y-137300500D01*
X170867440Y-137259618D01*
X171074901Y-137179247D01*
X171264062Y-137062124D01*
X171428481Y-136912236D01*
X171562558Y-136734689D01*
X171574852Y-136709999D01*
X174919196Y-136709999D01*
X174919196Y-136710000D01*
X174940281Y-136843127D01*
X174940282Y-136843129D01*
X174975494Y-136912236D01*
X175001472Y-136963220D01*
X175096780Y-137058528D01*
X175216874Y-137119719D01*
X175350000Y-137140804D01*
X175483126Y-137119719D01*
X175603220Y-137058528D01*
X175698528Y-136963220D01*
X175759719Y-136843126D01*
X175780804Y-136710000D01*
X175759719Y-136576874D01*
X175698528Y-136456780D01*
X175603220Y-136361472D01*
X175603217Y-136361470D01*
X175580704Y-136349999D01*
X179669196Y-136349999D01*
X179669196Y-136350000D01*
X179690281Y-136483127D01*
X179690282Y-136483129D01*
X179751470Y-136603217D01*
X179751472Y-136603220D01*
X179846780Y-136698528D01*
X179966874Y-136759719D01*
X180100000Y-136780804D01*
X180233126Y-136759719D01*
X180353220Y-136698528D01*
X180448528Y-136603220D01*
X180509719Y-136483126D01*
X180530804Y-136350000D01*
X180509719Y-136216874D01*
X180448528Y-136096780D01*
X180353220Y-136001472D01*
X180353217Y-136001470D01*
X180233129Y-135940282D01*
X180233127Y-135940281D01*
X180100000Y-135919196D01*
X179966872Y-135940281D01*
X179966870Y-135940282D01*
X179846782Y-136001470D01*
X179751470Y-136096782D01*
X179690282Y-136216870D01*
X179690281Y-136216872D01*
X179669196Y-136349999D01*
X175580704Y-136349999D01*
X175483129Y-136300282D01*
X175483127Y-136300281D01*
X175350000Y-136279196D01*
X175216872Y-136300281D01*
X175216870Y-136300282D01*
X175096782Y-136361470D01*
X175001470Y-136456782D01*
X174940282Y-136576870D01*
X174940281Y-136576872D01*
X174919196Y-136709999D01*
X171574852Y-136709999D01*
X171661729Y-136535528D01*
X171722615Y-136321536D01*
X171743143Y-136100000D01*
X171722615Y-135878464D01*
X171661729Y-135664472D01*
X171562558Y-135465311D01*
X171428481Y-135287764D01*
X171264062Y-135137876D01*
X171074901Y-135020753D01*
X170867440Y-134940382D01*
X170867439Y-134940381D01*
X170867437Y-134940381D01*
X170648743Y-134899500D01*
X170426257Y-134899500D01*
X170207562Y-134940381D01*
X170131297Y-134969926D01*
X170000099Y-135020753D01*
X169810938Y-135137876D01*
X169646520Y-135287763D01*
X169512443Y-135465309D01*
X169512438Y-135465318D01*
X169413272Y-135664469D01*
X169413271Y-135664472D01*
X169352385Y-135878464D01*
X169331857Y-136100000D01*
X168768143Y-136100000D01*
X168747615Y-135878464D01*
X168686729Y-135664472D01*
X168587558Y-135465311D01*
X168453481Y-135287764D01*
X168289062Y-135137876D01*
X168099901Y-135020753D01*
X167892440Y-134940382D01*
X167892439Y-134940381D01*
X167892437Y-134940381D01*
X167673743Y-134899500D01*
X167451257Y-134899500D01*
X167232562Y-134940381D01*
X167156297Y-134969926D01*
X167025099Y-135020753D01*
X166835938Y-135137876D01*
X166671520Y-135287763D01*
X166537443Y-135465309D01*
X166537438Y-135465318D01*
X166438272Y-135664469D01*
X166438271Y-135664472D01*
X166377385Y-135878464D01*
X166356857Y-136100000D01*
X163578520Y-136100000D01*
X163604500Y-135969387D01*
X163604500Y-135830613D01*
X163577427Y-135694505D01*
X163524320Y-135566294D01*
X163524318Y-135566292D01*
X163524316Y-135566286D01*
X163480090Y-135500100D01*
X163447221Y-135450907D01*
X163349093Y-135352779D01*
X163316222Y-135330815D01*
X163233713Y-135275683D01*
X163233704Y-135275679D01*
X163105493Y-135222572D01*
X162969389Y-135195500D01*
X162969387Y-135195500D01*
X161830613Y-135195500D01*
X161830610Y-135195500D01*
X161694506Y-135222572D01*
X161566295Y-135275679D01*
X161566286Y-135275683D01*
X161450907Y-135352779D01*
X161450903Y-135352782D01*
X161352782Y-135450903D01*
X161352779Y-135450907D01*
X161275683Y-135566286D01*
X161275679Y-135566295D01*
X161222572Y-135694506D01*
X161195500Y-135830610D01*
X156704499Y-135830610D01*
X156677427Y-135694505D01*
X156624320Y-135566294D01*
X156624318Y-135566292D01*
X156624316Y-135566286D01*
X156580090Y-135500100D01*
X156547221Y-135450907D01*
X156449093Y-135352779D01*
X156416222Y-135330815D01*
X156333713Y-135275683D01*
X156333704Y-135275679D01*
X156205493Y-135222572D01*
X156069389Y-135195500D01*
X156069387Y-135195500D01*
X155930613Y-135195500D01*
X155930610Y-135195500D01*
X155794506Y-135222572D01*
X155666295Y-135275679D01*
X155666286Y-135275683D01*
X155550907Y-135352779D01*
X155550903Y-135352782D01*
X155452782Y-135450903D01*
X155452779Y-135450907D01*
X155375683Y-135566286D01*
X155375679Y-135566295D01*
X155322572Y-135694506D01*
X155295500Y-135830610D01*
X92000000Y-135830610D01*
X92000000Y-132549999D01*
X179669196Y-132549999D01*
X179669196Y-132550000D01*
X179690281Y-132683127D01*
X179690282Y-132683129D01*
X179751470Y-132803217D01*
X179751472Y-132803220D01*
X179846780Y-132898528D01*
X179966874Y-132959719D01*
X180100000Y-132980804D01*
X180233126Y-132959719D01*
X180353220Y-132898528D01*
X180448528Y-132803220D01*
X180509719Y-132683126D01*
X180530804Y-132550000D01*
X180509719Y-132416874D01*
X180448528Y-132296780D01*
X180353220Y-132201472D01*
X180353217Y-132201470D01*
X180233129Y-132140282D01*
X180233127Y-132140281D01*
X180100000Y-132119196D01*
X179966872Y-132140281D01*
X179966870Y-132140282D01*
X179846782Y-132201470D01*
X179751470Y-132296782D01*
X179690282Y-132416870D01*
X179690281Y-132416872D01*
X179669196Y-132549999D01*
X92000000Y-132549999D01*
X92000000Y-130550000D01*
X113544539Y-130550000D01*
X113564326Y-130738261D01*
X113622818Y-130918279D01*
X113622824Y-130918293D01*
X113698014Y-131048525D01*
X113717466Y-131082216D01*
X113717468Y-131082218D01*
X113808328Y-131183129D01*
X113844128Y-131222888D01*
X113997269Y-131334151D01*
X114170196Y-131411144D01*
X114355353Y-131450500D01*
X114355356Y-131450500D01*
X114544642Y-131450500D01*
X114544645Y-131450500D01*
X114729802Y-131411144D01*
X114902729Y-131334151D01*
X115055870Y-131222888D01*
X115182532Y-131082216D01*
X115277178Y-130918284D01*
X115335673Y-130738256D01*
X115355459Y-130550000D01*
X124544539Y-130550000D01*
X124564326Y-130738261D01*
X124622818Y-130918279D01*
X124622824Y-130918293D01*
X124698014Y-131048525D01*
X124717466Y-131082216D01*
X124717468Y-131082218D01*
X124808328Y-131183129D01*
X124844128Y-131222888D01*
X124997269Y-131334151D01*
X125170196Y-131411144D01*
X125355353Y-131450500D01*
X125355356Y-131450500D01*
X125544642Y-131450500D01*
X125544645Y-131450500D01*
X125729802Y-131411144D01*
X125902729Y-131334151D01*
X126055870Y-131222888D01*
X126182532Y-131082216D01*
X126277178Y-130918284D01*
X126335673Y-130738256D01*
X126355459Y-130550000D01*
X128044540Y-130550000D01*
X128064327Y-130738261D01*
X128122819Y-130918279D01*
X128122825Y-130918293D01*
X128198015Y-131048525D01*
X128217467Y-131082216D01*
X128217469Y-131082218D01*
X128308329Y-131183129D01*
X128344129Y-131222888D01*
X128497270Y-131334151D01*
X128670197Y-131411144D01*
X128855354Y-131450500D01*
X128855357Y-131450500D01*
X129044643Y-131450500D01*
X129044646Y-131450500D01*
X129229803Y-131411144D01*
X129402730Y-131334151D01*
X129555871Y-131222888D01*
X129682533Y-131082216D01*
X129777179Y-130918284D01*
X129835674Y-130738256D01*
X129855460Y-130550000D01*
X139044540Y-130550000D01*
X139064327Y-130738261D01*
X139122819Y-130918279D01*
X139122825Y-130918293D01*
X139198015Y-131048525D01*
X139217467Y-131082216D01*
X139217469Y-131082218D01*
X139308329Y-131183129D01*
X139344129Y-131222888D01*
X139497270Y-131334151D01*
X139670197Y-131411144D01*
X139855354Y-131450500D01*
X139855357Y-131450500D01*
X140044643Y-131450500D01*
X140044646Y-131450500D01*
X140229803Y-131411144D01*
X140402730Y-131334151D01*
X140555871Y-131222888D01*
X140682533Y-131082216D01*
X140701133Y-131049999D01*
X143159196Y-131049999D01*
X143159196Y-131050000D01*
X143180281Y-131183127D01*
X143180282Y-131183129D01*
X143241470Y-131303217D01*
X143241472Y-131303220D01*
X143336780Y-131398528D01*
X143456874Y-131459719D01*
X143590000Y-131480804D01*
X143723126Y-131459719D01*
X143843220Y-131398528D01*
X143938528Y-131303220D01*
X143999719Y-131183126D01*
X144020804Y-131050000D01*
X143999719Y-130916874D01*
X143938528Y-130796780D01*
X143843220Y-130701472D01*
X143843217Y-130701470D01*
X143723129Y-130640282D01*
X143723127Y-130640281D01*
X143590000Y-130619196D01*
X143456872Y-130640281D01*
X143456870Y-130640282D01*
X143336782Y-130701470D01*
X143241470Y-130796782D01*
X143180282Y-130916870D01*
X143180281Y-130916872D01*
X143159196Y-131049999D01*
X140701133Y-131049999D01*
X140777179Y-130918284D01*
X140835674Y-130738256D01*
X140855460Y-130550000D01*
X140835674Y-130361744D01*
X140777179Y-130181716D01*
X140777176Y-130181711D01*
X140777174Y-130181706D01*
X140728551Y-130097490D01*
X140682533Y-130017784D01*
X140555871Y-129877112D01*
X140402730Y-129765849D01*
X140402725Y-129765847D01*
X140402722Y-129765845D01*
X140229805Y-129688857D01*
X140229803Y-129688856D01*
X140229800Y-129688855D01*
X140229799Y-129688855D01*
X140194580Y-129681369D01*
X140044646Y-129649500D01*
X139855354Y-129649500D01*
X139737289Y-129674595D01*
X139670200Y-129688855D01*
X139670194Y-129688857D01*
X139497277Y-129765845D01*
X139497268Y-129765850D01*
X139344129Y-129877111D01*
X139344124Y-129877116D01*
X139217469Y-130017781D01*
X139217465Y-130017787D01*
X139122825Y-130181706D01*
X139122819Y-130181720D01*
X139064327Y-130361738D01*
X139044540Y-130550000D01*
X129855460Y-130550000D01*
X129835674Y-130361744D01*
X129777179Y-130181716D01*
X129777176Y-130181711D01*
X129777174Y-130181706D01*
X129728551Y-130097490D01*
X129682533Y-130017784D01*
X129555871Y-129877112D01*
X129402730Y-129765849D01*
X129402725Y-129765847D01*
X129402722Y-129765845D01*
X129229805Y-129688857D01*
X129229803Y-129688856D01*
X129229800Y-129688855D01*
X129229799Y-129688855D01*
X129194580Y-129681369D01*
X129044646Y-129649500D01*
X128855354Y-129649500D01*
X128737289Y-129674595D01*
X128670200Y-129688855D01*
X128670194Y-129688857D01*
X128497277Y-129765845D01*
X128497268Y-129765850D01*
X128344129Y-129877111D01*
X128344124Y-129877116D01*
X128217469Y-130017781D01*
X128217465Y-130017787D01*
X128122825Y-130181706D01*
X128122819Y-130181720D01*
X128064327Y-130361738D01*
X128044540Y-130550000D01*
X126355459Y-130550000D01*
X126335673Y-130361744D01*
X126277178Y-130181716D01*
X126277175Y-130181711D01*
X126277173Y-130181706D01*
X126228550Y-130097490D01*
X126182532Y-130017784D01*
X126055870Y-129877112D01*
X125902729Y-129765849D01*
X125902724Y-129765847D01*
X125902721Y-129765845D01*
X125729804Y-129688857D01*
X125729802Y-129688856D01*
X125729799Y-129688855D01*
X125729798Y-129688855D01*
X125694579Y-129681369D01*
X125544645Y-129649500D01*
X125355353Y-129649500D01*
X125237288Y-129674595D01*
X125170199Y-129688855D01*
X125170193Y-129688857D01*
X124997276Y-129765845D01*
X124997267Y-129765850D01*
X124844128Y-129877111D01*
X124844123Y-129877116D01*
X124717468Y-130017781D01*
X124717464Y-130017787D01*
X124622824Y-130181706D01*
X124622818Y-130181720D01*
X124564326Y-130361738D01*
X124544539Y-130550000D01*
X115355459Y-130550000D01*
X115335673Y-130361744D01*
X115277178Y-130181716D01*
X115277175Y-130181711D01*
X115277173Y-130181706D01*
X115228550Y-130097490D01*
X115182532Y-130017784D01*
X115055870Y-129877112D01*
X114902729Y-129765849D01*
X114902724Y-129765847D01*
X114902721Y-129765845D01*
X114729804Y-129688857D01*
X114729802Y-129688856D01*
X114729799Y-129688855D01*
X114729798Y-129688855D01*
X114694579Y-129681369D01*
X114544645Y-129649500D01*
X114355353Y-129649500D01*
X114237288Y-129674595D01*
X114170199Y-129688855D01*
X114170193Y-129688857D01*
X113997276Y-129765845D01*
X113997267Y-129765850D01*
X113844128Y-129877111D01*
X113844123Y-129877116D01*
X113717468Y-130017781D01*
X113717464Y-130017787D01*
X113622824Y-130181706D01*
X113622818Y-130181720D01*
X113564326Y-130361738D01*
X113544539Y-130550000D01*
X92000000Y-130550000D01*
X92000000Y-125550000D01*
X115494517Y-125550000D01*
X115514420Y-125828288D01*
X115573729Y-126100927D01*
X115671230Y-126362338D01*
X115671231Y-126362340D01*
X115804943Y-126607213D01*
X115804942Y-126607213D01*
X115972139Y-126830562D01*
X115972141Y-126830564D01*
X115972144Y-126830568D01*
X116169431Y-127027855D01*
X116169434Y-127027857D01*
X116169436Y-127027859D01*
X116392785Y-127195056D01*
X116637658Y-127328767D01*
X116637662Y-127328769D01*
X116899071Y-127426269D01*
X116899076Y-127426271D01*
X117171705Y-127485578D01*
X117449999Y-127505482D01*
X117728293Y-127485578D01*
X118000922Y-127426271D01*
X118262336Y-127328769D01*
X118507212Y-127195056D01*
X118730567Y-127027855D01*
X118927854Y-126830568D01*
X119095055Y-126607213D01*
X119228768Y-126362337D01*
X119326270Y-126100923D01*
X119385577Y-125828294D01*
X119405481Y-125550000D01*
X129994518Y-125550000D01*
X130014421Y-125828288D01*
X130073730Y-126100927D01*
X130171231Y-126362338D01*
X130171232Y-126362340D01*
X130304944Y-126607213D01*
X130304943Y-126607213D01*
X130472140Y-126830562D01*
X130472142Y-126830564D01*
X130472145Y-126830568D01*
X130669432Y-127027855D01*
X130669435Y-127027857D01*
X130669437Y-127027859D01*
X130892786Y-127195056D01*
X131137659Y-127328767D01*
X131137663Y-127328769D01*
X131399072Y-127426269D01*
X131399077Y-127426271D01*
X131671706Y-127485578D01*
X131950000Y-127505482D01*
X132228294Y-127485578D01*
X132500923Y-127426271D01*
X132762337Y-127328769D01*
X133007213Y-127195056D01*
X133230568Y-127027855D01*
X133427855Y-126830568D01*
X133595056Y-126607213D01*
X133728769Y-126362337D01*
X133826271Y-126100923D01*
X133885578Y-125828294D01*
X133905482Y-125550000D01*
X133885578Y-125271706D01*
X133826271Y-124999077D01*
X133728769Y-124737663D01*
X133595056Y-124492787D01*
X133595055Y-124492786D01*
X133595056Y-124492786D01*
X133427859Y-124269437D01*
X133427857Y-124269435D01*
X133427855Y-124269432D01*
X133230568Y-124072145D01*
X133230564Y-124072142D01*
X133230562Y-124072140D01*
X133007213Y-123904943D01*
X132762340Y-123771232D01*
X132762338Y-123771231D01*
X132500926Y-123673730D01*
X132500928Y-123673730D01*
X132440082Y-123660493D01*
X132228294Y-123614422D01*
X132228291Y-123614421D01*
X132228288Y-123614421D01*
X131950000Y-123594518D01*
X131671711Y-123614421D01*
X131399072Y-123673730D01*
X131137661Y-123771231D01*
X131137659Y-123771232D01*
X130892786Y-123904943D01*
X130669437Y-124072140D01*
X130472140Y-124269437D01*
X130304943Y-124492786D01*
X130171232Y-124737659D01*
X130171231Y-124737661D01*
X130073730Y-124999072D01*
X130014421Y-125271711D01*
X129994518Y-125550000D01*
X119405481Y-125550000D01*
X119385577Y-125271706D01*
X119326270Y-124999077D01*
X119228768Y-124737663D01*
X119095055Y-124492787D01*
X119095054Y-124492786D01*
X119095055Y-124492786D01*
X118927858Y-124269437D01*
X118927856Y-124269435D01*
X118927854Y-124269432D01*
X118730567Y-124072145D01*
X118730563Y-124072142D01*
X118730561Y-124072140D01*
X118507212Y-123904943D01*
X118262339Y-123771232D01*
X118262337Y-123771231D01*
X118000925Y-123673730D01*
X118000927Y-123673730D01*
X117940081Y-123660493D01*
X117728293Y-123614422D01*
X117728290Y-123614421D01*
X117728287Y-123614421D01*
X117449999Y-123594518D01*
X117171710Y-123614421D01*
X116899071Y-123673730D01*
X116637660Y-123771231D01*
X116637658Y-123771232D01*
X116392785Y-123904943D01*
X116169436Y-124072140D01*
X115972139Y-124269437D01*
X115804942Y-124492786D01*
X115671231Y-124737659D01*
X115671230Y-124737661D01*
X115573729Y-124999072D01*
X115514420Y-125271711D01*
X115494517Y-125550000D01*
X92000000Y-125550000D01*
X92000000Y-111399999D01*
X173969196Y-111399999D01*
X173969196Y-111400000D01*
X173990281Y-111533127D01*
X173990282Y-111533129D01*
X174051470Y-111653217D01*
X174051472Y-111653220D01*
X174146780Y-111748528D01*
X174266874Y-111809719D01*
X174400000Y-111830804D01*
X174533126Y-111809719D01*
X174653220Y-111748528D01*
X174748528Y-111653220D01*
X174809719Y-111533126D01*
X174830804Y-111400000D01*
X174830804Y-111399999D01*
X176269196Y-111399999D01*
X176269196Y-111400000D01*
X176290281Y-111533127D01*
X176290282Y-111533129D01*
X176351470Y-111653217D01*
X176351472Y-111653220D01*
X176446780Y-111748528D01*
X176566874Y-111809719D01*
X176700000Y-111830804D01*
X176833126Y-111809719D01*
X176953220Y-111748528D01*
X177048528Y-111653220D01*
X177109719Y-111533126D01*
X177130804Y-111400000D01*
X177109719Y-111266874D01*
X177048528Y-111146780D01*
X176953220Y-111051472D01*
X176953217Y-111051470D01*
X176833129Y-110990282D01*
X176833127Y-110990281D01*
X176700000Y-110969196D01*
X176566872Y-110990281D01*
X176566870Y-110990282D01*
X176446782Y-111051470D01*
X176351470Y-111146782D01*
X176290282Y-111266870D01*
X176290281Y-111266872D01*
X176269196Y-111399999D01*
X174830804Y-111399999D01*
X174809719Y-111266874D01*
X174748528Y-111146780D01*
X174653220Y-111051472D01*
X174653217Y-111051470D01*
X174533129Y-110990282D01*
X174533127Y-110990281D01*
X174400000Y-110969196D01*
X174266872Y-110990281D01*
X174266870Y-110990282D01*
X174146782Y-111051470D01*
X174051470Y-111146782D01*
X173990282Y-111266870D01*
X173990281Y-111266872D01*
X173969196Y-111399999D01*
X92000000Y-111399999D01*
X92000000Y-110759998D01*
X132069196Y-110759998D01*
X132069196Y-110759999D01*
X132090281Y-110893126D01*
X132090282Y-110893128D01*
X132129041Y-110969196D01*
X132151472Y-111013219D01*
X132246780Y-111108527D01*
X132366874Y-111169718D01*
X132500000Y-111190803D01*
X132633126Y-111169718D01*
X132753220Y-111108527D01*
X132848528Y-111013219D01*
X132909719Y-110893125D01*
X132930804Y-110759999D01*
X132930804Y-110759998D01*
X146569195Y-110759998D01*
X146569195Y-110759999D01*
X146590280Y-110893126D01*
X146590281Y-110893128D01*
X146629040Y-110969196D01*
X146651471Y-111013219D01*
X146746779Y-111108527D01*
X146866873Y-111169718D01*
X146999999Y-111190803D01*
X147133125Y-111169718D01*
X147253219Y-111108527D01*
X147348527Y-111013219D01*
X147409718Y-110893125D01*
X147430803Y-110759999D01*
X147409718Y-110626873D01*
X147348527Y-110506779D01*
X147253219Y-110411471D01*
X147253216Y-110411469D01*
X147133128Y-110350281D01*
X147133126Y-110350280D01*
X146999999Y-110329195D01*
X146866871Y-110350280D01*
X146866869Y-110350281D01*
X146746781Y-110411469D01*
X146651469Y-110506781D01*
X146590281Y-110626869D01*
X146590280Y-110626871D01*
X146569195Y-110759998D01*
X132930804Y-110759998D01*
X132909719Y-110626873D01*
X132848528Y-110506779D01*
X132753220Y-110411471D01*
X132753217Y-110411469D01*
X132633129Y-110350281D01*
X132633127Y-110350280D01*
X132500000Y-110329195D01*
X132366872Y-110350280D01*
X132366870Y-110350281D01*
X132246782Y-110411469D01*
X132151470Y-110506781D01*
X132090282Y-110626869D01*
X132090281Y-110626871D01*
X132069196Y-110759998D01*
X92000000Y-110759998D01*
X92000000Y-109749999D01*
X113069196Y-109749999D01*
X113069196Y-109750000D01*
X113090281Y-109883127D01*
X113090282Y-109883129D01*
X113151470Y-110003217D01*
X113151472Y-110003220D01*
X113246780Y-110098528D01*
X113366874Y-110159719D01*
X113500000Y-110180804D01*
X113633126Y-110159719D01*
X113753220Y-110098528D01*
X113848528Y-110003220D01*
X113909719Y-109883126D01*
X113930804Y-109750000D01*
X113909719Y-109616874D01*
X113848528Y-109496780D01*
X113753220Y-109401472D01*
X113753217Y-109401470D01*
X113633129Y-109340282D01*
X113633127Y-109340281D01*
X113500000Y-109319196D01*
X113366872Y-109340281D01*
X113366870Y-109340282D01*
X113246782Y-109401470D01*
X113151470Y-109496782D01*
X113090282Y-109616870D01*
X113090281Y-109616872D01*
X113069196Y-109749999D01*
X92000000Y-109749999D01*
X92000000Y-107100000D01*
X177594357Y-107100000D01*
X177614885Y-107321536D01*
X177675771Y-107535528D01*
X177774942Y-107734689D01*
X177909019Y-107912236D01*
X178073438Y-108062124D01*
X178262599Y-108179247D01*
X178470060Y-108259618D01*
X178688757Y-108300500D01*
X178911243Y-108300500D01*
X179129940Y-108259618D01*
X179337401Y-108179247D01*
X179526562Y-108062124D01*
X179690981Y-107912236D01*
X179825058Y-107734689D01*
X179924229Y-107535528D01*
X179985115Y-107321536D01*
X180005643Y-107100000D01*
X179985115Y-106878464D01*
X179924229Y-106664472D01*
X179825058Y-106465311D01*
X179690981Y-106287764D01*
X179526562Y-106137876D01*
X179337401Y-106020753D01*
X179129940Y-105940382D01*
X179129939Y-105940381D01*
X179129937Y-105940381D01*
X178911243Y-105899500D01*
X178688757Y-105899500D01*
X178470062Y-105940381D01*
X178393797Y-105969926D01*
X178262599Y-106020753D01*
X178073438Y-106137876D01*
X177909020Y-106287763D01*
X177774943Y-106465309D01*
X177774938Y-106465318D01*
X177675772Y-106664469D01*
X177675771Y-106664472D01*
X177614885Y-106878464D01*
X177594357Y-107100000D01*
X92000000Y-107100000D01*
X92000000Y-104249999D01*
X94059197Y-104249999D01*
X94059197Y-104250000D01*
X94080282Y-104383127D01*
X94080283Y-104383129D01*
X94141471Y-104503217D01*
X94141473Y-104503220D01*
X94236781Y-104598528D01*
X94236783Y-104598529D01*
X94309397Y-104635528D01*
X94356875Y-104659719D01*
X94490001Y-104680804D01*
X94623127Y-104659719D01*
X94743221Y-104598528D01*
X94838529Y-104503220D01*
X94899720Y-104383126D01*
X94902219Y-104367345D01*
X94929995Y-104312829D01*
X94984511Y-104285050D01*
X95044943Y-104294620D01*
X95088209Y-104337884D01*
X95097781Y-104367342D01*
X95100281Y-104383128D01*
X95100282Y-104383129D01*
X95161470Y-104503217D01*
X95161472Y-104503220D01*
X95256780Y-104598528D01*
X95256782Y-104598529D01*
X95329396Y-104635528D01*
X95376874Y-104659719D01*
X95510000Y-104680804D01*
X95643126Y-104659719D01*
X95763220Y-104598528D01*
X95858528Y-104503220D01*
X95919719Y-104383126D01*
X95940804Y-104250000D01*
X95932885Y-104200000D01*
X166994357Y-104200000D01*
X167014885Y-104421536D01*
X167075771Y-104635528D01*
X167174942Y-104834689D01*
X167309019Y-105012236D01*
X167473438Y-105162124D01*
X167662599Y-105279247D01*
X167870060Y-105359618D01*
X168088757Y-105400500D01*
X168311243Y-105400500D01*
X168529940Y-105359618D01*
X168737401Y-105279247D01*
X168926562Y-105162124D01*
X169090981Y-105012236D01*
X169225058Y-104834689D01*
X169324229Y-104635528D01*
X169385115Y-104421536D01*
X169405643Y-104200000D01*
X169994357Y-104200000D01*
X170014885Y-104421536D01*
X170075771Y-104635528D01*
X170174942Y-104834689D01*
X170309019Y-105012236D01*
X170473438Y-105162124D01*
X170662599Y-105279247D01*
X170870060Y-105359618D01*
X171088757Y-105400500D01*
X171311243Y-105400500D01*
X171529940Y-105359618D01*
X171737401Y-105279247D01*
X171926562Y-105162124D01*
X172090981Y-105012236D01*
X172225058Y-104834689D01*
X172324229Y-104635528D01*
X172385115Y-104421536D01*
X172396377Y-104300000D01*
X177594357Y-104300000D01*
X177614885Y-104521536D01*
X177675771Y-104735528D01*
X177774942Y-104934689D01*
X177909019Y-105112236D01*
X178073438Y-105262124D01*
X178262599Y-105379247D01*
X178470060Y-105459618D01*
X178688757Y-105500500D01*
X178911243Y-105500500D01*
X179129940Y-105459618D01*
X179337401Y-105379247D01*
X179526562Y-105262124D01*
X179690981Y-105112236D01*
X179825058Y-104934689D01*
X179924229Y-104735528D01*
X179985115Y-104521536D01*
X180005643Y-104300000D01*
X179985115Y-104078464D01*
X179924229Y-103864472D01*
X179825058Y-103665311D01*
X179690981Y-103487764D01*
X179526562Y-103337876D01*
X179337401Y-103220753D01*
X179129940Y-103140382D01*
X179129939Y-103140381D01*
X179129937Y-103140381D01*
X178911243Y-103099500D01*
X178688757Y-103099500D01*
X178470062Y-103140381D01*
X178393797Y-103169926D01*
X178262599Y-103220753D01*
X178073438Y-103337876D01*
X177909020Y-103487763D01*
X177774943Y-103665309D01*
X177774938Y-103665318D01*
X177687816Y-103840282D01*
X177675771Y-103864472D01*
X177614885Y-104078464D01*
X177594357Y-104300000D01*
X172396377Y-104300000D01*
X172405643Y-104200000D01*
X172385115Y-103978464D01*
X172324229Y-103764472D01*
X172225058Y-103565311D01*
X172090981Y-103387764D01*
X171926562Y-103237876D01*
X171737401Y-103120753D01*
X171529940Y-103040382D01*
X171529939Y-103040381D01*
X171529937Y-103040381D01*
X171311243Y-102999500D01*
X171088757Y-102999500D01*
X170870062Y-103040381D01*
X170793797Y-103069926D01*
X170662599Y-103120753D01*
X170501093Y-103220753D01*
X170473438Y-103237876D01*
X170309020Y-103387763D01*
X170174943Y-103565309D01*
X170174938Y-103565318D01*
X170125144Y-103665318D01*
X170075771Y-103764472D01*
X170014885Y-103978464D01*
X169994357Y-104200000D01*
X169405643Y-104200000D01*
X169385115Y-103978464D01*
X169324229Y-103764472D01*
X169225058Y-103565311D01*
X169090981Y-103387764D01*
X168926562Y-103237876D01*
X168737401Y-103120753D01*
X168529940Y-103040382D01*
X168529939Y-103040381D01*
X168529937Y-103040381D01*
X168311243Y-102999500D01*
X168088757Y-102999500D01*
X167870062Y-103040381D01*
X167793797Y-103069926D01*
X167662599Y-103120753D01*
X167501093Y-103220753D01*
X167473438Y-103237876D01*
X167309020Y-103387763D01*
X167174943Y-103565309D01*
X167174938Y-103565318D01*
X167125144Y-103665318D01*
X167075771Y-103764472D01*
X167014885Y-103978464D01*
X166994357Y-104200000D01*
X95932885Y-104200000D01*
X95919719Y-104116874D01*
X95919718Y-104116872D01*
X95919717Y-104116870D01*
X95858529Y-103996782D01*
X95858528Y-103996780D01*
X95763220Y-103901472D01*
X95763217Y-103901470D01*
X95643129Y-103840282D01*
X95643127Y-103840281D01*
X95510000Y-103819196D01*
X95376872Y-103840281D01*
X95376870Y-103840282D01*
X95256782Y-103901470D01*
X95161470Y-103996782D01*
X95100282Y-104116870D01*
X95100281Y-104116871D01*
X95097781Y-104132657D01*
X95070002Y-104187173D01*
X95015485Y-104214950D01*
X94955053Y-104205377D01*
X94911789Y-104162111D01*
X94902219Y-104132653D01*
X94899720Y-104116873D01*
X94899718Y-104116870D01*
X94838530Y-103996782D01*
X94838529Y-103996780D01*
X94743221Y-103901472D01*
X94743218Y-103901470D01*
X94623130Y-103840282D01*
X94623128Y-103840281D01*
X94490001Y-103819196D01*
X94356873Y-103840281D01*
X94356871Y-103840282D01*
X94236783Y-103901470D01*
X94141471Y-103996782D01*
X94080283Y-104116870D01*
X94080282Y-104116872D01*
X94059197Y-104249999D01*
X92000000Y-104249999D01*
X92000000Y-102399999D01*
X98819196Y-102399999D01*
X98819196Y-102400000D01*
X98840281Y-102533127D01*
X98840282Y-102533129D01*
X98879307Y-102609719D01*
X98901472Y-102653220D01*
X98996780Y-102748528D01*
X99116874Y-102809719D01*
X99250000Y-102830804D01*
X99383126Y-102809719D01*
X99503220Y-102748528D01*
X99598528Y-102653220D01*
X99659719Y-102533126D01*
X99680804Y-102400000D01*
X99659719Y-102266874D01*
X99598528Y-102146780D01*
X99551747Y-102099999D01*
X168269196Y-102099999D01*
X168269196Y-102100000D01*
X168290281Y-102233127D01*
X168290282Y-102233129D01*
X168341234Y-102333127D01*
X168351472Y-102353220D01*
X168446780Y-102448528D01*
X168566874Y-102509719D01*
X168700000Y-102530804D01*
X168833126Y-102509719D01*
X168953220Y-102448528D01*
X169048528Y-102353220D01*
X169109719Y-102233126D01*
X169114966Y-102199999D01*
X175306696Y-102199999D01*
X175306696Y-102200000D01*
X175327781Y-102333127D01*
X175327782Y-102333129D01*
X175388970Y-102453217D01*
X175388972Y-102453220D01*
X175484280Y-102548528D01*
X175604374Y-102609719D01*
X175737500Y-102630804D01*
X175870626Y-102609719D01*
X175990720Y-102548528D01*
X176086028Y-102453220D01*
X176147219Y-102333126D01*
X176168304Y-102200000D01*
X176147219Y-102066874D01*
X176086028Y-101946780D01*
X175990720Y-101851472D01*
X175990717Y-101851470D01*
X175870629Y-101790282D01*
X175870627Y-101790281D01*
X175737500Y-101769196D01*
X175604372Y-101790281D01*
X175604370Y-101790282D01*
X175484282Y-101851470D01*
X175388970Y-101946782D01*
X175327782Y-102066870D01*
X175327781Y-102066872D01*
X175306696Y-102199999D01*
X169114966Y-102199999D01*
X169130804Y-102100000D01*
X169109719Y-101966874D01*
X169048528Y-101846780D01*
X168953220Y-101751472D01*
X168953217Y-101751470D01*
X168833129Y-101690282D01*
X168833127Y-101690281D01*
X168700000Y-101669196D01*
X168566872Y-101690281D01*
X168566870Y-101690282D01*
X168446782Y-101751470D01*
X168351470Y-101846782D01*
X168290282Y-101966870D01*
X168290281Y-101966872D01*
X168269196Y-102099999D01*
X99551747Y-102099999D01*
X99503220Y-102051472D01*
X99503217Y-102051470D01*
X99383129Y-101990282D01*
X99383127Y-101990281D01*
X99250000Y-101969196D01*
X99116872Y-101990281D01*
X99116870Y-101990282D01*
X98996782Y-102051470D01*
X98901470Y-102146782D01*
X98840282Y-102266870D01*
X98840281Y-102266872D01*
X98819196Y-102399999D01*
X92000000Y-102399999D01*
X92000000Y-101249999D01*
X173431696Y-101249999D01*
X173431696Y-101250000D01*
X173452781Y-101383127D01*
X173452782Y-101383129D01*
X173513970Y-101503217D01*
X173513972Y-101503220D01*
X173609280Y-101598528D01*
X173729374Y-101659719D01*
X173862500Y-101680804D01*
X173995626Y-101659719D01*
X174115720Y-101598528D01*
X174211028Y-101503220D01*
X174272219Y-101383126D01*
X174293304Y-101250000D01*
X174272219Y-101116874D01*
X174211028Y-100996780D01*
X174115720Y-100901472D01*
X174115717Y-100901470D01*
X173995629Y-100840282D01*
X173995627Y-100840281D01*
X173862500Y-100819196D01*
X173729372Y-100840281D01*
X173729370Y-100840282D01*
X173609282Y-100901470D01*
X173513970Y-100996782D01*
X173452782Y-101116870D01*
X173452781Y-101116872D01*
X173431696Y-101249999D01*
X92000000Y-101249999D01*
X92000000Y-99799999D01*
X98269196Y-99799999D01*
X98269196Y-99800000D01*
X98290281Y-99933127D01*
X98290282Y-99933129D01*
X98351470Y-100053217D01*
X98351472Y-100053220D01*
X98446780Y-100148528D01*
X98566874Y-100209719D01*
X98700000Y-100230804D01*
X98833126Y-100209719D01*
X98953220Y-100148528D01*
X99048528Y-100053220D01*
X99109719Y-99933126D01*
X99130804Y-99800000D01*
X99109719Y-99666874D01*
X99048528Y-99546780D01*
X98953220Y-99451472D01*
X98953217Y-99451470D01*
X98833129Y-99390282D01*
X98833127Y-99390281D01*
X98700000Y-99369196D01*
X98566872Y-99390281D01*
X98566870Y-99390282D01*
X98446782Y-99451470D01*
X98351470Y-99546782D01*
X98290282Y-99666870D01*
X98290281Y-99666872D01*
X98269196Y-99799999D01*
X92000000Y-99799999D01*
X92000000Y-99299999D01*
X162659197Y-99299999D01*
X162659197Y-99300000D01*
X162680282Y-99433127D01*
X162680283Y-99433129D01*
X162741471Y-99553217D01*
X162741473Y-99553220D01*
X162836781Y-99648528D01*
X162956875Y-99709719D01*
X163090001Y-99730804D01*
X163223127Y-99709719D01*
X163343221Y-99648528D01*
X163438529Y-99553220D01*
X163499720Y-99433126D01*
X163520805Y-99300000D01*
X163499720Y-99166874D01*
X163438529Y-99046780D01*
X163343221Y-98951472D01*
X163343218Y-98951470D01*
X163223130Y-98890282D01*
X163223128Y-98890281D01*
X163090001Y-98869196D01*
X162956873Y-98890281D01*
X162956871Y-98890282D01*
X162836783Y-98951470D01*
X162741471Y-99046782D01*
X162680283Y-99166870D01*
X162680282Y-99166872D01*
X162659197Y-99299999D01*
X92000000Y-99299999D01*
X92000000Y-97799999D01*
X161219196Y-97799999D01*
X161219196Y-97800000D01*
X161240281Y-97933127D01*
X161240282Y-97933129D01*
X161301470Y-98053217D01*
X161301472Y-98053220D01*
X161396780Y-98148528D01*
X161516874Y-98209719D01*
X161650000Y-98230804D01*
X161783126Y-98209719D01*
X161903220Y-98148528D01*
X161998528Y-98053220D01*
X162059719Y-97933126D01*
X162080804Y-97800000D01*
X162059719Y-97666874D01*
X161998528Y-97546780D01*
X161903220Y-97451472D01*
X161903217Y-97451470D01*
X161783129Y-97390282D01*
X161783127Y-97390281D01*
X161650000Y-97369196D01*
X161516872Y-97390281D01*
X161516870Y-97390282D01*
X161396782Y-97451470D01*
X161301470Y-97546782D01*
X161240282Y-97666870D01*
X161240281Y-97666872D01*
X161219196Y-97799999D01*
X92000000Y-97799999D01*
X92000000Y-96499999D01*
X121869196Y-96499999D01*
X121869196Y-96500000D01*
X121890281Y-96633127D01*
X121890282Y-96633129D01*
X121941234Y-96733127D01*
X121951472Y-96753220D01*
X122046780Y-96848528D01*
X122166874Y-96909719D01*
X122300000Y-96930804D01*
X122433126Y-96909719D01*
X122553220Y-96848528D01*
X122648528Y-96753220D01*
X122709719Y-96633126D01*
X122714966Y-96599999D01*
X163519196Y-96599999D01*
X163519196Y-96600000D01*
X163540281Y-96733127D01*
X163540282Y-96733129D01*
X163601470Y-96853217D01*
X163601472Y-96853220D01*
X163696780Y-96948528D01*
X163816874Y-97009719D01*
X163950000Y-97030804D01*
X163950001Y-97030803D01*
X163953589Y-97031372D01*
X164008105Y-97059149D01*
X164035883Y-97113666D01*
X164035883Y-97144640D01*
X164019196Y-97249999D01*
X164019196Y-97250000D01*
X164040281Y-97383127D01*
X164040282Y-97383129D01*
X164043927Y-97390282D01*
X164101472Y-97503220D01*
X164196780Y-97598528D01*
X164316874Y-97659719D01*
X164450000Y-97680804D01*
X164583126Y-97659719D01*
X164703220Y-97598528D01*
X164798528Y-97503220D01*
X164859719Y-97383126D01*
X164880804Y-97250000D01*
X164864116Y-97144638D01*
X164873687Y-97084208D01*
X164916951Y-97040944D01*
X164946410Y-97031372D01*
X164949998Y-97030803D01*
X164950000Y-97030804D01*
X165083126Y-97009719D01*
X165203220Y-96948528D01*
X165251749Y-96899999D01*
X169899196Y-96899999D01*
X169899196Y-96900000D01*
X169920281Y-97033127D01*
X169920282Y-97033129D01*
X169981470Y-97153217D01*
X169981472Y-97153220D01*
X170076780Y-97248528D01*
X170196874Y-97309719D01*
X170330000Y-97330804D01*
X170463126Y-97309719D01*
X170583220Y-97248528D01*
X170678528Y-97153220D01*
X170739719Y-97033126D01*
X170760804Y-96900000D01*
X170760804Y-96899999D01*
X171169196Y-96899999D01*
X171169196Y-96900000D01*
X171190281Y-97033127D01*
X171190282Y-97033129D01*
X171251470Y-97153217D01*
X171251472Y-97153220D01*
X171346780Y-97248528D01*
X171466874Y-97309719D01*
X171600000Y-97330804D01*
X171733126Y-97309719D01*
X171853220Y-97248528D01*
X171948528Y-97153220D01*
X172009719Y-97033126D01*
X172030804Y-96900000D01*
X172009719Y-96766874D01*
X171948528Y-96646780D01*
X171853220Y-96551472D01*
X171853217Y-96551470D01*
X171733129Y-96490282D01*
X171733127Y-96490281D01*
X171600000Y-96469196D01*
X171466872Y-96490281D01*
X171466870Y-96490282D01*
X171346782Y-96551470D01*
X171251470Y-96646782D01*
X171190282Y-96766870D01*
X171190281Y-96766872D01*
X171169196Y-96899999D01*
X170760804Y-96899999D01*
X170739719Y-96766874D01*
X170678528Y-96646780D01*
X170583220Y-96551472D01*
X170583217Y-96551470D01*
X170463129Y-96490282D01*
X170463127Y-96490281D01*
X170330000Y-96469196D01*
X170196872Y-96490281D01*
X170196870Y-96490282D01*
X170076782Y-96551470D01*
X169981470Y-96646782D01*
X169920282Y-96766870D01*
X169920281Y-96766872D01*
X169899196Y-96899999D01*
X165251749Y-96899999D01*
X165298528Y-96853220D01*
X165359719Y-96733126D01*
X165380804Y-96600000D01*
X165359719Y-96466874D01*
X165298528Y-96346780D01*
X165203220Y-96251472D01*
X165203217Y-96251470D01*
X165083129Y-96190282D01*
X165083127Y-96190281D01*
X164950000Y-96169196D01*
X164816872Y-96190281D01*
X164816870Y-96190282D01*
X164696782Y-96251470D01*
X164601471Y-96346781D01*
X164538209Y-96470939D01*
X164494944Y-96514203D01*
X164434512Y-96523774D01*
X164379996Y-96495996D01*
X164361791Y-96470939D01*
X164298529Y-96346782D01*
X164298528Y-96346780D01*
X164203220Y-96251472D01*
X164203217Y-96251470D01*
X164083129Y-96190282D01*
X164083127Y-96190281D01*
X163950000Y-96169196D01*
X163816872Y-96190281D01*
X163816870Y-96190282D01*
X163696782Y-96251470D01*
X163601470Y-96346782D01*
X163540282Y-96466870D01*
X163540281Y-96466872D01*
X163519196Y-96599999D01*
X122714966Y-96599999D01*
X122730804Y-96500000D01*
X122709719Y-96366874D01*
X122648528Y-96246780D01*
X122553220Y-96151472D01*
X122553217Y-96151470D01*
X122433129Y-96090282D01*
X122433127Y-96090281D01*
X122300000Y-96069196D01*
X122166872Y-96090281D01*
X122166870Y-96090282D01*
X122046782Y-96151470D01*
X121951470Y-96246782D01*
X121890282Y-96366870D01*
X121890281Y-96366872D01*
X121869196Y-96499999D01*
X92000000Y-96499999D01*
X92000000Y-95699999D01*
X119969196Y-95699999D01*
X119969196Y-95700000D01*
X119990281Y-95833127D01*
X119990282Y-95833129D01*
X120051470Y-95953217D01*
X120051472Y-95953220D01*
X120146780Y-96048528D01*
X120266874Y-96109719D01*
X120400000Y-96130804D01*
X120533126Y-96109719D01*
X120653220Y-96048528D01*
X120748528Y-95953220D01*
X120809719Y-95833126D01*
X120830804Y-95700000D01*
X120809719Y-95566874D01*
X120748528Y-95446780D01*
X120653220Y-95351472D01*
X120653217Y-95351470D01*
X120533129Y-95290282D01*
X120533127Y-95290281D01*
X120400000Y-95269196D01*
X120266872Y-95290281D01*
X120266870Y-95290282D01*
X120146782Y-95351470D01*
X120051470Y-95446782D01*
X119990282Y-95566870D01*
X119990281Y-95566872D01*
X119969196Y-95699999D01*
X92000000Y-95699999D01*
X92000000Y-93734997D01*
X110994451Y-93734997D01*
X110994451Y-93735002D01*
X111014616Y-94004098D01*
X111014616Y-94004102D01*
X111014617Y-94004103D01*
X111015250Y-94006875D01*
X111074666Y-94267197D01*
X111165672Y-94499072D01*
X111173257Y-94518398D01*
X111308185Y-94752102D01*
X111308189Y-94752108D01*
X111308191Y-94752110D01*
X111476434Y-94963081D01*
X111476440Y-94963087D01*
X111674252Y-95146629D01*
X111674254Y-95146630D01*
X111674259Y-95146635D01*
X111897226Y-95298651D01*
X112140359Y-95415738D01*
X112398228Y-95495280D01*
X112665071Y-95535500D01*
X112665076Y-95535500D01*
X112934924Y-95535500D01*
X112934929Y-95535500D01*
X113201772Y-95495280D01*
X113459641Y-95415738D01*
X113702775Y-95298651D01*
X113925741Y-95146635D01*
X114123561Y-94963085D01*
X114123565Y-94963081D01*
X114218855Y-94843589D01*
X114291815Y-94752102D01*
X114414264Y-94540011D01*
X114459733Y-94499072D01*
X114520583Y-94492676D01*
X114573571Y-94523269D01*
X114585733Y-94540008D01*
X114708185Y-94752102D01*
X114708189Y-94752108D01*
X114708191Y-94752110D01*
X114876434Y-94963081D01*
X114876440Y-94963087D01*
X115074252Y-95146629D01*
X115074254Y-95146630D01*
X115074259Y-95146635D01*
X115297226Y-95298651D01*
X115540359Y-95415738D01*
X115798228Y-95495280D01*
X116065071Y-95535500D01*
X116065076Y-95535500D01*
X116334924Y-95535500D01*
X116334929Y-95535500D01*
X116601772Y-95495280D01*
X116859641Y-95415738D01*
X117102775Y-95298651D01*
X117325741Y-95146635D01*
X117523561Y-94963085D01*
X117523565Y-94963081D01*
X117618855Y-94843589D01*
X117691815Y-94752102D01*
X117826743Y-94518398D01*
X117925334Y-94267195D01*
X117954366Y-94139999D01*
X151019196Y-94139999D01*
X151019196Y-94140000D01*
X151040281Y-94273127D01*
X151040282Y-94273129D01*
X151040283Y-94273130D01*
X151101472Y-94393220D01*
X151196780Y-94488528D01*
X151316874Y-94549719D01*
X151450000Y-94570804D01*
X151583126Y-94549719D01*
X151703220Y-94488528D01*
X151798528Y-94393220D01*
X151859719Y-94273126D01*
X151880804Y-94140000D01*
X153519196Y-94140000D01*
X153519196Y-94140001D01*
X153540281Y-94273128D01*
X153540282Y-94273130D01*
X153601470Y-94393218D01*
X153601472Y-94393221D01*
X153696780Y-94488529D01*
X153816874Y-94549720D01*
X153950000Y-94570805D01*
X154083126Y-94549720D01*
X154203220Y-94488529D01*
X154298528Y-94393221D01*
X154359719Y-94273127D01*
X154380804Y-94140001D01*
X154359719Y-94006875D01*
X154359718Y-94006873D01*
X154359717Y-94006871D01*
X154298529Y-93886783D01*
X154298528Y-93886781D01*
X154203220Y-93791473D01*
X154203217Y-93791471D01*
X154083129Y-93730283D01*
X154083127Y-93730282D01*
X153950000Y-93709197D01*
X153816872Y-93730282D01*
X153816870Y-93730283D01*
X153696782Y-93791471D01*
X153601470Y-93886783D01*
X153540282Y-94006871D01*
X153540281Y-94006873D01*
X153519196Y-94140000D01*
X151880804Y-94140000D01*
X151859719Y-94006874D01*
X151859718Y-94006872D01*
X151859717Y-94006870D01*
X151798529Y-93886782D01*
X151798528Y-93886780D01*
X151703220Y-93791472D01*
X151703217Y-93791470D01*
X151583129Y-93730282D01*
X151583127Y-93730281D01*
X151450000Y-93709196D01*
X151316872Y-93730281D01*
X151316870Y-93730282D01*
X151196782Y-93791470D01*
X151101470Y-93886782D01*
X151040282Y-94006870D01*
X151040281Y-94006872D01*
X151019196Y-94139999D01*
X117954366Y-94139999D01*
X117985383Y-94004103D01*
X118005549Y-93735000D01*
X118005195Y-93730282D01*
X117988180Y-93503218D01*
X117985383Y-93465897D01*
X117925334Y-93202805D01*
X117923655Y-93198528D01*
X117859364Y-93034718D01*
X117826743Y-92951602D01*
X117691815Y-92717898D01*
X117691808Y-92717889D01*
X117523565Y-92506918D01*
X117523559Y-92506912D01*
X117325747Y-92323370D01*
X117325744Y-92323368D01*
X117325741Y-92323365D01*
X117102775Y-92171349D01*
X117102767Y-92171345D01*
X117037681Y-92140001D01*
X151019196Y-92140001D01*
X151019196Y-92140002D01*
X151040281Y-92273129D01*
X151040282Y-92273131D01*
X151101470Y-92393219D01*
X151101472Y-92393222D01*
X151196780Y-92488530D01*
X151316874Y-92549721D01*
X151450000Y-92570806D01*
X151583126Y-92549721D01*
X151703220Y-92488530D01*
X151798528Y-92393222D01*
X151859719Y-92273128D01*
X151870585Y-92204524D01*
X153519196Y-92204524D01*
X153519196Y-92204525D01*
X153540281Y-92337652D01*
X153540282Y-92337654D01*
X153592574Y-92440282D01*
X153601472Y-92457745D01*
X153696780Y-92553053D01*
X153816874Y-92614244D01*
X153950000Y-92635329D01*
X154015221Y-92624999D01*
X156619196Y-92624999D01*
X156619196Y-92625000D01*
X156640281Y-92758127D01*
X156640282Y-92758129D01*
X156687093Y-92850000D01*
X156701472Y-92878220D01*
X156796780Y-92973528D01*
X156916874Y-93034719D01*
X157050000Y-93055804D01*
X157183126Y-93034719D01*
X157303220Y-92973528D01*
X157398528Y-92878220D01*
X157412907Y-92849999D01*
X159086696Y-92849999D01*
X159086696Y-92850000D01*
X159107781Y-92983127D01*
X159107782Y-92983129D01*
X159168081Y-93101472D01*
X159168972Y-93103220D01*
X159264280Y-93198528D01*
X159384374Y-93259719D01*
X159517500Y-93280804D01*
X159650626Y-93259719D01*
X159770720Y-93198528D01*
X159866028Y-93103220D01*
X159927219Y-92983126D01*
X159948304Y-92850000D01*
X159927219Y-92716874D01*
X159893144Y-92649999D01*
X164719196Y-92649999D01*
X164719196Y-92650000D01*
X164740281Y-92783127D01*
X164740282Y-92783129D01*
X164801470Y-92903217D01*
X164801472Y-92903220D01*
X164878250Y-92979998D01*
X164906026Y-93034513D01*
X164896455Y-93094945D01*
X164878251Y-93120000D01*
X164801472Y-93196780D01*
X164801470Y-93196782D01*
X164740282Y-93316870D01*
X164740281Y-93316872D01*
X164719196Y-93449999D01*
X164719196Y-93450000D01*
X164740281Y-93583127D01*
X164740282Y-93583129D01*
X164801470Y-93703217D01*
X164801472Y-93703220D01*
X164896780Y-93798528D01*
X165016874Y-93859719D01*
X165150000Y-93880804D01*
X165283126Y-93859719D01*
X165403220Y-93798528D01*
X165498528Y-93703220D01*
X165559719Y-93583126D01*
X165580804Y-93450000D01*
X165559719Y-93316874D01*
X165525644Y-93249999D01*
X172019196Y-93249999D01*
X172019196Y-93250000D01*
X172040281Y-93383127D01*
X172040282Y-93383129D01*
X172082457Y-93465901D01*
X172101472Y-93503220D01*
X172196780Y-93598528D01*
X172316874Y-93659719D01*
X172450000Y-93680804D01*
X172583126Y-93659719D01*
X172703220Y-93598528D01*
X172798528Y-93503220D01*
X172859719Y-93383126D01*
X172880804Y-93250000D01*
X172859719Y-93116874D01*
X172859718Y-93116872D01*
X172859717Y-93116870D01*
X172798529Y-92996782D01*
X172798528Y-92996780D01*
X172703220Y-92901472D01*
X172703217Y-92901470D01*
X172583129Y-92840282D01*
X172583127Y-92840281D01*
X172450000Y-92819196D01*
X172316872Y-92840281D01*
X172316870Y-92840282D01*
X172196782Y-92901470D01*
X172101470Y-92996782D01*
X172040282Y-93116870D01*
X172040281Y-93116872D01*
X172019196Y-93249999D01*
X165525644Y-93249999D01*
X165498528Y-93196780D01*
X165421749Y-93120001D01*
X165393974Y-93065487D01*
X165403545Y-93005055D01*
X165421748Y-92979999D01*
X165498528Y-92903220D01*
X165559719Y-92783126D01*
X165580804Y-92650000D01*
X165559719Y-92516874D01*
X165498528Y-92396780D01*
X165403220Y-92301472D01*
X165403217Y-92301470D01*
X165283129Y-92240282D01*
X165283127Y-92240281D01*
X165150000Y-92219196D01*
X165016872Y-92240281D01*
X165016870Y-92240282D01*
X164896782Y-92301470D01*
X164801470Y-92396782D01*
X164740282Y-92516870D01*
X164740281Y-92516872D01*
X164719196Y-92649999D01*
X159893144Y-92649999D01*
X159866028Y-92596780D01*
X159770720Y-92501472D01*
X159770717Y-92501470D01*
X159650629Y-92440282D01*
X159650627Y-92440281D01*
X159517500Y-92419196D01*
X159384372Y-92440281D01*
X159384370Y-92440282D01*
X159264282Y-92501470D01*
X159168970Y-92596782D01*
X159107782Y-92716870D01*
X159107781Y-92716872D01*
X159086696Y-92849999D01*
X157412907Y-92849999D01*
X157459719Y-92758126D01*
X157480804Y-92625000D01*
X157479100Y-92614244D01*
X157476334Y-92596780D01*
X157459719Y-92491874D01*
X157398528Y-92371780D01*
X157303220Y-92276472D01*
X157303217Y-92276470D01*
X157183129Y-92215282D01*
X157183127Y-92215281D01*
X157050000Y-92194196D01*
X156916872Y-92215281D01*
X156916870Y-92215282D01*
X156796782Y-92276470D01*
X156701470Y-92371782D01*
X156640282Y-92491870D01*
X156640281Y-92491872D01*
X156619196Y-92624999D01*
X154015221Y-92624999D01*
X154083126Y-92614244D01*
X154203220Y-92553053D01*
X154298528Y-92457745D01*
X154359719Y-92337651D01*
X154380804Y-92204525D01*
X154359719Y-92071399D01*
X154298528Y-91951305D01*
X154203220Y-91855997D01*
X154203217Y-91855995D01*
X154083129Y-91794807D01*
X154083127Y-91794806D01*
X153950000Y-91773721D01*
X153816872Y-91794806D01*
X153816870Y-91794807D01*
X153696782Y-91855995D01*
X153601470Y-91951307D01*
X153540282Y-92071395D01*
X153540281Y-92071397D01*
X153519196Y-92204524D01*
X151870585Y-92204524D01*
X151880804Y-92140002D01*
X151859719Y-92006876D01*
X151855465Y-91998528D01*
X151798529Y-91886784D01*
X151798528Y-91886782D01*
X151703220Y-91791474D01*
X151703217Y-91791472D01*
X151583129Y-91730284D01*
X151583127Y-91730283D01*
X151450000Y-91709198D01*
X151316872Y-91730283D01*
X151316870Y-91730284D01*
X151196782Y-91791472D01*
X151101470Y-91886784D01*
X151040282Y-92006872D01*
X151040281Y-92006874D01*
X151019196Y-92140001D01*
X117037681Y-92140001D01*
X116859643Y-92054262D01*
X116601776Y-91974721D01*
X116601773Y-91974720D01*
X116601772Y-91974720D01*
X116601767Y-91974719D01*
X116601766Y-91974719D01*
X116334932Y-91934500D01*
X116334929Y-91934500D01*
X116065071Y-91934500D01*
X116065067Y-91934500D01*
X115798233Y-91974719D01*
X115798223Y-91974721D01*
X115540358Y-92054262D01*
X115297233Y-92171345D01*
X115297229Y-92171347D01*
X115297226Y-92171349D01*
X115074259Y-92323365D01*
X115074252Y-92323370D01*
X114876440Y-92506912D01*
X114876434Y-92506918D01*
X114708191Y-92717889D01*
X114708187Y-92717894D01*
X114631917Y-92849999D01*
X114602201Y-92901470D01*
X114585737Y-92929986D01*
X114540267Y-92970927D01*
X114479417Y-92977323D01*
X114426429Y-92946730D01*
X114414263Y-92929986D01*
X114397801Y-92901473D01*
X114291815Y-92717898D01*
X114291808Y-92717889D01*
X114123565Y-92506918D01*
X114123559Y-92506912D01*
X113925747Y-92323370D01*
X113925744Y-92323368D01*
X113925741Y-92323365D01*
X113702775Y-92171349D01*
X113702767Y-92171345D01*
X113459643Y-92054262D01*
X113201776Y-91974721D01*
X113201773Y-91974720D01*
X113201772Y-91974720D01*
X113201767Y-91974719D01*
X113201766Y-91974719D01*
X112934932Y-91934500D01*
X112934929Y-91934500D01*
X112665071Y-91934500D01*
X112665067Y-91934500D01*
X112398233Y-91974719D01*
X112398223Y-91974721D01*
X112140358Y-92054262D01*
X111897233Y-92171345D01*
X111897229Y-92171347D01*
X111897226Y-92171349D01*
X111674259Y-92323365D01*
X111674252Y-92323370D01*
X111476440Y-92506912D01*
X111476434Y-92506918D01*
X111308191Y-92717889D01*
X111308187Y-92717894D01*
X111308185Y-92717898D01*
X111242687Y-92831344D01*
X111173258Y-92951599D01*
X111173254Y-92951608D01*
X111074666Y-93202802D01*
X111014618Y-93465892D01*
X111014616Y-93465901D01*
X110994451Y-93734997D01*
X92000000Y-93734997D01*
X92000000Y-93250000D01*
X99579195Y-93250000D01*
X99579195Y-93250001D01*
X99600280Y-93383128D01*
X99600281Y-93383130D01*
X99661469Y-93503218D01*
X99661471Y-93503221D01*
X99756779Y-93598529D01*
X99876873Y-93659720D01*
X100009999Y-93680805D01*
X100143125Y-93659720D01*
X100263219Y-93598529D01*
X100358527Y-93503221D01*
X100419718Y-93383127D01*
X100440803Y-93250001D01*
X100419718Y-93116875D01*
X100419717Y-93116873D01*
X100419716Y-93116871D01*
X100358528Y-92996783D01*
X100358527Y-92996781D01*
X100263219Y-92901473D01*
X100263216Y-92901471D01*
X100143128Y-92840283D01*
X100143126Y-92840282D01*
X100009999Y-92819197D01*
X99876871Y-92840282D01*
X99876869Y-92840283D01*
X99756781Y-92901471D01*
X99661469Y-92996783D01*
X99600281Y-93116871D01*
X99600280Y-93116873D01*
X99579195Y-93250000D01*
X92000000Y-93250000D01*
X92000000Y-91649999D01*
X171869196Y-91649999D01*
X171869196Y-91650000D01*
X171890281Y-91783127D01*
X171890282Y-91783129D01*
X171943096Y-91886782D01*
X171951472Y-91903220D01*
X172046780Y-91998528D01*
X172166874Y-92059719D01*
X172300000Y-92080804D01*
X172433126Y-92059719D01*
X172553220Y-91998528D01*
X172648528Y-91903220D01*
X172709719Y-91783126D01*
X172730804Y-91650000D01*
X172709719Y-91516874D01*
X172648528Y-91396780D01*
X172553220Y-91301472D01*
X172553217Y-91301470D01*
X172433129Y-91240282D01*
X172433127Y-91240281D01*
X172300000Y-91219196D01*
X172166872Y-91240281D01*
X172166870Y-91240282D01*
X172046782Y-91301470D01*
X171951470Y-91396782D01*
X171890282Y-91516870D01*
X171890281Y-91516872D01*
X171869196Y-91649999D01*
X92000000Y-91649999D01*
X92000000Y-90499999D01*
X149519196Y-90499999D01*
X149519196Y-90500000D01*
X149540281Y-90633127D01*
X149540282Y-90633129D01*
X149599805Y-90749949D01*
X149601472Y-90753220D01*
X149696780Y-90848528D01*
X149816874Y-90909719D01*
X149950000Y-90930804D01*
X150083126Y-90909719D01*
X150203220Y-90848528D01*
X150298528Y-90753220D01*
X150298529Y-90753217D01*
X150304037Y-90747710D01*
X150306276Y-90749949D01*
X150344372Y-90722250D01*
X150405557Y-90722227D01*
X150443732Y-90749940D01*
X150445963Y-90747710D01*
X150451470Y-90753217D01*
X150451472Y-90753220D01*
X150546780Y-90848528D01*
X150666874Y-90909719D01*
X150800000Y-90930804D01*
X150933126Y-90909719D01*
X151053220Y-90848528D01*
X151148528Y-90753220D01*
X151209719Y-90633126D01*
X151230804Y-90500000D01*
X151230804Y-90499999D01*
X159086696Y-90499999D01*
X159086696Y-90500000D01*
X159107781Y-90633127D01*
X159107782Y-90633129D01*
X159167305Y-90749949D01*
X159168972Y-90753220D01*
X159264280Y-90848528D01*
X159384374Y-90909719D01*
X159517500Y-90930804D01*
X159650626Y-90909719D01*
X159770720Y-90848528D01*
X159866028Y-90753220D01*
X159927219Y-90633126D01*
X159948304Y-90500000D01*
X159927219Y-90366874D01*
X159866028Y-90246780D01*
X159770720Y-90151472D01*
X159770717Y-90151470D01*
X159650629Y-90090282D01*
X159650627Y-90090281D01*
X159517500Y-90069196D01*
X159384372Y-90090281D01*
X159384370Y-90090282D01*
X159264282Y-90151470D01*
X159168970Y-90246782D01*
X159107782Y-90366870D01*
X159107781Y-90366872D01*
X159086696Y-90499999D01*
X151230804Y-90499999D01*
X151209719Y-90366874D01*
X151148528Y-90246780D01*
X151053220Y-90151472D01*
X151053217Y-90151470D01*
X150933129Y-90090282D01*
X150933127Y-90090281D01*
X150800000Y-90069196D01*
X150666872Y-90090281D01*
X150666870Y-90090282D01*
X150546782Y-90151470D01*
X150546780Y-90151471D01*
X150546780Y-90151472D01*
X150451472Y-90246780D01*
X150451471Y-90246781D01*
X150445963Y-90252290D01*
X150443726Y-90250053D01*
X150405594Y-90277760D01*
X150344409Y-90277761D01*
X150306272Y-90250054D01*
X150304037Y-90252290D01*
X150298529Y-90246782D01*
X150298528Y-90246780D01*
X150203220Y-90151472D01*
X150203217Y-90151470D01*
X150083129Y-90090282D01*
X150083127Y-90090281D01*
X149950000Y-90069196D01*
X149816872Y-90090281D01*
X149816870Y-90090282D01*
X149696782Y-90151470D01*
X149601470Y-90246782D01*
X149540282Y-90366870D01*
X149540281Y-90366872D01*
X149519196Y-90499999D01*
X92000000Y-90499999D01*
X92000000Y-89849999D01*
X171319196Y-89849999D01*
X171319196Y-89850000D01*
X171340281Y-89983127D01*
X171340282Y-89983129D01*
X171401470Y-90103217D01*
X171401472Y-90103220D01*
X171496780Y-90198528D01*
X171616874Y-90259719D01*
X171750000Y-90280804D01*
X171883126Y-90259719D01*
X171942645Y-90229392D01*
X172003073Y-90219821D01*
X172057590Y-90247597D01*
X172085369Y-90302113D01*
X172085369Y-90302114D01*
X172090281Y-90333127D01*
X172090282Y-90333129D01*
X172107474Y-90366870D01*
X172151472Y-90453220D01*
X172246780Y-90548528D01*
X172366874Y-90609719D01*
X172500000Y-90630804D01*
X172633126Y-90609719D01*
X172753220Y-90548528D01*
X172848528Y-90453220D01*
X172909719Y-90333126D01*
X172930804Y-90200000D01*
X172909719Y-90066874D01*
X172848528Y-89946780D01*
X172753220Y-89851472D01*
X172753217Y-89851470D01*
X172707064Y-89827954D01*
X172663799Y-89784690D01*
X172658305Y-89749999D01*
X174079195Y-89749999D01*
X174079195Y-89750000D01*
X174100280Y-89883127D01*
X174100281Y-89883129D01*
X174151233Y-89983127D01*
X174161471Y-90003220D01*
X174256779Y-90098528D01*
X174376873Y-90159719D01*
X174509999Y-90180804D01*
X174643125Y-90159719D01*
X174763219Y-90098528D01*
X174858527Y-90003220D01*
X174919718Y-89883126D01*
X174940803Y-89750000D01*
X174919718Y-89616874D01*
X174858527Y-89496780D01*
X174763219Y-89401472D01*
X174763216Y-89401470D01*
X174643128Y-89340282D01*
X174643126Y-89340281D01*
X174509999Y-89319196D01*
X174376871Y-89340281D01*
X174376869Y-89340282D01*
X174256781Y-89401470D01*
X174161469Y-89496782D01*
X174100281Y-89616870D01*
X174100280Y-89616872D01*
X174079195Y-89749999D01*
X172658305Y-89749999D01*
X172654228Y-89724258D01*
X172682004Y-89669743D01*
X172748528Y-89603220D01*
X172809719Y-89483126D01*
X172830804Y-89350000D01*
X172809719Y-89216874D01*
X172748528Y-89096780D01*
X172653220Y-89001472D01*
X172653217Y-89001470D01*
X172533129Y-88940282D01*
X172533127Y-88940281D01*
X172400000Y-88919196D01*
X172266872Y-88940281D01*
X172266870Y-88940282D01*
X172146782Y-89001470D01*
X172051470Y-89096782D01*
X171990282Y-89216870D01*
X171990281Y-89216872D01*
X171968627Y-89353589D01*
X171940849Y-89408106D01*
X171886333Y-89435883D01*
X171855359Y-89435883D01*
X171750001Y-89419196D01*
X171750000Y-89419196D01*
X171616872Y-89440281D01*
X171616870Y-89440282D01*
X171496782Y-89501470D01*
X171401470Y-89596782D01*
X171340282Y-89716870D01*
X171340281Y-89716872D01*
X171319196Y-89849999D01*
X92000000Y-89849999D01*
X92000000Y-89349999D01*
X148919196Y-89349999D01*
X148919196Y-89350000D01*
X148940281Y-89483127D01*
X148940282Y-89483129D01*
X149001470Y-89603217D01*
X149001472Y-89603220D01*
X149096780Y-89698528D01*
X149216874Y-89759719D01*
X149350000Y-89780804D01*
X149483126Y-89759719D01*
X149603220Y-89698528D01*
X149698528Y-89603220D01*
X149759719Y-89483126D01*
X149780804Y-89350000D01*
X149759719Y-89216874D01*
X149698528Y-89096780D01*
X149603220Y-89001472D01*
X149603217Y-89001470D01*
X149600330Y-88999999D01*
X163119196Y-88999999D01*
X163119196Y-89000000D01*
X163140281Y-89133127D01*
X163140282Y-89133129D01*
X163201470Y-89253217D01*
X163201472Y-89253220D01*
X163296780Y-89348528D01*
X163416874Y-89409719D01*
X163550000Y-89430804D01*
X163683126Y-89409719D01*
X163803220Y-89348528D01*
X163898528Y-89253220D01*
X163959719Y-89133126D01*
X163980804Y-89000000D01*
X163959719Y-88866874D01*
X163898528Y-88746780D01*
X163803220Y-88651472D01*
X163803217Y-88651470D01*
X163683129Y-88590282D01*
X163683127Y-88590281D01*
X163550000Y-88569196D01*
X163416872Y-88590281D01*
X163416870Y-88590282D01*
X163296782Y-88651470D01*
X163201470Y-88746782D01*
X163140282Y-88866870D01*
X163140281Y-88866872D01*
X163119196Y-88999999D01*
X149600330Y-88999999D01*
X149483129Y-88940282D01*
X149483127Y-88940281D01*
X149350000Y-88919196D01*
X149216872Y-88940281D01*
X149216870Y-88940282D01*
X149096782Y-89001470D01*
X149001470Y-89096782D01*
X148940282Y-89216870D01*
X148940281Y-89216872D01*
X148919196Y-89349999D01*
X92000000Y-89349999D01*
X92000000Y-88099999D01*
X152769196Y-88099999D01*
X152769196Y-88100000D01*
X152790281Y-88233127D01*
X152790282Y-88233129D01*
X152851470Y-88353217D01*
X152851472Y-88353220D01*
X152946780Y-88448528D01*
X153066874Y-88509719D01*
X153200000Y-88530804D01*
X153333126Y-88509719D01*
X153453220Y-88448528D01*
X153548528Y-88353220D01*
X153609719Y-88233126D01*
X153630804Y-88100000D01*
X153609719Y-87966874D01*
X153548528Y-87846780D01*
X153453220Y-87751472D01*
X153453217Y-87751470D01*
X153333129Y-87690282D01*
X153333127Y-87690281D01*
X153200000Y-87669196D01*
X153066872Y-87690281D01*
X153066870Y-87690282D01*
X152946782Y-87751470D01*
X152851470Y-87846782D01*
X152790282Y-87966870D01*
X152790281Y-87966872D01*
X152769196Y-88099999D01*
X92000000Y-88099999D01*
X92000000Y-85699999D01*
X165019196Y-85699999D01*
X165019196Y-85700000D01*
X165040281Y-85833127D01*
X165040282Y-85833129D01*
X165101470Y-85953217D01*
X165101472Y-85953220D01*
X165196780Y-86048528D01*
X165316874Y-86109719D01*
X165450000Y-86130804D01*
X165583126Y-86109719D01*
X165703220Y-86048528D01*
X165798528Y-85953220D01*
X165859719Y-85833126D01*
X165880804Y-85700000D01*
X165864116Y-85594638D01*
X165873687Y-85534208D01*
X165916951Y-85490944D01*
X165946410Y-85481372D01*
X165949998Y-85480803D01*
X165950000Y-85480804D01*
X166083126Y-85459719D01*
X166203220Y-85398528D01*
X166298528Y-85303220D01*
X166359719Y-85183126D01*
X166380804Y-85050000D01*
X166372885Y-84999999D01*
X167019196Y-84999999D01*
X167019196Y-85000000D01*
X167040281Y-85133127D01*
X167040282Y-85133129D01*
X167100581Y-85251472D01*
X167101472Y-85253220D01*
X167196780Y-85348528D01*
X167316874Y-85409719D01*
X167450000Y-85430804D01*
X167457696Y-85432023D01*
X167457416Y-85433788D01*
X167506422Y-85449711D01*
X167542386Y-85499211D01*
X167542386Y-85560396D01*
X167540280Y-85566875D01*
X167519196Y-85699999D01*
X167519196Y-85700000D01*
X167540281Y-85833127D01*
X167540282Y-85833129D01*
X167601470Y-85953217D01*
X167601472Y-85953220D01*
X167696780Y-86048528D01*
X167816874Y-86109719D01*
X167950000Y-86130804D01*
X168083126Y-86109719D01*
X168203220Y-86048528D01*
X168298528Y-85953220D01*
X168359719Y-85833126D01*
X168380804Y-85700000D01*
X168359719Y-85566874D01*
X168298528Y-85446780D01*
X168203220Y-85351472D01*
X168203217Y-85351470D01*
X168083129Y-85290282D01*
X168083127Y-85290281D01*
X167942304Y-85267977D01*
X167942583Y-85266211D01*
X167893578Y-85250289D01*
X167857614Y-85200789D01*
X167857614Y-85139604D01*
X167859718Y-85133127D01*
X167859719Y-85133126D01*
X167880804Y-85000000D01*
X167859719Y-84866874D01*
X167798528Y-84746780D01*
X167703220Y-84651472D01*
X167703217Y-84651470D01*
X167602200Y-84599999D01*
X173779195Y-84599999D01*
X173779195Y-84600000D01*
X173800280Y-84733127D01*
X173800281Y-84733129D01*
X173807237Y-84746780D01*
X173861471Y-84853220D01*
X173956779Y-84948528D01*
X174005939Y-84973576D01*
X174080938Y-85011791D01*
X174124202Y-85055056D01*
X174133773Y-85115488D01*
X174105995Y-85170004D01*
X174080938Y-85188209D01*
X173956780Y-85251471D01*
X173861469Y-85346782D01*
X173800281Y-85466870D01*
X173800280Y-85466872D01*
X173779195Y-85599999D01*
X173779195Y-85600000D01*
X173800280Y-85733127D01*
X173800281Y-85733129D01*
X173851233Y-85833127D01*
X173861471Y-85853220D01*
X173956779Y-85948528D01*
X173965982Y-85953217D01*
X174080938Y-86011791D01*
X174124202Y-86055056D01*
X174133773Y-86115488D01*
X174105995Y-86170004D01*
X174080938Y-86188209D01*
X173956780Y-86251471D01*
X173861469Y-86346782D01*
X173800281Y-86466870D01*
X173800280Y-86466872D01*
X173779195Y-86599999D01*
X173779195Y-86600000D01*
X173800280Y-86733127D01*
X173800281Y-86733129D01*
X173861469Y-86853217D01*
X173861471Y-86853220D01*
X173956779Y-86948528D01*
X174005939Y-86973576D01*
X174080938Y-87011791D01*
X174124202Y-87055056D01*
X174133773Y-87115488D01*
X174105995Y-87170004D01*
X174080938Y-87188209D01*
X173956780Y-87251471D01*
X173861469Y-87346782D01*
X173800281Y-87466870D01*
X173800280Y-87466872D01*
X173779195Y-87599999D01*
X173779195Y-87600000D01*
X173800280Y-87733127D01*
X173800281Y-87733129D01*
X173861469Y-87853217D01*
X173861471Y-87853220D01*
X173956779Y-87948528D01*
X174076873Y-88009719D01*
X174209999Y-88030804D01*
X174343125Y-88009719D01*
X174463219Y-87948528D01*
X174558527Y-87853220D01*
X174619718Y-87733126D01*
X174640803Y-87600000D01*
X174640803Y-87599999D01*
X176709197Y-87599999D01*
X176709197Y-87600000D01*
X176730282Y-87733127D01*
X176730283Y-87733129D01*
X176791471Y-87853217D01*
X176791473Y-87853220D01*
X176886781Y-87948528D01*
X177006875Y-88009719D01*
X177140001Y-88030804D01*
X177273127Y-88009719D01*
X177393221Y-87948528D01*
X177488529Y-87853220D01*
X177549720Y-87733126D01*
X177552219Y-87717346D01*
X177579996Y-87662831D01*
X177634513Y-87635053D01*
X177694945Y-87644624D01*
X177738210Y-87687889D01*
X177747781Y-87717347D01*
X177750280Y-87733127D01*
X177750281Y-87733129D01*
X177811469Y-87853217D01*
X177811471Y-87853220D01*
X177906779Y-87948528D01*
X178026873Y-88009719D01*
X178159999Y-88030804D01*
X178293125Y-88009719D01*
X178413219Y-87948528D01*
X178508527Y-87853220D01*
X178569718Y-87733126D01*
X178590803Y-87600000D01*
X178569718Y-87466874D01*
X178508527Y-87346780D01*
X178413219Y-87251472D01*
X178413216Y-87251470D01*
X178293128Y-87190282D01*
X178293126Y-87190281D01*
X178159999Y-87169196D01*
X178026871Y-87190281D01*
X178026869Y-87190282D01*
X177906781Y-87251470D01*
X177811469Y-87346782D01*
X177750281Y-87466870D01*
X177750280Y-87466872D01*
X177747781Y-87482652D01*
X177720003Y-87537169D01*
X177665487Y-87564946D01*
X177605055Y-87555374D01*
X177561790Y-87512110D01*
X177552219Y-87482652D01*
X177552145Y-87482189D01*
X177549720Y-87466874D01*
X177488529Y-87346780D01*
X177393221Y-87251472D01*
X177393218Y-87251470D01*
X177273130Y-87190282D01*
X177273128Y-87190281D01*
X177140001Y-87169196D01*
X177006873Y-87190281D01*
X177006871Y-87190282D01*
X176886783Y-87251470D01*
X176791471Y-87346782D01*
X176730283Y-87466870D01*
X176730282Y-87466872D01*
X176709197Y-87599999D01*
X174640803Y-87599999D01*
X174619718Y-87466874D01*
X174558527Y-87346780D01*
X174463219Y-87251472D01*
X174463216Y-87251470D01*
X174339060Y-87188209D01*
X174295795Y-87144945D01*
X174286224Y-87084513D01*
X174314002Y-87029996D01*
X174339060Y-87011791D01*
X174412962Y-86974134D01*
X174463219Y-86948528D01*
X174558527Y-86853220D01*
X174619718Y-86733126D01*
X174640803Y-86600000D01*
X174619718Y-86466874D01*
X174558527Y-86346780D01*
X174463219Y-86251472D01*
X174463216Y-86251470D01*
X174339060Y-86188209D01*
X174295795Y-86144945D01*
X174286224Y-86084513D01*
X174314002Y-86029996D01*
X174339060Y-86011791D01*
X174454010Y-85953220D01*
X174463219Y-85948528D01*
X174558527Y-85853220D01*
X174619718Y-85733126D01*
X174640803Y-85600000D01*
X174619718Y-85466874D01*
X174558527Y-85346780D01*
X174463219Y-85251472D01*
X174463216Y-85251470D01*
X174339060Y-85188209D01*
X174295795Y-85144945D01*
X174286224Y-85084513D01*
X174314002Y-85029996D01*
X174339060Y-85011791D01*
X174412962Y-84974134D01*
X174463219Y-84948528D01*
X174558527Y-84853220D01*
X174619718Y-84733126D01*
X174640803Y-84600000D01*
X174640803Y-84599999D01*
X176709197Y-84599999D01*
X176709197Y-84600000D01*
X176730282Y-84733127D01*
X176730283Y-84733129D01*
X176737239Y-84746780D01*
X176791473Y-84853220D01*
X176886781Y-84948528D01*
X177006875Y-85009719D01*
X177140001Y-85030804D01*
X177273127Y-85009719D01*
X177393221Y-84948528D01*
X177488529Y-84853220D01*
X177549720Y-84733126D01*
X177570805Y-84600000D01*
X177549720Y-84466874D01*
X177488529Y-84346780D01*
X177393221Y-84251472D01*
X177393218Y-84251470D01*
X177273130Y-84190282D01*
X177273128Y-84190281D01*
X177140001Y-84169196D01*
X177006873Y-84190281D01*
X177006871Y-84190282D01*
X176886783Y-84251470D01*
X176791471Y-84346782D01*
X176730283Y-84466870D01*
X176730282Y-84466872D01*
X176709197Y-84599999D01*
X174640803Y-84599999D01*
X174619718Y-84466874D01*
X174558527Y-84346780D01*
X174463219Y-84251472D01*
X174463216Y-84251470D01*
X174343128Y-84190282D01*
X174343126Y-84190281D01*
X174209999Y-84169196D01*
X174076871Y-84190281D01*
X174076869Y-84190282D01*
X173956781Y-84251470D01*
X173861469Y-84346782D01*
X173800281Y-84466870D01*
X173800280Y-84466872D01*
X173779195Y-84599999D01*
X167602200Y-84599999D01*
X167583129Y-84590282D01*
X167583127Y-84590281D01*
X167450000Y-84569196D01*
X167316872Y-84590281D01*
X167316870Y-84590282D01*
X167196782Y-84651470D01*
X167101470Y-84746782D01*
X167040282Y-84866870D01*
X167040281Y-84866872D01*
X167019196Y-84999999D01*
X166372885Y-84999999D01*
X166359719Y-84916874D01*
X166298528Y-84796780D01*
X166203220Y-84701472D01*
X166203217Y-84701470D01*
X166083129Y-84640282D01*
X166083127Y-84640281D01*
X165950000Y-84619196D01*
X165816872Y-84640281D01*
X165816870Y-84640282D01*
X165696782Y-84701470D01*
X165601470Y-84796782D01*
X165540282Y-84916870D01*
X165540281Y-84916872D01*
X165519196Y-85049999D01*
X165519196Y-85050000D01*
X165535883Y-85155359D01*
X165526312Y-85215791D01*
X165483047Y-85259056D01*
X165453589Y-85268627D01*
X165316872Y-85290281D01*
X165316870Y-85290282D01*
X165196782Y-85351470D01*
X165101470Y-85446782D01*
X165040282Y-85566870D01*
X165040281Y-85566872D01*
X165019196Y-85699999D01*
X92000000Y-85699999D01*
X92000000Y-83999999D01*
X177729195Y-83999999D01*
X177729195Y-84000000D01*
X177750280Y-84133127D01*
X177750281Y-84133129D01*
X177779402Y-84190282D01*
X177811471Y-84253220D01*
X177906779Y-84348528D01*
X178026873Y-84409719D01*
X178159999Y-84430804D01*
X178293125Y-84409719D01*
X178413219Y-84348528D01*
X178508527Y-84253220D01*
X178569718Y-84133126D01*
X178590803Y-84000000D01*
X178569718Y-83866874D01*
X178508527Y-83746780D01*
X178413219Y-83651472D01*
X178413216Y-83651470D01*
X178293128Y-83590282D01*
X178293126Y-83590281D01*
X178159999Y-83569196D01*
X178026871Y-83590281D01*
X178026869Y-83590282D01*
X177906781Y-83651470D01*
X177811469Y-83746782D01*
X177750281Y-83866870D01*
X177750280Y-83866872D01*
X177729195Y-83999999D01*
X92000000Y-83999999D01*
X92000000Y-83149999D01*
X151719196Y-83149999D01*
X151719196Y-83150000D01*
X151740281Y-83283127D01*
X151740282Y-83283129D01*
X151801470Y-83403217D01*
X151801472Y-83403220D01*
X151896780Y-83498528D01*
X152016874Y-83559719D01*
X152150000Y-83580804D01*
X152283126Y-83559719D01*
X152403220Y-83498528D01*
X152498528Y-83403220D01*
X152559719Y-83283126D01*
X152580804Y-83150000D01*
X152580804Y-83149999D01*
X153019196Y-83149999D01*
X153019196Y-83150000D01*
X153040281Y-83283127D01*
X153040282Y-83283129D01*
X153101470Y-83403217D01*
X153101472Y-83403220D01*
X153196780Y-83498528D01*
X153316874Y-83559719D01*
X153450000Y-83580804D01*
X153583126Y-83559719D01*
X153703220Y-83498528D01*
X153798528Y-83403220D01*
X153859719Y-83283126D01*
X153880804Y-83150000D01*
X153859719Y-83016874D01*
X153798528Y-82896780D01*
X153703220Y-82801472D01*
X153703217Y-82801470D01*
X153583129Y-82740282D01*
X153583127Y-82740281D01*
X153450000Y-82719196D01*
X153316872Y-82740281D01*
X153316870Y-82740282D01*
X153196782Y-82801470D01*
X153101470Y-82896782D01*
X153040282Y-83016870D01*
X153040281Y-83016872D01*
X153019196Y-83149999D01*
X152580804Y-83149999D01*
X152559719Y-83016874D01*
X152498528Y-82896780D01*
X152403220Y-82801472D01*
X152403217Y-82801470D01*
X152283129Y-82740282D01*
X152283127Y-82740281D01*
X152150000Y-82719196D01*
X152016872Y-82740281D01*
X152016870Y-82740282D01*
X151896782Y-82801470D01*
X151801470Y-82896782D01*
X151740282Y-83016870D01*
X151740281Y-83016872D01*
X151719196Y-83149999D01*
X92000000Y-83149999D01*
X92000000Y-80039999D01*
X99795480Y-80039999D01*
X99795480Y-80040000D01*
X99816565Y-80173127D01*
X99816566Y-80173129D01*
X99863377Y-80265000D01*
X99877756Y-80293220D01*
X99973064Y-80388528D01*
X100093158Y-80449719D01*
X100226284Y-80470804D01*
X100359410Y-80449719D01*
X100479504Y-80388528D01*
X100574812Y-80293220D01*
X100589192Y-80264997D01*
X110994451Y-80264997D01*
X110994451Y-80265002D01*
X111014616Y-80534098D01*
X111014618Y-80534107D01*
X111074666Y-80797197D01*
X111165672Y-81029072D01*
X111173257Y-81048398D01*
X111308185Y-81282102D01*
X111308189Y-81282108D01*
X111308191Y-81282110D01*
X111476434Y-81493081D01*
X111476440Y-81493087D01*
X111674252Y-81676629D01*
X111674254Y-81676630D01*
X111674259Y-81676635D01*
X111897226Y-81828651D01*
X112140359Y-81945738D01*
X112398228Y-82025280D01*
X112665071Y-82065500D01*
X112665076Y-82065500D01*
X112934924Y-82065500D01*
X112934929Y-82065500D01*
X113201772Y-82025280D01*
X113459641Y-81945738D01*
X113702775Y-81828651D01*
X113925741Y-81676635D01*
X114123561Y-81493085D01*
X114123565Y-81493081D01*
X114218855Y-81373589D01*
X114291815Y-81282102D01*
X114414264Y-81070011D01*
X114459733Y-81029072D01*
X114520583Y-81022676D01*
X114573571Y-81053269D01*
X114585733Y-81070008D01*
X114708185Y-81282102D01*
X114708189Y-81282108D01*
X114708191Y-81282110D01*
X114876434Y-81493081D01*
X114876440Y-81493087D01*
X115074252Y-81676629D01*
X115074254Y-81676630D01*
X115074259Y-81676635D01*
X115297226Y-81828651D01*
X115540359Y-81945738D01*
X115798228Y-82025280D01*
X116065071Y-82065500D01*
X116065076Y-82065500D01*
X116334924Y-82065500D01*
X116334929Y-82065500D01*
X116601772Y-82025280D01*
X116859641Y-81945738D01*
X117102775Y-81828651D01*
X117325741Y-81676635D01*
X117523561Y-81493085D01*
X117523565Y-81493081D01*
X117618855Y-81373589D01*
X117691815Y-81282102D01*
X117826743Y-81048398D01*
X117925334Y-80797195D01*
X117985383Y-80534103D01*
X118003434Y-80293220D01*
X118005549Y-80265002D01*
X118005549Y-80264997D01*
X117985383Y-79995901D01*
X117985383Y-79995897D01*
X117925334Y-79732805D01*
X117826743Y-79481602D01*
X117691815Y-79247898D01*
X117670789Y-79221532D01*
X154449500Y-79221532D01*
X154449500Y-79678467D01*
X154489869Y-79881418D01*
X154569058Y-80072597D01*
X154684020Y-80244651D01*
X154684023Y-80244655D01*
X154830345Y-80390977D01*
X155002402Y-80505941D01*
X155193580Y-80585130D01*
X155396535Y-80625500D01*
X155396536Y-80625500D01*
X155603464Y-80625500D01*
X155603465Y-80625500D01*
X155806420Y-80585130D01*
X155997598Y-80505941D01*
X156169655Y-80390977D01*
X156315977Y-80244655D01*
X156430941Y-80072598D01*
X156510130Y-79881420D01*
X156550500Y-79678465D01*
X156550500Y-79221535D01*
X156550499Y-79221532D01*
X156949500Y-79221532D01*
X156949500Y-79678467D01*
X156989869Y-79881418D01*
X157069058Y-80072597D01*
X157184020Y-80244651D01*
X157184023Y-80244655D01*
X157330345Y-80390977D01*
X157502402Y-80505941D01*
X157693580Y-80585130D01*
X157896535Y-80625500D01*
X157896536Y-80625500D01*
X158103464Y-80625500D01*
X158103465Y-80625500D01*
X158306420Y-80585130D01*
X158497598Y-80505941D01*
X158669655Y-80390977D01*
X158815977Y-80244655D01*
X158930941Y-80072598D01*
X159010130Y-79881420D01*
X159050500Y-79678465D01*
X159050500Y-79221535D01*
X159050499Y-79221532D01*
X159449500Y-79221532D01*
X159449500Y-79678467D01*
X159489869Y-79881418D01*
X159569058Y-80072597D01*
X159684020Y-80244651D01*
X159684023Y-80244655D01*
X159830345Y-80390977D01*
X160002402Y-80505941D01*
X160193580Y-80585130D01*
X160396535Y-80625500D01*
X160396536Y-80625500D01*
X160603464Y-80625500D01*
X160603465Y-80625500D01*
X160806420Y-80585130D01*
X160997598Y-80505941D01*
X161169655Y-80390977D01*
X161315977Y-80244655D01*
X161430941Y-80072598D01*
X161510130Y-79881420D01*
X161550500Y-79678465D01*
X161550500Y-79221535D01*
X161550499Y-79221532D01*
X161949500Y-79221532D01*
X161949500Y-79678467D01*
X161989869Y-79881418D01*
X162069058Y-80072597D01*
X162184020Y-80244651D01*
X162184023Y-80244655D01*
X162330345Y-80390977D01*
X162502402Y-80505941D01*
X162693580Y-80585130D01*
X162896535Y-80625500D01*
X162896536Y-80625500D01*
X163103464Y-80625500D01*
X163103465Y-80625500D01*
X163306420Y-80585130D01*
X163497598Y-80505941D01*
X163669655Y-80390977D01*
X163815977Y-80244655D01*
X163930941Y-80072598D01*
X164010130Y-79881420D01*
X164050500Y-79678465D01*
X164050500Y-79221535D01*
X164050499Y-79221532D01*
X164449500Y-79221532D01*
X164449500Y-79678467D01*
X164489869Y-79881418D01*
X164569058Y-80072597D01*
X164684020Y-80244651D01*
X164684023Y-80244655D01*
X164830345Y-80390977D01*
X165002402Y-80505941D01*
X165193580Y-80585130D01*
X165396535Y-80625500D01*
X165396536Y-80625500D01*
X165603464Y-80625500D01*
X165603465Y-80625500D01*
X165806420Y-80585130D01*
X165997598Y-80505941D01*
X166169655Y-80390977D01*
X166315977Y-80244655D01*
X166430941Y-80072598D01*
X166510130Y-79881420D01*
X166550500Y-79678465D01*
X166550500Y-79221535D01*
X166550499Y-79221532D01*
X166949500Y-79221532D01*
X166949500Y-79678467D01*
X166989869Y-79881418D01*
X167069058Y-80072597D01*
X167184020Y-80244651D01*
X167184023Y-80244655D01*
X167330345Y-80390977D01*
X167502402Y-80505941D01*
X167693580Y-80585130D01*
X167896535Y-80625500D01*
X167896536Y-80625500D01*
X168103464Y-80625500D01*
X168103465Y-80625500D01*
X168306420Y-80585130D01*
X168497598Y-80505941D01*
X168669655Y-80390977D01*
X168815977Y-80244655D01*
X168930941Y-80072598D01*
X169010130Y-79881420D01*
X169050500Y-79678465D01*
X169050500Y-79221535D01*
X169010130Y-79018580D01*
X168930941Y-78827402D01*
X168826254Y-78670725D01*
X169449500Y-78670725D01*
X169449500Y-80229274D01*
X169452353Y-80259694D01*
X169452355Y-80259703D01*
X169497207Y-80387883D01*
X169577845Y-80497144D01*
X169577847Y-80497146D01*
X169577850Y-80497150D01*
X169577853Y-80497152D01*
X169577855Y-80497154D01*
X169687116Y-80577792D01*
X169687117Y-80577792D01*
X169687118Y-80577793D01*
X169815301Y-80622646D01*
X169845725Y-80625499D01*
X169845727Y-80625500D01*
X169845734Y-80625500D01*
X171154273Y-80625500D01*
X171154273Y-80625499D01*
X171184699Y-80622646D01*
X171312882Y-80577793D01*
X171422150Y-80497150D01*
X171502793Y-80387882D01*
X171547646Y-80259699D01*
X171550499Y-80229273D01*
X171550500Y-80229273D01*
X171550500Y-78670727D01*
X171550499Y-78670725D01*
X171547646Y-78640305D01*
X171547646Y-78640301D01*
X171502793Y-78512118D01*
X171497333Y-78504720D01*
X171422154Y-78402855D01*
X171422152Y-78402853D01*
X171422150Y-78402850D01*
X171422146Y-78402847D01*
X171422144Y-78402845D01*
X171312883Y-78322207D01*
X171184703Y-78277355D01*
X171184694Y-78277353D01*
X171154274Y-78274500D01*
X171154266Y-78274500D01*
X169845734Y-78274500D01*
X169845725Y-78274500D01*
X169815305Y-78277353D01*
X169815296Y-78277355D01*
X169687116Y-78322207D01*
X169577855Y-78402845D01*
X169577845Y-78402855D01*
X169497207Y-78512116D01*
X169452355Y-78640296D01*
X169452353Y-78640305D01*
X169449500Y-78670725D01*
X168826254Y-78670725D01*
X168815977Y-78655345D01*
X168669655Y-78509023D01*
X168663217Y-78504721D01*
X168497597Y-78394058D01*
X168306418Y-78314869D01*
X168103467Y-78274500D01*
X168103465Y-78274500D01*
X167896535Y-78274500D01*
X167896532Y-78274500D01*
X167693581Y-78314869D01*
X167502402Y-78394058D01*
X167330348Y-78509020D01*
X167184020Y-78655348D01*
X167069058Y-78827402D01*
X166989869Y-79018581D01*
X166949500Y-79221532D01*
X166550499Y-79221532D01*
X166510130Y-79018580D01*
X166430941Y-78827402D01*
X166315977Y-78655345D01*
X166169655Y-78509023D01*
X166163217Y-78504721D01*
X165997597Y-78394058D01*
X165806418Y-78314869D01*
X165603467Y-78274500D01*
X165603465Y-78274500D01*
X165396535Y-78274500D01*
X165396532Y-78274500D01*
X165193581Y-78314869D01*
X165002402Y-78394058D01*
X164830348Y-78509020D01*
X164684020Y-78655348D01*
X164569058Y-78827402D01*
X164489869Y-79018581D01*
X164449500Y-79221532D01*
X164050499Y-79221532D01*
X164010130Y-79018580D01*
X163930941Y-78827402D01*
X163815977Y-78655345D01*
X163669655Y-78509023D01*
X163663217Y-78504721D01*
X163497597Y-78394058D01*
X163306418Y-78314869D01*
X163103467Y-78274500D01*
X163103465Y-78274500D01*
X162896535Y-78274500D01*
X162896532Y-78274500D01*
X162693581Y-78314869D01*
X162502402Y-78394058D01*
X162330348Y-78509020D01*
X162184020Y-78655348D01*
X162069058Y-78827402D01*
X161989869Y-79018581D01*
X161949500Y-79221532D01*
X161550499Y-79221532D01*
X161510130Y-79018580D01*
X161430941Y-78827402D01*
X161315977Y-78655345D01*
X161169655Y-78509023D01*
X161163217Y-78504721D01*
X160997597Y-78394058D01*
X160806418Y-78314869D01*
X160603467Y-78274500D01*
X160603465Y-78274500D01*
X160396535Y-78274500D01*
X160396532Y-78274500D01*
X160193581Y-78314869D01*
X160002402Y-78394058D01*
X159830348Y-78509020D01*
X159684020Y-78655348D01*
X159569058Y-78827402D01*
X159489869Y-79018581D01*
X159449500Y-79221532D01*
X159050499Y-79221532D01*
X159010130Y-79018580D01*
X158930941Y-78827402D01*
X158815977Y-78655345D01*
X158669655Y-78509023D01*
X158663217Y-78504721D01*
X158497597Y-78394058D01*
X158306418Y-78314869D01*
X158103467Y-78274500D01*
X158103465Y-78274500D01*
X157896535Y-78274500D01*
X157896532Y-78274500D01*
X157693581Y-78314869D01*
X157502402Y-78394058D01*
X157330348Y-78509020D01*
X157184020Y-78655348D01*
X157069058Y-78827402D01*
X156989869Y-79018581D01*
X156949500Y-79221532D01*
X156550499Y-79221532D01*
X156510130Y-79018580D01*
X156430941Y-78827402D01*
X156315977Y-78655345D01*
X156169655Y-78509023D01*
X156163217Y-78504721D01*
X155997597Y-78394058D01*
X155806418Y-78314869D01*
X155603467Y-78274500D01*
X155603465Y-78274500D01*
X155396535Y-78274500D01*
X155396532Y-78274500D01*
X155193581Y-78314869D01*
X155002402Y-78394058D01*
X154830348Y-78509020D01*
X154684020Y-78655348D01*
X154569058Y-78827402D01*
X154489869Y-79018581D01*
X154449500Y-79221532D01*
X117670789Y-79221532D01*
X117523565Y-79036918D01*
X117523559Y-79036912D01*
X117325747Y-78853370D01*
X117325744Y-78853368D01*
X117325741Y-78853365D01*
X117102775Y-78701349D01*
X117102767Y-78701345D01*
X116859643Y-78584262D01*
X116601776Y-78504721D01*
X116601773Y-78504720D01*
X116601772Y-78504720D01*
X116601767Y-78504719D01*
X116601766Y-78504719D01*
X116334932Y-78464500D01*
X116334929Y-78464500D01*
X116065071Y-78464500D01*
X116065067Y-78464500D01*
X115798233Y-78504719D01*
X115798223Y-78504721D01*
X115540358Y-78584262D01*
X115297233Y-78701345D01*
X115297229Y-78701347D01*
X115297226Y-78701349D01*
X115074259Y-78853365D01*
X115074252Y-78853370D01*
X114876440Y-79036912D01*
X114876434Y-79036918D01*
X114708191Y-79247889D01*
X114708187Y-79247894D01*
X114585737Y-79459986D01*
X114540267Y-79500927D01*
X114479417Y-79507323D01*
X114426429Y-79476730D01*
X114414263Y-79459986D01*
X114398756Y-79433127D01*
X114291815Y-79247898D01*
X114270789Y-79221532D01*
X114123565Y-79036918D01*
X114123559Y-79036912D01*
X113925747Y-78853370D01*
X113925744Y-78853368D01*
X113925741Y-78853365D01*
X113702775Y-78701349D01*
X113702767Y-78701345D01*
X113459643Y-78584262D01*
X113201776Y-78504721D01*
X113201773Y-78504720D01*
X113201772Y-78504720D01*
X113201767Y-78504719D01*
X113201766Y-78504719D01*
X112934932Y-78464500D01*
X112934929Y-78464500D01*
X112665071Y-78464500D01*
X112665067Y-78464500D01*
X112398233Y-78504719D01*
X112398223Y-78504721D01*
X112140358Y-78584262D01*
X111897233Y-78701345D01*
X111897229Y-78701347D01*
X111897226Y-78701349D01*
X111674259Y-78853365D01*
X111674252Y-78853370D01*
X111476440Y-79036912D01*
X111476434Y-79036918D01*
X111308191Y-79247889D01*
X111308187Y-79247894D01*
X111308185Y-79247898D01*
X111270371Y-79313395D01*
X111173258Y-79481599D01*
X111173254Y-79481608D01*
X111074666Y-79732802D01*
X111014618Y-79995892D01*
X111014616Y-79995901D01*
X110994451Y-80264997D01*
X100589192Y-80264997D01*
X100636003Y-80173126D01*
X100657088Y-80040000D01*
X100636003Y-79906874D01*
X100574812Y-79786780D01*
X100479504Y-79691472D01*
X100479501Y-79691470D01*
X100359413Y-79630282D01*
X100359411Y-79630281D01*
X100226284Y-79609196D01*
X100093156Y-79630281D01*
X100093154Y-79630282D01*
X99973066Y-79691470D01*
X99877754Y-79786782D01*
X99816566Y-79906870D01*
X99816565Y-79906872D01*
X99795480Y-80039999D01*
X92000000Y-80039999D01*
X92000000Y-78000000D01*
X93994390Y-78000000D01*
X94014803Y-78285422D01*
X94014803Y-78285425D01*
X94014804Y-78285428D01*
X94040348Y-78402850D01*
X94075632Y-78565050D01*
X94175633Y-78833162D01*
X94175634Y-78833164D01*
X94286893Y-79036918D01*
X94312774Y-79084315D01*
X94374577Y-79166874D01*
X94474233Y-79300000D01*
X94484261Y-79313395D01*
X94686605Y-79515739D01*
X94915685Y-79687226D01*
X95166839Y-79824367D01*
X95434954Y-79924369D01*
X95714572Y-79985196D01*
X96000000Y-80005610D01*
X96285428Y-79985196D01*
X96565046Y-79924369D01*
X96833161Y-79824367D01*
X97084315Y-79687226D01*
X97313395Y-79515739D01*
X97515739Y-79313395D01*
X97525767Y-79299999D01*
X100770480Y-79299999D01*
X100770480Y-79300000D01*
X100791565Y-79433127D01*
X100791566Y-79433129D01*
X100826111Y-79500927D01*
X100852756Y-79553220D01*
X100948064Y-79648528D01*
X101068158Y-79709719D01*
X101201284Y-79730804D01*
X101334410Y-79709719D01*
X101454504Y-79648528D01*
X101549812Y-79553220D01*
X101611003Y-79433126D01*
X101632088Y-79300000D01*
X101611003Y-79166874D01*
X101549812Y-79046780D01*
X101454504Y-78951472D01*
X101454501Y-78951470D01*
X101334413Y-78890282D01*
X101334411Y-78890281D01*
X101201284Y-78869196D01*
X101068156Y-78890281D01*
X101068154Y-78890282D01*
X100948066Y-78951470D01*
X100852754Y-79046782D01*
X100791566Y-79166870D01*
X100791565Y-79166872D01*
X100770480Y-79299999D01*
X97525767Y-79299999D01*
X97687226Y-79084315D01*
X97824367Y-78833161D01*
X97924369Y-78565046D01*
X97985196Y-78285428D01*
X98005610Y-78000000D01*
X175994390Y-78000000D01*
X176014803Y-78285422D01*
X176014803Y-78285425D01*
X176014804Y-78285428D01*
X176040348Y-78402850D01*
X176075632Y-78565050D01*
X176175633Y-78833162D01*
X176175634Y-78833164D01*
X176286893Y-79036918D01*
X176312774Y-79084315D01*
X176374577Y-79166874D01*
X176474233Y-79300000D01*
X176484261Y-79313395D01*
X176686605Y-79515739D01*
X176915685Y-79687226D01*
X177166839Y-79824367D01*
X177434954Y-79924369D01*
X177714572Y-79985196D01*
X178000000Y-80005610D01*
X178285428Y-79985196D01*
X178565046Y-79924369D01*
X178833161Y-79824367D01*
X179084315Y-79687226D01*
X179313395Y-79515739D01*
X179515739Y-79313395D01*
X179687226Y-79084315D01*
X179824367Y-78833161D01*
X179924369Y-78565046D01*
X179985196Y-78285428D01*
X180005610Y-78000000D01*
X179985196Y-77714572D01*
X179924369Y-77434954D01*
X179824367Y-77166839D01*
X179687226Y-76915685D01*
X179515739Y-76686605D01*
X179313395Y-76484261D01*
X179084315Y-76312774D01*
X179084310Y-76312771D01*
X178833164Y-76175634D01*
X178833162Y-76175633D01*
X178565050Y-76075632D01*
X178565046Y-76075631D01*
X178285428Y-76014804D01*
X178285425Y-76014803D01*
X178285422Y-76014803D01*
X178000000Y-75994390D01*
X177714577Y-76014803D01*
X177714572Y-76014803D01*
X177714572Y-76014804D01*
X177574763Y-76045217D01*
X177434949Y-76075632D01*
X177166837Y-76175633D01*
X177166835Y-76175634D01*
X176915689Y-76312771D01*
X176686609Y-76484257D01*
X176484257Y-76686609D01*
X176312771Y-76915689D01*
X176175634Y-77166835D01*
X176175633Y-77166837D01*
X176075632Y-77434949D01*
X176014803Y-77714577D01*
X175994390Y-78000000D01*
X98005610Y-78000000D01*
X97985196Y-77714572D01*
X97924369Y-77434954D01*
X97824367Y-77166839D01*
X97687226Y-76915685D01*
X97515739Y-76686605D01*
X97313395Y-76484261D01*
X97084315Y-76312774D01*
X97084310Y-76312771D01*
X96833164Y-76175634D01*
X96833162Y-76175633D01*
X96737629Y-76140001D01*
X151469196Y-76140001D01*
X151469196Y-76140002D01*
X151490281Y-76273129D01*
X151490282Y-76273131D01*
X151551470Y-76393219D01*
X151551472Y-76393222D01*
X151646780Y-76488530D01*
X151766874Y-76549721D01*
X151782189Y-76552146D01*
X151782652Y-76552220D01*
X151837169Y-76579998D01*
X151864946Y-76634514D01*
X151855374Y-76694946D01*
X151812110Y-76738211D01*
X151782652Y-76747782D01*
X151766872Y-76750281D01*
X151766870Y-76750282D01*
X151646782Y-76811470D01*
X151551470Y-76906782D01*
X151490282Y-77026870D01*
X151490281Y-77026872D01*
X151469196Y-77159999D01*
X151469196Y-77160000D01*
X151490281Y-77293127D01*
X151490282Y-77293129D01*
X151551470Y-77413217D01*
X151551472Y-77413220D01*
X151646780Y-77508528D01*
X151766874Y-77569719D01*
X151900000Y-77590804D01*
X152033126Y-77569719D01*
X152153220Y-77508528D01*
X152248528Y-77413220D01*
X152309719Y-77293126D01*
X152330804Y-77160000D01*
X152309719Y-77026874D01*
X152248528Y-76906780D01*
X152153220Y-76811472D01*
X152153217Y-76811470D01*
X152033129Y-76750282D01*
X152033127Y-76750281D01*
X152024687Y-76748944D01*
X152017346Y-76747781D01*
X151962831Y-76720005D01*
X151935053Y-76665488D01*
X151944624Y-76605056D01*
X151987889Y-76561791D01*
X152017346Y-76552220D01*
X152033126Y-76549721D01*
X152153220Y-76488530D01*
X152248528Y-76393222D01*
X152309719Y-76273128D01*
X152329221Y-76149999D01*
X153969197Y-76149999D01*
X153969197Y-76150000D01*
X153990282Y-76283127D01*
X153990283Y-76283129D01*
X154051471Y-76403217D01*
X154051473Y-76403220D01*
X154146781Y-76498528D01*
X154266875Y-76559719D01*
X154314224Y-76567218D01*
X154368741Y-76594995D01*
X154396519Y-76649511D01*
X154386948Y-76709943D01*
X154343684Y-76753208D01*
X154314226Y-76762780D01*
X154266873Y-76770280D01*
X154266871Y-76770281D01*
X154146783Y-76831469D01*
X154051471Y-76926781D01*
X153990283Y-77046869D01*
X153990282Y-77046871D01*
X153969197Y-77179998D01*
X153969197Y-77179999D01*
X153990282Y-77313126D01*
X153990283Y-77313128D01*
X154041281Y-77413217D01*
X154051473Y-77433219D01*
X154146781Y-77528527D01*
X154266875Y-77589718D01*
X154400001Y-77610803D01*
X154533127Y-77589718D01*
X154653221Y-77528527D01*
X154748529Y-77433219D01*
X154809720Y-77313125D01*
X154830805Y-77179999D01*
X154827637Y-77160000D01*
X154826836Y-77154944D01*
X154809720Y-77046873D01*
X154748529Y-76926779D01*
X154653221Y-76831471D01*
X154653218Y-76831469D01*
X154533130Y-76770281D01*
X154533128Y-76770280D01*
X154485775Y-76762780D01*
X154431259Y-76735002D01*
X154403482Y-76680485D01*
X154413054Y-76620053D01*
X154456319Y-76576789D01*
X154485774Y-76567218D01*
X154533127Y-76559719D01*
X154653221Y-76498528D01*
X154748529Y-76403220D01*
X154809720Y-76283126D01*
X154830805Y-76150000D01*
X154829221Y-76140002D01*
X154819026Y-76075631D01*
X154809720Y-76016874D01*
X154748529Y-75896780D01*
X154653221Y-75801472D01*
X154653218Y-75801470D01*
X154533130Y-75740282D01*
X154533128Y-75740281D01*
X154400001Y-75719196D01*
X154266873Y-75740281D01*
X154266871Y-75740282D01*
X154146783Y-75801470D01*
X154051471Y-75896782D01*
X153990283Y-76016870D01*
X153990282Y-76016872D01*
X153969197Y-76149999D01*
X152329221Y-76149999D01*
X152330804Y-76140002D01*
X152309719Y-76006876D01*
X152248528Y-75886782D01*
X152153220Y-75791474D01*
X152153217Y-75791472D01*
X152033129Y-75730284D01*
X152033127Y-75730283D01*
X151900000Y-75709198D01*
X151766872Y-75730283D01*
X151766870Y-75730284D01*
X151646782Y-75791472D01*
X151551470Y-75886784D01*
X151490282Y-76006872D01*
X151490281Y-76006874D01*
X151469196Y-76140001D01*
X96737629Y-76140001D01*
X96565050Y-76075632D01*
X96565046Y-76075631D01*
X96285428Y-76014804D01*
X96285425Y-76014803D01*
X96285422Y-76014803D01*
X96000000Y-75994390D01*
X95714577Y-76014803D01*
X95714572Y-76014803D01*
X95714572Y-76014804D01*
X95574763Y-76045217D01*
X95434949Y-76075632D01*
X95166837Y-76175633D01*
X95166835Y-76175634D01*
X94915689Y-76312771D01*
X94686609Y-76484257D01*
X94484257Y-76686609D01*
X94312771Y-76915689D01*
X94175634Y-77166835D01*
X94175633Y-77166837D01*
X94075632Y-77434949D01*
X94014803Y-77714577D01*
X93994390Y-78000000D01*
X92000000Y-78000000D01*
X92000000Y-75299999D01*
X121569195Y-75299999D01*
X121569195Y-75300000D01*
X121590280Y-75433127D01*
X121590281Y-75433129D01*
X121651469Y-75553217D01*
X121651471Y-75553220D01*
X121746779Y-75648528D01*
X121866873Y-75709719D01*
X121999999Y-75730804D01*
X122133125Y-75709719D01*
X122253219Y-75648528D01*
X122348527Y-75553220D01*
X122409718Y-75433126D01*
X122409718Y-75433123D01*
X122411789Y-75429060D01*
X122455054Y-75385795D01*
X122515486Y-75376224D01*
X122570003Y-75404002D01*
X122588208Y-75429059D01*
X122649920Y-75550174D01*
X122651472Y-75553220D01*
X122746780Y-75648528D01*
X122866874Y-75709719D01*
X123000000Y-75730804D01*
X123133126Y-75709719D01*
X123253220Y-75648528D01*
X123348528Y-75553220D01*
X123374134Y-75502963D01*
X123411791Y-75429061D01*
X123455055Y-75385796D01*
X123515487Y-75376225D01*
X123570004Y-75404003D01*
X123588209Y-75429061D01*
X123651470Y-75553217D01*
X123651472Y-75553220D01*
X123746780Y-75648528D01*
X123866874Y-75709719D01*
X124000000Y-75730804D01*
X124133126Y-75709719D01*
X124253220Y-75648528D01*
X124348528Y-75553220D01*
X124409719Y-75433126D01*
X124430804Y-75300000D01*
X124409719Y-75166874D01*
X124348528Y-75046780D01*
X124253220Y-74951472D01*
X124253217Y-74951470D01*
X124129061Y-74888209D01*
X124085796Y-74844945D01*
X124076225Y-74784513D01*
X124104003Y-74729996D01*
X124129061Y-74711791D01*
X124202963Y-74674134D01*
X124253220Y-74648528D01*
X124348528Y-74553220D01*
X124409719Y-74433126D01*
X124430804Y-74300000D01*
X124409719Y-74166874D01*
X124409718Y-74166872D01*
X124409717Y-74166870D01*
X124348529Y-74046782D01*
X124348528Y-74046780D01*
X124253220Y-73951472D01*
X124250486Y-73950079D01*
X124129383Y-73888373D01*
X124086119Y-73845108D01*
X124076548Y-73784676D01*
X124104326Y-73730160D01*
X124138561Y-73707852D01*
X124212401Y-73679247D01*
X124401562Y-73562124D01*
X124565981Y-73412236D01*
X124700058Y-73234689D01*
X124799229Y-73035528D01*
X124860115Y-72821536D01*
X124880643Y-72600000D01*
X125444357Y-72600000D01*
X125464885Y-72821536D01*
X125525771Y-73035528D01*
X125624942Y-73234689D01*
X125759019Y-73412236D01*
X125923438Y-73562124D01*
X126112599Y-73679247D01*
X126320060Y-73759618D01*
X126538757Y-73800500D01*
X126761243Y-73800500D01*
X126979940Y-73759618D01*
X127187401Y-73679247D01*
X127376562Y-73562124D01*
X127540981Y-73412236D01*
X127675058Y-73234689D01*
X127774229Y-73035528D01*
X127835115Y-72821536D01*
X127855643Y-72600000D01*
X143606857Y-72600000D01*
X143627385Y-72821536D01*
X143688271Y-73035528D01*
X143787442Y-73234689D01*
X143921519Y-73412236D01*
X144085938Y-73562124D01*
X144275099Y-73679247D01*
X144482560Y-73759618D01*
X144701257Y-73800500D01*
X144923743Y-73800500D01*
X145142440Y-73759618D01*
X145349901Y-73679247D01*
X145539062Y-73562124D01*
X145703481Y-73412236D01*
X145837558Y-73234689D01*
X145936729Y-73035528D01*
X145997615Y-72821536D01*
X146018143Y-72600000D01*
X146581857Y-72600000D01*
X146602385Y-72821536D01*
X146663271Y-73035528D01*
X146762442Y-73234689D01*
X146896519Y-73412236D01*
X147060938Y-73562124D01*
X147250099Y-73679247D01*
X147345235Y-73716103D01*
X147392665Y-73754754D01*
X147408319Y-73813903D01*
X147386216Y-73870956D01*
X147354417Y-73896626D01*
X147246781Y-73951470D01*
X147151470Y-74046781D01*
X147090282Y-74166869D01*
X147090281Y-74166871D01*
X147069196Y-74299998D01*
X147069196Y-74299999D01*
X147090281Y-74433126D01*
X147090282Y-74433128D01*
X147090283Y-74433129D01*
X147151472Y-74553219D01*
X147246780Y-74648527D01*
X147246782Y-74648528D01*
X147370939Y-74711790D01*
X147414204Y-74755054D01*
X147423775Y-74815486D01*
X147395997Y-74870003D01*
X147370940Y-74888208D01*
X147246780Y-74951471D01*
X147151469Y-75046782D01*
X147090281Y-75166870D01*
X147090280Y-75166872D01*
X147069195Y-75299999D01*
X147069195Y-75300000D01*
X147090280Y-75433127D01*
X147090281Y-75433129D01*
X147151469Y-75553217D01*
X147151471Y-75553220D01*
X147246779Y-75648528D01*
X147366873Y-75709719D01*
X147499999Y-75730804D01*
X147633125Y-75709719D01*
X147753219Y-75648528D01*
X147848527Y-75553220D01*
X147909718Y-75433126D01*
X147909718Y-75433123D01*
X147911789Y-75429060D01*
X147955054Y-75385795D01*
X148015486Y-75376224D01*
X148070003Y-75404002D01*
X148088208Y-75429059D01*
X148149920Y-75550174D01*
X148151472Y-75553220D01*
X148246780Y-75648528D01*
X148366874Y-75709719D01*
X148500000Y-75730804D01*
X148633126Y-75709719D01*
X148753220Y-75648528D01*
X148848528Y-75553220D01*
X148874134Y-75502963D01*
X148911791Y-75429061D01*
X148955055Y-75385796D01*
X149015487Y-75376225D01*
X149070004Y-75404003D01*
X149088209Y-75429061D01*
X149151470Y-75553217D01*
X149151472Y-75553220D01*
X149246780Y-75648528D01*
X149366874Y-75709719D01*
X149500000Y-75730804D01*
X149633126Y-75709719D01*
X149753220Y-75648528D01*
X149848528Y-75553220D01*
X149909719Y-75433126D01*
X149930804Y-75300000D01*
X149909719Y-75166874D01*
X149848528Y-75046780D01*
X149753220Y-74951472D01*
X149753217Y-74951470D01*
X149629061Y-74888209D01*
X149585796Y-74844945D01*
X149576225Y-74784513D01*
X149604003Y-74729996D01*
X149629061Y-74711791D01*
X149702963Y-74674134D01*
X149753220Y-74648528D01*
X149848528Y-74553220D01*
X149909719Y-74433126D01*
X149930804Y-74300000D01*
X149909719Y-74166874D01*
X149909718Y-74166872D01*
X149909717Y-74166870D01*
X149848529Y-74046782D01*
X149848528Y-74046780D01*
X149753220Y-73951472D01*
X149753217Y-73951470D01*
X149633129Y-73890282D01*
X149633127Y-73890281D01*
X149500000Y-73869196D01*
X149366872Y-73890281D01*
X149366870Y-73890282D01*
X149246782Y-73951470D01*
X149151471Y-74046781D01*
X149088209Y-74170939D01*
X149044944Y-74214203D01*
X148984512Y-74223774D01*
X148929996Y-74195996D01*
X148911791Y-74170939D01*
X148848529Y-74046782D01*
X148848528Y-74046780D01*
X148753220Y-73951472D01*
X148753217Y-73951470D01*
X148633129Y-73890282D01*
X148633127Y-73890281D01*
X148500000Y-73869196D01*
X148366872Y-73890281D01*
X148366870Y-73890282D01*
X148246782Y-73951470D01*
X148151471Y-74046781D01*
X148088209Y-74170939D01*
X148044944Y-74214203D01*
X147984512Y-74223774D01*
X147929996Y-74195996D01*
X147911791Y-74170938D01*
X147848529Y-74046781D01*
X147848528Y-74046779D01*
X147771250Y-73969501D01*
X147743475Y-73914987D01*
X147753046Y-73854555D01*
X147796311Y-73811290D01*
X147841256Y-73800500D01*
X147898743Y-73800500D01*
X148117440Y-73759618D01*
X148324901Y-73679247D01*
X148514062Y-73562124D01*
X148678481Y-73412236D01*
X148812558Y-73234689D01*
X148911729Y-73035528D01*
X148972615Y-72821536D01*
X148993143Y-72600000D01*
X148972615Y-72378464D01*
X148911729Y-72164472D01*
X148812558Y-71965311D01*
X148678481Y-71787764D01*
X148514062Y-71637876D01*
X148324901Y-71520753D01*
X148117440Y-71440382D01*
X148117439Y-71440381D01*
X148117437Y-71440381D01*
X147898743Y-71399500D01*
X147676257Y-71399500D01*
X147457562Y-71440381D01*
X147381297Y-71469926D01*
X147250099Y-71520753D01*
X147060938Y-71637876D01*
X146896520Y-71787763D01*
X146762443Y-71965309D01*
X146762438Y-71965318D01*
X146693771Y-72103220D01*
X146663271Y-72164472D01*
X146602385Y-72378464D01*
X146581857Y-72600000D01*
X146018143Y-72600000D01*
X145997615Y-72378464D01*
X145936729Y-72164472D01*
X145837558Y-71965311D01*
X145703481Y-71787764D01*
X145539062Y-71637876D01*
X145349901Y-71520753D01*
X145142440Y-71440382D01*
X145142439Y-71440381D01*
X145142437Y-71440381D01*
X144923743Y-71399500D01*
X144701257Y-71399500D01*
X144482562Y-71440381D01*
X144406297Y-71469926D01*
X144275099Y-71520753D01*
X144085938Y-71637876D01*
X143921520Y-71787763D01*
X143787443Y-71965309D01*
X143787438Y-71965318D01*
X143718771Y-72103220D01*
X143688271Y-72164472D01*
X143627385Y-72378464D01*
X143606857Y-72600000D01*
X127855643Y-72600000D01*
X127835115Y-72378464D01*
X127774229Y-72164472D01*
X127675058Y-71965311D01*
X127540981Y-71787764D01*
X127376562Y-71637876D01*
X127187401Y-71520753D01*
X126979940Y-71440382D01*
X126979939Y-71440381D01*
X126979937Y-71440381D01*
X126761243Y-71399500D01*
X126538757Y-71399500D01*
X126320062Y-71440381D01*
X126243797Y-71469926D01*
X126112599Y-71520753D01*
X125923438Y-71637876D01*
X125759020Y-71787763D01*
X125624943Y-71965309D01*
X125624938Y-71965318D01*
X125556271Y-72103220D01*
X125525771Y-72164472D01*
X125464885Y-72378464D01*
X125444357Y-72600000D01*
X124880643Y-72600000D01*
X124860115Y-72378464D01*
X124799229Y-72164472D01*
X124700058Y-71965311D01*
X124565981Y-71787764D01*
X124401562Y-71637876D01*
X124212401Y-71520753D01*
X124004940Y-71440382D01*
X124004939Y-71440381D01*
X124004937Y-71440381D01*
X123786243Y-71399500D01*
X123563757Y-71399500D01*
X123345062Y-71440381D01*
X123268797Y-71469926D01*
X123137599Y-71520753D01*
X122948438Y-71637876D01*
X122784020Y-71787763D01*
X122649943Y-71965309D01*
X122649938Y-71965318D01*
X122581271Y-72103220D01*
X122550771Y-72164472D01*
X122489885Y-72378464D01*
X122469357Y-72600000D01*
X122489885Y-72821536D01*
X122550771Y-73035528D01*
X122649942Y-73234689D01*
X122784019Y-73412236D01*
X122948438Y-73562124D01*
X123137599Y-73679247D01*
X123345060Y-73759618D01*
X123563757Y-73800500D01*
X123658745Y-73800500D01*
X123716936Y-73819407D01*
X123752900Y-73868907D01*
X123752900Y-73930093D01*
X123728750Y-73969501D01*
X123651473Y-74046779D01*
X123651471Y-74046781D01*
X123588209Y-74170939D01*
X123544944Y-74214203D01*
X123484512Y-74223774D01*
X123429996Y-74195996D01*
X123411791Y-74170939D01*
X123348529Y-74046782D01*
X123348528Y-74046780D01*
X123253220Y-73951472D01*
X123253217Y-73951470D01*
X123133129Y-73890282D01*
X123133127Y-73890281D01*
X123000000Y-73869196D01*
X122866872Y-73890281D01*
X122866870Y-73890282D01*
X122746782Y-73951470D01*
X122651471Y-74046781D01*
X122588209Y-74170939D01*
X122544944Y-74214203D01*
X122484512Y-74223774D01*
X122429996Y-74195996D01*
X122411791Y-74170938D01*
X122348529Y-74046781D01*
X122348528Y-74046779D01*
X122253220Y-73951471D01*
X122253217Y-73951469D01*
X122133129Y-73890281D01*
X122133127Y-73890280D01*
X122000000Y-73869195D01*
X121866872Y-73890280D01*
X121866870Y-73890281D01*
X121746782Y-73951469D01*
X121651470Y-74046781D01*
X121590282Y-74166869D01*
X121590281Y-74166871D01*
X121569196Y-74299998D01*
X121569196Y-74299999D01*
X121590281Y-74433126D01*
X121590282Y-74433128D01*
X121590283Y-74433129D01*
X121651472Y-74553219D01*
X121746780Y-74648527D01*
X121746782Y-74648528D01*
X121870939Y-74711790D01*
X121914204Y-74755054D01*
X121923775Y-74815486D01*
X121895997Y-74870003D01*
X121870940Y-74888208D01*
X121746780Y-74951471D01*
X121651469Y-75046782D01*
X121590281Y-75166870D01*
X121590280Y-75166872D01*
X121569195Y-75299999D01*
X92000000Y-75299999D01*
X92000000Y-71849999D01*
X108419196Y-71849999D01*
X108419196Y-71850000D01*
X108440281Y-71983127D01*
X108440282Y-71983129D01*
X108449320Y-72000867D01*
X108501472Y-72103220D01*
X108596780Y-72198528D01*
X108716874Y-72259719D01*
X108850000Y-72280804D01*
X108983126Y-72259719D01*
X109103220Y-72198528D01*
X109198528Y-72103220D01*
X109259719Y-71983126D01*
X109280804Y-71850000D01*
X109259719Y-71716874D01*
X109198528Y-71596780D01*
X109103220Y-71501472D01*
X109103217Y-71501470D01*
X108983129Y-71440282D01*
X108983127Y-71440281D01*
X108850000Y-71419196D01*
X108716872Y-71440281D01*
X108716870Y-71440282D01*
X108596782Y-71501470D01*
X108501470Y-71596782D01*
X108440282Y-71716870D01*
X108440281Y-71716872D01*
X108419196Y-71849999D01*
X92000000Y-71849999D01*
X92000000Y-70041008D01*
X92018907Y-69982817D01*
X92028996Y-69971004D01*
X92430331Y-69569669D01*
X100999526Y-69569669D01*
X100999526Y-69569670D01*
X101020611Y-69702797D01*
X101020612Y-69702799D01*
X101081800Y-69822887D01*
X101081802Y-69822890D01*
X101177110Y-69918198D01*
X101177112Y-69918199D01*
X101280747Y-69971004D01*
X101297204Y-69979389D01*
X101430330Y-70000474D01*
X101563456Y-69979389D01*
X101683550Y-69918198D01*
X101778858Y-69822890D01*
X101840049Y-69702796D01*
X101848411Y-69649999D01*
X127369196Y-69649999D01*
X127369196Y-69650000D01*
X127390281Y-69783127D01*
X127390282Y-69783129D01*
X127451470Y-69903217D01*
X127451472Y-69903220D01*
X127546780Y-69998528D01*
X127666874Y-70059719D01*
X127800000Y-70080804D01*
X127933126Y-70059719D01*
X128053220Y-69998528D01*
X128148528Y-69903220D01*
X128209719Y-69783126D01*
X128230804Y-69650000D01*
X128209719Y-69516874D01*
X128148528Y-69396780D01*
X128053220Y-69301472D01*
X128053217Y-69301470D01*
X127933129Y-69240282D01*
X127933127Y-69240281D01*
X127800000Y-69219196D01*
X127666872Y-69240281D01*
X127666870Y-69240282D01*
X127546782Y-69301470D01*
X127451470Y-69396782D01*
X127390282Y-69516870D01*
X127390281Y-69516872D01*
X127369196Y-69649999D01*
X101848411Y-69649999D01*
X101861134Y-69569670D01*
X101840049Y-69436544D01*
X101778858Y-69316450D01*
X101683550Y-69221142D01*
X101683547Y-69221140D01*
X101563459Y-69159952D01*
X101563457Y-69159951D01*
X101430330Y-69138866D01*
X101297202Y-69159951D01*
X101297200Y-69159952D01*
X101177112Y-69221140D01*
X101081800Y-69316452D01*
X101020612Y-69436540D01*
X101020611Y-69436542D01*
X100999526Y-69569669D01*
X92430331Y-69569669D01*
X93667768Y-68332232D01*
X99762089Y-68332232D01*
X99762089Y-68332233D01*
X99783174Y-68465360D01*
X99783175Y-68465362D01*
X99844363Y-68585450D01*
X99844365Y-68585453D01*
X99939673Y-68680761D01*
X100059767Y-68741952D01*
X100192893Y-68763037D01*
X100326019Y-68741952D01*
X100446113Y-68680761D01*
X100541421Y-68585453D01*
X100602612Y-68465359D01*
X100623697Y-68332233D01*
X100602612Y-68199107D01*
X100599294Y-68192596D01*
X100541422Y-68079015D01*
X100541421Y-68079013D01*
X100446113Y-67983705D01*
X100446110Y-67983703D01*
X100359112Y-67939375D01*
X102629820Y-67939375D01*
X102629820Y-67939376D01*
X102650905Y-68072503D01*
X102650906Y-68072505D01*
X102712094Y-68192593D01*
X102712096Y-68192596D01*
X102807404Y-68287904D01*
X102807406Y-68287905D01*
X102894402Y-68332232D01*
X102927498Y-68349095D01*
X103060624Y-68370180D01*
X103193750Y-68349095D01*
X103313844Y-68287904D01*
X103321495Y-68280253D01*
X116649500Y-68280253D01*
X116649500Y-69219746D01*
X116649501Y-69219758D01*
X116661132Y-69278227D01*
X116661134Y-69278233D01*
X116686672Y-69316452D01*
X116705448Y-69344552D01*
X116771769Y-69388867D01*
X116816231Y-69397711D01*
X116830241Y-69400498D01*
X116830246Y-69400498D01*
X116830252Y-69400500D01*
X116830253Y-69400500D01*
X118869747Y-69400500D01*
X118869748Y-69400500D01*
X118928231Y-69388867D01*
X118994552Y-69344552D01*
X119038867Y-69278231D01*
X119050500Y-69219748D01*
X119050500Y-68280252D01*
X119038867Y-68221769D01*
X118994552Y-68155448D01*
X118994548Y-68155445D01*
X118928233Y-68111134D01*
X118928231Y-68111133D01*
X118928228Y-68111132D01*
X118928227Y-68111132D01*
X118869758Y-68099501D01*
X118869748Y-68099500D01*
X116830252Y-68099500D01*
X116830251Y-68099500D01*
X116830241Y-68099501D01*
X116771772Y-68111132D01*
X116771766Y-68111134D01*
X116705451Y-68155445D01*
X116705445Y-68155451D01*
X116661134Y-68221766D01*
X116661132Y-68221772D01*
X116649501Y-68280241D01*
X116649500Y-68280253D01*
X103321495Y-68280253D01*
X103409152Y-68192596D01*
X103470343Y-68072502D01*
X103491428Y-67939376D01*
X103488757Y-67922515D01*
X103475060Y-67836034D01*
X103470343Y-67806250D01*
X103409152Y-67686156D01*
X103313844Y-67590848D01*
X103313841Y-67590846D01*
X103193753Y-67529658D01*
X103193751Y-67529657D01*
X103060624Y-67508572D01*
X102927496Y-67529657D01*
X102927494Y-67529658D01*
X102807406Y-67590846D01*
X102712094Y-67686158D01*
X102650906Y-67806246D01*
X102650905Y-67806248D01*
X102629820Y-67939375D01*
X100359112Y-67939375D01*
X100326022Y-67922515D01*
X100326020Y-67922514D01*
X100192893Y-67901429D01*
X100059765Y-67922514D01*
X100059763Y-67922515D01*
X99939675Y-67983703D01*
X99844363Y-68079015D01*
X99783175Y-68199103D01*
X99783174Y-68199105D01*
X99762089Y-68332232D01*
X93667768Y-68332232D01*
X94905205Y-67094795D01*
X98524652Y-67094795D01*
X98524652Y-67094796D01*
X98545737Y-67227923D01*
X98545738Y-67227925D01*
X98606926Y-67348013D01*
X98606928Y-67348016D01*
X98702236Y-67443324D01*
X98822330Y-67504515D01*
X98955456Y-67525600D01*
X99088582Y-67504515D01*
X99208676Y-67443324D01*
X99303984Y-67348016D01*
X99365175Y-67227922D01*
X99386260Y-67094796D01*
X99365175Y-66961670D01*
X99303984Y-66841576D01*
X99208676Y-66746268D01*
X99208673Y-66746266D01*
X99097018Y-66689375D01*
X101379820Y-66689375D01*
X101379820Y-66689376D01*
X101400905Y-66822503D01*
X101400906Y-66822505D01*
X101462094Y-66942593D01*
X101462096Y-66942596D01*
X101557404Y-67037904D01*
X101677498Y-67099095D01*
X101810624Y-67120180D01*
X101943750Y-67099095D01*
X102063844Y-67037904D01*
X102159152Y-66942596D01*
X102220343Y-66822502D01*
X102241428Y-66689376D01*
X102220343Y-66556250D01*
X102159152Y-66436156D01*
X102063844Y-66340848D01*
X102063841Y-66340846D01*
X101943753Y-66279658D01*
X101943751Y-66279657D01*
X101810624Y-66258572D01*
X101677496Y-66279657D01*
X101677494Y-66279658D01*
X101557406Y-66340846D01*
X101462094Y-66436158D01*
X101400906Y-66556246D01*
X101400905Y-66556248D01*
X101379820Y-66689375D01*
X99097018Y-66689375D01*
X99088585Y-66685078D01*
X99088583Y-66685077D01*
X98955456Y-66663992D01*
X98822328Y-66685077D01*
X98822326Y-66685078D01*
X98702238Y-66746266D01*
X98606926Y-66841578D01*
X98545738Y-66961666D01*
X98545737Y-66961668D01*
X98524652Y-67094795D01*
X94905205Y-67094795D01*
X96142642Y-65857358D01*
X97287215Y-65857358D01*
X97287215Y-65857359D01*
X97308300Y-65990486D01*
X97308301Y-65990488D01*
X97369489Y-66110576D01*
X97369491Y-66110579D01*
X97464799Y-66205887D01*
X97584893Y-66267078D01*
X97718019Y-66288163D01*
X97851145Y-66267078D01*
X97971239Y-66205887D01*
X98066547Y-66110579D01*
X98127738Y-65990485D01*
X98148823Y-65857359D01*
X98127738Y-65724233D01*
X98066547Y-65604139D01*
X97971239Y-65508831D01*
X97971236Y-65508829D01*
X97851148Y-65447641D01*
X97851146Y-65447640D01*
X97798962Y-65439375D01*
X100129820Y-65439375D01*
X100129820Y-65439376D01*
X100150905Y-65572503D01*
X100150906Y-65572505D01*
X100212094Y-65692593D01*
X100212096Y-65692596D01*
X100307404Y-65787904D01*
X100427498Y-65849095D01*
X100560624Y-65870180D01*
X100693750Y-65849095D01*
X100813844Y-65787904D01*
X100909152Y-65692596D01*
X100956333Y-65599999D01*
X109594671Y-65599999D01*
X109594671Y-65600000D01*
X109613965Y-65894377D01*
X109613966Y-65894380D01*
X109671519Y-66183722D01*
X109671520Y-66183726D01*
X109671521Y-66183729D01*
X109766347Y-66463075D01*
X109766352Y-66463086D01*
X109896828Y-66727665D01*
X110060724Y-66972953D01*
X110060734Y-66972965D01*
X110189838Y-67120180D01*
X110255242Y-67194758D01*
X110255250Y-67194765D01*
X110255251Y-67194766D01*
X110366142Y-67292015D01*
X110477043Y-67389273D01*
X110722335Y-67553172D01*
X110986923Y-67683652D01*
X111266278Y-67778481D01*
X111555620Y-67836034D01*
X111850000Y-67855329D01*
X112144380Y-67836034D01*
X112433722Y-67778481D01*
X112713077Y-67683652D01*
X112977665Y-67553172D01*
X113222957Y-67389273D01*
X113444758Y-67194758D01*
X113639273Y-66972957D01*
X113803172Y-66727665D01*
X113933652Y-66463077D01*
X114028481Y-66183722D01*
X114086034Y-65894380D01*
X114105329Y-65600000D01*
X114086034Y-65305620D01*
X114028481Y-65016278D01*
X113933652Y-64736923D01*
X113803172Y-64472336D01*
X113639273Y-64227043D01*
X113444758Y-64005242D01*
X113222957Y-63810727D01*
X112977665Y-63646828D01*
X112977663Y-63646827D01*
X112713086Y-63516352D01*
X112713075Y-63516347D01*
X112433729Y-63421521D01*
X112433726Y-63421520D01*
X112433722Y-63421519D01*
X112259805Y-63386925D01*
X112144377Y-63363965D01*
X111850000Y-63344671D01*
X111555622Y-63363965D01*
X111383258Y-63398250D01*
X111266278Y-63421519D01*
X111266275Y-63421519D01*
X111266270Y-63421521D01*
X110986924Y-63516347D01*
X110986913Y-63516352D01*
X110722336Y-63646827D01*
X110477043Y-63810726D01*
X110477034Y-63810734D01*
X110255251Y-64005233D01*
X110255233Y-64005251D01*
X110060734Y-64227034D01*
X110060726Y-64227043D01*
X109896827Y-64472336D01*
X109766352Y-64736913D01*
X109766347Y-64736924D01*
X109671521Y-65016270D01*
X109613965Y-65305622D01*
X109594671Y-65599999D01*
X100956333Y-65599999D01*
X100970343Y-65572502D01*
X100991428Y-65439376D01*
X100970343Y-65306250D01*
X100909152Y-65186156D01*
X100813844Y-65090848D01*
X100813841Y-65090846D01*
X100693753Y-65029658D01*
X100693751Y-65029657D01*
X100560624Y-65008572D01*
X100427496Y-65029657D01*
X100427494Y-65029658D01*
X100307406Y-65090846D01*
X100212094Y-65186158D01*
X100150906Y-65306246D01*
X100150905Y-65306248D01*
X100129820Y-65439375D01*
X97798962Y-65439375D01*
X97718019Y-65426555D01*
X97584891Y-65447640D01*
X97584889Y-65447641D01*
X97464801Y-65508829D01*
X97369489Y-65604141D01*
X97308301Y-65724229D01*
X97308300Y-65724231D01*
X97287215Y-65857358D01*
X96142642Y-65857358D01*
X97760625Y-64239375D01*
X98929820Y-64239375D01*
X98929820Y-64239376D01*
X98950905Y-64372503D01*
X98950906Y-64372505D01*
X99001773Y-64472336D01*
X99012096Y-64492596D01*
X99107404Y-64587904D01*
X99227498Y-64649095D01*
X99360624Y-64670180D01*
X99493750Y-64649095D01*
X99613844Y-64587904D01*
X99709152Y-64492596D01*
X99770343Y-64372502D01*
X99791428Y-64239376D01*
X99770343Y-64106250D01*
X99709152Y-63986156D01*
X99613844Y-63890848D01*
X99613841Y-63890846D01*
X99493753Y-63829658D01*
X99493751Y-63829657D01*
X99360624Y-63808572D01*
X99227496Y-63829657D01*
X99227494Y-63829658D01*
X99107406Y-63890846D01*
X99012094Y-63986158D01*
X98950906Y-64106246D01*
X98950905Y-64106248D01*
X98929820Y-64239375D01*
X97760625Y-64239375D01*
X98655329Y-63344671D01*
X107219746Y-54780253D01*
X116649500Y-54780253D01*
X116649500Y-55719746D01*
X116649501Y-55719758D01*
X116661132Y-55778227D01*
X116661133Y-55778231D01*
X116705448Y-55844552D01*
X116771769Y-55888867D01*
X116816231Y-55897711D01*
X116830241Y-55900498D01*
X116830246Y-55900498D01*
X116830252Y-55900500D01*
X116830253Y-55900500D01*
X118869747Y-55900500D01*
X118869748Y-55900500D01*
X118928231Y-55888867D01*
X118994552Y-55844552D01*
X119038867Y-55778231D01*
X119050500Y-55719748D01*
X119050500Y-54780252D01*
X119038867Y-54721769D01*
X118994552Y-54655448D01*
X118994548Y-54655445D01*
X118928233Y-54611134D01*
X118928231Y-54611133D01*
X118928228Y-54611132D01*
X118928227Y-54611132D01*
X118869758Y-54599501D01*
X118869748Y-54599500D01*
X116830252Y-54599500D01*
X116830251Y-54599500D01*
X116830241Y-54599501D01*
X116771772Y-54611132D01*
X116771766Y-54611134D01*
X116705451Y-54655445D01*
X116705445Y-54655451D01*
X116661134Y-54721766D01*
X116661132Y-54721772D01*
X116649501Y-54780241D01*
X116649500Y-54780253D01*
X107219746Y-54780253D01*
X108470994Y-53529005D01*
X108525509Y-53501230D01*
X108541019Y-53500011D01*
X126459082Y-53504943D01*
G37*
%TD.AperFunction*%
%TD*%
M02*
