%TF.GenerationSoftware,KiCad,Pcbnew,8.0.7*%
%TF.CreationDate,2025-03-31T22:55:58-04:00*%
%TF.ProjectId,power,706f7765-722e-46b6-9963-61645f706362,1.1*%
%TF.SameCoordinates,Original*%
%TF.FileFunction,Soldermask,Top*%
%TF.FilePolarity,Negative*%
%FSLAX46Y46*%
G04 Gerber Fmt 4.6, Leading zero omitted, Abs format (unit mm)*
G04 Created by KiCad (PCBNEW 8.0.7) date 2025-03-31 22:55:58*
%MOMM*%
%LPD*%
G01*
G04 APERTURE LIST*
G04 Aperture macros list*
%AMRoundRect*
0 Rectangle with rounded corners*
0 $1 Rounding radius*
0 $2 $3 $4 $5 $6 $7 $8 $9 X,Y pos of 4 corners*
0 Add a 4 corners polygon primitive as box body*
4,1,4,$2,$3,$4,$5,$6,$7,$8,$9,$2,$3,0*
0 Add four circle primitives for the rounded corners*
1,1,$1+$1,$2,$3*
1,1,$1+$1,$4,$5*
1,1,$1+$1,$6,$7*
1,1,$1+$1,$8,$9*
0 Add four rect primitives between the rounded corners*
20,1,$1+$1,$2,$3,$4,$5,0*
20,1,$1+$1,$4,$5,$6,$7,0*
20,1,$1+$1,$6,$7,$8,$9,0*
20,1,$1+$1,$8,$9,$2,$3,0*%
%AMRotRect*
0 Rectangle, with rotation*
0 The origin of the aperture is its center*
0 $1 length*
0 $2 width*
0 $3 Rotation angle, in degrees counterclockwise*
0 Add horizontal line*
21,1,$1,$2,0,0,$3*%
%AMFreePoly0*
4,1,6,1.037000,0.000000,0.437000,-0.600000,-0.150000,-0.600000,-0.150000,0.600000,0.437000,0.600000,1.037000,0.000000,1.037000,0.000000,$1*%
%AMFreePoly1*
4,1,6,0.150000,-0.600000,-1.037000,-0.600000,-0.437000,0.000000,-1.037000,0.600000,0.150000,0.600000,0.150000,-0.600000,0.150000,-0.600000,$1*%
G04 Aperture macros list end*
%ADD10C,0.160000*%
%ADD11R,0.800000X2.200000*%
%ADD12R,1.000000X2.700000*%
%ADD13R,1.800000X3.800000*%
%ADD14R,0.650000X1.150000*%
%ADD15R,4.600000X4.650000*%
%ADD16RoundRect,0.150000X0.150000X-0.825000X0.150000X0.825000X-0.150000X0.825000X-0.150000X-0.825000X0*%
%ADD17R,3.000000X2.290000*%
%ADD18RoundRect,0.250000X0.550000X-1.500000X0.550000X1.500000X-0.550000X1.500000X-0.550000X-1.500000X0*%
%ADD19RoundRect,0.140000X-0.170000X0.140000X-0.170000X-0.140000X0.170000X-0.140000X0.170000X0.140000X0*%
%ADD20RoundRect,0.150000X0.700000X-0.150000X0.700000X0.150000X-0.700000X0.150000X-0.700000X-0.150000X0*%
%ADD21RoundRect,0.250000X1.100000X-0.250000X1.100000X0.250000X-1.100000X0.250000X-1.100000X-0.250000X0*%
%ADD22C,2.500000*%
%ADD23C,3.200000*%
%ADD24RoundRect,0.250000X-1.500000X-0.550000X1.500000X-0.550000X1.500000X0.550000X-1.500000X0.550000X0*%
%ADD25RoundRect,0.250000X0.450000X0.800000X-0.450000X0.800000X-0.450000X-0.800000X0.450000X-0.800000X0*%
%ADD26RoundRect,0.135000X0.135000X0.185000X-0.135000X0.185000X-0.135000X-0.185000X0.135000X-0.185000X0*%
%ADD27C,3.600000*%
%ADD28C,6.400000*%
%ADD29RoundRect,0.135000X-0.135000X-0.185000X0.135000X-0.185000X0.135000X0.185000X-0.135000X0.185000X0*%
%ADD30RoundRect,0.250000X-1.425000X0.362500X-1.425000X-0.362500X1.425000X-0.362500X1.425000X0.362500X0*%
%ADD31R,3.500000X3.550000*%
%ADD32RoundRect,0.250001X-0.462499X-0.624999X0.462499X-0.624999X0.462499X0.624999X-0.462499X0.624999X0*%
%ADD33RoundRect,0.250000X0.475000X-0.250000X0.475000X0.250000X-0.475000X0.250000X-0.475000X-0.250000X0*%
%ADD34RoundRect,0.140000X0.170000X-0.140000X0.170000X0.140000X-0.170000X0.140000X-0.170000X-0.140000X0*%
%ADD35RoundRect,0.100000X0.100000X-0.225000X0.100000X0.225000X-0.100000X0.225000X-0.100000X-0.225000X0*%
%ADD36RoundRect,0.135000X0.185000X-0.135000X0.185000X0.135000X-0.185000X0.135000X-0.185000X-0.135000X0*%
%ADD37R,1.600000X1.400000*%
%ADD38RoundRect,0.237500X-0.237500X0.250000X-0.237500X-0.250000X0.237500X-0.250000X0.237500X0.250000X0*%
%ADD39RoundRect,0.075000X-0.650000X-0.075000X0.650000X-0.075000X0.650000X0.075000X-0.650000X0.075000X0*%
%ADD40R,1.570000X1.880000*%
%ADD41RoundRect,0.140000X-0.140000X-0.170000X0.140000X-0.170000X0.140000X0.170000X-0.140000X0.170000X0*%
%ADD42RoundRect,0.250000X0.250000X0.475000X-0.250000X0.475000X-0.250000X-0.475000X0.250000X-0.475000X0*%
%ADD43RoundRect,0.250000X0.600000X0.725000X-0.600000X0.725000X-0.600000X-0.725000X0.600000X-0.725000X0*%
%ADD44O,1.700000X1.950000*%
%ADD45RoundRect,0.317500X0.382500X0.317500X-0.382500X0.317500X-0.382500X-0.317500X0.382500X-0.317500X0*%
%ADD46R,4.800000X4.720000*%
%ADD47RoundRect,0.140000X0.140000X0.170000X-0.140000X0.170000X-0.140000X-0.170000X0.140000X-0.170000X0*%
%ADD48C,1.400000*%
%ADD49RoundRect,0.770000X0.980000X0.980000X-0.980000X0.980000X-0.980000X-0.980000X0.980000X-0.980000X0*%
%ADD50C,3.500000*%
%ADD51RoundRect,0.150000X-0.512500X-0.150000X0.512500X-0.150000X0.512500X0.150000X-0.512500X0.150000X0*%
%ADD52RoundRect,0.250001X0.462499X0.624999X-0.462499X0.624999X-0.462499X-0.624999X0.462499X-0.624999X0*%
%ADD53R,2.000000X0.900000*%
%ADD54RoundRect,1.025000X-1.025000X1.025000X-1.025000X-1.025000X1.025000X-1.025000X1.025000X1.025000X0*%
%ADD55C,4.100000*%
%ADD56R,1.100000X3.700000*%
%ADD57RoundRect,1.025000X-1.025000X-1.725000X1.025000X-1.725000X1.025000X1.725000X-1.025000X1.725000X0*%
%ADD58RoundRect,0.237500X0.237500X-0.287500X0.237500X0.287500X-0.237500X0.287500X-0.237500X-0.287500X0*%
%ADD59RoundRect,0.050000X-0.500000X0.750000X-0.500000X-0.750000X0.500000X-0.750000X0.500000X0.750000X0*%
%ADD60RoundRect,0.050000X0.500000X-0.750000X0.500000X0.750000X-0.500000X0.750000X-0.500000X-0.750000X0*%
%ADD61R,0.800000X1.800000*%
%ADD62RoundRect,0.237500X0.237500X-0.250000X0.237500X0.250000X-0.237500X0.250000X-0.237500X-0.250000X0*%
%ADD63RotRect,0.800000X0.800000X225.000000*%
%ADD64R,2.500000X2.300000*%
%ADD65FreePoly0,0.000000*%
%ADD66FreePoly1,0.000000*%
%ADD67R,2.300000X2.500000*%
%ADD68RoundRect,0.150000X-0.150000X-0.700000X0.150000X-0.700000X0.150000X0.700000X-0.150000X0.700000X0*%
%ADD69RoundRect,0.250000X-0.250000X-1.100000X0.250000X-1.100000X0.250000X1.100000X-0.250000X1.100000X0*%
%ADD70C,0.800000*%
%ADD71R,1.400000X1.600000*%
%ADD72RoundRect,0.250000X-1.100000X0.325000X-1.100000X-0.325000X1.100000X-0.325000X1.100000X0.325000X0*%
%ADD73RoundRect,0.135000X-0.185000X0.135000X-0.185000X-0.135000X0.185000X-0.135000X0.185000X0.135000X0*%
%ADD74RoundRect,0.150000X-0.825000X-0.150000X0.825000X-0.150000X0.825000X0.150000X-0.825000X0.150000X0*%
%ADD75R,2.290000X3.000000*%
%ADD76RoundRect,0.250000X-0.650000X0.325000X-0.650000X-0.325000X0.650000X-0.325000X0.650000X0.325000X0*%
%ADD77RoundRect,0.237500X-0.287500X-0.237500X0.287500X-0.237500X0.287500X0.237500X-0.287500X0.237500X0*%
%ADD78RoundRect,0.317500X0.317500X-0.382500X0.317500X0.382500X-0.317500X0.382500X-0.317500X-0.382500X0*%
%ADD79R,4.720000X4.800000*%
%ADD80RoundRect,0.075000X-0.075000X0.650000X-0.075000X-0.650000X0.075000X-0.650000X0.075000X0.650000X0*%
%ADD81RoundRect,0.100000X0.900000X0.100000X-0.900000X0.100000X-0.900000X-0.100000X0.900000X-0.100000X0*%
%ADD82RoundRect,0.225000X-0.375000X0.225000X-0.375000X-0.225000X0.375000X-0.225000X0.375000X0.225000X0*%
%ADD83RoundRect,0.150000X-0.150000X0.587500X-0.150000X-0.587500X0.150000X-0.587500X0.150000X0.587500X0*%
%ADD84RoundRect,0.150000X0.150000X-0.587500X0.150000X0.587500X-0.150000X0.587500X-0.150000X-0.587500X0*%
%ADD85RoundRect,0.250000X0.325000X0.650000X-0.325000X0.650000X-0.325000X-0.650000X0.325000X-0.650000X0*%
G04 APERTURE END LIST*
D10*
%TO.C,JP1*%
X164550000Y-102457949D02*
X162550000Y-102457949D01*
X162550000Y-101257949D01*
X164550000Y-101257949D01*
X164550000Y-102457949D01*
G36*
X164550000Y-102457949D02*
G01*
X162550000Y-102457949D01*
X162550000Y-101257949D01*
X164550000Y-101257949D01*
X164550000Y-102457949D01*
G37*
%TD*%
D11*
%TO.C,J1*%
X171600000Y-93260000D03*
X171600000Y-96900000D03*
X170330000Y-93260000D03*
X170330000Y-96900000D03*
X169060000Y-93260000D03*
X169060000Y-96900000D03*
X167790000Y-93260000D03*
X167790000Y-96900000D03*
X166520000Y-93260000D03*
X166520000Y-96900000D03*
%TD*%
D12*
%TO.C,J4*%
X145300000Y-134600000D03*
X147300000Y-134600000D03*
X149300000Y-134600000D03*
X151300000Y-134600000D03*
D13*
X153650000Y-139050000D03*
X142950000Y-139050000D03*
%TD*%
D14*
%TO.C,Q4*%
X97595000Y-109725000D03*
X98865000Y-109725000D03*
X100135000Y-109725000D03*
X101405000Y-109725000D03*
D15*
X99500000Y-106025000D03*
%TD*%
D16*
%TO.C,U8*%
X129095001Y-107725000D03*
X130365001Y-107725000D03*
X131635001Y-107725000D03*
X132905001Y-107725000D03*
X132905001Y-102775000D03*
X131635001Y-102775000D03*
X130365001Y-102775000D03*
X129095001Y-102775000D03*
D17*
X131000001Y-105250000D03*
%TD*%
D18*
%TO.C,C36*%
X132000000Y-85450000D03*
X132000000Y-80050000D03*
%TD*%
D19*
%TO.C,C38*%
X172800000Y-111370000D03*
X172800000Y-112330000D03*
%TD*%
D20*
%TO.C,SW2*%
X175750000Y-88325000D03*
X175750000Y-87075000D03*
D21*
X178950000Y-90175000D03*
X178950000Y-85225000D03*
%TD*%
D22*
%TO.C,TP3*%
X94249999Y-95600000D03*
%TD*%
D23*
%TO.C,F6*%
X116200000Y-80265000D03*
X112800000Y-80265000D03*
X116200000Y-93735000D03*
X112800000Y-93735000D03*
%TD*%
D24*
%TO.C,C25*%
X172600000Y-127100000D03*
X178000000Y-127100000D03*
%TD*%
D16*
%TO.C,U7*%
X143595000Y-107725000D03*
X144865000Y-107725000D03*
X146135000Y-107725000D03*
X147405000Y-107725000D03*
X147405000Y-102775000D03*
X146135000Y-102775000D03*
X144865000Y-102775000D03*
X143595000Y-102775000D03*
D17*
X145500000Y-105250000D03*
%TD*%
D25*
%TO.C,D18*%
X161750000Y-105350000D03*
X157350000Y-105350000D03*
%TD*%
D26*
%TO.C,R13*%
X97510000Y-94750000D03*
X96490000Y-94750000D03*
%TD*%
%TO.C,R38*%
X155560000Y-112100000D03*
X154540000Y-112100000D03*
%TD*%
D27*
%TO.C,H3*%
X178000000Y-142000000D03*
D28*
X178000000Y-142000000D03*
%TD*%
D29*
%TO.C,R73*%
X145990000Y-129900000D03*
X147010000Y-129900000D03*
%TD*%
D30*
%TO.C,R14*%
X106250000Y-96037500D03*
X106250000Y-101962500D03*
%TD*%
D31*
%TO.C,L2*%
X143000000Y-98975000D03*
X143000000Y-90025000D03*
%TD*%
D32*
%TO.C,F2*%
X144812500Y-74800000D03*
X147787500Y-74800000D03*
%TD*%
D33*
%TO.C,C37*%
X155050000Y-109300000D03*
X155050000Y-107400000D03*
%TD*%
D27*
%TO.C,H1*%
X96000000Y-78000000D03*
D28*
X96000000Y-78000000D03*
%TD*%
D34*
%TO.C,C31*%
X154800000Y-127080000D03*
X154800000Y-126120000D03*
%TD*%
D35*
%TO.C,D9*%
X170750000Y-101250000D03*
X171400000Y-101250000D03*
X172050000Y-101250000D03*
X172050000Y-99350000D03*
X171400000Y-99350000D03*
X170750000Y-99350000D03*
%TD*%
D14*
%TO.C,Q5*%
X103595000Y-109725000D03*
X104865000Y-109725000D03*
X106135000Y-109725000D03*
X107405000Y-109725000D03*
D15*
X105500000Y-106025000D03*
%TD*%
D36*
%TO.C,R27*%
X132500000Y-110760000D03*
X132500000Y-109740000D03*
%TD*%
D19*
%TO.C,C40*%
X166290000Y-110620000D03*
X166290000Y-111580000D03*
%TD*%
D34*
%TO.C,C29*%
X150000000Y-97230000D03*
X150000000Y-96270000D03*
%TD*%
D24*
%TO.C,C22*%
X172600000Y-119600000D03*
X178000000Y-119600000D03*
%TD*%
D37*
%TO.C,SW3*%
X139350000Y-75500000D03*
X132150000Y-75500000D03*
X139350000Y-72500000D03*
X132150000Y-72500000D03*
%TD*%
D36*
%TO.C,R35*%
X134500000Y-97260000D03*
X134500000Y-96240000D03*
%TD*%
D38*
%TO.C,JP3*%
X172550000Y-107937500D03*
X172550000Y-109762500D03*
%TD*%
D39*
%TO.C,U10*%
X157400000Y-109100000D03*
X157400000Y-109600000D03*
X157400000Y-110100000D03*
X157400000Y-110600000D03*
X157400000Y-111100000D03*
X161700000Y-111100000D03*
X161700000Y-110600000D03*
X161700000Y-110100000D03*
X161700000Y-109600000D03*
X161700000Y-109100000D03*
D40*
X159550000Y-110100000D03*
%TD*%
D18*
%TO.C,C32*%
X139500000Y-85450000D03*
X139500000Y-80050000D03*
%TD*%
D34*
%TO.C,C27*%
X127499999Y-108480000D03*
X127499999Y-107520000D03*
%TD*%
D41*
%TO.C,C39*%
X164060000Y-111600000D03*
X165020000Y-111600000D03*
%TD*%
D42*
%TO.C,C17*%
X129700000Y-112250000D03*
X127800000Y-112250000D03*
%TD*%
%TO.C,C16*%
X144200001Y-112250000D03*
X142300001Y-112250000D03*
%TD*%
D43*
%TO.C,J8*%
X170500000Y-79450000D03*
D44*
X168000000Y-79450000D03*
X165500000Y-79450000D03*
X163000000Y-79450000D03*
X160500000Y-79450000D03*
X158000000Y-79450000D03*
X155500000Y-79450000D03*
%TD*%
D45*
%TO.C,D15*%
X139790000Y-108000000D03*
X137710000Y-108000000D03*
D46*
X138750000Y-104195000D03*
%TD*%
D36*
%TO.C,R36*%
X134500000Y-99260000D03*
X134500000Y-98240000D03*
%TD*%
D47*
%TO.C,C24*%
X132230001Y-100750000D03*
X131270001Y-100750000D03*
%TD*%
D36*
%TO.C,R24*%
X145750000Y-110760000D03*
X145750000Y-109740000D03*
%TD*%
D26*
%TO.C,R11*%
X98010000Y-93250000D03*
X96990000Y-93250000D03*
%TD*%
D48*
%TO.C,J5*%
X125449999Y-130550000D03*
X114449999Y-130550000D03*
D49*
X122449999Y-125550000D03*
D50*
X117449999Y-125550000D03*
%TD*%
D51*
%TO.C,U9*%
X174412500Y-111400000D03*
X174412500Y-112350000D03*
X174412500Y-113300000D03*
X176687500Y-113300000D03*
X176687500Y-111400000D03*
%TD*%
D52*
%TO.C,F1*%
X170537500Y-133750000D03*
X167562500Y-133750000D03*
%TD*%
D36*
%TO.C,R25*%
X146999999Y-110760000D03*
X146999999Y-109740000D03*
%TD*%
D53*
%TO.C,J7*%
X117850000Y-55250000D03*
X117850000Y-68750000D03*
D54*
X111850000Y-58400000D03*
D55*
X111850000Y-65600000D03*
%TD*%
D36*
%TO.C,R31*%
X133750000Y-110760000D03*
X133750000Y-109740000D03*
%TD*%
D41*
%TO.C,C28*%
X169120000Y-131700000D03*
X170080000Y-131700000D03*
%TD*%
D47*
%TO.C,C12*%
X95480000Y-102250000D03*
X94520000Y-102250000D03*
%TD*%
D56*
%TO.C,L4*%
X163800000Y-107600000D03*
X166800000Y-107600000D03*
%TD*%
D57*
%TO.C,L5*%
X157700000Y-123300000D03*
X168300000Y-123300000D03*
%TD*%
D34*
%TO.C,C26*%
X142000000Y-108480000D03*
X142000000Y-107520000D03*
%TD*%
D58*
%TO.C,F4*%
X176800000Y-106225000D03*
X176800000Y-104475000D03*
%TD*%
D59*
%TO.C,U1*%
X152900000Y-90300000D03*
X154500000Y-90300000D03*
X156100000Y-90300000D03*
D60*
X156100000Y-85400000D03*
X154500000Y-85400000D03*
X152900000Y-85400000D03*
%TD*%
D26*
%TO.C,R10*%
X100010000Y-93250001D03*
X98990000Y-93250001D03*
%TD*%
D29*
%TO.C,R54*%
X143590000Y-129910000D03*
X144610000Y-129910000D03*
%TD*%
D42*
%TO.C,C18*%
X145800001Y-126200000D03*
X143900001Y-126200000D03*
%TD*%
D26*
%TO.C,R12*%
X99510000Y-94750000D03*
X98490000Y-94750000D03*
%TD*%
D20*
%TO.C,J2*%
X175750000Y-96750000D03*
X175750000Y-95500000D03*
X175750000Y-94250000D03*
D21*
X178950000Y-98600000D03*
X178950000Y-92400000D03*
%TD*%
D41*
%TO.C,C21*%
X148670000Y-123300000D03*
X149630000Y-123300000D03*
%TD*%
D29*
%TO.C,R72*%
X169090000Y-130700000D03*
X170110000Y-130700000D03*
%TD*%
%TO.C,R55*%
X143590000Y-131050000D03*
X144610000Y-131050000D03*
%TD*%
%TO.C,R75*%
X167090000Y-130700000D03*
X168110000Y-130700000D03*
%TD*%
D61*
%TO.C,BZ1*%
X176600000Y-136350000D03*
X180100000Y-136350000D03*
X180100000Y-132550000D03*
%TD*%
D29*
%TO.C,R37*%
X164030001Y-110600000D03*
X165050001Y-110600000D03*
%TD*%
D36*
%TO.C,R26*%
X131250000Y-110760000D03*
X131250000Y-109740000D03*
%TD*%
D41*
%TO.C,C43*%
X156820000Y-107600000D03*
X157780000Y-107600000D03*
%TD*%
D18*
%TO.C,C35*%
X147000000Y-85450000D03*
X147000000Y-80050000D03*
%TD*%
D62*
%TO.C,JP2*%
X176800000Y-109762500D03*
X176800000Y-107937500D03*
%TD*%
D63*
%TO.C,D5*%
X100369670Y-70630330D03*
X101430330Y-69569670D03*
%TD*%
D45*
%TO.C,D16*%
X125290000Y-108015000D03*
X123210000Y-108015000D03*
D46*
X124250000Y-104210000D03*
%TD*%
D52*
%TO.C,F3*%
X126675000Y-74800000D03*
X123700000Y-74800000D03*
%TD*%
D34*
%TO.C,C30*%
X135500000Y-97230000D03*
X135500000Y-96270000D03*
%TD*%
D36*
%TO.C,R34*%
X149000000Y-99260000D03*
X149000000Y-98240000D03*
%TD*%
D48*
%TO.C,J3*%
X139950000Y-130550000D03*
X128950000Y-130550000D03*
D49*
X136950000Y-125550000D03*
D50*
X131950000Y-125550000D03*
%TD*%
D47*
%TO.C,C23*%
X146710000Y-100749999D03*
X145750000Y-100749999D03*
%TD*%
D64*
%TO.C,D12*%
X94350000Y-113000000D03*
X98650000Y-113000000D03*
%TD*%
D65*
%TO.C,JP1*%
X162700000Y-101857949D03*
D66*
X164400000Y-101857949D03*
%TD*%
D67*
%TO.C,D10*%
X105750000Y-88600000D03*
X105750000Y-92900000D03*
%TD*%
D27*
%TO.C,H4*%
X178000000Y-78000000D03*
D28*
X178000000Y-78000000D03*
%TD*%
D42*
%TO.C,C19*%
X144200000Y-110250000D03*
X142300000Y-110250000D03*
%TD*%
D63*
%TO.C,D2*%
X97894796Y-68155456D03*
X98955456Y-67094796D03*
%TD*%
D29*
%TO.C,R17*%
X94490000Y-104250000D03*
X95510000Y-104250000D03*
%TD*%
D26*
%TO.C,R74*%
X149110000Y-129900000D03*
X148090000Y-129900000D03*
%TD*%
D36*
%TO.C,R33*%
X149000000Y-97259999D03*
X149000000Y-96239999D03*
%TD*%
D26*
%TO.C,R39*%
X167060000Y-113100000D03*
X166040000Y-113100000D03*
%TD*%
D68*
%TO.C,J6*%
X166500000Y-139350000D03*
X167750000Y-139350000D03*
X169000000Y-139350000D03*
X170250000Y-139350000D03*
X171500000Y-139350000D03*
D69*
X164650000Y-142550000D03*
X173350000Y-142550000D03*
%TD*%
D22*
%TO.C,TP4*%
X94250000Y-99250000D03*
%TD*%
D36*
%TO.C,R30*%
X135000000Y-110760000D03*
X135000000Y-109740000D03*
%TD*%
D27*
%TO.C,H2*%
X96000000Y-142000000D03*
D28*
X96000000Y-142000000D03*
%TD*%
D70*
%TO.C,J10*%
X162400000Y-135900000D03*
X156000000Y-135900000D03*
D12*
X158200000Y-134700000D03*
X160200000Y-134700000D03*
D13*
X162550000Y-139150000D03*
X155850000Y-139150000D03*
%TD*%
D71*
%TO.C,SW1*%
X167550000Y-90500000D03*
X167550000Y-83300000D03*
X170550000Y-90500000D03*
X170550000Y-83300000D03*
%TD*%
D72*
%TO.C,C44*%
X169550000Y-109124999D03*
X169550000Y-112074999D03*
%TD*%
D26*
%TO.C,R18*%
X95510000Y-103250000D03*
X94490000Y-103250000D03*
%TD*%
D42*
%TO.C,C15*%
X145800001Y-128289999D03*
X143900001Y-128289999D03*
%TD*%
D47*
%TO.C,C41*%
X155530000Y-110850000D03*
X154570000Y-110850000D03*
%TD*%
D73*
%TO.C,R23*%
X171800000Y-111340000D03*
X171800000Y-112360000D03*
%TD*%
D63*
%TO.C,D4*%
X99132233Y-69392893D03*
X100192893Y-68332233D03*
%TD*%
D26*
%TO.C,R40*%
X165060000Y-113100000D03*
X164040000Y-113100000D03*
%TD*%
D74*
%TO.C,U6*%
X148025000Y-124645000D03*
X148025000Y-125915000D03*
X148025000Y-127185000D03*
X148025000Y-128455000D03*
X152975000Y-128455000D03*
X152975000Y-127185000D03*
X152975000Y-125915000D03*
X152975000Y-124645000D03*
D75*
X150500000Y-126550000D03*
%TD*%
D22*
%TO.C,TP2*%
X94250000Y-92000000D03*
%TD*%
D76*
%TO.C,C42*%
X179000000Y-111525000D03*
X179000000Y-114475000D03*
%TD*%
D18*
%TO.C,C33*%
X124499999Y-85450000D03*
X124499999Y-80050000D03*
%TD*%
D22*
%TO.C,TP1*%
X94250000Y-88400000D03*
%TD*%
D31*
%TO.C,L3*%
X128500000Y-98975000D03*
X128500000Y-90025000D03*
%TD*%
D63*
%TO.C,D3*%
X96657359Y-66918019D03*
X97718019Y-65857359D03*
%TD*%
D34*
%TO.C,C6*%
X150650000Y-88080000D03*
X150650000Y-87120000D03*
%TD*%
D30*
%TO.C,R15*%
X102250000Y-96037500D03*
X102250000Y-101962500D03*
%TD*%
D42*
%TO.C,C20*%
X129700000Y-110230000D03*
X127800000Y-110230000D03*
%TD*%
D77*
%TO.C,F5*%
X168925000Y-106100000D03*
X170675000Y-106100000D03*
%TD*%
D78*
%TO.C,D1*%
X147935000Y-121140000D03*
X147935000Y-119060000D03*
D79*
X151740000Y-120100000D03*
%TD*%
D59*
%TO.C,U2*%
X160450000Y-90250000D03*
X162050000Y-90250000D03*
X163650000Y-90250000D03*
D60*
X163650000Y-85350000D03*
X162050000Y-85350000D03*
X160450000Y-85350000D03*
%TD*%
D12*
%TO.C,J9*%
X103150000Y-134550000D03*
X105150000Y-134550000D03*
X107150000Y-134550000D03*
X109150000Y-134550000D03*
D13*
X111500000Y-139000000D03*
X100800000Y-139000000D03*
%TD*%
D78*
%TO.C,D11*%
X94095000Y-119840000D03*
X94095000Y-117760000D03*
D79*
X97900000Y-118800000D03*
%TD*%
D80*
%TO.C,U4*%
X99250000Y-96800000D03*
X98750000Y-96800000D03*
X98250000Y-96800000D03*
X97750000Y-96800000D03*
X97250000Y-96800000D03*
X97250000Y-101200000D03*
X97750000Y-101200000D03*
X98250000Y-101200000D03*
X98750000Y-101200000D03*
X99250000Y-101200000D03*
%TD*%
D36*
%TO.C,R32*%
X148250000Y-110760000D03*
X148250000Y-109740000D03*
%TD*%
D42*
%TO.C,C34*%
X145800001Y-124100000D03*
X143900001Y-124100000D03*
%TD*%
D36*
%TO.C,R29*%
X149550000Y-110760000D03*
X149550000Y-109740000D03*
%TD*%
%TO.C,R20*%
X103800000Y-85210000D03*
X103800000Y-84190000D03*
%TD*%
D29*
%TO.C,R1*%
X163090000Y-99300000D03*
X164110000Y-99300000D03*
%TD*%
D81*
%TO.C,U5*%
X106936284Y-82770000D03*
X106936284Y-82130000D03*
X106936284Y-81470000D03*
X106936284Y-80830000D03*
X103516284Y-80830000D03*
X103516284Y-81470000D03*
X103516284Y-82130000D03*
X103516284Y-82770000D03*
%TD*%
D34*
%TO.C,C14*%
X113000001Y-105080000D03*
X113000001Y-104120000D03*
%TD*%
D82*
%TO.C,D13*%
X113500000Y-106450000D03*
X113500000Y-109750000D03*
%TD*%
D26*
%TO.C,R16*%
X102221284Y-79300000D03*
X101201284Y-79300000D03*
%TD*%
D19*
%TO.C,C10*%
X101476284Y-81070000D03*
X101476284Y-82030000D03*
%TD*%
D83*
%TO.C,Q3*%
X98350000Y-82862500D03*
X96450000Y-82862500D03*
X97400000Y-84737500D03*
%TD*%
D84*
%TO.C,Q6*%
X109550000Y-106287500D03*
X111450000Y-106287500D03*
X110500000Y-104412500D03*
%TD*%
D36*
%TO.C,R9*%
X100226284Y-81060000D03*
X100226284Y-80040000D03*
%TD*%
%TO.C,R21*%
X111750001Y-108860000D03*
X111750001Y-107840000D03*
%TD*%
D85*
%TO.C,C13*%
X108475000Y-78600000D03*
X105525000Y-78600000D03*
%TD*%
D41*
%TO.C,C11*%
X103231284Y-79300000D03*
X104191284Y-79300000D03*
%TD*%
D47*
%TO.C,C5*%
X164080000Y-100550000D03*
X163120000Y-100550000D03*
%TD*%
M02*
