%TF.GenerationSoftware,KiCad,Pcbnew,8.0.7*%
%TF.CreationDate,2025-04-13T14:38:49-04:00*%
%TF.ProjectId,radio,72616469-6f2e-46b6-9963-61645f706362,rev?*%
%TF.SameCoordinates,Original*%
%TF.FileFunction,Copper,L2,Bot*%
%TF.FilePolarity,Positive*%
%FSLAX46Y46*%
G04 Gerber Fmt 4.6, Leading zero omitted, Abs format (unit mm)*
G04 Created by KiCad (PCBNEW 8.0.7) date 2025-04-13 14:38:49*
%MOMM*%
%LPD*%
G01*
G04 APERTURE LIST*
%TA.AperFunction,ComponentPad*%
%ADD10C,0.800000*%
%TD*%
%TA.AperFunction,ComponentPad*%
%ADD11C,1.600000*%
%TD*%
%TA.AperFunction,ViaPad*%
%ADD12C,0.800000*%
%TD*%
%TA.AperFunction,Conductor*%
%ADD13C,0.250000*%
%TD*%
G04 APERTURE END LIST*
D10*
%TO.P,U2,G1,GND*%
%TO.N,GND*%
X141000000Y-94700000D03*
%TO.P,U2,G2,GND*%
X141000000Y-93500000D03*
%TO.P,U2,G3,GND*%
X141000000Y-92300000D03*
%TO.P,U2,G4,GND*%
X141000000Y-91100000D03*
%TO.P,U2,G5,GND*%
X139500000Y-91850000D03*
%TO.P,U2,G6,GND*%
X138300000Y-91850000D03*
%TO.P,U2,G7,GND*%
X137100000Y-91850000D03*
%TO.P,U2,G8,GND*%
X135900000Y-91850000D03*
%TO.P,U2,G9,GND*%
X134700000Y-91850000D03*
%TO.P,U2,G10,GND*%
X133500000Y-91850000D03*
%TO.P,U2,G11,GND*%
X132300000Y-91850000D03*
%TO.P,U2,G12,GND*%
X131100000Y-91850000D03*
%TO.P,U2,G13,GND*%
X129600000Y-91100000D03*
%TO.P,U2,G14,GND*%
X129600000Y-92300000D03*
%TO.P,U2,G15,GND*%
X129600000Y-93500000D03*
%TO.P,U2,G16,GND*%
X129600000Y-94700000D03*
%TO.P,U2,G17,GND*%
X131100000Y-110750000D03*
%TO.P,U2,G18,GND*%
X132300000Y-110750000D03*
%TO.P,U2,G19,GND*%
X133500000Y-110750000D03*
%TO.P,U2,G20,GND*%
X134700000Y-110750000D03*
%TO.P,U2,G21,GND*%
X135900000Y-110750000D03*
%TO.P,U2,G22,GND*%
X137100000Y-110750000D03*
%TO.P,U2,G23,GND*%
X138300000Y-110750000D03*
%TO.P,U2,G24,GND*%
X139500000Y-110750000D03*
%TO.P,U2,G25,GND*%
X136840000Y-95900000D03*
%TO.P,U2,G26,GND*%
X136000000Y-94100000D03*
%TO.P,U2,G27,GND*%
X134600000Y-94100000D03*
%TO.P,U2,G28,GND*%
X133760000Y-95900000D03*
%TO.P,U2,G29,GND*%
X133760000Y-99500000D03*
%TO.P,U2,G30,GND*%
X133760000Y-101300000D03*
%TO.P,U2,G31,GND*%
X133760000Y-103100000D03*
%TO.P,U2,G32,GND*%
X133760000Y-104900000D03*
%TO.P,U2,G33,GND*%
X135300000Y-104900000D03*
%TO.P,U2,G34,GND*%
X135300000Y-103100000D03*
%TO.P,U2,G35,GND*%
X135300000Y-101300000D03*
%TO.P,U2,G36,GND*%
X136840000Y-99500000D03*
%TO.P,U2,G37,GND*%
X136840000Y-101300000D03*
%TO.P,U2,G38,GND*%
X136840000Y-103100000D03*
%TO.P,U2,G39,GND*%
X136840000Y-104900000D03*
%TD*%
D11*
%TO.P,SW1,1,1*%
%TO.N,/RESET_N*%
X163000000Y-105000000D03*
%TO.P,SW1,2,2*%
%TO.N,unconnected-(SW1-Pad2)*%
X169500000Y-105000000D03*
%TO.P,SW1,3,3*%
%TO.N,unconnected-(SW1-Pad3)*%
X163000000Y-109500000D03*
%TO.P,SW1,4,4*%
%TO.N,GND*%
X169500000Y-109500000D03*
%TD*%
D12*
%TO.N,GND*%
X167550000Y-110750000D03*
X127250000Y-93500000D03*
X147500000Y-110750000D03*
X149500000Y-110750000D03*
X144500000Y-87800000D03*
X154450000Y-87950000D03*
X156150000Y-106150000D03*
X155750000Y-110550000D03*
X168500000Y-91500000D03*
X127150000Y-91100000D03*
X149500000Y-103200000D03*
X165300000Y-110750000D03*
X159100000Y-96250000D03*
X167500000Y-91500000D03*
X138350000Y-113300000D03*
X150050000Y-98824500D03*
X153700000Y-101850000D03*
X151500000Y-87700000D03*
X127150000Y-97450000D03*
X170750000Y-111700000D03*
X127250000Y-94700000D03*
X153450000Y-96650000D03*
X145500000Y-110750000D03*
X147500000Y-103250000D03*
X145500000Y-103250000D03*
%TO.N,+3V3*%
X154050000Y-91499500D03*
X154050000Y-89750000D03*
%TO.N,+1V8*%
X140950000Y-95950000D03*
X143400000Y-91450000D03*
%TO.N,/UART_TX_3v3*%
X164100000Y-95000000D03*
X159525500Y-95000000D03*
%TO.N,/UART_RX_3v3*%
X163500000Y-90750000D03*
X157250000Y-92200000D03*
%TO.N,/RST_3v3*%
X161750000Y-97175500D03*
X161750000Y-98650000D03*
%TO.N,/GRN_SW1*%
X162450000Y-100350000D03*
X143900000Y-102700000D03*
X146500000Y-102500000D03*
X159050000Y-100300000D03*
%TO.N,/SW0*%
X143650000Y-105600000D03*
X143750000Y-112300000D03*
%TO.N,/RADIO_RTS_3v3*%
X173500000Y-87200000D03*
X173542500Y-90300000D03*
%TO.N,/UART_CTS_1v8*%
X144100000Y-100050000D03*
X148450000Y-96600000D03*
%TO.N,/UART_RTS_1v8*%
X140850000Y-97200000D03*
X144100000Y-90700000D03*
%TO.N,/RADIO_CTS_3v3*%
X164400000Y-90000000D03*
X155800000Y-91650000D03*
%TO.N,Net-(U3-A5)*%
X148400000Y-90750000D03*
X147400000Y-93450000D03*
%TO.N,/RED_B*%
X163850000Y-107000000D03*
X167450000Y-108000000D03*
X171600000Y-108000000D03*
X154850000Y-107150000D03*
X173800000Y-99400000D03*
X155462701Y-102862701D03*
X165875500Y-108000000D03*
X161850000Y-106950000D03*
%TO.N,/GRN_B*%
X151838190Y-100438190D03*
X161450000Y-102350000D03*
X157000000Y-102350000D03*
X152600000Y-103924500D03*
%TO.N,/BLUE_B*%
X159525500Y-99200000D03*
X171600000Y-104100000D03*
X162493970Y-99317468D03*
X171600000Y-99300000D03*
%TD*%
D13*
%TO.N,+3V3*%
X154050000Y-91499500D02*
X154050000Y-89750000D01*
%TO.N,+1V8*%
X140950000Y-95950000D02*
X143400000Y-93500000D01*
X143400000Y-93500000D02*
X143400000Y-91450000D01*
%TO.N,/UART_TX_3v3*%
X164100000Y-95000000D02*
X159525500Y-95000000D01*
%TO.N,/UART_RX_3v3*%
X163500000Y-90750000D02*
X162050000Y-92200000D01*
X162050000Y-92200000D02*
X157250000Y-92200000D01*
%TO.N,/RST_3v3*%
X161750000Y-97175500D02*
X161750000Y-98650000D01*
%TO.N,/GRN_SW1*%
X159050000Y-100300000D02*
X159100000Y-100350000D01*
X143900000Y-102700000D02*
X144100000Y-102500000D01*
X144100000Y-102500000D02*
X146500000Y-102500000D01*
X159100000Y-100350000D02*
X162450000Y-100350000D01*
%TO.N,/SW0*%
X143650000Y-109050000D02*
X143600000Y-109000000D01*
X143750000Y-112300000D02*
X143650000Y-112200000D01*
X143600000Y-109000000D02*
X143600000Y-105650000D01*
X143650000Y-112200000D02*
X143650000Y-109050000D01*
X143600000Y-105650000D02*
X143650000Y-105600000D01*
%TO.N,/RADIO_RTS_3v3*%
X173500000Y-87200000D02*
X173500000Y-90257500D01*
X173500000Y-90257500D02*
X173542500Y-90300000D01*
%TO.N,/UART_CTS_1v8*%
X147550000Y-96600000D02*
X144100000Y-100050000D01*
X148450000Y-96600000D02*
X147550000Y-96600000D01*
%TO.N,/UART_RTS_1v8*%
X140850000Y-97200000D02*
X144124511Y-93925489D01*
X144124511Y-93925489D02*
X144124511Y-90724511D01*
X144124511Y-90724511D02*
X144100000Y-90700000D01*
%TO.N,/RADIO_CTS_3v3*%
X155800000Y-91650000D02*
X155975000Y-91475000D01*
X161525000Y-91475000D02*
X163000000Y-90000000D01*
X155975000Y-91475000D02*
X161525000Y-91475000D01*
X163000000Y-90000000D02*
X164400000Y-90000000D01*
%TO.N,Net-(U3-A5)*%
X147400000Y-93450000D02*
X148400000Y-92450000D01*
X148400000Y-92450000D02*
X148400000Y-90750000D01*
%TO.N,/RED_B*%
X161850000Y-106950000D02*
X163800000Y-106950000D01*
X154850000Y-103475402D02*
X154850000Y-107150000D01*
X155462701Y-102862701D02*
X154850000Y-103475402D01*
X173800000Y-105800000D02*
X173800000Y-99400000D01*
X165875500Y-108000000D02*
X167450000Y-108000000D01*
X171600000Y-108000000D02*
X173800000Y-105800000D01*
X163800000Y-106950000D02*
X163850000Y-107000000D01*
%TO.N,/GRN_B*%
X157000000Y-102350000D02*
X161450000Y-102350000D01*
X152600000Y-101200000D02*
X152600000Y-103924500D01*
X151838190Y-100438190D02*
X152600000Y-101200000D01*
%TO.N,/BLUE_B*%
X162436927Y-99374511D02*
X159700011Y-99374511D01*
X159700011Y-99374511D02*
X159525500Y-99200000D01*
X171600000Y-104100000D02*
X171600000Y-99300000D01*
X162493970Y-99317468D02*
X162436927Y-99374511D01*
%TD*%
%TA.AperFunction,Conductor*%
%TO.N,GND*%
G36*
X183442121Y-84170002D02*
G01*
X183488614Y-84223658D01*
X183500000Y-84276000D01*
X183500000Y-114824000D01*
X183479998Y-114892121D01*
X183426342Y-114938614D01*
X183374000Y-114950000D01*
X118626000Y-114950000D01*
X118557879Y-114929998D01*
X118511386Y-114876342D01*
X118500000Y-114824000D01*
X118500000Y-111548392D01*
X130660816Y-111548392D01*
X130817867Y-111618317D01*
X131004564Y-111658000D01*
X131195436Y-111658000D01*
X131382129Y-111618317D01*
X131539183Y-111548392D01*
X131860816Y-111548392D01*
X132017867Y-111618317D01*
X132204564Y-111658000D01*
X132395436Y-111658000D01*
X132582129Y-111618317D01*
X132739183Y-111548392D01*
X133060816Y-111548392D01*
X133217867Y-111618317D01*
X133404564Y-111658000D01*
X133595436Y-111658000D01*
X133782129Y-111618317D01*
X133939183Y-111548392D01*
X134260816Y-111548392D01*
X134417867Y-111618317D01*
X134604564Y-111658000D01*
X134795436Y-111658000D01*
X134982129Y-111618317D01*
X135139183Y-111548392D01*
X135460816Y-111548392D01*
X135617867Y-111618317D01*
X135804564Y-111658000D01*
X135995436Y-111658000D01*
X136182129Y-111618317D01*
X136339183Y-111548392D01*
X136660816Y-111548392D01*
X136817867Y-111618317D01*
X137004564Y-111658000D01*
X137195436Y-111658000D01*
X137382129Y-111618317D01*
X137539183Y-111548392D01*
X137860816Y-111548392D01*
X138017867Y-111618317D01*
X138204564Y-111658000D01*
X138395436Y-111658000D01*
X138582129Y-111618317D01*
X138739183Y-111548392D01*
X139060816Y-111548392D01*
X139217867Y-111618317D01*
X139404564Y-111658000D01*
X139595436Y-111658000D01*
X139782129Y-111618317D01*
X139939183Y-111548392D01*
X139500001Y-111109210D01*
X139500000Y-111109210D01*
X139060816Y-111548392D01*
X138739183Y-111548392D01*
X138300001Y-111109210D01*
X138300000Y-111109210D01*
X137860816Y-111548392D01*
X137539183Y-111548392D01*
X137100001Y-111109210D01*
X137100000Y-111109210D01*
X136660816Y-111548392D01*
X136339183Y-111548392D01*
X135900001Y-111109210D01*
X135900000Y-111109210D01*
X135460816Y-111548392D01*
X135139183Y-111548392D01*
X134700001Y-111109210D01*
X134700000Y-111109210D01*
X134260816Y-111548392D01*
X133939183Y-111548392D01*
X133500001Y-111109210D01*
X133500000Y-111109210D01*
X133060816Y-111548392D01*
X132739183Y-111548392D01*
X132300001Y-111109210D01*
X132300000Y-111109210D01*
X131860816Y-111548392D01*
X131539183Y-111548392D01*
X131100001Y-111109210D01*
X131100000Y-111109210D01*
X130660816Y-111548392D01*
X118500000Y-111548392D01*
X118500000Y-110750000D01*
X130186998Y-110750000D01*
X130206948Y-110939824D01*
X130265928Y-111121345D01*
X130265931Y-111121352D01*
X130303817Y-111186971D01*
X130740790Y-110749999D01*
X130710954Y-110720163D01*
X130950000Y-110720163D01*
X130950000Y-110779837D01*
X130972836Y-110834968D01*
X131015032Y-110877164D01*
X131070163Y-110900000D01*
X131129837Y-110900000D01*
X131184968Y-110877164D01*
X131227164Y-110834968D01*
X131250000Y-110779837D01*
X131250000Y-110749999D01*
X131459210Y-110749999D01*
X131459210Y-110750001D01*
X131699999Y-110990790D01*
X131700001Y-110990790D01*
X131940790Y-110750001D01*
X131940790Y-110749999D01*
X131910954Y-110720163D01*
X132150000Y-110720163D01*
X132150000Y-110779837D01*
X132172836Y-110834968D01*
X132215032Y-110877164D01*
X132270163Y-110900000D01*
X132329837Y-110900000D01*
X132384968Y-110877164D01*
X132427164Y-110834968D01*
X132450000Y-110779837D01*
X132450000Y-110749999D01*
X132659210Y-110749999D01*
X132659210Y-110750001D01*
X132899999Y-110990790D01*
X132900001Y-110990790D01*
X133140790Y-110750001D01*
X133140790Y-110749999D01*
X133110954Y-110720163D01*
X133350000Y-110720163D01*
X133350000Y-110779837D01*
X133372836Y-110834968D01*
X133415032Y-110877164D01*
X133470163Y-110900000D01*
X133529837Y-110900000D01*
X133584968Y-110877164D01*
X133627164Y-110834968D01*
X133650000Y-110779837D01*
X133650000Y-110749999D01*
X133859210Y-110749999D01*
X133859210Y-110750001D01*
X134099999Y-110990790D01*
X134100001Y-110990790D01*
X134340790Y-110750001D01*
X134340790Y-110749999D01*
X134310954Y-110720163D01*
X134550000Y-110720163D01*
X134550000Y-110779837D01*
X134572836Y-110834968D01*
X134615032Y-110877164D01*
X134670163Y-110900000D01*
X134729837Y-110900000D01*
X134784968Y-110877164D01*
X134827164Y-110834968D01*
X134850000Y-110779837D01*
X134850000Y-110749999D01*
X135059210Y-110749999D01*
X135059210Y-110750001D01*
X135299999Y-110990790D01*
X135300001Y-110990790D01*
X135540790Y-110750001D01*
X135540790Y-110749999D01*
X135510954Y-110720163D01*
X135750000Y-110720163D01*
X135750000Y-110779837D01*
X135772836Y-110834968D01*
X135815032Y-110877164D01*
X135870163Y-110900000D01*
X135929837Y-110900000D01*
X135984968Y-110877164D01*
X136027164Y-110834968D01*
X136050000Y-110779837D01*
X136050000Y-110749999D01*
X136259210Y-110749999D01*
X136259210Y-110750001D01*
X136499999Y-110990790D01*
X136500001Y-110990790D01*
X136740790Y-110750001D01*
X136740790Y-110749999D01*
X136710954Y-110720163D01*
X136950000Y-110720163D01*
X136950000Y-110779837D01*
X136972836Y-110834968D01*
X137015032Y-110877164D01*
X137070163Y-110900000D01*
X137129837Y-110900000D01*
X137184968Y-110877164D01*
X137227164Y-110834968D01*
X137250000Y-110779837D01*
X137250000Y-110749999D01*
X137459210Y-110749999D01*
X137459210Y-110750001D01*
X137699999Y-110990790D01*
X137700001Y-110990790D01*
X137940790Y-110750001D01*
X137940790Y-110749999D01*
X137910954Y-110720163D01*
X138150000Y-110720163D01*
X138150000Y-110779837D01*
X138172836Y-110834968D01*
X138215032Y-110877164D01*
X138270163Y-110900000D01*
X138329837Y-110900000D01*
X138384968Y-110877164D01*
X138427164Y-110834968D01*
X138450000Y-110779837D01*
X138450000Y-110749999D01*
X138659210Y-110749999D01*
X138659210Y-110750001D01*
X138899999Y-110990790D01*
X138900001Y-110990790D01*
X139140790Y-110750001D01*
X139140790Y-110749999D01*
X139110954Y-110720163D01*
X139350000Y-110720163D01*
X139350000Y-110779837D01*
X139372836Y-110834968D01*
X139415032Y-110877164D01*
X139470163Y-110900000D01*
X139529837Y-110900000D01*
X139584968Y-110877164D01*
X139627164Y-110834968D01*
X139650000Y-110779837D01*
X139650000Y-110749999D01*
X139859210Y-110749999D01*
X139859210Y-110750001D01*
X140296181Y-111186972D01*
X140296182Y-111186971D01*
X140334066Y-111121356D01*
X140393051Y-110939823D01*
X140413001Y-110750000D01*
X140393051Y-110560176D01*
X140334068Y-110378650D01*
X140334065Y-110378643D01*
X140296182Y-110313026D01*
X139859210Y-110749999D01*
X139650000Y-110749999D01*
X139650000Y-110720163D01*
X139627164Y-110665032D01*
X139584968Y-110622836D01*
X139529837Y-110600000D01*
X139470163Y-110600000D01*
X139415032Y-110622836D01*
X139372836Y-110665032D01*
X139350000Y-110720163D01*
X139110954Y-110720163D01*
X138900001Y-110509210D01*
X138899999Y-110509210D01*
X138659210Y-110749999D01*
X138450000Y-110749999D01*
X138450000Y-110720163D01*
X138427164Y-110665032D01*
X138384968Y-110622836D01*
X138329837Y-110600000D01*
X138270163Y-110600000D01*
X138215032Y-110622836D01*
X138172836Y-110665032D01*
X138150000Y-110720163D01*
X137910954Y-110720163D01*
X137700001Y-110509210D01*
X137699999Y-110509210D01*
X137459210Y-110749999D01*
X137250000Y-110749999D01*
X137250000Y-110720163D01*
X137227164Y-110665032D01*
X137184968Y-110622836D01*
X137129837Y-110600000D01*
X137070163Y-110600000D01*
X137015032Y-110622836D01*
X136972836Y-110665032D01*
X136950000Y-110720163D01*
X136710954Y-110720163D01*
X136500001Y-110509210D01*
X136499999Y-110509210D01*
X136259210Y-110749999D01*
X136050000Y-110749999D01*
X136050000Y-110720163D01*
X136027164Y-110665032D01*
X135984968Y-110622836D01*
X135929837Y-110600000D01*
X135870163Y-110600000D01*
X135815032Y-110622836D01*
X135772836Y-110665032D01*
X135750000Y-110720163D01*
X135510954Y-110720163D01*
X135300001Y-110509210D01*
X135299999Y-110509210D01*
X135059210Y-110749999D01*
X134850000Y-110749999D01*
X134850000Y-110720163D01*
X134827164Y-110665032D01*
X134784968Y-110622836D01*
X134729837Y-110600000D01*
X134670163Y-110600000D01*
X134615032Y-110622836D01*
X134572836Y-110665032D01*
X134550000Y-110720163D01*
X134310954Y-110720163D01*
X134100001Y-110509210D01*
X134099999Y-110509210D01*
X133859210Y-110749999D01*
X133650000Y-110749999D01*
X133650000Y-110720163D01*
X133627164Y-110665032D01*
X133584968Y-110622836D01*
X133529837Y-110600000D01*
X133470163Y-110600000D01*
X133415032Y-110622836D01*
X133372836Y-110665032D01*
X133350000Y-110720163D01*
X133110954Y-110720163D01*
X132900001Y-110509210D01*
X132899999Y-110509210D01*
X132659210Y-110749999D01*
X132450000Y-110749999D01*
X132450000Y-110720163D01*
X132427164Y-110665032D01*
X132384968Y-110622836D01*
X132329837Y-110600000D01*
X132270163Y-110600000D01*
X132215032Y-110622836D01*
X132172836Y-110665032D01*
X132150000Y-110720163D01*
X131910954Y-110720163D01*
X131700001Y-110509210D01*
X131699999Y-110509210D01*
X131459210Y-110749999D01*
X131250000Y-110749999D01*
X131250000Y-110720163D01*
X131227164Y-110665032D01*
X131184968Y-110622836D01*
X131129837Y-110600000D01*
X131070163Y-110600000D01*
X131015032Y-110622836D01*
X130972836Y-110665032D01*
X130950000Y-110720163D01*
X130710954Y-110720163D01*
X130303817Y-110313026D01*
X130265928Y-110378653D01*
X130265928Y-110378654D01*
X130206948Y-110560175D01*
X130186998Y-110750000D01*
X118500000Y-110750000D01*
X118500000Y-109951606D01*
X130660815Y-109951606D01*
X131099999Y-110390790D01*
X131100000Y-110390790D01*
X131539183Y-109951606D01*
X131860815Y-109951606D01*
X132299999Y-110390790D01*
X132300000Y-110390790D01*
X132739183Y-109951606D01*
X133060815Y-109951606D01*
X133499999Y-110390790D01*
X133500000Y-110390790D01*
X133939183Y-109951606D01*
X134260815Y-109951606D01*
X134699999Y-110390790D01*
X134700000Y-110390790D01*
X135139183Y-109951606D01*
X135460815Y-109951606D01*
X135899999Y-110390790D01*
X135900000Y-110390790D01*
X136339183Y-109951606D01*
X136660815Y-109951606D01*
X137099999Y-110390790D01*
X137100000Y-110390790D01*
X137539183Y-109951606D01*
X137860815Y-109951606D01*
X138299999Y-110390790D01*
X138300000Y-110390790D01*
X138739183Y-109951606D01*
X139060815Y-109951606D01*
X139499999Y-110390790D01*
X139500000Y-110390790D01*
X139939183Y-109951606D01*
X139782132Y-109881682D01*
X139595436Y-109842000D01*
X139404564Y-109842000D01*
X139217866Y-109881683D01*
X139060815Y-109951606D01*
X138739183Y-109951606D01*
X138582132Y-109881682D01*
X138395436Y-109842000D01*
X138204564Y-109842000D01*
X138017866Y-109881683D01*
X137860815Y-109951606D01*
X137539183Y-109951606D01*
X137382132Y-109881682D01*
X137195436Y-109842000D01*
X137004564Y-109842000D01*
X136817866Y-109881683D01*
X136660815Y-109951606D01*
X136339183Y-109951606D01*
X136182132Y-109881682D01*
X135995436Y-109842000D01*
X135804564Y-109842000D01*
X135617866Y-109881683D01*
X135460815Y-109951606D01*
X135139183Y-109951606D01*
X134982132Y-109881682D01*
X134795436Y-109842000D01*
X134604564Y-109842000D01*
X134417866Y-109881683D01*
X134260815Y-109951606D01*
X133939183Y-109951606D01*
X133782132Y-109881682D01*
X133595436Y-109842000D01*
X133404564Y-109842000D01*
X133217866Y-109881683D01*
X133060815Y-109951606D01*
X132739183Y-109951606D01*
X132582132Y-109881682D01*
X132395436Y-109842000D01*
X132204564Y-109842000D01*
X132017866Y-109881683D01*
X131860815Y-109951606D01*
X131539183Y-109951606D01*
X131382132Y-109881682D01*
X131195436Y-109842000D01*
X131004564Y-109842000D01*
X130817866Y-109881683D01*
X130660815Y-109951606D01*
X118500000Y-109951606D01*
X118500000Y-105698392D01*
X133320816Y-105698392D01*
X133477867Y-105768317D01*
X133664564Y-105808000D01*
X133855436Y-105808000D01*
X134042129Y-105768317D01*
X134199183Y-105698392D01*
X134860816Y-105698392D01*
X135017867Y-105768317D01*
X135204564Y-105808000D01*
X135395436Y-105808000D01*
X135582129Y-105768317D01*
X135739183Y-105698392D01*
X136400816Y-105698392D01*
X136557867Y-105768317D01*
X136744564Y-105808000D01*
X136935436Y-105808000D01*
X137122129Y-105768317D01*
X137279183Y-105698392D01*
X137180791Y-105600000D01*
X142736496Y-105600000D01*
X142756457Y-105789927D01*
X142774125Y-105844302D01*
X142815473Y-105971556D01*
X142815476Y-105971561D01*
X142890367Y-106101277D01*
X142910960Y-106136944D01*
X142930713Y-106158882D01*
X142934136Y-106162683D01*
X142964853Y-106226690D01*
X142966500Y-106246994D01*
X142966500Y-109062396D01*
X142976133Y-109110824D01*
X142990845Y-109184785D01*
X142990846Y-109184787D01*
X142990847Y-109184792D01*
X143006908Y-109223566D01*
X143016500Y-109271785D01*
X143016500Y-111719698D01*
X142999619Y-111782698D01*
X142915476Y-111928438D01*
X142915473Y-111928445D01*
X142856457Y-112110072D01*
X142836496Y-112300000D01*
X142856457Y-112489927D01*
X142886526Y-112582470D01*
X142915473Y-112671556D01*
X142915476Y-112671561D01*
X143010958Y-112836941D01*
X143010965Y-112836951D01*
X143138744Y-112978864D01*
X143138747Y-112978866D01*
X143293248Y-113091118D01*
X143467712Y-113168794D01*
X143654513Y-113208500D01*
X143845487Y-113208500D01*
X144032288Y-113168794D01*
X144206752Y-113091118D01*
X144361253Y-112978866D01*
X144489040Y-112836944D01*
X144584527Y-112671556D01*
X144643542Y-112489928D01*
X144663504Y-112300000D01*
X144643542Y-112110072D01*
X144584527Y-111928444D01*
X144489040Y-111763056D01*
X144361253Y-111621134D01*
X144361252Y-111621133D01*
X144361251Y-111621132D01*
X144361247Y-111621129D01*
X144335437Y-111602376D01*
X144292084Y-111546153D01*
X144283500Y-111500442D01*
X144283500Y-109500000D01*
X161686502Y-109500000D01*
X161706457Y-109728086D01*
X161765715Y-109949240D01*
X161765717Y-109949246D01*
X161862477Y-110156749D01*
X161971903Y-110313026D01*
X161993802Y-110344300D01*
X162155700Y-110506198D01*
X162343251Y-110637523D01*
X162550757Y-110734284D01*
X162771913Y-110793543D01*
X163000000Y-110813498D01*
X163228087Y-110793543D01*
X163449243Y-110734284D01*
X163656749Y-110637523D01*
X163844300Y-110506198D01*
X164006198Y-110344300D01*
X164137523Y-110156749D01*
X164234284Y-109949243D01*
X164293543Y-109728087D01*
X164313498Y-109500000D01*
X168187004Y-109500000D01*
X168206951Y-109728002D01*
X168266186Y-109949068D01*
X168266188Y-109949073D01*
X168362913Y-110156501D01*
X168412899Y-110227888D01*
X169015841Y-109624946D01*
X169034075Y-109692993D01*
X169099901Y-109807007D01*
X169192993Y-109900099D01*
X169307007Y-109965925D01*
X169375051Y-109984157D01*
X168772110Y-110587098D01*
X168772110Y-110587100D01*
X168843498Y-110637086D01*
X169050926Y-110733811D01*
X169050931Y-110733813D01*
X169271999Y-110793048D01*
X169271995Y-110793048D01*
X169500000Y-110812995D01*
X169728002Y-110793048D01*
X169949068Y-110733813D01*
X169949073Y-110733811D01*
X170156497Y-110637088D01*
X170227888Y-110587099D01*
X170227888Y-110587097D01*
X169624948Y-109984157D01*
X169692993Y-109965925D01*
X169807007Y-109900099D01*
X169900099Y-109807007D01*
X169965925Y-109692993D01*
X169984157Y-109624948D01*
X170587097Y-110227888D01*
X170587099Y-110227888D01*
X170637088Y-110156497D01*
X170733811Y-109949073D01*
X170733813Y-109949068D01*
X170793048Y-109728002D01*
X170812995Y-109500000D01*
X170793048Y-109271997D01*
X170733813Y-109050931D01*
X170733811Y-109050926D01*
X170637086Y-108843498D01*
X170587100Y-108772110D01*
X170587098Y-108772110D01*
X169984157Y-109375051D01*
X169965925Y-109307007D01*
X169900099Y-109192993D01*
X169807007Y-109099901D01*
X169692993Y-109034075D01*
X169624947Y-109015841D01*
X170227888Y-108412899D01*
X170227888Y-108412898D01*
X170156501Y-108362913D01*
X169949073Y-108266188D01*
X169949068Y-108266186D01*
X169728000Y-108206951D01*
X169728004Y-108206951D01*
X169500000Y-108187004D01*
X169271997Y-108206951D01*
X169050931Y-108266186D01*
X169050926Y-108266188D01*
X168843500Y-108362913D01*
X168772109Y-108412900D01*
X169375051Y-109015842D01*
X169307007Y-109034075D01*
X169192993Y-109099901D01*
X169099901Y-109192993D01*
X169034075Y-109307007D01*
X169015842Y-109375051D01*
X168412900Y-108772109D01*
X168362913Y-108843500D01*
X168266188Y-109050926D01*
X168266186Y-109050931D01*
X168206951Y-109271997D01*
X168187004Y-109500000D01*
X164313498Y-109500000D01*
X164293543Y-109271913D01*
X164234284Y-109050757D01*
X164137523Y-108843251D01*
X164006198Y-108655700D01*
X163844300Y-108493802D01*
X163728757Y-108412898D01*
X163656749Y-108362477D01*
X163449246Y-108265717D01*
X163449240Y-108265715D01*
X163355771Y-108240670D01*
X163228087Y-108206457D01*
X163000000Y-108186502D01*
X162771913Y-108206457D01*
X162550759Y-108265715D01*
X162550753Y-108265717D01*
X162343250Y-108362477D01*
X162155703Y-108493799D01*
X162155697Y-108493804D01*
X161993804Y-108655697D01*
X161993799Y-108655703D01*
X161862477Y-108843250D01*
X161765717Y-109050753D01*
X161765715Y-109050759D01*
X161706457Y-109271913D01*
X161686502Y-109500000D01*
X144283500Y-109500000D01*
X144283500Y-108987607D01*
X144283499Y-108987603D01*
X144273554Y-108937606D01*
X144259155Y-108865215D01*
X144259151Y-108865205D01*
X144243091Y-108826431D01*
X144233500Y-108778214D01*
X144233500Y-107150000D01*
X153936496Y-107150000D01*
X153956457Y-107339927D01*
X153966736Y-107371561D01*
X154015473Y-107521556D01*
X154015476Y-107521561D01*
X154110958Y-107686941D01*
X154110965Y-107686951D01*
X154238744Y-107828864D01*
X154293702Y-107868793D01*
X154393248Y-107941118D01*
X154567712Y-108018794D01*
X154754513Y-108058500D01*
X154945487Y-108058500D01*
X155132288Y-108018794D01*
X155174500Y-108000000D01*
X164961996Y-108000000D01*
X164981957Y-108189927D01*
X165012026Y-108282470D01*
X165040973Y-108371556D01*
X165040976Y-108371561D01*
X165136458Y-108536941D01*
X165136465Y-108536951D01*
X165264244Y-108678864D01*
X165264247Y-108678866D01*
X165418748Y-108791118D01*
X165593212Y-108868794D01*
X165780013Y-108908500D01*
X165970987Y-108908500D01*
X166157788Y-108868794D01*
X166332252Y-108791118D01*
X166486753Y-108678866D01*
X166490063Y-108675190D01*
X166550509Y-108637950D01*
X166583700Y-108633500D01*
X166741800Y-108633500D01*
X166809921Y-108653502D01*
X166835437Y-108675190D01*
X166838747Y-108678866D01*
X166993248Y-108791118D01*
X167167712Y-108868794D01*
X167354513Y-108908500D01*
X167545487Y-108908500D01*
X167732288Y-108868794D01*
X167906752Y-108791118D01*
X168061253Y-108678866D01*
X168082112Y-108655700D01*
X168189034Y-108536951D01*
X168189035Y-108536949D01*
X168189040Y-108536944D01*
X168284527Y-108371556D01*
X168343542Y-108189928D01*
X168363504Y-108000000D01*
X170686496Y-108000000D01*
X170706457Y-108189927D01*
X170736526Y-108282470D01*
X170765473Y-108371556D01*
X170765476Y-108371561D01*
X170860958Y-108536941D01*
X170860965Y-108536951D01*
X170988744Y-108678864D01*
X170988747Y-108678866D01*
X171143248Y-108791118D01*
X171317712Y-108868794D01*
X171504513Y-108908500D01*
X171695487Y-108908500D01*
X171882288Y-108868794D01*
X172056752Y-108791118D01*
X172211253Y-108678866D01*
X172232112Y-108655700D01*
X172339034Y-108536951D01*
X172339035Y-108536949D01*
X172339040Y-108536944D01*
X172434527Y-108371556D01*
X172493542Y-108189928D01*
X172510907Y-108024703D01*
X172537920Y-107959048D01*
X172547104Y-107948798D01*
X174292071Y-106203833D01*
X174361400Y-106100075D01*
X174409155Y-105984785D01*
X174433500Y-105862394D01*
X174433500Y-105737606D01*
X174433500Y-100102524D01*
X174453502Y-100034403D01*
X174465858Y-100018220D01*
X174539040Y-99936944D01*
X174634527Y-99771556D01*
X174693542Y-99589928D01*
X174713504Y-99400000D01*
X174693542Y-99210072D01*
X174634527Y-99028444D01*
X174548077Y-98878709D01*
X176649500Y-98878709D01*
X176649500Y-99121290D01*
X176681160Y-99361782D01*
X176743944Y-99596095D01*
X176743945Y-99596097D01*
X176743946Y-99596100D01*
X176836776Y-99820212D01*
X176836777Y-99820213D01*
X176836782Y-99820224D01*
X176958061Y-100030285D01*
X176958063Y-100030288D01*
X176958064Y-100030289D01*
X177105735Y-100222738D01*
X177105739Y-100222742D01*
X177105744Y-100222748D01*
X177277251Y-100394255D01*
X177277256Y-100394259D01*
X177277262Y-100394265D01*
X177469711Y-100541936D01*
X177469714Y-100541938D01*
X177679775Y-100663217D01*
X177679779Y-100663218D01*
X177679788Y-100663224D01*
X177903900Y-100756054D01*
X178138211Y-100818838D01*
X178138215Y-100818838D01*
X178138217Y-100818839D01*
X178200202Y-100826999D01*
X178378712Y-100850500D01*
X178378719Y-100850500D01*
X178621281Y-100850500D01*
X178621288Y-100850500D01*
X178838637Y-100821885D01*
X178861782Y-100818839D01*
X178861782Y-100818838D01*
X178861789Y-100818838D01*
X179096100Y-100756054D01*
X179320212Y-100663224D01*
X179530289Y-100541936D01*
X179722738Y-100394265D01*
X179894265Y-100222738D01*
X180041936Y-100030289D01*
X180163224Y-99820212D01*
X180256054Y-99596100D01*
X180318838Y-99361789D01*
X180350500Y-99121288D01*
X180350500Y-98878712D01*
X180318890Y-98638603D01*
X180318839Y-98638217D01*
X180318838Y-98638215D01*
X180318838Y-98638211D01*
X180256054Y-98403900D01*
X180163224Y-98179788D01*
X180163218Y-98179779D01*
X180163217Y-98179775D01*
X180041938Y-97969714D01*
X179972228Y-97878866D01*
X179894265Y-97777262D01*
X179894259Y-97777256D01*
X179894255Y-97777251D01*
X179722748Y-97605744D01*
X179722742Y-97605739D01*
X179722738Y-97605735D01*
X179530289Y-97458064D01*
X179530288Y-97458063D01*
X179530285Y-97458061D01*
X179320224Y-97336782D01*
X179320216Y-97336778D01*
X179320212Y-97336776D01*
X179096100Y-97243946D01*
X179096097Y-97243945D01*
X179096095Y-97243944D01*
X178861782Y-97181160D01*
X178621290Y-97149500D01*
X178621288Y-97149500D01*
X178378712Y-97149500D01*
X178378709Y-97149500D01*
X178138217Y-97181160D01*
X177903904Y-97243944D01*
X177903900Y-97243946D01*
X177819596Y-97278866D01*
X177679786Y-97336777D01*
X177679775Y-97336782D01*
X177469714Y-97458061D01*
X177277262Y-97605735D01*
X177277251Y-97605744D01*
X177105744Y-97777251D01*
X177105735Y-97777262D01*
X176958061Y-97969714D01*
X176836782Y-98179775D01*
X176836777Y-98179786D01*
X176836776Y-98179788D01*
X176749082Y-98391500D01*
X176743946Y-98403900D01*
X176743944Y-98403904D01*
X176681160Y-98638217D01*
X176649500Y-98878709D01*
X174548077Y-98878709D01*
X174539040Y-98863056D01*
X174539038Y-98863054D01*
X174539034Y-98863048D01*
X174411255Y-98721135D01*
X174256752Y-98608882D01*
X174082288Y-98531206D01*
X173895487Y-98491500D01*
X173704513Y-98491500D01*
X173517711Y-98531206D01*
X173343247Y-98608882D01*
X173188744Y-98721135D01*
X173060965Y-98863048D01*
X173060958Y-98863058D01*
X172965476Y-99028438D01*
X172965473Y-99028445D01*
X172906457Y-99210072D01*
X172886496Y-99400000D01*
X172906457Y-99589927D01*
X172932980Y-99671554D01*
X172965473Y-99771556D01*
X172965476Y-99771561D01*
X173059729Y-99934813D01*
X173060960Y-99936944D01*
X173134137Y-100018215D01*
X173164853Y-100082220D01*
X173166500Y-100102524D01*
X173166500Y-105485406D01*
X173146498Y-105553527D01*
X173129595Y-105574501D01*
X171649501Y-107054595D01*
X171587189Y-107088621D01*
X171560406Y-107091500D01*
X171504513Y-107091500D01*
X171317711Y-107131206D01*
X171143247Y-107208882D01*
X170988744Y-107321135D01*
X170860965Y-107463048D01*
X170860958Y-107463058D01*
X170765476Y-107628438D01*
X170765473Y-107628445D01*
X170706457Y-107810072D01*
X170686496Y-108000000D01*
X168363504Y-108000000D01*
X168343542Y-107810072D01*
X168284527Y-107628444D01*
X168189040Y-107463056D01*
X168189038Y-107463054D01*
X168189034Y-107463048D01*
X168061255Y-107321135D01*
X167906752Y-107208882D01*
X167732288Y-107131206D01*
X167545487Y-107091500D01*
X167354513Y-107091500D01*
X167167711Y-107131206D01*
X166993247Y-107208882D01*
X166838747Y-107321133D01*
X166835437Y-107324810D01*
X166774991Y-107362050D01*
X166741800Y-107366500D01*
X166583700Y-107366500D01*
X166515579Y-107346498D01*
X166490063Y-107324810D01*
X166486752Y-107321133D01*
X166332252Y-107208882D01*
X166157788Y-107131206D01*
X165970987Y-107091500D01*
X165780013Y-107091500D01*
X165593211Y-107131206D01*
X165418747Y-107208882D01*
X165264244Y-107321135D01*
X165136465Y-107463048D01*
X165136458Y-107463058D01*
X165040976Y-107628438D01*
X165040973Y-107628445D01*
X164981957Y-107810072D01*
X164961996Y-108000000D01*
X155174500Y-108000000D01*
X155306752Y-107941118D01*
X155461253Y-107828866D01*
X155478175Y-107810072D01*
X155589034Y-107686951D01*
X155589035Y-107686949D01*
X155589040Y-107686944D01*
X155684527Y-107521556D01*
X155743542Y-107339928D01*
X155763504Y-107150000D01*
X155743542Y-106960072D01*
X155740269Y-106950000D01*
X160936496Y-106950000D01*
X160956457Y-107139927D01*
X160972704Y-107189928D01*
X161015473Y-107321556D01*
X161015476Y-107321561D01*
X161110958Y-107486941D01*
X161110965Y-107486951D01*
X161238744Y-107628864D01*
X161238747Y-107628866D01*
X161393248Y-107741118D01*
X161567712Y-107818794D01*
X161754513Y-107858500D01*
X161945487Y-107858500D01*
X162132288Y-107818794D01*
X162306752Y-107741118D01*
X162461253Y-107628866D01*
X162464563Y-107625190D01*
X162525009Y-107587950D01*
X162558200Y-107583500D01*
X163096780Y-107583500D01*
X163164901Y-107603502D01*
X163190416Y-107625190D01*
X163238744Y-107678864D01*
X163238747Y-107678866D01*
X163393248Y-107791118D01*
X163567712Y-107868794D01*
X163754513Y-107908500D01*
X163945487Y-107908500D01*
X164132288Y-107868794D01*
X164306752Y-107791118D01*
X164461253Y-107678866D01*
X164589040Y-107536944D01*
X164684527Y-107371556D01*
X164743542Y-107189928D01*
X164763504Y-107000000D01*
X164743542Y-106810072D01*
X164684527Y-106628444D01*
X164589040Y-106463056D01*
X164589038Y-106463054D01*
X164589034Y-106463048D01*
X164461255Y-106321135D01*
X164306752Y-106208882D01*
X164132284Y-106131204D01*
X164018679Y-106107056D01*
X163956206Y-106073328D01*
X163921885Y-106011178D01*
X163926613Y-105940339D01*
X163955778Y-105894719D01*
X164006198Y-105844300D01*
X164137523Y-105656749D01*
X164234284Y-105449243D01*
X164293543Y-105228087D01*
X164313498Y-105000000D01*
X168186502Y-105000000D01*
X168206457Y-105228087D01*
X168218048Y-105271345D01*
X168265715Y-105449240D01*
X168265717Y-105449246D01*
X168362477Y-105656749D01*
X168455729Y-105789927D01*
X168493802Y-105844300D01*
X168655700Y-106006198D01*
X168843251Y-106137523D01*
X169050757Y-106234284D01*
X169271913Y-106293543D01*
X169500000Y-106313498D01*
X169728087Y-106293543D01*
X169949243Y-106234284D01*
X170156749Y-106137523D01*
X170344300Y-106006198D01*
X170506198Y-105844300D01*
X170637523Y-105656749D01*
X170734284Y-105449243D01*
X170793543Y-105228087D01*
X170813498Y-105000000D01*
X170805039Y-104903316D01*
X170819027Y-104833713D01*
X170868426Y-104782720D01*
X170937552Y-104766529D01*
X171004457Y-104790281D01*
X171004620Y-104790399D01*
X171064237Y-104833713D01*
X171143248Y-104891118D01*
X171317712Y-104968794D01*
X171504513Y-105008500D01*
X171695487Y-105008500D01*
X171882288Y-104968794D01*
X172056752Y-104891118D01*
X172211253Y-104778866D01*
X172211255Y-104778864D01*
X172339034Y-104636951D01*
X172339035Y-104636949D01*
X172339040Y-104636944D01*
X172434527Y-104471556D01*
X172493542Y-104289928D01*
X172513504Y-104100000D01*
X172493542Y-103910072D01*
X172434527Y-103728444D01*
X172342353Y-103568794D01*
X172339042Y-103563059D01*
X172339041Y-103563058D01*
X172339040Y-103563056D01*
X172265863Y-103481784D01*
X172235146Y-103417776D01*
X172233500Y-103397474D01*
X172233500Y-100002524D01*
X172253502Y-99934403D01*
X172265858Y-99918220D01*
X172339040Y-99836944D01*
X172434527Y-99671556D01*
X172493542Y-99489928D01*
X172513504Y-99300000D01*
X172493542Y-99110072D01*
X172434527Y-98928444D01*
X172339040Y-98763056D01*
X172339038Y-98763054D01*
X172339034Y-98763048D01*
X172211255Y-98621135D01*
X172056752Y-98508882D01*
X171882288Y-98431206D01*
X171695487Y-98391500D01*
X171504513Y-98391500D01*
X171317711Y-98431206D01*
X171143247Y-98508882D01*
X170988744Y-98621135D01*
X170860965Y-98763048D01*
X170860958Y-98763058D01*
X170765476Y-98928438D01*
X170765473Y-98928445D01*
X170706457Y-99110072D01*
X170686496Y-99300000D01*
X170706457Y-99489927D01*
X170719425Y-99529837D01*
X170765473Y-99671556D01*
X170776020Y-99689824D01*
X170851306Y-99820224D01*
X170860960Y-99836944D01*
X170934137Y-99918215D01*
X170964853Y-99982220D01*
X170966500Y-100002524D01*
X170966500Y-103397474D01*
X170946498Y-103465595D01*
X170934137Y-103481784D01*
X170860957Y-103563059D01*
X170789688Y-103686502D01*
X170765473Y-103728444D01*
X170753362Y-103765717D01*
X170706457Y-103910072D01*
X170691663Y-104050835D01*
X170664650Y-104116492D01*
X170606428Y-104157122D01*
X170535483Y-104159825D01*
X170477258Y-104126760D01*
X170344302Y-103993804D01*
X170344296Y-103993799D01*
X170156749Y-103862477D01*
X169949246Y-103765717D01*
X169949240Y-103765715D01*
X169821529Y-103731495D01*
X169728087Y-103706457D01*
X169500000Y-103686502D01*
X169271913Y-103706457D01*
X169050759Y-103765715D01*
X169050753Y-103765717D01*
X168843250Y-103862477D01*
X168655703Y-103993799D01*
X168655697Y-103993804D01*
X168493804Y-104155697D01*
X168493799Y-104155703D01*
X168362477Y-104343250D01*
X168265717Y-104550753D01*
X168265715Y-104550759D01*
X168221541Y-104715618D01*
X168206457Y-104771913D01*
X168186502Y-105000000D01*
X164313498Y-105000000D01*
X164293543Y-104771913D01*
X164234284Y-104550757D01*
X164137523Y-104343251D01*
X164006198Y-104155700D01*
X163844300Y-103993802D01*
X163728847Y-103912961D01*
X163656749Y-103862477D01*
X163449246Y-103765717D01*
X163449240Y-103765715D01*
X163321529Y-103731495D01*
X163228087Y-103706457D01*
X163000000Y-103686502D01*
X162771913Y-103706457D01*
X162550759Y-103765715D01*
X162550753Y-103765717D01*
X162343250Y-103862477D01*
X162155703Y-103993799D01*
X162155697Y-103993804D01*
X161993804Y-104155697D01*
X161993799Y-104155703D01*
X161862477Y-104343250D01*
X161765717Y-104550753D01*
X161765715Y-104550759D01*
X161721541Y-104715618D01*
X161706457Y-104771913D01*
X161686502Y-105000000D01*
X161706457Y-105228087D01*
X161718048Y-105271345D01*
X161765715Y-105449240D01*
X161765717Y-105449246D01*
X161862477Y-105656749D01*
X161993052Y-105843229D01*
X162015740Y-105910503D01*
X161998455Y-105979364D01*
X161946685Y-106027948D01*
X161889839Y-106041500D01*
X161754513Y-106041500D01*
X161567711Y-106081206D01*
X161393247Y-106158882D01*
X161238744Y-106271135D01*
X161110965Y-106413048D01*
X161110958Y-106413058D01*
X161015476Y-106578438D01*
X161015473Y-106578445D01*
X160956457Y-106760072D01*
X160936496Y-106950000D01*
X155740269Y-106950000D01*
X155684527Y-106778444D01*
X155589040Y-106613056D01*
X155515863Y-106531784D01*
X155485146Y-106467776D01*
X155483500Y-106447474D01*
X155483500Y-103889109D01*
X155503502Y-103820988D01*
X155557158Y-103774495D01*
X155583297Y-103765863D01*
X155744989Y-103731495D01*
X155919453Y-103653819D01*
X156073954Y-103541567D01*
X156073956Y-103541565D01*
X156201735Y-103399652D01*
X156201736Y-103399650D01*
X156201741Y-103399645D01*
X156297228Y-103234257D01*
X156315106Y-103179234D01*
X156355178Y-103120630D01*
X156420574Y-103092992D01*
X156490531Y-103105098D01*
X156508999Y-103116234D01*
X156543248Y-103141118D01*
X156717712Y-103218794D01*
X156904513Y-103258500D01*
X157095487Y-103258500D01*
X157282288Y-103218794D01*
X157456752Y-103141118D01*
X157611253Y-103028866D01*
X157614563Y-103025190D01*
X157675009Y-102987950D01*
X157708200Y-102983500D01*
X160741800Y-102983500D01*
X160809921Y-103003502D01*
X160835437Y-103025190D01*
X160838747Y-103028866D01*
X160993248Y-103141118D01*
X161167712Y-103218794D01*
X161354513Y-103258500D01*
X161545487Y-103258500D01*
X161732288Y-103218794D01*
X161906752Y-103141118D01*
X162061253Y-103028866D01*
X162132264Y-102950000D01*
X162189034Y-102886951D01*
X162189035Y-102886949D01*
X162189040Y-102886944D01*
X162284527Y-102721556D01*
X162343542Y-102539928D01*
X162363504Y-102350000D01*
X162343542Y-102160072D01*
X162284527Y-101978444D01*
X162189040Y-101813056D01*
X162189038Y-101813054D01*
X162189034Y-101813048D01*
X162061255Y-101671135D01*
X161906752Y-101558882D01*
X161732288Y-101481206D01*
X161545487Y-101441500D01*
X161354513Y-101441500D01*
X161167711Y-101481206D01*
X160993247Y-101558882D01*
X160838747Y-101671133D01*
X160835437Y-101674810D01*
X160774991Y-101712050D01*
X160741800Y-101716500D01*
X157708200Y-101716500D01*
X157640079Y-101696498D01*
X157614563Y-101674810D01*
X157611252Y-101671133D01*
X157456752Y-101558882D01*
X157282288Y-101481206D01*
X157095487Y-101441500D01*
X156904513Y-101441500D01*
X156717711Y-101481206D01*
X156543247Y-101558882D01*
X156388744Y-101671135D01*
X156260965Y-101813048D01*
X156260958Y-101813058D01*
X156165476Y-101978438D01*
X156165473Y-101978445D01*
X156147595Y-102033467D01*
X156107521Y-102092072D01*
X156042124Y-102119709D01*
X155972167Y-102107602D01*
X155953701Y-102096466D01*
X155947653Y-102092072D01*
X155919453Y-102071583D01*
X155744989Y-101993907D01*
X155558188Y-101954201D01*
X155367214Y-101954201D01*
X155180412Y-101993907D01*
X155005948Y-102071583D01*
X154851445Y-102183836D01*
X154723666Y-102325749D01*
X154723659Y-102325759D01*
X154628177Y-102491139D01*
X154628174Y-102491146D01*
X154569158Y-102672773D01*
X154551793Y-102837993D01*
X154524780Y-102903650D01*
X154515580Y-102913916D01*
X154446168Y-102983330D01*
X154357927Y-103071571D01*
X154357926Y-103071573D01*
X154288601Y-103175325D01*
X154249244Y-103270341D01*
X154240845Y-103290617D01*
X154237729Y-103306284D01*
X154216500Y-103413005D01*
X154216500Y-106447474D01*
X154196498Y-106515595D01*
X154184137Y-106531784D01*
X154110957Y-106613059D01*
X154015476Y-106778438D01*
X154015473Y-106778445D01*
X153956457Y-106960072D01*
X153936496Y-107150000D01*
X144233500Y-107150000D01*
X144233500Y-106358055D01*
X144253502Y-106289934D01*
X144265859Y-106273750D01*
X144389040Y-106136944D01*
X144484527Y-105971556D01*
X144543542Y-105789928D01*
X144563504Y-105600000D01*
X144543542Y-105410072D01*
X144484527Y-105228444D01*
X144389040Y-105063056D01*
X144389038Y-105063054D01*
X144389034Y-105063048D01*
X144261255Y-104921135D01*
X144106752Y-104808882D01*
X143932288Y-104731206D01*
X143745487Y-104691500D01*
X143554513Y-104691500D01*
X143367711Y-104731206D01*
X143193247Y-104808882D01*
X143038744Y-104921135D01*
X142910965Y-105063048D01*
X142910958Y-105063058D01*
X142815679Y-105228087D01*
X142815473Y-105228444D01*
X142801534Y-105271345D01*
X142756457Y-105410072D01*
X142736496Y-105600000D01*
X137180791Y-105600000D01*
X136840001Y-105259210D01*
X136840000Y-105259210D01*
X136400816Y-105698392D01*
X135739183Y-105698392D01*
X135300001Y-105259210D01*
X135300000Y-105259210D01*
X134860816Y-105698392D01*
X134199183Y-105698392D01*
X133760001Y-105259210D01*
X133760000Y-105259210D01*
X133320816Y-105698392D01*
X118500000Y-105698392D01*
X118500000Y-104900000D01*
X132846998Y-104900000D01*
X132866948Y-105089824D01*
X132925928Y-105271345D01*
X132925931Y-105271352D01*
X132963817Y-105336971D01*
X133400790Y-104899999D01*
X133370954Y-104870163D01*
X133610000Y-104870163D01*
X133610000Y-104929837D01*
X133632836Y-104984968D01*
X133675032Y-105027164D01*
X133730163Y-105050000D01*
X133789837Y-105050000D01*
X133844968Y-105027164D01*
X133887164Y-104984968D01*
X133910000Y-104929837D01*
X133910000Y-104899999D01*
X134119210Y-104899999D01*
X134119210Y-104900001D01*
X134529999Y-105310790D01*
X134530001Y-105310790D01*
X134940790Y-104900001D01*
X134940790Y-104899999D01*
X134910954Y-104870163D01*
X135150000Y-104870163D01*
X135150000Y-104929837D01*
X135172836Y-104984968D01*
X135215032Y-105027164D01*
X135270163Y-105050000D01*
X135329837Y-105050000D01*
X135384968Y-105027164D01*
X135427164Y-104984968D01*
X135450000Y-104929837D01*
X135450000Y-104899999D01*
X135659210Y-104899999D01*
X135659210Y-104900001D01*
X136069999Y-105310790D01*
X136070001Y-105310790D01*
X136480790Y-104900001D01*
X136480790Y-104899999D01*
X136450954Y-104870163D01*
X136690000Y-104870163D01*
X136690000Y-104929837D01*
X136712836Y-104984968D01*
X136755032Y-105027164D01*
X136810163Y-105050000D01*
X136869837Y-105050000D01*
X136924968Y-105027164D01*
X136967164Y-104984968D01*
X136990000Y-104929837D01*
X136990000Y-104899999D01*
X137199210Y-104899999D01*
X137199210Y-104900001D01*
X137636181Y-105336972D01*
X137636182Y-105336971D01*
X137674066Y-105271356D01*
X137733051Y-105089823D01*
X137753001Y-104900000D01*
X137733051Y-104710176D01*
X137674068Y-104528650D01*
X137674065Y-104528643D01*
X137636182Y-104463026D01*
X137199210Y-104899999D01*
X136990000Y-104899999D01*
X136990000Y-104870163D01*
X136967164Y-104815032D01*
X136924968Y-104772836D01*
X136869837Y-104750000D01*
X136810163Y-104750000D01*
X136755032Y-104772836D01*
X136712836Y-104815032D01*
X136690000Y-104870163D01*
X136450954Y-104870163D01*
X136070001Y-104489210D01*
X136069999Y-104489210D01*
X135659210Y-104899999D01*
X135450000Y-104899999D01*
X135450000Y-104870163D01*
X135427164Y-104815032D01*
X135384968Y-104772836D01*
X135329837Y-104750000D01*
X135270163Y-104750000D01*
X135215032Y-104772836D01*
X135172836Y-104815032D01*
X135150000Y-104870163D01*
X134910954Y-104870163D01*
X134530001Y-104489210D01*
X134529999Y-104489210D01*
X134119210Y-104899999D01*
X133910000Y-104899999D01*
X133910000Y-104870163D01*
X133887164Y-104815032D01*
X133844968Y-104772836D01*
X133789837Y-104750000D01*
X133730163Y-104750000D01*
X133675032Y-104772836D01*
X133632836Y-104815032D01*
X133610000Y-104870163D01*
X133370954Y-104870163D01*
X132963817Y-104463026D01*
X132925928Y-104528653D01*
X132925928Y-104528654D01*
X132866948Y-104710175D01*
X132846998Y-104900000D01*
X118500000Y-104900000D01*
X118500000Y-103898393D01*
X133320815Y-103898393D01*
X133323515Y-103912961D01*
X133344589Y-103930873D01*
X133365238Y-103998800D01*
X133345885Y-104067108D01*
X133323554Y-104086832D01*
X133320815Y-104101606D01*
X133759999Y-104540790D01*
X133760000Y-104540790D01*
X134199183Y-104101606D01*
X134196482Y-104087037D01*
X134175409Y-104069125D01*
X134154760Y-104001198D01*
X134174113Y-103932890D01*
X134196446Y-103913163D01*
X134199183Y-103898393D01*
X134860815Y-103898393D01*
X134863515Y-103912961D01*
X134884589Y-103930873D01*
X134905238Y-103998800D01*
X134885885Y-104067108D01*
X134863554Y-104086832D01*
X134860815Y-104101606D01*
X135299999Y-104540790D01*
X135300000Y-104540790D01*
X135739183Y-104101606D01*
X135736482Y-104087037D01*
X135715409Y-104069125D01*
X135694760Y-104001198D01*
X135714113Y-103932890D01*
X135736446Y-103913163D01*
X135739183Y-103898393D01*
X136400815Y-103898393D01*
X136403515Y-103912961D01*
X136424589Y-103930873D01*
X136445238Y-103998800D01*
X136425885Y-104067108D01*
X136403554Y-104086832D01*
X136400815Y-104101606D01*
X136839999Y-104540790D01*
X136840000Y-104540790D01*
X137279183Y-104101606D01*
X137276482Y-104087037D01*
X137255409Y-104069125D01*
X137234760Y-104001198D01*
X137254113Y-103932890D01*
X137276446Y-103913163D01*
X137279183Y-103898392D01*
X136840001Y-103459210D01*
X136840000Y-103459210D01*
X136400815Y-103898393D01*
X135739183Y-103898393D01*
X135739183Y-103898392D01*
X135300001Y-103459210D01*
X135300000Y-103459210D01*
X134860815Y-103898393D01*
X134199183Y-103898393D01*
X134199183Y-103898392D01*
X133760001Y-103459210D01*
X133760000Y-103459210D01*
X133320815Y-103898393D01*
X118500000Y-103898393D01*
X118500000Y-103100000D01*
X132846998Y-103100000D01*
X132866948Y-103289824D01*
X132925928Y-103471345D01*
X132925931Y-103471352D01*
X132963817Y-103536971D01*
X133400790Y-103099999D01*
X133370954Y-103070163D01*
X133610000Y-103070163D01*
X133610000Y-103129837D01*
X133632836Y-103184968D01*
X133675032Y-103227164D01*
X133730163Y-103250000D01*
X133789837Y-103250000D01*
X133844968Y-103227164D01*
X133887164Y-103184968D01*
X133910000Y-103129837D01*
X133910000Y-103099999D01*
X134119210Y-103099999D01*
X134119210Y-103100001D01*
X134529999Y-103510790D01*
X134530001Y-103510790D01*
X134940790Y-103100001D01*
X134940790Y-103099999D01*
X134910954Y-103070163D01*
X135150000Y-103070163D01*
X135150000Y-103129837D01*
X135172836Y-103184968D01*
X135215032Y-103227164D01*
X135270163Y-103250000D01*
X135329837Y-103250000D01*
X135384968Y-103227164D01*
X135427164Y-103184968D01*
X135450000Y-103129837D01*
X135450000Y-103099999D01*
X135659210Y-103099999D01*
X135659210Y-103100001D01*
X136069999Y-103510790D01*
X136070001Y-103510790D01*
X136480790Y-103100001D01*
X136480790Y-103099999D01*
X136450954Y-103070163D01*
X136690000Y-103070163D01*
X136690000Y-103129837D01*
X136712836Y-103184968D01*
X136755032Y-103227164D01*
X136810163Y-103250000D01*
X136869837Y-103250000D01*
X136924968Y-103227164D01*
X136967164Y-103184968D01*
X136990000Y-103129837D01*
X136990000Y-103099999D01*
X137199210Y-103099999D01*
X137199210Y-103100001D01*
X137636181Y-103536972D01*
X137636182Y-103536971D01*
X137674066Y-103471356D01*
X137733051Y-103289823D01*
X137753001Y-103100000D01*
X137733051Y-102910176D01*
X137674068Y-102728650D01*
X137674065Y-102728643D01*
X137657528Y-102700000D01*
X142986496Y-102700000D01*
X143006457Y-102889927D01*
X143033397Y-102972836D01*
X143065473Y-103071556D01*
X143065476Y-103071561D01*
X143160958Y-103236941D01*
X143160965Y-103236951D01*
X143288744Y-103378864D01*
X143335735Y-103413005D01*
X143443248Y-103491118D01*
X143617712Y-103568794D01*
X143804513Y-103608500D01*
X143995487Y-103608500D01*
X144182288Y-103568794D01*
X144356752Y-103491118D01*
X144511253Y-103378866D01*
X144590262Y-103291118D01*
X144639034Y-103236951D01*
X144639034Y-103236949D01*
X144639040Y-103236944D01*
X144651953Y-103214577D01*
X144662392Y-103196499D01*
X144713775Y-103147506D01*
X144771510Y-103133500D01*
X145791800Y-103133500D01*
X145859921Y-103153502D01*
X145885437Y-103175190D01*
X145888747Y-103178866D01*
X146043248Y-103291118D01*
X146217712Y-103368794D01*
X146404513Y-103408500D01*
X146595487Y-103408500D01*
X146782288Y-103368794D01*
X146956752Y-103291118D01*
X147111253Y-103178866D01*
X147114440Y-103175327D01*
X147239034Y-103036951D01*
X147239035Y-103036949D01*
X147239040Y-103036944D01*
X147334527Y-102871556D01*
X147393542Y-102689928D01*
X147413504Y-102500000D01*
X147393542Y-102310072D01*
X147334527Y-102128444D01*
X147239040Y-101963056D01*
X147239038Y-101963054D01*
X147239034Y-101963048D01*
X147111255Y-101821135D01*
X146956752Y-101708882D01*
X146782288Y-101631206D01*
X146595487Y-101591500D01*
X146404513Y-101591500D01*
X146217711Y-101631206D01*
X146043247Y-101708882D01*
X145888747Y-101821133D01*
X145885437Y-101824810D01*
X145824991Y-101862050D01*
X145791800Y-101866500D01*
X144288343Y-101866500D01*
X144237095Y-101855607D01*
X144182290Y-101831206D01*
X143995487Y-101791500D01*
X143804513Y-101791500D01*
X143617711Y-101831206D01*
X143443247Y-101908882D01*
X143288744Y-102021135D01*
X143160965Y-102163048D01*
X143160958Y-102163058D01*
X143065476Y-102328438D01*
X143065473Y-102328445D01*
X143006457Y-102510072D01*
X142986496Y-102700000D01*
X137657528Y-102700000D01*
X137636182Y-102663026D01*
X137199210Y-103099999D01*
X136990000Y-103099999D01*
X136990000Y-103070163D01*
X136967164Y-103015032D01*
X136924968Y-102972836D01*
X136869837Y-102950000D01*
X136810163Y-102950000D01*
X136755032Y-102972836D01*
X136712836Y-103015032D01*
X136690000Y-103070163D01*
X136450954Y-103070163D01*
X136070001Y-102689210D01*
X136069999Y-102689210D01*
X135659210Y-103099999D01*
X135450000Y-103099999D01*
X135450000Y-103070163D01*
X135427164Y-103015032D01*
X135384968Y-102972836D01*
X135329837Y-102950000D01*
X135270163Y-102950000D01*
X135215032Y-102972836D01*
X135172836Y-103015032D01*
X135150000Y-103070163D01*
X134910954Y-103070163D01*
X134530001Y-102689210D01*
X134529999Y-102689210D01*
X134119210Y-103099999D01*
X133910000Y-103099999D01*
X133910000Y-103070163D01*
X133887164Y-103015032D01*
X133844968Y-102972836D01*
X133789837Y-102950000D01*
X133730163Y-102950000D01*
X133675032Y-102972836D01*
X133632836Y-103015032D01*
X133610000Y-103070163D01*
X133370954Y-103070163D01*
X132963817Y-102663026D01*
X132925928Y-102728653D01*
X132925928Y-102728654D01*
X132866948Y-102910175D01*
X132846998Y-103100000D01*
X118500000Y-103100000D01*
X118500000Y-102098393D01*
X133320815Y-102098393D01*
X133323515Y-102112961D01*
X133344589Y-102130873D01*
X133365238Y-102198800D01*
X133345885Y-102267108D01*
X133323554Y-102286832D01*
X133320815Y-102301606D01*
X133759999Y-102740790D01*
X133760000Y-102740790D01*
X134199183Y-102301606D01*
X134196482Y-102287037D01*
X134175409Y-102269125D01*
X134154760Y-102201198D01*
X134174113Y-102132890D01*
X134196446Y-102113163D01*
X134199183Y-102098393D01*
X134860815Y-102098393D01*
X134863515Y-102112961D01*
X134884589Y-102130873D01*
X134905238Y-102198800D01*
X134885885Y-102267108D01*
X134863554Y-102286832D01*
X134860815Y-102301606D01*
X135299999Y-102740790D01*
X135300000Y-102740790D01*
X135739183Y-102301606D01*
X135736482Y-102287037D01*
X135715409Y-102269125D01*
X135694760Y-102201198D01*
X135714113Y-102132890D01*
X135736446Y-102113163D01*
X135739183Y-102098393D01*
X136400815Y-102098393D01*
X136403515Y-102112961D01*
X136424589Y-102130873D01*
X136445238Y-102198800D01*
X136425885Y-102267108D01*
X136403554Y-102286832D01*
X136400815Y-102301606D01*
X136839999Y-102740790D01*
X136840000Y-102740790D01*
X137279183Y-102301606D01*
X137276482Y-102287037D01*
X137255409Y-102269125D01*
X137234760Y-102201198D01*
X137254113Y-102132890D01*
X137276446Y-102113163D01*
X137279183Y-102098392D01*
X136840001Y-101659210D01*
X136840000Y-101659210D01*
X136400815Y-102098393D01*
X135739183Y-102098393D01*
X135739183Y-102098392D01*
X135300001Y-101659210D01*
X135300000Y-101659210D01*
X134860815Y-102098393D01*
X134199183Y-102098393D01*
X134199183Y-102098392D01*
X133760001Y-101659210D01*
X133760000Y-101659210D01*
X133320815Y-102098393D01*
X118500000Y-102098393D01*
X118500000Y-101300000D01*
X132846998Y-101300000D01*
X132866948Y-101489824D01*
X132925928Y-101671345D01*
X132925931Y-101671352D01*
X132963817Y-101736971D01*
X133400790Y-101299999D01*
X133370954Y-101270163D01*
X133610000Y-101270163D01*
X133610000Y-101329837D01*
X133632836Y-101384968D01*
X133675032Y-101427164D01*
X133730163Y-101450000D01*
X133789837Y-101450000D01*
X133844968Y-101427164D01*
X133887164Y-101384968D01*
X133910000Y-101329837D01*
X133910000Y-101299999D01*
X134119210Y-101299999D01*
X134119210Y-101300001D01*
X134529999Y-101710790D01*
X134530001Y-101710790D01*
X134940790Y-101300001D01*
X134940790Y-101299999D01*
X134910954Y-101270163D01*
X135150000Y-101270163D01*
X135150000Y-101329837D01*
X135172836Y-101384968D01*
X135215032Y-101427164D01*
X135270163Y-101450000D01*
X135329837Y-101450000D01*
X135384968Y-101427164D01*
X135427164Y-101384968D01*
X135450000Y-101329837D01*
X135450000Y-101299999D01*
X135659210Y-101299999D01*
X135659210Y-101300001D01*
X136069999Y-101710790D01*
X136070001Y-101710790D01*
X136480790Y-101300001D01*
X136480790Y-101299999D01*
X136450954Y-101270163D01*
X136690000Y-101270163D01*
X136690000Y-101329837D01*
X136712836Y-101384968D01*
X136755032Y-101427164D01*
X136810163Y-101450000D01*
X136869837Y-101450000D01*
X136924968Y-101427164D01*
X136967164Y-101384968D01*
X136990000Y-101329837D01*
X136990000Y-101299999D01*
X137199210Y-101299999D01*
X137199210Y-101300001D01*
X137636181Y-101736972D01*
X137636182Y-101736971D01*
X137674066Y-101671356D01*
X137733051Y-101489823D01*
X137753001Y-101300000D01*
X137733051Y-101110176D01*
X137674068Y-100928650D01*
X137674065Y-100928643D01*
X137636182Y-100863026D01*
X137199210Y-101299999D01*
X136990000Y-101299999D01*
X136990000Y-101270163D01*
X136967164Y-101215032D01*
X136924968Y-101172836D01*
X136869837Y-101150000D01*
X136810163Y-101150000D01*
X136755032Y-101172836D01*
X136712836Y-101215032D01*
X136690000Y-101270163D01*
X136450954Y-101270163D01*
X136070001Y-100889210D01*
X136069999Y-100889210D01*
X135659210Y-101299999D01*
X135450000Y-101299999D01*
X135450000Y-101270163D01*
X135427164Y-101215032D01*
X135384968Y-101172836D01*
X135329837Y-101150000D01*
X135270163Y-101150000D01*
X135215032Y-101172836D01*
X135172836Y-101215032D01*
X135150000Y-101270163D01*
X134910954Y-101270163D01*
X134530001Y-100889210D01*
X134529999Y-100889210D01*
X134119210Y-101299999D01*
X133910000Y-101299999D01*
X133910000Y-101270163D01*
X133887164Y-101215032D01*
X133844968Y-101172836D01*
X133789837Y-101150000D01*
X133730163Y-101150000D01*
X133675032Y-101172836D01*
X133632836Y-101215032D01*
X133610000Y-101270163D01*
X133370954Y-101270163D01*
X132963817Y-100863026D01*
X132925928Y-100928653D01*
X132925928Y-100928654D01*
X132866948Y-101110175D01*
X132846998Y-101300000D01*
X118500000Y-101300000D01*
X118500000Y-98878709D01*
X121649500Y-98878709D01*
X121649500Y-99121290D01*
X121681160Y-99361782D01*
X121743944Y-99596095D01*
X121743945Y-99596097D01*
X121743946Y-99596100D01*
X121836776Y-99820212D01*
X121836777Y-99820213D01*
X121836782Y-99820224D01*
X121958061Y-100030285D01*
X121958063Y-100030288D01*
X121958064Y-100030289D01*
X122105735Y-100222738D01*
X122105739Y-100222742D01*
X122105744Y-100222748D01*
X122277251Y-100394255D01*
X122277256Y-100394259D01*
X122277262Y-100394265D01*
X122469711Y-100541936D01*
X122469714Y-100541938D01*
X122679775Y-100663217D01*
X122679779Y-100663218D01*
X122679788Y-100663224D01*
X122903900Y-100756054D01*
X123138211Y-100818838D01*
X123138215Y-100818838D01*
X123138217Y-100818839D01*
X123200202Y-100826999D01*
X123378712Y-100850500D01*
X123378719Y-100850500D01*
X123621281Y-100850500D01*
X123621288Y-100850500D01*
X123838637Y-100821885D01*
X123861782Y-100818839D01*
X123861782Y-100818838D01*
X123861789Y-100818838D01*
X124096100Y-100756054D01*
X124320212Y-100663224D01*
X124530289Y-100541936D01*
X124722738Y-100394265D01*
X124818610Y-100298393D01*
X133320815Y-100298393D01*
X133323515Y-100312961D01*
X133344589Y-100330873D01*
X133365238Y-100398800D01*
X133345885Y-100467108D01*
X133323554Y-100486832D01*
X133320815Y-100501606D01*
X133759999Y-100940790D01*
X133760000Y-100940790D01*
X134199183Y-100501606D01*
X134860815Y-100501606D01*
X135299999Y-100940790D01*
X135300000Y-100940790D01*
X135739183Y-100501606D01*
X135582132Y-100431682D01*
X135395436Y-100392000D01*
X135204564Y-100392000D01*
X135017866Y-100431683D01*
X134860815Y-100501606D01*
X134199183Y-100501606D01*
X134196482Y-100487037D01*
X134175409Y-100469125D01*
X134154760Y-100401198D01*
X134174113Y-100332890D01*
X134196446Y-100313163D01*
X134199183Y-100298393D01*
X136400815Y-100298393D01*
X136403515Y-100312961D01*
X136424589Y-100330873D01*
X136445238Y-100398800D01*
X136425885Y-100467108D01*
X136403554Y-100486832D01*
X136400815Y-100501606D01*
X136839999Y-100940790D01*
X136840000Y-100940790D01*
X137279183Y-100501606D01*
X137276482Y-100487037D01*
X137255409Y-100469125D01*
X137234760Y-100401198D01*
X137254113Y-100332890D01*
X137276446Y-100313163D01*
X137279183Y-100298392D01*
X137030791Y-100050000D01*
X143186496Y-100050000D01*
X143206457Y-100239927D01*
X143230188Y-100312961D01*
X143265473Y-100421556D01*
X143265476Y-100421561D01*
X143360958Y-100586941D01*
X143360965Y-100586951D01*
X143488744Y-100728864D01*
X143526168Y-100756054D01*
X143643248Y-100841118D01*
X143817712Y-100918794D01*
X144004513Y-100958500D01*
X144195487Y-100958500D01*
X144382288Y-100918794D01*
X144556752Y-100841118D01*
X144711253Y-100728866D01*
X144711255Y-100728864D01*
X144839034Y-100586951D01*
X144839035Y-100586949D01*
X144839040Y-100586944D01*
X144924923Y-100438190D01*
X150924686Y-100438190D01*
X150944647Y-100628117D01*
X150970580Y-100707929D01*
X151003663Y-100809746D01*
X151003666Y-100809751D01*
X151099148Y-100975131D01*
X151099155Y-100975141D01*
X151226934Y-101117054D01*
X151255223Y-101137607D01*
X151381438Y-101229308D01*
X151555902Y-101306984D01*
X151742703Y-101346690D01*
X151798596Y-101346690D01*
X151866717Y-101366692D01*
X151887691Y-101383595D01*
X151929595Y-101425499D01*
X151963621Y-101487811D01*
X151966500Y-101514594D01*
X151966500Y-103221974D01*
X151946498Y-103290095D01*
X151934137Y-103306284D01*
X151860957Y-103387559D01*
X151765476Y-103552938D01*
X151765473Y-103552944D01*
X151760323Y-103568794D01*
X151706457Y-103734572D01*
X151686496Y-103924500D01*
X151706457Y-104114427D01*
X151736526Y-104206970D01*
X151765473Y-104296056D01*
X151765476Y-104296061D01*
X151860958Y-104461441D01*
X151860965Y-104461451D01*
X151988744Y-104603364D01*
X151988747Y-104603366D01*
X152143248Y-104715618D01*
X152317712Y-104793294D01*
X152504513Y-104833000D01*
X152695487Y-104833000D01*
X152882288Y-104793294D01*
X153056752Y-104715618D01*
X153211253Y-104603366D01*
X153258621Y-104550759D01*
X153339034Y-104461451D01*
X153339035Y-104461449D01*
X153339040Y-104461444D01*
X153434527Y-104296056D01*
X153493542Y-104114428D01*
X153513504Y-103924500D01*
X153493542Y-103734572D01*
X153434527Y-103552944D01*
X153339040Y-103387556D01*
X153265863Y-103306284D01*
X153235146Y-103242276D01*
X153233500Y-103221974D01*
X153233500Y-101137607D01*
X153233499Y-101137603D01*
X153229412Y-101117056D01*
X153209155Y-101015215D01*
X153161400Y-100899925D01*
X153092071Y-100796167D01*
X153003833Y-100707929D01*
X152785312Y-100489408D01*
X152751286Y-100427096D01*
X152749097Y-100413483D01*
X152737170Y-100300000D01*
X158136496Y-100300000D01*
X158156457Y-100489927D01*
X158173357Y-100541938D01*
X158215473Y-100671556D01*
X158215476Y-100671561D01*
X158310958Y-100836941D01*
X158310965Y-100836951D01*
X158438744Y-100978864D01*
X158438747Y-100978866D01*
X158593248Y-101091118D01*
X158767712Y-101168794D01*
X158954513Y-101208500D01*
X159145487Y-101208500D01*
X159332288Y-101168794D01*
X159506752Y-101091118D01*
X159621754Y-101007564D01*
X159688622Y-100983705D01*
X159695815Y-100983500D01*
X161741800Y-100983500D01*
X161809921Y-101003502D01*
X161835437Y-101025190D01*
X161838747Y-101028866D01*
X161993248Y-101141118D01*
X162167712Y-101218794D01*
X162354513Y-101258500D01*
X162545487Y-101258500D01*
X162732288Y-101218794D01*
X162906752Y-101141118D01*
X163061253Y-101028866D01*
X163064563Y-101025190D01*
X163189034Y-100886951D01*
X163189035Y-100886949D01*
X163189040Y-100886944D01*
X163284527Y-100721556D01*
X163343542Y-100539928D01*
X163363504Y-100350000D01*
X163343542Y-100160072D01*
X163284527Y-99978444D01*
X163284524Y-99978438D01*
X163259337Y-99934813D01*
X163242598Y-99865818D01*
X163259334Y-99808817D01*
X163328497Y-99689024D01*
X163387512Y-99507396D01*
X163407474Y-99317468D01*
X163387512Y-99127540D01*
X163328497Y-98945912D01*
X163233010Y-98780524D01*
X163233008Y-98780522D01*
X163233004Y-98780516D01*
X163105225Y-98638603D01*
X162950722Y-98526350D01*
X162776254Y-98448672D01*
X162700872Y-98432649D01*
X162638399Y-98398921D01*
X162607237Y-98348338D01*
X162584530Y-98278451D01*
X162584527Y-98278445D01*
X162584527Y-98278444D01*
X162489040Y-98113056D01*
X162415863Y-98031784D01*
X162385146Y-97967776D01*
X162383500Y-97947474D01*
X162383500Y-97878024D01*
X162403502Y-97809903D01*
X162415858Y-97793720D01*
X162489040Y-97712444D01*
X162584527Y-97547056D01*
X162643542Y-97365428D01*
X162663504Y-97175500D01*
X162643542Y-96985572D01*
X162584527Y-96803944D01*
X162489040Y-96638556D01*
X162489038Y-96638554D01*
X162489034Y-96638548D01*
X162361255Y-96496635D01*
X162206752Y-96384382D01*
X162032288Y-96306706D01*
X161845487Y-96267000D01*
X161654513Y-96267000D01*
X161467711Y-96306706D01*
X161293247Y-96384382D01*
X161138744Y-96496635D01*
X161010965Y-96638548D01*
X161010958Y-96638558D01*
X160923565Y-96789928D01*
X160915473Y-96803944D01*
X160907512Y-96828445D01*
X160856457Y-96985572D01*
X160836496Y-97175500D01*
X160856457Y-97365427D01*
X160864805Y-97391118D01*
X160915473Y-97547056D01*
X161010960Y-97712444D01*
X161084137Y-97793715D01*
X161114853Y-97857720D01*
X161116500Y-97878024D01*
X161116500Y-97947474D01*
X161096498Y-98015595D01*
X161084137Y-98031784D01*
X161010957Y-98113059D01*
X160915476Y-98278438D01*
X160915473Y-98278445D01*
X160856457Y-98460072D01*
X160838789Y-98628181D01*
X160811776Y-98693838D01*
X160753554Y-98734468D01*
X160713479Y-98741011D01*
X160382293Y-98741011D01*
X160314172Y-98721009D01*
X160273173Y-98678009D01*
X160264541Y-98663058D01*
X160264536Y-98663050D01*
X160136755Y-98521135D01*
X159982252Y-98408882D01*
X159807788Y-98331206D01*
X159620987Y-98291500D01*
X159430013Y-98291500D01*
X159243211Y-98331206D01*
X159068747Y-98408882D01*
X158914244Y-98521135D01*
X158786465Y-98663048D01*
X158786458Y-98663058D01*
X158690976Y-98828438D01*
X158690973Y-98828445D01*
X158631957Y-99010072D01*
X158611996Y-99200000D01*
X158632648Y-99396496D01*
X158631052Y-99396663D01*
X158626265Y-99459366D01*
X158583445Y-99515997D01*
X158582483Y-99516703D01*
X158438744Y-99621135D01*
X158310965Y-99763048D01*
X158310958Y-99763058D01*
X158215476Y-99928438D01*
X158215473Y-99928444D01*
X158212702Y-99936972D01*
X158156457Y-100110072D01*
X158136496Y-100300000D01*
X152737170Y-100300000D01*
X152731732Y-100248262D01*
X152723442Y-100222748D01*
X152672717Y-100066634D01*
X152577230Y-99901246D01*
X152577228Y-99901244D01*
X152577224Y-99901238D01*
X152449445Y-99759325D01*
X152294942Y-99647072D01*
X152120478Y-99569396D01*
X151933677Y-99529690D01*
X151742703Y-99529690D01*
X151555901Y-99569396D01*
X151381437Y-99647072D01*
X151226934Y-99759325D01*
X151099155Y-99901238D01*
X151099148Y-99901248D01*
X151003666Y-100066628D01*
X151003663Y-100066635D01*
X150944647Y-100248262D01*
X150924686Y-100438190D01*
X144924923Y-100438190D01*
X144934527Y-100421556D01*
X144993542Y-100239928D01*
X145010907Y-100074704D01*
X145037920Y-100009049D01*
X145047113Y-99998790D01*
X147721120Y-97324783D01*
X147783430Y-97290759D01*
X147854245Y-97295824D01*
X147884274Y-97311944D01*
X147918453Y-97336776D01*
X147993248Y-97391118D01*
X148167712Y-97468794D01*
X148354513Y-97508500D01*
X148545487Y-97508500D01*
X148732288Y-97468794D01*
X148906752Y-97391118D01*
X149061253Y-97278866D01*
X149154324Y-97175500D01*
X149189034Y-97136951D01*
X149189035Y-97136949D01*
X149189040Y-97136944D01*
X149284527Y-96971556D01*
X149343542Y-96789928D01*
X149363504Y-96600000D01*
X149343542Y-96410072D01*
X149284527Y-96228444D01*
X149189040Y-96063056D01*
X149189038Y-96063054D01*
X149189034Y-96063048D01*
X149061255Y-95921135D01*
X148906752Y-95808882D01*
X148732288Y-95731206D01*
X148545487Y-95691500D01*
X148354513Y-95691500D01*
X148167711Y-95731206D01*
X147993247Y-95808882D01*
X147838747Y-95921133D01*
X147835437Y-95924810D01*
X147774991Y-95962050D01*
X147741800Y-95966500D01*
X147487603Y-95966500D01*
X147365214Y-95990845D01*
X147365209Y-95990847D01*
X147249924Y-96038599D01*
X147146167Y-96107927D01*
X147146161Y-96107932D01*
X144149501Y-99104595D01*
X144087189Y-99138620D01*
X144060406Y-99141500D01*
X144004513Y-99141500D01*
X143817711Y-99181206D01*
X143643247Y-99258882D01*
X143488744Y-99371135D01*
X143360965Y-99513048D01*
X143360958Y-99513058D01*
X143265476Y-99678438D01*
X143265473Y-99678444D01*
X143250999Y-99722986D01*
X143206457Y-99860072D01*
X143186496Y-100050000D01*
X137030791Y-100050000D01*
X136840001Y-99859210D01*
X136840000Y-99859210D01*
X136400815Y-100298393D01*
X134199183Y-100298393D01*
X134199183Y-100298392D01*
X133760001Y-99859210D01*
X133760000Y-99859210D01*
X133320815Y-100298393D01*
X124818610Y-100298393D01*
X124894265Y-100222738D01*
X125041936Y-100030289D01*
X125163224Y-99820212D01*
X125256054Y-99596100D01*
X125281804Y-99500000D01*
X132846998Y-99500000D01*
X132866948Y-99689824D01*
X132925928Y-99871345D01*
X132925931Y-99871352D01*
X132963817Y-99936971D01*
X133400790Y-99499999D01*
X133370954Y-99470163D01*
X133610000Y-99470163D01*
X133610000Y-99529837D01*
X133632836Y-99584968D01*
X133675032Y-99627164D01*
X133730163Y-99650000D01*
X133789837Y-99650000D01*
X133844968Y-99627164D01*
X133887164Y-99584968D01*
X133910000Y-99529837D01*
X133910000Y-99499999D01*
X134119210Y-99499999D01*
X134119210Y-99500001D01*
X134556181Y-99936972D01*
X134556182Y-99936971D01*
X134594066Y-99871356D01*
X134653051Y-99689823D01*
X134673001Y-99500000D01*
X135926998Y-99500000D01*
X135946948Y-99689824D01*
X136005928Y-99871345D01*
X136005931Y-99871352D01*
X136043817Y-99936971D01*
X136480790Y-99499999D01*
X136450954Y-99470163D01*
X136690000Y-99470163D01*
X136690000Y-99529837D01*
X136712836Y-99584968D01*
X136755032Y-99627164D01*
X136810163Y-99650000D01*
X136869837Y-99650000D01*
X136924968Y-99627164D01*
X136967164Y-99584968D01*
X136990000Y-99529837D01*
X136990000Y-99499999D01*
X137199210Y-99499999D01*
X137199210Y-99500001D01*
X137636181Y-99936972D01*
X137636182Y-99936971D01*
X137674066Y-99871356D01*
X137733051Y-99689823D01*
X137753001Y-99500000D01*
X137733051Y-99310176D01*
X137674068Y-99128650D01*
X137674065Y-99128643D01*
X137636182Y-99063026D01*
X137199210Y-99499999D01*
X136990000Y-99499999D01*
X136990000Y-99470163D01*
X136967164Y-99415032D01*
X136924968Y-99372836D01*
X136869837Y-99350000D01*
X136810163Y-99350000D01*
X136755032Y-99372836D01*
X136712836Y-99415032D01*
X136690000Y-99470163D01*
X136450954Y-99470163D01*
X136043817Y-99063026D01*
X136005928Y-99128653D01*
X136005928Y-99128654D01*
X135946948Y-99310175D01*
X135926998Y-99500000D01*
X134673001Y-99500000D01*
X134653051Y-99310176D01*
X134594068Y-99128650D01*
X134594065Y-99128643D01*
X134556182Y-99063026D01*
X134119210Y-99499999D01*
X133910000Y-99499999D01*
X133910000Y-99470163D01*
X133887164Y-99415032D01*
X133844968Y-99372836D01*
X133789837Y-99350000D01*
X133730163Y-99350000D01*
X133675032Y-99372836D01*
X133632836Y-99415032D01*
X133610000Y-99470163D01*
X133370954Y-99470163D01*
X132963817Y-99063026D01*
X132925928Y-99128653D01*
X132925928Y-99128654D01*
X132866948Y-99310175D01*
X132846998Y-99500000D01*
X125281804Y-99500000D01*
X125318838Y-99361789D01*
X125350500Y-99121288D01*
X125350500Y-98878712D01*
X125327184Y-98701606D01*
X133320815Y-98701606D01*
X133759999Y-99140790D01*
X133760000Y-99140790D01*
X134199183Y-98701606D01*
X136400815Y-98701606D01*
X136839999Y-99140790D01*
X136840000Y-99140790D01*
X137279183Y-98701606D01*
X137122132Y-98631682D01*
X136935436Y-98592000D01*
X136744564Y-98592000D01*
X136557866Y-98631683D01*
X136400815Y-98701606D01*
X134199183Y-98701606D01*
X134042132Y-98631682D01*
X133855436Y-98592000D01*
X133664564Y-98592000D01*
X133477866Y-98631683D01*
X133320815Y-98701606D01*
X125327184Y-98701606D01*
X125318890Y-98638603D01*
X125318839Y-98638217D01*
X125318838Y-98638215D01*
X125318838Y-98638211D01*
X125256054Y-98403900D01*
X125163224Y-98179788D01*
X125163218Y-98179779D01*
X125163217Y-98179775D01*
X125041938Y-97969714D01*
X124972228Y-97878866D01*
X124894265Y-97777262D01*
X124894259Y-97777256D01*
X124894255Y-97777251D01*
X124722748Y-97605744D01*
X124722742Y-97605739D01*
X124722738Y-97605735D01*
X124530289Y-97458064D01*
X124530288Y-97458063D01*
X124530285Y-97458061D01*
X124320224Y-97336782D01*
X124320216Y-97336778D01*
X124320212Y-97336776D01*
X124096100Y-97243946D01*
X124096097Y-97243945D01*
X124096095Y-97243944D01*
X123932094Y-97200000D01*
X139936496Y-97200000D01*
X139956457Y-97389927D01*
X139978596Y-97458061D01*
X140015473Y-97571556D01*
X140043841Y-97620691D01*
X140110958Y-97736941D01*
X140110965Y-97736951D01*
X140238744Y-97878864D01*
X140238747Y-97878866D01*
X140393248Y-97991118D01*
X140567712Y-98068794D01*
X140754513Y-98108500D01*
X140945487Y-98108500D01*
X141132288Y-98068794D01*
X141306752Y-97991118D01*
X141461253Y-97878866D01*
X141505560Y-97829658D01*
X141589034Y-97736951D01*
X141589035Y-97736949D01*
X141589040Y-97736944D01*
X141684527Y-97571556D01*
X141743542Y-97389928D01*
X141760907Y-97224703D01*
X141787920Y-97159048D01*
X141797104Y-97148798D01*
X143945904Y-95000000D01*
X158611996Y-95000000D01*
X158631957Y-95189927D01*
X158645220Y-95230744D01*
X158690973Y-95371556D01*
X158690976Y-95371561D01*
X158786458Y-95536941D01*
X158786465Y-95536951D01*
X158914244Y-95678864D01*
X158914247Y-95678866D01*
X159068748Y-95791118D01*
X159243212Y-95868794D01*
X159430013Y-95908500D01*
X159620987Y-95908500D01*
X159807788Y-95868794D01*
X159982252Y-95791118D01*
X160136753Y-95678866D01*
X160140063Y-95675190D01*
X160200509Y-95637950D01*
X160233700Y-95633500D01*
X163391800Y-95633500D01*
X163459921Y-95653502D01*
X163485437Y-95675190D01*
X163488747Y-95678866D01*
X163643248Y-95791118D01*
X163817712Y-95868794D01*
X164004513Y-95908500D01*
X164195487Y-95908500D01*
X164382288Y-95868794D01*
X164556752Y-95791118D01*
X164711253Y-95678866D01*
X164775061Y-95608000D01*
X164839034Y-95536951D01*
X164839035Y-95536949D01*
X164839040Y-95536944D01*
X164934527Y-95371556D01*
X164993542Y-95189928D01*
X165013504Y-95000000D01*
X164993542Y-94810072D01*
X164934527Y-94628444D01*
X164839040Y-94463056D01*
X164839038Y-94463054D01*
X164839034Y-94463048D01*
X164711255Y-94321135D01*
X164556752Y-94208882D01*
X164382288Y-94131206D01*
X164195487Y-94091500D01*
X164004513Y-94091500D01*
X163817711Y-94131206D01*
X163643247Y-94208882D01*
X163488747Y-94321133D01*
X163485437Y-94324810D01*
X163424991Y-94362050D01*
X163391800Y-94366500D01*
X160233700Y-94366500D01*
X160165579Y-94346498D01*
X160140063Y-94324810D01*
X160136752Y-94321133D01*
X159982252Y-94208882D01*
X159807788Y-94131206D01*
X159620987Y-94091500D01*
X159430013Y-94091500D01*
X159243211Y-94131206D01*
X159068747Y-94208882D01*
X158914244Y-94321135D01*
X158786465Y-94463048D01*
X158786458Y-94463058D01*
X158690976Y-94628438D01*
X158690973Y-94628445D01*
X158631957Y-94810072D01*
X158611996Y-95000000D01*
X143945904Y-95000000D01*
X144616582Y-94329322D01*
X144685911Y-94225564D01*
X144733666Y-94110274D01*
X144758011Y-93987883D01*
X144758011Y-93863095D01*
X144758011Y-93450000D01*
X146486496Y-93450000D01*
X146506457Y-93639927D01*
X146513963Y-93663026D01*
X146565473Y-93821556D01*
X146565476Y-93821561D01*
X146660958Y-93986941D01*
X146660965Y-93986951D01*
X146788744Y-94128864D01*
X146802191Y-94138634D01*
X146943248Y-94241118D01*
X147117712Y-94318794D01*
X147304513Y-94358500D01*
X147495487Y-94358500D01*
X147682288Y-94318794D01*
X147856752Y-94241118D01*
X148011253Y-94128866D01*
X148011255Y-94128864D01*
X148139034Y-93986951D01*
X148139035Y-93986949D01*
X148139040Y-93986944D01*
X148234527Y-93821556D01*
X148293542Y-93639928D01*
X148310907Y-93474705D01*
X148337919Y-93409052D01*
X148347111Y-93398792D01*
X148892072Y-92853833D01*
X148961401Y-92750075D01*
X149009155Y-92634784D01*
X149033500Y-92512393D01*
X149033500Y-92387606D01*
X149033500Y-91452524D01*
X149053502Y-91384403D01*
X149065858Y-91368220D01*
X149139040Y-91286944D01*
X149234527Y-91121556D01*
X149293542Y-90939928D01*
X149313504Y-90750000D01*
X149293542Y-90560072D01*
X149234527Y-90378444D01*
X149139040Y-90213056D01*
X149139038Y-90213054D01*
X149139034Y-90213048D01*
X149011255Y-90071135D01*
X148856752Y-89958882D01*
X148682288Y-89881206D01*
X148495487Y-89841500D01*
X148304513Y-89841500D01*
X148117711Y-89881206D01*
X147943247Y-89958882D01*
X147788744Y-90071135D01*
X147660965Y-90213048D01*
X147660958Y-90213058D01*
X147565476Y-90378438D01*
X147565473Y-90378445D01*
X147506457Y-90560072D01*
X147486496Y-90750000D01*
X147506457Y-90939927D01*
X147520025Y-90981683D01*
X147565473Y-91121556D01*
X147565476Y-91121561D01*
X147656052Y-91278444D01*
X147660960Y-91286944D01*
X147734137Y-91368215D01*
X147764853Y-91432220D01*
X147766500Y-91452524D01*
X147766500Y-92135404D01*
X147746498Y-92203525D01*
X147729596Y-92224499D01*
X147449501Y-92504595D01*
X147387188Y-92538620D01*
X147360405Y-92541500D01*
X147304513Y-92541500D01*
X147117711Y-92581206D01*
X146943247Y-92658882D01*
X146788744Y-92771135D01*
X146660965Y-92913048D01*
X146660958Y-92913058D01*
X146565476Y-93078438D01*
X146565473Y-93078445D01*
X146506457Y-93260072D01*
X146486496Y-93450000D01*
X144758011Y-93450000D01*
X144758011Y-91375302D01*
X144778013Y-91307181D01*
X144790375Y-91290991D01*
X144794022Y-91286941D01*
X144839040Y-91236944D01*
X144934527Y-91071556D01*
X144993542Y-90889928D01*
X145013504Y-90700000D01*
X144993542Y-90510072D01*
X144934527Y-90328444D01*
X144839040Y-90163056D01*
X144839038Y-90163054D01*
X144839034Y-90163048D01*
X144711255Y-90021135D01*
X144556752Y-89908882D01*
X144382288Y-89831206D01*
X144195487Y-89791500D01*
X144004513Y-89791500D01*
X143817711Y-89831206D01*
X143643247Y-89908882D01*
X143488744Y-90021135D01*
X143360965Y-90163048D01*
X143360958Y-90163058D01*
X143265476Y-90328438D01*
X143265473Y-90328444D01*
X143249229Y-90378438D01*
X143210694Y-90497035D01*
X143170620Y-90555640D01*
X143123669Y-90578176D01*
X143123991Y-90579166D01*
X143117711Y-90581206D01*
X142943249Y-90658881D01*
X142943248Y-90658882D01*
X142788744Y-90771135D01*
X142660965Y-90913048D01*
X142660958Y-90913058D01*
X142565476Y-91078438D01*
X142565473Y-91078444D01*
X142555420Y-91109385D01*
X142506457Y-91260072D01*
X142486496Y-91450000D01*
X142506457Y-91639927D01*
X142525977Y-91700001D01*
X142565473Y-91821556D01*
X142565476Y-91821561D01*
X142655313Y-91977164D01*
X142660960Y-91986944D01*
X142734137Y-92068215D01*
X142764853Y-92132220D01*
X142766500Y-92152524D01*
X142766500Y-93185406D01*
X142746498Y-93253527D01*
X142729599Y-93274496D01*
X142376932Y-93627164D01*
X142061423Y-93942673D01*
X141999111Y-93976698D01*
X141928295Y-93971633D01*
X141871460Y-93929086D01*
X141846649Y-93862566D01*
X141852495Y-93814640D01*
X141893051Y-93689823D01*
X141913001Y-93500000D01*
X141893051Y-93310176D01*
X141834068Y-93128650D01*
X141834065Y-93128643D01*
X141796182Y-93063026D01*
X141359210Y-93499999D01*
X141359210Y-93500001D01*
X141840118Y-93980909D01*
X141839695Y-93981331D01*
X141863438Y-94002402D01*
X141882632Y-94070755D01*
X141861825Y-94138634D01*
X141845736Y-94158359D01*
X141241143Y-94762952D01*
X141178831Y-94796978D01*
X141119404Y-94792727D01*
X141127164Y-94784968D01*
X141150000Y-94729837D01*
X141150000Y-94670163D01*
X141127164Y-94615032D01*
X141084968Y-94572836D01*
X141029837Y-94550000D01*
X140970163Y-94550000D01*
X140915032Y-94572836D01*
X140872836Y-94615032D01*
X140850000Y-94670163D01*
X140850000Y-94729837D01*
X140872836Y-94784968D01*
X140889366Y-94801498D01*
X140847177Y-94824535D01*
X140776361Y-94819469D01*
X140731298Y-94790509D01*
X140203817Y-94263027D01*
X140165928Y-94328653D01*
X140165928Y-94328654D01*
X140106948Y-94510175D01*
X140086998Y-94700000D01*
X140106948Y-94889824D01*
X140165928Y-95071345D01*
X140165931Y-95071352D01*
X140257957Y-95230744D01*
X140274695Y-95299739D01*
X140251475Y-95366831D01*
X140242476Y-95378053D01*
X140210957Y-95413059D01*
X140115476Y-95578438D01*
X140115473Y-95578445D01*
X140056457Y-95760072D01*
X140036496Y-95950000D01*
X140056457Y-96139927D01*
X140085217Y-96228438D01*
X140115473Y-96321556D01*
X140151746Y-96384382D01*
X140188071Y-96447299D01*
X140204809Y-96516294D01*
X140181589Y-96583386D01*
X140172589Y-96594609D01*
X140110961Y-96663054D01*
X140110958Y-96663058D01*
X140015476Y-96828438D01*
X140015473Y-96828445D01*
X139956457Y-97010072D01*
X139936496Y-97200000D01*
X123932094Y-97200000D01*
X123861782Y-97181160D01*
X123621290Y-97149500D01*
X123621288Y-97149500D01*
X123378712Y-97149500D01*
X123378709Y-97149500D01*
X123138217Y-97181160D01*
X122903904Y-97243944D01*
X122903900Y-97243946D01*
X122819596Y-97278866D01*
X122679786Y-97336777D01*
X122679775Y-97336782D01*
X122469714Y-97458061D01*
X122277262Y-97605735D01*
X122277251Y-97605744D01*
X122105744Y-97777251D01*
X122105735Y-97777262D01*
X121958061Y-97969714D01*
X121836782Y-98179775D01*
X121836777Y-98179786D01*
X121836776Y-98179788D01*
X121749082Y-98391500D01*
X121743946Y-98403900D01*
X121743944Y-98403904D01*
X121681160Y-98638217D01*
X121649500Y-98878709D01*
X118500000Y-98878709D01*
X118500000Y-96698392D01*
X133320816Y-96698392D01*
X133477867Y-96768317D01*
X133664564Y-96808000D01*
X133855436Y-96808000D01*
X134042129Y-96768317D01*
X134199183Y-96698392D01*
X136400816Y-96698392D01*
X136557867Y-96768317D01*
X136744564Y-96808000D01*
X136935436Y-96808000D01*
X137122129Y-96768317D01*
X137279183Y-96698392D01*
X136840001Y-96259210D01*
X136840000Y-96259210D01*
X136400816Y-96698392D01*
X134199183Y-96698392D01*
X133760001Y-96259210D01*
X133760000Y-96259210D01*
X133320816Y-96698392D01*
X118500000Y-96698392D01*
X118500000Y-95900000D01*
X132846998Y-95900000D01*
X132866948Y-96089824D01*
X132925928Y-96271345D01*
X132925931Y-96271352D01*
X132963817Y-96336971D01*
X133400790Y-95899999D01*
X133370954Y-95870163D01*
X133610000Y-95870163D01*
X133610000Y-95929837D01*
X133632836Y-95984968D01*
X133675032Y-96027164D01*
X133730163Y-96050000D01*
X133789837Y-96050000D01*
X133844968Y-96027164D01*
X133887164Y-95984968D01*
X133910000Y-95929837D01*
X133910000Y-95899999D01*
X134119210Y-95899999D01*
X134119210Y-95900001D01*
X134556181Y-96336972D01*
X134556182Y-96336971D01*
X134594066Y-96271356D01*
X134653051Y-96089823D01*
X134673001Y-95900000D01*
X135926998Y-95900000D01*
X135946948Y-96089824D01*
X136005928Y-96271345D01*
X136005931Y-96271352D01*
X136043817Y-96336971D01*
X136480790Y-95899999D01*
X136450954Y-95870163D01*
X136690000Y-95870163D01*
X136690000Y-95929837D01*
X136712836Y-95984968D01*
X136755032Y-96027164D01*
X136810163Y-96050000D01*
X136869837Y-96050000D01*
X136924968Y-96027164D01*
X136967164Y-95984968D01*
X136990000Y-95929837D01*
X136990000Y-95899999D01*
X137199210Y-95899999D01*
X137199210Y-95900001D01*
X137636181Y-96336972D01*
X137636182Y-96336971D01*
X137674066Y-96271356D01*
X137733051Y-96089823D01*
X137753001Y-95900000D01*
X137733051Y-95710176D01*
X137674068Y-95528650D01*
X137674065Y-95528643D01*
X137636182Y-95463026D01*
X137199210Y-95899999D01*
X136990000Y-95899999D01*
X136990000Y-95870163D01*
X136967164Y-95815032D01*
X136924968Y-95772836D01*
X136869837Y-95750000D01*
X136810163Y-95750000D01*
X136755032Y-95772836D01*
X136712836Y-95815032D01*
X136690000Y-95870163D01*
X136450954Y-95870163D01*
X136043817Y-95463026D01*
X136005928Y-95528653D01*
X136005928Y-95528654D01*
X135946948Y-95710175D01*
X135926998Y-95900000D01*
X134673001Y-95900000D01*
X134653051Y-95710176D01*
X134594068Y-95528650D01*
X134594065Y-95528643D01*
X134556182Y-95463026D01*
X134119210Y-95899999D01*
X133910000Y-95899999D01*
X133910000Y-95870163D01*
X133887164Y-95815032D01*
X133844968Y-95772836D01*
X133789837Y-95750000D01*
X133730163Y-95750000D01*
X133675032Y-95772836D01*
X133632836Y-95815032D01*
X133610000Y-95870163D01*
X133370954Y-95870163D01*
X132963817Y-95463026D01*
X132925928Y-95528653D01*
X132925928Y-95528654D01*
X132866948Y-95710175D01*
X132846998Y-95900000D01*
X118500000Y-95900000D01*
X118500000Y-95498392D01*
X129160816Y-95498392D01*
X129317867Y-95568317D01*
X129504564Y-95608000D01*
X129695436Y-95608000D01*
X129882129Y-95568317D01*
X130039183Y-95498392D01*
X129600001Y-95059210D01*
X129600000Y-95059210D01*
X129160816Y-95498392D01*
X118500000Y-95498392D01*
X118500000Y-94700000D01*
X128686998Y-94700000D01*
X128706948Y-94889824D01*
X128765928Y-95071345D01*
X128765931Y-95071352D01*
X128803817Y-95136971D01*
X129240790Y-94699999D01*
X129210954Y-94670163D01*
X129450000Y-94670163D01*
X129450000Y-94729837D01*
X129472836Y-94784968D01*
X129515032Y-94827164D01*
X129570163Y-94850000D01*
X129629837Y-94850000D01*
X129684968Y-94827164D01*
X129727164Y-94784968D01*
X129750000Y-94729837D01*
X129750000Y-94699999D01*
X129959210Y-94699999D01*
X129959210Y-94700001D01*
X130396181Y-95136972D01*
X130396182Y-95136971D01*
X130416601Y-95101606D01*
X133320815Y-95101606D01*
X133759999Y-95540790D01*
X133760000Y-95540790D01*
X134205729Y-95095059D01*
X134210215Y-95051380D01*
X134254499Y-94995887D01*
X134321754Y-94973145D01*
X134353049Y-94975795D01*
X134504564Y-95008000D01*
X134695436Y-95008000D01*
X134882129Y-94968317D01*
X135039183Y-94898392D01*
X135560816Y-94898392D01*
X135717867Y-94968317D01*
X135904564Y-95008000D01*
X136095434Y-95008000D01*
X136246948Y-94975795D01*
X136317739Y-94981197D01*
X136374372Y-95024014D01*
X136398865Y-95090652D01*
X136398368Y-95099159D01*
X136839999Y-95540790D01*
X136840000Y-95540790D01*
X137279183Y-95101606D01*
X137122132Y-95031682D01*
X136935436Y-94992000D01*
X136744564Y-94992000D01*
X136593049Y-95024204D01*
X136522258Y-95018801D01*
X136465626Y-94975984D01*
X136441133Y-94909346D01*
X136441629Y-94900838D01*
X136000001Y-94459210D01*
X136000000Y-94459210D01*
X135560816Y-94898392D01*
X135039183Y-94898392D01*
X134600001Y-94459210D01*
X134600000Y-94459210D01*
X134154267Y-94904941D01*
X134149782Y-94948621D01*
X134105497Y-95004113D01*
X134038241Y-95026854D01*
X134006949Y-95024204D01*
X133855436Y-94992000D01*
X133664564Y-94992000D01*
X133477866Y-95031683D01*
X133320815Y-95101606D01*
X130416601Y-95101606D01*
X130434066Y-95071356D01*
X130493051Y-94889823D01*
X130513001Y-94700000D01*
X130493051Y-94510176D01*
X130434068Y-94328650D01*
X130434065Y-94328643D01*
X130396182Y-94263026D01*
X129959210Y-94699999D01*
X129750000Y-94699999D01*
X129750000Y-94670163D01*
X129727164Y-94615032D01*
X129684968Y-94572836D01*
X129629837Y-94550000D01*
X129570163Y-94550000D01*
X129515032Y-94572836D01*
X129472836Y-94615032D01*
X129450000Y-94670163D01*
X129210954Y-94670163D01*
X128803817Y-94263026D01*
X128765928Y-94328653D01*
X128765928Y-94328654D01*
X128706948Y-94510175D01*
X128686998Y-94700000D01*
X118500000Y-94700000D01*
X118500000Y-94099999D01*
X129359210Y-94099999D01*
X129359210Y-94100001D01*
X129599999Y-94340790D01*
X129600001Y-94340790D01*
X129840790Y-94100001D01*
X129840790Y-94100000D01*
X133686998Y-94100000D01*
X133706948Y-94289824D01*
X133765928Y-94471345D01*
X133765931Y-94471352D01*
X133803817Y-94536971D01*
X134240790Y-94099999D01*
X134210954Y-94070163D01*
X134450000Y-94070163D01*
X134450000Y-94129837D01*
X134472836Y-94184968D01*
X134515032Y-94227164D01*
X134570163Y-94250000D01*
X134629837Y-94250000D01*
X134684968Y-94227164D01*
X134727164Y-94184968D01*
X134750000Y-94129837D01*
X134750000Y-94099999D01*
X134959210Y-94099999D01*
X134959210Y-94100001D01*
X135299999Y-94440790D01*
X135300001Y-94440790D01*
X135640790Y-94100001D01*
X135640790Y-94099999D01*
X135610954Y-94070163D01*
X135850000Y-94070163D01*
X135850000Y-94129837D01*
X135872836Y-94184968D01*
X135915032Y-94227164D01*
X135970163Y-94250000D01*
X136029837Y-94250000D01*
X136084968Y-94227164D01*
X136127164Y-94184968D01*
X136150000Y-94129837D01*
X136150000Y-94099999D01*
X136359210Y-94099999D01*
X136359210Y-94100001D01*
X136796181Y-94536972D01*
X136796182Y-94536971D01*
X136834066Y-94471356D01*
X136893051Y-94289823D01*
X136913001Y-94100000D01*
X136913001Y-94099999D01*
X140759210Y-94099999D01*
X140759210Y-94100001D01*
X140999999Y-94340790D01*
X141000001Y-94340790D01*
X141240790Y-94100001D01*
X141240790Y-94099999D01*
X141000001Y-93859210D01*
X140999999Y-93859210D01*
X140759210Y-94099999D01*
X136913001Y-94099999D01*
X136893051Y-93910176D01*
X136834068Y-93728650D01*
X136834065Y-93728643D01*
X136796182Y-93663026D01*
X136359210Y-94099999D01*
X136150000Y-94099999D01*
X136150000Y-94070163D01*
X136127164Y-94015032D01*
X136084968Y-93972836D01*
X136029837Y-93950000D01*
X135970163Y-93950000D01*
X135915032Y-93972836D01*
X135872836Y-94015032D01*
X135850000Y-94070163D01*
X135610954Y-94070163D01*
X135300001Y-93759210D01*
X135299999Y-93759210D01*
X134959210Y-94099999D01*
X134750000Y-94099999D01*
X134750000Y-94070163D01*
X134727164Y-94015032D01*
X134684968Y-93972836D01*
X134629837Y-93950000D01*
X134570163Y-93950000D01*
X134515032Y-93972836D01*
X134472836Y-94015032D01*
X134450000Y-94070163D01*
X134210954Y-94070163D01*
X133803817Y-93663026D01*
X133765928Y-93728653D01*
X133765928Y-93728654D01*
X133706948Y-93910175D01*
X133686998Y-94100000D01*
X129840790Y-94100000D01*
X129840790Y-94099999D01*
X129600001Y-93859210D01*
X129599999Y-93859210D01*
X129359210Y-94099999D01*
X118500000Y-94099999D01*
X118500000Y-93500000D01*
X128686998Y-93500000D01*
X128706948Y-93689824D01*
X128765928Y-93871345D01*
X128765931Y-93871352D01*
X128803817Y-93936971D01*
X129240790Y-93499999D01*
X129210954Y-93470163D01*
X129450000Y-93470163D01*
X129450000Y-93529837D01*
X129472836Y-93584968D01*
X129515032Y-93627164D01*
X129570163Y-93650000D01*
X129629837Y-93650000D01*
X129684968Y-93627164D01*
X129727164Y-93584968D01*
X129750000Y-93529837D01*
X129750000Y-93499999D01*
X129959210Y-93499999D01*
X129959210Y-93500001D01*
X130396181Y-93936972D01*
X130396182Y-93936971D01*
X130434066Y-93871356D01*
X130493051Y-93689823D01*
X130513001Y-93500000D01*
X130493051Y-93310176D01*
X130490266Y-93301606D01*
X134160815Y-93301606D01*
X134599999Y-93740790D01*
X134600000Y-93740790D01*
X135039183Y-93301606D01*
X135560815Y-93301606D01*
X135999999Y-93740790D01*
X136000000Y-93740790D01*
X136240789Y-93500000D01*
X140086998Y-93500000D01*
X140106948Y-93689824D01*
X140165928Y-93871345D01*
X140165931Y-93871352D01*
X140203817Y-93936971D01*
X140640790Y-93499999D01*
X140610954Y-93470163D01*
X140850000Y-93470163D01*
X140850000Y-93529837D01*
X140872836Y-93584968D01*
X140915032Y-93627164D01*
X140970163Y-93650000D01*
X141029837Y-93650000D01*
X141084968Y-93627164D01*
X141127164Y-93584968D01*
X141150000Y-93529837D01*
X141150000Y-93470163D01*
X141127164Y-93415032D01*
X141084968Y-93372836D01*
X141029837Y-93350000D01*
X140970163Y-93350000D01*
X140915032Y-93372836D01*
X140872836Y-93415032D01*
X140850000Y-93470163D01*
X140610954Y-93470163D01*
X140203817Y-93063026D01*
X140165928Y-93128653D01*
X140165928Y-93128654D01*
X140106948Y-93310175D01*
X140086998Y-93500000D01*
X136240789Y-93500000D01*
X136439183Y-93301606D01*
X136282132Y-93231682D01*
X136095436Y-93192000D01*
X135904564Y-93192000D01*
X135717866Y-93231683D01*
X135560815Y-93301606D01*
X135039183Y-93301606D01*
X134882132Y-93231682D01*
X134695436Y-93192000D01*
X134504564Y-93192000D01*
X134317866Y-93231683D01*
X134160815Y-93301606D01*
X130490266Y-93301606D01*
X130434068Y-93128650D01*
X130434065Y-93128643D01*
X130396182Y-93063026D01*
X129959210Y-93499999D01*
X129750000Y-93499999D01*
X129750000Y-93470163D01*
X129727164Y-93415032D01*
X129684968Y-93372836D01*
X129629837Y-93350000D01*
X129570163Y-93350000D01*
X129515032Y-93372836D01*
X129472836Y-93415032D01*
X129450000Y-93470163D01*
X129210954Y-93470163D01*
X128803817Y-93063026D01*
X128765928Y-93128653D01*
X128765928Y-93128654D01*
X128706948Y-93310175D01*
X128686998Y-93500000D01*
X118500000Y-93500000D01*
X118500000Y-92899999D01*
X129359210Y-92899999D01*
X129359210Y-92900001D01*
X129599999Y-93140790D01*
X129600001Y-93140790D01*
X129840790Y-92900001D01*
X129840790Y-92899999D01*
X140759210Y-92899999D01*
X140759210Y-92900001D01*
X140999999Y-93140790D01*
X141000001Y-93140790D01*
X141240790Y-92900001D01*
X141240790Y-92899999D01*
X141000001Y-92659210D01*
X140999999Y-92659210D01*
X140759210Y-92899999D01*
X129840790Y-92899999D01*
X129600001Y-92659210D01*
X129599999Y-92659210D01*
X129359210Y-92899999D01*
X118500000Y-92899999D01*
X118500000Y-92300000D01*
X128686998Y-92300000D01*
X128706948Y-92489824D01*
X128765928Y-92671345D01*
X128765931Y-92671352D01*
X128803817Y-92736971D01*
X129240790Y-92299999D01*
X129210954Y-92270163D01*
X129450000Y-92270163D01*
X129450000Y-92329837D01*
X129472836Y-92384968D01*
X129515032Y-92427164D01*
X129570163Y-92450000D01*
X129629837Y-92450000D01*
X129684968Y-92427164D01*
X129727164Y-92384968D01*
X129750000Y-92329837D01*
X129750000Y-92270163D01*
X129727164Y-92215032D01*
X129684968Y-92172836D01*
X129629837Y-92150000D01*
X129570163Y-92150000D01*
X129515032Y-92172836D01*
X129472836Y-92215032D01*
X129450000Y-92270163D01*
X129210954Y-92270163D01*
X128803817Y-91863026D01*
X128765928Y-91928653D01*
X128765928Y-91928654D01*
X128706948Y-92110175D01*
X128686998Y-92300000D01*
X118500000Y-92300000D01*
X118500000Y-91699999D01*
X129359210Y-91699999D01*
X129359210Y-91700001D01*
X129599999Y-91940790D01*
X129600001Y-91940790D01*
X129840790Y-91700001D01*
X129840790Y-91699999D01*
X129600001Y-91459210D01*
X129599999Y-91459210D01*
X129359210Y-91699999D01*
X118500000Y-91699999D01*
X118500000Y-91100000D01*
X128686998Y-91100000D01*
X128706948Y-91289824D01*
X128765928Y-91471345D01*
X128765931Y-91471352D01*
X128803817Y-91536971D01*
X129240790Y-91099999D01*
X129210954Y-91070163D01*
X129450000Y-91070163D01*
X129450000Y-91129837D01*
X129472836Y-91184968D01*
X129515032Y-91227164D01*
X129570163Y-91250000D01*
X129629837Y-91250000D01*
X129684968Y-91227164D01*
X129727164Y-91184968D01*
X129750000Y-91129837D01*
X129750000Y-91099999D01*
X129959210Y-91099999D01*
X130433877Y-91574666D01*
X130467902Y-91636979D01*
X130470782Y-91663762D01*
X130470782Y-91736237D01*
X130450780Y-91804358D01*
X130433877Y-91825332D01*
X129959210Y-92299999D01*
X129959210Y-92300001D01*
X130396181Y-92736972D01*
X130396182Y-92736971D01*
X130437372Y-92665632D01*
X130439511Y-92666866D01*
X130478231Y-92621282D01*
X130546151Y-92600609D01*
X130614466Y-92619939D01*
X130621454Y-92624667D01*
X130643494Y-92640680D01*
X130817867Y-92718317D01*
X131004564Y-92758000D01*
X131195436Y-92758000D01*
X131382129Y-92718317D01*
X131539182Y-92648392D01*
X131860816Y-92648392D01*
X132017867Y-92718317D01*
X132204564Y-92758000D01*
X132395436Y-92758000D01*
X132582129Y-92718317D01*
X132739183Y-92648392D01*
X133060816Y-92648392D01*
X133217867Y-92718317D01*
X133404564Y-92758000D01*
X133595436Y-92758000D01*
X133782129Y-92718317D01*
X133939183Y-92648392D01*
X134260816Y-92648392D01*
X134417867Y-92718317D01*
X134604564Y-92758000D01*
X134795436Y-92758000D01*
X134982129Y-92718317D01*
X135139183Y-92648392D01*
X135460816Y-92648392D01*
X135617867Y-92718317D01*
X135804564Y-92758000D01*
X135995436Y-92758000D01*
X136182129Y-92718317D01*
X136339183Y-92648392D01*
X136660816Y-92648392D01*
X136817867Y-92718317D01*
X137004564Y-92758000D01*
X137195436Y-92758000D01*
X137382129Y-92718317D01*
X137539183Y-92648392D01*
X137860816Y-92648392D01*
X138017867Y-92718317D01*
X138204564Y-92758000D01*
X138395436Y-92758000D01*
X138582129Y-92718317D01*
X138739183Y-92648392D01*
X139060815Y-92648392D01*
X139217867Y-92718317D01*
X139404564Y-92758000D01*
X139595436Y-92758000D01*
X139782132Y-92718317D01*
X139956502Y-92640681D01*
X139978543Y-92624668D01*
X140045410Y-92600809D01*
X140114562Y-92616888D01*
X140162184Y-92665888D01*
X140162629Y-92665632D01*
X140163644Y-92667391D01*
X140164043Y-92667801D01*
X140164903Y-92669570D01*
X140203817Y-92736971D01*
X140640790Y-92299999D01*
X140610954Y-92270163D01*
X140850000Y-92270163D01*
X140850000Y-92329837D01*
X140872836Y-92384968D01*
X140915032Y-92427164D01*
X140970163Y-92450000D01*
X141029837Y-92450000D01*
X141084968Y-92427164D01*
X141127164Y-92384968D01*
X141150000Y-92329837D01*
X141150000Y-92299999D01*
X141359210Y-92299999D01*
X141359210Y-92300001D01*
X141796181Y-92736972D01*
X141796182Y-92736971D01*
X141834066Y-92671356D01*
X141893051Y-92489823D01*
X141913001Y-92300000D01*
X141893051Y-92110176D01*
X141834068Y-91928650D01*
X141834065Y-91928643D01*
X141796182Y-91863026D01*
X141359210Y-92299999D01*
X141150000Y-92299999D01*
X141150000Y-92270163D01*
X141127164Y-92215032D01*
X141084968Y-92172836D01*
X141029837Y-92150000D01*
X140970163Y-92150000D01*
X140915032Y-92172836D01*
X140872836Y-92215032D01*
X140850000Y-92270163D01*
X140610954Y-92270163D01*
X140166123Y-91825332D01*
X140132097Y-91763020D01*
X140129218Y-91736237D01*
X140129218Y-91699999D01*
X140759210Y-91699999D01*
X140759210Y-91700001D01*
X140999999Y-91940790D01*
X141000001Y-91940790D01*
X141240790Y-91700001D01*
X141240790Y-91699999D01*
X141000001Y-91459210D01*
X140999999Y-91459210D01*
X140759210Y-91699999D01*
X140129218Y-91699999D01*
X140129218Y-91663762D01*
X140149220Y-91595641D01*
X140166123Y-91574666D01*
X140640790Y-91099999D01*
X140610954Y-91070163D01*
X140850000Y-91070163D01*
X140850000Y-91129837D01*
X140872836Y-91184968D01*
X140915032Y-91227164D01*
X140970163Y-91250000D01*
X141029837Y-91250000D01*
X141084968Y-91227164D01*
X141127164Y-91184968D01*
X141150000Y-91129837D01*
X141150000Y-91099999D01*
X141359210Y-91099999D01*
X141359210Y-91100001D01*
X141796181Y-91536972D01*
X141796182Y-91536971D01*
X141834066Y-91471356D01*
X141893051Y-91289823D01*
X141913001Y-91100000D01*
X141893051Y-90910176D01*
X141834068Y-90728650D01*
X141834065Y-90728643D01*
X141796182Y-90663026D01*
X141359210Y-91099999D01*
X141150000Y-91099999D01*
X141150000Y-91070163D01*
X141127164Y-91015032D01*
X141084968Y-90972836D01*
X141029837Y-90950000D01*
X140970163Y-90950000D01*
X140915032Y-90972836D01*
X140872836Y-91015032D01*
X140850000Y-91070163D01*
X140610954Y-91070163D01*
X140203817Y-90663026D01*
X140165928Y-90728653D01*
X140165928Y-90728654D01*
X140106948Y-90910174D01*
X140103376Y-90944166D01*
X140076362Y-91009822D01*
X140018140Y-91050451D01*
X139947195Y-91053154D01*
X139926817Y-91046101D01*
X139782132Y-90981682D01*
X139595436Y-90942000D01*
X139404564Y-90942000D01*
X139217866Y-90981683D01*
X139060816Y-91051606D01*
X139590509Y-91581298D01*
X139624534Y-91643611D01*
X139619470Y-91714426D01*
X139602681Y-91740549D01*
X139584968Y-91722836D01*
X139529837Y-91700000D01*
X139470163Y-91700000D01*
X139415032Y-91722836D01*
X139372836Y-91765032D01*
X139350000Y-91820163D01*
X139350000Y-91879837D01*
X139372836Y-91934968D01*
X139415032Y-91977164D01*
X139470163Y-92000000D01*
X139529837Y-92000000D01*
X139584968Y-91977164D01*
X139601498Y-91960633D01*
X139624534Y-92002820D01*
X139619470Y-92073636D01*
X139590509Y-92118699D01*
X139060815Y-92648392D01*
X138739183Y-92648392D01*
X138300001Y-92209210D01*
X138300000Y-92209210D01*
X137860816Y-92648392D01*
X137539183Y-92648392D01*
X137100001Y-92209210D01*
X137100000Y-92209210D01*
X136660816Y-92648392D01*
X136339183Y-92648392D01*
X135900001Y-92209210D01*
X135900000Y-92209210D01*
X135460816Y-92648392D01*
X135139183Y-92648392D01*
X134700001Y-92209210D01*
X134700000Y-92209210D01*
X134260816Y-92648392D01*
X133939183Y-92648392D01*
X133500001Y-92209210D01*
X133500000Y-92209210D01*
X133060816Y-92648392D01*
X132739183Y-92648392D01*
X132300001Y-92209210D01*
X132300000Y-92209210D01*
X131860816Y-92648392D01*
X131539182Y-92648392D01*
X131009490Y-92118701D01*
X130975465Y-92056388D01*
X130980529Y-91985573D01*
X130997317Y-91959449D01*
X131015032Y-91977164D01*
X131070163Y-92000000D01*
X131129837Y-92000000D01*
X131184968Y-91977164D01*
X131227164Y-91934968D01*
X131250000Y-91879837D01*
X131250000Y-91849999D01*
X131459210Y-91849999D01*
X131459210Y-91850001D01*
X131699999Y-92090790D01*
X131700001Y-92090790D01*
X131940790Y-91850001D01*
X131940790Y-91849999D01*
X131910954Y-91820163D01*
X132150000Y-91820163D01*
X132150000Y-91879837D01*
X132172836Y-91934968D01*
X132215032Y-91977164D01*
X132270163Y-92000000D01*
X132329837Y-92000000D01*
X132384968Y-91977164D01*
X132427164Y-91934968D01*
X132450000Y-91879837D01*
X132450000Y-91849999D01*
X132659210Y-91849999D01*
X132659210Y-91850001D01*
X132899999Y-92090790D01*
X132900001Y-92090790D01*
X133140790Y-91850001D01*
X133140790Y-91849999D01*
X133110954Y-91820163D01*
X133350000Y-91820163D01*
X133350000Y-91879837D01*
X133372836Y-91934968D01*
X133415032Y-91977164D01*
X133470163Y-92000000D01*
X133529837Y-92000000D01*
X133584968Y-91977164D01*
X133627164Y-91934968D01*
X133650000Y-91879837D01*
X133650000Y-91849999D01*
X133859210Y-91849999D01*
X133859210Y-91850001D01*
X134099999Y-92090790D01*
X134100001Y-92090790D01*
X134340790Y-91850001D01*
X134340790Y-91849999D01*
X134310954Y-91820163D01*
X134550000Y-91820163D01*
X134550000Y-91879837D01*
X134572836Y-91934968D01*
X134615032Y-91977164D01*
X134670163Y-92000000D01*
X134729837Y-92000000D01*
X134784968Y-91977164D01*
X134827164Y-91934968D01*
X134850000Y-91879837D01*
X134850000Y-91849999D01*
X135059210Y-91849999D01*
X135059210Y-91850001D01*
X135299999Y-92090790D01*
X135300001Y-92090790D01*
X135540790Y-91850001D01*
X135540790Y-91849999D01*
X135510954Y-91820163D01*
X135750000Y-91820163D01*
X135750000Y-91879837D01*
X135772836Y-91934968D01*
X135815032Y-91977164D01*
X135870163Y-92000000D01*
X135929837Y-92000000D01*
X135984968Y-91977164D01*
X136027164Y-91934968D01*
X136050000Y-91879837D01*
X136050000Y-91849999D01*
X136259210Y-91849999D01*
X136259210Y-91850001D01*
X136499999Y-92090790D01*
X136500001Y-92090790D01*
X136740790Y-91850001D01*
X136740790Y-91849999D01*
X136710954Y-91820163D01*
X136950000Y-91820163D01*
X136950000Y-91879837D01*
X136972836Y-91934968D01*
X137015032Y-91977164D01*
X137070163Y-92000000D01*
X137129837Y-92000000D01*
X137184968Y-91977164D01*
X137227164Y-91934968D01*
X137250000Y-91879837D01*
X137250000Y-91849999D01*
X137459210Y-91849999D01*
X137459210Y-91850001D01*
X137699999Y-92090790D01*
X137700001Y-92090790D01*
X137940790Y-91850001D01*
X137940790Y-91849999D01*
X137910954Y-91820163D01*
X138150000Y-91820163D01*
X138150000Y-91879837D01*
X138172836Y-91934968D01*
X138215032Y-91977164D01*
X138270163Y-92000000D01*
X138329837Y-92000000D01*
X138384968Y-91977164D01*
X138427164Y-91934968D01*
X138450000Y-91879837D01*
X138450000Y-91849999D01*
X138659210Y-91849999D01*
X138659210Y-91850001D01*
X138899999Y-92090790D01*
X138900001Y-92090790D01*
X139140790Y-91850001D01*
X139140790Y-91849999D01*
X138900001Y-91609210D01*
X138899999Y-91609210D01*
X138659210Y-91849999D01*
X138450000Y-91849999D01*
X138450000Y-91820163D01*
X138427164Y-91765032D01*
X138384968Y-91722836D01*
X138329837Y-91700000D01*
X138270163Y-91700000D01*
X138215032Y-91722836D01*
X138172836Y-91765032D01*
X138150000Y-91820163D01*
X137910954Y-91820163D01*
X137700001Y-91609210D01*
X137699999Y-91609210D01*
X137459210Y-91849999D01*
X137250000Y-91849999D01*
X137250000Y-91820163D01*
X137227164Y-91765032D01*
X137184968Y-91722836D01*
X137129837Y-91700000D01*
X137070163Y-91700000D01*
X137015032Y-91722836D01*
X136972836Y-91765032D01*
X136950000Y-91820163D01*
X136710954Y-91820163D01*
X136500001Y-91609210D01*
X136499999Y-91609210D01*
X136259210Y-91849999D01*
X136050000Y-91849999D01*
X136050000Y-91820163D01*
X136027164Y-91765032D01*
X135984968Y-91722836D01*
X135929837Y-91700000D01*
X135870163Y-91700000D01*
X135815032Y-91722836D01*
X135772836Y-91765032D01*
X135750000Y-91820163D01*
X135510954Y-91820163D01*
X135300001Y-91609210D01*
X135299999Y-91609210D01*
X135059210Y-91849999D01*
X134850000Y-91849999D01*
X134850000Y-91820163D01*
X134827164Y-91765032D01*
X134784968Y-91722836D01*
X134729837Y-91700000D01*
X134670163Y-91700000D01*
X134615032Y-91722836D01*
X134572836Y-91765032D01*
X134550000Y-91820163D01*
X134310954Y-91820163D01*
X134100001Y-91609210D01*
X134099999Y-91609210D01*
X133859210Y-91849999D01*
X133650000Y-91849999D01*
X133650000Y-91820163D01*
X133627164Y-91765032D01*
X133584968Y-91722836D01*
X133529837Y-91700000D01*
X133470163Y-91700000D01*
X133415032Y-91722836D01*
X133372836Y-91765032D01*
X133350000Y-91820163D01*
X133110954Y-91820163D01*
X132900001Y-91609210D01*
X132899999Y-91609210D01*
X132659210Y-91849999D01*
X132450000Y-91849999D01*
X132450000Y-91820163D01*
X132427164Y-91765032D01*
X132384968Y-91722836D01*
X132329837Y-91700000D01*
X132270163Y-91700000D01*
X132215032Y-91722836D01*
X132172836Y-91765032D01*
X132150000Y-91820163D01*
X131910954Y-91820163D01*
X131700001Y-91609210D01*
X131699999Y-91609210D01*
X131459210Y-91849999D01*
X131250000Y-91849999D01*
X131250000Y-91820163D01*
X131227164Y-91765032D01*
X131184968Y-91722836D01*
X131129837Y-91700000D01*
X131070163Y-91700000D01*
X131015032Y-91722836D01*
X130998501Y-91739366D01*
X130975465Y-91697179D01*
X130980529Y-91626363D01*
X131009490Y-91581300D01*
X131539183Y-91051606D01*
X131860815Y-91051606D01*
X132299999Y-91490790D01*
X132300000Y-91490790D01*
X132739183Y-91051606D01*
X133060815Y-91051606D01*
X133499999Y-91490790D01*
X133500000Y-91490790D01*
X133939183Y-91051606D01*
X134260815Y-91051606D01*
X134699999Y-91490790D01*
X134700000Y-91490790D01*
X135139183Y-91051606D01*
X135460815Y-91051606D01*
X135899999Y-91490790D01*
X135900000Y-91490790D01*
X136339183Y-91051606D01*
X136660815Y-91051606D01*
X137099999Y-91490790D01*
X137100000Y-91490790D01*
X137539183Y-91051606D01*
X137860815Y-91051606D01*
X138299999Y-91490790D01*
X138300000Y-91490790D01*
X138739183Y-91051606D01*
X138582132Y-90981682D01*
X138395436Y-90942000D01*
X138204564Y-90942000D01*
X138017866Y-90981683D01*
X137860815Y-91051606D01*
X137539183Y-91051606D01*
X137382132Y-90981682D01*
X137195436Y-90942000D01*
X137004564Y-90942000D01*
X136817866Y-90981683D01*
X136660815Y-91051606D01*
X136339183Y-91051606D01*
X136182132Y-90981682D01*
X135995436Y-90942000D01*
X135804564Y-90942000D01*
X135617866Y-90981683D01*
X135460815Y-91051606D01*
X135139183Y-91051606D01*
X134982132Y-90981682D01*
X134795436Y-90942000D01*
X134604564Y-90942000D01*
X134417866Y-90981683D01*
X134260815Y-91051606D01*
X133939183Y-91051606D01*
X133782132Y-90981682D01*
X133595436Y-90942000D01*
X133404564Y-90942000D01*
X133217866Y-90981683D01*
X133060815Y-91051606D01*
X132739183Y-91051606D01*
X132582132Y-90981682D01*
X132395436Y-90942000D01*
X132204564Y-90942000D01*
X132017866Y-90981683D01*
X131860815Y-91051606D01*
X131539183Y-91051606D01*
X131382132Y-90981682D01*
X131195436Y-90942000D01*
X131004564Y-90942000D01*
X130817867Y-90981682D01*
X130673182Y-91046101D01*
X130602815Y-91055535D01*
X130538518Y-91025429D01*
X130500704Y-90965340D01*
X130496623Y-90944163D01*
X130493051Y-90910176D01*
X130434068Y-90728650D01*
X130434065Y-90728643D01*
X130396182Y-90663026D01*
X129959210Y-91099999D01*
X129750000Y-91099999D01*
X129750000Y-91070163D01*
X129727164Y-91015032D01*
X129684968Y-90972836D01*
X129629837Y-90950000D01*
X129570163Y-90950000D01*
X129515032Y-90972836D01*
X129472836Y-91015032D01*
X129450000Y-91070163D01*
X129210954Y-91070163D01*
X128803817Y-90663026D01*
X128765928Y-90728653D01*
X128765928Y-90728654D01*
X128706948Y-90910175D01*
X128686998Y-91100000D01*
X118500000Y-91100000D01*
X118500000Y-90301606D01*
X129160815Y-90301606D01*
X129599999Y-90740790D01*
X129600000Y-90740790D01*
X130039183Y-90301606D01*
X140560815Y-90301606D01*
X140999999Y-90740790D01*
X141000000Y-90740790D01*
X141439183Y-90301606D01*
X141282132Y-90231682D01*
X141095436Y-90192000D01*
X140904564Y-90192000D01*
X140717866Y-90231683D01*
X140560815Y-90301606D01*
X130039183Y-90301606D01*
X129882132Y-90231682D01*
X129695436Y-90192000D01*
X129504564Y-90192000D01*
X129317866Y-90231683D01*
X129160815Y-90301606D01*
X118500000Y-90301606D01*
X118500000Y-89750000D01*
X153136496Y-89750000D01*
X153156457Y-89939927D01*
X153182844Y-90021134D01*
X153215473Y-90121556D01*
X153310960Y-90286944D01*
X153384137Y-90368215D01*
X153414853Y-90432220D01*
X153416500Y-90452524D01*
X153416500Y-90796974D01*
X153396498Y-90865095D01*
X153384137Y-90881284D01*
X153310957Y-90962559D01*
X153219162Y-91121554D01*
X153215473Y-91127944D01*
X153209403Y-91146625D01*
X153156457Y-91309572D01*
X153136496Y-91499500D01*
X153156457Y-91689427D01*
X153159893Y-91700001D01*
X153215473Y-91871056D01*
X153215476Y-91871061D01*
X153310958Y-92036441D01*
X153310965Y-92036451D01*
X153438744Y-92178364D01*
X153473375Y-92203525D01*
X153593248Y-92290618D01*
X153767712Y-92368294D01*
X153954513Y-92408000D01*
X154145487Y-92408000D01*
X154332288Y-92368294D01*
X154506752Y-92290618D01*
X154661253Y-92178366D01*
X154785737Y-92040111D01*
X154846180Y-92002874D01*
X154917164Y-92004225D01*
X154976149Y-92043739D01*
X154988490Y-92061423D01*
X155060960Y-92186944D01*
X155060962Y-92186947D01*
X155060965Y-92186951D01*
X155188744Y-92328864D01*
X155188747Y-92328866D01*
X155343248Y-92441118D01*
X155517712Y-92518794D01*
X155704513Y-92558500D01*
X155895487Y-92558500D01*
X156082288Y-92518794D01*
X156082288Y-92518793D01*
X156082292Y-92518793D01*
X156192399Y-92469769D01*
X156230549Y-92452783D01*
X156300916Y-92443349D01*
X156365213Y-92473455D01*
X156401630Y-92528952D01*
X156415473Y-92571556D01*
X156443407Y-92619939D01*
X156510958Y-92736941D01*
X156510965Y-92736951D01*
X156638744Y-92878864D01*
X156638747Y-92878866D01*
X156793248Y-92991118D01*
X156967712Y-93068794D01*
X157154513Y-93108500D01*
X157345487Y-93108500D01*
X157532288Y-93068794D01*
X157706752Y-92991118D01*
X157861253Y-92878866D01*
X157864563Y-92875190D01*
X157925009Y-92837950D01*
X157958200Y-92833500D01*
X162112393Y-92833500D01*
X162112394Y-92833500D01*
X162234785Y-92809155D01*
X162350075Y-92761400D01*
X162453833Y-92692071D01*
X163450500Y-91695405D01*
X163512812Y-91661379D01*
X163539595Y-91658500D01*
X163595487Y-91658500D01*
X163782288Y-91618794D01*
X163956752Y-91541118D01*
X164111253Y-91428866D01*
X164239040Y-91286944D01*
X164334527Y-91121556D01*
X164375465Y-90995563D01*
X164415539Y-90936958D01*
X164480936Y-90909321D01*
X164495298Y-90908500D01*
X164495487Y-90908500D01*
X164682288Y-90868794D01*
X164856752Y-90791118D01*
X165011253Y-90678866D01*
X165011255Y-90678864D01*
X165139034Y-90536951D01*
X165139035Y-90536949D01*
X165139040Y-90536944D01*
X165234527Y-90371556D01*
X165293542Y-90189928D01*
X165313504Y-90000000D01*
X165293542Y-89810072D01*
X165234527Y-89628444D01*
X165139040Y-89463056D01*
X165139038Y-89463054D01*
X165139034Y-89463048D01*
X165011255Y-89321135D01*
X164856752Y-89208882D01*
X164682288Y-89131206D01*
X164495487Y-89091500D01*
X164304513Y-89091500D01*
X164117711Y-89131206D01*
X163943247Y-89208882D01*
X163788747Y-89321133D01*
X163785437Y-89324810D01*
X163724991Y-89362050D01*
X163691800Y-89366500D01*
X162937603Y-89366500D01*
X162877589Y-89378438D01*
X162815215Y-89390845D01*
X162815213Y-89390845D01*
X162815212Y-89390846D01*
X162699923Y-89438601D01*
X162596171Y-89507926D01*
X162596164Y-89507931D01*
X161299501Y-90804595D01*
X161237189Y-90838621D01*
X161210406Y-90841500D01*
X156244494Y-90841500D01*
X156193245Y-90830607D01*
X156082288Y-90781206D01*
X155895487Y-90741500D01*
X155704513Y-90741500D01*
X155517711Y-90781206D01*
X155343247Y-90858882D01*
X155188744Y-90971135D01*
X155064264Y-91109385D01*
X155003818Y-91146625D01*
X154932834Y-91145273D01*
X154873850Y-91105760D01*
X154861509Y-91088075D01*
X154789042Y-90962559D01*
X154789041Y-90962558D01*
X154789040Y-90962556D01*
X154715863Y-90881284D01*
X154685146Y-90817276D01*
X154683500Y-90796974D01*
X154683500Y-90452524D01*
X154703502Y-90384403D01*
X154715858Y-90368220D01*
X154789040Y-90286944D01*
X154884527Y-90121556D01*
X154943542Y-89939928D01*
X154963504Y-89750000D01*
X154943542Y-89560072D01*
X154884527Y-89378444D01*
X154789040Y-89213056D01*
X154789038Y-89213054D01*
X154789034Y-89213048D01*
X154661255Y-89071135D01*
X154506752Y-88958882D01*
X154332288Y-88881206D01*
X154145487Y-88841500D01*
X153954513Y-88841500D01*
X153767711Y-88881206D01*
X153593247Y-88958882D01*
X153438744Y-89071135D01*
X153310965Y-89213048D01*
X153310958Y-89213058D01*
X153215476Y-89378438D01*
X153215473Y-89378444D01*
X153200999Y-89422986D01*
X153156457Y-89560072D01*
X153136496Y-89750000D01*
X118500000Y-89750000D01*
X118500000Y-87200000D01*
X172586496Y-87200000D01*
X172606457Y-87389927D01*
X172636526Y-87482470D01*
X172665473Y-87571556D01*
X172760960Y-87736944D01*
X172834137Y-87818215D01*
X172864853Y-87882220D01*
X172866500Y-87902524D01*
X172866500Y-89644675D01*
X172846498Y-89712796D01*
X172834137Y-89728984D01*
X172803460Y-89763055D01*
X172803458Y-89763057D01*
X172707976Y-89928438D01*
X172707973Y-89928445D01*
X172648957Y-90110072D01*
X172628996Y-90300000D01*
X172648957Y-90489927D01*
X172670309Y-90555640D01*
X172707973Y-90671556D01*
X172724395Y-90700000D01*
X172803458Y-90836941D01*
X172803465Y-90836951D01*
X172931244Y-90978864D01*
X172931247Y-90978866D01*
X173085748Y-91091118D01*
X173260212Y-91168794D01*
X173447013Y-91208500D01*
X173637987Y-91208500D01*
X173824788Y-91168794D01*
X173999252Y-91091118D01*
X174153753Y-90978866D01*
X174153755Y-90978864D01*
X174281534Y-90836951D01*
X174281535Y-90836949D01*
X174281540Y-90836944D01*
X174377027Y-90671556D01*
X174436042Y-90489928D01*
X174456004Y-90300000D01*
X174436042Y-90110072D01*
X174377027Y-89928444D01*
X174281540Y-89763056D01*
X174281538Y-89763054D01*
X174281534Y-89763048D01*
X174165864Y-89634584D01*
X174135147Y-89570577D01*
X174133500Y-89550274D01*
X174133500Y-87902524D01*
X174153502Y-87834403D01*
X174165858Y-87818220D01*
X174239040Y-87736944D01*
X174334527Y-87571556D01*
X174393542Y-87389928D01*
X174413504Y-87200000D01*
X174393542Y-87010072D01*
X174334527Y-86828444D01*
X174239040Y-86663056D01*
X174239038Y-86663054D01*
X174239034Y-86663048D01*
X174111255Y-86521135D01*
X173956752Y-86408882D01*
X173782288Y-86331206D01*
X173595487Y-86291500D01*
X173404513Y-86291500D01*
X173217711Y-86331206D01*
X173043247Y-86408882D01*
X172888744Y-86521135D01*
X172760965Y-86663048D01*
X172760958Y-86663058D01*
X172665476Y-86828438D01*
X172665473Y-86828445D01*
X172606457Y-87010072D01*
X172586496Y-87200000D01*
X118500000Y-87200000D01*
X118500000Y-84276000D01*
X118520002Y-84207879D01*
X118573658Y-84161386D01*
X118626000Y-84150000D01*
X183374000Y-84150000D01*
X183442121Y-84170002D01*
G37*
%TD.AperFunction*%
%TD*%
M02*
