M48
; DRILL file {KiCad 8.0.7} date 2025-04-13T14:38:49-0400
; FORMAT={-:-/ absolute / inch / decimal}
; #@! TF.CreationDate,2025-04-13T14:38:49-04:00
; #@! TF.GenerationSoftware,Kicad,Pcbnew,8.0.7
; #@! TF.FileFunction,Plated,1,2,PTH
FMAT,2
INCH
; #@! TA.AperFunction,Plated,PTH,ViaDrill
T1C0.0118
; #@! TA.AperFunction,Plated,PTH,ComponentDrill
T2C0.0118
; #@! TA.AperFunction,Plated,PTH,ViaDrill
T3C0.0157
; #@! TA.AperFunction,Plated,PTH,ComponentDrill
T4C0.0394
%
G90
G05
T1
X5.7283Y-4.065
X5.7283Y-4.3602
X5.8071Y-4.065
X5.8071Y-4.3602
X5.8858Y-4.063
X5.8858Y-4.3602
T2
X5.1024Y-3.5866
X5.1024Y-3.6339
X5.1024Y-3.6811
X5.1024Y-3.7283
X5.1614Y-3.6161
X5.1614Y-4.3602
X5.2087Y-3.6161
X5.2087Y-4.3602
X5.2559Y-3.6161
X5.2559Y-4.3602
X5.2661Y-3.7756
X5.2661Y-3.9173
X5.2661Y-3.9882
X5.2661Y-4.0591
X5.2661Y-4.1299
X5.2992Y-3.7047
X5.3031Y-3.6161
X5.3031Y-4.3602
X5.3268Y-3.9882
X5.3268Y-4.0591
X5.3268Y-4.1299
X5.3504Y-3.6161
X5.3504Y-4.3602
X5.3543Y-3.7047
X5.3874Y-3.7756
X5.3874Y-3.9173
X5.3874Y-3.9882
X5.3874Y-4.0591
X5.3874Y-4.1299
X5.3976Y-3.6161
X5.3976Y-4.3602
X5.4449Y-3.6161
X5.4449Y-4.3602
X5.4921Y-3.6161
X5.4921Y-4.3602
X5.5512Y-3.5866
X5.5512Y-3.6339
X5.5512Y-3.6811
X5.5512Y-3.7283
T3
X5.0059Y-3.5866
X5.0059Y-3.8366
X5.0098Y-3.6811
X5.0098Y-3.7283
X5.4469Y-4.4606
X5.5453Y-3.8268
X5.5492Y-3.7776
X5.6457Y-3.6004
X5.6555Y-4.1575
X5.6594Y-4.4213
X5.6654Y-4.0433
X5.6732Y-3.5709
X5.6732Y-3.939
X5.689Y-3.4567
X5.7677Y-4.0354
X5.8031Y-3.6791
X5.8425Y-3.5728
X5.8445Y-3.8031
X5.9075Y-3.8907
X5.9646Y-3.4528
X5.9779Y-3.9543
X6.0079Y-4.0915
X6.0413Y-3.8051
X6.0512Y-4.0098
X6.065Y-3.5335
X6.065Y-3.6023
X6.0807Y-3.4626
X6.0965Y-4.2185
X6.1206Y-4.0497
X6.1319Y-4.3524
X6.1339Y-3.6083
X6.1476Y-4.1791
X6.1811Y-4.0295
X6.1909Y-3.6299
X6.2618Y-3.9488
X6.2638Y-3.7894
X6.2805Y-3.7402
X6.2805Y-3.9055
X6.3563Y-4.0295
X6.3681Y-3.8258
X6.3681Y-3.8839
X6.372Y-4.2106
X6.3957Y-3.9508
X6.3974Y-3.9101
X6.437Y-3.5728
X6.4508Y-4.2126
X6.4606Y-3.7402
X6.4724Y-3.5433
X6.5079Y-4.3602
X6.5305Y-4.252
X6.5925Y-4.252
X6.5945Y-3.6024
X6.5965Y-4.3602
X6.6339Y-3.6024
X6.7224Y-4.3976
X6.7559Y-3.9094
X6.7559Y-4.0984
X6.7559Y-4.252
X6.8307Y-3.4331
X6.8324Y-3.5551
X6.8425Y-3.9134
T4
X6.4173Y-4.1339
X6.4173Y-4.311
X6.6732Y-4.1339
X6.6732Y-4.311
M30
