%TF.GenerationSoftware,KiCad,Pcbnew,8.0.7*%
%TF.CreationDate,2025-04-13T14:38:49-04:00*%
%TF.ProjectId,radio,72616469-6f2e-46b6-9963-61645f706362,rev?*%
%TF.SameCoordinates,Original*%
%TF.FileFunction,Soldermask,Bot*%
%TF.FilePolarity,Negative*%
%FSLAX46Y46*%
G04 Gerber Fmt 4.6, Leading zero omitted, Abs format (unit mm)*
G04 Created by KiCad (PCBNEW 8.0.7) date 2025-04-13 14:38:49*
%MOMM*%
%LPD*%
G01*
G04 APERTURE LIST*
%ADD10C,0.800000*%
%ADD11C,1.600000*%
%ADD12C,3.200000*%
G04 APERTURE END LIST*
D10*
%TO.C,U2*%
X141000000Y-94700000D03*
X141000000Y-93500000D03*
X141000000Y-92300000D03*
X141000000Y-91100000D03*
X139500000Y-91850000D03*
X138300000Y-91850000D03*
X137100000Y-91850000D03*
X135900000Y-91850000D03*
X134700000Y-91850000D03*
X133500000Y-91850000D03*
X132300000Y-91850000D03*
X131100000Y-91850000D03*
X129600000Y-91100000D03*
X129600000Y-92300000D03*
X129600000Y-93500000D03*
X129600000Y-94700000D03*
X131100000Y-110750000D03*
X132300000Y-110750000D03*
X133500000Y-110750000D03*
X134700000Y-110750000D03*
X135900000Y-110750000D03*
X137100000Y-110750000D03*
X138300000Y-110750000D03*
X139500000Y-110750000D03*
X136840000Y-95900000D03*
X136000000Y-94100000D03*
X134600000Y-94100000D03*
X133760000Y-95900000D03*
X133760000Y-99500000D03*
X133760000Y-101300000D03*
X133760000Y-103100000D03*
X133760000Y-104900000D03*
X135300000Y-104900000D03*
X135300000Y-103100000D03*
X135300000Y-101300000D03*
X136840000Y-99500000D03*
X136840000Y-101300000D03*
X136840000Y-103100000D03*
X136840000Y-104900000D03*
%TD*%
D11*
%TO.C,SW1*%
X163000000Y-105000000D03*
X169500000Y-105000000D03*
X163000000Y-109500000D03*
X169500000Y-109500000D03*
%TD*%
D12*
%TO.C,H1*%
X123500000Y-99000000D03*
%TD*%
%TO.C,H2*%
X178500000Y-99000000D03*
%TD*%
M02*
