%TF.GenerationSoftware,KiCad,Pcbnew,8.0.7*%
%TF.CreationDate,2025-04-13T14:38:49-04:00*%
%TF.ProjectId,radio,72616469-6f2e-46b6-9963-61645f706362,rev?*%
%TF.SameCoordinates,Original*%
%TF.FileFunction,Legend,Top*%
%TF.FilePolarity,Positive*%
%FSLAX46Y46*%
G04 Gerber Fmt 4.6, Leading zero omitted, Abs format (unit mm)*
G04 Created by KiCad (PCBNEW 8.0.7) date 2025-04-13 14:38:49*
%MOMM*%
%LPD*%
G01*
G04 APERTURE LIST*
G04 Aperture macros list*
%AMRoundRect*
0 Rectangle with rounded corners*
0 $1 Rounding radius*
0 $2 $3 $4 $5 $6 $7 $8 $9 X,Y pos of 4 corners*
0 Add a 4 corners polygon primitive as box body*
4,1,4,$2,$3,$4,$5,$6,$7,$8,$9,$2,$3,0*
0 Add four circle primitives for the rounded corners*
1,1,$1+$1,$2,$3*
1,1,$1+$1,$4,$5*
1,1,$1+$1,$6,$7*
1,1,$1+$1,$8,$9*
0 Add four rect primitives between the rounded corners*
20,1,$1+$1,$2,$3,$4,$5,0*
20,1,$1+$1,$4,$5,$6,$7,0*
20,1,$1+$1,$6,$7,$8,$9,0*
20,1,$1+$1,$8,$9,$2,$3,0*%
%AMFreePoly0*
4,1,19,0.550000,-0.750000,0.000000,-0.750000,0.000000,-0.744911,-0.071157,-0.744911,-0.207708,-0.704816,-0.327430,-0.627875,-0.420627,-0.520320,-0.479746,-0.390866,-0.500000,-0.250000,-0.500000,0.250000,-0.479746,0.390866,-0.420627,0.520320,-0.327430,0.627875,-0.207708,0.704816,-0.071157,0.744911,0.000000,0.744911,0.000000,0.750000,0.550000,0.750000,0.550000,-0.750000,0.550000,-0.750000,
$1*%
%AMFreePoly1*
4,1,19,0.000000,0.744911,0.071157,0.744911,0.207708,0.704816,0.327430,0.627875,0.420627,0.520320,0.479746,0.390866,0.500000,0.250000,0.500000,-0.250000,0.479746,-0.390866,0.420627,-0.520320,0.327430,-0.627875,0.207708,-0.704816,0.071157,-0.744911,0.000000,-0.744911,0.000000,-0.750000,-0.550000,-0.750000,-0.550000,0.750000,0.000000,0.750000,0.000000,0.744911,0.000000,0.744911,
$1*%
%AMFreePoly2*
4,1,6,1.037000,0.000000,0.437000,-0.600000,-0.150000,-0.600000,-0.150000,0.600000,0.437000,0.600000,1.037000,0.000000,1.037000,0.000000,$1*%
%AMFreePoly3*
4,1,6,0.150000,-0.600000,-1.037000,-0.600000,-0.437000,0.000000,-1.037000,0.600000,0.150000,0.600000,0.150000,-0.600000,0.150000,-0.600000,$1*%
G04 Aperture macros list end*
%ADD10C,0.150000*%
%ADD11C,0.250000*%
%ADD12C,0.200000*%
%ADD13C,0.120000*%
%ADD14C,0.100000*%
%ADD15C,0.160000*%
%ADD16R,1.000000X0.900000*%
%ADD17R,0.900000X1.000000*%
%ADD18C,0.800000*%
%ADD19RoundRect,0.087500X-0.537500X-0.087500X0.537500X-0.087500X0.537500X0.087500X-0.537500X0.087500X0*%
%ADD20FreePoly0,90.000000*%
%ADD21R,1.500000X1.000000*%
%ADD22FreePoly1,90.000000*%
%ADD23RoundRect,0.225000X-0.250000X0.225000X-0.250000X-0.225000X0.250000X-0.225000X0.250000X0.225000X0*%
%ADD24RoundRect,0.200000X0.275000X-0.200000X0.275000X0.200000X-0.275000X0.200000X-0.275000X-0.200000X0*%
%ADD25RoundRect,0.225000X0.250000X-0.225000X0.250000X0.225000X-0.250000X0.225000X-0.250000X-0.225000X0*%
%ADD26RoundRect,0.200000X-0.200000X-0.275000X0.200000X-0.275000X0.200000X0.275000X-0.200000X0.275000X0*%
%ADD27FreePoly2,0.000000*%
%ADD28FreePoly3,0.000000*%
%ADD29RoundRect,0.150000X-0.150000X0.587500X-0.150000X-0.587500X0.150000X-0.587500X0.150000X0.587500X0*%
%ADD30C,1.600000*%
%ADD31R,0.900000X1.500000*%
%ADD32RoundRect,0.100000X-0.637500X-0.100000X0.637500X-0.100000X0.637500X0.100000X-0.637500X0.100000X0*%
%ADD33RoundRect,0.225000X-0.225000X-0.250000X0.225000X-0.250000X0.225000X0.250000X-0.225000X0.250000X0*%
%ADD34RoundRect,0.200000X-0.275000X0.200000X-0.275000X-0.200000X0.275000X-0.200000X0.275000X0.200000X0*%
%ADD35C,3.200000*%
%ADD36RoundRect,0.150000X0.150000X0.625000X-0.150000X0.625000X-0.150000X-0.625000X0.150000X-0.625000X0*%
%ADD37RoundRect,0.250000X0.350000X0.650000X-0.350000X0.650000X-0.350000X-0.650000X0.350000X-0.650000X0*%
%ADD38RoundRect,0.225000X0.225000X0.250000X-0.225000X0.250000X-0.225000X-0.250000X0.225000X-0.250000X0*%
G04 APERTURE END LIST*
D10*
X119500000Y-103000000D02*
X127000000Y-103000000D01*
X127000000Y-112400000D01*
X119500000Y-112400000D01*
X119500000Y-103000000D01*
G36*
X119500000Y-103000000D02*
G01*
X127000000Y-103000000D01*
X127000000Y-112400000D01*
X119500000Y-112400000D01*
X119500000Y-103000000D01*
G37*
X180708207Y-91874580D02*
X180660588Y-91922200D01*
X180660588Y-91922200D02*
X180517731Y-91969819D01*
X180517731Y-91969819D02*
X180422493Y-91969819D01*
X180422493Y-91969819D02*
X180279636Y-91922200D01*
X180279636Y-91922200D02*
X180184398Y-91826961D01*
X180184398Y-91826961D02*
X180136779Y-91731723D01*
X180136779Y-91731723D02*
X180089160Y-91541247D01*
X180089160Y-91541247D02*
X180089160Y-91398390D01*
X180089160Y-91398390D02*
X180136779Y-91207914D01*
X180136779Y-91207914D02*
X180184398Y-91112676D01*
X180184398Y-91112676D02*
X180279636Y-91017438D01*
X180279636Y-91017438D02*
X180422493Y-90969819D01*
X180422493Y-90969819D02*
X180517731Y-90969819D01*
X180517731Y-90969819D02*
X180660588Y-91017438D01*
X180660588Y-91017438D02*
X180708207Y-91065057D01*
X180993922Y-90969819D02*
X181565350Y-90969819D01*
X181279636Y-91969819D02*
X181279636Y-90969819D01*
X181851065Y-91922200D02*
X181993922Y-91969819D01*
X181993922Y-91969819D02*
X182232017Y-91969819D01*
X182232017Y-91969819D02*
X182327255Y-91922200D01*
X182327255Y-91922200D02*
X182374874Y-91874580D01*
X182374874Y-91874580D02*
X182422493Y-91779342D01*
X182422493Y-91779342D02*
X182422493Y-91684104D01*
X182422493Y-91684104D02*
X182374874Y-91588866D01*
X182374874Y-91588866D02*
X182327255Y-91541247D01*
X182327255Y-91541247D02*
X182232017Y-91493628D01*
X182232017Y-91493628D02*
X182041541Y-91446009D01*
X182041541Y-91446009D02*
X181946303Y-91398390D01*
X181946303Y-91398390D02*
X181898684Y-91350771D01*
X181898684Y-91350771D02*
X181851065Y-91255533D01*
X181851065Y-91255533D02*
X181851065Y-91160295D01*
X181851065Y-91160295D02*
X181898684Y-91065057D01*
X181898684Y-91065057D02*
X181946303Y-91017438D01*
X181946303Y-91017438D02*
X182041541Y-90969819D01*
X182041541Y-90969819D02*
X182279636Y-90969819D01*
X182279636Y-90969819D02*
X182422493Y-91017438D01*
X177774580Y-94491792D02*
X177822200Y-94539411D01*
X177822200Y-94539411D02*
X177869819Y-94682268D01*
X177869819Y-94682268D02*
X177869819Y-94777506D01*
X177869819Y-94777506D02*
X177822200Y-94920363D01*
X177822200Y-94920363D02*
X177726961Y-95015601D01*
X177726961Y-95015601D02*
X177631723Y-95063220D01*
X177631723Y-95063220D02*
X177441247Y-95110839D01*
X177441247Y-95110839D02*
X177298390Y-95110839D01*
X177298390Y-95110839D02*
X177107914Y-95063220D01*
X177107914Y-95063220D02*
X177012676Y-95015601D01*
X177012676Y-95015601D02*
X176917438Y-94920363D01*
X176917438Y-94920363D02*
X176869819Y-94777506D01*
X176869819Y-94777506D02*
X176869819Y-94682268D01*
X176869819Y-94682268D02*
X176917438Y-94539411D01*
X176917438Y-94539411D02*
X176965057Y-94491792D01*
X176869819Y-94206077D02*
X176869819Y-93634649D01*
X177869819Y-93920363D02*
X176869819Y-93920363D01*
X177822200Y-93348934D02*
X177869819Y-93206077D01*
X177869819Y-93206077D02*
X177869819Y-92967982D01*
X177869819Y-92967982D02*
X177822200Y-92872744D01*
X177822200Y-92872744D02*
X177774580Y-92825125D01*
X177774580Y-92825125D02*
X177679342Y-92777506D01*
X177679342Y-92777506D02*
X177584104Y-92777506D01*
X177584104Y-92777506D02*
X177488866Y-92825125D01*
X177488866Y-92825125D02*
X177441247Y-92872744D01*
X177441247Y-92872744D02*
X177393628Y-92967982D01*
X177393628Y-92967982D02*
X177346009Y-93158458D01*
X177346009Y-93158458D02*
X177298390Y-93253696D01*
X177298390Y-93253696D02*
X177250771Y-93301315D01*
X177250771Y-93301315D02*
X177155533Y-93348934D01*
X177155533Y-93348934D02*
X177060295Y-93348934D01*
X177060295Y-93348934D02*
X176965057Y-93301315D01*
X176965057Y-93301315D02*
X176917438Y-93253696D01*
X176917438Y-93253696D02*
X176869819Y-93158458D01*
X176869819Y-93158458D02*
X176869819Y-92920363D01*
X176869819Y-92920363D02*
X176917438Y-92777506D01*
D11*
X172564619Y-94526003D02*
X172088428Y-94859336D01*
X172564619Y-95097431D02*
X171564619Y-95097431D01*
X171564619Y-95097431D02*
X171564619Y-94716479D01*
X171564619Y-94716479D02*
X171612238Y-94621241D01*
X171612238Y-94621241D02*
X171659857Y-94573622D01*
X171659857Y-94573622D02*
X171755095Y-94526003D01*
X171755095Y-94526003D02*
X171897952Y-94526003D01*
X171897952Y-94526003D02*
X171993190Y-94573622D01*
X171993190Y-94573622D02*
X172040809Y-94621241D01*
X172040809Y-94621241D02*
X172088428Y-94716479D01*
X172088428Y-94716479D02*
X172088428Y-95097431D01*
X172278904Y-94145050D02*
X172278904Y-93668860D01*
X172564619Y-94240288D02*
X171564619Y-93906955D01*
X171564619Y-93906955D02*
X172564619Y-93573622D01*
X172564619Y-93240288D02*
X171564619Y-93240288D01*
X171564619Y-93240288D02*
X171564619Y-93002193D01*
X171564619Y-93002193D02*
X171612238Y-92859336D01*
X171612238Y-92859336D02*
X171707476Y-92764098D01*
X171707476Y-92764098D02*
X171802714Y-92716479D01*
X171802714Y-92716479D02*
X171993190Y-92668860D01*
X171993190Y-92668860D02*
X172136047Y-92668860D01*
X172136047Y-92668860D02*
X172326523Y-92716479D01*
X172326523Y-92716479D02*
X172421761Y-92764098D01*
X172421761Y-92764098D02*
X172517000Y-92859336D01*
X172517000Y-92859336D02*
X172564619Y-93002193D01*
X172564619Y-93002193D02*
X172564619Y-93240288D01*
D10*
X119836779Y-113769819D02*
X119836779Y-112769819D01*
X120312969Y-113769819D02*
X120312969Y-112769819D01*
X120312969Y-112769819D02*
X120551064Y-112769819D01*
X120551064Y-112769819D02*
X120693921Y-112817438D01*
X120693921Y-112817438D02*
X120789159Y-112912676D01*
X120789159Y-112912676D02*
X120836778Y-113007914D01*
X120836778Y-113007914D02*
X120884397Y-113198390D01*
X120884397Y-113198390D02*
X120884397Y-113341247D01*
X120884397Y-113341247D02*
X120836778Y-113531723D01*
X120836778Y-113531723D02*
X120789159Y-113626961D01*
X120789159Y-113626961D02*
X120693921Y-113722200D01*
X120693921Y-113722200D02*
X120551064Y-113769819D01*
X120551064Y-113769819D02*
X120312969Y-113769819D01*
D12*
G36*
X128201655Y-87207707D02*
G01*
X128219105Y-87242607D01*
X127947620Y-87296904D01*
X127947620Y-87252016D01*
X127969775Y-87207706D01*
X128014084Y-87185552D01*
X128157346Y-87185552D01*
X128201655Y-87207707D01*
G37*
G36*
X129080953Y-87642796D02*
G01*
X129062108Y-87652219D01*
X128871227Y-87652219D01*
X128826917Y-87630064D01*
X128804763Y-87585754D01*
X128804763Y-87537730D01*
X128826918Y-87493420D01*
X128871227Y-87471266D01*
X129080953Y-87471266D01*
X129080953Y-87642796D01*
G37*
G36*
X135080953Y-87642796D02*
G01*
X135062108Y-87652219D01*
X134871227Y-87652219D01*
X134826917Y-87630064D01*
X134804763Y-87585754D01*
X134804763Y-87537730D01*
X134826918Y-87493420D01*
X134871227Y-87471266D01*
X135080953Y-87471266D01*
X135080953Y-87642796D01*
G37*
G36*
X135985715Y-87194974D02*
G01*
X135985715Y-87642796D01*
X135966870Y-87652219D01*
X135823608Y-87652219D01*
X135763998Y-87622414D01*
X135739331Y-87597746D01*
X135709525Y-87538134D01*
X135709525Y-87299635D01*
X135739330Y-87240025D01*
X135763998Y-87215356D01*
X135823608Y-87185552D01*
X135966870Y-87185552D01*
X135985715Y-87194974D01*
G37*
G36*
X137359812Y-87215357D02*
G01*
X137384481Y-87240025D01*
X137414286Y-87299635D01*
X137414286Y-87538135D01*
X137384481Y-87597743D01*
X137359812Y-87622413D01*
X137300203Y-87652219D01*
X137204560Y-87652219D01*
X137144950Y-87622414D01*
X137120283Y-87597746D01*
X137090477Y-87538134D01*
X137090477Y-87299635D01*
X137120282Y-87240025D01*
X137144950Y-87215356D01*
X137204560Y-87185552D01*
X137300203Y-87185552D01*
X137359812Y-87215357D01*
G37*
G36*
X140455050Y-86882024D02*
G01*
X140479719Y-86906692D01*
X140515172Y-86977599D01*
X140557143Y-87145480D01*
X140557143Y-87358956D01*
X140515172Y-87526837D01*
X140479719Y-87597743D01*
X140455050Y-87622413D01*
X140395441Y-87652219D01*
X140347417Y-87652219D01*
X140287807Y-87622414D01*
X140263140Y-87597746D01*
X140227685Y-87526837D01*
X140185715Y-87358956D01*
X140185715Y-87145481D01*
X140227685Y-86977599D01*
X140263139Y-86906692D01*
X140287807Y-86882023D01*
X140347417Y-86852219D01*
X140395441Y-86852219D01*
X140455050Y-86882024D01*
G37*
G36*
X134169336Y-86882024D02*
G01*
X134194005Y-86906692D01*
X134223810Y-86966302D01*
X134223810Y-87061945D01*
X134194005Y-87121554D01*
X134169336Y-87146222D01*
X134109727Y-87176028D01*
X133852382Y-87176028D01*
X133852382Y-86852219D01*
X134109727Y-86852219D01*
X134169336Y-86882024D01*
G37*
G36*
X125327925Y-87366504D02*
G01*
X125129220Y-87366504D01*
X125228572Y-87068446D01*
X125327925Y-87366504D01*
G37*
G36*
X142294904Y-87963330D02*
G01*
X121303175Y-87963330D01*
X121303175Y-86942695D01*
X121414286Y-86942695D01*
X121414286Y-87037933D01*
X121416207Y-87057442D01*
X121417582Y-87060762D01*
X121417837Y-87064346D01*
X121424843Y-87082654D01*
X121472462Y-87177892D01*
X121477747Y-87186288D01*
X121478758Y-87188728D01*
X121481011Y-87191474D01*
X121482905Y-87194482D01*
X121484899Y-87196211D01*
X121491194Y-87203882D01*
X121538813Y-87251500D01*
X121546479Y-87257792D01*
X121548212Y-87259790D01*
X121551220Y-87261683D01*
X121553966Y-87263937D01*
X121556406Y-87264947D01*
X121564803Y-87270233D01*
X121660040Y-87317852D01*
X121661468Y-87318398D01*
X121662048Y-87318828D01*
X121670224Y-87321749D01*
X121678349Y-87324858D01*
X121679069Y-87324909D01*
X121680508Y-87325423D01*
X121860333Y-87370379D01*
X121931240Y-87405833D01*
X121955909Y-87430501D01*
X121985714Y-87490111D01*
X121985714Y-87538135D01*
X121955909Y-87597743D01*
X121931240Y-87622413D01*
X121871631Y-87652219D01*
X121673369Y-87652219D01*
X121545909Y-87609732D01*
X121526793Y-87605385D01*
X121487873Y-87608151D01*
X121452974Y-87625601D01*
X121427409Y-87655077D01*
X121415071Y-87692093D01*
X121417837Y-87731013D01*
X121435287Y-87765912D01*
X121464763Y-87791477D01*
X121482663Y-87799468D01*
X121625520Y-87847087D01*
X121635192Y-87849286D01*
X121637634Y-87850298D01*
X121641171Y-87850646D01*
X121644635Y-87851434D01*
X121647269Y-87851246D01*
X121657143Y-87852219D01*
X121895238Y-87852219D01*
X121914747Y-87850298D01*
X121918067Y-87848922D01*
X121921651Y-87848668D01*
X121939959Y-87841662D01*
X122035197Y-87794043D01*
X122043592Y-87788758D01*
X122046034Y-87787747D01*
X122048781Y-87785491D01*
X122051787Y-87783600D01*
X122053517Y-87781605D01*
X122061187Y-87775310D01*
X122108806Y-87727690D01*
X122115098Y-87720023D01*
X122117095Y-87718292D01*
X122118988Y-87715284D01*
X122121243Y-87712537D01*
X122122254Y-87710095D01*
X122127538Y-87701701D01*
X122175157Y-87606464D01*
X122182163Y-87588155D01*
X122182417Y-87584571D01*
X122183793Y-87581251D01*
X122185714Y-87561742D01*
X122185714Y-87466504D01*
X122183793Y-87446995D01*
X122182417Y-87443674D01*
X122182163Y-87440091D01*
X122175157Y-87421782D01*
X122127538Y-87326545D01*
X122122252Y-87318148D01*
X122121242Y-87315708D01*
X122118988Y-87312962D01*
X122117095Y-87309954D01*
X122115097Y-87308221D01*
X122108805Y-87300555D01*
X122061187Y-87252936D01*
X122053516Y-87246641D01*
X122051787Y-87244647D01*
X122048779Y-87242753D01*
X122046033Y-87240500D01*
X122043593Y-87239489D01*
X122035197Y-87234204D01*
X121939959Y-87186585D01*
X121938532Y-87186039D01*
X121937952Y-87185609D01*
X121929775Y-87182687D01*
X121921651Y-87179579D01*
X121920928Y-87179527D01*
X121919491Y-87179014D01*
X121739666Y-87134057D01*
X121668759Y-87098604D01*
X121644091Y-87073935D01*
X121614286Y-87014325D01*
X121614286Y-86966302D01*
X121626090Y-86942695D01*
X122366667Y-86942695D01*
X122366667Y-87037933D01*
X122368588Y-87057442D01*
X122369963Y-87060762D01*
X122370218Y-87064346D01*
X122377224Y-87082654D01*
X122424843Y-87177892D01*
X122430128Y-87186288D01*
X122431139Y-87188728D01*
X122433392Y-87191474D01*
X122435286Y-87194482D01*
X122437280Y-87196211D01*
X122443575Y-87203882D01*
X122491194Y-87251500D01*
X122498860Y-87257792D01*
X122500593Y-87259790D01*
X122503601Y-87261683D01*
X122506347Y-87263937D01*
X122508787Y-87264947D01*
X122517184Y-87270233D01*
X122612421Y-87317852D01*
X122613849Y-87318398D01*
X122614429Y-87318828D01*
X122622605Y-87321749D01*
X122630730Y-87324858D01*
X122631450Y-87324909D01*
X122632889Y-87325423D01*
X122812714Y-87370379D01*
X122883621Y-87405833D01*
X122908290Y-87430501D01*
X122938095Y-87490111D01*
X122938095Y-87538135D01*
X122908290Y-87597743D01*
X122883621Y-87622413D01*
X122824012Y-87652219D01*
X122625750Y-87652219D01*
X122498290Y-87609732D01*
X122479174Y-87605385D01*
X122440254Y-87608151D01*
X122405355Y-87625601D01*
X122379790Y-87655077D01*
X122367452Y-87692093D01*
X122370218Y-87731013D01*
X122387668Y-87765912D01*
X122417144Y-87791477D01*
X122435044Y-87799468D01*
X122577901Y-87847087D01*
X122587573Y-87849286D01*
X122590015Y-87850298D01*
X122593552Y-87850646D01*
X122597016Y-87851434D01*
X122599650Y-87851246D01*
X122609524Y-87852219D01*
X122847619Y-87852219D01*
X122867128Y-87850298D01*
X122870448Y-87848922D01*
X122874032Y-87848668D01*
X122892340Y-87841662D01*
X122987578Y-87794043D01*
X122995973Y-87788758D01*
X122998415Y-87787747D01*
X123001162Y-87785491D01*
X123004168Y-87783600D01*
X123005898Y-87781605D01*
X123013568Y-87775310D01*
X123061187Y-87727690D01*
X123067479Y-87720023D01*
X123069476Y-87718292D01*
X123071369Y-87715284D01*
X123073624Y-87712537D01*
X123074635Y-87710095D01*
X123079919Y-87701701D01*
X123127538Y-87606464D01*
X123134544Y-87588155D01*
X123134798Y-87584571D01*
X123136174Y-87581251D01*
X123138095Y-87561742D01*
X123138095Y-87466504D01*
X123136174Y-87446995D01*
X123134798Y-87443674D01*
X123134544Y-87440091D01*
X123127538Y-87421782D01*
X123079919Y-87326545D01*
X123074633Y-87318148D01*
X123073623Y-87315708D01*
X123071369Y-87312962D01*
X123069476Y-87309954D01*
X123067478Y-87308221D01*
X123061186Y-87300555D01*
X123013568Y-87252936D01*
X123005897Y-87246641D01*
X123004168Y-87244647D01*
X123001160Y-87242753D01*
X122998414Y-87240500D01*
X122995974Y-87239489D01*
X122987578Y-87234204D01*
X122892340Y-87186585D01*
X122890913Y-87186039D01*
X122890333Y-87185609D01*
X122882156Y-87182687D01*
X122874032Y-87179579D01*
X122873309Y-87179527D01*
X122871872Y-87179014D01*
X122692047Y-87134057D01*
X122621140Y-87098604D01*
X122596472Y-87073935D01*
X122566667Y-87014325D01*
X122566667Y-86966302D01*
X122596472Y-86906692D01*
X122621140Y-86882023D01*
X122680750Y-86852219D01*
X122879011Y-86852219D01*
X123006472Y-86894706D01*
X123025587Y-86899053D01*
X123064507Y-86896287D01*
X123099406Y-86878837D01*
X123124971Y-86849361D01*
X123137310Y-86812345D01*
X123134543Y-86773425D01*
X123123940Y-86752219D01*
X123366667Y-86752219D01*
X123366667Y-87752219D01*
X123368588Y-87771728D01*
X123383520Y-87807776D01*
X123411110Y-87835366D01*
X123447158Y-87850298D01*
X123466667Y-87852219D01*
X123942857Y-87852219D01*
X123962366Y-87850298D01*
X123998414Y-87835366D01*
X124026004Y-87807776D01*
X124040936Y-87771728D01*
X124040936Y-87739712D01*
X124796024Y-87739712D01*
X124798790Y-87778632D01*
X124816240Y-87813531D01*
X124845716Y-87839096D01*
X124882732Y-87851434D01*
X124921652Y-87848668D01*
X124956551Y-87831218D01*
X124982116Y-87801742D01*
X124990107Y-87783842D01*
X125062553Y-87566504D01*
X125394591Y-87566504D01*
X125467037Y-87783841D01*
X125475028Y-87801742D01*
X125500593Y-87831218D01*
X125535492Y-87848667D01*
X125574412Y-87851434D01*
X125611428Y-87839095D01*
X125640904Y-87813530D01*
X125658354Y-87778631D01*
X125661120Y-87739711D01*
X125656773Y-87720596D01*
X125533827Y-87351757D01*
X125797160Y-87351757D01*
X125797160Y-87390775D01*
X125812092Y-87426823D01*
X125839682Y-87454413D01*
X125875730Y-87469345D01*
X125895239Y-87471266D01*
X126657144Y-87471266D01*
X126676653Y-87469345D01*
X126712701Y-87454413D01*
X126740291Y-87426823D01*
X126755223Y-87390775D01*
X126755223Y-87351757D01*
X126740291Y-87315709D01*
X126712701Y-87288119D01*
X126676653Y-87273187D01*
X126657144Y-87271266D01*
X125895239Y-87271266D01*
X125875730Y-87273187D01*
X125839682Y-87288119D01*
X125812092Y-87315709D01*
X125797160Y-87351757D01*
X125533827Y-87351757D01*
X125327478Y-86732710D01*
X126892398Y-86732710D01*
X126892398Y-86771728D01*
X126907330Y-86807776D01*
X126934920Y-86835366D01*
X126970968Y-86850298D01*
X126990477Y-86852219D01*
X127176191Y-86852219D01*
X127176191Y-87752219D01*
X127178112Y-87771728D01*
X127193044Y-87807776D01*
X127220634Y-87835366D01*
X127256682Y-87850298D01*
X127295700Y-87850298D01*
X127331748Y-87835366D01*
X127359338Y-87807776D01*
X127374270Y-87771728D01*
X127376191Y-87752219D01*
X127376191Y-87228409D01*
X127747620Y-87228409D01*
X127747620Y-87609361D01*
X127749541Y-87628870D01*
X127750916Y-87632190D01*
X127751171Y-87635773D01*
X127758177Y-87654082D01*
X127805796Y-87749321D01*
X127807849Y-87752584D01*
X127808363Y-87754123D01*
X127810025Y-87756039D01*
X127816239Y-87765911D01*
X127825710Y-87774125D01*
X127833927Y-87783600D01*
X127843797Y-87789812D01*
X127845715Y-87791476D01*
X127847255Y-87791989D01*
X127850518Y-87794043D01*
X127945755Y-87841662D01*
X127964064Y-87848668D01*
X127967647Y-87848922D01*
X127970968Y-87850298D01*
X127990477Y-87852219D01*
X128180953Y-87852219D01*
X128200462Y-87850298D01*
X128203782Y-87848922D01*
X128207366Y-87848668D01*
X128225674Y-87841662D01*
X128320912Y-87794043D01*
X128337502Y-87783600D01*
X128363067Y-87754123D01*
X128375405Y-87717107D01*
X128372640Y-87678187D01*
X128355191Y-87643289D01*
X128325714Y-87617724D01*
X128288698Y-87605385D01*
X128249778Y-87608151D01*
X128231469Y-87615157D01*
X128157346Y-87652219D01*
X128014084Y-87652219D01*
X127969774Y-87630064D01*
X127947620Y-87585754D01*
X127947620Y-87514123D01*
X128604763Y-87514123D01*
X128604763Y-87609361D01*
X128606684Y-87628870D01*
X128608059Y-87632190D01*
X128608314Y-87635773D01*
X128615320Y-87654082D01*
X128662939Y-87749321D01*
X128664992Y-87752584D01*
X128665506Y-87754123D01*
X128667168Y-87756039D01*
X128673382Y-87765911D01*
X128682853Y-87774125D01*
X128691070Y-87783600D01*
X128700940Y-87789812D01*
X128702858Y-87791476D01*
X128704398Y-87791989D01*
X128707661Y-87794043D01*
X128802898Y-87841662D01*
X128821207Y-87848668D01*
X128824790Y-87848922D01*
X128828111Y-87850298D01*
X128847620Y-87852219D01*
X129085715Y-87852219D01*
X129105224Y-87850298D01*
X129108544Y-87848922D01*
X129112128Y-87848668D01*
X129130436Y-87841662D01*
X129135039Y-87839360D01*
X129161444Y-87850298D01*
X129200462Y-87850298D01*
X129236510Y-87835366D01*
X129264100Y-87807776D01*
X129279032Y-87771728D01*
X129280953Y-87752219D01*
X129280953Y-87228409D01*
X129279032Y-87208900D01*
X129277656Y-87205579D01*
X129277402Y-87201996D01*
X129270396Y-87183687D01*
X129222777Y-87088450D01*
X129220952Y-87085552D01*
X129557144Y-87085552D01*
X129557144Y-87752219D01*
X129559065Y-87771728D01*
X129573997Y-87807776D01*
X129601587Y-87835366D01*
X129637635Y-87850298D01*
X129676653Y-87850298D01*
X129712701Y-87835366D01*
X129740291Y-87807776D01*
X129755223Y-87771728D01*
X129757144Y-87752219D01*
X129757144Y-87222211D01*
X129763998Y-87215356D01*
X129823608Y-87185552D01*
X129919251Y-87185552D01*
X129963560Y-87207707D01*
X129985715Y-87252016D01*
X129985715Y-87752219D01*
X129987636Y-87771728D01*
X130002568Y-87807776D01*
X130030158Y-87835366D01*
X130066206Y-87850298D01*
X130105224Y-87850298D01*
X130141272Y-87835366D01*
X130168862Y-87807776D01*
X130183794Y-87771728D01*
X130185715Y-87752219D01*
X130185715Y-87252016D01*
X130207870Y-87207706D01*
X130252179Y-87185552D01*
X130347822Y-87185552D01*
X130392132Y-87207706D01*
X130414287Y-87252016D01*
X130414287Y-87752219D01*
X130416208Y-87771728D01*
X130431140Y-87807776D01*
X130458730Y-87835366D01*
X130494778Y-87850298D01*
X130533796Y-87850298D01*
X130569844Y-87835366D01*
X130597434Y-87807776D01*
X130612366Y-87771728D01*
X130614287Y-87752219D01*
X130614287Y-87351757D01*
X131654303Y-87351757D01*
X131654303Y-87390775D01*
X131669235Y-87426823D01*
X131696825Y-87454413D01*
X131732873Y-87469345D01*
X131752382Y-87471266D01*
X132514287Y-87471266D01*
X132533796Y-87469345D01*
X132569844Y-87454413D01*
X132597434Y-87426823D01*
X132612366Y-87390775D01*
X132612366Y-87351757D01*
X132597434Y-87315709D01*
X132569844Y-87288119D01*
X132533796Y-87273187D01*
X132514287Y-87271266D01*
X131752382Y-87271266D01*
X131732873Y-87273187D01*
X131696825Y-87288119D01*
X131669235Y-87315709D01*
X131654303Y-87351757D01*
X130614287Y-87351757D01*
X130614287Y-87228409D01*
X130612366Y-87208900D01*
X130610990Y-87205579D01*
X130610736Y-87201996D01*
X130603730Y-87183687D01*
X130556111Y-87088450D01*
X130554057Y-87085187D01*
X130553544Y-87083647D01*
X130551880Y-87081729D01*
X130545668Y-87071859D01*
X130536193Y-87063642D01*
X130527979Y-87054171D01*
X130518107Y-87047957D01*
X130516191Y-87046295D01*
X130514652Y-87045781D01*
X130511389Y-87043728D01*
X130416150Y-86996109D01*
X130397841Y-86989103D01*
X130394258Y-86988848D01*
X130390938Y-86987473D01*
X130371429Y-86985552D01*
X130228572Y-86985552D01*
X130209063Y-86987473D01*
X130205742Y-86988848D01*
X130202159Y-86989103D01*
X130183850Y-86996109D01*
X130088613Y-87043728D01*
X130085714Y-87045552D01*
X130082817Y-87043728D01*
X129987579Y-86996109D01*
X129969271Y-86989103D01*
X129965687Y-86988848D01*
X129962367Y-86987473D01*
X129942858Y-86985552D01*
X129800001Y-86985552D01*
X129780492Y-86987473D01*
X129777171Y-86988848D01*
X129773588Y-86989103D01*
X129755279Y-86996109D01*
X129722696Y-87012400D01*
X129712701Y-87002405D01*
X129676653Y-86987473D01*
X129637635Y-86987473D01*
X129601587Y-87002405D01*
X129573997Y-87029995D01*
X129559065Y-87066043D01*
X129557144Y-87085552D01*
X129220952Y-87085552D01*
X129220722Y-87085186D01*
X129220210Y-87083648D01*
X129218548Y-87081732D01*
X129212334Y-87071859D01*
X129202858Y-87063641D01*
X129194645Y-87054171D01*
X129184773Y-87047957D01*
X129182857Y-87046295D01*
X129181318Y-87045781D01*
X129178055Y-87043728D01*
X129082817Y-86996109D01*
X129064509Y-86989103D01*
X129060925Y-86988848D01*
X129057605Y-86987473D01*
X129038096Y-86985552D01*
X128847620Y-86985552D01*
X128828111Y-86987473D01*
X128824790Y-86988848D01*
X128821207Y-86989103D01*
X128802898Y-86996109D01*
X128707661Y-87043728D01*
X128691070Y-87054171D01*
X128665506Y-87083648D01*
X128653167Y-87120664D01*
X128655933Y-87159584D01*
X128673382Y-87194483D01*
X128702859Y-87220047D01*
X128739875Y-87232386D01*
X128778795Y-87229620D01*
X128797103Y-87222614D01*
X128871227Y-87185552D01*
X129014489Y-87185552D01*
X129058798Y-87207707D01*
X129080953Y-87252016D01*
X129080953Y-87261843D01*
X129062108Y-87271266D01*
X128847620Y-87271266D01*
X128828111Y-87273187D01*
X128824790Y-87274562D01*
X128821207Y-87274817D01*
X128802898Y-87281823D01*
X128707661Y-87329442D01*
X128704397Y-87331496D01*
X128702859Y-87332009D01*
X128700943Y-87333670D01*
X128691070Y-87339885D01*
X128682852Y-87349360D01*
X128673382Y-87357574D01*
X128667168Y-87367445D01*
X128665506Y-87369362D01*
X128664992Y-87370900D01*
X128662939Y-87374164D01*
X128615320Y-87469402D01*
X128608314Y-87487710D01*
X128608059Y-87491293D01*
X128606684Y-87494614D01*
X128604763Y-87514123D01*
X127947620Y-87514123D01*
X127947620Y-87500865D01*
X128343316Y-87421726D01*
X128343319Y-87421726D01*
X128343321Y-87421724D01*
X128343421Y-87421705D01*
X128362175Y-87415995D01*
X128370315Y-87410543D01*
X128379367Y-87406794D01*
X128386368Y-87399792D01*
X128394594Y-87394284D01*
X128400028Y-87386132D01*
X128406957Y-87379204D01*
X128410746Y-87370056D01*
X128416238Y-87361819D01*
X128418139Y-87352208D01*
X128421889Y-87343156D01*
X128423810Y-87323647D01*
X128423810Y-87228409D01*
X128421889Y-87208900D01*
X128420513Y-87205579D01*
X128420259Y-87201996D01*
X128413253Y-87183687D01*
X128365634Y-87088450D01*
X128363579Y-87085186D01*
X128363067Y-87083648D01*
X128361405Y-87081732D01*
X128355191Y-87071859D01*
X128345715Y-87063641D01*
X128337502Y-87054171D01*
X128327630Y-87047957D01*
X128325714Y-87046295D01*
X128324175Y-87045781D01*
X128320912Y-87043728D01*
X128225674Y-86996109D01*
X128207366Y-86989103D01*
X128203782Y-86988848D01*
X128200462Y-86987473D01*
X128180953Y-86985552D01*
X127990477Y-86985552D01*
X127970968Y-86987473D01*
X127967647Y-86988848D01*
X127964064Y-86989103D01*
X127945755Y-86996109D01*
X127850518Y-87043728D01*
X127847254Y-87045782D01*
X127845716Y-87046295D01*
X127843800Y-87047956D01*
X127833927Y-87054171D01*
X127825709Y-87063646D01*
X127816239Y-87071860D01*
X127810025Y-87081731D01*
X127808363Y-87083648D01*
X127807849Y-87085186D01*
X127805796Y-87088450D01*
X127758177Y-87183688D01*
X127751171Y-87201996D01*
X127750916Y-87205579D01*
X127749541Y-87208900D01*
X127747620Y-87228409D01*
X127376191Y-87228409D01*
X127376191Y-86852219D01*
X127561905Y-86852219D01*
X127581414Y-86850298D01*
X127617462Y-86835366D01*
X127645052Y-86807776D01*
X127659984Y-86771728D01*
X127659984Y-86752219D01*
X133652382Y-86752219D01*
X133652382Y-87752219D01*
X133654303Y-87771728D01*
X133669235Y-87807776D01*
X133696825Y-87835366D01*
X133732873Y-87850298D01*
X133771891Y-87850298D01*
X133807939Y-87835366D01*
X133835529Y-87807776D01*
X133850461Y-87771728D01*
X133852382Y-87752219D01*
X133852382Y-87376028D01*
X133938412Y-87376028D01*
X134241887Y-87809565D01*
X134254648Y-87824446D01*
X134287553Y-87845415D01*
X134325978Y-87852196D01*
X134364072Y-87843756D01*
X134396037Y-87821381D01*
X134417006Y-87788476D01*
X134423787Y-87750052D01*
X134415347Y-87711957D01*
X134405733Y-87694873D01*
X134279208Y-87514123D01*
X134604763Y-87514123D01*
X134604763Y-87609361D01*
X134606684Y-87628870D01*
X134608059Y-87632190D01*
X134608314Y-87635773D01*
X134615320Y-87654082D01*
X134662939Y-87749321D01*
X134664992Y-87752584D01*
X134665506Y-87754123D01*
X134667168Y-87756039D01*
X134673382Y-87765911D01*
X134682853Y-87774125D01*
X134691070Y-87783600D01*
X134700940Y-87789812D01*
X134702858Y-87791476D01*
X134704398Y-87791989D01*
X134707661Y-87794043D01*
X134802898Y-87841662D01*
X134821207Y-87848668D01*
X134824790Y-87848922D01*
X134828111Y-87850298D01*
X134847620Y-87852219D01*
X135085715Y-87852219D01*
X135105224Y-87850298D01*
X135108544Y-87848922D01*
X135112128Y-87848668D01*
X135130436Y-87841662D01*
X135135039Y-87839360D01*
X135161444Y-87850298D01*
X135200462Y-87850298D01*
X135236510Y-87835366D01*
X135264100Y-87807776D01*
X135279032Y-87771728D01*
X135280953Y-87752219D01*
X135280953Y-87276028D01*
X135509525Y-87276028D01*
X135509525Y-87561742D01*
X135511446Y-87581251D01*
X135512821Y-87584571D01*
X135513076Y-87588155D01*
X135520082Y-87606463D01*
X135567701Y-87701701D01*
X135572984Y-87710093D01*
X135573996Y-87712537D01*
X135576252Y-87715286D01*
X135578144Y-87718291D01*
X135580138Y-87720020D01*
X135586433Y-87727690D01*
X135634051Y-87775310D01*
X135641719Y-87781603D01*
X135643451Y-87783600D01*
X135646459Y-87785493D01*
X135649205Y-87787747D01*
X135651645Y-87788757D01*
X135660042Y-87794043D01*
X135755279Y-87841662D01*
X135773588Y-87848668D01*
X135777171Y-87848922D01*
X135780492Y-87850298D01*
X135800001Y-87852219D01*
X135990477Y-87852219D01*
X136009986Y-87850298D01*
X136013306Y-87848922D01*
X136016890Y-87848668D01*
X136035198Y-87841662D01*
X136039801Y-87839360D01*
X136066206Y-87850298D01*
X136105224Y-87850298D01*
X136141272Y-87835366D01*
X136168862Y-87807776D01*
X136183794Y-87771728D01*
X136185715Y-87752219D01*
X136185715Y-87085552D01*
X136461906Y-87085552D01*
X136461906Y-87752219D01*
X136463827Y-87771728D01*
X136478759Y-87807776D01*
X136506349Y-87835366D01*
X136542397Y-87850298D01*
X136581415Y-87850298D01*
X136617463Y-87835366D01*
X136645053Y-87807776D01*
X136659985Y-87771728D01*
X136661906Y-87752219D01*
X136661906Y-87276028D01*
X136890477Y-87276028D01*
X136890477Y-87561742D01*
X136892398Y-87581251D01*
X136893773Y-87584571D01*
X136894028Y-87588155D01*
X136901034Y-87606463D01*
X136948653Y-87701701D01*
X136953936Y-87710093D01*
X136954948Y-87712537D01*
X136957204Y-87715286D01*
X136959096Y-87718291D01*
X136961090Y-87720020D01*
X136967385Y-87727690D01*
X137015003Y-87775310D01*
X137022671Y-87781603D01*
X137024403Y-87783600D01*
X137027411Y-87785493D01*
X137030157Y-87787747D01*
X137032597Y-87788757D01*
X137040994Y-87794043D01*
X137136231Y-87841662D01*
X137154540Y-87848668D01*
X137158123Y-87848922D01*
X137161444Y-87850298D01*
X137180953Y-87852219D01*
X137323810Y-87852219D01*
X137343319Y-87850298D01*
X137346639Y-87848922D01*
X137350223Y-87848668D01*
X137368531Y-87841662D01*
X137463769Y-87794043D01*
X137472164Y-87788758D01*
X137474606Y-87787747D01*
X137477353Y-87785491D01*
X137480359Y-87783600D01*
X137482089Y-87781605D01*
X137489759Y-87775310D01*
X137537378Y-87727690D01*
X137543670Y-87720023D01*
X137545667Y-87718292D01*
X137547560Y-87715284D01*
X137549815Y-87712537D01*
X137550826Y-87710095D01*
X137556110Y-87701701D01*
X137603729Y-87606464D01*
X137610735Y-87588155D01*
X137610989Y-87584571D01*
X137612365Y-87581251D01*
X137614286Y-87561742D01*
X137614286Y-87276028D01*
X137612365Y-87256519D01*
X137610989Y-87253198D01*
X137610735Y-87249615D01*
X137603729Y-87231306D01*
X137556110Y-87136069D01*
X137550824Y-87127672D01*
X137549814Y-87125232D01*
X137547560Y-87122486D01*
X137545667Y-87119478D01*
X137543669Y-87117745D01*
X137537377Y-87110079D01*
X137489759Y-87062460D01*
X137482088Y-87056165D01*
X137480359Y-87054171D01*
X137477351Y-87052277D01*
X137474605Y-87050024D01*
X137472165Y-87049013D01*
X137463769Y-87043728D01*
X137427165Y-87025426D01*
X138557929Y-87025426D01*
X138560695Y-87064346D01*
X138578144Y-87099245D01*
X138607621Y-87124809D01*
X138644637Y-87137148D01*
X138683557Y-87134382D01*
X138701865Y-87127376D01*
X138797103Y-87079757D01*
X138805499Y-87074471D01*
X138807939Y-87073461D01*
X138810685Y-87071207D01*
X138813693Y-87069314D01*
X138815422Y-87067319D01*
X138823093Y-87061025D01*
X138842858Y-87041260D01*
X138842858Y-87652219D01*
X138657144Y-87652219D01*
X138637635Y-87654140D01*
X138601587Y-87669072D01*
X138573997Y-87696662D01*
X138559065Y-87732710D01*
X138559065Y-87771728D01*
X138573997Y-87807776D01*
X138601587Y-87835366D01*
X138637635Y-87850298D01*
X138657144Y-87852219D01*
X139228572Y-87852219D01*
X139248081Y-87850298D01*
X139284129Y-87835366D01*
X139311719Y-87807776D01*
X139326651Y-87771728D01*
X139326651Y-87732710D01*
X139311719Y-87696662D01*
X139300148Y-87685091D01*
X139511446Y-87685091D01*
X139511446Y-87724109D01*
X139517909Y-87739711D01*
X139526378Y-87760158D01*
X139526382Y-87760162D01*
X139538814Y-87775311D01*
X139586433Y-87822929D01*
X139601586Y-87835366D01*
X139610589Y-87839095D01*
X139637635Y-87850298D01*
X139676653Y-87850298D01*
X139712701Y-87835366D01*
X139727855Y-87822930D01*
X139775473Y-87775311D01*
X139787910Y-87760158D01*
X139794662Y-87743856D01*
X139802841Y-87724110D01*
X139802842Y-87685092D01*
X139787911Y-87649043D01*
X139775474Y-87633890D01*
X139727855Y-87586270D01*
X139712702Y-87573833D01*
X139690508Y-87564640D01*
X139686435Y-87562953D01*
X139676653Y-87558901D01*
X139637635Y-87558901D01*
X139627853Y-87562953D01*
X139601587Y-87573832D01*
X139601586Y-87573833D01*
X139586432Y-87586270D01*
X139538814Y-87633890D01*
X139526377Y-87649043D01*
X139516364Y-87673219D01*
X139511446Y-87685091D01*
X139300148Y-87685091D01*
X139284129Y-87669072D01*
X139248081Y-87654140D01*
X139228572Y-87652219D01*
X139042858Y-87652219D01*
X139042858Y-87133171D01*
X139985715Y-87133171D01*
X139985715Y-87371266D01*
X139986050Y-87374668D01*
X139985833Y-87376127D01*
X139986912Y-87383424D01*
X139987636Y-87390775D01*
X139988200Y-87392138D01*
X139988701Y-87395520D01*
X140036320Y-87585995D01*
X140036833Y-87587432D01*
X140036885Y-87588155D01*
X140039993Y-87596279D01*
X140042915Y-87604456D01*
X140043345Y-87605036D01*
X140043891Y-87606463D01*
X140091510Y-87701701D01*
X140096793Y-87710093D01*
X140097805Y-87712537D01*
X140100061Y-87715286D01*
X140101953Y-87718291D01*
X140103947Y-87720020D01*
X140110242Y-87727690D01*
X140157860Y-87775310D01*
X140165528Y-87781603D01*
X140167260Y-87783600D01*
X140170268Y-87785493D01*
X140173014Y-87787747D01*
X140175454Y-87788757D01*
X140183851Y-87794043D01*
X140279088Y-87841662D01*
X140297397Y-87848668D01*
X140300980Y-87848922D01*
X140304301Y-87850298D01*
X140323810Y-87852219D01*
X140419048Y-87852219D01*
X140438557Y-87850298D01*
X140441877Y-87848922D01*
X140445461Y-87848668D01*
X140463769Y-87841662D01*
X140559007Y-87794043D01*
X140567402Y-87788758D01*
X140569844Y-87787747D01*
X140572591Y-87785491D01*
X140575597Y-87783600D01*
X140577327Y-87781605D01*
X140584997Y-87775310D01*
X140632616Y-87727690D01*
X140638908Y-87720023D01*
X140640905Y-87718292D01*
X140642798Y-87715284D01*
X140645053Y-87712537D01*
X140646064Y-87710095D01*
X140651348Y-87701701D01*
X140659653Y-87685091D01*
X140940017Y-87685091D01*
X140940017Y-87724109D01*
X140946480Y-87739711D01*
X140954949Y-87760158D01*
X140954953Y-87760162D01*
X140967385Y-87775311D01*
X141015004Y-87822929D01*
X141030157Y-87835366D01*
X141039160Y-87839095D01*
X141066206Y-87850298D01*
X141105224Y-87850298D01*
X141141272Y-87835366D01*
X141156426Y-87822930D01*
X141204044Y-87775311D01*
X141216481Y-87760158D01*
X141223233Y-87743856D01*
X141231412Y-87724110D01*
X141231413Y-87685092D01*
X141216482Y-87649043D01*
X141204045Y-87633890D01*
X141156426Y-87586270D01*
X141141273Y-87573833D01*
X141119079Y-87564640D01*
X141115006Y-87562953D01*
X141105224Y-87558901D01*
X141066206Y-87558901D01*
X141056424Y-87562953D01*
X141030158Y-87573832D01*
X141030157Y-87573833D01*
X141015003Y-87586270D01*
X140967385Y-87633890D01*
X140954948Y-87649043D01*
X140944935Y-87673219D01*
X140940017Y-87685091D01*
X140659653Y-87685091D01*
X140698967Y-87606464D01*
X140699513Y-87605035D01*
X140699943Y-87604456D01*
X140702864Y-87596279D01*
X140705973Y-87588155D01*
X140706024Y-87587434D01*
X140706538Y-87585996D01*
X140754157Y-87395520D01*
X140754657Y-87392138D01*
X140755222Y-87390775D01*
X140755945Y-87383424D01*
X140757025Y-87376127D01*
X140756807Y-87374668D01*
X140757143Y-87371266D01*
X140757143Y-87133171D01*
X140756807Y-87129768D01*
X140757025Y-87128310D01*
X140755945Y-87121012D01*
X140755222Y-87113662D01*
X140754657Y-87112298D01*
X140754157Y-87108917D01*
X140733284Y-87025426D01*
X141415071Y-87025426D01*
X141417837Y-87064346D01*
X141435286Y-87099245D01*
X141464763Y-87124809D01*
X141501779Y-87137148D01*
X141540699Y-87134382D01*
X141559007Y-87127376D01*
X141654245Y-87079757D01*
X141662641Y-87074471D01*
X141665081Y-87073461D01*
X141667827Y-87071207D01*
X141670835Y-87069314D01*
X141672564Y-87067319D01*
X141680235Y-87061025D01*
X141700000Y-87041260D01*
X141700000Y-87652219D01*
X141514286Y-87652219D01*
X141494777Y-87654140D01*
X141458729Y-87669072D01*
X141431139Y-87696662D01*
X141416207Y-87732710D01*
X141416207Y-87771728D01*
X141431139Y-87807776D01*
X141458729Y-87835366D01*
X141494777Y-87850298D01*
X141514286Y-87852219D01*
X142085714Y-87852219D01*
X142105223Y-87850298D01*
X142141271Y-87835366D01*
X142168861Y-87807776D01*
X142183793Y-87771728D01*
X142183793Y-87732710D01*
X142168861Y-87696662D01*
X142141271Y-87669072D01*
X142105223Y-87654140D01*
X142085714Y-87652219D01*
X141900000Y-87652219D01*
X141900000Y-86752219D01*
X141899993Y-86752148D01*
X141900000Y-86752114D01*
X141899979Y-86752012D01*
X141898079Y-86732710D01*
X141894289Y-86723561D01*
X141892348Y-86713854D01*
X141886896Y-86705713D01*
X141883147Y-86696662D01*
X141876147Y-86689662D01*
X141870637Y-86681434D01*
X141862482Y-86675997D01*
X141855557Y-86669072D01*
X141846413Y-86665284D01*
X141838172Y-86659790D01*
X141828558Y-86657888D01*
X141819509Y-86654140D01*
X141809608Y-86654140D01*
X141799896Y-86652219D01*
X141790291Y-86654140D01*
X141780491Y-86654140D01*
X141771342Y-86657929D01*
X141761635Y-86659871D01*
X141753494Y-86665322D01*
X141744443Y-86669072D01*
X141737443Y-86676071D01*
X141729215Y-86681582D01*
X141716926Y-86696588D01*
X141716853Y-86696662D01*
X141716839Y-86696694D01*
X141716795Y-86696749D01*
X141627051Y-86831365D01*
X141550287Y-86908128D01*
X141469565Y-86948490D01*
X141452974Y-86958933D01*
X141427410Y-86988410D01*
X141415071Y-87025426D01*
X140733284Y-87025426D01*
X140706538Y-86918441D01*
X140706024Y-86917002D01*
X140705973Y-86916282D01*
X140702864Y-86908157D01*
X140699943Y-86899981D01*
X140699513Y-86899401D01*
X140698967Y-86897973D01*
X140651348Y-86802736D01*
X140646062Y-86794339D01*
X140645052Y-86791899D01*
X140642798Y-86789153D01*
X140640905Y-86786145D01*
X140638907Y-86784412D01*
X140632615Y-86776746D01*
X140584997Y-86729127D01*
X140577326Y-86722832D01*
X140575597Y-86720838D01*
X140572589Y-86718944D01*
X140569843Y-86716691D01*
X140567403Y-86715680D01*
X140559007Y-86710395D01*
X140463769Y-86662776D01*
X140445461Y-86655770D01*
X140441877Y-86655515D01*
X140438557Y-86654140D01*
X140419048Y-86652219D01*
X140323810Y-86652219D01*
X140304301Y-86654140D01*
X140300980Y-86655515D01*
X140297397Y-86655770D01*
X140279088Y-86662776D01*
X140183851Y-86710395D01*
X140175454Y-86715680D01*
X140173014Y-86716691D01*
X140170268Y-86718944D01*
X140167260Y-86720838D01*
X140165527Y-86722835D01*
X140157861Y-86729128D01*
X140110242Y-86776746D01*
X140103947Y-86784416D01*
X140101953Y-86786146D01*
X140100059Y-86789153D01*
X140097806Y-86791900D01*
X140096795Y-86794339D01*
X140091510Y-86802736D01*
X140043891Y-86897974D01*
X140043345Y-86899400D01*
X140042915Y-86899981D01*
X140039993Y-86908157D01*
X140036885Y-86916282D01*
X140036833Y-86917004D01*
X140036320Y-86918442D01*
X139988701Y-87108917D01*
X139988200Y-87112298D01*
X139987636Y-87113662D01*
X139986912Y-87121012D01*
X139985833Y-87128310D01*
X139986050Y-87129768D01*
X139985715Y-87133171D01*
X139042858Y-87133171D01*
X139042858Y-86752219D01*
X139042851Y-86752148D01*
X139042858Y-86752114D01*
X139042837Y-86752012D01*
X139040937Y-86732710D01*
X139037147Y-86723561D01*
X139035206Y-86713854D01*
X139029754Y-86705713D01*
X139026005Y-86696662D01*
X139019005Y-86689662D01*
X139013495Y-86681434D01*
X139005340Y-86675997D01*
X138998415Y-86669072D01*
X138989271Y-86665284D01*
X138981030Y-86659790D01*
X138971416Y-86657888D01*
X138962367Y-86654140D01*
X138952466Y-86654140D01*
X138942754Y-86652219D01*
X138933149Y-86654140D01*
X138923349Y-86654140D01*
X138914200Y-86657929D01*
X138904493Y-86659871D01*
X138896352Y-86665322D01*
X138887301Y-86669072D01*
X138880301Y-86676071D01*
X138872073Y-86681582D01*
X138859784Y-86696588D01*
X138859711Y-86696662D01*
X138859697Y-86696694D01*
X138859653Y-86696749D01*
X138769909Y-86831365D01*
X138693145Y-86908128D01*
X138612423Y-86948490D01*
X138595832Y-86958933D01*
X138570268Y-86988410D01*
X138557929Y-87025426D01*
X137427165Y-87025426D01*
X137368531Y-86996109D01*
X137350223Y-86989103D01*
X137346639Y-86988848D01*
X137343319Y-86987473D01*
X137323810Y-86985552D01*
X137180953Y-86985552D01*
X137161444Y-86987473D01*
X137158123Y-86988848D01*
X137154540Y-86989103D01*
X137136231Y-86996109D01*
X137040994Y-87043728D01*
X137032597Y-87049013D01*
X137030157Y-87050024D01*
X137027411Y-87052277D01*
X137024403Y-87054171D01*
X137022670Y-87056168D01*
X137015004Y-87062461D01*
X136967385Y-87110079D01*
X136961090Y-87117749D01*
X136959096Y-87119479D01*
X136957202Y-87122486D01*
X136954949Y-87125233D01*
X136953938Y-87127672D01*
X136948653Y-87136069D01*
X136901034Y-87231307D01*
X136894028Y-87249615D01*
X136893773Y-87253198D01*
X136892398Y-87256519D01*
X136890477Y-87276028D01*
X136661906Y-87276028D01*
X136661906Y-87085552D01*
X136659985Y-87066043D01*
X136645053Y-87029995D01*
X136617463Y-87002405D01*
X136581415Y-86987473D01*
X136542397Y-86987473D01*
X136506349Y-87002405D01*
X136478759Y-87029995D01*
X136463827Y-87066043D01*
X136461906Y-87085552D01*
X136185715Y-87085552D01*
X136185715Y-86780329D01*
X136416208Y-86780329D01*
X136416208Y-86819347D01*
X136431140Y-86855395D01*
X136443576Y-86870549D01*
X136491195Y-86918167D01*
X136506348Y-86930604D01*
X136513198Y-86933441D01*
X136542397Y-86945536D01*
X136581415Y-86945536D01*
X136617463Y-86930604D01*
X136632617Y-86918168D01*
X136680235Y-86870549D01*
X136692672Y-86855396D01*
X136707603Y-86819347D01*
X136707603Y-86780329D01*
X136704743Y-86773425D01*
X136692672Y-86744280D01*
X136680235Y-86729127D01*
X136632617Y-86681508D01*
X136617463Y-86669072D01*
X136581415Y-86654140D01*
X136542397Y-86654140D01*
X136516906Y-86664698D01*
X136506348Y-86669072D01*
X136491195Y-86681509D01*
X136443576Y-86729127D01*
X136431141Y-86744280D01*
X136431140Y-86744281D01*
X136416208Y-86780329D01*
X136185715Y-86780329D01*
X136185715Y-86752219D01*
X136183794Y-86732710D01*
X136168862Y-86696662D01*
X136141272Y-86669072D01*
X136105224Y-86654140D01*
X136066206Y-86654140D01*
X136030158Y-86669072D01*
X136002568Y-86696662D01*
X135987636Y-86732710D01*
X135985715Y-86752219D01*
X135985715Y-86985552D01*
X135800001Y-86985552D01*
X135780492Y-86987473D01*
X135777171Y-86988848D01*
X135773588Y-86989103D01*
X135755279Y-86996109D01*
X135660042Y-87043728D01*
X135651645Y-87049013D01*
X135649205Y-87050024D01*
X135646459Y-87052277D01*
X135643451Y-87054171D01*
X135641718Y-87056168D01*
X135634052Y-87062461D01*
X135586433Y-87110079D01*
X135580138Y-87117749D01*
X135578144Y-87119479D01*
X135576250Y-87122486D01*
X135573997Y-87125233D01*
X135572986Y-87127672D01*
X135567701Y-87136069D01*
X135520082Y-87231307D01*
X135513076Y-87249615D01*
X135512821Y-87253198D01*
X135511446Y-87256519D01*
X135509525Y-87276028D01*
X135280953Y-87276028D01*
X135280953Y-87228409D01*
X135279032Y-87208900D01*
X135277656Y-87205579D01*
X135277402Y-87201996D01*
X135270396Y-87183687D01*
X135222777Y-87088450D01*
X135220722Y-87085186D01*
X135220210Y-87083648D01*
X135218548Y-87081732D01*
X135212334Y-87071859D01*
X135202858Y-87063641D01*
X135194645Y-87054171D01*
X135184773Y-87047957D01*
X135182857Y-87046295D01*
X135181318Y-87045781D01*
X135178055Y-87043728D01*
X135082817Y-86996109D01*
X135064509Y-86989103D01*
X135060925Y-86988848D01*
X135057605Y-86987473D01*
X135038096Y-86985552D01*
X134847620Y-86985552D01*
X134828111Y-86987473D01*
X134824790Y-86988848D01*
X134821207Y-86989103D01*
X134802898Y-86996109D01*
X134707661Y-87043728D01*
X134691070Y-87054171D01*
X134665506Y-87083648D01*
X134653167Y-87120664D01*
X134655933Y-87159584D01*
X134673382Y-87194483D01*
X134702859Y-87220047D01*
X134739875Y-87232386D01*
X134778795Y-87229620D01*
X134797103Y-87222614D01*
X134871227Y-87185552D01*
X135014489Y-87185552D01*
X135058798Y-87207707D01*
X135080953Y-87252016D01*
X135080953Y-87261843D01*
X135062108Y-87271266D01*
X134847620Y-87271266D01*
X134828111Y-87273187D01*
X134824790Y-87274562D01*
X134821207Y-87274817D01*
X134802898Y-87281823D01*
X134707661Y-87329442D01*
X134704397Y-87331496D01*
X134702859Y-87332009D01*
X134700943Y-87333670D01*
X134691070Y-87339885D01*
X134682852Y-87349360D01*
X134673382Y-87357574D01*
X134667168Y-87367445D01*
X134665506Y-87369362D01*
X134664992Y-87370900D01*
X134662939Y-87374164D01*
X134615320Y-87469402D01*
X134608314Y-87487710D01*
X134608059Y-87491293D01*
X134606684Y-87494614D01*
X134604763Y-87514123D01*
X134279208Y-87514123D01*
X134175765Y-87366347D01*
X134178055Y-87365471D01*
X134273293Y-87317852D01*
X134281689Y-87312566D01*
X134284129Y-87311556D01*
X134286875Y-87309302D01*
X134289883Y-87307409D01*
X134291612Y-87305414D01*
X134299283Y-87299120D01*
X134346901Y-87251501D01*
X134353193Y-87243834D01*
X134355191Y-87242102D01*
X134357084Y-87239093D01*
X134359338Y-87236348D01*
X134360348Y-87233907D01*
X134365634Y-87225511D01*
X134413253Y-87130274D01*
X134420259Y-87111965D01*
X134420513Y-87108381D01*
X134421889Y-87105061D01*
X134423810Y-87085552D01*
X134423810Y-86942695D01*
X134421889Y-86923186D01*
X134420513Y-86919865D01*
X134420259Y-86916282D01*
X134413253Y-86897973D01*
X134365634Y-86802736D01*
X134360348Y-86794339D01*
X134359338Y-86791899D01*
X134357084Y-86789153D01*
X134355191Y-86786145D01*
X134353193Y-86784412D01*
X134346901Y-86776746D01*
X134299283Y-86729127D01*
X134291612Y-86722832D01*
X134289883Y-86720838D01*
X134286875Y-86718944D01*
X134284129Y-86716691D01*
X134281689Y-86715680D01*
X134273293Y-86710395D01*
X134178055Y-86662776D01*
X134159747Y-86655770D01*
X134156163Y-86655515D01*
X134152843Y-86654140D01*
X134133334Y-86652219D01*
X133752382Y-86652219D01*
X133732873Y-86654140D01*
X133696825Y-86669072D01*
X133669235Y-86696662D01*
X133654303Y-86732710D01*
X133652382Y-86752219D01*
X127659984Y-86752219D01*
X127659984Y-86732710D01*
X127645052Y-86696662D01*
X127617462Y-86669072D01*
X127581414Y-86654140D01*
X127561905Y-86652219D01*
X126990477Y-86652219D01*
X126970968Y-86654140D01*
X126934920Y-86669072D01*
X126907330Y-86696662D01*
X126892398Y-86732710D01*
X125327478Y-86732710D01*
X125323440Y-86720596D01*
X125315449Y-86702696D01*
X125310764Y-86697294D01*
X125307571Y-86690908D01*
X125298102Y-86682695D01*
X125289884Y-86673220D01*
X125283492Y-86670023D01*
X125278095Y-86665343D01*
X125266201Y-86661378D01*
X125254985Y-86655770D01*
X125247857Y-86655263D01*
X125241079Y-86653004D01*
X125228574Y-86653893D01*
X125216065Y-86653004D01*
X125209283Y-86655264D01*
X125202159Y-86655771D01*
X125190950Y-86661374D01*
X125179049Y-86665342D01*
X125173648Y-86670025D01*
X125167260Y-86673220D01*
X125159044Y-86682691D01*
X125149573Y-86690907D01*
X125146378Y-86697296D01*
X125141695Y-86702696D01*
X125133704Y-86720597D01*
X124800371Y-87720596D01*
X124796024Y-87739712D01*
X124040936Y-87739712D01*
X124040936Y-87732710D01*
X124026004Y-87696662D01*
X123998414Y-87669072D01*
X123962366Y-87654140D01*
X123942857Y-87652219D01*
X123566667Y-87652219D01*
X123566667Y-86752219D01*
X123564746Y-86732710D01*
X123549814Y-86696662D01*
X123522224Y-86669072D01*
X123486176Y-86654140D01*
X123447158Y-86654140D01*
X123411110Y-86669072D01*
X123383520Y-86696662D01*
X123368588Y-86732710D01*
X123366667Y-86752219D01*
X123123940Y-86752219D01*
X123117094Y-86738526D01*
X123087618Y-86712961D01*
X123069717Y-86704970D01*
X122926861Y-86657351D01*
X122917189Y-86655151D01*
X122914747Y-86654140D01*
X122911208Y-86653791D01*
X122907745Y-86653004D01*
X122905111Y-86653191D01*
X122895238Y-86652219D01*
X122657143Y-86652219D01*
X122637634Y-86654140D01*
X122634313Y-86655515D01*
X122630730Y-86655770D01*
X122612421Y-86662776D01*
X122517184Y-86710395D01*
X122508787Y-86715680D01*
X122506347Y-86716691D01*
X122503601Y-86718944D01*
X122500593Y-86720838D01*
X122498860Y-86722835D01*
X122491194Y-86729128D01*
X122443575Y-86776746D01*
X122437280Y-86784416D01*
X122435286Y-86786146D01*
X122433392Y-86789153D01*
X122431139Y-86791900D01*
X122430128Y-86794339D01*
X122424843Y-86802736D01*
X122377224Y-86897974D01*
X122370218Y-86916282D01*
X122369963Y-86919865D01*
X122368588Y-86923186D01*
X122366667Y-86942695D01*
X121626090Y-86942695D01*
X121644091Y-86906692D01*
X121668759Y-86882023D01*
X121728369Y-86852219D01*
X121926630Y-86852219D01*
X122054091Y-86894706D01*
X122073206Y-86899053D01*
X122112126Y-86896287D01*
X122147025Y-86878837D01*
X122172590Y-86849361D01*
X122184929Y-86812345D01*
X122182162Y-86773425D01*
X122164713Y-86738526D01*
X122135237Y-86712961D01*
X122117336Y-86704970D01*
X121974480Y-86657351D01*
X121964808Y-86655151D01*
X121962366Y-86654140D01*
X121958827Y-86653791D01*
X121955364Y-86653004D01*
X121952730Y-86653191D01*
X121942857Y-86652219D01*
X121704762Y-86652219D01*
X121685253Y-86654140D01*
X121681932Y-86655515D01*
X121678349Y-86655770D01*
X121660040Y-86662776D01*
X121564803Y-86710395D01*
X121556406Y-86715680D01*
X121553966Y-86716691D01*
X121551220Y-86718944D01*
X121548212Y-86720838D01*
X121546479Y-86722835D01*
X121538813Y-86729128D01*
X121491194Y-86776746D01*
X121484899Y-86784416D01*
X121482905Y-86786146D01*
X121481011Y-86789153D01*
X121478758Y-86791900D01*
X121477747Y-86794339D01*
X121472462Y-86802736D01*
X121424843Y-86897974D01*
X121417837Y-86916282D01*
X121417582Y-86919865D01*
X121416207Y-86923186D01*
X121414286Y-86942695D01*
X121303175Y-86942695D01*
X121303175Y-86541108D01*
X142294904Y-86541108D01*
X142294904Y-87963330D01*
G37*
D11*
X180373996Y-87869380D02*
X180326377Y-87917000D01*
X180326377Y-87917000D02*
X180183520Y-87964619D01*
X180183520Y-87964619D02*
X180088282Y-87964619D01*
X180088282Y-87964619D02*
X179945425Y-87917000D01*
X179945425Y-87917000D02*
X179850187Y-87821761D01*
X179850187Y-87821761D02*
X179802568Y-87726523D01*
X179802568Y-87726523D02*
X179754949Y-87536047D01*
X179754949Y-87536047D02*
X179754949Y-87393190D01*
X179754949Y-87393190D02*
X179802568Y-87202714D01*
X179802568Y-87202714D02*
X179850187Y-87107476D01*
X179850187Y-87107476D02*
X179945425Y-87012238D01*
X179945425Y-87012238D02*
X180088282Y-86964619D01*
X180088282Y-86964619D02*
X180183520Y-86964619D01*
X180183520Y-86964619D02*
X180326377Y-87012238D01*
X180326377Y-87012238D02*
X180373996Y-87059857D01*
X180659711Y-86964619D02*
X181231139Y-86964619D01*
X180945425Y-87964619D02*
X180945425Y-86964619D01*
X182135901Y-87964619D02*
X181802568Y-87488428D01*
X181564473Y-87964619D02*
X181564473Y-86964619D01*
X181564473Y-86964619D02*
X181945425Y-86964619D01*
X181945425Y-86964619D02*
X182040663Y-87012238D01*
X182040663Y-87012238D02*
X182088282Y-87059857D01*
X182088282Y-87059857D02*
X182135901Y-87155095D01*
X182135901Y-87155095D02*
X182135901Y-87297952D01*
X182135901Y-87297952D02*
X182088282Y-87393190D01*
X182088282Y-87393190D02*
X182040663Y-87440809D01*
X182040663Y-87440809D02*
X181945425Y-87488428D01*
X181945425Y-87488428D02*
X181564473Y-87488428D01*
X183040663Y-87964619D02*
X182564473Y-87964619D01*
X182564473Y-87964619D02*
X182564473Y-86964619D01*
D10*
X174069819Y-94491792D02*
X173593628Y-94825125D01*
X174069819Y-95063220D02*
X173069819Y-95063220D01*
X173069819Y-95063220D02*
X173069819Y-94682268D01*
X173069819Y-94682268D02*
X173117438Y-94587030D01*
X173117438Y-94587030D02*
X173165057Y-94539411D01*
X173165057Y-94539411D02*
X173260295Y-94491792D01*
X173260295Y-94491792D02*
X173403152Y-94491792D01*
X173403152Y-94491792D02*
X173498390Y-94539411D01*
X173498390Y-94539411D02*
X173546009Y-94587030D01*
X173546009Y-94587030D02*
X173593628Y-94682268D01*
X173593628Y-94682268D02*
X173593628Y-95063220D01*
X173069819Y-94206077D02*
X173069819Y-93634649D01*
X174069819Y-93920363D02*
X173069819Y-93920363D01*
X174022200Y-93348934D02*
X174069819Y-93206077D01*
X174069819Y-93206077D02*
X174069819Y-92967982D01*
X174069819Y-92967982D02*
X174022200Y-92872744D01*
X174022200Y-92872744D02*
X173974580Y-92825125D01*
X173974580Y-92825125D02*
X173879342Y-92777506D01*
X173879342Y-92777506D02*
X173784104Y-92777506D01*
X173784104Y-92777506D02*
X173688866Y-92825125D01*
X173688866Y-92825125D02*
X173641247Y-92872744D01*
X173641247Y-92872744D02*
X173593628Y-92967982D01*
X173593628Y-92967982D02*
X173546009Y-93158458D01*
X173546009Y-93158458D02*
X173498390Y-93253696D01*
X173498390Y-93253696D02*
X173450771Y-93301315D01*
X173450771Y-93301315D02*
X173355533Y-93348934D01*
X173355533Y-93348934D02*
X173260295Y-93348934D01*
X173260295Y-93348934D02*
X173165057Y-93301315D01*
X173165057Y-93301315D02*
X173117438Y-93253696D01*
X173117438Y-93253696D02*
X173069819Y-93158458D01*
X173069819Y-93158458D02*
X173069819Y-92920363D01*
X173069819Y-92920363D02*
X173117438Y-92777506D01*
X180708207Y-89569819D02*
X180374874Y-89093628D01*
X180136779Y-89569819D02*
X180136779Y-88569819D01*
X180136779Y-88569819D02*
X180517731Y-88569819D01*
X180517731Y-88569819D02*
X180612969Y-88617438D01*
X180612969Y-88617438D02*
X180660588Y-88665057D01*
X180660588Y-88665057D02*
X180708207Y-88760295D01*
X180708207Y-88760295D02*
X180708207Y-88903152D01*
X180708207Y-88903152D02*
X180660588Y-88998390D01*
X180660588Y-88998390D02*
X180612969Y-89046009D01*
X180612969Y-89046009D02*
X180517731Y-89093628D01*
X180517731Y-89093628D02*
X180136779Y-89093628D01*
X180993922Y-88569819D02*
X181565350Y-88569819D01*
X181279636Y-89569819D02*
X181279636Y-88569819D01*
X181851065Y-89522200D02*
X181993922Y-89569819D01*
X181993922Y-89569819D02*
X182232017Y-89569819D01*
X182232017Y-89569819D02*
X182327255Y-89522200D01*
X182327255Y-89522200D02*
X182374874Y-89474580D01*
X182374874Y-89474580D02*
X182422493Y-89379342D01*
X182422493Y-89379342D02*
X182422493Y-89284104D01*
X182422493Y-89284104D02*
X182374874Y-89188866D01*
X182374874Y-89188866D02*
X182327255Y-89141247D01*
X182327255Y-89141247D02*
X182232017Y-89093628D01*
X182232017Y-89093628D02*
X182041541Y-89046009D01*
X182041541Y-89046009D02*
X181946303Y-88998390D01*
X181946303Y-88998390D02*
X181898684Y-88950771D01*
X181898684Y-88950771D02*
X181851065Y-88855533D01*
X181851065Y-88855533D02*
X181851065Y-88760295D01*
X181851065Y-88760295D02*
X181898684Y-88665057D01*
X181898684Y-88665057D02*
X181946303Y-88617438D01*
X181946303Y-88617438D02*
X182041541Y-88569819D01*
X182041541Y-88569819D02*
X182279636Y-88569819D01*
X182279636Y-88569819D02*
X182422493Y-88617438D01*
X134588095Y-113054819D02*
X134588095Y-113864342D01*
X134588095Y-113864342D02*
X134635714Y-113959580D01*
X134635714Y-113959580D02*
X134683333Y-114007200D01*
X134683333Y-114007200D02*
X134778571Y-114054819D01*
X134778571Y-114054819D02*
X134969047Y-114054819D01*
X134969047Y-114054819D02*
X135064285Y-114007200D01*
X135064285Y-114007200D02*
X135111904Y-113959580D01*
X135111904Y-113959580D02*
X135159523Y-113864342D01*
X135159523Y-113864342D02*
X135159523Y-113054819D01*
X135588095Y-113150057D02*
X135635714Y-113102438D01*
X135635714Y-113102438D02*
X135730952Y-113054819D01*
X135730952Y-113054819D02*
X135969047Y-113054819D01*
X135969047Y-113054819D02*
X136064285Y-113102438D01*
X136064285Y-113102438D02*
X136111904Y-113150057D01*
X136111904Y-113150057D02*
X136159523Y-113245295D01*
X136159523Y-113245295D02*
X136159523Y-113340533D01*
X136159523Y-113340533D02*
X136111904Y-113483390D01*
X136111904Y-113483390D02*
X135540476Y-114054819D01*
X135540476Y-114054819D02*
X136159523Y-114054819D01*
X153988095Y-96804819D02*
X153988095Y-97614342D01*
X153988095Y-97614342D02*
X154035714Y-97709580D01*
X154035714Y-97709580D02*
X154083333Y-97757200D01*
X154083333Y-97757200D02*
X154178571Y-97804819D01*
X154178571Y-97804819D02*
X154369047Y-97804819D01*
X154369047Y-97804819D02*
X154464285Y-97757200D01*
X154464285Y-97757200D02*
X154511904Y-97709580D01*
X154511904Y-97709580D02*
X154559523Y-97614342D01*
X154559523Y-97614342D02*
X154559523Y-96804819D01*
X155559523Y-97804819D02*
X154988095Y-97804819D01*
X155273809Y-97804819D02*
X155273809Y-96804819D01*
X155273809Y-96804819D02*
X155178571Y-96947676D01*
X155178571Y-96947676D02*
X155083333Y-97042914D01*
X155083333Y-97042914D02*
X154988095Y-97090533D01*
X171354819Y-90633333D02*
X172069104Y-90633333D01*
X172069104Y-90633333D02*
X172211961Y-90680952D01*
X172211961Y-90680952D02*
X172307200Y-90776190D01*
X172307200Y-90776190D02*
X172354819Y-90919047D01*
X172354819Y-90919047D02*
X172354819Y-91014285D01*
X172354819Y-90157142D02*
X171354819Y-90157142D01*
X171354819Y-90157142D02*
X171354819Y-89776190D01*
X171354819Y-89776190D02*
X171402438Y-89680952D01*
X171402438Y-89680952D02*
X171450057Y-89633333D01*
X171450057Y-89633333D02*
X171545295Y-89585714D01*
X171545295Y-89585714D02*
X171688152Y-89585714D01*
X171688152Y-89585714D02*
X171783390Y-89633333D01*
X171783390Y-89633333D02*
X171831009Y-89680952D01*
X171831009Y-89680952D02*
X171878628Y-89776190D01*
X171878628Y-89776190D02*
X171878628Y-90157142D01*
X171354819Y-89252380D02*
X171354819Y-88633333D01*
X171354819Y-88633333D02*
X171735771Y-88966666D01*
X171735771Y-88966666D02*
X171735771Y-88823809D01*
X171735771Y-88823809D02*
X171783390Y-88728571D01*
X171783390Y-88728571D02*
X171831009Y-88680952D01*
X171831009Y-88680952D02*
X171926247Y-88633333D01*
X171926247Y-88633333D02*
X172164342Y-88633333D01*
X172164342Y-88633333D02*
X172259580Y-88680952D01*
X172259580Y-88680952D02*
X172307200Y-88728571D01*
X172307200Y-88728571D02*
X172354819Y-88823809D01*
X172354819Y-88823809D02*
X172354819Y-89109523D01*
X172354819Y-89109523D02*
X172307200Y-89204761D01*
X172307200Y-89204761D02*
X172259580Y-89252380D01*
X153059580Y-104766666D02*
X153107200Y-104814285D01*
X153107200Y-104814285D02*
X153154819Y-104957142D01*
X153154819Y-104957142D02*
X153154819Y-105052380D01*
X153154819Y-105052380D02*
X153107200Y-105195237D01*
X153107200Y-105195237D02*
X153011961Y-105290475D01*
X153011961Y-105290475D02*
X152916723Y-105338094D01*
X152916723Y-105338094D02*
X152726247Y-105385713D01*
X152726247Y-105385713D02*
X152583390Y-105385713D01*
X152583390Y-105385713D02*
X152392914Y-105338094D01*
X152392914Y-105338094D02*
X152297676Y-105290475D01*
X152297676Y-105290475D02*
X152202438Y-105195237D01*
X152202438Y-105195237D02*
X152154819Y-105052380D01*
X152154819Y-105052380D02*
X152154819Y-104957142D01*
X152154819Y-104957142D02*
X152202438Y-104814285D01*
X152202438Y-104814285D02*
X152250057Y-104766666D01*
X153154819Y-103814285D02*
X153154819Y-104385713D01*
X153154819Y-104099999D02*
X152154819Y-104099999D01*
X152154819Y-104099999D02*
X152297676Y-104195237D01*
X152297676Y-104195237D02*
X152392914Y-104290475D01*
X152392914Y-104290475D02*
X152440533Y-104385713D01*
X150233333Y-100154819D02*
X149900000Y-99678628D01*
X149661905Y-100154819D02*
X149661905Y-99154819D01*
X149661905Y-99154819D02*
X150042857Y-99154819D01*
X150042857Y-99154819D02*
X150138095Y-99202438D01*
X150138095Y-99202438D02*
X150185714Y-99250057D01*
X150185714Y-99250057D02*
X150233333Y-99345295D01*
X150233333Y-99345295D02*
X150233333Y-99488152D01*
X150233333Y-99488152D02*
X150185714Y-99583390D01*
X150185714Y-99583390D02*
X150138095Y-99631009D01*
X150138095Y-99631009D02*
X150042857Y-99678628D01*
X150042857Y-99678628D02*
X149661905Y-99678628D01*
X151090476Y-99154819D02*
X150900000Y-99154819D01*
X150900000Y-99154819D02*
X150804762Y-99202438D01*
X150804762Y-99202438D02*
X150757143Y-99250057D01*
X150757143Y-99250057D02*
X150661905Y-99392914D01*
X150661905Y-99392914D02*
X150614286Y-99583390D01*
X150614286Y-99583390D02*
X150614286Y-99964342D01*
X150614286Y-99964342D02*
X150661905Y-100059580D01*
X150661905Y-100059580D02*
X150709524Y-100107200D01*
X150709524Y-100107200D02*
X150804762Y-100154819D01*
X150804762Y-100154819D02*
X150995238Y-100154819D01*
X150995238Y-100154819D02*
X151090476Y-100107200D01*
X151090476Y-100107200D02*
X151138095Y-100059580D01*
X151138095Y-100059580D02*
X151185714Y-99964342D01*
X151185714Y-99964342D02*
X151185714Y-99726247D01*
X151185714Y-99726247D02*
X151138095Y-99631009D01*
X151138095Y-99631009D02*
X151090476Y-99583390D01*
X151090476Y-99583390D02*
X150995238Y-99535771D01*
X150995238Y-99535771D02*
X150804762Y-99535771D01*
X150804762Y-99535771D02*
X150709524Y-99583390D01*
X150709524Y-99583390D02*
X150661905Y-99631009D01*
X150661905Y-99631009D02*
X150614286Y-99726247D01*
X154609580Y-109642857D02*
X154657200Y-109690476D01*
X154657200Y-109690476D02*
X154704819Y-109833333D01*
X154704819Y-109833333D02*
X154704819Y-109928571D01*
X154704819Y-109928571D02*
X154657200Y-110071428D01*
X154657200Y-110071428D02*
X154561961Y-110166666D01*
X154561961Y-110166666D02*
X154466723Y-110214285D01*
X154466723Y-110214285D02*
X154276247Y-110261904D01*
X154276247Y-110261904D02*
X154133390Y-110261904D01*
X154133390Y-110261904D02*
X153942914Y-110214285D01*
X153942914Y-110214285D02*
X153847676Y-110166666D01*
X153847676Y-110166666D02*
X153752438Y-110071428D01*
X153752438Y-110071428D02*
X153704819Y-109928571D01*
X153704819Y-109928571D02*
X153704819Y-109833333D01*
X153704819Y-109833333D02*
X153752438Y-109690476D01*
X153752438Y-109690476D02*
X153800057Y-109642857D01*
X154704819Y-108690476D02*
X154704819Y-109261904D01*
X154704819Y-108976190D02*
X153704819Y-108976190D01*
X153704819Y-108976190D02*
X153847676Y-109071428D01*
X153847676Y-109071428D02*
X153942914Y-109166666D01*
X153942914Y-109166666D02*
X153990533Y-109261904D01*
X153704819Y-108071428D02*
X153704819Y-107976190D01*
X153704819Y-107976190D02*
X153752438Y-107880952D01*
X153752438Y-107880952D02*
X153800057Y-107833333D01*
X153800057Y-107833333D02*
X153895295Y-107785714D01*
X153895295Y-107785714D02*
X154085771Y-107738095D01*
X154085771Y-107738095D02*
X154323866Y-107738095D01*
X154323866Y-107738095D02*
X154514342Y-107785714D01*
X154514342Y-107785714D02*
X154609580Y-107833333D01*
X154609580Y-107833333D02*
X154657200Y-107880952D01*
X154657200Y-107880952D02*
X154704819Y-107976190D01*
X154704819Y-107976190D02*
X154704819Y-108071428D01*
X154704819Y-108071428D02*
X154657200Y-108166666D01*
X154657200Y-108166666D02*
X154609580Y-108214285D01*
X154609580Y-108214285D02*
X154514342Y-108261904D01*
X154514342Y-108261904D02*
X154323866Y-108309523D01*
X154323866Y-108309523D02*
X154085771Y-108309523D01*
X154085771Y-108309523D02*
X153895295Y-108261904D01*
X153895295Y-108261904D02*
X153800057Y-108214285D01*
X153800057Y-108214285D02*
X153752438Y-108166666D01*
X153752438Y-108166666D02*
X153704819Y-108071428D01*
X159383333Y-103154819D02*
X159050000Y-102678628D01*
X158811905Y-103154819D02*
X158811905Y-102154819D01*
X158811905Y-102154819D02*
X159192857Y-102154819D01*
X159192857Y-102154819D02*
X159288095Y-102202438D01*
X159288095Y-102202438D02*
X159335714Y-102250057D01*
X159335714Y-102250057D02*
X159383333Y-102345295D01*
X159383333Y-102345295D02*
X159383333Y-102488152D01*
X159383333Y-102488152D02*
X159335714Y-102583390D01*
X159335714Y-102583390D02*
X159288095Y-102631009D01*
X159288095Y-102631009D02*
X159192857Y-102678628D01*
X159192857Y-102678628D02*
X158811905Y-102678628D01*
X159954762Y-102583390D02*
X159859524Y-102535771D01*
X159859524Y-102535771D02*
X159811905Y-102488152D01*
X159811905Y-102488152D02*
X159764286Y-102392914D01*
X159764286Y-102392914D02*
X159764286Y-102345295D01*
X159764286Y-102345295D02*
X159811905Y-102250057D01*
X159811905Y-102250057D02*
X159859524Y-102202438D01*
X159859524Y-102202438D02*
X159954762Y-102154819D01*
X159954762Y-102154819D02*
X160145238Y-102154819D01*
X160145238Y-102154819D02*
X160240476Y-102202438D01*
X160240476Y-102202438D02*
X160288095Y-102250057D01*
X160288095Y-102250057D02*
X160335714Y-102345295D01*
X160335714Y-102345295D02*
X160335714Y-102392914D01*
X160335714Y-102392914D02*
X160288095Y-102488152D01*
X160288095Y-102488152D02*
X160240476Y-102535771D01*
X160240476Y-102535771D02*
X160145238Y-102583390D01*
X160145238Y-102583390D02*
X159954762Y-102583390D01*
X159954762Y-102583390D02*
X159859524Y-102631009D01*
X159859524Y-102631009D02*
X159811905Y-102678628D01*
X159811905Y-102678628D02*
X159764286Y-102773866D01*
X159764286Y-102773866D02*
X159764286Y-102964342D01*
X159764286Y-102964342D02*
X159811905Y-103059580D01*
X159811905Y-103059580D02*
X159859524Y-103107200D01*
X159859524Y-103107200D02*
X159954762Y-103154819D01*
X159954762Y-103154819D02*
X160145238Y-103154819D01*
X160145238Y-103154819D02*
X160240476Y-103107200D01*
X160240476Y-103107200D02*
X160288095Y-103059580D01*
X160288095Y-103059580D02*
X160335714Y-102964342D01*
X160335714Y-102964342D02*
X160335714Y-102773866D01*
X160335714Y-102773866D02*
X160288095Y-102678628D01*
X160288095Y-102678628D02*
X160240476Y-102631009D01*
X160240476Y-102631009D02*
X160145238Y-102583390D01*
X163566666Y-113154819D02*
X163566666Y-113869104D01*
X163566666Y-113869104D02*
X163519047Y-114011961D01*
X163519047Y-114011961D02*
X163423809Y-114107200D01*
X163423809Y-114107200D02*
X163280952Y-114154819D01*
X163280952Y-114154819D02*
X163185714Y-114154819D01*
X164042857Y-114154819D02*
X164042857Y-113154819D01*
X164042857Y-113154819D02*
X164423809Y-113154819D01*
X164423809Y-113154819D02*
X164519047Y-113202438D01*
X164519047Y-113202438D02*
X164566666Y-113250057D01*
X164566666Y-113250057D02*
X164614285Y-113345295D01*
X164614285Y-113345295D02*
X164614285Y-113488152D01*
X164614285Y-113488152D02*
X164566666Y-113583390D01*
X164566666Y-113583390D02*
X164519047Y-113631009D01*
X164519047Y-113631009D02*
X164423809Y-113678628D01*
X164423809Y-113678628D02*
X164042857Y-113678628D01*
X164995238Y-113250057D02*
X165042857Y-113202438D01*
X165042857Y-113202438D02*
X165138095Y-113154819D01*
X165138095Y-113154819D02*
X165376190Y-113154819D01*
X165376190Y-113154819D02*
X165471428Y-113202438D01*
X165471428Y-113202438D02*
X165519047Y-113250057D01*
X165519047Y-113250057D02*
X165566666Y-113345295D01*
X165566666Y-113345295D02*
X165566666Y-113440533D01*
X165566666Y-113440533D02*
X165519047Y-113583390D01*
X165519047Y-113583390D02*
X164947619Y-114154819D01*
X164947619Y-114154819D02*
X165566666Y-114154819D01*
X156700057Y-108295238D02*
X156652438Y-108390476D01*
X156652438Y-108390476D02*
X156557200Y-108485714D01*
X156557200Y-108485714D02*
X156414342Y-108628571D01*
X156414342Y-108628571D02*
X156366723Y-108723809D01*
X156366723Y-108723809D02*
X156366723Y-108819047D01*
X156604819Y-108771428D02*
X156557200Y-108866666D01*
X156557200Y-108866666D02*
X156461961Y-108961904D01*
X156461961Y-108961904D02*
X156271485Y-109009523D01*
X156271485Y-109009523D02*
X155938152Y-109009523D01*
X155938152Y-109009523D02*
X155747676Y-108961904D01*
X155747676Y-108961904D02*
X155652438Y-108866666D01*
X155652438Y-108866666D02*
X155604819Y-108771428D01*
X155604819Y-108771428D02*
X155604819Y-108580952D01*
X155604819Y-108580952D02*
X155652438Y-108485714D01*
X155652438Y-108485714D02*
X155747676Y-108390476D01*
X155747676Y-108390476D02*
X155938152Y-108342857D01*
X155938152Y-108342857D02*
X156271485Y-108342857D01*
X156271485Y-108342857D02*
X156461961Y-108390476D01*
X156461961Y-108390476D02*
X156557200Y-108485714D01*
X156557200Y-108485714D02*
X156604819Y-108580952D01*
X156604819Y-108580952D02*
X156604819Y-108771428D01*
X156604819Y-107390476D02*
X156604819Y-107961904D01*
X156604819Y-107676190D02*
X155604819Y-107676190D01*
X155604819Y-107676190D02*
X155747676Y-107771428D01*
X155747676Y-107771428D02*
X155842914Y-107866666D01*
X155842914Y-107866666D02*
X155890533Y-107961904D01*
X165466667Y-103657200D02*
X165609524Y-103704819D01*
X165609524Y-103704819D02*
X165847619Y-103704819D01*
X165847619Y-103704819D02*
X165942857Y-103657200D01*
X165942857Y-103657200D02*
X165990476Y-103609580D01*
X165990476Y-103609580D02*
X166038095Y-103514342D01*
X166038095Y-103514342D02*
X166038095Y-103419104D01*
X166038095Y-103419104D02*
X165990476Y-103323866D01*
X165990476Y-103323866D02*
X165942857Y-103276247D01*
X165942857Y-103276247D02*
X165847619Y-103228628D01*
X165847619Y-103228628D02*
X165657143Y-103181009D01*
X165657143Y-103181009D02*
X165561905Y-103133390D01*
X165561905Y-103133390D02*
X165514286Y-103085771D01*
X165514286Y-103085771D02*
X165466667Y-102990533D01*
X165466667Y-102990533D02*
X165466667Y-102895295D01*
X165466667Y-102895295D02*
X165514286Y-102800057D01*
X165514286Y-102800057D02*
X165561905Y-102752438D01*
X165561905Y-102752438D02*
X165657143Y-102704819D01*
X165657143Y-102704819D02*
X165895238Y-102704819D01*
X165895238Y-102704819D02*
X166038095Y-102752438D01*
X166371429Y-102704819D02*
X166609524Y-103704819D01*
X166609524Y-103704819D02*
X166800000Y-102990533D01*
X166800000Y-102990533D02*
X166990476Y-103704819D01*
X166990476Y-103704819D02*
X167228572Y-102704819D01*
X168133333Y-103704819D02*
X167561905Y-103704819D01*
X167847619Y-103704819D02*
X167847619Y-102704819D01*
X167847619Y-102704819D02*
X167752381Y-102847676D01*
X167752381Y-102847676D02*
X167657143Y-102942914D01*
X167657143Y-102942914D02*
X167561905Y-102990533D01*
X176854819Y-106638094D02*
X175854819Y-106638094D01*
X175854819Y-106638094D02*
X175854819Y-106399999D01*
X175854819Y-106399999D02*
X175902438Y-106257142D01*
X175902438Y-106257142D02*
X175997676Y-106161904D01*
X175997676Y-106161904D02*
X176092914Y-106114285D01*
X176092914Y-106114285D02*
X176283390Y-106066666D01*
X176283390Y-106066666D02*
X176426247Y-106066666D01*
X176426247Y-106066666D02*
X176616723Y-106114285D01*
X176616723Y-106114285D02*
X176711961Y-106161904D01*
X176711961Y-106161904D02*
X176807200Y-106257142D01*
X176807200Y-106257142D02*
X176854819Y-106399999D01*
X176854819Y-106399999D02*
X176854819Y-106638094D01*
X176854819Y-105114285D02*
X176854819Y-105685713D01*
X176854819Y-105399999D02*
X175854819Y-105399999D01*
X175854819Y-105399999D02*
X175997676Y-105495237D01*
X175997676Y-105495237D02*
X176092914Y-105590475D01*
X176092914Y-105590475D02*
X176140533Y-105685713D01*
X174337704Y-109128571D02*
X174337704Y-108671428D01*
X174337704Y-108900000D02*
X175137704Y-108900000D01*
X175137704Y-108900000D02*
X175023419Y-108823809D01*
X175023419Y-108823809D02*
X174947228Y-108747619D01*
X174947228Y-108747619D02*
X174909133Y-108671428D01*
X152804819Y-95961904D02*
X153614342Y-95961904D01*
X153614342Y-95961904D02*
X153709580Y-95914285D01*
X153709580Y-95914285D02*
X153757200Y-95866666D01*
X153757200Y-95866666D02*
X153804819Y-95771428D01*
X153804819Y-95771428D02*
X153804819Y-95580952D01*
X153804819Y-95580952D02*
X153757200Y-95485714D01*
X153757200Y-95485714D02*
X153709580Y-95438095D01*
X153709580Y-95438095D02*
X153614342Y-95390476D01*
X153614342Y-95390476D02*
X152804819Y-95390476D01*
X152804819Y-95009523D02*
X152804819Y-94390476D01*
X152804819Y-94390476D02*
X153185771Y-94723809D01*
X153185771Y-94723809D02*
X153185771Y-94580952D01*
X153185771Y-94580952D02*
X153233390Y-94485714D01*
X153233390Y-94485714D02*
X153281009Y-94438095D01*
X153281009Y-94438095D02*
X153376247Y-94390476D01*
X153376247Y-94390476D02*
X153614342Y-94390476D01*
X153614342Y-94390476D02*
X153709580Y-94438095D01*
X153709580Y-94438095D02*
X153757200Y-94485714D01*
X153757200Y-94485714D02*
X153804819Y-94580952D01*
X153804819Y-94580952D02*
X153804819Y-94866666D01*
X153804819Y-94866666D02*
X153757200Y-94961904D01*
X153757200Y-94961904D02*
X153709580Y-95009523D01*
X163354819Y-103166666D02*
X162878628Y-103499999D01*
X163354819Y-103738094D02*
X162354819Y-103738094D01*
X162354819Y-103738094D02*
X162354819Y-103357142D01*
X162354819Y-103357142D02*
X162402438Y-103261904D01*
X162402438Y-103261904D02*
X162450057Y-103214285D01*
X162450057Y-103214285D02*
X162545295Y-103166666D01*
X162545295Y-103166666D02*
X162688152Y-103166666D01*
X162688152Y-103166666D02*
X162783390Y-103214285D01*
X162783390Y-103214285D02*
X162831009Y-103261904D01*
X162831009Y-103261904D02*
X162878628Y-103357142D01*
X162878628Y-103357142D02*
X162878628Y-103738094D01*
X162688152Y-102309523D02*
X163354819Y-102309523D01*
X162307200Y-102547618D02*
X163021485Y-102785713D01*
X163021485Y-102785713D02*
X163021485Y-102166666D01*
X146033333Y-101509580D02*
X145985714Y-101557200D01*
X145985714Y-101557200D02*
X145842857Y-101604819D01*
X145842857Y-101604819D02*
X145747619Y-101604819D01*
X145747619Y-101604819D02*
X145604762Y-101557200D01*
X145604762Y-101557200D02*
X145509524Y-101461961D01*
X145509524Y-101461961D02*
X145461905Y-101366723D01*
X145461905Y-101366723D02*
X145414286Y-101176247D01*
X145414286Y-101176247D02*
X145414286Y-101033390D01*
X145414286Y-101033390D02*
X145461905Y-100842914D01*
X145461905Y-100842914D02*
X145509524Y-100747676D01*
X145509524Y-100747676D02*
X145604762Y-100652438D01*
X145604762Y-100652438D02*
X145747619Y-100604819D01*
X145747619Y-100604819D02*
X145842857Y-100604819D01*
X145842857Y-100604819D02*
X145985714Y-100652438D01*
X145985714Y-100652438D02*
X146033333Y-100700057D01*
X146604762Y-101033390D02*
X146509524Y-100985771D01*
X146509524Y-100985771D02*
X146461905Y-100938152D01*
X146461905Y-100938152D02*
X146414286Y-100842914D01*
X146414286Y-100842914D02*
X146414286Y-100795295D01*
X146414286Y-100795295D02*
X146461905Y-100700057D01*
X146461905Y-100700057D02*
X146509524Y-100652438D01*
X146509524Y-100652438D02*
X146604762Y-100604819D01*
X146604762Y-100604819D02*
X146795238Y-100604819D01*
X146795238Y-100604819D02*
X146890476Y-100652438D01*
X146890476Y-100652438D02*
X146938095Y-100700057D01*
X146938095Y-100700057D02*
X146985714Y-100795295D01*
X146985714Y-100795295D02*
X146985714Y-100842914D01*
X146985714Y-100842914D02*
X146938095Y-100938152D01*
X146938095Y-100938152D02*
X146890476Y-100985771D01*
X146890476Y-100985771D02*
X146795238Y-101033390D01*
X146795238Y-101033390D02*
X146604762Y-101033390D01*
X146604762Y-101033390D02*
X146509524Y-101081009D01*
X146509524Y-101081009D02*
X146461905Y-101128628D01*
X146461905Y-101128628D02*
X146414286Y-101223866D01*
X146414286Y-101223866D02*
X146414286Y-101414342D01*
X146414286Y-101414342D02*
X146461905Y-101509580D01*
X146461905Y-101509580D02*
X146509524Y-101557200D01*
X146509524Y-101557200D02*
X146604762Y-101604819D01*
X146604762Y-101604819D02*
X146795238Y-101604819D01*
X146795238Y-101604819D02*
X146890476Y-101557200D01*
X146890476Y-101557200D02*
X146938095Y-101509580D01*
X146938095Y-101509580D02*
X146985714Y-101414342D01*
X146985714Y-101414342D02*
X146985714Y-101223866D01*
X146985714Y-101223866D02*
X146938095Y-101128628D01*
X146938095Y-101128628D02*
X146890476Y-101081009D01*
X146890476Y-101081009D02*
X146795238Y-101033390D01*
X146159580Y-86116666D02*
X146207200Y-86164285D01*
X146207200Y-86164285D02*
X146254819Y-86307142D01*
X146254819Y-86307142D02*
X146254819Y-86402380D01*
X146254819Y-86402380D02*
X146207200Y-86545237D01*
X146207200Y-86545237D02*
X146111961Y-86640475D01*
X146111961Y-86640475D02*
X146016723Y-86688094D01*
X146016723Y-86688094D02*
X145826247Y-86735713D01*
X145826247Y-86735713D02*
X145683390Y-86735713D01*
X145683390Y-86735713D02*
X145492914Y-86688094D01*
X145492914Y-86688094D02*
X145397676Y-86640475D01*
X145397676Y-86640475D02*
X145302438Y-86545237D01*
X145302438Y-86545237D02*
X145254819Y-86402380D01*
X145254819Y-86402380D02*
X145254819Y-86307142D01*
X145254819Y-86307142D02*
X145302438Y-86164285D01*
X145302438Y-86164285D02*
X145350057Y-86116666D01*
X145254819Y-85211904D02*
X145254819Y-85688094D01*
X145254819Y-85688094D02*
X145731009Y-85735713D01*
X145731009Y-85735713D02*
X145683390Y-85688094D01*
X145683390Y-85688094D02*
X145635771Y-85592856D01*
X145635771Y-85592856D02*
X145635771Y-85354761D01*
X145635771Y-85354761D02*
X145683390Y-85259523D01*
X145683390Y-85259523D02*
X145731009Y-85211904D01*
X145731009Y-85211904D02*
X145826247Y-85164285D01*
X145826247Y-85164285D02*
X146064342Y-85164285D01*
X146064342Y-85164285D02*
X146159580Y-85211904D01*
X146159580Y-85211904D02*
X146207200Y-85259523D01*
X146207200Y-85259523D02*
X146254819Y-85354761D01*
X146254819Y-85354761D02*
X146254819Y-85592856D01*
X146254819Y-85592856D02*
X146207200Y-85688094D01*
X146207200Y-85688094D02*
X146159580Y-85735713D01*
X150754819Y-86166666D02*
X150278628Y-86499999D01*
X150754819Y-86738094D02*
X149754819Y-86738094D01*
X149754819Y-86738094D02*
X149754819Y-86357142D01*
X149754819Y-86357142D02*
X149802438Y-86261904D01*
X149802438Y-86261904D02*
X149850057Y-86214285D01*
X149850057Y-86214285D02*
X149945295Y-86166666D01*
X149945295Y-86166666D02*
X150088152Y-86166666D01*
X150088152Y-86166666D02*
X150183390Y-86214285D01*
X150183390Y-86214285D02*
X150231009Y-86261904D01*
X150231009Y-86261904D02*
X150278628Y-86357142D01*
X150278628Y-86357142D02*
X150278628Y-86738094D01*
X150754819Y-85690475D02*
X150754819Y-85499999D01*
X150754819Y-85499999D02*
X150707200Y-85404761D01*
X150707200Y-85404761D02*
X150659580Y-85357142D01*
X150659580Y-85357142D02*
X150516723Y-85261904D01*
X150516723Y-85261904D02*
X150326247Y-85214285D01*
X150326247Y-85214285D02*
X149945295Y-85214285D01*
X149945295Y-85214285D02*
X149850057Y-85261904D01*
X149850057Y-85261904D02*
X149802438Y-85309523D01*
X149802438Y-85309523D02*
X149754819Y-85404761D01*
X149754819Y-85404761D02*
X149754819Y-85595237D01*
X149754819Y-85595237D02*
X149802438Y-85690475D01*
X149802438Y-85690475D02*
X149850057Y-85738094D01*
X149850057Y-85738094D02*
X149945295Y-85785713D01*
X149945295Y-85785713D02*
X150183390Y-85785713D01*
X150183390Y-85785713D02*
X150278628Y-85738094D01*
X150278628Y-85738094D02*
X150326247Y-85690475D01*
X150326247Y-85690475D02*
X150373866Y-85595237D01*
X150373866Y-85595237D02*
X150373866Y-85404761D01*
X150373866Y-85404761D02*
X150326247Y-85309523D01*
X150326247Y-85309523D02*
X150278628Y-85261904D01*
X150278628Y-85261904D02*
X150183390Y-85214285D01*
X122738095Y-95254819D02*
X122738095Y-94254819D01*
X122738095Y-94731009D02*
X123309523Y-94731009D01*
X123309523Y-95254819D02*
X123309523Y-94254819D01*
X124309523Y-95254819D02*
X123738095Y-95254819D01*
X124023809Y-95254819D02*
X124023809Y-94254819D01*
X124023809Y-94254819D02*
X123928571Y-94397676D01*
X123928571Y-94397676D02*
X123833333Y-94492914D01*
X123833333Y-94492914D02*
X123738095Y-94540533D01*
X175054819Y-90633333D02*
X175769104Y-90633333D01*
X175769104Y-90633333D02*
X175911961Y-90680952D01*
X175911961Y-90680952D02*
X176007200Y-90776190D01*
X176007200Y-90776190D02*
X176054819Y-90919047D01*
X176054819Y-90919047D02*
X176054819Y-91014285D01*
X176054819Y-90157142D02*
X175054819Y-90157142D01*
X175054819Y-90157142D02*
X175054819Y-89776190D01*
X175054819Y-89776190D02*
X175102438Y-89680952D01*
X175102438Y-89680952D02*
X175150057Y-89633333D01*
X175150057Y-89633333D02*
X175245295Y-89585714D01*
X175245295Y-89585714D02*
X175388152Y-89585714D01*
X175388152Y-89585714D02*
X175483390Y-89633333D01*
X175483390Y-89633333D02*
X175531009Y-89680952D01*
X175531009Y-89680952D02*
X175578628Y-89776190D01*
X175578628Y-89776190D02*
X175578628Y-90157142D01*
X175388152Y-88728571D02*
X176054819Y-88728571D01*
X175007200Y-88966666D02*
X175721485Y-89204761D01*
X175721485Y-89204761D02*
X175721485Y-88585714D01*
X160859580Y-110366666D02*
X160907200Y-110414285D01*
X160907200Y-110414285D02*
X160954819Y-110557142D01*
X160954819Y-110557142D02*
X160954819Y-110652380D01*
X160954819Y-110652380D02*
X160907200Y-110795237D01*
X160907200Y-110795237D02*
X160811961Y-110890475D01*
X160811961Y-110890475D02*
X160716723Y-110938094D01*
X160716723Y-110938094D02*
X160526247Y-110985713D01*
X160526247Y-110985713D02*
X160383390Y-110985713D01*
X160383390Y-110985713D02*
X160192914Y-110938094D01*
X160192914Y-110938094D02*
X160097676Y-110890475D01*
X160097676Y-110890475D02*
X160002438Y-110795237D01*
X160002438Y-110795237D02*
X159954819Y-110652380D01*
X159954819Y-110652380D02*
X159954819Y-110557142D01*
X159954819Y-110557142D02*
X160002438Y-110414285D01*
X160002438Y-110414285D02*
X160050057Y-110366666D01*
X160954819Y-109890475D02*
X160954819Y-109699999D01*
X160954819Y-109699999D02*
X160907200Y-109604761D01*
X160907200Y-109604761D02*
X160859580Y-109557142D01*
X160859580Y-109557142D02*
X160716723Y-109461904D01*
X160716723Y-109461904D02*
X160526247Y-109414285D01*
X160526247Y-109414285D02*
X160145295Y-109414285D01*
X160145295Y-109414285D02*
X160050057Y-109461904D01*
X160050057Y-109461904D02*
X160002438Y-109509523D01*
X160002438Y-109509523D02*
X159954819Y-109604761D01*
X159954819Y-109604761D02*
X159954819Y-109795237D01*
X159954819Y-109795237D02*
X160002438Y-109890475D01*
X160002438Y-109890475D02*
X160050057Y-109938094D01*
X160050057Y-109938094D02*
X160145295Y-109985713D01*
X160145295Y-109985713D02*
X160383390Y-109985713D01*
X160383390Y-109985713D02*
X160478628Y-109938094D01*
X160478628Y-109938094D02*
X160526247Y-109890475D01*
X160526247Y-109890475D02*
X160573866Y-109795237D01*
X160573866Y-109795237D02*
X160573866Y-109604761D01*
X160573866Y-109604761D02*
X160526247Y-109509523D01*
X160526247Y-109509523D02*
X160478628Y-109461904D01*
X160478628Y-109461904D02*
X160383390Y-109414285D01*
X175854819Y-102366666D02*
X175378628Y-102699999D01*
X175854819Y-102938094D02*
X174854819Y-102938094D01*
X174854819Y-102938094D02*
X174854819Y-102557142D01*
X174854819Y-102557142D02*
X174902438Y-102461904D01*
X174902438Y-102461904D02*
X174950057Y-102414285D01*
X174950057Y-102414285D02*
X175045295Y-102366666D01*
X175045295Y-102366666D02*
X175188152Y-102366666D01*
X175188152Y-102366666D02*
X175283390Y-102414285D01*
X175283390Y-102414285D02*
X175331009Y-102461904D01*
X175331009Y-102461904D02*
X175378628Y-102557142D01*
X175378628Y-102557142D02*
X175378628Y-102938094D01*
X175854819Y-101414285D02*
X175854819Y-101985713D01*
X175854819Y-101699999D02*
X174854819Y-101699999D01*
X174854819Y-101699999D02*
X174997676Y-101795237D01*
X174997676Y-101795237D02*
X175092914Y-101890475D01*
X175092914Y-101890475D02*
X175140533Y-101985713D01*
X151609580Y-109666666D02*
X151657200Y-109714285D01*
X151657200Y-109714285D02*
X151704819Y-109857142D01*
X151704819Y-109857142D02*
X151704819Y-109952380D01*
X151704819Y-109952380D02*
X151657200Y-110095237D01*
X151657200Y-110095237D02*
X151561961Y-110190475D01*
X151561961Y-110190475D02*
X151466723Y-110238094D01*
X151466723Y-110238094D02*
X151276247Y-110285713D01*
X151276247Y-110285713D02*
X151133390Y-110285713D01*
X151133390Y-110285713D02*
X150942914Y-110238094D01*
X150942914Y-110238094D02*
X150847676Y-110190475D01*
X150847676Y-110190475D02*
X150752438Y-110095237D01*
X150752438Y-110095237D02*
X150704819Y-109952380D01*
X150704819Y-109952380D02*
X150704819Y-109857142D01*
X150704819Y-109857142D02*
X150752438Y-109714285D01*
X150752438Y-109714285D02*
X150800057Y-109666666D01*
X150704819Y-109333332D02*
X150704819Y-108714285D01*
X150704819Y-108714285D02*
X151085771Y-109047618D01*
X151085771Y-109047618D02*
X151085771Y-108904761D01*
X151085771Y-108904761D02*
X151133390Y-108809523D01*
X151133390Y-108809523D02*
X151181009Y-108761904D01*
X151181009Y-108761904D02*
X151276247Y-108714285D01*
X151276247Y-108714285D02*
X151514342Y-108714285D01*
X151514342Y-108714285D02*
X151609580Y-108761904D01*
X151609580Y-108761904D02*
X151657200Y-108809523D01*
X151657200Y-108809523D02*
X151704819Y-108904761D01*
X151704819Y-108904761D02*
X151704819Y-109190475D01*
X151704819Y-109190475D02*
X151657200Y-109285713D01*
X151657200Y-109285713D02*
X151609580Y-109333332D01*
X175454819Y-111066666D02*
X174978628Y-111399999D01*
X175454819Y-111638094D02*
X174454819Y-111638094D01*
X174454819Y-111638094D02*
X174454819Y-111257142D01*
X174454819Y-111257142D02*
X174502438Y-111161904D01*
X174502438Y-111161904D02*
X174550057Y-111114285D01*
X174550057Y-111114285D02*
X174645295Y-111066666D01*
X174645295Y-111066666D02*
X174788152Y-111066666D01*
X174788152Y-111066666D02*
X174883390Y-111114285D01*
X174883390Y-111114285D02*
X174931009Y-111161904D01*
X174931009Y-111161904D02*
X174978628Y-111257142D01*
X174978628Y-111257142D02*
X174978628Y-111638094D01*
X174454819Y-110733332D02*
X174454819Y-110114285D01*
X174454819Y-110114285D02*
X174835771Y-110447618D01*
X174835771Y-110447618D02*
X174835771Y-110304761D01*
X174835771Y-110304761D02*
X174883390Y-110209523D01*
X174883390Y-110209523D02*
X174931009Y-110161904D01*
X174931009Y-110161904D02*
X175026247Y-110114285D01*
X175026247Y-110114285D02*
X175264342Y-110114285D01*
X175264342Y-110114285D02*
X175359580Y-110161904D01*
X175359580Y-110161904D02*
X175407200Y-110209523D01*
X175407200Y-110209523D02*
X175454819Y-110304761D01*
X175454819Y-110304761D02*
X175454819Y-110590475D01*
X175454819Y-110590475D02*
X175407200Y-110685713D01*
X175407200Y-110685713D02*
X175359580Y-110733332D01*
X153109580Y-109666666D02*
X153157200Y-109714285D01*
X153157200Y-109714285D02*
X153204819Y-109857142D01*
X153204819Y-109857142D02*
X153204819Y-109952380D01*
X153204819Y-109952380D02*
X153157200Y-110095237D01*
X153157200Y-110095237D02*
X153061961Y-110190475D01*
X153061961Y-110190475D02*
X152966723Y-110238094D01*
X152966723Y-110238094D02*
X152776247Y-110285713D01*
X152776247Y-110285713D02*
X152633390Y-110285713D01*
X152633390Y-110285713D02*
X152442914Y-110238094D01*
X152442914Y-110238094D02*
X152347676Y-110190475D01*
X152347676Y-110190475D02*
X152252438Y-110095237D01*
X152252438Y-110095237D02*
X152204819Y-109952380D01*
X152204819Y-109952380D02*
X152204819Y-109857142D01*
X152204819Y-109857142D02*
X152252438Y-109714285D01*
X152252438Y-109714285D02*
X152300057Y-109666666D01*
X152300057Y-109285713D02*
X152252438Y-109238094D01*
X152252438Y-109238094D02*
X152204819Y-109142856D01*
X152204819Y-109142856D02*
X152204819Y-108904761D01*
X152204819Y-108904761D02*
X152252438Y-108809523D01*
X152252438Y-108809523D02*
X152300057Y-108761904D01*
X152300057Y-108761904D02*
X152395295Y-108714285D01*
X152395295Y-108714285D02*
X152490533Y-108714285D01*
X152490533Y-108714285D02*
X152633390Y-108761904D01*
X152633390Y-108761904D02*
X153204819Y-109333332D01*
X153204819Y-109333332D02*
X153204819Y-108714285D01*
X151609580Y-104766666D02*
X151657200Y-104814285D01*
X151657200Y-104814285D02*
X151704819Y-104957142D01*
X151704819Y-104957142D02*
X151704819Y-105052380D01*
X151704819Y-105052380D02*
X151657200Y-105195237D01*
X151657200Y-105195237D02*
X151561961Y-105290475D01*
X151561961Y-105290475D02*
X151466723Y-105338094D01*
X151466723Y-105338094D02*
X151276247Y-105385713D01*
X151276247Y-105385713D02*
X151133390Y-105385713D01*
X151133390Y-105385713D02*
X150942914Y-105338094D01*
X150942914Y-105338094D02*
X150847676Y-105290475D01*
X150847676Y-105290475D02*
X150752438Y-105195237D01*
X150752438Y-105195237D02*
X150704819Y-105052380D01*
X150704819Y-105052380D02*
X150704819Y-104957142D01*
X150704819Y-104957142D02*
X150752438Y-104814285D01*
X150752438Y-104814285D02*
X150800057Y-104766666D01*
X151038152Y-103909523D02*
X151704819Y-103909523D01*
X150657200Y-104147618D02*
X151371485Y-104385713D01*
X151371485Y-104385713D02*
X151371485Y-103766666D01*
X154809580Y-89541666D02*
X154857200Y-89589285D01*
X154857200Y-89589285D02*
X154904819Y-89732142D01*
X154904819Y-89732142D02*
X154904819Y-89827380D01*
X154904819Y-89827380D02*
X154857200Y-89970237D01*
X154857200Y-89970237D02*
X154761961Y-90065475D01*
X154761961Y-90065475D02*
X154666723Y-90113094D01*
X154666723Y-90113094D02*
X154476247Y-90160713D01*
X154476247Y-90160713D02*
X154333390Y-90160713D01*
X154333390Y-90160713D02*
X154142914Y-90113094D01*
X154142914Y-90113094D02*
X154047676Y-90065475D01*
X154047676Y-90065475D02*
X153952438Y-89970237D01*
X153952438Y-89970237D02*
X153904819Y-89827380D01*
X153904819Y-89827380D02*
X153904819Y-89732142D01*
X153904819Y-89732142D02*
X153952438Y-89589285D01*
X153952438Y-89589285D02*
X154000057Y-89541666D01*
X153904819Y-88684523D02*
X153904819Y-88874999D01*
X153904819Y-88874999D02*
X153952438Y-88970237D01*
X153952438Y-88970237D02*
X154000057Y-89017856D01*
X154000057Y-89017856D02*
X154142914Y-89113094D01*
X154142914Y-89113094D02*
X154333390Y-89160713D01*
X154333390Y-89160713D02*
X154714342Y-89160713D01*
X154714342Y-89160713D02*
X154809580Y-89113094D01*
X154809580Y-89113094D02*
X154857200Y-89065475D01*
X154857200Y-89065475D02*
X154904819Y-88970237D01*
X154904819Y-88970237D02*
X154904819Y-88779761D01*
X154904819Y-88779761D02*
X154857200Y-88684523D01*
X154857200Y-88684523D02*
X154809580Y-88636904D01*
X154809580Y-88636904D02*
X154714342Y-88589285D01*
X154714342Y-88589285D02*
X154476247Y-88589285D01*
X154476247Y-88589285D02*
X154381009Y-88636904D01*
X154381009Y-88636904D02*
X154333390Y-88684523D01*
X154333390Y-88684523D02*
X154285771Y-88779761D01*
X154285771Y-88779761D02*
X154285771Y-88970237D01*
X154285771Y-88970237D02*
X154333390Y-89065475D01*
X154333390Y-89065475D02*
X154381009Y-89113094D01*
X154381009Y-89113094D02*
X154476247Y-89160713D01*
X171054819Y-102466666D02*
X170578628Y-102799999D01*
X171054819Y-103038094D02*
X170054819Y-103038094D01*
X170054819Y-103038094D02*
X170054819Y-102657142D01*
X170054819Y-102657142D02*
X170102438Y-102561904D01*
X170102438Y-102561904D02*
X170150057Y-102514285D01*
X170150057Y-102514285D02*
X170245295Y-102466666D01*
X170245295Y-102466666D02*
X170388152Y-102466666D01*
X170388152Y-102466666D02*
X170483390Y-102514285D01*
X170483390Y-102514285D02*
X170531009Y-102561904D01*
X170531009Y-102561904D02*
X170578628Y-102657142D01*
X170578628Y-102657142D02*
X170578628Y-103038094D01*
X170150057Y-102085713D02*
X170102438Y-102038094D01*
X170102438Y-102038094D02*
X170054819Y-101942856D01*
X170054819Y-101942856D02*
X170054819Y-101704761D01*
X170054819Y-101704761D02*
X170102438Y-101609523D01*
X170102438Y-101609523D02*
X170150057Y-101561904D01*
X170150057Y-101561904D02*
X170245295Y-101514285D01*
X170245295Y-101514285D02*
X170340533Y-101514285D01*
X170340533Y-101514285D02*
X170483390Y-101561904D01*
X170483390Y-101561904D02*
X171054819Y-102133332D01*
X171054819Y-102133332D02*
X171054819Y-101514285D01*
X177738095Y-103754819D02*
X177738095Y-102754819D01*
X177738095Y-103231009D02*
X178309523Y-103231009D01*
X178309523Y-103754819D02*
X178309523Y-102754819D01*
X178738095Y-102850057D02*
X178785714Y-102802438D01*
X178785714Y-102802438D02*
X178880952Y-102754819D01*
X178880952Y-102754819D02*
X179119047Y-102754819D01*
X179119047Y-102754819D02*
X179214285Y-102802438D01*
X179214285Y-102802438D02*
X179261904Y-102850057D01*
X179261904Y-102850057D02*
X179309523Y-102945295D01*
X179309523Y-102945295D02*
X179309523Y-103040533D01*
X179309523Y-103040533D02*
X179261904Y-103183390D01*
X179261904Y-103183390D02*
X178690476Y-103754819D01*
X178690476Y-103754819D02*
X179309523Y-103754819D01*
X160433333Y-114554819D02*
X160100000Y-114078628D01*
X159861905Y-114554819D02*
X159861905Y-113554819D01*
X159861905Y-113554819D02*
X160242857Y-113554819D01*
X160242857Y-113554819D02*
X160338095Y-113602438D01*
X160338095Y-113602438D02*
X160385714Y-113650057D01*
X160385714Y-113650057D02*
X160433333Y-113745295D01*
X160433333Y-113745295D02*
X160433333Y-113888152D01*
X160433333Y-113888152D02*
X160385714Y-113983390D01*
X160385714Y-113983390D02*
X160338095Y-114031009D01*
X160338095Y-114031009D02*
X160242857Y-114078628D01*
X160242857Y-114078628D02*
X159861905Y-114078628D01*
X161338095Y-113554819D02*
X160861905Y-113554819D01*
X160861905Y-113554819D02*
X160814286Y-114031009D01*
X160814286Y-114031009D02*
X160861905Y-113983390D01*
X160861905Y-113983390D02*
X160957143Y-113935771D01*
X160957143Y-113935771D02*
X161195238Y-113935771D01*
X161195238Y-113935771D02*
X161290476Y-113983390D01*
X161290476Y-113983390D02*
X161338095Y-114031009D01*
X161338095Y-114031009D02*
X161385714Y-114126247D01*
X161385714Y-114126247D02*
X161385714Y-114364342D01*
X161385714Y-114364342D02*
X161338095Y-114459580D01*
X161338095Y-114459580D02*
X161290476Y-114507200D01*
X161290476Y-114507200D02*
X161195238Y-114554819D01*
X161195238Y-114554819D02*
X160957143Y-114554819D01*
X160957143Y-114554819D02*
X160861905Y-114507200D01*
X160861905Y-114507200D02*
X160814286Y-114459580D01*
X168816666Y-94604819D02*
X168816666Y-95319104D01*
X168816666Y-95319104D02*
X168769047Y-95461961D01*
X168769047Y-95461961D02*
X168673809Y-95557200D01*
X168673809Y-95557200D02*
X168530952Y-95604819D01*
X168530952Y-95604819D02*
X168435714Y-95604819D01*
X169816666Y-95604819D02*
X169245238Y-95604819D01*
X169530952Y-95604819D02*
X169530952Y-94604819D01*
X169530952Y-94604819D02*
X169435714Y-94747676D01*
X169435714Y-94747676D02*
X169340476Y-94842914D01*
X169340476Y-94842914D02*
X169245238Y-94890533D01*
X149054819Y-86166666D02*
X148578628Y-86499999D01*
X149054819Y-86738094D02*
X148054819Y-86738094D01*
X148054819Y-86738094D02*
X148054819Y-86357142D01*
X148054819Y-86357142D02*
X148102438Y-86261904D01*
X148102438Y-86261904D02*
X148150057Y-86214285D01*
X148150057Y-86214285D02*
X148245295Y-86166666D01*
X148245295Y-86166666D02*
X148388152Y-86166666D01*
X148388152Y-86166666D02*
X148483390Y-86214285D01*
X148483390Y-86214285D02*
X148531009Y-86261904D01*
X148531009Y-86261904D02*
X148578628Y-86357142D01*
X148578628Y-86357142D02*
X148578628Y-86738094D01*
X148054819Y-85833332D02*
X148054819Y-85166666D01*
X148054819Y-85166666D02*
X149054819Y-85595237D01*
X166666666Y-113154819D02*
X166666666Y-113869104D01*
X166666666Y-113869104D02*
X166619047Y-114011961D01*
X166619047Y-114011961D02*
X166523809Y-114107200D01*
X166523809Y-114107200D02*
X166380952Y-114154819D01*
X166380952Y-114154819D02*
X166285714Y-114154819D01*
X167142857Y-114154819D02*
X167142857Y-113154819D01*
X167142857Y-113154819D02*
X167523809Y-113154819D01*
X167523809Y-113154819D02*
X167619047Y-113202438D01*
X167619047Y-113202438D02*
X167666666Y-113250057D01*
X167666666Y-113250057D02*
X167714285Y-113345295D01*
X167714285Y-113345295D02*
X167714285Y-113488152D01*
X167714285Y-113488152D02*
X167666666Y-113583390D01*
X167666666Y-113583390D02*
X167619047Y-113631009D01*
X167619047Y-113631009D02*
X167523809Y-113678628D01*
X167523809Y-113678628D02*
X167142857Y-113678628D01*
X168666666Y-114154819D02*
X168095238Y-114154819D01*
X168380952Y-114154819D02*
X168380952Y-113154819D01*
X168380952Y-113154819D02*
X168285714Y-113297676D01*
X168285714Y-113297676D02*
X168190476Y-113392914D01*
X168190476Y-113392914D02*
X168095238Y-113440533D01*
X157883333Y-96409580D02*
X157835714Y-96457200D01*
X157835714Y-96457200D02*
X157692857Y-96504819D01*
X157692857Y-96504819D02*
X157597619Y-96504819D01*
X157597619Y-96504819D02*
X157454762Y-96457200D01*
X157454762Y-96457200D02*
X157359524Y-96361961D01*
X157359524Y-96361961D02*
X157311905Y-96266723D01*
X157311905Y-96266723D02*
X157264286Y-96076247D01*
X157264286Y-96076247D02*
X157264286Y-95933390D01*
X157264286Y-95933390D02*
X157311905Y-95742914D01*
X157311905Y-95742914D02*
X157359524Y-95647676D01*
X157359524Y-95647676D02*
X157454762Y-95552438D01*
X157454762Y-95552438D02*
X157597619Y-95504819D01*
X157597619Y-95504819D02*
X157692857Y-95504819D01*
X157692857Y-95504819D02*
X157835714Y-95552438D01*
X157835714Y-95552438D02*
X157883333Y-95600057D01*
X158216667Y-95504819D02*
X158883333Y-95504819D01*
X158883333Y-95504819D02*
X158454762Y-96504819D01*
X150257142Y-98554819D02*
X149923809Y-98078628D01*
X149685714Y-98554819D02*
X149685714Y-97554819D01*
X149685714Y-97554819D02*
X150066666Y-97554819D01*
X150066666Y-97554819D02*
X150161904Y-97602438D01*
X150161904Y-97602438D02*
X150209523Y-97650057D01*
X150209523Y-97650057D02*
X150257142Y-97745295D01*
X150257142Y-97745295D02*
X150257142Y-97888152D01*
X150257142Y-97888152D02*
X150209523Y-97983390D01*
X150209523Y-97983390D02*
X150161904Y-98031009D01*
X150161904Y-98031009D02*
X150066666Y-98078628D01*
X150066666Y-98078628D02*
X149685714Y-98078628D01*
X151209523Y-98554819D02*
X150638095Y-98554819D01*
X150923809Y-98554819D02*
X150923809Y-97554819D01*
X150923809Y-97554819D02*
X150828571Y-97697676D01*
X150828571Y-97697676D02*
X150733333Y-97792914D01*
X150733333Y-97792914D02*
X150638095Y-97840533D01*
X151828571Y-97554819D02*
X151923809Y-97554819D01*
X151923809Y-97554819D02*
X152019047Y-97602438D01*
X152019047Y-97602438D02*
X152066666Y-97650057D01*
X152066666Y-97650057D02*
X152114285Y-97745295D01*
X152114285Y-97745295D02*
X152161904Y-97935771D01*
X152161904Y-97935771D02*
X152161904Y-98173866D01*
X152161904Y-98173866D02*
X152114285Y-98364342D01*
X152114285Y-98364342D02*
X152066666Y-98459580D01*
X152066666Y-98459580D02*
X152019047Y-98507200D01*
X152019047Y-98507200D02*
X151923809Y-98554819D01*
X151923809Y-98554819D02*
X151828571Y-98554819D01*
X151828571Y-98554819D02*
X151733333Y-98507200D01*
X151733333Y-98507200D02*
X151685714Y-98459580D01*
X151685714Y-98459580D02*
X151638095Y-98364342D01*
X151638095Y-98364342D02*
X151590476Y-98173866D01*
X151590476Y-98173866D02*
X151590476Y-97935771D01*
X151590476Y-97935771D02*
X151638095Y-97745295D01*
X151638095Y-97745295D02*
X151685714Y-97650057D01*
X151685714Y-97650057D02*
X151733333Y-97602438D01*
X151733333Y-97602438D02*
X151828571Y-97554819D01*
X154459580Y-104742857D02*
X154507200Y-104790476D01*
X154507200Y-104790476D02*
X154554819Y-104933333D01*
X154554819Y-104933333D02*
X154554819Y-105028571D01*
X154554819Y-105028571D02*
X154507200Y-105171428D01*
X154507200Y-105171428D02*
X154411961Y-105266666D01*
X154411961Y-105266666D02*
X154316723Y-105314285D01*
X154316723Y-105314285D02*
X154126247Y-105361904D01*
X154126247Y-105361904D02*
X153983390Y-105361904D01*
X153983390Y-105361904D02*
X153792914Y-105314285D01*
X153792914Y-105314285D02*
X153697676Y-105266666D01*
X153697676Y-105266666D02*
X153602438Y-105171428D01*
X153602438Y-105171428D02*
X153554819Y-105028571D01*
X153554819Y-105028571D02*
X153554819Y-104933333D01*
X153554819Y-104933333D02*
X153602438Y-104790476D01*
X153602438Y-104790476D02*
X153650057Y-104742857D01*
X154554819Y-103790476D02*
X154554819Y-104361904D01*
X154554819Y-104076190D02*
X153554819Y-104076190D01*
X153554819Y-104076190D02*
X153697676Y-104171428D01*
X153697676Y-104171428D02*
X153792914Y-104266666D01*
X153792914Y-104266666D02*
X153840533Y-104361904D01*
X154554819Y-102838095D02*
X154554819Y-103409523D01*
X154554819Y-103123809D02*
X153554819Y-103123809D01*
X153554819Y-103123809D02*
X153697676Y-103219047D01*
X153697676Y-103219047D02*
X153792914Y-103314285D01*
X153792914Y-103314285D02*
X153840533Y-103409523D01*
D13*
%TO.C,U2*%
X142700000Y-112450000D02*
X127900000Y-112450000D01*
X142700000Y-103100000D02*
X142700000Y-112450000D01*
X142700000Y-103100000D02*
X142700000Y-90150000D01*
X142700000Y-90150000D02*
X127900000Y-90150000D01*
X135300000Y-90150000D02*
X142700000Y-90150000D01*
X135300000Y-90150000D02*
X127900000Y-90150000D01*
X127900000Y-112450000D02*
X127900000Y-90150000D01*
X127900000Y-90150000D02*
X135300000Y-90150000D01*
%TO.C,U1*%
X155200000Y-98915000D02*
X154050000Y-98915000D01*
X155200000Y-98915000D02*
X156350000Y-98915000D01*
X155200000Y-101285000D02*
X154050000Y-101285000D01*
X155200000Y-101285000D02*
X156350000Y-101285000D01*
X152915000Y-99350000D02*
X152585000Y-99590000D01*
X152585000Y-99110000D01*
X152915000Y-99350000D01*
G36*
X152915000Y-99350000D02*
G01*
X152585000Y-99590000D01*
X152585000Y-99110000D01*
X152915000Y-99350000D01*
G37*
%TO.C,JP3*%
X173842500Y-92350000D02*
X173242500Y-92350000D01*
X175042500Y-91800000D02*
X175042500Y-91200000D01*
X172542500Y-91700000D02*
X172542500Y-88900000D01*
X174742500Y-91500000D02*
X175042500Y-91800000D01*
X174742500Y-91500000D02*
X175042500Y-91200000D01*
X174542500Y-88900000D02*
X174542500Y-91700000D01*
X173242500Y-88250000D02*
X173842500Y-88250000D01*
X173242500Y-92350000D02*
G75*
G02*
X172542500Y-91650000I-1J699999D01*
G01*
X174542500Y-91650000D02*
G75*
G02*
X173842500Y-92350000I-699999J-1D01*
G01*
X172542500Y-88950000D02*
G75*
G02*
X173242500Y-88250000I700000J0D01*
G01*
X173842500Y-88250000D02*
G75*
G02*
X174542500Y-88950000I0J-700000D01*
G01*
%TO.C,C1*%
X148010000Y-105084420D02*
X148010000Y-105365580D01*
X146990000Y-105084420D02*
X146990000Y-105365580D01*
%TO.C,R6*%
X148077500Y-99137258D02*
X148077500Y-98662742D01*
X149122500Y-99137258D02*
X149122500Y-98662742D01*
%TO.C,C10*%
X148990000Y-108890580D02*
X148990000Y-108609420D01*
X150010000Y-108890580D02*
X150010000Y-108609420D01*
%TO.C,R8*%
X159612742Y-103577500D02*
X160087258Y-103577500D01*
X159612742Y-104622500D02*
X160087258Y-104622500D01*
%TO.C,Q1*%
X160460000Y-107100000D02*
X160460000Y-106450000D01*
X160460000Y-107100000D02*
X160460000Y-107750000D01*
X157340000Y-107100000D02*
X157340000Y-106450000D01*
X157340000Y-107100000D02*
X157340000Y-107750000D01*
X160740000Y-106177500D02*
X160410000Y-105937500D01*
X160740000Y-105697500D01*
X160740000Y-106177500D01*
G36*
X160740000Y-106177500D02*
G01*
X160410000Y-105937500D01*
X160740000Y-105697500D01*
X160740000Y-106177500D01*
G37*
D14*
%TO.C,SW1*%
X163250000Y-108250000D02*
X163250000Y-106250000D01*
X163750000Y-104250000D02*
X168750000Y-104250000D01*
X168750000Y-110250000D02*
X163750000Y-110250000D01*
X169250000Y-106250000D02*
X169250000Y-108250000D01*
D13*
%TO.C,D1*%
X175200000Y-103400000D02*
X175600000Y-103800000D01*
X172400000Y-103400000D02*
X175200000Y-103400000D01*
X172400000Y-103400000D02*
X172400000Y-108400000D01*
X175600000Y-103800000D02*
X175600000Y-108400000D01*
X172400000Y-108400000D02*
X175600000Y-108400000D01*
%TO.C,U3*%
X148700000Y-90315000D02*
X146500000Y-90315000D01*
X148700000Y-90315000D02*
X150900000Y-90315000D01*
X148700000Y-97085000D02*
X146500000Y-97085000D01*
X148700000Y-97085000D02*
X150900000Y-97085000D01*
X144840000Y-90775000D02*
X144510000Y-91015000D01*
X144510000Y-90535000D01*
X144840000Y-90775000D01*
G36*
X144840000Y-90775000D02*
G01*
X144510000Y-91015000D01*
X144510000Y-90535000D01*
X144840000Y-90775000D01*
G37*
%TO.C,R4*%
X163877500Y-102187258D02*
X163877500Y-101712742D01*
X164922500Y-102187258D02*
X164922500Y-101712742D01*
%TO.C,C8*%
X146159420Y-99290000D02*
X146440580Y-99290000D01*
X146159420Y-100310000D02*
X146440580Y-100310000D01*
%TO.C,C5*%
X146310000Y-88409420D02*
X146310000Y-88690580D01*
X145290000Y-88409420D02*
X145290000Y-88690580D01*
%TO.C,R9*%
X150772500Y-88312742D02*
X150772500Y-88787258D01*
X149727500Y-88312742D02*
X149727500Y-88787258D01*
%TO.C,JP4*%
X177600000Y-92350000D02*
X177000000Y-92350000D01*
X178800000Y-91800000D02*
X178800000Y-91200000D01*
X176300000Y-91700000D02*
X176300000Y-88900000D01*
X178500000Y-91500000D02*
X178800000Y-91800000D01*
X178500000Y-91500000D02*
X178800000Y-91200000D01*
X178300000Y-88900000D02*
X178300000Y-91700000D01*
X177000000Y-88250000D02*
X177600000Y-88250000D01*
X177000000Y-92350000D02*
G75*
G02*
X176300000Y-91650000I-1J699999D01*
G01*
X178300000Y-91650000D02*
G75*
G02*
X177600000Y-92350000I-699999J-1D01*
G01*
X176300000Y-88950000D02*
G75*
G02*
X177000000Y-88250000I700000J0D01*
G01*
X177600000Y-88250000D02*
G75*
G02*
X178300000Y-88950000I0J-700000D01*
G01*
%TO.C,C9*%
X157959420Y-109990000D02*
X158240580Y-109990000D01*
X157959420Y-111010000D02*
X158240580Y-111010000D01*
%TO.C,R1*%
X174322500Y-101362742D02*
X174322500Y-101837258D01*
X173277500Y-101362742D02*
X173277500Y-101837258D01*
%TO.C,C3*%
X144990000Y-108890580D02*
X144990000Y-108609420D01*
X146010000Y-108890580D02*
X146010000Y-108609420D01*
%TO.C,R3*%
X172677500Y-110537258D02*
X172677500Y-110062742D01*
X173722500Y-110537258D02*
X173722500Y-110062742D01*
%TO.C,C2*%
X146990000Y-108915580D02*
X146990000Y-108634420D01*
X148010000Y-108915580D02*
X148010000Y-108634420D01*
%TO.C,C4*%
X146010000Y-105109420D02*
X146010000Y-105390580D01*
X144990000Y-105109420D02*
X144990000Y-105390580D01*
%TO.C,C6*%
X156460000Y-88709420D02*
X156460000Y-88990580D01*
X155440000Y-88709420D02*
X155440000Y-88990580D01*
%TO.C,R2*%
X172622500Y-101387742D02*
X172622500Y-101862258D01*
X171577500Y-101387742D02*
X171577500Y-101862258D01*
%TO.C,R5*%
X161062742Y-111577500D02*
X161537258Y-111577500D01*
X161062742Y-112622500D02*
X161537258Y-112622500D01*
%TO.C,J1*%
X170110000Y-92785000D02*
X169060000Y-92785000D01*
X170110000Y-90285000D02*
X170110000Y-92785000D01*
X169060000Y-92785000D02*
X169060000Y-93775000D01*
X168940000Y-88315000D02*
X159060000Y-88315000D01*
X157890000Y-92785000D02*
X158940000Y-92785000D01*
X157890000Y-90285000D02*
X157890000Y-92785000D01*
%TO.C,R7*%
X149072500Y-88312742D02*
X149072500Y-88787258D01*
X148027500Y-88312742D02*
X148027500Y-88787258D01*
%TO.C,C7*%
X158240580Y-98060000D02*
X157959420Y-98060000D01*
X158240580Y-97040000D02*
X157959420Y-97040000D01*
%TO.C,R10*%
X146062742Y-97577500D02*
X146537258Y-97577500D01*
X146062742Y-98622500D02*
X146537258Y-98622500D01*
%TO.C,C11*%
X150010000Y-105109420D02*
X150010000Y-105390580D01*
X148990000Y-105109420D02*
X148990000Y-105390580D01*
%TD*%
%LPC*%
D15*
%TO.C,JP2*%
X165450000Y-112700000D02*
X163450000Y-112700000D01*
X163450000Y-111500000D01*
X165450000Y-111500000D01*
X165450000Y-112700000D01*
G36*
X165450000Y-112700000D02*
G01*
X163450000Y-112700000D01*
X163450000Y-111500000D01*
X165450000Y-111500000D01*
X165450000Y-112700000D01*
G37*
%TO.C,JP1*%
X168450000Y-112700000D02*
X166450000Y-112700000D01*
X166450000Y-111500000D01*
X168450000Y-111500000D01*
X168450000Y-112700000D01*
G36*
X168450000Y-112700000D02*
G01*
X166450000Y-112700000D01*
X166450000Y-111500000D01*
X168450000Y-111500000D01*
X168450000Y-112700000D01*
G37*
%TD*%
D16*
%TO.C,U2*%
X142200000Y-111500000D03*
X142200000Y-110300000D03*
X142200000Y-109100000D03*
X142200000Y-107900000D03*
X142200000Y-106700000D03*
X142200000Y-105500000D03*
X142200000Y-104300000D03*
X142200000Y-103100000D03*
X142200000Y-101900000D03*
X142200000Y-100700000D03*
X142200000Y-99500000D03*
X142200000Y-98300000D03*
X142200000Y-97100000D03*
X142200000Y-95900000D03*
X142200000Y-94700000D03*
X142200000Y-93500000D03*
X142200000Y-92300000D03*
X142200000Y-91100000D03*
D17*
X139500000Y-90650000D03*
X138300000Y-90650000D03*
X137100000Y-90650000D03*
X135900000Y-90650000D03*
X134700000Y-90650000D03*
X133500000Y-90650000D03*
X132300000Y-90650000D03*
X131100000Y-90650000D03*
D16*
X128400000Y-91100000D03*
X128400000Y-92300000D03*
X128400000Y-93500000D03*
X128400000Y-94700000D03*
X128400000Y-95900000D03*
X128400000Y-97100000D03*
X128400000Y-98300000D03*
X128400000Y-99500000D03*
X128400000Y-100700000D03*
X128400000Y-101900000D03*
X128400000Y-103100000D03*
X128400000Y-104300000D03*
X128400000Y-105500000D03*
X128400000Y-106700000D03*
X128400000Y-107900000D03*
X128400000Y-109100000D03*
X128400000Y-110300000D03*
X128400000Y-111500000D03*
D17*
X131100000Y-111950000D03*
X132300000Y-111950000D03*
X133500000Y-111950000D03*
X134700000Y-111950000D03*
X135900000Y-111950000D03*
X137100000Y-111950000D03*
X138300000Y-111950000D03*
X139500000Y-111950000D03*
D18*
X141000000Y-94700000D03*
X141000000Y-93500000D03*
X141000000Y-92300000D03*
X141000000Y-91100000D03*
X139500000Y-91850000D03*
X138300000Y-91850000D03*
X137100000Y-91850000D03*
X135900000Y-91850000D03*
X134700000Y-91850000D03*
X133500000Y-91850000D03*
X132300000Y-91850000D03*
X131100000Y-91850000D03*
X129600000Y-91100000D03*
X129600000Y-92300000D03*
X129600000Y-93500000D03*
X129600000Y-94700000D03*
X131100000Y-110750000D03*
X132300000Y-110750000D03*
X133500000Y-110750000D03*
X134700000Y-110750000D03*
X135900000Y-110750000D03*
X137100000Y-110750000D03*
X138300000Y-110750000D03*
X139500000Y-110750000D03*
X136840000Y-95900000D03*
X136000000Y-94100000D03*
X134600000Y-94100000D03*
X133760000Y-95900000D03*
X133760000Y-99500000D03*
X133760000Y-101300000D03*
X133760000Y-103100000D03*
X133760000Y-104900000D03*
X135300000Y-104900000D03*
X135300000Y-103100000D03*
X135300000Y-101300000D03*
X136840000Y-99500000D03*
X136840000Y-101300000D03*
X136840000Y-103100000D03*
X136840000Y-104900000D03*
X141000000Y-98810000D03*
X129600000Y-98810000D03*
X141000000Y-101350000D03*
X129600000Y-101350000D03*
X141000000Y-103890000D03*
X129600000Y-103890000D03*
X141000000Y-106430000D03*
X129600000Y-106430000D03*
X141000000Y-108970000D03*
X129600000Y-108970000D03*
X141000000Y-111510000D03*
X129600000Y-111510000D03*
%TD*%
D19*
%TO.C,U1*%
X153800000Y-99350000D03*
X153800000Y-99850000D03*
X153800000Y-100350000D03*
X153800000Y-100850000D03*
X156600000Y-100850000D03*
X156600000Y-100350000D03*
X156600000Y-99850000D03*
X156600000Y-99350000D03*
%TD*%
D20*
%TO.C,JP3*%
X173542500Y-91600000D03*
D21*
X173542500Y-90300000D03*
D22*
X173542500Y-89000000D03*
%TD*%
D23*
%TO.C,C1*%
X147500000Y-104450000D03*
X147500000Y-106000000D03*
%TD*%
D24*
%TO.C,R6*%
X148600000Y-99725000D03*
X148600000Y-98075000D03*
%TD*%
D25*
%TO.C,C10*%
X149500000Y-109525000D03*
X149500000Y-107975000D03*
%TD*%
D26*
%TO.C,R8*%
X159025000Y-104100000D03*
X160675000Y-104100000D03*
%TD*%
D27*
%TO.C,JP2*%
X163600000Y-112100000D03*
D28*
X165300000Y-112100000D03*
%TD*%
D29*
%TO.C,Q1*%
X159850000Y-106162500D03*
X157950000Y-106162500D03*
X158900000Y-108037500D03*
%TD*%
D30*
%TO.C,SW1*%
X163000000Y-105000000D03*
X169500000Y-105000000D03*
X163000000Y-109500000D03*
X169500000Y-109500000D03*
%TD*%
D31*
%TO.C,D1*%
X174700000Y-107450000D03*
X173300000Y-107450000D03*
X174700000Y-104350000D03*
X173300000Y-104350000D03*
%TD*%
D32*
%TO.C,U3*%
X145837500Y-90775000D03*
X145837500Y-91425000D03*
X145837500Y-92075000D03*
X145837500Y-92725000D03*
X145837500Y-93375000D03*
X145837500Y-94025000D03*
X145837500Y-94675000D03*
X145837500Y-95325000D03*
X145837500Y-95975000D03*
X145837500Y-96625000D03*
X151562500Y-96625000D03*
X151562500Y-95975000D03*
X151562500Y-95325000D03*
X151562500Y-94675000D03*
X151562500Y-94025000D03*
X151562500Y-93375000D03*
X151562500Y-92725000D03*
X151562500Y-92075000D03*
X151562500Y-91425000D03*
X151562500Y-90775000D03*
%TD*%
D24*
%TO.C,R4*%
X164400000Y-102775000D03*
X164400000Y-101125000D03*
%TD*%
D33*
%TO.C,C8*%
X145525000Y-99800000D03*
X147075000Y-99800000D03*
%TD*%
D23*
%TO.C,C5*%
X145800000Y-87775000D03*
X145800000Y-89325000D03*
%TD*%
D34*
%TO.C,R9*%
X150250000Y-87725000D03*
X150250000Y-89375000D03*
%TD*%
D35*
%TO.C,H1*%
X123500000Y-99000000D03*
%TD*%
D20*
%TO.C,JP4*%
X177300000Y-91600000D03*
D21*
X177300000Y-90300000D03*
D22*
X177300000Y-89000000D03*
%TD*%
D33*
%TO.C,C9*%
X157325000Y-110500000D03*
X158875000Y-110500000D03*
%TD*%
D34*
%TO.C,R1*%
X173800000Y-100775000D03*
X173800000Y-102425000D03*
%TD*%
D25*
%TO.C,C3*%
X145500000Y-109525000D03*
X145500000Y-107975000D03*
%TD*%
D24*
%TO.C,R3*%
X173200000Y-111125000D03*
X173200000Y-109475000D03*
%TD*%
D25*
%TO.C,C2*%
X147500000Y-109550000D03*
X147500000Y-108000000D03*
%TD*%
D23*
%TO.C,C4*%
X145500000Y-104475000D03*
X145500000Y-106025000D03*
%TD*%
%TO.C,C6*%
X155950000Y-88075000D03*
X155950000Y-89625000D03*
%TD*%
D34*
%TO.C,R2*%
X172100000Y-100800000D03*
X172100000Y-102450000D03*
%TD*%
D35*
%TO.C,H2*%
X178500000Y-99000000D03*
%TD*%
D26*
%TO.C,R5*%
X160475000Y-112100000D03*
X162125000Y-112100000D03*
%TD*%
D36*
%TO.C,J1*%
X168500000Y-93000000D03*
X167500000Y-93000000D03*
X166500000Y-93000000D03*
X165500000Y-93000000D03*
X164500000Y-93000000D03*
X163500000Y-93000000D03*
X162500000Y-93000000D03*
X161500000Y-93000000D03*
X160500000Y-93000000D03*
X159500000Y-93000000D03*
D37*
X169800000Y-89125000D03*
X158200000Y-89125000D03*
%TD*%
D34*
%TO.C,R7*%
X148550000Y-87725000D03*
X148550000Y-89375000D03*
%TD*%
D27*
%TO.C,JP1*%
X166600000Y-112100000D03*
D28*
X168300000Y-112100000D03*
%TD*%
D38*
%TO.C,C7*%
X158875000Y-97550000D03*
X157325000Y-97550000D03*
%TD*%
D26*
%TO.C,R10*%
X145475000Y-98100000D03*
X147125000Y-98100000D03*
%TD*%
D23*
%TO.C,C11*%
X149500000Y-104475000D03*
X149500000Y-106025000D03*
%TD*%
%LPD*%
M02*
