%TF.GenerationSoftware,KiCad,Pcbnew,8.0.7*%
%TF.CreationDate,2025-04-13T14:21:12-04:00*%
%TF.ProjectId,radio,72616469-6f2e-46b6-9963-61645f706362,rev?*%
%TF.SameCoordinates,Original*%
%TF.FileFunction,Soldermask,Top*%
%TF.FilePolarity,Negative*%
%FSLAX46Y46*%
G04 Gerber Fmt 4.6, Leading zero omitted, Abs format (unit mm)*
G04 Created by KiCad (PCBNEW 8.0.7) date 2025-04-13 14:21:12*
%MOMM*%
%LPD*%
G01*
G04 APERTURE LIST*
G04 Aperture macros list*
%AMRoundRect*
0 Rectangle with rounded corners*
0 $1 Rounding radius*
0 $2 $3 $4 $5 $6 $7 $8 $9 X,Y pos of 4 corners*
0 Add a 4 corners polygon primitive as box body*
4,1,4,$2,$3,$4,$5,$6,$7,$8,$9,$2,$3,0*
0 Add four circle primitives for the rounded corners*
1,1,$1+$1,$2,$3*
1,1,$1+$1,$4,$5*
1,1,$1+$1,$6,$7*
1,1,$1+$1,$8,$9*
0 Add four rect primitives between the rounded corners*
20,1,$1+$1,$2,$3,$4,$5,0*
20,1,$1+$1,$4,$5,$6,$7,0*
20,1,$1+$1,$6,$7,$8,$9,0*
20,1,$1+$1,$8,$9,$2,$3,0*%
%AMFreePoly0*
4,1,19,0.550000,-0.750000,0.000000,-0.750000,0.000000,-0.744911,-0.071157,-0.744911,-0.207708,-0.704816,-0.327430,-0.627875,-0.420627,-0.520320,-0.479746,-0.390866,-0.500000,-0.250000,-0.500000,0.250000,-0.479746,0.390866,-0.420627,0.520320,-0.327430,0.627875,-0.207708,0.704816,-0.071157,0.744911,0.000000,0.744911,0.000000,0.750000,0.550000,0.750000,0.550000,-0.750000,0.550000,-0.750000,
$1*%
%AMFreePoly1*
4,1,19,0.000000,0.744911,0.071157,0.744911,0.207708,0.704816,0.327430,0.627875,0.420627,0.520320,0.479746,0.390866,0.500000,0.250000,0.500000,-0.250000,0.479746,-0.390866,0.420627,-0.520320,0.327430,-0.627875,0.207708,-0.704816,0.071157,-0.744911,0.000000,-0.744911,0.000000,-0.750000,-0.550000,-0.750000,-0.550000,0.750000,0.000000,0.750000,0.000000,0.744911,0.000000,0.744911,
$1*%
%AMFreePoly2*
4,1,6,1.037000,0.000000,0.437000,-0.600000,-0.150000,-0.600000,-0.150000,0.600000,0.437000,0.600000,1.037000,0.000000,1.037000,0.000000,$1*%
%AMFreePoly3*
4,1,6,0.150000,-0.600000,-1.037000,-0.600000,-0.437000,0.000000,-1.037000,0.600000,0.150000,0.600000,0.150000,-0.600000,0.150000,-0.600000,$1*%
G04 Aperture macros list end*
%ADD10C,0.160000*%
%ADD11R,1.000000X0.900000*%
%ADD12R,0.900000X1.000000*%
%ADD13C,0.800000*%
%ADD14R,0.800000X0.300000*%
%ADD15FreePoly0,90.000000*%
%ADD16R,1.500000X1.000000*%
%ADD17FreePoly1,90.000000*%
%ADD18RoundRect,0.225000X-0.250000X0.225000X-0.250000X-0.225000X0.250000X-0.225000X0.250000X0.225000X0*%
%ADD19RoundRect,0.200000X0.275000X-0.200000X0.275000X0.200000X-0.275000X0.200000X-0.275000X-0.200000X0*%
%ADD20RoundRect,0.225000X0.250000X-0.225000X0.250000X0.225000X-0.250000X0.225000X-0.250000X-0.225000X0*%
%ADD21RoundRect,0.200000X-0.200000X-0.275000X0.200000X-0.275000X0.200000X0.275000X-0.200000X0.275000X0*%
%ADD22FreePoly2,0.000000*%
%ADD23FreePoly3,0.000000*%
%ADD24RoundRect,0.150000X-0.150000X0.587500X-0.150000X-0.587500X0.150000X-0.587500X0.150000X0.587500X0*%
%ADD25C,1.600000*%
%ADD26R,0.900000X1.500000*%
%ADD27RoundRect,0.100000X-0.637500X-0.100000X0.637500X-0.100000X0.637500X0.100000X-0.637500X0.100000X0*%
%ADD28RoundRect,0.225000X-0.225000X-0.250000X0.225000X-0.250000X0.225000X0.250000X-0.225000X0.250000X0*%
%ADD29RoundRect,0.200000X-0.275000X0.200000X-0.275000X-0.200000X0.275000X-0.200000X0.275000X0.200000X0*%
%ADD30C,3.200000*%
%ADD31RoundRect,0.150000X0.150000X0.625000X-0.150000X0.625000X-0.150000X-0.625000X0.150000X-0.625000X0*%
%ADD32RoundRect,0.250000X0.350000X0.650000X-0.350000X0.650000X-0.350000X-0.650000X0.350000X-0.650000X0*%
%ADD33RoundRect,0.225000X0.225000X0.250000X-0.225000X0.250000X-0.225000X-0.250000X0.225000X-0.250000X0*%
G04 APERTURE END LIST*
D10*
%TO.C,JP2*%
X165450000Y-112700000D02*
X163450000Y-112700000D01*
X163450000Y-111500000D01*
X165450000Y-111500000D01*
X165450000Y-112700000D01*
G36*
X165450000Y-112700000D02*
G01*
X163450000Y-112700000D01*
X163450000Y-111500000D01*
X165450000Y-111500000D01*
X165450000Y-112700000D01*
G37*
%TO.C,JP1*%
X168450000Y-112700000D02*
X166450000Y-112700000D01*
X166450000Y-111500000D01*
X168450000Y-111500000D01*
X168450000Y-112700000D01*
G36*
X168450000Y-112700000D02*
G01*
X166450000Y-112700000D01*
X166450000Y-111500000D01*
X168450000Y-111500000D01*
X168450000Y-112700000D01*
G37*
%TD*%
D11*
%TO.C,U2*%
X142200000Y-111500000D03*
X142200000Y-110300000D03*
X142200000Y-109100000D03*
X142200000Y-107900000D03*
X142200000Y-106700000D03*
X142200000Y-105500000D03*
X142200000Y-104300000D03*
X142200000Y-103100000D03*
X142200000Y-101900000D03*
X142200000Y-100700000D03*
X142200000Y-99500000D03*
X142200000Y-98300000D03*
X142200000Y-97100000D03*
X142200000Y-95900000D03*
X142200000Y-94700000D03*
X142200000Y-93500000D03*
X142200000Y-92300000D03*
X142200000Y-91100000D03*
D12*
X139500000Y-90650000D03*
X138300000Y-90650000D03*
X137100000Y-90650000D03*
X135900000Y-90650000D03*
X134700000Y-90650000D03*
X133500000Y-90650000D03*
X132300000Y-90650000D03*
X131100000Y-90650000D03*
D11*
X128400000Y-91100000D03*
X128400000Y-92300000D03*
X128400000Y-93500000D03*
X128400000Y-94700000D03*
X128400000Y-95900000D03*
X128400000Y-97100000D03*
X128400000Y-98300000D03*
X128400000Y-99500000D03*
X128400000Y-100700000D03*
X128400000Y-101900000D03*
X128400000Y-103100000D03*
X128400000Y-104300000D03*
X128400000Y-105500000D03*
X128400000Y-106700000D03*
X128400000Y-107900000D03*
X128400000Y-109100000D03*
X128400000Y-110300000D03*
X128400000Y-111500000D03*
D12*
X131100000Y-111950000D03*
X132300000Y-111950000D03*
X133500000Y-111950000D03*
X134700000Y-111950000D03*
X135900000Y-111950000D03*
X137100000Y-111950000D03*
X138300000Y-111950000D03*
X139500000Y-111950000D03*
D13*
X141000000Y-94700000D03*
X141000000Y-93500000D03*
X141000000Y-92300000D03*
X141000000Y-91100000D03*
X139500000Y-91850000D03*
X138300000Y-91850000D03*
X137100000Y-91850000D03*
X135900000Y-91850000D03*
X134700000Y-91850000D03*
X133500000Y-91850000D03*
X132300000Y-91850000D03*
X131100000Y-91850000D03*
X129600000Y-91100000D03*
X129600000Y-92300000D03*
X129600000Y-93500000D03*
X129600000Y-94700000D03*
X131100000Y-110750000D03*
X132300000Y-110750000D03*
X133500000Y-110750000D03*
X134700000Y-110750000D03*
X135900000Y-110750000D03*
X137100000Y-110750000D03*
X138300000Y-110750000D03*
X139500000Y-110750000D03*
X136840000Y-95900000D03*
X136000000Y-94100000D03*
X134600000Y-94100000D03*
X133760000Y-95900000D03*
X133760000Y-99500000D03*
X133760000Y-101300000D03*
X133760000Y-103100000D03*
X133760000Y-104900000D03*
X135300000Y-104900000D03*
X135300000Y-103100000D03*
X135300000Y-101300000D03*
X136840000Y-99500000D03*
X136840000Y-101300000D03*
X136840000Y-103100000D03*
X136840000Y-104900000D03*
X141000000Y-98810000D03*
X129600000Y-98810000D03*
X141000000Y-101350000D03*
X129600000Y-101350000D03*
X141000000Y-103890000D03*
X129600000Y-103890000D03*
X141000000Y-106430000D03*
X129600000Y-106430000D03*
X141000000Y-108970000D03*
X129600000Y-108970000D03*
X141000000Y-111510000D03*
X129600000Y-111510000D03*
%TD*%
D14*
%TO.C,U1*%
X153650000Y-99350000D03*
X153650000Y-99850000D03*
X153650000Y-100350000D03*
X153650000Y-100850000D03*
X156750000Y-100850000D03*
X156750000Y-100350000D03*
X156750000Y-99850000D03*
X156750000Y-99350000D03*
%TD*%
D15*
%TO.C,JP3*%
X173542500Y-91600000D03*
D16*
X173542500Y-90300000D03*
D17*
X173542500Y-89000000D03*
%TD*%
D18*
%TO.C,C1*%
X147500000Y-104450000D03*
X147500000Y-106000000D03*
%TD*%
D19*
%TO.C,R6*%
X148600000Y-99725000D03*
X148600000Y-98075000D03*
%TD*%
D20*
%TO.C,C10*%
X149500000Y-109525000D03*
X149500000Y-107975000D03*
%TD*%
D21*
%TO.C,R8*%
X159025000Y-104100000D03*
X160675000Y-104100000D03*
%TD*%
D22*
%TO.C,JP2*%
X163600000Y-112100000D03*
D23*
X165300000Y-112100000D03*
%TD*%
D24*
%TO.C,Q1*%
X159850000Y-106162500D03*
X157950000Y-106162500D03*
X158900000Y-108037500D03*
%TD*%
D25*
%TO.C,SW1*%
X163000000Y-105000000D03*
X169500000Y-105000000D03*
X163000000Y-109500000D03*
X169500000Y-109500000D03*
%TD*%
D26*
%TO.C,D1*%
X174700000Y-107450000D03*
X173300000Y-107450000D03*
X174700000Y-104350000D03*
X173300000Y-104350000D03*
%TD*%
D27*
%TO.C,U3*%
X145837500Y-90775000D03*
X145837500Y-91425000D03*
X145837500Y-92075000D03*
X145837500Y-92725000D03*
X145837500Y-93375000D03*
X145837500Y-94025000D03*
X145837500Y-94675000D03*
X145837500Y-95325000D03*
X145837500Y-95975000D03*
X145837500Y-96625000D03*
X151562500Y-96625000D03*
X151562500Y-95975000D03*
X151562500Y-95325000D03*
X151562500Y-94675000D03*
X151562500Y-94025000D03*
X151562500Y-93375000D03*
X151562500Y-92725000D03*
X151562500Y-92075000D03*
X151562500Y-91425000D03*
X151562500Y-90775000D03*
%TD*%
D19*
%TO.C,R4*%
X164400000Y-102775000D03*
X164400000Y-101125000D03*
%TD*%
D28*
%TO.C,C8*%
X145525000Y-99800000D03*
X147075000Y-99800000D03*
%TD*%
D18*
%TO.C,C5*%
X145800000Y-87775000D03*
X145800000Y-89325000D03*
%TD*%
D29*
%TO.C,R9*%
X150250000Y-87725000D03*
X150250000Y-89375000D03*
%TD*%
D30*
%TO.C,H1*%
X123500000Y-99000000D03*
%TD*%
D15*
%TO.C,JP4*%
X177300000Y-91600000D03*
D16*
X177300000Y-90300000D03*
D17*
X177300000Y-89000000D03*
%TD*%
D28*
%TO.C,C9*%
X157325000Y-110500000D03*
X158875000Y-110500000D03*
%TD*%
D29*
%TO.C,R1*%
X173800000Y-100775000D03*
X173800000Y-102425000D03*
%TD*%
D20*
%TO.C,C3*%
X145500000Y-109525000D03*
X145500000Y-107975000D03*
%TD*%
D19*
%TO.C,R3*%
X173200000Y-111125000D03*
X173200000Y-109475000D03*
%TD*%
D20*
%TO.C,C2*%
X147500000Y-109550000D03*
X147500000Y-108000000D03*
%TD*%
D18*
%TO.C,C4*%
X145500000Y-104475000D03*
X145500000Y-106025000D03*
%TD*%
%TO.C,C6*%
X155950000Y-88075000D03*
X155950000Y-89625000D03*
%TD*%
D29*
%TO.C,R2*%
X172100000Y-100800000D03*
X172100000Y-102450000D03*
%TD*%
D30*
%TO.C,H2*%
X178500000Y-99000000D03*
%TD*%
D21*
%TO.C,R5*%
X160475000Y-112100000D03*
X162125000Y-112100000D03*
%TD*%
D31*
%TO.C,J1*%
X168500000Y-93000000D03*
X167500000Y-93000000D03*
X166500000Y-93000000D03*
X165500000Y-93000000D03*
X164500000Y-93000000D03*
X163500000Y-93000000D03*
X162500000Y-93000000D03*
X161500000Y-93000000D03*
X160500000Y-93000000D03*
X159500000Y-93000000D03*
D32*
X169800000Y-89125000D03*
X158200000Y-89125000D03*
%TD*%
D29*
%TO.C,R7*%
X148550000Y-87725000D03*
X148550000Y-89375000D03*
%TD*%
D22*
%TO.C,JP1*%
X166600000Y-112100000D03*
D23*
X168300000Y-112100000D03*
%TD*%
D33*
%TO.C,C7*%
X158875000Y-97550000D03*
X157325000Y-97550000D03*
%TD*%
D21*
%TO.C,R10*%
X145475000Y-98100000D03*
X147125000Y-98100000D03*
%TD*%
D18*
%TO.C,C11*%
X149500000Y-104475000D03*
X149500000Y-106025000D03*
%TD*%
M02*
