%TF.GenerationSoftware,KiCad,Pcbnew,8.0.7*%
%TF.CreationDate,2025-04-13T14:21:12-04:00*%
%TF.ProjectId,radio,72616469-6f2e-46b6-9963-61645f706362,rev?*%
%TF.SameCoordinates,Original*%
%TF.FileFunction,Copper,L1,Top*%
%TF.FilePolarity,Positive*%
%FSLAX46Y46*%
G04 Gerber Fmt 4.6, Leading zero omitted, Abs format (unit mm)*
G04 Created by KiCad (PCBNEW 8.0.7) date 2025-04-13 14:21:12*
%MOMM*%
%LPD*%
G01*
G04 APERTURE LIST*
G04 Aperture macros list*
%AMRoundRect*
0 Rectangle with rounded corners*
0 $1 Rounding radius*
0 $2 $3 $4 $5 $6 $7 $8 $9 X,Y pos of 4 corners*
0 Add a 4 corners polygon primitive as box body*
4,1,4,$2,$3,$4,$5,$6,$7,$8,$9,$2,$3,0*
0 Add four circle primitives for the rounded corners*
1,1,$1+$1,$2,$3*
1,1,$1+$1,$4,$5*
1,1,$1+$1,$6,$7*
1,1,$1+$1,$8,$9*
0 Add four rect primitives between the rounded corners*
20,1,$1+$1,$2,$3,$4,$5,0*
20,1,$1+$1,$4,$5,$6,$7,0*
20,1,$1+$1,$6,$7,$8,$9,0*
20,1,$1+$1,$8,$9,$2,$3,0*%
%AMFreePoly0*
4,1,19,0.550000,-0.750000,0.000000,-0.750000,0.000000,-0.744911,-0.071157,-0.744911,-0.207708,-0.704816,-0.327430,-0.627875,-0.420627,-0.520320,-0.479746,-0.390866,-0.500000,-0.250000,-0.500000,0.250000,-0.479746,0.390866,-0.420627,0.520320,-0.327430,0.627875,-0.207708,0.704816,-0.071157,0.744911,0.000000,0.744911,0.000000,0.750000,0.550000,0.750000,0.550000,-0.750000,0.550000,-0.750000,
$1*%
%AMFreePoly1*
4,1,19,0.000000,0.744911,0.071157,0.744911,0.207708,0.704816,0.327430,0.627875,0.420627,0.520320,0.479746,0.390866,0.500000,0.250000,0.500000,-0.250000,0.479746,-0.390866,0.420627,-0.520320,0.327430,-0.627875,0.207708,-0.704816,0.071157,-0.744911,0.000000,-0.744911,0.000000,-0.750000,-0.550000,-0.750000,-0.550000,0.750000,0.000000,0.750000,0.000000,0.744911,0.000000,0.744911,
$1*%
%AMFreePoly2*
4,1,6,1.037000,0.000000,0.437000,-0.600000,-0.150000,-0.600000,-0.150000,0.600000,0.437000,0.600000,1.037000,0.000000,1.037000,0.000000,$1*%
%AMFreePoly3*
4,1,6,0.150000,-0.600000,-1.037000,-0.600000,-0.437000,0.000000,-1.037000,0.600000,0.150000,0.600000,0.150000,-0.600000,0.150000,-0.600000,$1*%
G04 Aperture macros list end*
%TA.AperFunction,SMDPad,CuDef*%
%ADD10R,1.000000X0.900000*%
%TD*%
%TA.AperFunction,SMDPad,CuDef*%
%ADD11R,0.900000X1.000000*%
%TD*%
%TA.AperFunction,ComponentPad*%
%ADD12C,0.800000*%
%TD*%
%TA.AperFunction,SMDPad,CuDef*%
%ADD13C,0.800000*%
%TD*%
%TA.AperFunction,SMDPad,CuDef*%
%ADD14R,0.800000X0.300000*%
%TD*%
%TA.AperFunction,SMDPad,CuDef*%
%ADD15FreePoly0,90.000000*%
%TD*%
%TA.AperFunction,SMDPad,CuDef*%
%ADD16R,1.500000X1.000000*%
%TD*%
%TA.AperFunction,SMDPad,CuDef*%
%ADD17FreePoly1,90.000000*%
%TD*%
%TA.AperFunction,SMDPad,CuDef*%
%ADD18RoundRect,0.225000X-0.250000X0.225000X-0.250000X-0.225000X0.250000X-0.225000X0.250000X0.225000X0*%
%TD*%
%TA.AperFunction,SMDPad,CuDef*%
%ADD19RoundRect,0.200000X0.275000X-0.200000X0.275000X0.200000X-0.275000X0.200000X-0.275000X-0.200000X0*%
%TD*%
%TA.AperFunction,SMDPad,CuDef*%
%ADD20RoundRect,0.225000X0.250000X-0.225000X0.250000X0.225000X-0.250000X0.225000X-0.250000X-0.225000X0*%
%TD*%
%TA.AperFunction,SMDPad,CuDef*%
%ADD21RoundRect,0.200000X-0.200000X-0.275000X0.200000X-0.275000X0.200000X0.275000X-0.200000X0.275000X0*%
%TD*%
%TA.AperFunction,SMDPad,CuDef*%
%ADD22FreePoly2,0.000000*%
%TD*%
%TA.AperFunction,SMDPad,CuDef*%
%ADD23FreePoly3,0.000000*%
%TD*%
%TA.AperFunction,SMDPad,CuDef*%
%ADD24RoundRect,0.150000X-0.150000X0.587500X-0.150000X-0.587500X0.150000X-0.587500X0.150000X0.587500X0*%
%TD*%
%TA.AperFunction,ComponentPad*%
%ADD25C,1.600000*%
%TD*%
%TA.AperFunction,SMDPad,CuDef*%
%ADD26R,0.900000X1.500000*%
%TD*%
%TA.AperFunction,SMDPad,CuDef*%
%ADD27RoundRect,0.100000X-0.637500X-0.100000X0.637500X-0.100000X0.637500X0.100000X-0.637500X0.100000X0*%
%TD*%
%TA.AperFunction,SMDPad,CuDef*%
%ADD28RoundRect,0.225000X-0.225000X-0.250000X0.225000X-0.250000X0.225000X0.250000X-0.225000X0.250000X0*%
%TD*%
%TA.AperFunction,SMDPad,CuDef*%
%ADD29RoundRect,0.200000X-0.275000X0.200000X-0.275000X-0.200000X0.275000X-0.200000X0.275000X0.200000X0*%
%TD*%
%TA.AperFunction,SMDPad,CuDef*%
%ADD30RoundRect,0.150000X0.150000X0.625000X-0.150000X0.625000X-0.150000X-0.625000X0.150000X-0.625000X0*%
%TD*%
%TA.AperFunction,SMDPad,CuDef*%
%ADD31RoundRect,0.250000X0.350000X0.650000X-0.350000X0.650000X-0.350000X-0.650000X0.350000X-0.650000X0*%
%TD*%
%TA.AperFunction,SMDPad,CuDef*%
%ADD32RoundRect,0.225000X0.225000X0.250000X-0.225000X0.250000X-0.225000X-0.250000X0.225000X-0.250000X0*%
%TD*%
%TA.AperFunction,ViaPad*%
%ADD33C,0.800000*%
%TD*%
%TA.AperFunction,Conductor*%
%ADD34C,0.500000*%
%TD*%
%TA.AperFunction,Conductor*%
%ADD35C,0.250000*%
%TD*%
%TA.AperFunction,Conductor*%
%ADD36C,0.750000*%
%TD*%
G04 APERTURE END LIST*
D10*
%TO.P,U2,A1,RESET_N*%
%TO.N,/RESET_N*%
X142200000Y-111500000D03*
%TO.P,U2,A2,V_INT*%
%TO.N,+1V8*%
X142200000Y-110300000D03*
%TO.P,U2,A3,GND*%
%TO.N,GND*%
X142200000Y-109100000D03*
%TO.P,U2,A4,VCC*%
%TO.N,+3V3*%
X142200000Y-107900000D03*
%TO.P,U2,A5,UART_DTR*%
%TO.N,unconnected-(U2A-UART_DTR-PadA5)*%
X142200000Y-106700000D03*
%TO.P,U2,A6,SWITCH_0*%
%TO.N,/SW0*%
X142200000Y-105500000D03*
%TO.P,U2,A7,RED*%
%TO.N,/RED*%
X142200000Y-104300000D03*
%TO.P,U2,A8,GREEN/SWITCH_1*%
%TO.N,/GRN_SW1*%
X142200000Y-103100000D03*
%TO.P,U2,A9,BLUE*%
%TO.N,/BLUE*%
X142200000Y-101900000D03*
%TO.P,U2,A10,UART_CTS*%
%TO.N,/UART_CTS_1v8*%
X142200000Y-100700000D03*
%TO.P,U2,A11,UART_TXD*%
%TO.N,/UART_TX_1v8*%
X142200000Y-99500000D03*
%TO.P,U2,A12,UART_RTS*%
%TO.N,/UART_RTS_1v8*%
X142200000Y-98300000D03*
%TO.P,U2,A13,UART_RXD*%
%TO.N,/UART_RX_1v8*%
X142200000Y-97100000D03*
%TO.P,U2,A14,RSVD*%
%TO.N,unconnected-(U2A-RSVD-PadA14)*%
X142200000Y-95900000D03*
%TO.P,U2,A15,RSVD*%
%TO.N,unconnected-(U2A-RSVD-PadA15)*%
X142200000Y-94700000D03*
%TO.P,U2,A16,RSVD*%
%TO.N,unconnected-(U2A-RSVD-PadA16)*%
X142200000Y-93500000D03*
%TO.P,U2,A17,RSVD*%
%TO.N,unconnected-(U2A-RSVD-PadA17)*%
X142200000Y-92300000D03*
%TO.P,U2,A18,UART_DSR*%
%TO.N,unconnected-(U2A-UART_DSR-PadA18)*%
X142200000Y-91100000D03*
D11*
%TO.P,U2,B1,RSVD*%
%TO.N,unconnected-(U2A-RSVD-PadB1)*%
X139500000Y-90650000D03*
%TO.P,U2,B2,RSVD*%
%TO.N,unconnected-(U2A-RSVD-PadB2)*%
X138300000Y-90650000D03*
%TO.P,U2,B3,RSVD*%
%TO.N,unconnected-(U2A-RSVD-PadB3)*%
X137100000Y-90650000D03*
%TO.P,U2,B4,RSVD*%
%TO.N,unconnected-(U2A-RSVD-PadB4)*%
X135900000Y-90650000D03*
%TO.P,U2,B5,RSVD*%
%TO.N,unconnected-(U2A-RSVD-PadB5)*%
X134700000Y-90650000D03*
%TO.P,U2,B6,RSVD*%
%TO.N,unconnected-(U2A-RSVD-PadB6)*%
X133500000Y-90650000D03*
%TO.P,U2,B7,RSVD*%
%TO.N,unconnected-(U2A-RSVD-PadB7)*%
X132300000Y-90650000D03*
%TO.P,U2,B8,RSVD*%
%TO.N,unconnected-(U2A-RSVD-PadB8)*%
X131100000Y-90650000D03*
D10*
%TO.P,U2,C1,GND*%
%TO.N,GND*%
X128400000Y-91100000D03*
%TO.P,U2,C2,RSVD*%
%TO.N,unconnected-(U2A-RSVD-PadC2)*%
X128400000Y-92300000D03*
%TO.P,U2,C3,GND*%
%TO.N,GND*%
X128400000Y-93500000D03*
%TO.P,U2,C4,GND*%
X128400000Y-94700000D03*
%TO.P,U2,C5,RSVD*%
%TO.N,unconnected-(U2A-RSVD-PadC5)*%
X128400000Y-95900000D03*
%TO.P,U2,C6,RSVD*%
%TO.N,unconnected-(U2A-RSVD-PadC6)*%
X128400000Y-97100000D03*
%TO.P,U2,C7,GND*%
%TO.N,GND*%
X128400000Y-98300000D03*
%TO.P,U2,C8,RSVD*%
%TO.N,unconnected-(U2A-RSVD-PadC8)*%
X128400000Y-99500000D03*
%TO.P,U2,C9,RSVD*%
%TO.N,unconnected-(U2A-RSVD-PadC9)*%
X128400000Y-100700000D03*
%TO.P,U2,C10,RSVD*%
%TO.N,unconnected-(U2A-RSVD-PadC10)*%
X128400000Y-101900000D03*
%TO.P,U2,C11,RSVD*%
%TO.N,unconnected-(U2A-RSVD-PadC11)*%
X128400000Y-103100000D03*
%TO.P,U2,C12,RSVD*%
%TO.N,unconnected-(U2A-RSVD-PadC12)*%
X128400000Y-104300000D03*
%TO.P,U2,C13,RSVD*%
%TO.N,unconnected-(U2A-RSVD-PadC13)*%
X128400000Y-105500000D03*
%TO.P,U2,C14,RMII_MDC*%
%TO.N,unconnected-(U2A-RMII_MDC-PadC14)*%
X128400000Y-106700000D03*
%TO.P,U2,C15,RMII_MDO*%
%TO.N,unconnected-(U2A-RMII_MDO-PadC15)*%
X128400000Y-107900000D03*
%TO.P,U2,C16,LPO_CLK*%
%TO.N,unconnected-(U2A-LPO_CLK-PadC16)*%
X128400000Y-109100000D03*
%TO.P,U2,C17,RSVD*%
%TO.N,unconnected-(U2A-RSVD-PadC17)*%
X128400000Y-110300000D03*
%TO.P,U2,C18,RSVD*%
%TO.N,unconnected-(U2A-RSVD-PadC18)*%
X128400000Y-111500000D03*
D11*
%TO.P,U2,D1,RMII_TXD0*%
%TO.N,unconnected-(U2A-RMII_TXD0-PadD1)*%
X131100000Y-111950000D03*
%TO.P,U2,D2,RMII_TXD1*%
%TO.N,unconnected-(U2A-RMII_TXD1-PadD2)*%
X132300000Y-111950000D03*
%TO.P,U2,D3,RMII_TXEN*%
%TO.N,unconnected-(U2A-RMII_TXEN-PadD3)*%
X133500000Y-111950000D03*
%TO.P,U2,D4,RMII_CRSDV*%
%TO.N,unconnected-(U2A-RMII_CRSDV-PadD4)*%
X134700000Y-111950000D03*
%TO.P,U2,D5,RMII_RXD0*%
%TO.N,unconnected-(U2A-RMII_RXD0-PadD5)*%
X135900000Y-111950000D03*
%TO.P,U2,D6,RMII_RXD1*%
%TO.N,unconnected-(U2A-RMII_RXD1-PadD6)*%
X137100000Y-111950000D03*
%TO.P,U2,D7,GND*%
%TO.N,GND*%
X138300000Y-111950000D03*
%TO.P,U2,D8,RMII_REFCLK*%
%TO.N,unconnected-(U2A-RMII_REFCLK-PadD8)*%
X139500000Y-111950000D03*
D12*
%TO.P,U2,G1,GND*%
%TO.N,GND*%
X141000000Y-94700000D03*
%TO.P,U2,G2,GND*%
X141000000Y-93500000D03*
%TO.P,U2,G3,GND*%
X141000000Y-92300000D03*
%TO.P,U2,G4,GND*%
X141000000Y-91100000D03*
%TO.P,U2,G5,GND*%
X139500000Y-91850000D03*
%TO.P,U2,G6,GND*%
X138300000Y-91850000D03*
%TO.P,U2,G7,GND*%
X137100000Y-91850000D03*
%TO.P,U2,G8,GND*%
X135900000Y-91850000D03*
%TO.P,U2,G9,GND*%
X134700000Y-91850000D03*
%TO.P,U2,G10,GND*%
X133500000Y-91850000D03*
%TO.P,U2,G11,GND*%
X132300000Y-91850000D03*
%TO.P,U2,G12,GND*%
X131100000Y-91850000D03*
%TO.P,U2,G13,GND*%
X129600000Y-91100000D03*
%TO.P,U2,G14,GND*%
X129600000Y-92300000D03*
%TO.P,U2,G15,GND*%
X129600000Y-93500000D03*
%TO.P,U2,G16,GND*%
X129600000Y-94700000D03*
%TO.P,U2,G17,GND*%
X131100000Y-110750000D03*
%TO.P,U2,G18,GND*%
X132300000Y-110750000D03*
%TO.P,U2,G19,GND*%
X133500000Y-110750000D03*
%TO.P,U2,G20,GND*%
X134700000Y-110750000D03*
%TO.P,U2,G21,GND*%
X135900000Y-110750000D03*
%TO.P,U2,G22,GND*%
X137100000Y-110750000D03*
%TO.P,U2,G23,GND*%
X138300000Y-110750000D03*
%TO.P,U2,G24,GND*%
X139500000Y-110750000D03*
%TO.P,U2,G25,GND*%
X136840000Y-95900000D03*
%TO.P,U2,G26,GND*%
X136000000Y-94100000D03*
%TO.P,U2,G27,GND*%
X134600000Y-94100000D03*
%TO.P,U2,G28,GND*%
X133760000Y-95900000D03*
%TO.P,U2,G29,GND*%
X133760000Y-99500000D03*
%TO.P,U2,G30,GND*%
X133760000Y-101300000D03*
%TO.P,U2,G31,GND*%
X133760000Y-103100000D03*
%TO.P,U2,G32,GND*%
X133760000Y-104900000D03*
%TO.P,U2,G33,GND*%
X135300000Y-104900000D03*
%TO.P,U2,G34,GND*%
X135300000Y-103100000D03*
%TO.P,U2,G35,GND*%
X135300000Y-101300000D03*
%TO.P,U2,G36,GND*%
X136840000Y-99500000D03*
%TO.P,U2,G37,GND*%
X136840000Y-101300000D03*
%TO.P,U2,G38,GND*%
X136840000Y-103100000D03*
%TO.P,U2,G39,GND*%
X136840000Y-104900000D03*
D13*
%TO.P,U2,TP1*%
%TO.N,N/C*%
X141000000Y-98810000D03*
%TO.P,U2,TP2*%
X129600000Y-98810000D03*
%TO.P,U2,TP3*%
X141000000Y-101350000D03*
%TO.P,U2,TP4*%
X129600000Y-101350000D03*
%TO.P,U2,TP5*%
X141000000Y-103890000D03*
%TO.P,U2,TP6*%
X129600000Y-103890000D03*
%TO.P,U2,TP7*%
X141000000Y-106430000D03*
%TO.P,U2,TP8*%
X129600000Y-106430000D03*
%TO.P,U2,TP9*%
X141000000Y-108970000D03*
%TO.P,U2,TP10*%
X129600000Y-108970000D03*
%TO.P,U2,TP11*%
X141000000Y-111510000D03*
%TO.P,U2,TP12*%
X129600000Y-111510000D03*
%TD*%
D14*
%TO.P,U1,1*%
%TO.N,/BLUE*%
X153650000Y-99350000D03*
%TO.P,U1,2*%
%TO.N,/GRN_B*%
X153650000Y-99850000D03*
%TO.P,U1,3*%
%TO.N,/RED*%
X153650000Y-100350000D03*
%TO.P,U1,4,GND*%
%TO.N,GND*%
X153650000Y-100850000D03*
%TO.P,U1,5*%
%TO.N,/RED_B*%
X156750000Y-100850000D03*
%TO.P,U1,6*%
%TO.N,/GRN_SW1*%
X156750000Y-100350000D03*
%TO.P,U1,7*%
%TO.N,/BLUE_B*%
X156750000Y-99850000D03*
%TO.P,U1,8,VCC*%
%TO.N,+1V8*%
X156750000Y-99350000D03*
%TD*%
D15*
%TO.P,JP3,1,A*%
%TO.N,/UART_CTS_3v3*%
X173542500Y-91600000D03*
D16*
%TO.P,JP3,2,C*%
%TO.N,/RADIO_RTS_3v3*%
X173542500Y-90300000D03*
D17*
%TO.P,JP3,3,B*%
%TO.N,/UART_RTS_3v3*%
X173542500Y-89000000D03*
%TD*%
D18*
%TO.P,C1,1*%
%TO.N,GND*%
X147500000Y-104450000D03*
%TO.P,C1,2*%
%TO.N,+3V3*%
X147500000Y-106000000D03*
%TD*%
D19*
%TO.P,R6,1*%
%TO.N,GND*%
X148600000Y-99725000D03*
%TO.P,R6,2*%
%TO.N,+1V8*%
X148600000Y-98075000D03*
%TD*%
D20*
%TO.P,C10,1*%
%TO.N,GND*%
X149500000Y-109525000D03*
%TO.P,C10,2*%
%TO.N,+3V3*%
X149500000Y-107975000D03*
%TD*%
D21*
%TO.P,R8,1*%
%TO.N,GND*%
X159025000Y-104100000D03*
%TO.P,R8,2*%
%TO.N,/RST_3v3*%
X160675000Y-104100000D03*
%TD*%
D22*
%TO.P,JP2,1,A*%
%TO.N,Net-(JP2-A)*%
X163600000Y-112100000D03*
D23*
%TO.P,JP2,2,B*%
%TO.N,GND*%
X165300000Y-112100000D03*
%TD*%
D24*
%TO.P,Q1,1,G*%
%TO.N,/RST_3v3*%
X159850000Y-106162500D03*
%TO.P,Q1,2,S*%
%TO.N,GND*%
X157950000Y-106162500D03*
%TO.P,Q1,3,D*%
%TO.N,/RESET_N*%
X158900000Y-108037500D03*
%TD*%
D25*
%TO.P,SW1,1,1*%
%TO.N,/RESET_N*%
X163000000Y-105000000D03*
%TO.P,SW1,2,2*%
%TO.N,unconnected-(SW1-Pad2)*%
X169500000Y-105000000D03*
%TO.P,SW1,3,3*%
%TO.N,unconnected-(SW1-Pad3)*%
X163000000Y-109500000D03*
%TO.P,SW1,4,4*%
%TO.N,GND*%
X169500000Y-109500000D03*
%TD*%
D26*
%TO.P,D1,1,A*%
%TO.N,+3V3*%
X174700000Y-107450000D03*
%TO.P,D1,2,BK*%
%TO.N,/LED_B_CL*%
X173300000Y-107450000D03*
%TO.P,D1,3,RK*%
%TO.N,/LED_R_CL*%
X174700000Y-104350000D03*
%TO.P,D1,4,GK*%
%TO.N,/LED_G_CL*%
X173300000Y-104350000D03*
%TD*%
D27*
%TO.P,U3,1,A1*%
%TO.N,/UART_RTS_1v8*%
X145837500Y-90775000D03*
%TO.P,U3,2,VCCA*%
%TO.N,+1V8*%
X145837500Y-91425000D03*
%TO.P,U3,3,A2*%
%TO.N,/UART_CTS_1v8*%
X145837500Y-92075000D03*
%TO.P,U3,4,A3*%
%TO.N,/UART_RX_1v8*%
X145837500Y-92725000D03*
%TO.P,U3,5,A4*%
%TO.N,/UART_TX_1v8*%
X145837500Y-93375000D03*
%TO.P,U3,6,A5*%
%TO.N,Net-(U3-A5)*%
X145837500Y-94025000D03*
%TO.P,U3,7,A6*%
X145837500Y-94675000D03*
%TO.P,U3,8,A7*%
X145837500Y-95325000D03*
%TO.P,U3,9,A8*%
X145837500Y-95975000D03*
%TO.P,U3,10,OE*%
%TO.N,Net-(U3-OE)*%
X145837500Y-96625000D03*
%TO.P,U3,11,GND*%
%TO.N,GND*%
X151562500Y-96625000D03*
%TO.P,U3,12,B8*%
%TO.N,Net-(U3-B5)*%
X151562500Y-95975000D03*
%TO.P,U3,13,B7*%
X151562500Y-95325000D03*
%TO.P,U3,14,B6*%
X151562500Y-94675000D03*
%TO.P,U3,15,B5*%
X151562500Y-94025000D03*
%TO.P,U3,16,B4*%
%TO.N,/UART_TX_3v3*%
X151562500Y-93375000D03*
%TO.P,U3,17,B3*%
%TO.N,/UART_RX_3v3*%
X151562500Y-92725000D03*
%TO.P,U3,18,B2*%
%TO.N,/RADIO_CTS_3v3*%
X151562500Y-92075000D03*
%TO.P,U3,19,VCCB*%
%TO.N,+3V3*%
X151562500Y-91425000D03*
%TO.P,U3,20,B1*%
%TO.N,/RADIO_RTS_3v3*%
X151562500Y-90775000D03*
%TD*%
D19*
%TO.P,R4,1*%
%TO.N,Net-(JP1-A)*%
X164400000Y-102775000D03*
%TO.P,R4,2*%
%TO.N,/GRN_SW1*%
X164400000Y-101125000D03*
%TD*%
D28*
%TO.P,C8,1*%
%TO.N,Net-(U3-OE)*%
X145525000Y-99800000D03*
%TO.P,C8,2*%
%TO.N,GND*%
X147075000Y-99800000D03*
%TD*%
D18*
%TO.P,C5,1*%
%TO.N,GND*%
X145800000Y-87775000D03*
%TO.P,C5,2*%
%TO.N,+1V8*%
X145800000Y-89325000D03*
%TD*%
D29*
%TO.P,R9,1*%
%TO.N,GND*%
X150250000Y-87725000D03*
%TO.P,R9,2*%
%TO.N,Net-(U3-B5)*%
X150250000Y-89375000D03*
%TD*%
D15*
%TO.P,JP4,1,A*%
%TO.N,/UART_CTS_3v3*%
X177300000Y-91600000D03*
D16*
%TO.P,JP4,2,C*%
%TO.N,/RADIO_CTS_3v3*%
X177300000Y-90300000D03*
D17*
%TO.P,JP4,3,B*%
%TO.N,/UART_RTS_3v3*%
X177300000Y-89000000D03*
%TD*%
D28*
%TO.P,C9,1*%
%TO.N,GND*%
X157325000Y-110500000D03*
%TO.P,C9,2*%
%TO.N,/RESET_N*%
X158875000Y-110500000D03*
%TD*%
D29*
%TO.P,R1,1*%
%TO.N,/RED_B*%
X173800000Y-100775000D03*
%TO.P,R1,2*%
%TO.N,/LED_R_CL*%
X173800000Y-102425000D03*
%TD*%
D20*
%TO.P,C3,1*%
%TO.N,GND*%
X145500000Y-109525000D03*
%TO.P,C3,2*%
%TO.N,+3V3*%
X145500000Y-107975000D03*
%TD*%
D19*
%TO.P,R3,1*%
%TO.N,/BLUE_B*%
X173200000Y-111125000D03*
%TO.P,R3,2*%
%TO.N,/LED_B_CL*%
X173200000Y-109475000D03*
%TD*%
D20*
%TO.P,C2,1*%
%TO.N,GND*%
X147500000Y-109550000D03*
%TO.P,C2,2*%
%TO.N,+3V3*%
X147500000Y-108000000D03*
%TD*%
D18*
%TO.P,C4,1*%
%TO.N,GND*%
X145500000Y-104475000D03*
%TO.P,C4,2*%
%TO.N,+3V3*%
X145500000Y-106025000D03*
%TD*%
%TO.P,C6,1*%
%TO.N,GND*%
X155950000Y-88075000D03*
%TO.P,C6,2*%
%TO.N,+3V3*%
X155950000Y-89625000D03*
%TD*%
D29*
%TO.P,R2,1*%
%TO.N,/GRN_B*%
X172100000Y-100800000D03*
%TO.P,R2,2*%
%TO.N,/LED_G_CL*%
X172100000Y-102450000D03*
%TD*%
D21*
%TO.P,R5,1*%
%TO.N,/SW0*%
X160475000Y-112100000D03*
%TO.P,R5,2*%
%TO.N,Net-(JP2-A)*%
X162125000Y-112100000D03*
%TD*%
D30*
%TO.P,J1,1,Pin_1*%
%TO.N,GND*%
X168500000Y-93000000D03*
%TO.P,J1,2,Pin_2*%
X167500000Y-93000000D03*
%TO.P,J1,3,Pin_3*%
%TO.N,/UART_RTS_3v3*%
X166500000Y-93000000D03*
%TO.P,J1,4,Pin_4*%
%TO.N,/UART_CTS_3v3*%
X165500000Y-93000000D03*
%TO.P,J1,5,Pin_5*%
%TO.N,/UART_TX_3v3*%
X164500000Y-93000000D03*
%TO.P,J1,6,Pin_6*%
%TO.N,/UART_RX_3v3*%
X163500000Y-93000000D03*
%TO.P,J1,7,Pin_7*%
%TO.N,/BOOT0_3v3*%
X162500000Y-93000000D03*
%TO.P,J1,8,Pin_8*%
%TO.N,/RST_3v3*%
X161500000Y-93000000D03*
%TO.P,J1,9,Pin_9*%
%TO.N,+3V3*%
X160500000Y-93000000D03*
%TO.P,J1,10,Pin_10*%
%TO.N,+5V*%
X159500000Y-93000000D03*
D31*
%TO.P,J1,MP*%
%TO.N,N/C*%
X169800000Y-89125000D03*
X158200000Y-89125000D03*
%TD*%
D29*
%TO.P,R7,1*%
%TO.N,GND*%
X148550000Y-87725000D03*
%TO.P,R7,2*%
%TO.N,Net-(U3-A5)*%
X148550000Y-89375000D03*
%TD*%
D22*
%TO.P,JP1,1,A*%
%TO.N,Net-(JP1-A)*%
X166600000Y-112100000D03*
D23*
%TO.P,JP1,2,B*%
%TO.N,GND*%
X168300000Y-112100000D03*
%TD*%
D32*
%TO.P,C7,1*%
%TO.N,GND*%
X158875000Y-97550000D03*
%TO.P,C7,2*%
%TO.N,+1V8*%
X157325000Y-97550000D03*
%TD*%
D21*
%TO.P,R10,1*%
%TO.N,Net-(U3-OE)*%
X145475000Y-98100000D03*
%TO.P,R10,2*%
%TO.N,+1V8*%
X147125000Y-98100000D03*
%TD*%
D18*
%TO.P,C11,1*%
%TO.N,GND*%
X149500000Y-104475000D03*
%TO.P,C11,2*%
%TO.N,+3V3*%
X149500000Y-106025000D03*
%TD*%
D33*
%TO.N,GND*%
X167550000Y-110750000D03*
X127250000Y-93500000D03*
X147500000Y-110750000D03*
X149500000Y-110750000D03*
X144500000Y-87800000D03*
X154450000Y-87950000D03*
X156150000Y-106150000D03*
X155750000Y-110550000D03*
X168500000Y-91500000D03*
X127150000Y-91100000D03*
X149500000Y-103200000D03*
X165300000Y-110750000D03*
X159100000Y-96250000D03*
X167500000Y-91500000D03*
X138350000Y-113300000D03*
X150050000Y-98824500D03*
X153700000Y-101850000D03*
X151500000Y-87700000D03*
X127150000Y-97450000D03*
X170750000Y-111700000D03*
X127250000Y-94700000D03*
X153450000Y-96650000D03*
X145500000Y-110750000D03*
X147500000Y-103250000D03*
X145500000Y-103250000D03*
%TO.N,+3V3*%
X154050000Y-91499500D03*
X154050000Y-89750000D03*
%TO.N,+1V8*%
X140950000Y-95950000D03*
X143400000Y-91450000D03*
%TO.N,/UART_TX_3v3*%
X164100000Y-95000000D03*
X159525500Y-95000000D03*
%TO.N,/UART_RX_3v3*%
X163500000Y-90750000D03*
X157250000Y-92200000D03*
%TO.N,/RST_3v3*%
X161750000Y-97175500D03*
X161750000Y-98650000D03*
%TO.N,/GRN_SW1*%
X162450000Y-100350000D03*
X143900000Y-102700000D03*
X146500000Y-102500000D03*
X159050000Y-100300000D03*
%TO.N,/SW0*%
X143650000Y-105600000D03*
X143750000Y-112300000D03*
%TO.N,/RADIO_RTS_3v3*%
X173500000Y-87200000D03*
X173542500Y-90300000D03*
%TO.N,/UART_CTS_1v8*%
X144100000Y-100050000D03*
X148450000Y-96600000D03*
%TO.N,/UART_RTS_1v8*%
X140850000Y-97200000D03*
X144100000Y-90700000D03*
%TO.N,/RADIO_CTS_3v3*%
X164400000Y-90000000D03*
X155800000Y-91650000D03*
%TO.N,Net-(U3-A5)*%
X148400000Y-90750000D03*
X147400000Y-93450000D03*
%TO.N,/RED_B*%
X163850000Y-107000000D03*
X167450000Y-108000000D03*
X171600000Y-108000000D03*
X154850000Y-107150000D03*
X173800000Y-99400000D03*
X155462701Y-102862701D03*
X165875500Y-108000000D03*
X161850000Y-106950000D03*
%TO.N,/GRN_B*%
X151838190Y-100438190D03*
X161450000Y-102350000D03*
X157000000Y-102350000D03*
X152600000Y-103924500D03*
%TO.N,/BLUE_B*%
X159525500Y-99200000D03*
X171600000Y-104100000D03*
X162493970Y-99317468D03*
X171600000Y-99300000D03*
%TD*%
D34*
%TO.N,GND*%
X167500000Y-93000000D02*
X167500000Y-91500000D01*
X168500000Y-93000000D02*
X168500000Y-91500000D01*
D35*
X159100000Y-96250000D02*
X158875000Y-96475000D01*
X128400000Y-91100000D02*
X127150000Y-91100000D01*
X151562500Y-96625000D02*
X153425000Y-96625000D01*
X128400000Y-94700000D02*
X127250000Y-94700000D01*
X159025000Y-105087500D02*
X157950000Y-106162500D01*
D36*
X147500000Y-109550000D02*
X147500000Y-110750000D01*
D34*
X142200000Y-109100000D02*
X145075000Y-109100000D01*
D36*
X149500000Y-103250000D02*
X149500000Y-103200000D01*
X149500000Y-104475000D02*
X149500000Y-103250000D01*
X145500000Y-109525000D02*
X145500000Y-110750000D01*
D35*
X155950000Y-88075000D02*
X154575000Y-88075000D01*
X155800000Y-110500000D02*
X155750000Y-110550000D01*
X159025000Y-104100000D02*
X159025000Y-105087500D01*
X168300000Y-111500000D02*
X167550000Y-110750000D01*
X138300000Y-113250000D02*
X138350000Y-113300000D01*
X148600000Y-99725000D02*
X149149500Y-99725000D01*
X148600000Y-99725000D02*
X147150000Y-99725000D01*
X157950000Y-106162500D02*
X156162500Y-106162500D01*
X168300000Y-112100000D02*
X168300000Y-111500000D01*
D34*
X145075000Y-109100000D02*
X145500000Y-109525000D01*
D35*
X153425000Y-96625000D02*
X153450000Y-96650000D01*
X128400000Y-98300000D02*
X128000000Y-98300000D01*
D36*
X149500000Y-109525000D02*
X149500000Y-110750000D01*
D35*
X150250000Y-87725000D02*
X151475000Y-87725000D01*
X138300000Y-111950000D02*
X138300000Y-113250000D01*
X154575000Y-88075000D02*
X154450000Y-87950000D01*
D36*
X147500000Y-104450000D02*
X147500000Y-103250000D01*
D35*
X156162500Y-106162500D02*
X156150000Y-106150000D01*
X153650000Y-101800000D02*
X153700000Y-101850000D01*
X128000000Y-98300000D02*
X127150000Y-97450000D01*
X147150000Y-99725000D02*
X147075000Y-99800000D01*
X151475000Y-87725000D02*
X151500000Y-87700000D01*
X148550000Y-87725000D02*
X150250000Y-87725000D01*
X169500000Y-109500000D02*
X170750000Y-110750000D01*
X149149500Y-99725000D02*
X150050000Y-98824500D01*
X128400000Y-93500000D02*
X127250000Y-93500000D01*
X170750000Y-110750000D02*
X170750000Y-111700000D01*
X165300000Y-112100000D02*
X165300000Y-110750000D01*
X144525000Y-87775000D02*
X144500000Y-87800000D01*
X153650000Y-100850000D02*
X153650000Y-101800000D01*
X157325000Y-110500000D02*
X155800000Y-110500000D01*
D36*
X145500000Y-104475000D02*
X145500000Y-103250000D01*
D35*
X158875000Y-96475000D02*
X158875000Y-97550000D01*
X145800000Y-87775000D02*
X144525000Y-87775000D01*
D36*
%TO.N,+3V3*%
X147475000Y-106025000D02*
X147500000Y-106000000D01*
X154750000Y-106000000D02*
X160500000Y-100250000D01*
X160500000Y-97800000D02*
X160500000Y-93000000D01*
X149500000Y-106025000D02*
X149555692Y-106025000D01*
D35*
X155825000Y-89750000D02*
X155950000Y-89625000D01*
D36*
X142200000Y-107900000D02*
X145449520Y-107900000D01*
D35*
X160500000Y-97800000D02*
X160600000Y-97900000D01*
X174800000Y-100900000D02*
X175475000Y-101575000D01*
X154050000Y-89750000D02*
X155825000Y-89750000D01*
D36*
X149580692Y-106000000D02*
X154750000Y-106000000D01*
X145449520Y-107900000D02*
X145500000Y-107950480D01*
D35*
X173800000Y-97900000D02*
X174800000Y-98900000D01*
D36*
X145500000Y-106025000D02*
X147475000Y-106025000D01*
D35*
X153975500Y-91425000D02*
X154050000Y-91499500D01*
X156775000Y-89625000D02*
X155950000Y-89625000D01*
X175475000Y-106675000D02*
X174700000Y-107450000D01*
X175475000Y-101575000D02*
X175475000Y-106675000D01*
X160600000Y-97900000D02*
X173800000Y-97900000D01*
D36*
X149475000Y-106000000D02*
X149500000Y-106025000D01*
X145500000Y-107975000D02*
X149500000Y-107975000D01*
X147500000Y-106000000D02*
X149475000Y-106000000D01*
D35*
X151562500Y-91425000D02*
X153975500Y-91425000D01*
D36*
X160500000Y-100250000D02*
X160500000Y-97800000D01*
X149555692Y-106025000D02*
X149580692Y-106000000D01*
D35*
X157499520Y-90349520D02*
X156775000Y-89625000D01*
X160500000Y-91500000D02*
X159349520Y-90349520D01*
D36*
X145500000Y-106025000D02*
X145500000Y-107975000D01*
D35*
X174800000Y-98900000D02*
X174800000Y-100900000D01*
X160500000Y-93000000D02*
X160500000Y-91500000D01*
X159349520Y-90349520D02*
X157499520Y-90349520D01*
%TO.N,+1V8*%
X156050000Y-97550000D02*
X155500000Y-98100000D01*
X141925489Y-110025489D02*
X140275489Y-110025489D01*
X139650000Y-109400000D02*
X139650000Y-97250000D01*
X148575000Y-98100000D02*
X148600000Y-98075000D01*
X145812500Y-91450000D02*
X145837500Y-91425000D01*
X145837500Y-91425000D02*
X146525361Y-91425000D01*
X139650000Y-97250000D02*
X140950000Y-95950000D01*
X147250000Y-90775000D02*
X147250000Y-91400000D01*
X146550361Y-91400000D02*
X147250000Y-91400000D01*
X148625000Y-98100000D02*
X155500000Y-98100000D01*
X147125000Y-98100000D02*
X148575000Y-98100000D01*
X140275489Y-110025489D02*
X139650000Y-109400000D01*
X145800000Y-89325000D02*
X147250000Y-90775000D01*
X155500000Y-98100000D02*
X156750000Y-99350000D01*
X149300000Y-93000000D02*
X149300000Y-97375000D01*
X142200000Y-110300000D02*
X141925489Y-110025489D01*
X143400000Y-91450000D02*
X145812500Y-91450000D01*
X147700000Y-91400000D02*
X149300000Y-93000000D01*
X147250000Y-91400000D02*
X147700000Y-91400000D01*
X148600000Y-98075000D02*
X148625000Y-98100000D01*
X157325000Y-97550000D02*
X156050000Y-97550000D01*
X149300000Y-97375000D02*
X148600000Y-98075000D01*
X146525361Y-91425000D02*
X146550361Y-91400000D01*
%TO.N,Net-(U3-OE)*%
X145837500Y-96625000D02*
X145775000Y-96625000D01*
X145775000Y-96625000D02*
X145475000Y-96925000D01*
X145525000Y-98150000D02*
X145475000Y-98100000D01*
X145475000Y-96925000D02*
X145475000Y-98100000D01*
X145525000Y-99800000D02*
X145525000Y-98150000D01*
%TO.N,/RESET_N*%
X158900000Y-108037500D02*
X158900000Y-110475000D01*
X163000000Y-105000000D02*
X163000000Y-106950000D01*
X163000000Y-106950000D02*
X161912500Y-108037500D01*
X157875000Y-111500000D02*
X158875000Y-110500000D01*
X142200000Y-111500000D02*
X157875000Y-111500000D01*
X161912500Y-108037500D02*
X158900000Y-108037500D01*
X158900000Y-110475000D02*
X158875000Y-110500000D01*
%TO.N,/UART_RTS_3v3*%
X171500000Y-90200000D02*
X172700000Y-89000000D01*
X170200000Y-94500000D02*
X171500000Y-93200000D01*
X166500000Y-94100000D02*
X166900000Y-94500000D01*
X166900000Y-94500000D02*
X170200000Y-94500000D01*
X177300000Y-89000000D02*
X173542500Y-89000000D01*
X171500000Y-93200000D02*
X171500000Y-90200000D01*
X172700000Y-89000000D02*
X173542500Y-89000000D01*
X166500000Y-93000000D02*
X166500000Y-94100000D01*
%TO.N,/UART_CTS_3v3*%
X173542500Y-91600000D02*
X172300000Y-91600000D01*
X171950000Y-93386396D02*
X170386396Y-94950000D01*
X172300000Y-91600000D02*
X171950000Y-91950000D01*
X173542500Y-91600000D02*
X177300000Y-91600000D01*
X171950000Y-91950000D02*
X171950000Y-93386396D01*
X170386396Y-94950000D02*
X166713604Y-94950000D01*
X166713604Y-94950000D02*
X165500000Y-93736396D01*
X165500000Y-93736396D02*
X165500000Y-93000000D01*
%TO.N,/UART_TX_3v3*%
X153125000Y-93375000D02*
X151562500Y-93375000D01*
X164500000Y-94600000D02*
X164500000Y-93000000D01*
X164100000Y-95000000D02*
X164500000Y-94600000D01*
X154750000Y-95000000D02*
X153125000Y-93375000D01*
X159525500Y-95000000D02*
X154750000Y-95000000D01*
%TO.N,/UART_RX_3v3*%
X151562500Y-92725000D02*
X156725000Y-92725000D01*
X156725000Y-92725000D02*
X157250000Y-92200000D01*
X163500000Y-90750000D02*
X163500000Y-93000000D01*
%TO.N,/RST_3v3*%
X161750000Y-97175500D02*
X161500000Y-96925500D01*
X161500000Y-96925500D02*
X161500000Y-93000000D01*
X160675000Y-104100000D02*
X160675000Y-101064270D01*
X161700000Y-97000000D02*
X161750000Y-97050000D01*
X160675000Y-105337500D02*
X159850000Y-106162500D01*
X161750000Y-97050000D02*
X161750000Y-97175500D01*
X160675000Y-104100000D02*
X160675000Y-105337500D01*
X160675000Y-101064270D02*
X161750000Y-99989270D01*
X161750000Y-99989270D02*
X161750000Y-98650000D01*
%TO.N,/GRN_SW1*%
X143500000Y-103100000D02*
X143900000Y-102700000D01*
X156750000Y-100350000D02*
X159000000Y-100350000D01*
X149975489Y-102475489D02*
X150400000Y-102900000D01*
X146500000Y-102500000D02*
X146524511Y-102475489D01*
X156050978Y-100350000D02*
X156750000Y-100350000D01*
X142200000Y-103100000D02*
X143500000Y-103100000D01*
X162450000Y-100350000D02*
X163625000Y-100350000D01*
X146524511Y-102475489D02*
X149975489Y-102475489D01*
X154700000Y-102500000D02*
X154700000Y-101700978D01*
X163625000Y-100350000D02*
X164400000Y-101125000D01*
X154300000Y-102900000D02*
X154700000Y-102500000D01*
X150400000Y-102900000D02*
X154300000Y-102900000D01*
X159000000Y-100350000D02*
X159050000Y-100300000D01*
X154700000Y-101700978D02*
X156050978Y-100350000D01*
%TO.N,/SW0*%
X160275000Y-112300000D02*
X160475000Y-112100000D01*
X143750000Y-112300000D02*
X160275000Y-112300000D01*
X142200000Y-105500000D02*
X143550000Y-105500000D01*
X143550000Y-105500000D02*
X143650000Y-105600000D01*
%TO.N,Net-(JP1-A)*%
X164400000Y-103100000D02*
X166600000Y-105300000D01*
X164400000Y-102775000D02*
X164400000Y-103100000D01*
X166600000Y-105300000D02*
X166600000Y-112100000D01*
%TO.N,Net-(JP2-A)*%
X163600000Y-112100000D02*
X162125000Y-112100000D01*
%TO.N,/BLUE*%
X151750000Y-99350000D02*
X150100000Y-101000000D01*
X143700000Y-101000000D02*
X142800000Y-101900000D01*
X150100000Y-101000000D02*
X143700000Y-101000000D01*
X142800000Y-101900000D02*
X142200000Y-101900000D01*
X153650000Y-99350000D02*
X151750000Y-99350000D01*
%TO.N,/RED*%
X153650000Y-100350000D02*
X152950978Y-100350000D01*
X143400000Y-104300000D02*
X142200000Y-104300000D01*
X146100000Y-101600000D02*
X143400000Y-104300000D01*
X152950978Y-100350000D02*
X151700978Y-101600000D01*
X151700978Y-101600000D02*
X146100000Y-101600000D01*
%TO.N,/RADIO_RTS_3v3*%
X153000000Y-90600000D02*
X153000000Y-88374695D01*
X154174695Y-87200000D02*
X173500000Y-87200000D01*
X152825000Y-90775000D02*
X153000000Y-90600000D01*
X151562500Y-90775000D02*
X152825000Y-90775000D01*
X153000000Y-88374695D02*
X154174695Y-87200000D01*
%TO.N,/UART_CTS_1v8*%
X145837500Y-92075000D02*
X147350402Y-92075000D01*
X144100000Y-100050000D02*
X143850000Y-100050000D01*
X143200000Y-100700000D02*
X142200000Y-100700000D01*
X143850000Y-100050000D02*
X143200000Y-100700000D01*
X148450000Y-93174598D02*
X148450000Y-96600000D01*
X147350402Y-92075000D02*
X148450000Y-93174598D01*
%TO.N,/UART_TX_1v8*%
X145149639Y-93375000D02*
X143700000Y-94824639D01*
X145837500Y-93375000D02*
X145149639Y-93375000D01*
X143700000Y-98224511D02*
X142424511Y-99500000D01*
X142424511Y-99500000D02*
X142200000Y-99500000D01*
X143700000Y-94824639D02*
X143700000Y-98224511D01*
%TO.N,/UART_RTS_1v8*%
X142200000Y-98300000D02*
X141950000Y-98300000D01*
X145762500Y-90700000D02*
X145837500Y-90775000D01*
X141950000Y-98300000D02*
X140850000Y-97200000D01*
X144100000Y-90700000D02*
X145762500Y-90700000D01*
%TO.N,/UART_RX_1v8*%
X143875000Y-92725000D02*
X143250000Y-93350000D01*
X143250000Y-96449022D02*
X142599022Y-97100000D01*
X143250000Y-93350000D02*
X143250000Y-96449022D01*
X142599022Y-97100000D02*
X142200000Y-97100000D01*
X145837500Y-92725000D02*
X143875000Y-92725000D01*
%TO.N,/RADIO_CTS_3v3*%
X178600000Y-88500000D02*
X178600000Y-89900000D01*
X178600000Y-89900000D02*
X178200000Y-90300000D01*
X153801366Y-92275480D02*
X155174520Y-92275480D01*
X164400000Y-90000000D02*
X165100000Y-90700000D01*
X172500000Y-88000000D02*
X178100000Y-88000000D01*
X171050000Y-90250000D02*
X171050000Y-90013604D01*
X165100000Y-90700000D02*
X170600000Y-90700000D01*
X178200000Y-90300000D02*
X177300000Y-90300000D01*
X153600886Y-92075000D02*
X153801366Y-92275480D01*
X171400000Y-89100000D02*
X172500000Y-88000000D01*
X178100000Y-88000000D02*
X178600000Y-88500000D01*
X170600000Y-90700000D02*
X171050000Y-90250000D01*
X171400000Y-89663604D02*
X171400000Y-89100000D01*
X171050000Y-90013604D02*
X171400000Y-89663604D01*
X155174520Y-92275480D02*
X155800000Y-91650000D01*
X151562500Y-92075000D02*
X153600886Y-92075000D01*
%TO.N,Net-(U3-A5)*%
X146825000Y-94025000D02*
X147400000Y-93450000D01*
X148400000Y-89525000D02*
X148550000Y-89375000D01*
X145837500Y-94025000D02*
X146825000Y-94025000D01*
X145837500Y-95975000D02*
X145837500Y-94025000D01*
X148400000Y-90750000D02*
X148400000Y-89525000D01*
%TO.N,Net-(U3-B5)*%
X151562500Y-94025000D02*
X150575000Y-94025000D01*
X149750000Y-93200000D02*
X149750000Y-89875000D01*
X150575000Y-94025000D02*
X149750000Y-93200000D01*
X151562500Y-94025000D02*
X151562500Y-95975000D01*
X149750000Y-89875000D02*
X150250000Y-89375000D01*
%TO.N,/LED_B_CL*%
X173300000Y-109375000D02*
X173200000Y-109475000D01*
X173300000Y-107450000D02*
X173300000Y-109375000D01*
%TO.N,/LED_R_CL*%
X174000000Y-103300000D02*
X174600000Y-103300000D01*
X173800000Y-103100000D02*
X174000000Y-103300000D01*
X174700000Y-103400000D02*
X174700000Y-104350000D01*
X173800000Y-102425000D02*
X173800000Y-103100000D01*
X174600000Y-103300000D02*
X174700000Y-103400000D01*
%TO.N,/LED_G_CL*%
X172100000Y-102450000D02*
X172100000Y-103150000D01*
X172100000Y-103150000D02*
X173300000Y-104350000D01*
%TO.N,/RED_B*%
X164875500Y-107000000D02*
X165875500Y-108000000D01*
X156750000Y-100850000D02*
X156750000Y-101575402D01*
X158278928Y-107250000D02*
X158553448Y-106975480D01*
X159503448Y-107224520D02*
X161575480Y-107224520D01*
X159254408Y-106975480D02*
X159503448Y-107224520D01*
X154950000Y-107250000D02*
X158278928Y-107250000D01*
X154850000Y-107150000D02*
X154950000Y-107250000D01*
X156750000Y-101575402D02*
X155462701Y-102862701D01*
X173800000Y-99400000D02*
X173800000Y-100775000D01*
X163850000Y-107000000D02*
X164875500Y-107000000D01*
X170675000Y-108000000D02*
X171700000Y-108000000D01*
X161575480Y-107224520D02*
X161850000Y-106950000D01*
X167450000Y-108000000D02*
X170675000Y-108000000D01*
X158553448Y-106975480D02*
X159254408Y-106975480D01*
%TO.N,/GRN_B*%
X168600000Y-101950000D02*
X169750000Y-100800000D01*
X161450000Y-102350000D02*
X161850000Y-101950000D01*
X153650000Y-99850000D02*
X152426380Y-99850000D01*
X155425500Y-103924500D02*
X157000000Y-102350000D01*
X152426380Y-99850000D02*
X151838190Y-100438190D01*
X161850000Y-101950000D02*
X168600000Y-101950000D01*
X169750000Y-100800000D02*
X172100000Y-100800000D01*
X152600000Y-103924500D02*
X155425500Y-103924500D01*
%TO.N,/BLUE_B*%
X162511438Y-99300000D02*
X171600000Y-99300000D01*
X173200000Y-111125000D02*
X172400000Y-110325000D01*
X158550000Y-99200000D02*
X159525500Y-99200000D01*
X162493970Y-99317468D02*
X162511438Y-99300000D01*
X157900000Y-99850000D02*
X158550000Y-99200000D01*
X172400000Y-110325000D02*
X172400000Y-104900000D01*
X172400000Y-104900000D02*
X171600000Y-104100000D01*
X156750000Y-99850000D02*
X157900000Y-99850000D01*
%TD*%
M02*
