%TF.GenerationSoftware,KiCad,Pcbnew,9.0.3*%
%TF.CreationDate,2025-07-31T21:13:17-04:00*%
%TF.ProjectId,motor-controller,6d6f746f-722d-4636-9f6e-74726f6c6c65,1*%
%TF.SameCoordinates,Original*%
%TF.FileFunction,Soldermask,Bot*%
%TF.FilePolarity,Negative*%
%FSLAX46Y46*%
G04 Gerber Fmt 4.6, Leading zero omitted, Abs format (unit mm)*
G04 Created by KiCad (PCBNEW 9.0.3) date 2025-07-31 21:13:17*
%MOMM*%
%LPD*%
G01*
G04 APERTURE LIST*
G04 Aperture macros list*
%AMRoundRect*
0 Rectangle with rounded corners*
0 $1 Rounding radius*
0 $2 $3 $4 $5 $6 $7 $8 $9 X,Y pos of 4 corners*
0 Add a 4 corners polygon primitive as box body*
4,1,4,$2,$3,$4,$5,$6,$7,$8,$9,$2,$3,0*
0 Add four circle primitives for the rounded corners*
1,1,$1+$1,$2,$3*
1,1,$1+$1,$4,$5*
1,1,$1+$1,$6,$7*
1,1,$1+$1,$8,$9*
0 Add four rect primitives between the rounded corners*
20,1,$1+$1,$2,$3,$4,$5,0*
20,1,$1+$1,$4,$5,$6,$7,0*
20,1,$1+$1,$6,$7,$8,$9,0*
20,1,$1+$1,$8,$9,$2,$3,0*%
G04 Aperture macros list end*
%ADD10C,3.600000*%
%ADD11C,6.400000*%
%ADD12RoundRect,0.140000X-0.170000X0.140000X-0.170000X-0.140000X0.170000X-0.140000X0.170000X0.140000X0*%
%ADD13R,2.200000X0.800000*%
%ADD14RoundRect,0.200000X-0.200000X-1.250000X0.200000X-1.250000X0.200000X1.250000X-0.200000X1.250000X0*%
%ADD15RoundRect,0.250000X-0.650000X-1.650000X0.650000X-1.650000X0.650000X1.650000X-0.650000X1.650000X0*%
%ADD16RoundRect,0.135000X0.185000X-0.135000X0.185000X0.135000X-0.185000X0.135000X-0.185000X-0.135000X0*%
%ADD17R,0.650000X1.150000*%
%ADD18R,4.600000X4.650000*%
%ADD19C,1.500000*%
%ADD20RoundRect,0.250000X-1.500000X-0.550000X1.500000X-0.550000X1.500000X0.550000X-1.500000X0.550000X0*%
%ADD21RoundRect,0.250000X-0.325000X-0.650000X0.325000X-0.650000X0.325000X0.650000X-0.325000X0.650000X0*%
%ADD22RoundRect,0.140000X0.140000X0.170000X-0.140000X0.170000X-0.140000X-0.170000X0.140000X-0.170000X0*%
%ADD23RoundRect,0.135000X-0.135000X-0.185000X0.135000X-0.185000X0.135000X0.185000X-0.135000X0.185000X0*%
%ADD24RoundRect,0.250001X-0.624999X0.462499X-0.624999X-0.462499X0.624999X-0.462499X0.624999X0.462499X0*%
%ADD25RoundRect,0.150000X0.625000X-0.150000X0.625000X0.150000X-0.625000X0.150000X-0.625000X-0.150000X0*%
%ADD26RoundRect,0.250000X0.650000X-0.350000X0.650000X0.350000X-0.650000X0.350000X-0.650000X-0.350000X0*%
%ADD27RoundRect,0.135000X-0.185000X0.135000X-0.185000X-0.135000X0.185000X-0.135000X0.185000X0.135000X0*%
%ADD28RoundRect,0.140000X0.170000X-0.140000X0.170000X0.140000X-0.170000X0.140000X-0.170000X-0.140000X0*%
%ADD29RoundRect,0.237500X0.237500X-0.287500X0.237500X0.287500X-0.237500X0.287500X-0.237500X-0.287500X0*%
%ADD30R,2.500000X2.300000*%
%ADD31R,1.200000X3.400000*%
%ADD32R,0.600000X3.400000*%
%ADD33RoundRect,0.100000X-0.100000X0.225000X-0.100000X-0.225000X0.100000X-0.225000X0.100000X0.225000X0*%
%ADD34R,0.300000X0.850000*%
%ADD35R,0.850000X0.300000*%
%ADD36R,2.800000X2.800000*%
G04 APERTURE END LIST*
D10*
%TO.C,H2*%
X228500000Y-129000000D03*
D11*
X228500000Y-129000000D03*
%TD*%
D10*
%TO.C,H1*%
X191500000Y-129000000D03*
D11*
X191500000Y-129000000D03*
%TD*%
D10*
%TO.C,H3*%
X191500000Y-165500000D03*
D11*
X191500000Y-165500000D03*
%TD*%
D10*
%TO.C,H4*%
X228500000Y-165500000D03*
D11*
X228500000Y-165500000D03*
%TD*%
D12*
%TO.C,C4*%
X231750000Y-152270000D03*
X231750000Y-153230000D03*
%TD*%
D13*
%TO.C,J6*%
X190180000Y-139540000D03*
X193820000Y-139540000D03*
X190180000Y-138270000D03*
X193820000Y-138270000D03*
X190180000Y-137000000D03*
X193820000Y-137000000D03*
X190180000Y-135730000D03*
X193820000Y-135730000D03*
X190180000Y-134460000D03*
X193820000Y-134460000D03*
%TD*%
D14*
%TO.C,J5*%
X201750000Y-167575000D03*
X203250000Y-167575000D03*
X204750000Y-167575000D03*
X206250000Y-167575000D03*
X207750000Y-167575000D03*
X209250000Y-167575000D03*
X210750000Y-167575000D03*
X212250000Y-167575000D03*
X213750000Y-167575000D03*
X215250000Y-167575000D03*
X216750000Y-167575000D03*
X218250000Y-167575000D03*
D15*
X199150000Y-162875000D03*
X220850000Y-162875000D03*
%TD*%
D16*
%TO.C,R38*%
X219350000Y-151160000D03*
X219350000Y-150140000D03*
%TD*%
D17*
%TO.C,Q3*%
X222105000Y-132300000D03*
X220835000Y-132300000D03*
X219565000Y-132300000D03*
X218295000Y-132300000D03*
D18*
X220200000Y-128600000D03*
%TD*%
D19*
%TO.C,TP3*%
X229650000Y-160750000D03*
%TD*%
D16*
%TO.C,R17*%
X219350000Y-153160000D03*
X219350000Y-152140000D03*
%TD*%
D17*
%TO.C,Q5*%
X210505000Y-132300000D03*
X209235000Y-132300000D03*
X207965000Y-132300000D03*
X206695000Y-132300000D03*
D18*
X208600000Y-128600000D03*
%TD*%
D20*
%TO.C,C23*%
X198400000Y-139400000D03*
X203800000Y-139400000D03*
%TD*%
D21*
%TO.C,C8*%
X228025000Y-155500000D03*
X230975000Y-155500000D03*
%TD*%
D17*
%TO.C,Q1*%
X216254999Y-132300000D03*
X214984999Y-132300000D03*
X213714999Y-132300000D03*
X212444999Y-132300000D03*
D18*
X214349999Y-128600000D03*
%TD*%
D22*
%TO.C,C7*%
X227480000Y-143900000D03*
X226520000Y-143900000D03*
%TD*%
D16*
%TO.C,R14*%
X225200000Y-137010000D03*
X225200000Y-135990000D03*
%TD*%
%TO.C,R10*%
X227600000Y-137010000D03*
X227600000Y-135990000D03*
%TD*%
D23*
%TO.C,R36*%
X220690000Y-147550000D03*
X221710000Y-147550000D03*
%TD*%
D24*
%TO.C,F2*%
X196550000Y-156362500D03*
X196550000Y-159337500D03*
%TD*%
D16*
%TO.C,R43*%
X220850000Y-144510000D03*
X220850000Y-143490000D03*
%TD*%
D25*
%TO.C,J1*%
X193000000Y-159000000D03*
X193000000Y-158000000D03*
X193000000Y-157000000D03*
X193000000Y-156000000D03*
X193000000Y-155000000D03*
X193000000Y-154000000D03*
D26*
X189125000Y-160300000D03*
X189125000Y-152700000D03*
%TD*%
D23*
%TO.C,R22*%
X218690000Y-145525000D03*
X219710000Y-145525000D03*
%TD*%
D27*
%TO.C,R9*%
X227600000Y-141590000D03*
X227600000Y-142610000D03*
%TD*%
%TO.C,R21*%
X218725000Y-143490000D03*
X218725000Y-144510000D03*
%TD*%
D17*
%TO.C,Q4*%
X222105000Y-139900000D03*
X220835000Y-139900000D03*
X219565000Y-139900000D03*
X218295000Y-139900000D03*
D18*
X220200000Y-136200000D03*
%TD*%
D28*
%TO.C,C11*%
X220500000Y-151129999D03*
X220500000Y-150169999D03*
%TD*%
D27*
%TO.C,R12*%
X224000000Y-141590000D03*
X224000000Y-142610000D03*
%TD*%
D25*
%TO.C,J3*%
X193000000Y-149000000D03*
X193000000Y-148000000D03*
X193000000Y-147000000D03*
X193000000Y-146000000D03*
X193000000Y-145000000D03*
X193000000Y-144000000D03*
D26*
X189125000Y-150300000D03*
X189125000Y-142700000D03*
%TD*%
D19*
%TO.C,TP4*%
X226950000Y-160750000D03*
%TD*%
D29*
%TO.C,F4*%
X225950000Y-157875000D03*
X225950000Y-156125000D03*
%TD*%
D30*
%TO.C,D6*%
X204150000Y-126000000D03*
X199850000Y-126000000D03*
%TD*%
D27*
%TO.C,R23*%
X220725000Y-145540000D03*
X220725000Y-146560000D03*
%TD*%
D20*
%TO.C,C22*%
X198400000Y-132100000D03*
X203800000Y-132100000D03*
%TD*%
D22*
%TO.C,C9*%
X225480000Y-143900000D03*
X224520000Y-143900000D03*
%TD*%
D16*
%TO.C,R5*%
X226400000Y-137010000D03*
X226400000Y-135990000D03*
%TD*%
D31*
%TO.C,R27*%
X212900000Y-144600000D03*
X210100000Y-144600000D03*
D32*
X211500000Y-144600000D03*
X211500000Y-149600000D03*
D31*
X212900000Y-149600000D03*
X210100000Y-149600000D03*
%TD*%
D33*
%TO.C,D2*%
X224750000Y-138350000D03*
X225400000Y-138350000D03*
X226050000Y-138350000D03*
X226050000Y-140250000D03*
X225400000Y-140250000D03*
X224750000Y-140250000D03*
%TD*%
D27*
%TO.C,R2*%
X228800000Y-141590000D03*
X228800000Y-142610000D03*
%TD*%
D31*
%TO.C,R18*%
X217400000Y-144600000D03*
X214600000Y-144600000D03*
D32*
X216000000Y-144600000D03*
X216000000Y-149600000D03*
D31*
X217400000Y-149600000D03*
X214600000Y-149600000D03*
%TD*%
D16*
%TO.C,R11*%
X224000000Y-137010000D03*
X224000000Y-135990000D03*
%TD*%
%TO.C,R25*%
X220500000Y-153160000D03*
X220500000Y-152140000D03*
%TD*%
D19*
%TO.C,TP2*%
X207925000Y-149200000D03*
%TD*%
D23*
%TO.C,R26*%
X218690000Y-146575000D03*
X219710000Y-146575000D03*
%TD*%
%TO.C,R19*%
X218690000Y-148650000D03*
X219710000Y-148650000D03*
%TD*%
D19*
%TO.C,TP1*%
X207925000Y-145025000D03*
%TD*%
D27*
%TO.C,R13*%
X225200000Y-141590000D03*
X225200000Y-142610000D03*
%TD*%
D28*
%TO.C,C10*%
X219800000Y-144480000D03*
X219800000Y-143520000D03*
%TD*%
D16*
%TO.C,R1*%
X228800000Y-137010000D03*
X228800000Y-135990000D03*
%TD*%
D17*
%TO.C,Q6*%
X210505000Y-139900000D03*
X209235000Y-139900000D03*
X207965000Y-139900000D03*
X206695000Y-139900000D03*
D18*
X208600000Y-136200000D03*
%TD*%
D23*
%TO.C,R24*%
X218690000Y-147625000D03*
X219710000Y-147625000D03*
%TD*%
D34*
%TO.C,U1*%
X229750000Y-152525000D03*
X229250000Y-152525000D03*
X228750000Y-152525000D03*
X228250000Y-152525000D03*
X227750000Y-152525000D03*
X227250000Y-152525000D03*
X226750000Y-152525000D03*
X226250000Y-152525000D03*
X225750000Y-152525000D03*
X225250000Y-152525000D03*
X224750000Y-152525000D03*
X224250000Y-152525000D03*
D35*
X223575000Y-151850000D03*
X223575000Y-151350000D03*
X223575000Y-150850000D03*
X223575000Y-150350000D03*
X223575000Y-149850000D03*
X223575000Y-149350000D03*
X223575000Y-148850000D03*
X223575000Y-148350000D03*
X223575000Y-147850000D03*
X223575000Y-147350000D03*
X223575000Y-146850000D03*
X223575000Y-146350000D03*
D34*
X224250000Y-145675000D03*
X224750000Y-145675000D03*
X225250000Y-145675000D03*
X225750000Y-145675000D03*
X226250000Y-145675000D03*
X226750000Y-145675000D03*
X227250000Y-145675000D03*
X227750000Y-145675000D03*
X228250000Y-145675000D03*
X228750000Y-145675000D03*
X229250000Y-145675000D03*
X229750000Y-145675000D03*
D35*
X230425000Y-146350000D03*
X230425000Y-146850000D03*
X230425000Y-147350000D03*
X230425000Y-147850000D03*
X230425000Y-148350000D03*
X230425000Y-148850000D03*
X230425000Y-149350000D03*
X230425000Y-149850000D03*
X230425000Y-150350000D03*
X230425000Y-150850000D03*
X230425000Y-151350000D03*
X230425000Y-151850000D03*
D36*
X227000000Y-149100000D03*
%TD*%
D33*
%TO.C,D1*%
X227950000Y-138350000D03*
X228600000Y-138350000D03*
X229250000Y-138350000D03*
X229250000Y-140250000D03*
X228600000Y-140250000D03*
X227950000Y-140250000D03*
%TD*%
D22*
%TO.C,C6*%
X225230000Y-153750000D03*
X224270000Y-153750000D03*
%TD*%
D17*
%TO.C,Q2*%
X216305000Y-139900000D03*
X215035000Y-139900000D03*
X213765000Y-139900000D03*
X212495000Y-139900000D03*
D18*
X214400000Y-136200000D03*
%TD*%
D21*
%TO.C,C2*%
X228025000Y-157900000D03*
X230975000Y-157900000D03*
%TD*%
D12*
%TO.C,C16*%
X223000000Y-159520000D03*
X223000000Y-160480000D03*
%TD*%
D27*
%TO.C,R6*%
X226400000Y-141590000D03*
X226400000Y-142610000D03*
%TD*%
D22*
%TO.C,C1*%
X229480000Y-143900000D03*
X228520000Y-143900000D03*
%TD*%
D27*
%TO.C,R3*%
X230000000Y-141590000D03*
X230000000Y-142610000D03*
%TD*%
D16*
%TO.C,R4*%
X230000000Y-137010000D03*
X230000000Y-135990000D03*
%TD*%
M02*
