%TF.GenerationSoftware,KiCad,Pcbnew,9.0.3*%
%TF.CreationDate,2025-07-31T21:13:17-04:00*%
%TF.ProjectId,motor-controller,6d6f746f-722d-4636-9f6e-74726f6c6c65,1*%
%TF.SameCoordinates,Original*%
%TF.FileFunction,Legend,Top*%
%TF.FilePolarity,Positive*%
%FSLAX46Y46*%
G04 Gerber Fmt 4.6, Leading zero omitted, Abs format (unit mm)*
G04 Created by KiCad (PCBNEW 9.0.3) date 2025-07-31 21:13:17*
%MOMM*%
%LPD*%
G01*
G04 APERTURE LIST*
G04 Aperture macros list*
%AMRoundRect*
0 Rectangle with rounded corners*
0 $1 Rounding radius*
0 $2 $3 $4 $5 $6 $7 $8 $9 X,Y pos of 4 corners*
0 Add a 4 corners polygon primitive as box body*
4,1,4,$2,$3,$4,$5,$6,$7,$8,$9,$2,$3,0*
0 Add four circle primitives for the rounded corners*
1,1,$1+$1,$2,$3*
1,1,$1+$1,$4,$5*
1,1,$1+$1,$6,$7*
1,1,$1+$1,$8,$9*
0 Add four rect primitives between the rounded corners*
20,1,$1+$1,$2,$3,$4,$5,0*
20,1,$1+$1,$4,$5,$6,$7,0*
20,1,$1+$1,$6,$7,$8,$9,0*
20,1,$1+$1,$8,$9,$2,$3,0*%
G04 Aperture macros list end*
%ADD10C,0.153000*%
%ADD11C,0.300000*%
%ADD12C,0.150000*%
%ADD13C,0.100000*%
%ADD14C,0.120000*%
%ADD15RoundRect,0.135000X0.185000X-0.135000X0.185000X0.135000X-0.185000X0.135000X-0.185000X-0.135000X0*%
%ADD16RoundRect,0.135000X-0.185000X0.135000X-0.185000X-0.135000X0.185000X-0.135000X0.185000X0.135000X0*%
%ADD17RoundRect,0.140000X0.170000X-0.140000X0.170000X0.140000X-0.170000X0.140000X-0.170000X-0.140000X0*%
%ADD18RoundRect,0.135000X0.135000X0.185000X-0.135000X0.185000X-0.135000X-0.185000X0.135000X-0.185000X0*%
%ADD19RoundRect,0.140000X0.140000X0.170000X-0.140000X0.170000X-0.140000X-0.170000X0.140000X-0.170000X0*%
%ADD20RoundRect,0.140000X-0.140000X-0.170000X0.140000X-0.170000X0.140000X0.170000X-0.140000X0.170000X0*%
%ADD21R,0.800000X0.800000*%
%ADD22RoundRect,0.250000X-0.350000X0.450000X-0.350000X-0.450000X0.350000X-0.450000X0.350000X0.450000X0*%
%ADD23RoundRect,0.150000X0.150000X-0.587500X0.150000X0.587500X-0.150000X0.587500X-0.150000X-0.587500X0*%
%ADD24C,3.600000*%
%ADD25C,6.400000*%
%ADD26RoundRect,0.135000X-0.135000X-0.185000X0.135000X-0.185000X0.135000X0.185000X-0.135000X0.185000X0*%
%ADD27RoundRect,0.237500X0.237500X-0.287500X0.237500X0.287500X-0.237500X0.287500X-0.237500X-0.287500X0*%
%ADD28RoundRect,0.100000X-0.100000X0.225000X-0.100000X-0.225000X0.100000X-0.225000X0.100000X0.225000X0*%
%ADD29RoundRect,0.100000X-0.637500X-0.100000X0.637500X-0.100000X0.637500X0.100000X-0.637500X0.100000X0*%
%ADD30R,0.600000X1.100000*%
%ADD31R,0.700000X1.850000*%
%ADD32C,1.500000*%
%ADD33RoundRect,0.225000X-0.375000X0.225000X-0.375000X-0.225000X0.375000X-0.225000X0.375000X0.225000X0*%
%ADD34RoundRect,0.140000X-0.170000X0.140000X-0.170000X-0.140000X0.170000X-0.140000X0.170000X0.140000X0*%
%ADD35R,1.000000X1.800000*%
%ADD36RoundRect,0.200000X0.275000X-0.200000X0.275000X0.200000X-0.275000X0.200000X-0.275000X-0.200000X0*%
G04 APERTURE END LIST*
D10*
X231500000Y-148000000D02*
G75*
G02*
X188500000Y-148000000I-21500000J0D01*
G01*
X188500000Y-148000000D02*
G75*
G02*
X231500000Y-148000000I21500000J0D01*
G01*
X215654663Y-133962561D02*
X216654663Y-133629228D01*
X216654663Y-133629228D02*
X215654663Y-133295895D01*
X204854663Y-134862561D02*
X203854663Y-134862561D01*
X204330853Y-134862561D02*
X204330853Y-134291133D01*
X204854663Y-134291133D02*
X203854663Y-134291133D01*
X203854663Y-133910180D02*
X203854663Y-133291133D01*
X203854663Y-133291133D02*
X204235615Y-133624466D01*
X204235615Y-133624466D02*
X204235615Y-133481609D01*
X204235615Y-133481609D02*
X204283234Y-133386371D01*
X204283234Y-133386371D02*
X204330853Y-133338752D01*
X204330853Y-133338752D02*
X204426091Y-133291133D01*
X204426091Y-133291133D02*
X204664186Y-133291133D01*
X204664186Y-133291133D02*
X204759424Y-133338752D01*
X204759424Y-133338752D02*
X204807044Y-133386371D01*
X204807044Y-133386371D02*
X204854663Y-133481609D01*
X204854663Y-133481609D02*
X204854663Y-133767323D01*
X204854663Y-133767323D02*
X204807044Y-133862561D01*
X204807044Y-133862561D02*
X204759424Y-133910180D01*
X202654663Y-135624466D02*
X202654663Y-135005419D01*
X202654663Y-135005419D02*
X203035615Y-135338752D01*
X203035615Y-135338752D02*
X203035615Y-135195895D01*
X203035615Y-135195895D02*
X203083234Y-135100657D01*
X203083234Y-135100657D02*
X203130853Y-135053038D01*
X203130853Y-135053038D02*
X203226091Y-135005419D01*
X203226091Y-135005419D02*
X203464186Y-135005419D01*
X203464186Y-135005419D02*
X203559424Y-135053038D01*
X203559424Y-135053038D02*
X203607044Y-135100657D01*
X203607044Y-135100657D02*
X203654663Y-135195895D01*
X203654663Y-135195895D02*
X203654663Y-135481609D01*
X203654663Y-135481609D02*
X203607044Y-135576847D01*
X203607044Y-135576847D02*
X203559424Y-135624466D01*
X202987996Y-134672085D02*
X203654663Y-134433990D01*
X203654663Y-134433990D02*
X202987996Y-134195895D01*
X202654663Y-133910180D02*
X202654663Y-133291133D01*
X202654663Y-133291133D02*
X203035615Y-133624466D01*
X203035615Y-133624466D02*
X203035615Y-133481609D01*
X203035615Y-133481609D02*
X203083234Y-133386371D01*
X203083234Y-133386371D02*
X203130853Y-133338752D01*
X203130853Y-133338752D02*
X203226091Y-133291133D01*
X203226091Y-133291133D02*
X203464186Y-133291133D01*
X203464186Y-133291133D02*
X203559424Y-133338752D01*
X203559424Y-133338752D02*
X203607044Y-133386371D01*
X203607044Y-133386371D02*
X203654663Y-133481609D01*
X203654663Y-133481609D02*
X203654663Y-133767323D01*
X203654663Y-133767323D02*
X203607044Y-133862561D01*
X203607044Y-133862561D02*
X203559424Y-133910180D01*
X201502282Y-135386371D02*
X201454663Y-135481609D01*
X201454663Y-135481609D02*
X201454663Y-135624466D01*
X201454663Y-135624466D02*
X201502282Y-135767323D01*
X201502282Y-135767323D02*
X201597520Y-135862561D01*
X201597520Y-135862561D02*
X201692758Y-135910180D01*
X201692758Y-135910180D02*
X201883234Y-135957799D01*
X201883234Y-135957799D02*
X202026091Y-135957799D01*
X202026091Y-135957799D02*
X202216567Y-135910180D01*
X202216567Y-135910180D02*
X202311805Y-135862561D01*
X202311805Y-135862561D02*
X202407044Y-135767323D01*
X202407044Y-135767323D02*
X202454663Y-135624466D01*
X202454663Y-135624466D02*
X202454663Y-135529228D01*
X202454663Y-135529228D02*
X202407044Y-135386371D01*
X202407044Y-135386371D02*
X202359424Y-135338752D01*
X202359424Y-135338752D02*
X202026091Y-135338752D01*
X202026091Y-135338752D02*
X202026091Y-135529228D01*
X202454663Y-134910180D02*
X201454663Y-134910180D01*
X201454663Y-134910180D02*
X202454663Y-134338752D01*
X202454663Y-134338752D02*
X201454663Y-134338752D01*
X202454663Y-133862561D02*
X201454663Y-133862561D01*
X201454663Y-133862561D02*
X201454663Y-133624466D01*
X201454663Y-133624466D02*
X201502282Y-133481609D01*
X201502282Y-133481609D02*
X201597520Y-133386371D01*
X201597520Y-133386371D02*
X201692758Y-133338752D01*
X201692758Y-133338752D02*
X201883234Y-133291133D01*
X201883234Y-133291133D02*
X202026091Y-133291133D01*
X202026091Y-133291133D02*
X202216567Y-133338752D01*
X202216567Y-133338752D02*
X202311805Y-133386371D01*
X202311805Y-133386371D02*
X202407044Y-133481609D01*
X202407044Y-133481609D02*
X202454663Y-133624466D01*
X202454663Y-133624466D02*
X202454663Y-133862561D01*
X206054663Y-134862561D02*
X205054663Y-134862561D01*
X205530853Y-134862561D02*
X205530853Y-134291133D01*
X206054663Y-134291133D02*
X205054663Y-134291133D01*
X206054663Y-133291133D02*
X206054663Y-133862561D01*
X206054663Y-133576847D02*
X205054663Y-133576847D01*
X205054663Y-133576847D02*
X205197520Y-133672085D01*
X205197520Y-133672085D02*
X205292758Y-133767323D01*
X205292758Y-133767323D02*
X205340377Y-133862561D01*
X214454663Y-133910180D02*
X215264186Y-133910180D01*
X215264186Y-133910180D02*
X215359424Y-133862561D01*
X215359424Y-133862561D02*
X215407044Y-133814942D01*
X215407044Y-133814942D02*
X215454663Y-133719704D01*
X215454663Y-133719704D02*
X215454663Y-133529228D01*
X215454663Y-133529228D02*
X215407044Y-133433990D01*
X215407044Y-133433990D02*
X215359424Y-133386371D01*
X215359424Y-133386371D02*
X215264186Y-133338752D01*
X215264186Y-133338752D02*
X214454663Y-133338752D01*
X207502282Y-135386371D02*
X207454663Y-135481609D01*
X207454663Y-135481609D02*
X207454663Y-135624466D01*
X207454663Y-135624466D02*
X207502282Y-135767323D01*
X207502282Y-135767323D02*
X207597520Y-135862561D01*
X207597520Y-135862561D02*
X207692758Y-135910180D01*
X207692758Y-135910180D02*
X207883234Y-135957799D01*
X207883234Y-135957799D02*
X208026091Y-135957799D01*
X208026091Y-135957799D02*
X208216567Y-135910180D01*
X208216567Y-135910180D02*
X208311805Y-135862561D01*
X208311805Y-135862561D02*
X208407044Y-135767323D01*
X208407044Y-135767323D02*
X208454663Y-135624466D01*
X208454663Y-135624466D02*
X208454663Y-135529228D01*
X208454663Y-135529228D02*
X208407044Y-135386371D01*
X208407044Y-135386371D02*
X208359424Y-135338752D01*
X208359424Y-135338752D02*
X208026091Y-135338752D01*
X208026091Y-135338752D02*
X208026091Y-135529228D01*
X208454663Y-134910180D02*
X207454663Y-134910180D01*
X207454663Y-134910180D02*
X208454663Y-134338752D01*
X208454663Y-134338752D02*
X207454663Y-134338752D01*
X208454663Y-133862561D02*
X207454663Y-133862561D01*
X207454663Y-133862561D02*
X207454663Y-133624466D01*
X207454663Y-133624466D02*
X207502282Y-133481609D01*
X207502282Y-133481609D02*
X207597520Y-133386371D01*
X207597520Y-133386371D02*
X207692758Y-133338752D01*
X207692758Y-133338752D02*
X207883234Y-133291133D01*
X207883234Y-133291133D02*
X208026091Y-133291133D01*
X208026091Y-133291133D02*
X208216567Y-133338752D01*
X208216567Y-133338752D02*
X208311805Y-133386371D01*
X208311805Y-133386371D02*
X208407044Y-133481609D01*
X208407044Y-133481609D02*
X208454663Y-133624466D01*
X208454663Y-133624466D02*
X208454663Y-133862561D01*
X207254663Y-134862561D02*
X206254663Y-134862561D01*
X206730853Y-134862561D02*
X206730853Y-134291133D01*
X207254663Y-134291133D02*
X206254663Y-134291133D01*
X206349901Y-133862561D02*
X206302282Y-133814942D01*
X206302282Y-133814942D02*
X206254663Y-133719704D01*
X206254663Y-133719704D02*
X206254663Y-133481609D01*
X206254663Y-133481609D02*
X206302282Y-133386371D01*
X206302282Y-133386371D02*
X206349901Y-133338752D01*
X206349901Y-133338752D02*
X206445139Y-133291133D01*
X206445139Y-133291133D02*
X206540377Y-133291133D01*
X206540377Y-133291133D02*
X206683234Y-133338752D01*
X206683234Y-133338752D02*
X207254663Y-133910180D01*
X207254663Y-133910180D02*
X207254663Y-133291133D01*
X219364901Y-166208866D02*
X219317282Y-166161247D01*
X219317282Y-166161247D02*
X219269663Y-166066009D01*
X219269663Y-166066009D02*
X219269663Y-165827914D01*
X219269663Y-165827914D02*
X219317282Y-165732676D01*
X219317282Y-165732676D02*
X219364901Y-165685057D01*
X219364901Y-165685057D02*
X219460139Y-165637438D01*
X219460139Y-165637438D02*
X219555377Y-165637438D01*
X219555377Y-165637438D02*
X219698234Y-165685057D01*
X219698234Y-165685057D02*
X220269663Y-166256485D01*
X220269663Y-166256485D02*
X220269663Y-165637438D01*
X219269663Y-164732676D02*
X219269663Y-165208866D01*
X219269663Y-165208866D02*
X219745853Y-165256485D01*
X219745853Y-165256485D02*
X219698234Y-165208866D01*
X219698234Y-165208866D02*
X219650615Y-165113628D01*
X219650615Y-165113628D02*
X219650615Y-164875533D01*
X219650615Y-164875533D02*
X219698234Y-164780295D01*
X219698234Y-164780295D02*
X219745853Y-164732676D01*
X219745853Y-164732676D02*
X219841091Y-164685057D01*
X219841091Y-164685057D02*
X220079186Y-164685057D01*
X220079186Y-164685057D02*
X220174424Y-164732676D01*
X220174424Y-164732676D02*
X220222044Y-164780295D01*
X220222044Y-164780295D02*
X220269663Y-164875533D01*
X220269663Y-164875533D02*
X220269663Y-165113628D01*
X220269663Y-165113628D02*
X220222044Y-165208866D01*
X220222044Y-165208866D02*
X220174424Y-165256485D01*
X219269663Y-164066009D02*
X219269663Y-163970771D01*
X219269663Y-163970771D02*
X219317282Y-163875533D01*
X219317282Y-163875533D02*
X219364901Y-163827914D01*
X219364901Y-163827914D02*
X219460139Y-163780295D01*
X219460139Y-163780295D02*
X219650615Y-163732676D01*
X219650615Y-163732676D02*
X219888710Y-163732676D01*
X219888710Y-163732676D02*
X220079186Y-163780295D01*
X220079186Y-163780295D02*
X220174424Y-163827914D01*
X220174424Y-163827914D02*
X220222044Y-163875533D01*
X220222044Y-163875533D02*
X220269663Y-163970771D01*
X220269663Y-163970771D02*
X220269663Y-164066009D01*
X220269663Y-164066009D02*
X220222044Y-164161247D01*
X220222044Y-164161247D02*
X220174424Y-164208866D01*
X220174424Y-164208866D02*
X220079186Y-164256485D01*
X220079186Y-164256485D02*
X219888710Y-164304104D01*
X219888710Y-164304104D02*
X219650615Y-164304104D01*
X219650615Y-164304104D02*
X219460139Y-164256485D01*
X219460139Y-164256485D02*
X219364901Y-164208866D01*
X219364901Y-164208866D02*
X219317282Y-164161247D01*
X219317282Y-164161247D02*
X219269663Y-164066009D01*
X220269663Y-163304104D02*
X219602996Y-163304104D01*
X219698234Y-163304104D02*
X219650615Y-163256485D01*
X219650615Y-163256485D02*
X219602996Y-163161247D01*
X219602996Y-163161247D02*
X219602996Y-163018390D01*
X219602996Y-163018390D02*
X219650615Y-162923152D01*
X219650615Y-162923152D02*
X219745853Y-162875533D01*
X219745853Y-162875533D02*
X220269663Y-162875533D01*
X219745853Y-162875533D02*
X219650615Y-162827914D01*
X219650615Y-162827914D02*
X219602996Y-162732676D01*
X219602996Y-162732676D02*
X219602996Y-162589819D01*
X219602996Y-162589819D02*
X219650615Y-162494580D01*
X219650615Y-162494580D02*
X219745853Y-162446961D01*
X219745853Y-162446961D02*
X220269663Y-162446961D01*
X219983948Y-162018390D02*
X219983948Y-161542200D01*
X220269663Y-162113628D02*
X219269663Y-161780295D01*
X219269663Y-161780295D02*
X220269663Y-161446962D01*
D11*
X202714285Y-125900828D02*
X202714285Y-124400828D01*
X202714285Y-125115114D02*
X203571428Y-125115114D01*
X203571428Y-125900828D02*
X203571428Y-124400828D01*
X204214286Y-125472257D02*
X204928572Y-125472257D01*
X204071429Y-125900828D02*
X204571429Y-124400828D01*
X204571429Y-124400828D02*
X205071429Y-125900828D01*
X206285714Y-125900828D02*
X205571428Y-125900828D01*
X205571428Y-125900828D02*
X205571428Y-124400828D01*
X207500000Y-125900828D02*
X206785714Y-125900828D01*
X206785714Y-125900828D02*
X206785714Y-124400828D01*
D10*
X213254663Y-134100656D02*
X214254663Y-133862561D01*
X214254663Y-133862561D02*
X213540377Y-133672085D01*
X213540377Y-133672085D02*
X214254663Y-133481609D01*
X214254663Y-133481609D02*
X213254663Y-133243514D01*
D11*
X211785714Y-125900828D02*
X211785714Y-124400828D01*
X211785714Y-124400828D02*
X212357143Y-124400828D01*
X212357143Y-124400828D02*
X212500000Y-124472257D01*
X212500000Y-124472257D02*
X212571429Y-124543685D01*
X212571429Y-124543685D02*
X212642857Y-124686542D01*
X212642857Y-124686542D02*
X212642857Y-124900828D01*
X212642857Y-124900828D02*
X212571429Y-125043685D01*
X212571429Y-125043685D02*
X212500000Y-125115114D01*
X212500000Y-125115114D02*
X212357143Y-125186542D01*
X212357143Y-125186542D02*
X211785714Y-125186542D01*
X213285714Y-125900828D02*
X213285714Y-124400828D01*
X213285714Y-125115114D02*
X214142857Y-125115114D01*
X214142857Y-125900828D02*
X214142857Y-124400828D01*
X214785715Y-125472257D02*
X215500001Y-125472257D01*
X214642858Y-125900828D02*
X215142858Y-124400828D01*
X215142858Y-124400828D02*
X215642858Y-125900828D01*
X216071429Y-125829400D02*
X216285715Y-125900828D01*
X216285715Y-125900828D02*
X216642857Y-125900828D01*
X216642857Y-125900828D02*
X216785715Y-125829400D01*
X216785715Y-125829400D02*
X216857143Y-125757971D01*
X216857143Y-125757971D02*
X216928572Y-125615114D01*
X216928572Y-125615114D02*
X216928572Y-125472257D01*
X216928572Y-125472257D02*
X216857143Y-125329400D01*
X216857143Y-125329400D02*
X216785715Y-125257971D01*
X216785715Y-125257971D02*
X216642857Y-125186542D01*
X216642857Y-125186542D02*
X216357143Y-125115114D01*
X216357143Y-125115114D02*
X216214286Y-125043685D01*
X216214286Y-125043685D02*
X216142857Y-124972257D01*
X216142857Y-124972257D02*
X216071429Y-124829400D01*
X216071429Y-124829400D02*
X216071429Y-124686542D01*
X216071429Y-124686542D02*
X216142857Y-124543685D01*
X216142857Y-124543685D02*
X216214286Y-124472257D01*
X216214286Y-124472257D02*
X216357143Y-124400828D01*
X216357143Y-124400828D02*
X216714286Y-124400828D01*
X216714286Y-124400828D02*
X216928572Y-124472257D01*
X217571428Y-125115114D02*
X218071428Y-125115114D01*
X218285714Y-125900828D02*
X217571428Y-125900828D01*
X217571428Y-125900828D02*
X217571428Y-124400828D01*
X217571428Y-124400828D02*
X218285714Y-124400828D01*
D12*
X212704819Y-164342857D02*
X212228628Y-164676190D01*
X212704819Y-164914285D02*
X211704819Y-164914285D01*
X211704819Y-164914285D02*
X211704819Y-164533333D01*
X211704819Y-164533333D02*
X211752438Y-164438095D01*
X211752438Y-164438095D02*
X211800057Y-164390476D01*
X211800057Y-164390476D02*
X211895295Y-164342857D01*
X211895295Y-164342857D02*
X212038152Y-164342857D01*
X212038152Y-164342857D02*
X212133390Y-164390476D01*
X212133390Y-164390476D02*
X212181009Y-164438095D01*
X212181009Y-164438095D02*
X212228628Y-164533333D01*
X212228628Y-164533333D02*
X212228628Y-164914285D01*
X211704819Y-164009523D02*
X211704819Y-163390476D01*
X211704819Y-163390476D02*
X212085771Y-163723809D01*
X212085771Y-163723809D02*
X212085771Y-163580952D01*
X212085771Y-163580952D02*
X212133390Y-163485714D01*
X212133390Y-163485714D02*
X212181009Y-163438095D01*
X212181009Y-163438095D02*
X212276247Y-163390476D01*
X212276247Y-163390476D02*
X212514342Y-163390476D01*
X212514342Y-163390476D02*
X212609580Y-163438095D01*
X212609580Y-163438095D02*
X212657200Y-163485714D01*
X212657200Y-163485714D02*
X212704819Y-163580952D01*
X212704819Y-163580952D02*
X212704819Y-163866666D01*
X212704819Y-163866666D02*
X212657200Y-163961904D01*
X212657200Y-163961904D02*
X212609580Y-164009523D01*
X211704819Y-162485714D02*
X211704819Y-162961904D01*
X211704819Y-162961904D02*
X212181009Y-163009523D01*
X212181009Y-163009523D02*
X212133390Y-162961904D01*
X212133390Y-162961904D02*
X212085771Y-162866666D01*
X212085771Y-162866666D02*
X212085771Y-162628571D01*
X212085771Y-162628571D02*
X212133390Y-162533333D01*
X212133390Y-162533333D02*
X212181009Y-162485714D01*
X212181009Y-162485714D02*
X212276247Y-162438095D01*
X212276247Y-162438095D02*
X212514342Y-162438095D01*
X212514342Y-162438095D02*
X212609580Y-162485714D01*
X212609580Y-162485714D02*
X212657200Y-162533333D01*
X212657200Y-162533333D02*
X212704819Y-162628571D01*
X212704819Y-162628571D02*
X212704819Y-162866666D01*
X212704819Y-162866666D02*
X212657200Y-162961904D01*
X212657200Y-162961904D02*
X212609580Y-163009523D01*
X211204819Y-164342857D02*
X210728628Y-164676190D01*
X211204819Y-164914285D02*
X210204819Y-164914285D01*
X210204819Y-164914285D02*
X210204819Y-164533333D01*
X210204819Y-164533333D02*
X210252438Y-164438095D01*
X210252438Y-164438095D02*
X210300057Y-164390476D01*
X210300057Y-164390476D02*
X210395295Y-164342857D01*
X210395295Y-164342857D02*
X210538152Y-164342857D01*
X210538152Y-164342857D02*
X210633390Y-164390476D01*
X210633390Y-164390476D02*
X210681009Y-164438095D01*
X210681009Y-164438095D02*
X210728628Y-164533333D01*
X210728628Y-164533333D02*
X210728628Y-164914285D01*
X210204819Y-164009523D02*
X210204819Y-163390476D01*
X210204819Y-163390476D02*
X210585771Y-163723809D01*
X210585771Y-163723809D02*
X210585771Y-163580952D01*
X210585771Y-163580952D02*
X210633390Y-163485714D01*
X210633390Y-163485714D02*
X210681009Y-163438095D01*
X210681009Y-163438095D02*
X210776247Y-163390476D01*
X210776247Y-163390476D02*
X211014342Y-163390476D01*
X211014342Y-163390476D02*
X211109580Y-163438095D01*
X211109580Y-163438095D02*
X211157200Y-163485714D01*
X211157200Y-163485714D02*
X211204819Y-163580952D01*
X211204819Y-163580952D02*
X211204819Y-163866666D01*
X211204819Y-163866666D02*
X211157200Y-163961904D01*
X211157200Y-163961904D02*
X211109580Y-164009523D01*
X210538152Y-162533333D02*
X211204819Y-162533333D01*
X210157200Y-162771428D02*
X210871485Y-163009523D01*
X210871485Y-163009523D02*
X210871485Y-162390476D01*
X215059580Y-145142857D02*
X215107200Y-145190476D01*
X215107200Y-145190476D02*
X215154819Y-145333333D01*
X215154819Y-145333333D02*
X215154819Y-145428571D01*
X215154819Y-145428571D02*
X215107200Y-145571428D01*
X215107200Y-145571428D02*
X215011961Y-145666666D01*
X215011961Y-145666666D02*
X214916723Y-145714285D01*
X214916723Y-145714285D02*
X214726247Y-145761904D01*
X214726247Y-145761904D02*
X214583390Y-145761904D01*
X214583390Y-145761904D02*
X214392914Y-145714285D01*
X214392914Y-145714285D02*
X214297676Y-145666666D01*
X214297676Y-145666666D02*
X214202438Y-145571428D01*
X214202438Y-145571428D02*
X214154819Y-145428571D01*
X214154819Y-145428571D02*
X214154819Y-145333333D01*
X214154819Y-145333333D02*
X214202438Y-145190476D01*
X214202438Y-145190476D02*
X214250057Y-145142857D01*
X215154819Y-144190476D02*
X215154819Y-144761904D01*
X215154819Y-144476190D02*
X214154819Y-144476190D01*
X214154819Y-144476190D02*
X214297676Y-144571428D01*
X214297676Y-144571428D02*
X214392914Y-144666666D01*
X214392914Y-144666666D02*
X214440533Y-144761904D01*
X214154819Y-143857142D02*
X214154819Y-143238095D01*
X214154819Y-143238095D02*
X214535771Y-143571428D01*
X214535771Y-143571428D02*
X214535771Y-143428571D01*
X214535771Y-143428571D02*
X214583390Y-143333333D01*
X214583390Y-143333333D02*
X214631009Y-143285714D01*
X214631009Y-143285714D02*
X214726247Y-143238095D01*
X214726247Y-143238095D02*
X214964342Y-143238095D01*
X214964342Y-143238095D02*
X215059580Y-143285714D01*
X215059580Y-143285714D02*
X215107200Y-143333333D01*
X215107200Y-143333333D02*
X215154819Y-143428571D01*
X215154819Y-143428571D02*
X215154819Y-143714285D01*
X215154819Y-143714285D02*
X215107200Y-143809523D01*
X215107200Y-143809523D02*
X215059580Y-143857142D01*
X196257142Y-160754819D02*
X195923809Y-160278628D01*
X195685714Y-160754819D02*
X195685714Y-159754819D01*
X195685714Y-159754819D02*
X196066666Y-159754819D01*
X196066666Y-159754819D02*
X196161904Y-159802438D01*
X196161904Y-159802438D02*
X196209523Y-159850057D01*
X196209523Y-159850057D02*
X196257142Y-159945295D01*
X196257142Y-159945295D02*
X196257142Y-160088152D01*
X196257142Y-160088152D02*
X196209523Y-160183390D01*
X196209523Y-160183390D02*
X196161904Y-160231009D01*
X196161904Y-160231009D02*
X196066666Y-160278628D01*
X196066666Y-160278628D02*
X195685714Y-160278628D01*
X197209523Y-160754819D02*
X196638095Y-160754819D01*
X196923809Y-160754819D02*
X196923809Y-159754819D01*
X196923809Y-159754819D02*
X196828571Y-159897676D01*
X196828571Y-159897676D02*
X196733333Y-159992914D01*
X196733333Y-159992914D02*
X196638095Y-160040533D01*
X198114285Y-159754819D02*
X197638095Y-159754819D01*
X197638095Y-159754819D02*
X197590476Y-160231009D01*
X197590476Y-160231009D02*
X197638095Y-160183390D01*
X197638095Y-160183390D02*
X197733333Y-160135771D01*
X197733333Y-160135771D02*
X197971428Y-160135771D01*
X197971428Y-160135771D02*
X198066666Y-160183390D01*
X198066666Y-160183390D02*
X198114285Y-160231009D01*
X198114285Y-160231009D02*
X198161904Y-160326247D01*
X198161904Y-160326247D02*
X198161904Y-160564342D01*
X198161904Y-160564342D02*
X198114285Y-160659580D01*
X198114285Y-160659580D02*
X198066666Y-160707200D01*
X198066666Y-160707200D02*
X197971428Y-160754819D01*
X197971428Y-160754819D02*
X197733333Y-160754819D01*
X197733333Y-160754819D02*
X197638095Y-160707200D01*
X197638095Y-160707200D02*
X197590476Y-160659580D01*
X224583333Y-155359580D02*
X224535714Y-155407200D01*
X224535714Y-155407200D02*
X224392857Y-155454819D01*
X224392857Y-155454819D02*
X224297619Y-155454819D01*
X224297619Y-155454819D02*
X224154762Y-155407200D01*
X224154762Y-155407200D02*
X224059524Y-155311961D01*
X224059524Y-155311961D02*
X224011905Y-155216723D01*
X224011905Y-155216723D02*
X223964286Y-155026247D01*
X223964286Y-155026247D02*
X223964286Y-154883390D01*
X223964286Y-154883390D02*
X224011905Y-154692914D01*
X224011905Y-154692914D02*
X224059524Y-154597676D01*
X224059524Y-154597676D02*
X224154762Y-154502438D01*
X224154762Y-154502438D02*
X224297619Y-154454819D01*
X224297619Y-154454819D02*
X224392857Y-154454819D01*
X224392857Y-154454819D02*
X224535714Y-154502438D01*
X224535714Y-154502438D02*
X224583333Y-154550057D01*
X225488095Y-154454819D02*
X225011905Y-154454819D01*
X225011905Y-154454819D02*
X224964286Y-154931009D01*
X224964286Y-154931009D02*
X225011905Y-154883390D01*
X225011905Y-154883390D02*
X225107143Y-154835771D01*
X225107143Y-154835771D02*
X225345238Y-154835771D01*
X225345238Y-154835771D02*
X225440476Y-154883390D01*
X225440476Y-154883390D02*
X225488095Y-154931009D01*
X225488095Y-154931009D02*
X225535714Y-155026247D01*
X225535714Y-155026247D02*
X225535714Y-155264342D01*
X225535714Y-155264342D02*
X225488095Y-155359580D01*
X225488095Y-155359580D02*
X225440476Y-155407200D01*
X225440476Y-155407200D02*
X225345238Y-155454819D01*
X225345238Y-155454819D02*
X225107143Y-155454819D01*
X225107143Y-155454819D02*
X225011905Y-155407200D01*
X225011905Y-155407200D02*
X224964286Y-155359580D01*
X215057142Y-153759580D02*
X215009523Y-153807200D01*
X215009523Y-153807200D02*
X214866666Y-153854819D01*
X214866666Y-153854819D02*
X214771428Y-153854819D01*
X214771428Y-153854819D02*
X214628571Y-153807200D01*
X214628571Y-153807200D02*
X214533333Y-153711961D01*
X214533333Y-153711961D02*
X214485714Y-153616723D01*
X214485714Y-153616723D02*
X214438095Y-153426247D01*
X214438095Y-153426247D02*
X214438095Y-153283390D01*
X214438095Y-153283390D02*
X214485714Y-153092914D01*
X214485714Y-153092914D02*
X214533333Y-152997676D01*
X214533333Y-152997676D02*
X214628571Y-152902438D01*
X214628571Y-152902438D02*
X214771428Y-152854819D01*
X214771428Y-152854819D02*
X214866666Y-152854819D01*
X214866666Y-152854819D02*
X215009523Y-152902438D01*
X215009523Y-152902438D02*
X215057142Y-152950057D01*
X216009523Y-153854819D02*
X215438095Y-153854819D01*
X215723809Y-153854819D02*
X215723809Y-152854819D01*
X215723809Y-152854819D02*
X215628571Y-152997676D01*
X215628571Y-152997676D02*
X215533333Y-153092914D01*
X215533333Y-153092914D02*
X215438095Y-153140533D01*
X216866666Y-153188152D02*
X216866666Y-153854819D01*
X216628571Y-152807200D02*
X216390476Y-153521485D01*
X216390476Y-153521485D02*
X217009523Y-153521485D01*
X222354819Y-162742857D02*
X221878628Y-163076190D01*
X222354819Y-163314285D02*
X221354819Y-163314285D01*
X221354819Y-163314285D02*
X221354819Y-162933333D01*
X221354819Y-162933333D02*
X221402438Y-162838095D01*
X221402438Y-162838095D02*
X221450057Y-162790476D01*
X221450057Y-162790476D02*
X221545295Y-162742857D01*
X221545295Y-162742857D02*
X221688152Y-162742857D01*
X221688152Y-162742857D02*
X221783390Y-162790476D01*
X221783390Y-162790476D02*
X221831009Y-162838095D01*
X221831009Y-162838095D02*
X221878628Y-162933333D01*
X221878628Y-162933333D02*
X221878628Y-163314285D01*
X221450057Y-162361904D02*
X221402438Y-162314285D01*
X221402438Y-162314285D02*
X221354819Y-162219047D01*
X221354819Y-162219047D02*
X221354819Y-161980952D01*
X221354819Y-161980952D02*
X221402438Y-161885714D01*
X221402438Y-161885714D02*
X221450057Y-161838095D01*
X221450057Y-161838095D02*
X221545295Y-161790476D01*
X221545295Y-161790476D02*
X221640533Y-161790476D01*
X221640533Y-161790476D02*
X221783390Y-161838095D01*
X221783390Y-161838095D02*
X222354819Y-162409523D01*
X222354819Y-162409523D02*
X222354819Y-161790476D01*
X221354819Y-161171428D02*
X221354819Y-161076190D01*
X221354819Y-161076190D02*
X221402438Y-160980952D01*
X221402438Y-160980952D02*
X221450057Y-160933333D01*
X221450057Y-160933333D02*
X221545295Y-160885714D01*
X221545295Y-160885714D02*
X221735771Y-160838095D01*
X221735771Y-160838095D02*
X221973866Y-160838095D01*
X221973866Y-160838095D02*
X222164342Y-160885714D01*
X222164342Y-160885714D02*
X222259580Y-160933333D01*
X222259580Y-160933333D02*
X222307200Y-160980952D01*
X222307200Y-160980952D02*
X222354819Y-161076190D01*
X222354819Y-161076190D02*
X222354819Y-161171428D01*
X222354819Y-161171428D02*
X222307200Y-161266666D01*
X222307200Y-161266666D02*
X222259580Y-161314285D01*
X222259580Y-161314285D02*
X222164342Y-161361904D01*
X222164342Y-161361904D02*
X221973866Y-161409523D01*
X221973866Y-161409523D02*
X221735771Y-161409523D01*
X221735771Y-161409523D02*
X221545295Y-161361904D01*
X221545295Y-161361904D02*
X221450057Y-161314285D01*
X221450057Y-161314285D02*
X221402438Y-161266666D01*
X221402438Y-161266666D02*
X221354819Y-161171428D01*
X191711904Y-155254819D02*
X191711904Y-154254819D01*
X191711904Y-154254819D02*
X191949999Y-154254819D01*
X191949999Y-154254819D02*
X192092856Y-154302438D01*
X192092856Y-154302438D02*
X192188094Y-154397676D01*
X192188094Y-154397676D02*
X192235713Y-154492914D01*
X192235713Y-154492914D02*
X192283332Y-154683390D01*
X192283332Y-154683390D02*
X192283332Y-154826247D01*
X192283332Y-154826247D02*
X192235713Y-155016723D01*
X192235713Y-155016723D02*
X192188094Y-155111961D01*
X192188094Y-155111961D02*
X192092856Y-155207200D01*
X192092856Y-155207200D02*
X191949999Y-155254819D01*
X191949999Y-155254819D02*
X191711904Y-155254819D01*
X193188094Y-154254819D02*
X192711904Y-154254819D01*
X192711904Y-154254819D02*
X192664285Y-154731009D01*
X192664285Y-154731009D02*
X192711904Y-154683390D01*
X192711904Y-154683390D02*
X192807142Y-154635771D01*
X192807142Y-154635771D02*
X193045237Y-154635771D01*
X193045237Y-154635771D02*
X193140475Y-154683390D01*
X193140475Y-154683390D02*
X193188094Y-154731009D01*
X193188094Y-154731009D02*
X193235713Y-154826247D01*
X193235713Y-154826247D02*
X193235713Y-155064342D01*
X193235713Y-155064342D02*
X193188094Y-155159580D01*
X193188094Y-155159580D02*
X193140475Y-155207200D01*
X193140475Y-155207200D02*
X193045237Y-155254819D01*
X193045237Y-155254819D02*
X192807142Y-155254819D01*
X192807142Y-155254819D02*
X192711904Y-155207200D01*
X192711904Y-155207200D02*
X192664285Y-155159580D01*
X228309580Y-149892857D02*
X228357200Y-149940476D01*
X228357200Y-149940476D02*
X228404819Y-150083333D01*
X228404819Y-150083333D02*
X228404819Y-150178571D01*
X228404819Y-150178571D02*
X228357200Y-150321428D01*
X228357200Y-150321428D02*
X228261961Y-150416666D01*
X228261961Y-150416666D02*
X228166723Y-150464285D01*
X228166723Y-150464285D02*
X227976247Y-150511904D01*
X227976247Y-150511904D02*
X227833390Y-150511904D01*
X227833390Y-150511904D02*
X227642914Y-150464285D01*
X227642914Y-150464285D02*
X227547676Y-150416666D01*
X227547676Y-150416666D02*
X227452438Y-150321428D01*
X227452438Y-150321428D02*
X227404819Y-150178571D01*
X227404819Y-150178571D02*
X227404819Y-150083333D01*
X227404819Y-150083333D02*
X227452438Y-149940476D01*
X227452438Y-149940476D02*
X227500057Y-149892857D01*
X227500057Y-149511904D02*
X227452438Y-149464285D01*
X227452438Y-149464285D02*
X227404819Y-149369047D01*
X227404819Y-149369047D02*
X227404819Y-149130952D01*
X227404819Y-149130952D02*
X227452438Y-149035714D01*
X227452438Y-149035714D02*
X227500057Y-148988095D01*
X227500057Y-148988095D02*
X227595295Y-148940476D01*
X227595295Y-148940476D02*
X227690533Y-148940476D01*
X227690533Y-148940476D02*
X227833390Y-148988095D01*
X227833390Y-148988095D02*
X228404819Y-149559523D01*
X228404819Y-149559523D02*
X228404819Y-148940476D01*
X228404819Y-147988095D02*
X228404819Y-148559523D01*
X228404819Y-148273809D02*
X227404819Y-148273809D01*
X227404819Y-148273809D02*
X227547676Y-148369047D01*
X227547676Y-148369047D02*
X227642914Y-148464285D01*
X227642914Y-148464285D02*
X227690533Y-148559523D01*
X225023809Y-160978628D02*
X225023809Y-161454819D01*
X224690476Y-160454819D02*
X225023809Y-160978628D01*
X225023809Y-160978628D02*
X225357142Y-160454819D01*
X225642857Y-160550057D02*
X225690476Y-160502438D01*
X225690476Y-160502438D02*
X225785714Y-160454819D01*
X225785714Y-160454819D02*
X226023809Y-160454819D01*
X226023809Y-160454819D02*
X226119047Y-160502438D01*
X226119047Y-160502438D02*
X226166666Y-160550057D01*
X226166666Y-160550057D02*
X226214285Y-160645295D01*
X226214285Y-160645295D02*
X226214285Y-160740533D01*
X226214285Y-160740533D02*
X226166666Y-160883390D01*
X226166666Y-160883390D02*
X225595238Y-161454819D01*
X225595238Y-161454819D02*
X226214285Y-161454819D01*
X196233333Y-162054819D02*
X195900000Y-161578628D01*
X195661905Y-162054819D02*
X195661905Y-161054819D01*
X195661905Y-161054819D02*
X196042857Y-161054819D01*
X196042857Y-161054819D02*
X196138095Y-161102438D01*
X196138095Y-161102438D02*
X196185714Y-161150057D01*
X196185714Y-161150057D02*
X196233333Y-161245295D01*
X196233333Y-161245295D02*
X196233333Y-161388152D01*
X196233333Y-161388152D02*
X196185714Y-161483390D01*
X196185714Y-161483390D02*
X196138095Y-161531009D01*
X196138095Y-161531009D02*
X196042857Y-161578628D01*
X196042857Y-161578628D02*
X195661905Y-161578628D01*
X196804762Y-161483390D02*
X196709524Y-161435771D01*
X196709524Y-161435771D02*
X196661905Y-161388152D01*
X196661905Y-161388152D02*
X196614286Y-161292914D01*
X196614286Y-161292914D02*
X196614286Y-161245295D01*
X196614286Y-161245295D02*
X196661905Y-161150057D01*
X196661905Y-161150057D02*
X196709524Y-161102438D01*
X196709524Y-161102438D02*
X196804762Y-161054819D01*
X196804762Y-161054819D02*
X196995238Y-161054819D01*
X196995238Y-161054819D02*
X197090476Y-161102438D01*
X197090476Y-161102438D02*
X197138095Y-161150057D01*
X197138095Y-161150057D02*
X197185714Y-161245295D01*
X197185714Y-161245295D02*
X197185714Y-161292914D01*
X197185714Y-161292914D02*
X197138095Y-161388152D01*
X197138095Y-161388152D02*
X197090476Y-161435771D01*
X197090476Y-161435771D02*
X196995238Y-161483390D01*
X196995238Y-161483390D02*
X196804762Y-161483390D01*
X196804762Y-161483390D02*
X196709524Y-161531009D01*
X196709524Y-161531009D02*
X196661905Y-161578628D01*
X196661905Y-161578628D02*
X196614286Y-161673866D01*
X196614286Y-161673866D02*
X196614286Y-161864342D01*
X196614286Y-161864342D02*
X196661905Y-161959580D01*
X196661905Y-161959580D02*
X196709524Y-162007200D01*
X196709524Y-162007200D02*
X196804762Y-162054819D01*
X196804762Y-162054819D02*
X196995238Y-162054819D01*
X196995238Y-162054819D02*
X197090476Y-162007200D01*
X197090476Y-162007200D02*
X197138095Y-161959580D01*
X197138095Y-161959580D02*
X197185714Y-161864342D01*
X197185714Y-161864342D02*
X197185714Y-161673866D01*
X197185714Y-161673866D02*
X197138095Y-161578628D01*
X197138095Y-161578628D02*
X197090476Y-161531009D01*
X197090476Y-161531009D02*
X196995238Y-161483390D01*
X223500057Y-154745238D02*
X223452438Y-154840476D01*
X223452438Y-154840476D02*
X223357200Y-154935714D01*
X223357200Y-154935714D02*
X223214342Y-155078571D01*
X223214342Y-155078571D02*
X223166723Y-155173809D01*
X223166723Y-155173809D02*
X223166723Y-155269047D01*
X223404819Y-155221428D02*
X223357200Y-155316666D01*
X223357200Y-155316666D02*
X223261961Y-155411904D01*
X223261961Y-155411904D02*
X223071485Y-155459523D01*
X223071485Y-155459523D02*
X222738152Y-155459523D01*
X222738152Y-155459523D02*
X222547676Y-155411904D01*
X222547676Y-155411904D02*
X222452438Y-155316666D01*
X222452438Y-155316666D02*
X222404819Y-155221428D01*
X222404819Y-155221428D02*
X222404819Y-155030952D01*
X222404819Y-155030952D02*
X222452438Y-154935714D01*
X222452438Y-154935714D02*
X222547676Y-154840476D01*
X222547676Y-154840476D02*
X222738152Y-154792857D01*
X222738152Y-154792857D02*
X223071485Y-154792857D01*
X223071485Y-154792857D02*
X223261961Y-154840476D01*
X223261961Y-154840476D02*
X223357200Y-154935714D01*
X223357200Y-154935714D02*
X223404819Y-155030952D01*
X223404819Y-155030952D02*
X223404819Y-155221428D01*
X222404819Y-154459523D02*
X222404819Y-153792857D01*
X222404819Y-153792857D02*
X223404819Y-154221428D01*
X227738095Y-125254819D02*
X227738095Y-124254819D01*
X227738095Y-124731009D02*
X228309523Y-124731009D01*
X228309523Y-125254819D02*
X228309523Y-124254819D01*
X228738095Y-124350057D02*
X228785714Y-124302438D01*
X228785714Y-124302438D02*
X228880952Y-124254819D01*
X228880952Y-124254819D02*
X229119047Y-124254819D01*
X229119047Y-124254819D02*
X229214285Y-124302438D01*
X229214285Y-124302438D02*
X229261904Y-124350057D01*
X229261904Y-124350057D02*
X229309523Y-124445295D01*
X229309523Y-124445295D02*
X229309523Y-124540533D01*
X229309523Y-124540533D02*
X229261904Y-124683390D01*
X229261904Y-124683390D02*
X228690476Y-125254819D01*
X228690476Y-125254819D02*
X229309523Y-125254819D01*
X190738095Y-125254819D02*
X190738095Y-124254819D01*
X190738095Y-124731009D02*
X191309523Y-124731009D01*
X191309523Y-125254819D02*
X191309523Y-124254819D01*
X192309523Y-125254819D02*
X191738095Y-125254819D01*
X192023809Y-125254819D02*
X192023809Y-124254819D01*
X192023809Y-124254819D02*
X191928571Y-124397676D01*
X191928571Y-124397676D02*
X191833333Y-124492914D01*
X191833333Y-124492914D02*
X191738095Y-124540533D01*
X212057142Y-153759580D02*
X212009523Y-153807200D01*
X212009523Y-153807200D02*
X211866666Y-153854819D01*
X211866666Y-153854819D02*
X211771428Y-153854819D01*
X211771428Y-153854819D02*
X211628571Y-153807200D01*
X211628571Y-153807200D02*
X211533333Y-153711961D01*
X211533333Y-153711961D02*
X211485714Y-153616723D01*
X211485714Y-153616723D02*
X211438095Y-153426247D01*
X211438095Y-153426247D02*
X211438095Y-153283390D01*
X211438095Y-153283390D02*
X211485714Y-153092914D01*
X211485714Y-153092914D02*
X211533333Y-152997676D01*
X211533333Y-152997676D02*
X211628571Y-152902438D01*
X211628571Y-152902438D02*
X211771428Y-152854819D01*
X211771428Y-152854819D02*
X211866666Y-152854819D01*
X211866666Y-152854819D02*
X212009523Y-152902438D01*
X212009523Y-152902438D02*
X212057142Y-152950057D01*
X213009523Y-153854819D02*
X212438095Y-153854819D01*
X212723809Y-153854819D02*
X212723809Y-152854819D01*
X212723809Y-152854819D02*
X212628571Y-152997676D01*
X212628571Y-152997676D02*
X212533333Y-153092914D01*
X212533333Y-153092914D02*
X212438095Y-153140533D01*
X213342857Y-152854819D02*
X214009523Y-152854819D01*
X214009523Y-152854819D02*
X213580952Y-153854819D01*
X200457142Y-142954819D02*
X200123809Y-142478628D01*
X199885714Y-142954819D02*
X199885714Y-141954819D01*
X199885714Y-141954819D02*
X200266666Y-141954819D01*
X200266666Y-141954819D02*
X200361904Y-142002438D01*
X200361904Y-142002438D02*
X200409523Y-142050057D01*
X200409523Y-142050057D02*
X200457142Y-142145295D01*
X200457142Y-142145295D02*
X200457142Y-142288152D01*
X200457142Y-142288152D02*
X200409523Y-142383390D01*
X200409523Y-142383390D02*
X200361904Y-142431009D01*
X200361904Y-142431009D02*
X200266666Y-142478628D01*
X200266666Y-142478628D02*
X199885714Y-142478628D01*
X200838095Y-142050057D02*
X200885714Y-142002438D01*
X200885714Y-142002438D02*
X200980952Y-141954819D01*
X200980952Y-141954819D02*
X201219047Y-141954819D01*
X201219047Y-141954819D02*
X201314285Y-142002438D01*
X201314285Y-142002438D02*
X201361904Y-142050057D01*
X201361904Y-142050057D02*
X201409523Y-142145295D01*
X201409523Y-142145295D02*
X201409523Y-142240533D01*
X201409523Y-142240533D02*
X201361904Y-142383390D01*
X201361904Y-142383390D02*
X200790476Y-142954819D01*
X200790476Y-142954819D02*
X201409523Y-142954819D01*
X201980952Y-142383390D02*
X201885714Y-142335771D01*
X201885714Y-142335771D02*
X201838095Y-142288152D01*
X201838095Y-142288152D02*
X201790476Y-142192914D01*
X201790476Y-142192914D02*
X201790476Y-142145295D01*
X201790476Y-142145295D02*
X201838095Y-142050057D01*
X201838095Y-142050057D02*
X201885714Y-142002438D01*
X201885714Y-142002438D02*
X201980952Y-141954819D01*
X201980952Y-141954819D02*
X202171428Y-141954819D01*
X202171428Y-141954819D02*
X202266666Y-142002438D01*
X202266666Y-142002438D02*
X202314285Y-142050057D01*
X202314285Y-142050057D02*
X202361904Y-142145295D01*
X202361904Y-142145295D02*
X202361904Y-142192914D01*
X202361904Y-142192914D02*
X202314285Y-142288152D01*
X202314285Y-142288152D02*
X202266666Y-142335771D01*
X202266666Y-142335771D02*
X202171428Y-142383390D01*
X202171428Y-142383390D02*
X201980952Y-142383390D01*
X201980952Y-142383390D02*
X201885714Y-142431009D01*
X201885714Y-142431009D02*
X201838095Y-142478628D01*
X201838095Y-142478628D02*
X201790476Y-142573866D01*
X201790476Y-142573866D02*
X201790476Y-142764342D01*
X201790476Y-142764342D02*
X201838095Y-142859580D01*
X201838095Y-142859580D02*
X201885714Y-142907200D01*
X201885714Y-142907200D02*
X201980952Y-142954819D01*
X201980952Y-142954819D02*
X202171428Y-142954819D01*
X202171428Y-142954819D02*
X202266666Y-142907200D01*
X202266666Y-142907200D02*
X202314285Y-142859580D01*
X202314285Y-142859580D02*
X202361904Y-142764342D01*
X202361904Y-142764342D02*
X202361904Y-142573866D01*
X202361904Y-142573866D02*
X202314285Y-142478628D01*
X202314285Y-142478628D02*
X202266666Y-142431009D01*
X202266666Y-142431009D02*
X202171428Y-142383390D01*
X192357142Y-146754819D02*
X192023809Y-146278628D01*
X191785714Y-146754819D02*
X191785714Y-145754819D01*
X191785714Y-145754819D02*
X192166666Y-145754819D01*
X192166666Y-145754819D02*
X192261904Y-145802438D01*
X192261904Y-145802438D02*
X192309523Y-145850057D01*
X192309523Y-145850057D02*
X192357142Y-145945295D01*
X192357142Y-145945295D02*
X192357142Y-146088152D01*
X192357142Y-146088152D02*
X192309523Y-146183390D01*
X192309523Y-146183390D02*
X192261904Y-146231009D01*
X192261904Y-146231009D02*
X192166666Y-146278628D01*
X192166666Y-146278628D02*
X191785714Y-146278628D01*
X193214285Y-146088152D02*
X193214285Y-146754819D01*
X192976190Y-145707200D02*
X192738095Y-146421485D01*
X192738095Y-146421485D02*
X193357142Y-146421485D01*
X193928571Y-145754819D02*
X194023809Y-145754819D01*
X194023809Y-145754819D02*
X194119047Y-145802438D01*
X194119047Y-145802438D02*
X194166666Y-145850057D01*
X194166666Y-145850057D02*
X194214285Y-145945295D01*
X194214285Y-145945295D02*
X194261904Y-146135771D01*
X194261904Y-146135771D02*
X194261904Y-146373866D01*
X194261904Y-146373866D02*
X194214285Y-146564342D01*
X194214285Y-146564342D02*
X194166666Y-146659580D01*
X194166666Y-146659580D02*
X194119047Y-146707200D01*
X194119047Y-146707200D02*
X194023809Y-146754819D01*
X194023809Y-146754819D02*
X193928571Y-146754819D01*
X193928571Y-146754819D02*
X193833333Y-146707200D01*
X193833333Y-146707200D02*
X193785714Y-146659580D01*
X193785714Y-146659580D02*
X193738095Y-146564342D01*
X193738095Y-146564342D02*
X193690476Y-146373866D01*
X193690476Y-146373866D02*
X193690476Y-146135771D01*
X193690476Y-146135771D02*
X193738095Y-145945295D01*
X193738095Y-145945295D02*
X193785714Y-145850057D01*
X193785714Y-145850057D02*
X193833333Y-145802438D01*
X193833333Y-145802438D02*
X193928571Y-145754819D01*
X220084819Y-160342857D02*
X219608628Y-160676190D01*
X220084819Y-160914285D02*
X219084819Y-160914285D01*
X219084819Y-160914285D02*
X219084819Y-160533333D01*
X219084819Y-160533333D02*
X219132438Y-160438095D01*
X219132438Y-160438095D02*
X219180057Y-160390476D01*
X219180057Y-160390476D02*
X219275295Y-160342857D01*
X219275295Y-160342857D02*
X219418152Y-160342857D01*
X219418152Y-160342857D02*
X219513390Y-160390476D01*
X219513390Y-160390476D02*
X219561009Y-160438095D01*
X219561009Y-160438095D02*
X219608628Y-160533333D01*
X219608628Y-160533333D02*
X219608628Y-160914285D01*
X219418152Y-159485714D02*
X220084819Y-159485714D01*
X219037200Y-159723809D02*
X219751485Y-159961904D01*
X219751485Y-159961904D02*
X219751485Y-159342857D01*
X219418152Y-158533333D02*
X220084819Y-158533333D01*
X219037200Y-158771428D02*
X219751485Y-159009523D01*
X219751485Y-159009523D02*
X219751485Y-158390476D01*
X200457142Y-144204819D02*
X200123809Y-143728628D01*
X199885714Y-144204819D02*
X199885714Y-143204819D01*
X199885714Y-143204819D02*
X200266666Y-143204819D01*
X200266666Y-143204819D02*
X200361904Y-143252438D01*
X200361904Y-143252438D02*
X200409523Y-143300057D01*
X200409523Y-143300057D02*
X200457142Y-143395295D01*
X200457142Y-143395295D02*
X200457142Y-143538152D01*
X200457142Y-143538152D02*
X200409523Y-143633390D01*
X200409523Y-143633390D02*
X200361904Y-143681009D01*
X200361904Y-143681009D02*
X200266666Y-143728628D01*
X200266666Y-143728628D02*
X199885714Y-143728628D01*
X200838095Y-143300057D02*
X200885714Y-143252438D01*
X200885714Y-143252438D02*
X200980952Y-143204819D01*
X200980952Y-143204819D02*
X201219047Y-143204819D01*
X201219047Y-143204819D02*
X201314285Y-143252438D01*
X201314285Y-143252438D02*
X201361904Y-143300057D01*
X201361904Y-143300057D02*
X201409523Y-143395295D01*
X201409523Y-143395295D02*
X201409523Y-143490533D01*
X201409523Y-143490533D02*
X201361904Y-143633390D01*
X201361904Y-143633390D02*
X200790476Y-144204819D01*
X200790476Y-144204819D02*
X201409523Y-144204819D01*
X201885714Y-144204819D02*
X202076190Y-144204819D01*
X202076190Y-144204819D02*
X202171428Y-144157200D01*
X202171428Y-144157200D02*
X202219047Y-144109580D01*
X202219047Y-144109580D02*
X202314285Y-143966723D01*
X202314285Y-143966723D02*
X202361904Y-143776247D01*
X202361904Y-143776247D02*
X202361904Y-143395295D01*
X202361904Y-143395295D02*
X202314285Y-143300057D01*
X202314285Y-143300057D02*
X202266666Y-143252438D01*
X202266666Y-143252438D02*
X202171428Y-143204819D01*
X202171428Y-143204819D02*
X201980952Y-143204819D01*
X201980952Y-143204819D02*
X201885714Y-143252438D01*
X201885714Y-143252438D02*
X201838095Y-143300057D01*
X201838095Y-143300057D02*
X201790476Y-143395295D01*
X201790476Y-143395295D02*
X201790476Y-143633390D01*
X201790476Y-143633390D02*
X201838095Y-143728628D01*
X201838095Y-143728628D02*
X201885714Y-143776247D01*
X201885714Y-143776247D02*
X201980952Y-143823866D01*
X201980952Y-143823866D02*
X202171428Y-143823866D01*
X202171428Y-143823866D02*
X202266666Y-143776247D01*
X202266666Y-143776247D02*
X202314285Y-143728628D01*
X202314285Y-143728628D02*
X202361904Y-143633390D01*
X192357142Y-148454819D02*
X192023809Y-147978628D01*
X191785714Y-148454819D02*
X191785714Y-147454819D01*
X191785714Y-147454819D02*
X192166666Y-147454819D01*
X192166666Y-147454819D02*
X192261904Y-147502438D01*
X192261904Y-147502438D02*
X192309523Y-147550057D01*
X192309523Y-147550057D02*
X192357142Y-147645295D01*
X192357142Y-147645295D02*
X192357142Y-147788152D01*
X192357142Y-147788152D02*
X192309523Y-147883390D01*
X192309523Y-147883390D02*
X192261904Y-147931009D01*
X192261904Y-147931009D02*
X192166666Y-147978628D01*
X192166666Y-147978628D02*
X191785714Y-147978628D01*
X192690476Y-147454819D02*
X193309523Y-147454819D01*
X193309523Y-147454819D02*
X192976190Y-147835771D01*
X192976190Y-147835771D02*
X193119047Y-147835771D01*
X193119047Y-147835771D02*
X193214285Y-147883390D01*
X193214285Y-147883390D02*
X193261904Y-147931009D01*
X193261904Y-147931009D02*
X193309523Y-148026247D01*
X193309523Y-148026247D02*
X193309523Y-148264342D01*
X193309523Y-148264342D02*
X193261904Y-148359580D01*
X193261904Y-148359580D02*
X193214285Y-148407200D01*
X193214285Y-148407200D02*
X193119047Y-148454819D01*
X193119047Y-148454819D02*
X192833333Y-148454819D01*
X192833333Y-148454819D02*
X192738095Y-148407200D01*
X192738095Y-148407200D02*
X192690476Y-148359580D01*
X194261904Y-148454819D02*
X193690476Y-148454819D01*
X193976190Y-148454819D02*
X193976190Y-147454819D01*
X193976190Y-147454819D02*
X193880952Y-147597676D01*
X193880952Y-147597676D02*
X193785714Y-147692914D01*
X193785714Y-147692914D02*
X193690476Y-147740533D01*
X227009580Y-149892857D02*
X227057200Y-149940476D01*
X227057200Y-149940476D02*
X227104819Y-150083333D01*
X227104819Y-150083333D02*
X227104819Y-150178571D01*
X227104819Y-150178571D02*
X227057200Y-150321428D01*
X227057200Y-150321428D02*
X226961961Y-150416666D01*
X226961961Y-150416666D02*
X226866723Y-150464285D01*
X226866723Y-150464285D02*
X226676247Y-150511904D01*
X226676247Y-150511904D02*
X226533390Y-150511904D01*
X226533390Y-150511904D02*
X226342914Y-150464285D01*
X226342914Y-150464285D02*
X226247676Y-150416666D01*
X226247676Y-150416666D02*
X226152438Y-150321428D01*
X226152438Y-150321428D02*
X226104819Y-150178571D01*
X226104819Y-150178571D02*
X226104819Y-150083333D01*
X226104819Y-150083333D02*
X226152438Y-149940476D01*
X226152438Y-149940476D02*
X226200057Y-149892857D01*
X226200057Y-149511904D02*
X226152438Y-149464285D01*
X226152438Y-149464285D02*
X226104819Y-149369047D01*
X226104819Y-149369047D02*
X226104819Y-149130952D01*
X226104819Y-149130952D02*
X226152438Y-149035714D01*
X226152438Y-149035714D02*
X226200057Y-148988095D01*
X226200057Y-148988095D02*
X226295295Y-148940476D01*
X226295295Y-148940476D02*
X226390533Y-148940476D01*
X226390533Y-148940476D02*
X226533390Y-148988095D01*
X226533390Y-148988095D02*
X227104819Y-149559523D01*
X227104819Y-149559523D02*
X227104819Y-148940476D01*
X226104819Y-148321428D02*
X226104819Y-148226190D01*
X226104819Y-148226190D02*
X226152438Y-148130952D01*
X226152438Y-148130952D02*
X226200057Y-148083333D01*
X226200057Y-148083333D02*
X226295295Y-148035714D01*
X226295295Y-148035714D02*
X226485771Y-147988095D01*
X226485771Y-147988095D02*
X226723866Y-147988095D01*
X226723866Y-147988095D02*
X226914342Y-148035714D01*
X226914342Y-148035714D02*
X227009580Y-148083333D01*
X227009580Y-148083333D02*
X227057200Y-148130952D01*
X227057200Y-148130952D02*
X227104819Y-148226190D01*
X227104819Y-148226190D02*
X227104819Y-148321428D01*
X227104819Y-148321428D02*
X227057200Y-148416666D01*
X227057200Y-148416666D02*
X227009580Y-148464285D01*
X227009580Y-148464285D02*
X226914342Y-148511904D01*
X226914342Y-148511904D02*
X226723866Y-148559523D01*
X226723866Y-148559523D02*
X226485771Y-148559523D01*
X226485771Y-148559523D02*
X226295295Y-148511904D01*
X226295295Y-148511904D02*
X226200057Y-148464285D01*
X226200057Y-148464285D02*
X226152438Y-148416666D01*
X226152438Y-148416666D02*
X226104819Y-148321428D01*
X216751009Y-164533333D02*
X216751009Y-164866666D01*
X217274819Y-164866666D02*
X216274819Y-164866666D01*
X216274819Y-164866666D02*
X216274819Y-164390476D01*
X216274819Y-164104761D02*
X216274819Y-163485714D01*
X216274819Y-163485714D02*
X216655771Y-163819047D01*
X216655771Y-163819047D02*
X216655771Y-163676190D01*
X216655771Y-163676190D02*
X216703390Y-163580952D01*
X216703390Y-163580952D02*
X216751009Y-163533333D01*
X216751009Y-163533333D02*
X216846247Y-163485714D01*
X216846247Y-163485714D02*
X217084342Y-163485714D01*
X217084342Y-163485714D02*
X217179580Y-163533333D01*
X217179580Y-163533333D02*
X217227200Y-163580952D01*
X217227200Y-163580952D02*
X217274819Y-163676190D01*
X217274819Y-163676190D02*
X217274819Y-163961904D01*
X217274819Y-163961904D02*
X217227200Y-164057142D01*
X217227200Y-164057142D02*
X217179580Y-164104761D01*
X213738095Y-158554819D02*
X213738095Y-159364342D01*
X213738095Y-159364342D02*
X213785714Y-159459580D01*
X213785714Y-159459580D02*
X213833333Y-159507200D01*
X213833333Y-159507200D02*
X213928571Y-159554819D01*
X213928571Y-159554819D02*
X214119047Y-159554819D01*
X214119047Y-159554819D02*
X214214285Y-159507200D01*
X214214285Y-159507200D02*
X214261904Y-159459580D01*
X214261904Y-159459580D02*
X214309523Y-159364342D01*
X214309523Y-159364342D02*
X214309523Y-158554819D01*
X214690476Y-158554819D02*
X215309523Y-158554819D01*
X215309523Y-158554819D02*
X214976190Y-158935771D01*
X214976190Y-158935771D02*
X215119047Y-158935771D01*
X215119047Y-158935771D02*
X215214285Y-158983390D01*
X215214285Y-158983390D02*
X215261904Y-159031009D01*
X215261904Y-159031009D02*
X215309523Y-159126247D01*
X215309523Y-159126247D02*
X215309523Y-159364342D01*
X215309523Y-159364342D02*
X215261904Y-159459580D01*
X215261904Y-159459580D02*
X215214285Y-159507200D01*
X215214285Y-159507200D02*
X215119047Y-159554819D01*
X215119047Y-159554819D02*
X214833333Y-159554819D01*
X214833333Y-159554819D02*
X214738095Y-159507200D01*
X214738095Y-159507200D02*
X214690476Y-159459580D01*
X191711905Y-158704819D02*
X191711905Y-157704819D01*
X191711905Y-157704819D02*
X191950000Y-157704819D01*
X191950000Y-157704819D02*
X192092857Y-157752438D01*
X192092857Y-157752438D02*
X192188095Y-157847676D01*
X192188095Y-157847676D02*
X192235714Y-157942914D01*
X192235714Y-157942914D02*
X192283333Y-158133390D01*
X192283333Y-158133390D02*
X192283333Y-158276247D01*
X192283333Y-158276247D02*
X192235714Y-158466723D01*
X192235714Y-158466723D02*
X192188095Y-158561961D01*
X192188095Y-158561961D02*
X192092857Y-158657200D01*
X192092857Y-158657200D02*
X191950000Y-158704819D01*
X191950000Y-158704819D02*
X191711905Y-158704819D01*
X192616667Y-157704819D02*
X193235714Y-157704819D01*
X193235714Y-157704819D02*
X192902381Y-158085771D01*
X192902381Y-158085771D02*
X193045238Y-158085771D01*
X193045238Y-158085771D02*
X193140476Y-158133390D01*
X193140476Y-158133390D02*
X193188095Y-158181009D01*
X193188095Y-158181009D02*
X193235714Y-158276247D01*
X193235714Y-158276247D02*
X193235714Y-158514342D01*
X193235714Y-158514342D02*
X193188095Y-158609580D01*
X193188095Y-158609580D02*
X193140476Y-158657200D01*
X193140476Y-158657200D02*
X193045238Y-158704819D01*
X193045238Y-158704819D02*
X192759524Y-158704819D01*
X192759524Y-158704819D02*
X192664286Y-158657200D01*
X192664286Y-158657200D02*
X192616667Y-158609580D01*
X209238095Y-144004819D02*
X209238095Y-144814342D01*
X209238095Y-144814342D02*
X209285714Y-144909580D01*
X209285714Y-144909580D02*
X209333333Y-144957200D01*
X209333333Y-144957200D02*
X209428571Y-145004819D01*
X209428571Y-145004819D02*
X209619047Y-145004819D01*
X209619047Y-145004819D02*
X209714285Y-144957200D01*
X209714285Y-144957200D02*
X209761904Y-144909580D01*
X209761904Y-144909580D02*
X209809523Y-144814342D01*
X209809523Y-144814342D02*
X209809523Y-144004819D01*
X210238095Y-144100057D02*
X210285714Y-144052438D01*
X210285714Y-144052438D02*
X210380952Y-144004819D01*
X210380952Y-144004819D02*
X210619047Y-144004819D01*
X210619047Y-144004819D02*
X210714285Y-144052438D01*
X210714285Y-144052438D02*
X210761904Y-144100057D01*
X210761904Y-144100057D02*
X210809523Y-144195295D01*
X210809523Y-144195295D02*
X210809523Y-144290533D01*
X210809523Y-144290533D02*
X210761904Y-144433390D01*
X210761904Y-144433390D02*
X210190476Y-145004819D01*
X210190476Y-145004819D02*
X210809523Y-145004819D01*
X191711904Y-156954819D02*
X191711904Y-155954819D01*
X191711904Y-155954819D02*
X191949999Y-155954819D01*
X191949999Y-155954819D02*
X192092856Y-156002438D01*
X192092856Y-156002438D02*
X192188094Y-156097676D01*
X192188094Y-156097676D02*
X192235713Y-156192914D01*
X192235713Y-156192914D02*
X192283332Y-156383390D01*
X192283332Y-156383390D02*
X192283332Y-156526247D01*
X192283332Y-156526247D02*
X192235713Y-156716723D01*
X192235713Y-156716723D02*
X192188094Y-156811961D01*
X192188094Y-156811961D02*
X192092856Y-156907200D01*
X192092856Y-156907200D02*
X191949999Y-156954819D01*
X191949999Y-156954819D02*
X191711904Y-156954819D01*
X193140475Y-156288152D02*
X193140475Y-156954819D01*
X192902380Y-155907200D02*
X192664285Y-156621485D01*
X192664285Y-156621485D02*
X193283332Y-156621485D01*
D13*
X200066666Y-133157419D02*
X200066666Y-133871704D01*
X200066666Y-133871704D02*
X200019047Y-134014561D01*
X200019047Y-134014561D02*
X199923809Y-134109800D01*
X199923809Y-134109800D02*
X199780952Y-134157419D01*
X199780952Y-134157419D02*
X199685714Y-134157419D01*
X200971428Y-133490752D02*
X200971428Y-134157419D01*
X200733333Y-133109800D02*
X200495238Y-133824085D01*
X200495238Y-133824085D02*
X201114285Y-133824085D01*
D12*
X216359580Y-145142857D02*
X216407200Y-145190476D01*
X216407200Y-145190476D02*
X216454819Y-145333333D01*
X216454819Y-145333333D02*
X216454819Y-145428571D01*
X216454819Y-145428571D02*
X216407200Y-145571428D01*
X216407200Y-145571428D02*
X216311961Y-145666666D01*
X216311961Y-145666666D02*
X216216723Y-145714285D01*
X216216723Y-145714285D02*
X216026247Y-145761904D01*
X216026247Y-145761904D02*
X215883390Y-145761904D01*
X215883390Y-145761904D02*
X215692914Y-145714285D01*
X215692914Y-145714285D02*
X215597676Y-145666666D01*
X215597676Y-145666666D02*
X215502438Y-145571428D01*
X215502438Y-145571428D02*
X215454819Y-145428571D01*
X215454819Y-145428571D02*
X215454819Y-145333333D01*
X215454819Y-145333333D02*
X215502438Y-145190476D01*
X215502438Y-145190476D02*
X215550057Y-145142857D01*
X216454819Y-144190476D02*
X216454819Y-144761904D01*
X216454819Y-144476190D02*
X215454819Y-144476190D01*
X215454819Y-144476190D02*
X215597676Y-144571428D01*
X215597676Y-144571428D02*
X215692914Y-144666666D01*
X215692914Y-144666666D02*
X215740533Y-144761904D01*
X215550057Y-143809523D02*
X215502438Y-143761904D01*
X215502438Y-143761904D02*
X215454819Y-143666666D01*
X215454819Y-143666666D02*
X215454819Y-143428571D01*
X215454819Y-143428571D02*
X215502438Y-143333333D01*
X215502438Y-143333333D02*
X215550057Y-143285714D01*
X215550057Y-143285714D02*
X215645295Y-143238095D01*
X215645295Y-143238095D02*
X215740533Y-143238095D01*
X215740533Y-143238095D02*
X215883390Y-143285714D01*
X215883390Y-143285714D02*
X216454819Y-143857142D01*
X216454819Y-143857142D02*
X216454819Y-143238095D01*
X199957142Y-151854819D02*
X199623809Y-151378628D01*
X199385714Y-151854819D02*
X199385714Y-150854819D01*
X199385714Y-150854819D02*
X199766666Y-150854819D01*
X199766666Y-150854819D02*
X199861904Y-150902438D01*
X199861904Y-150902438D02*
X199909523Y-150950057D01*
X199909523Y-150950057D02*
X199957142Y-151045295D01*
X199957142Y-151045295D02*
X199957142Y-151188152D01*
X199957142Y-151188152D02*
X199909523Y-151283390D01*
X199909523Y-151283390D02*
X199861904Y-151331009D01*
X199861904Y-151331009D02*
X199766666Y-151378628D01*
X199766666Y-151378628D02*
X199385714Y-151378628D01*
X200290476Y-150854819D02*
X200909523Y-150854819D01*
X200909523Y-150854819D02*
X200576190Y-151235771D01*
X200576190Y-151235771D02*
X200719047Y-151235771D01*
X200719047Y-151235771D02*
X200814285Y-151283390D01*
X200814285Y-151283390D02*
X200861904Y-151331009D01*
X200861904Y-151331009D02*
X200909523Y-151426247D01*
X200909523Y-151426247D02*
X200909523Y-151664342D01*
X200909523Y-151664342D02*
X200861904Y-151759580D01*
X200861904Y-151759580D02*
X200814285Y-151807200D01*
X200814285Y-151807200D02*
X200719047Y-151854819D01*
X200719047Y-151854819D02*
X200433333Y-151854819D01*
X200433333Y-151854819D02*
X200338095Y-151807200D01*
X200338095Y-151807200D02*
X200290476Y-151759580D01*
X201242857Y-150854819D02*
X201861904Y-150854819D01*
X201861904Y-150854819D02*
X201528571Y-151235771D01*
X201528571Y-151235771D02*
X201671428Y-151235771D01*
X201671428Y-151235771D02*
X201766666Y-151283390D01*
X201766666Y-151283390D02*
X201814285Y-151331009D01*
X201814285Y-151331009D02*
X201861904Y-151426247D01*
X201861904Y-151426247D02*
X201861904Y-151664342D01*
X201861904Y-151664342D02*
X201814285Y-151759580D01*
X201814285Y-151759580D02*
X201766666Y-151807200D01*
X201766666Y-151807200D02*
X201671428Y-151854819D01*
X201671428Y-151854819D02*
X201385714Y-151854819D01*
X201385714Y-151854819D02*
X201290476Y-151807200D01*
X201290476Y-151807200D02*
X201242857Y-151759580D01*
X190738095Y-161754819D02*
X190738095Y-160754819D01*
X190738095Y-161231009D02*
X191309523Y-161231009D01*
X191309523Y-161754819D02*
X191309523Y-160754819D01*
X191690476Y-160754819D02*
X192309523Y-160754819D01*
X192309523Y-160754819D02*
X191976190Y-161135771D01*
X191976190Y-161135771D02*
X192119047Y-161135771D01*
X192119047Y-161135771D02*
X192214285Y-161183390D01*
X192214285Y-161183390D02*
X192261904Y-161231009D01*
X192261904Y-161231009D02*
X192309523Y-161326247D01*
X192309523Y-161326247D02*
X192309523Y-161564342D01*
X192309523Y-161564342D02*
X192261904Y-161659580D01*
X192261904Y-161659580D02*
X192214285Y-161707200D01*
X192214285Y-161707200D02*
X192119047Y-161754819D01*
X192119047Y-161754819D02*
X191833333Y-161754819D01*
X191833333Y-161754819D02*
X191738095Y-161707200D01*
X191738095Y-161707200D02*
X191690476Y-161659580D01*
X220988095Y-145002819D02*
X221559523Y-145002819D01*
X221273809Y-146002819D02*
X221273809Y-145002819D01*
X221892857Y-146002819D02*
X221892857Y-145002819D01*
X221892857Y-145002819D02*
X222273809Y-145002819D01*
X222273809Y-145002819D02*
X222369047Y-145050438D01*
X222369047Y-145050438D02*
X222416666Y-145098057D01*
X222416666Y-145098057D02*
X222464285Y-145193295D01*
X222464285Y-145193295D02*
X222464285Y-145336152D01*
X222464285Y-145336152D02*
X222416666Y-145431390D01*
X222416666Y-145431390D02*
X222369047Y-145479009D01*
X222369047Y-145479009D02*
X222273809Y-145526628D01*
X222273809Y-145526628D02*
X221892857Y-145526628D01*
X223369047Y-145002819D02*
X222892857Y-145002819D01*
X222892857Y-145002819D02*
X222845238Y-145479009D01*
X222845238Y-145479009D02*
X222892857Y-145431390D01*
X222892857Y-145431390D02*
X222988095Y-145383771D01*
X222988095Y-145383771D02*
X223226190Y-145383771D01*
X223226190Y-145383771D02*
X223321428Y-145431390D01*
X223321428Y-145431390D02*
X223369047Y-145479009D01*
X223369047Y-145479009D02*
X223416666Y-145574247D01*
X223416666Y-145574247D02*
X223416666Y-145812342D01*
X223416666Y-145812342D02*
X223369047Y-145907580D01*
X223369047Y-145907580D02*
X223321428Y-145955200D01*
X223321428Y-145955200D02*
X223226190Y-146002819D01*
X223226190Y-146002819D02*
X222988095Y-146002819D01*
X222988095Y-146002819D02*
X222892857Y-145955200D01*
X222892857Y-145955200D02*
X222845238Y-145907580D01*
X227738095Y-161754819D02*
X227738095Y-160754819D01*
X227738095Y-161231009D02*
X228309523Y-161231009D01*
X228309523Y-161754819D02*
X228309523Y-160754819D01*
X229214285Y-161088152D02*
X229214285Y-161754819D01*
X228976190Y-160707200D02*
X228738095Y-161421485D01*
X228738095Y-161421485D02*
X229357142Y-161421485D01*
X199957142Y-150554819D02*
X199623809Y-150078628D01*
X199385714Y-150554819D02*
X199385714Y-149554819D01*
X199385714Y-149554819D02*
X199766666Y-149554819D01*
X199766666Y-149554819D02*
X199861904Y-149602438D01*
X199861904Y-149602438D02*
X199909523Y-149650057D01*
X199909523Y-149650057D02*
X199957142Y-149745295D01*
X199957142Y-149745295D02*
X199957142Y-149888152D01*
X199957142Y-149888152D02*
X199909523Y-149983390D01*
X199909523Y-149983390D02*
X199861904Y-150031009D01*
X199861904Y-150031009D02*
X199766666Y-150078628D01*
X199766666Y-150078628D02*
X199385714Y-150078628D01*
X200814285Y-149888152D02*
X200814285Y-150554819D01*
X200576190Y-149507200D02*
X200338095Y-150221485D01*
X200338095Y-150221485D02*
X200957142Y-150221485D01*
X201861904Y-150554819D02*
X201290476Y-150554819D01*
X201576190Y-150554819D02*
X201576190Y-149554819D01*
X201576190Y-149554819D02*
X201480952Y-149697676D01*
X201480952Y-149697676D02*
X201385714Y-149792914D01*
X201385714Y-149792914D02*
X201290476Y-149840533D01*
X196233333Y-158154819D02*
X195900000Y-157678628D01*
X195661905Y-158154819D02*
X195661905Y-157154819D01*
X195661905Y-157154819D02*
X196042857Y-157154819D01*
X196042857Y-157154819D02*
X196138095Y-157202438D01*
X196138095Y-157202438D02*
X196185714Y-157250057D01*
X196185714Y-157250057D02*
X196233333Y-157345295D01*
X196233333Y-157345295D02*
X196233333Y-157488152D01*
X196233333Y-157488152D02*
X196185714Y-157583390D01*
X196185714Y-157583390D02*
X196138095Y-157631009D01*
X196138095Y-157631009D02*
X196042857Y-157678628D01*
X196042857Y-157678628D02*
X195661905Y-157678628D01*
X196566667Y-157154819D02*
X197233333Y-157154819D01*
X197233333Y-157154819D02*
X196804762Y-158154819D01*
X217254820Y-166788094D02*
X216254820Y-166788094D01*
X216254820Y-166788094D02*
X216254820Y-166549999D01*
X216254820Y-166549999D02*
X216302439Y-166407142D01*
X216302439Y-166407142D02*
X216397677Y-166311904D01*
X216397677Y-166311904D02*
X216492915Y-166264285D01*
X216492915Y-166264285D02*
X216683391Y-166216666D01*
X216683391Y-166216666D02*
X216826248Y-166216666D01*
X216826248Y-166216666D02*
X217016724Y-166264285D01*
X217016724Y-166264285D02*
X217111962Y-166311904D01*
X217111962Y-166311904D02*
X217207201Y-166407142D01*
X217207201Y-166407142D02*
X217254820Y-166549999D01*
X217254820Y-166549999D02*
X217254820Y-166788094D01*
X216254820Y-165883332D02*
X216254820Y-165216666D01*
X216254820Y-165216666D02*
X217254820Y-165645237D01*
X217609580Y-160542857D02*
X217657200Y-160590476D01*
X217657200Y-160590476D02*
X217704819Y-160733333D01*
X217704819Y-160733333D02*
X217704819Y-160828571D01*
X217704819Y-160828571D02*
X217657200Y-160971428D01*
X217657200Y-160971428D02*
X217561961Y-161066666D01*
X217561961Y-161066666D02*
X217466723Y-161114285D01*
X217466723Y-161114285D02*
X217276247Y-161161904D01*
X217276247Y-161161904D02*
X217133390Y-161161904D01*
X217133390Y-161161904D02*
X216942914Y-161114285D01*
X216942914Y-161114285D02*
X216847676Y-161066666D01*
X216847676Y-161066666D02*
X216752438Y-160971428D01*
X216752438Y-160971428D02*
X216704819Y-160828571D01*
X216704819Y-160828571D02*
X216704819Y-160733333D01*
X216704819Y-160733333D02*
X216752438Y-160590476D01*
X216752438Y-160590476D02*
X216800057Y-160542857D01*
X217704819Y-159590476D02*
X217704819Y-160161904D01*
X217704819Y-159876190D02*
X216704819Y-159876190D01*
X216704819Y-159876190D02*
X216847676Y-159971428D01*
X216847676Y-159971428D02*
X216942914Y-160066666D01*
X216942914Y-160066666D02*
X216990533Y-160161904D01*
X216704819Y-158685714D02*
X216704819Y-159161904D01*
X216704819Y-159161904D02*
X217181009Y-159209523D01*
X217181009Y-159209523D02*
X217133390Y-159161904D01*
X217133390Y-159161904D02*
X217085771Y-159066666D01*
X217085771Y-159066666D02*
X217085771Y-158828571D01*
X217085771Y-158828571D02*
X217133390Y-158733333D01*
X217133390Y-158733333D02*
X217181009Y-158685714D01*
X217181009Y-158685714D02*
X217276247Y-158638095D01*
X217276247Y-158638095D02*
X217514342Y-158638095D01*
X217514342Y-158638095D02*
X217609580Y-158685714D01*
X217609580Y-158685714D02*
X217657200Y-158733333D01*
X217657200Y-158733333D02*
X217704819Y-158828571D01*
X217704819Y-158828571D02*
X217704819Y-159066666D01*
X217704819Y-159066666D02*
X217657200Y-159161904D01*
X217657200Y-159161904D02*
X217609580Y-159209523D01*
X208204819Y-164342857D02*
X207728628Y-164676190D01*
X208204819Y-164914285D02*
X207204819Y-164914285D01*
X207204819Y-164914285D02*
X207204819Y-164533333D01*
X207204819Y-164533333D02*
X207252438Y-164438095D01*
X207252438Y-164438095D02*
X207300057Y-164390476D01*
X207300057Y-164390476D02*
X207395295Y-164342857D01*
X207395295Y-164342857D02*
X207538152Y-164342857D01*
X207538152Y-164342857D02*
X207633390Y-164390476D01*
X207633390Y-164390476D02*
X207681009Y-164438095D01*
X207681009Y-164438095D02*
X207728628Y-164533333D01*
X207728628Y-164533333D02*
X207728628Y-164914285D01*
X207204819Y-164009523D02*
X207204819Y-163390476D01*
X207204819Y-163390476D02*
X207585771Y-163723809D01*
X207585771Y-163723809D02*
X207585771Y-163580952D01*
X207585771Y-163580952D02*
X207633390Y-163485714D01*
X207633390Y-163485714D02*
X207681009Y-163438095D01*
X207681009Y-163438095D02*
X207776247Y-163390476D01*
X207776247Y-163390476D02*
X208014342Y-163390476D01*
X208014342Y-163390476D02*
X208109580Y-163438095D01*
X208109580Y-163438095D02*
X208157200Y-163485714D01*
X208157200Y-163485714D02*
X208204819Y-163580952D01*
X208204819Y-163580952D02*
X208204819Y-163866666D01*
X208204819Y-163866666D02*
X208157200Y-163961904D01*
X208157200Y-163961904D02*
X208109580Y-164009523D01*
X207204819Y-163057142D02*
X207204819Y-162390476D01*
X207204819Y-162390476D02*
X208204819Y-162819047D01*
X192357142Y-145354819D02*
X192023809Y-144878628D01*
X191785714Y-145354819D02*
X191785714Y-144354819D01*
X191785714Y-144354819D02*
X192166666Y-144354819D01*
X192166666Y-144354819D02*
X192261904Y-144402438D01*
X192261904Y-144402438D02*
X192309523Y-144450057D01*
X192309523Y-144450057D02*
X192357142Y-144545295D01*
X192357142Y-144545295D02*
X192357142Y-144688152D01*
X192357142Y-144688152D02*
X192309523Y-144783390D01*
X192309523Y-144783390D02*
X192261904Y-144831009D01*
X192261904Y-144831009D02*
X192166666Y-144878628D01*
X192166666Y-144878628D02*
X191785714Y-144878628D01*
X192690476Y-144354819D02*
X193309523Y-144354819D01*
X193309523Y-144354819D02*
X192976190Y-144735771D01*
X192976190Y-144735771D02*
X193119047Y-144735771D01*
X193119047Y-144735771D02*
X193214285Y-144783390D01*
X193214285Y-144783390D02*
X193261904Y-144831009D01*
X193261904Y-144831009D02*
X193309523Y-144926247D01*
X193309523Y-144926247D02*
X193309523Y-145164342D01*
X193309523Y-145164342D02*
X193261904Y-145259580D01*
X193261904Y-145259580D02*
X193214285Y-145307200D01*
X193214285Y-145307200D02*
X193119047Y-145354819D01*
X193119047Y-145354819D02*
X192833333Y-145354819D01*
X192833333Y-145354819D02*
X192738095Y-145307200D01*
X192738095Y-145307200D02*
X192690476Y-145259580D01*
X193690476Y-144450057D02*
X193738095Y-144402438D01*
X193738095Y-144402438D02*
X193833333Y-144354819D01*
X193833333Y-144354819D02*
X194071428Y-144354819D01*
X194071428Y-144354819D02*
X194166666Y-144402438D01*
X194166666Y-144402438D02*
X194214285Y-144450057D01*
X194214285Y-144450057D02*
X194261904Y-144545295D01*
X194261904Y-144545295D02*
X194261904Y-144640533D01*
X194261904Y-144640533D02*
X194214285Y-144783390D01*
X194214285Y-144783390D02*
X193642857Y-145354819D01*
X193642857Y-145354819D02*
X194261904Y-145354819D01*
D13*
X217266666Y-133157419D02*
X217266666Y-133871704D01*
X217266666Y-133871704D02*
X217219047Y-134014561D01*
X217219047Y-134014561D02*
X217123809Y-134109800D01*
X217123809Y-134109800D02*
X216980952Y-134157419D01*
X216980952Y-134157419D02*
X216885714Y-134157419D01*
X217695238Y-133252657D02*
X217742857Y-133205038D01*
X217742857Y-133205038D02*
X217838095Y-133157419D01*
X217838095Y-133157419D02*
X218076190Y-133157419D01*
X218076190Y-133157419D02*
X218171428Y-133205038D01*
X218171428Y-133205038D02*
X218219047Y-133252657D01*
X218219047Y-133252657D02*
X218266666Y-133347895D01*
X218266666Y-133347895D02*
X218266666Y-133443133D01*
X218266666Y-133443133D02*
X218219047Y-133585990D01*
X218219047Y-133585990D02*
X217647619Y-134157419D01*
X217647619Y-134157419D02*
X218266666Y-134157419D01*
D12*
X232109580Y-154916666D02*
X232157200Y-154964285D01*
X232157200Y-154964285D02*
X232204819Y-155107142D01*
X232204819Y-155107142D02*
X232204819Y-155202380D01*
X232204819Y-155202380D02*
X232157200Y-155345237D01*
X232157200Y-155345237D02*
X232061961Y-155440475D01*
X232061961Y-155440475D02*
X231966723Y-155488094D01*
X231966723Y-155488094D02*
X231776247Y-155535713D01*
X231776247Y-155535713D02*
X231633390Y-155535713D01*
X231633390Y-155535713D02*
X231442914Y-155488094D01*
X231442914Y-155488094D02*
X231347676Y-155440475D01*
X231347676Y-155440475D02*
X231252438Y-155345237D01*
X231252438Y-155345237D02*
X231204819Y-155202380D01*
X231204819Y-155202380D02*
X231204819Y-155107142D01*
X231204819Y-155107142D02*
X231252438Y-154964285D01*
X231252438Y-154964285D02*
X231300057Y-154916666D01*
X231204819Y-154583332D02*
X231204819Y-153964285D01*
X231204819Y-153964285D02*
X231585771Y-154297618D01*
X231585771Y-154297618D02*
X231585771Y-154154761D01*
X231585771Y-154154761D02*
X231633390Y-154059523D01*
X231633390Y-154059523D02*
X231681009Y-154011904D01*
X231681009Y-154011904D02*
X231776247Y-153964285D01*
X231776247Y-153964285D02*
X232014342Y-153964285D01*
X232014342Y-153964285D02*
X232109580Y-154011904D01*
X232109580Y-154011904D02*
X232157200Y-154059523D01*
X232157200Y-154059523D02*
X232204819Y-154154761D01*
X232204819Y-154154761D02*
X232204819Y-154440475D01*
X232204819Y-154440475D02*
X232157200Y-154535713D01*
X232157200Y-154535713D02*
X232109580Y-154583332D01*
X217481009Y-157083333D02*
X217481009Y-157416666D01*
X218004819Y-157416666D02*
X217004819Y-157416666D01*
X217004819Y-157416666D02*
X217004819Y-156940476D01*
X218004819Y-156035714D02*
X218004819Y-156607142D01*
X218004819Y-156321428D02*
X217004819Y-156321428D01*
X217004819Y-156321428D02*
X217147676Y-156416666D01*
X217147676Y-156416666D02*
X217242914Y-156511904D01*
X217242914Y-156511904D02*
X217290533Y-156607142D01*
X230959580Y-149892857D02*
X231007200Y-149940476D01*
X231007200Y-149940476D02*
X231054819Y-150083333D01*
X231054819Y-150083333D02*
X231054819Y-150178571D01*
X231054819Y-150178571D02*
X231007200Y-150321428D01*
X231007200Y-150321428D02*
X230911961Y-150416666D01*
X230911961Y-150416666D02*
X230816723Y-150464285D01*
X230816723Y-150464285D02*
X230626247Y-150511904D01*
X230626247Y-150511904D02*
X230483390Y-150511904D01*
X230483390Y-150511904D02*
X230292914Y-150464285D01*
X230292914Y-150464285D02*
X230197676Y-150416666D01*
X230197676Y-150416666D02*
X230102438Y-150321428D01*
X230102438Y-150321428D02*
X230054819Y-150178571D01*
X230054819Y-150178571D02*
X230054819Y-150083333D01*
X230054819Y-150083333D02*
X230102438Y-149940476D01*
X230102438Y-149940476D02*
X230150057Y-149892857D01*
X231054819Y-148940476D02*
X231054819Y-149511904D01*
X231054819Y-149226190D02*
X230054819Y-149226190D01*
X230054819Y-149226190D02*
X230197676Y-149321428D01*
X230197676Y-149321428D02*
X230292914Y-149416666D01*
X230292914Y-149416666D02*
X230340533Y-149511904D01*
X231054819Y-148464285D02*
X231054819Y-148273809D01*
X231054819Y-148273809D02*
X231007200Y-148178571D01*
X231007200Y-148178571D02*
X230959580Y-148130952D01*
X230959580Y-148130952D02*
X230816723Y-148035714D01*
X230816723Y-148035714D02*
X230626247Y-147988095D01*
X230626247Y-147988095D02*
X230245295Y-147988095D01*
X230245295Y-147988095D02*
X230150057Y-148035714D01*
X230150057Y-148035714D02*
X230102438Y-148083333D01*
X230102438Y-148083333D02*
X230054819Y-148178571D01*
X230054819Y-148178571D02*
X230054819Y-148369047D01*
X230054819Y-148369047D02*
X230102438Y-148464285D01*
X230102438Y-148464285D02*
X230150057Y-148511904D01*
X230150057Y-148511904D02*
X230245295Y-148559523D01*
X230245295Y-148559523D02*
X230483390Y-148559523D01*
X230483390Y-148559523D02*
X230578628Y-148511904D01*
X230578628Y-148511904D02*
X230626247Y-148464285D01*
X230626247Y-148464285D02*
X230673866Y-148369047D01*
X230673866Y-148369047D02*
X230673866Y-148178571D01*
X230673866Y-148178571D02*
X230626247Y-148083333D01*
X230626247Y-148083333D02*
X230578628Y-148035714D01*
X230578628Y-148035714D02*
X230483390Y-147988095D01*
X196257142Y-159454819D02*
X195923809Y-158978628D01*
X195685714Y-159454819D02*
X195685714Y-158454819D01*
X195685714Y-158454819D02*
X196066666Y-158454819D01*
X196066666Y-158454819D02*
X196161904Y-158502438D01*
X196161904Y-158502438D02*
X196209523Y-158550057D01*
X196209523Y-158550057D02*
X196257142Y-158645295D01*
X196257142Y-158645295D02*
X196257142Y-158788152D01*
X196257142Y-158788152D02*
X196209523Y-158883390D01*
X196209523Y-158883390D02*
X196161904Y-158931009D01*
X196161904Y-158931009D02*
X196066666Y-158978628D01*
X196066666Y-158978628D02*
X195685714Y-158978628D01*
X197209523Y-159454819D02*
X196638095Y-159454819D01*
X196923809Y-159454819D02*
X196923809Y-158454819D01*
X196923809Y-158454819D02*
X196828571Y-158597676D01*
X196828571Y-158597676D02*
X196733333Y-158692914D01*
X196733333Y-158692914D02*
X196638095Y-158740533D01*
X198066666Y-158454819D02*
X197876190Y-158454819D01*
X197876190Y-158454819D02*
X197780952Y-158502438D01*
X197780952Y-158502438D02*
X197733333Y-158550057D01*
X197733333Y-158550057D02*
X197638095Y-158692914D01*
X197638095Y-158692914D02*
X197590476Y-158883390D01*
X197590476Y-158883390D02*
X197590476Y-159264342D01*
X197590476Y-159264342D02*
X197638095Y-159359580D01*
X197638095Y-159359580D02*
X197685714Y-159407200D01*
X197685714Y-159407200D02*
X197780952Y-159454819D01*
X197780952Y-159454819D02*
X197971428Y-159454819D01*
X197971428Y-159454819D02*
X198066666Y-159407200D01*
X198066666Y-159407200D02*
X198114285Y-159359580D01*
X198114285Y-159359580D02*
X198161904Y-159264342D01*
X198161904Y-159264342D02*
X198161904Y-159026247D01*
X198161904Y-159026247D02*
X198114285Y-158931009D01*
X198114285Y-158931009D02*
X198066666Y-158883390D01*
X198066666Y-158883390D02*
X197971428Y-158835771D01*
X197971428Y-158835771D02*
X197780952Y-158835771D01*
X197780952Y-158835771D02*
X197685714Y-158883390D01*
X197685714Y-158883390D02*
X197638095Y-158931009D01*
X197638095Y-158931009D02*
X197590476Y-159026247D01*
X199957142Y-149354819D02*
X199623809Y-148878628D01*
X199385714Y-149354819D02*
X199385714Y-148354819D01*
X199385714Y-148354819D02*
X199766666Y-148354819D01*
X199766666Y-148354819D02*
X199861904Y-148402438D01*
X199861904Y-148402438D02*
X199909523Y-148450057D01*
X199909523Y-148450057D02*
X199957142Y-148545295D01*
X199957142Y-148545295D02*
X199957142Y-148688152D01*
X199957142Y-148688152D02*
X199909523Y-148783390D01*
X199909523Y-148783390D02*
X199861904Y-148831009D01*
X199861904Y-148831009D02*
X199766666Y-148878628D01*
X199766666Y-148878628D02*
X199385714Y-148878628D01*
X200814285Y-148688152D02*
X200814285Y-149354819D01*
X200576190Y-148307200D02*
X200338095Y-149021485D01*
X200338095Y-149021485D02*
X200957142Y-149021485D01*
X201290476Y-148450057D02*
X201338095Y-148402438D01*
X201338095Y-148402438D02*
X201433333Y-148354819D01*
X201433333Y-148354819D02*
X201671428Y-148354819D01*
X201671428Y-148354819D02*
X201766666Y-148402438D01*
X201766666Y-148402438D02*
X201814285Y-148450057D01*
X201814285Y-148450057D02*
X201861904Y-148545295D01*
X201861904Y-148545295D02*
X201861904Y-148640533D01*
X201861904Y-148640533D02*
X201814285Y-148783390D01*
X201814285Y-148783390D02*
X201242857Y-149354819D01*
X201242857Y-149354819D02*
X201861904Y-149354819D01*
X200457142Y-141704819D02*
X200123809Y-141228628D01*
X199885714Y-141704819D02*
X199885714Y-140704819D01*
X199885714Y-140704819D02*
X200266666Y-140704819D01*
X200266666Y-140704819D02*
X200361904Y-140752438D01*
X200361904Y-140752438D02*
X200409523Y-140800057D01*
X200409523Y-140800057D02*
X200457142Y-140895295D01*
X200457142Y-140895295D02*
X200457142Y-141038152D01*
X200457142Y-141038152D02*
X200409523Y-141133390D01*
X200409523Y-141133390D02*
X200361904Y-141181009D01*
X200361904Y-141181009D02*
X200266666Y-141228628D01*
X200266666Y-141228628D02*
X199885714Y-141228628D01*
X200790476Y-140704819D02*
X201409523Y-140704819D01*
X201409523Y-140704819D02*
X201076190Y-141085771D01*
X201076190Y-141085771D02*
X201219047Y-141085771D01*
X201219047Y-141085771D02*
X201314285Y-141133390D01*
X201314285Y-141133390D02*
X201361904Y-141181009D01*
X201361904Y-141181009D02*
X201409523Y-141276247D01*
X201409523Y-141276247D02*
X201409523Y-141514342D01*
X201409523Y-141514342D02*
X201361904Y-141609580D01*
X201361904Y-141609580D02*
X201314285Y-141657200D01*
X201314285Y-141657200D02*
X201219047Y-141704819D01*
X201219047Y-141704819D02*
X200933333Y-141704819D01*
X200933333Y-141704819D02*
X200838095Y-141657200D01*
X200838095Y-141657200D02*
X200790476Y-141609580D01*
X202028571Y-140704819D02*
X202123809Y-140704819D01*
X202123809Y-140704819D02*
X202219047Y-140752438D01*
X202219047Y-140752438D02*
X202266666Y-140800057D01*
X202266666Y-140800057D02*
X202314285Y-140895295D01*
X202314285Y-140895295D02*
X202361904Y-141085771D01*
X202361904Y-141085771D02*
X202361904Y-141323866D01*
X202361904Y-141323866D02*
X202314285Y-141514342D01*
X202314285Y-141514342D02*
X202266666Y-141609580D01*
X202266666Y-141609580D02*
X202219047Y-141657200D01*
X202219047Y-141657200D02*
X202123809Y-141704819D01*
X202123809Y-141704819D02*
X202028571Y-141704819D01*
X202028571Y-141704819D02*
X201933333Y-141657200D01*
X201933333Y-141657200D02*
X201885714Y-141609580D01*
X201885714Y-141609580D02*
X201838095Y-141514342D01*
X201838095Y-141514342D02*
X201790476Y-141323866D01*
X201790476Y-141323866D02*
X201790476Y-141085771D01*
X201790476Y-141085771D02*
X201838095Y-140895295D01*
X201838095Y-140895295D02*
X201885714Y-140800057D01*
X201885714Y-140800057D02*
X201933333Y-140752438D01*
X201933333Y-140752438D02*
X202028571Y-140704819D01*
X229523809Y-159228628D02*
X229523809Y-159704819D01*
X229190476Y-158704819D02*
X229523809Y-159228628D01*
X229523809Y-159228628D02*
X229857142Y-158704819D01*
X230714285Y-159704819D02*
X230142857Y-159704819D01*
X230428571Y-159704819D02*
X230428571Y-158704819D01*
X230428571Y-158704819D02*
X230333333Y-158847676D01*
X230333333Y-158847676D02*
X230238095Y-158942914D01*
X230238095Y-158942914D02*
X230142857Y-158990533D01*
X211974819Y-156916666D02*
X211974819Y-157392856D01*
X211974819Y-157392856D02*
X210974819Y-157392856D01*
X211974819Y-156059523D02*
X211974819Y-156630951D01*
X211974819Y-156345237D02*
X210974819Y-156345237D01*
X210974819Y-156345237D02*
X211117676Y-156440475D01*
X211117676Y-156440475D02*
X211212914Y-156535713D01*
X211212914Y-156535713D02*
X211260533Y-156630951D01*
X214507142Y-162304819D02*
X214173809Y-161828628D01*
X213935714Y-162304819D02*
X213935714Y-161304819D01*
X213935714Y-161304819D02*
X214316666Y-161304819D01*
X214316666Y-161304819D02*
X214411904Y-161352438D01*
X214411904Y-161352438D02*
X214459523Y-161400057D01*
X214459523Y-161400057D02*
X214507142Y-161495295D01*
X214507142Y-161495295D02*
X214507142Y-161638152D01*
X214507142Y-161638152D02*
X214459523Y-161733390D01*
X214459523Y-161733390D02*
X214411904Y-161781009D01*
X214411904Y-161781009D02*
X214316666Y-161828628D01*
X214316666Y-161828628D02*
X213935714Y-161828628D01*
X214840476Y-161304819D02*
X215459523Y-161304819D01*
X215459523Y-161304819D02*
X215126190Y-161685771D01*
X215126190Y-161685771D02*
X215269047Y-161685771D01*
X215269047Y-161685771D02*
X215364285Y-161733390D01*
X215364285Y-161733390D02*
X215411904Y-161781009D01*
X215411904Y-161781009D02*
X215459523Y-161876247D01*
X215459523Y-161876247D02*
X215459523Y-162114342D01*
X215459523Y-162114342D02*
X215411904Y-162209580D01*
X215411904Y-162209580D02*
X215364285Y-162257200D01*
X215364285Y-162257200D02*
X215269047Y-162304819D01*
X215269047Y-162304819D02*
X214983333Y-162304819D01*
X214983333Y-162304819D02*
X214888095Y-162257200D01*
X214888095Y-162257200D02*
X214840476Y-162209580D01*
X215935714Y-162304819D02*
X216126190Y-162304819D01*
X216126190Y-162304819D02*
X216221428Y-162257200D01*
X216221428Y-162257200D02*
X216269047Y-162209580D01*
X216269047Y-162209580D02*
X216364285Y-162066723D01*
X216364285Y-162066723D02*
X216411904Y-161876247D01*
X216411904Y-161876247D02*
X216411904Y-161495295D01*
X216411904Y-161495295D02*
X216364285Y-161400057D01*
X216364285Y-161400057D02*
X216316666Y-161352438D01*
X216316666Y-161352438D02*
X216221428Y-161304819D01*
X216221428Y-161304819D02*
X216030952Y-161304819D01*
X216030952Y-161304819D02*
X215935714Y-161352438D01*
X215935714Y-161352438D02*
X215888095Y-161400057D01*
X215888095Y-161400057D02*
X215840476Y-161495295D01*
X215840476Y-161495295D02*
X215840476Y-161733390D01*
X215840476Y-161733390D02*
X215888095Y-161828628D01*
X215888095Y-161828628D02*
X215935714Y-161876247D01*
X215935714Y-161876247D02*
X216030952Y-161923866D01*
X216030952Y-161923866D02*
X216221428Y-161923866D01*
X216221428Y-161923866D02*
X216316666Y-161876247D01*
X216316666Y-161876247D02*
X216364285Y-161828628D01*
X216364285Y-161828628D02*
X216411904Y-161733390D01*
X229709580Y-149892857D02*
X229757200Y-149940476D01*
X229757200Y-149940476D02*
X229804819Y-150083333D01*
X229804819Y-150083333D02*
X229804819Y-150178571D01*
X229804819Y-150178571D02*
X229757200Y-150321428D01*
X229757200Y-150321428D02*
X229661961Y-150416666D01*
X229661961Y-150416666D02*
X229566723Y-150464285D01*
X229566723Y-150464285D02*
X229376247Y-150511904D01*
X229376247Y-150511904D02*
X229233390Y-150511904D01*
X229233390Y-150511904D02*
X229042914Y-150464285D01*
X229042914Y-150464285D02*
X228947676Y-150416666D01*
X228947676Y-150416666D02*
X228852438Y-150321428D01*
X228852438Y-150321428D02*
X228804819Y-150178571D01*
X228804819Y-150178571D02*
X228804819Y-150083333D01*
X228804819Y-150083333D02*
X228852438Y-149940476D01*
X228852438Y-149940476D02*
X228900057Y-149892857D01*
X229804819Y-148940476D02*
X229804819Y-149511904D01*
X229804819Y-149226190D02*
X228804819Y-149226190D01*
X228804819Y-149226190D02*
X228947676Y-149321428D01*
X228947676Y-149321428D02*
X229042914Y-149416666D01*
X229042914Y-149416666D02*
X229090533Y-149511904D01*
X229233390Y-148369047D02*
X229185771Y-148464285D01*
X229185771Y-148464285D02*
X229138152Y-148511904D01*
X229138152Y-148511904D02*
X229042914Y-148559523D01*
X229042914Y-148559523D02*
X228995295Y-148559523D01*
X228995295Y-148559523D02*
X228900057Y-148511904D01*
X228900057Y-148511904D02*
X228852438Y-148464285D01*
X228852438Y-148464285D02*
X228804819Y-148369047D01*
X228804819Y-148369047D02*
X228804819Y-148178571D01*
X228804819Y-148178571D02*
X228852438Y-148083333D01*
X228852438Y-148083333D02*
X228900057Y-148035714D01*
X228900057Y-148035714D02*
X228995295Y-147988095D01*
X228995295Y-147988095D02*
X229042914Y-147988095D01*
X229042914Y-147988095D02*
X229138152Y-148035714D01*
X229138152Y-148035714D02*
X229185771Y-148083333D01*
X229185771Y-148083333D02*
X229233390Y-148178571D01*
X229233390Y-148178571D02*
X229233390Y-148369047D01*
X229233390Y-148369047D02*
X229281009Y-148464285D01*
X229281009Y-148464285D02*
X229328628Y-148511904D01*
X229328628Y-148511904D02*
X229423866Y-148559523D01*
X229423866Y-148559523D02*
X229614342Y-148559523D01*
X229614342Y-148559523D02*
X229709580Y-148511904D01*
X229709580Y-148511904D02*
X229757200Y-148464285D01*
X229757200Y-148464285D02*
X229804819Y-148369047D01*
X229804819Y-148369047D02*
X229804819Y-148178571D01*
X229804819Y-148178571D02*
X229757200Y-148083333D01*
X229757200Y-148083333D02*
X229709580Y-148035714D01*
X229709580Y-148035714D02*
X229614342Y-147988095D01*
X229614342Y-147988095D02*
X229423866Y-147988095D01*
X229423866Y-147988095D02*
X229328628Y-148035714D01*
X229328628Y-148035714D02*
X229281009Y-148083333D01*
X229281009Y-148083333D02*
X229233390Y-148178571D01*
D14*
%TO.C,R35*%
X211870000Y-166253641D02*
X211870000Y-165946359D01*
X212630000Y-166253641D02*
X212630000Y-165946359D01*
%TO.C,R34*%
X210370000Y-165946359D02*
X210370000Y-166253641D01*
X211130000Y-165946359D02*
X211130000Y-166253641D01*
%TO.C,C13*%
X214340000Y-147107836D02*
X214340000Y-146892164D01*
X215060000Y-147107836D02*
X215060000Y-146892164D01*
%TO.C,R15*%
X194503641Y-159870000D02*
X194196359Y-159870000D01*
X194503641Y-160630000D02*
X194196359Y-160630000D01*
%TO.C,C5*%
X224857836Y-153390000D02*
X224642164Y-153390000D01*
X224857836Y-154110000D02*
X224642164Y-154110000D01*
%TO.C,C14*%
X215092164Y-154140000D02*
X215307836Y-154140000D01*
X215092164Y-154860000D02*
X215307836Y-154860000D01*
%TO.C,R20*%
X221520000Y-159546359D02*
X221520000Y-159853641D01*
X222280000Y-159546359D02*
X222280000Y-159853641D01*
%TO.C,D5*%
X188650000Y-154300000D02*
X188650000Y-155300000D01*
X189650000Y-154300000D02*
X190150000Y-154300000D01*
X189650000Y-155300000D02*
X190150000Y-155300000D01*
%TO.C,C21*%
X227890000Y-151857836D02*
X227890000Y-151642164D01*
X228610000Y-151857836D02*
X228610000Y-151642164D01*
%TO.C,Y2*%
X224290000Y-155940000D02*
X224290000Y-160060000D01*
X227710000Y-155940000D02*
X224290000Y-155940000D01*
%TO.C,R8*%
X194503641Y-160970000D02*
X194196359Y-160970000D01*
X194503641Y-161730000D02*
X194196359Y-161730000D01*
%TO.C,Q7*%
X220190000Y-156750000D02*
X220190000Y-156100000D01*
X220190000Y-156750000D02*
X220190000Y-157400000D01*
X223310000Y-156750000D02*
X223310000Y-156100000D01*
X223310000Y-156750000D02*
X223310000Y-157400000D01*
X220240000Y-157912500D02*
X219910000Y-158152500D01*
X219910000Y-157672500D01*
X220240000Y-157912500D01*
G36*
X220240000Y-157912500D02*
G01*
X219910000Y-158152500D01*
X219910000Y-157672500D01*
X220240000Y-157912500D01*
G37*
%TO.C,C17*%
X213307836Y-154140000D02*
X213092164Y-154140000D01*
X213307836Y-154860000D02*
X213092164Y-154860000D01*
%TO.C,R28*%
X203446359Y-142120000D02*
X203753641Y-142120000D01*
X203446359Y-142880000D02*
X203753641Y-142880000D01*
%TO.C,R40*%
X190296359Y-145620000D02*
X190603641Y-145620000D01*
X190296359Y-146380000D02*
X190603641Y-146380000D01*
%TO.C,R44*%
X220420000Y-159853641D02*
X220420000Y-159546359D01*
X221180000Y-159853641D02*
X221180000Y-159546359D01*
%TO.C,R29*%
X203446359Y-143120000D02*
X203753641Y-143120000D01*
X203446359Y-143880000D02*
X203753641Y-143880000D01*
%TO.C,R31*%
X190296359Y-147620000D02*
X190603641Y-147620000D01*
X190296359Y-148380000D02*
X190603641Y-148380000D01*
%TO.C,C20*%
X226890000Y-151857836D02*
X226890000Y-151642164D01*
X227610000Y-151857836D02*
X227610000Y-151642164D01*
%TO.C,F3*%
X217740000Y-164371267D02*
X217740000Y-164028733D01*
X218760000Y-164371267D02*
X218760000Y-164028733D01*
%TO.C,U3*%
X214190000Y-156050000D02*
X214190000Y-157450000D01*
X216510000Y-156040000D02*
X216510000Y-157450000D01*
X216790000Y-155910000D02*
X216460000Y-155670000D01*
X216790000Y-155430000D01*
X216790000Y-155910000D01*
G36*
X216790000Y-155910000D02*
G01*
X216460000Y-155670000D01*
X216790000Y-155430000D01*
X216790000Y-155910000D01*
G37*
%TO.C,D3*%
X188650000Y-157700000D02*
X188650000Y-158700000D01*
X189650000Y-157700000D02*
X190150000Y-157700000D01*
X189650000Y-158700000D02*
X190150000Y-158700000D01*
%TO.C,U2*%
X210000000Y-145390000D02*
X207800000Y-145390000D01*
X210000000Y-145390000D02*
X212200000Y-145390000D01*
X210000000Y-150610000D02*
X207800000Y-150610000D01*
X210000000Y-150610000D02*
X212200000Y-150610000D01*
X207100000Y-145590000D02*
X206860000Y-145260000D01*
X207340000Y-145260000D01*
X207100000Y-145590000D01*
G36*
X207100000Y-145590000D02*
G01*
X206860000Y-145260000D01*
X207340000Y-145260000D01*
X207100000Y-145590000D01*
G37*
%TO.C,D4*%
X188650000Y-156000000D02*
X188650000Y-157000000D01*
X189650000Y-156000000D02*
X190150000Y-156000000D01*
X189650000Y-157000000D02*
X190150000Y-157000000D01*
D13*
%TO.C,J4*%
X200100000Y-132500000D02*
X200100000Y-132000000D01*
X200100000Y-132500000D02*
X201100000Y-132500000D01*
X209900000Y-127500000D02*
X200100000Y-127500000D01*
X209900000Y-132500000D02*
X208900000Y-132500000D01*
X209900000Y-132500000D02*
X209900000Y-132000000D01*
D14*
%TO.C,C12*%
X215340000Y-147107836D02*
X215340000Y-146892164D01*
X216060000Y-147107836D02*
X216060000Y-146892164D01*
%TO.C,R33*%
X203046359Y-150820000D02*
X203353641Y-150820000D01*
X203046359Y-151580000D02*
X203353641Y-151580000D01*
%TO.C,TP5*%
X223200000Y-143900000D02*
G75*
G02*
X221300000Y-143900000I-950000J0D01*
G01*
X221300000Y-143900000D02*
G75*
G02*
X223200000Y-143900000I950000J0D01*
G01*
%TO.C,R41*%
X203046359Y-149720000D02*
X203353641Y-149720000D01*
X203046359Y-150480000D02*
X203353641Y-150480000D01*
%TO.C,R7*%
X194196359Y-157620000D02*
X194503641Y-157620000D01*
X194196359Y-158380000D02*
X194503641Y-158380000D01*
%TO.C,D7*%
X213800000Y-163690000D02*
X213800000Y-167700000D01*
X215800000Y-163690000D02*
X213800000Y-163690000D01*
X215800000Y-163690000D02*
X215800000Y-167700000D01*
%TO.C,C15*%
X215640000Y-159342164D02*
X215640000Y-159557836D01*
X216360000Y-159342164D02*
X216360000Y-159557836D01*
%TO.C,R37*%
X207370000Y-166253641D02*
X207370000Y-165946359D01*
X208130000Y-166253641D02*
X208130000Y-165946359D01*
%TO.C,R32*%
X190603641Y-144620000D02*
X190296359Y-144620000D01*
X190603641Y-145380000D02*
X190296359Y-145380000D01*
D13*
%TO.C,J2*%
X211900000Y-132500000D02*
X211900000Y-132000000D01*
X211900000Y-132500000D02*
X212900000Y-132500000D01*
X218000000Y-127500000D02*
X212000000Y-127500000D01*
X218100000Y-132500000D02*
X217100000Y-132500000D01*
X218100000Y-132500000D02*
X218100000Y-132000000D01*
D14*
%TO.C,C3*%
X231390000Y-152642164D02*
X231390000Y-152857836D01*
X232110000Y-152642164D02*
X232110000Y-152857836D01*
%TO.C,F1*%
X218240000Y-156921267D02*
X218240000Y-156578733D01*
X219260000Y-156921267D02*
X219260000Y-156578733D01*
%TO.C,C19*%
X229890000Y-151857836D02*
X229890000Y-151642164D01*
X230610000Y-151857836D02*
X230610000Y-151642164D01*
%TO.C,R16*%
X194503641Y-158770000D02*
X194196359Y-158770000D01*
X194503641Y-159530000D02*
X194196359Y-159530000D01*
%TO.C,R42*%
X203046359Y-148620000D02*
X203353641Y-148620000D01*
X203046359Y-149380000D02*
X203353641Y-149380000D01*
%TO.C,R30*%
X203446359Y-141120000D02*
X203753641Y-141120000D01*
X203446359Y-141880000D02*
X203753641Y-141880000D01*
%TO.C,Y1*%
X230675000Y-156375000D02*
X229325000Y-156375000D01*
X230675000Y-158125000D02*
X229325000Y-158125000D01*
%TO.C,L1*%
X212427500Y-156987258D02*
X212427500Y-156512742D01*
X213472500Y-156987258D02*
X213472500Y-156512742D01*
%TO.C,R39*%
X212596359Y-161470000D02*
X212903641Y-161470000D01*
X212596359Y-162230000D02*
X212903641Y-162230000D01*
%TO.C,C18*%
X228890000Y-151857836D02*
X228890000Y-151642164D01*
X229610000Y-151857836D02*
X229610000Y-151642164D01*
%TD*%
%LPC*%
D15*
%TO.C,R35*%
X212250000Y-166610000D03*
X212250000Y-165590000D03*
%TD*%
D16*
%TO.C,R34*%
X210750000Y-165590000D03*
X210750000Y-166610000D03*
%TD*%
D17*
%TO.C,C13*%
X214700000Y-147480000D03*
X214700000Y-146520000D03*
%TD*%
D18*
%TO.C,R15*%
X194860000Y-160250000D03*
X193840000Y-160250000D03*
%TD*%
D19*
%TO.C,C5*%
X225230000Y-153750000D03*
X224270000Y-153750000D03*
%TD*%
D20*
%TO.C,C14*%
X214720000Y-154500000D03*
X215680000Y-154500000D03*
%TD*%
D16*
%TO.C,R20*%
X221900000Y-159190001D03*
X221900000Y-160209999D03*
%TD*%
D21*
%TO.C,D5*%
X189150000Y-154800000D03*
X190650000Y-154800000D03*
%TD*%
D17*
%TO.C,C21*%
X228250000Y-152230000D03*
X228250000Y-151270000D03*
%TD*%
D22*
%TO.C,Y2*%
X225150000Y-156900000D03*
X225150000Y-159100000D03*
X226850000Y-159100000D03*
X226850000Y-156900000D03*
%TD*%
D18*
%TO.C,R8*%
X194860000Y-161350000D03*
X193840000Y-161350000D03*
%TD*%
D23*
%TO.C,Q7*%
X220800000Y-157687500D03*
X222700000Y-157687500D03*
X221750000Y-155812500D03*
%TD*%
D24*
%TO.C,H2*%
X228500000Y-129000000D03*
D25*
X228500000Y-129000000D03*
%TD*%
D24*
%TO.C,H1*%
X191500000Y-129000000D03*
D25*
X191500000Y-129000000D03*
%TD*%
D19*
%TO.C,C17*%
X213680000Y-154500000D03*
X212720000Y-154500000D03*
%TD*%
D26*
%TO.C,R28*%
X203090000Y-142500000D03*
X204110000Y-142500000D03*
%TD*%
%TO.C,R40*%
X189940000Y-146000000D03*
X190960000Y-146000000D03*
%TD*%
D15*
%TO.C,R44*%
X220800000Y-160210000D03*
X220800000Y-159190000D03*
%TD*%
D26*
%TO.C,R29*%
X203090000Y-143500000D03*
X204110000Y-143500000D03*
%TD*%
%TO.C,R31*%
X189940000Y-148000000D03*
X190960000Y-148000000D03*
%TD*%
D17*
%TO.C,C20*%
X227250000Y-152230000D03*
X227250000Y-151270000D03*
%TD*%
D27*
%TO.C,F3*%
X218250000Y-165075000D03*
X218250000Y-163325000D03*
%TD*%
D28*
%TO.C,U3*%
X216000000Y-155800000D03*
X215350000Y-155800000D03*
X214700000Y-155800000D03*
X214700000Y-157700000D03*
X216000000Y-157700000D03*
%TD*%
D21*
%TO.C,D3*%
X189150000Y-158200000D03*
X190650000Y-158200000D03*
%TD*%
D29*
%TO.C,U2*%
X207137500Y-146050000D03*
X207137500Y-146700000D03*
X207137500Y-147350000D03*
X207137500Y-148000000D03*
X207137500Y-148650000D03*
X207137500Y-149300000D03*
X207137500Y-149950000D03*
X212862500Y-149950000D03*
X212862500Y-149300000D03*
X212862500Y-148650000D03*
X212862500Y-148000000D03*
X212862500Y-147350000D03*
X212862500Y-146700000D03*
X212862500Y-146050000D03*
%TD*%
D21*
%TO.C,D4*%
X189150000Y-156500000D03*
X190650000Y-156500000D03*
%TD*%
D30*
%TO.C,J4*%
X202000000Y-132300000D03*
X203200000Y-132300000D03*
X204400000Y-132300000D03*
X205600000Y-132300000D03*
X206800000Y-132300000D03*
X208000000Y-132300000D03*
D31*
X200450000Y-128675000D03*
X200450000Y-130875000D03*
X209550000Y-128675000D03*
X209550000Y-130875000D03*
%TD*%
D17*
%TO.C,C12*%
X215700000Y-147480000D03*
X215700000Y-146520000D03*
%TD*%
D26*
%TO.C,R33*%
X202690000Y-151200000D03*
X203710000Y-151200000D03*
%TD*%
D24*
%TO.C,H3*%
X191500000Y-165500000D03*
D25*
X191500000Y-165500000D03*
%TD*%
D32*
%TO.C,TP5*%
X222250000Y-143900000D03*
%TD*%
D24*
%TO.C,H4*%
X228500000Y-165500000D03*
D25*
X228500000Y-165500000D03*
%TD*%
D26*
%TO.C,R41*%
X202690000Y-150100000D03*
X203710000Y-150100000D03*
%TD*%
%TO.C,R7*%
X193840000Y-158000000D03*
X194860000Y-158000000D03*
%TD*%
D33*
%TO.C,D7*%
X214800000Y-164400000D03*
X214800000Y-167700000D03*
%TD*%
D34*
%TO.C,C15*%
X216000000Y-158970000D03*
X216000000Y-159930000D03*
%TD*%
D15*
%TO.C,R37*%
X207750000Y-166610000D03*
X207750000Y-165590000D03*
%TD*%
D18*
%TO.C,R32*%
X190960000Y-145000000D03*
X189940000Y-145000000D03*
%TD*%
D30*
%TO.C,J2*%
X213800000Y-132300000D03*
X215000000Y-132300000D03*
X216200000Y-132300000D03*
D31*
X212250000Y-128675000D03*
X212250000Y-130875000D03*
X217750000Y-128675000D03*
X217750000Y-130875000D03*
%TD*%
D34*
%TO.C,C3*%
X231750000Y-152270000D03*
X231750000Y-153230000D03*
%TD*%
D27*
%TO.C,F1*%
X218750000Y-157625000D03*
X218750000Y-155875000D03*
%TD*%
D17*
%TO.C,C19*%
X230250000Y-152230000D03*
X230250000Y-151270000D03*
%TD*%
D18*
%TO.C,R16*%
X194860000Y-159150000D03*
X193840000Y-159150000D03*
%TD*%
D26*
%TO.C,R42*%
X202690000Y-149000000D03*
X203710000Y-149000000D03*
%TD*%
%TO.C,R30*%
X203090000Y-141500000D03*
X204110000Y-141500000D03*
%TD*%
D35*
%TO.C,Y1*%
X228750000Y-157250000D03*
X231250000Y-157250000D03*
%TD*%
D36*
%TO.C,L1*%
X212950000Y-157575000D03*
X212950000Y-155925000D03*
%TD*%
D26*
%TO.C,R39*%
X212240000Y-161850000D03*
X213260000Y-161850000D03*
%TD*%
D17*
%TO.C,C18*%
X229250000Y-152230000D03*
X229250000Y-151270000D03*
%TD*%
%LPD*%
M02*
