%TF.GenerationSoftware,KiCad,Pcbnew,9.0.3*%
%TF.CreationDate,2025-07-31T21:13:17-04:00*%
%TF.ProjectId,motor-controller,6d6f746f-722d-4636-9f6e-74726f6c6c65,1*%
%TF.SameCoordinates,Original*%
%TF.FileFunction,Copper,L3,Inr*%
%TF.FilePolarity,Positive*%
%FSLAX46Y46*%
G04 Gerber Fmt 4.6, Leading zero omitted, Abs format (unit mm)*
G04 Created by KiCad (PCBNEW 9.0.3) date 2025-07-31 21:13:17*
%MOMM*%
%LPD*%
G01*
G04 APERTURE LIST*
%TA.AperFunction,ComponentPad*%
%ADD10C,3.600000*%
%TD*%
%TA.AperFunction,ViaPad*%
%ADD11C,0.450000*%
%TD*%
%TA.AperFunction,ViaPad*%
%ADD12C,2.000000*%
%TD*%
G04 APERTURE END LIST*
D10*
%TO.N,N/C*%
%TO.C,H2*%
X228500000Y-129000000D03*
%TD*%
%TO.N,N/C*%
%TO.C,H1*%
X191500000Y-129000000D03*
%TD*%
%TO.N,N/C*%
%TO.C,H3*%
X191500000Y-165500000D03*
%TD*%
%TO.N,N/C*%
%TO.C,H4*%
X228500000Y-165500000D03*
%TD*%
D11*
%TO.N,/motor_driver/MOTOR_{U}*%
X212700000Y-138000000D03*
X213600000Y-138000000D03*
X216300000Y-136900000D03*
X212700000Y-136900000D03*
X215400000Y-138000000D03*
X215400000Y-136900000D03*
X216300000Y-138000000D03*
X214500000Y-136900000D03*
X228520000Y-143900000D03*
X213600000Y-136900000D03*
X214500000Y-138000000D03*
D12*
%TO.N,GND*%
X223500000Y-165500000D03*
D11*
X227900000Y-149100000D03*
X216750000Y-167575000D03*
X222900000Y-148350000D03*
X220500000Y-150169999D03*
X189940000Y-148000000D03*
X204650000Y-164550000D03*
X227000000Y-149100000D03*
X227000000Y-150000000D03*
X231350000Y-149850000D03*
X189150000Y-154800000D03*
X227900000Y-150000000D03*
X231750000Y-153230000D03*
X189150000Y-158200000D03*
X204650000Y-163550000D03*
X220850000Y-143490000D03*
X207750000Y-165590001D03*
X224250000Y-153750000D03*
X226100000Y-148200000D03*
X229250000Y-151270000D03*
X227900000Y-148200000D03*
X205500000Y-164550000D03*
X189940000Y-146000000D03*
X212720000Y-154500000D03*
X203600000Y-126600000D03*
X206400000Y-163550000D03*
X203600000Y-125400000D03*
X229950000Y-157900000D03*
X193000001Y-149000000D03*
X205500000Y-163550000D03*
X206400000Y-164550000D03*
X190180000Y-134460000D03*
X189100000Y-152700000D03*
X216625000Y-147100000D03*
X189125000Y-160300000D03*
X223000000Y-160480000D03*
X189150000Y-156500000D03*
X215350000Y-155800001D03*
X227250000Y-151270000D03*
X215680000Y-154500000D03*
X227000000Y-148200000D03*
X219800000Y-143520000D03*
X204700000Y-125400000D03*
X221700000Y-147550000D03*
X190180000Y-138270000D03*
X193000001Y-154000000D03*
X189100000Y-142700000D03*
X206100000Y-148650000D03*
X204700000Y-126600000D03*
X222700000Y-157687500D03*
X221900000Y-160199999D03*
X189100000Y-150300000D03*
X190200000Y-137000000D03*
X228250000Y-151270000D03*
X216000000Y-159930000D03*
X226850000Y-156900000D03*
X226100000Y-150000000D03*
X231000000Y-155500000D03*
X226100000Y-149100000D03*
X219350000Y-150140001D03*
X225150000Y-159100000D03*
D12*
%TO.N,+BATT*%
X196900000Y-127000000D03*
D11*
X219350000Y-153159999D03*
X197825000Y-156950000D03*
X229200000Y-159150000D03*
%TO.N,+3V0*%
X225230000Y-153750000D03*
X220725000Y-145540001D03*
X218750000Y-155875001D03*
X218725000Y-143490001D03*
D12*
X223500000Y-163000000D03*
D11*
%TO.N,/motor_driver/MOTOR_{V}*%
X220200000Y-135500000D03*
X222000000Y-135500000D03*
X221100000Y-135500000D03*
X219300000Y-135500000D03*
X218400000Y-135500000D03*
X221100000Y-134500000D03*
X218400000Y-134500000D03*
X220200000Y-134500000D03*
X222000000Y-134500000D03*
X226520000Y-143900000D03*
X219300000Y-134500000D03*
%TO.N,/motor_driver/MOTOR_{W}*%
X210500000Y-135500000D03*
X207800000Y-135500000D03*
X224520000Y-143900000D03*
X209600000Y-134400000D03*
X206900000Y-135500000D03*
X206900000Y-134400000D03*
X207800000Y-134400000D03*
X208700000Y-135500000D03*
X210500000Y-134400000D03*
X209600000Y-135500000D03*
X208700000Y-134400000D03*
%TO.N,Net-(U1E-OC_COMP)*%
X220825000Y-144525000D03*
%TO.N,/motor_driver/NRST*%
X226750000Y-153250000D03*
X223000000Y-159520000D03*
X193820000Y-134460000D03*
X219250000Y-154375000D03*
%TO.N,/motor_driver/OSC32_N*%
X229250000Y-153250000D03*
%TO.N,/motor_driver/OSC32_P*%
X229750000Y-154000000D03*
%TO.N,/motor_driver/OSC_N*%
X227750000Y-153250000D03*
%TO.N,/motor_driver/OSC_P*%
X228250000Y-154000000D03*
%TO.N,Net-(D1B-K)*%
X228200000Y-144900000D03*
X228800000Y-141590001D03*
%TO.N,Net-(D2B-K)*%
X225800000Y-144900000D03*
X225200000Y-141590001D03*
%TO.N,+3V3*%
X189940001Y-145000000D03*
X231750000Y-152270000D03*
X217525000Y-147100000D03*
X210750000Y-165590001D03*
X190180000Y-139540000D03*
X193000001Y-159000000D03*
X212950000Y-157575000D03*
X194859999Y-158000000D03*
X218250000Y-162150000D03*
X218250000Y-161300000D03*
X218250000Y-160500000D03*
D12*
X223500000Y-168000000D03*
D11*
X193000001Y-144000000D03*
%TO.N,/motor_driver/VEL_ENC_{~{DET}}*%
X222650000Y-150350000D03*
X193000000Y-158000000D03*
%TO.N,/encoder/VEL_ENC.B*%
X222650000Y-149350000D03*
X193000000Y-156000000D03*
%TO.N,/encoder/VEL_ENC.A*%
X222000000Y-149850000D03*
X193000000Y-157000000D03*
%TO.N,/encoder/VEL_ENC.Z*%
X231350000Y-150850000D03*
X193000000Y-155000000D03*
%TO.N,/encoder/MOSI*%
X193000000Y-148000000D03*
X209150000Y-147100000D03*
%TO.N,/encoder/SCK*%
X208350000Y-147100000D03*
X193000000Y-146000000D03*
%TO.N,/encoder/MISO*%
X193000000Y-147000000D03*
X206100000Y-147350000D03*
%TO.N,/encoder/CSn*%
X206100000Y-146050000D03*
X193000000Y-145000000D03*
%TO.N,/BOOT_UART.RST*%
X220800000Y-160209999D03*
X209250000Y-167575000D03*
%TO.N,Net-(Q1-G)*%
X212445000Y-132300000D03*
X228800000Y-142609999D03*
X228800000Y-135990001D03*
%TO.N,Net-(Q2-G)*%
X230000000Y-135990001D03*
X230000000Y-142609999D03*
X212495001Y-139900000D03*
%TO.N,Net-(Q3-G)*%
X218295001Y-132300000D03*
X226400000Y-142609999D03*
X226400000Y-135990001D03*
%TO.N,/motor_driver/LED_{WARN}*%
X232000000Y-150350000D03*
%TO.N,Net-(Q4-G)*%
X227600000Y-142609999D03*
X218295001Y-139900000D03*
X227600000Y-135990001D03*
%TO.N,Net-(Q5-G)*%
X206175000Y-131450000D03*
X224000000Y-142609999D03*
X224000000Y-135990001D03*
%TO.N,Net-(Q6-G)*%
X206695001Y-139900000D03*
X225200000Y-142609999D03*
X225200000Y-135990001D03*
%TO.N,/motor_driver/LED_{FW_READY}*%
X231350000Y-148350000D03*
%TO.N,/motor_driver/LED_{ERROR}*%
X232000000Y-147850000D03*
%TO.N,/motor_driver/HALL_{1}*%
X222250000Y-153153500D03*
X206800000Y-142550000D03*
%TO.N,/motor_driver/HALL_{2}*%
X221750000Y-152525000D03*
X207300000Y-143500000D03*
%TO.N,/motor_driver/HALL_{3}*%
X206250000Y-141500000D03*
X222200000Y-151850000D03*
%TO.N,/BOOT_UART.RX*%
X210750000Y-167575000D03*
X231350000Y-147350000D03*
%TO.N,Net-(J5-Pin_8)*%
X212250000Y-167575000D03*
%TO.N,/BOOT_UART.BOOT0*%
X207750000Y-167575000D03*
X232000000Y-148850000D03*
%TO.N,/motor_driver/SWCLK*%
X213259999Y-161850000D03*
X193820000Y-138270000D03*
X232000000Y-146850000D03*
%TO.N,Net-(D7-A1)*%
X218250000Y-166750000D03*
X218250000Y-168400000D03*
X218250000Y-167575000D03*
%TO.N,/motor_driver/SWDIO*%
X193820000Y-139540000D03*
X231350000Y-146350000D03*
%TD*%
%TA.AperFunction,Conductor*%
%TO.N,GND*%
G36*
X230504042Y-123500765D02*
G01*
X230518399Y-123501705D01*
X230731615Y-123515680D01*
X230741094Y-123516671D01*
X230792679Y-123524088D01*
X230799143Y-123525195D01*
X230995789Y-123564310D01*
X231006496Y-123566941D01*
X231048767Y-123579353D01*
X231053614Y-123580887D01*
X231251989Y-123648226D01*
X231263615Y-123652841D01*
X231286842Y-123663448D01*
X231290139Y-123665013D01*
X231484204Y-123760715D01*
X231492460Y-123764787D01*
X231506508Y-123772897D01*
X231710464Y-123909177D01*
X231723328Y-123919048D01*
X231907749Y-124080781D01*
X231919218Y-124092250D01*
X232080951Y-124276671D01*
X232090825Y-124289539D01*
X232227102Y-124493492D01*
X232235212Y-124507539D01*
X232334968Y-124709824D01*
X232336550Y-124713156D01*
X232347154Y-124736375D01*
X232351779Y-124748028D01*
X232419097Y-124946340D01*
X232420655Y-124951264D01*
X232433053Y-124993488D01*
X232435693Y-125004232D01*
X232474796Y-125200818D01*
X232475917Y-125207362D01*
X232483325Y-125258885D01*
X232484321Y-125268422D01*
X232499234Y-125495941D01*
X232499500Y-125504051D01*
X232499500Y-146377679D01*
X232479815Y-146444718D01*
X232427011Y-146490473D01*
X232357853Y-146500417D01*
X232299080Y-146473576D01*
X232298409Y-146474451D01*
X232294607Y-146471533D01*
X232294297Y-146471392D01*
X232293708Y-146470843D01*
X232291966Y-146469507D01*
X232291964Y-146469505D01*
X232183536Y-146406905D01*
X232183537Y-146406905D01*
X232130198Y-146392613D01*
X232062601Y-146374500D01*
X231943987Y-146374500D01*
X231876948Y-146354815D01*
X231831193Y-146302011D01*
X231824212Y-146282594D01*
X231811067Y-146233536D01*
X231793095Y-146166464D01*
X231730495Y-146058036D01*
X231641964Y-145969505D01*
X231533536Y-145906905D01*
X231533537Y-145906905D01*
X231493224Y-145896103D01*
X231412601Y-145874500D01*
X231287399Y-145874500D01*
X231206775Y-145896103D01*
X231166463Y-145906905D01*
X231058037Y-145969504D01*
X231058034Y-145969506D01*
X230969506Y-146058034D01*
X230969504Y-146058037D01*
X230906905Y-146166463D01*
X230906905Y-146166464D01*
X230874500Y-146287399D01*
X230874500Y-146412601D01*
X230906905Y-146533536D01*
X230956538Y-146619505D01*
X230969504Y-146641962D01*
X230969506Y-146641965D01*
X231058036Y-146730495D01*
X231079025Y-146742613D01*
X231127240Y-146793180D01*
X231140462Y-146861788D01*
X231114494Y-146926652D01*
X231079025Y-146957387D01*
X231058036Y-146969504D01*
X230969506Y-147058034D01*
X230969504Y-147058037D01*
X230906905Y-147166463D01*
X230906905Y-147166464D01*
X230874500Y-147287399D01*
X230874500Y-147412601D01*
X230906905Y-147533536D01*
X230956538Y-147619505D01*
X230969504Y-147641962D01*
X230969506Y-147641965D01*
X231058036Y-147730495D01*
X231079025Y-147742613D01*
X231127240Y-147793180D01*
X231140462Y-147861788D01*
X231114494Y-147926652D01*
X231079025Y-147957387D01*
X231058036Y-147969504D01*
X230969506Y-148058034D01*
X230969504Y-148058037D01*
X230906905Y-148166463D01*
X230906905Y-148166464D01*
X230874500Y-148287399D01*
X230874500Y-148412601D01*
X230906905Y-148533536D01*
X230969505Y-148641964D01*
X231058036Y-148730495D01*
X231166464Y-148793095D01*
X231287399Y-148825500D01*
X231287401Y-148825500D01*
X231406013Y-148825500D01*
X231473052Y-148845185D01*
X231518807Y-148897989D01*
X231525786Y-148917400D01*
X231556905Y-149033536D01*
X231619505Y-149141964D01*
X231708036Y-149230495D01*
X231816464Y-149293095D01*
X231937399Y-149325500D01*
X231937401Y-149325500D01*
X232062599Y-149325500D01*
X232062601Y-149325500D01*
X232183536Y-149293095D01*
X232291964Y-149230495D01*
X232291970Y-149230488D01*
X232298409Y-149225549D01*
X232300198Y-149227880D01*
X232349142Y-149201155D01*
X232418834Y-149206139D01*
X232474767Y-149248011D01*
X232499184Y-149313475D01*
X232499500Y-149322321D01*
X232499500Y-149877679D01*
X232479815Y-149944718D01*
X232427011Y-149990473D01*
X232357853Y-150000417D01*
X232299080Y-149973576D01*
X232298409Y-149974451D01*
X232294607Y-149971533D01*
X232294297Y-149971392D01*
X232293708Y-149970843D01*
X232291965Y-149969506D01*
X232291964Y-149969505D01*
X232183536Y-149906905D01*
X232183537Y-149906905D01*
X232143224Y-149896103D01*
X232062601Y-149874500D01*
X231937399Y-149874500D01*
X231856775Y-149896103D01*
X231816463Y-149906905D01*
X231708037Y-149969504D01*
X231708034Y-149969506D01*
X231619506Y-150058034D01*
X231619504Y-150058037D01*
X231556905Y-150166463D01*
X231525788Y-150282594D01*
X231489422Y-150342254D01*
X231426575Y-150372783D01*
X231406013Y-150374500D01*
X231287399Y-150374500D01*
X231206775Y-150396103D01*
X231166463Y-150406905D01*
X231058037Y-150469504D01*
X231058034Y-150469506D01*
X230969506Y-150558034D01*
X230969504Y-150558037D01*
X230906905Y-150666463D01*
X230906905Y-150666464D01*
X230874500Y-150787399D01*
X230874500Y-150912601D01*
X230906905Y-151033536D01*
X230969505Y-151141964D01*
X231058036Y-151230495D01*
X231166464Y-151293095D01*
X231287399Y-151325500D01*
X231287401Y-151325500D01*
X231412599Y-151325500D01*
X231412601Y-151325500D01*
X231533536Y-151293095D01*
X231641964Y-151230495D01*
X231730495Y-151141964D01*
X231793095Y-151033536D01*
X231824212Y-150917404D01*
X231860578Y-150857746D01*
X231923425Y-150827217D01*
X231943987Y-150825500D01*
X232062599Y-150825500D01*
X232062601Y-150825500D01*
X232183536Y-150793095D01*
X232291964Y-150730495D01*
X232291970Y-150730488D01*
X232298409Y-150725549D01*
X232300198Y-150727880D01*
X232349142Y-150701155D01*
X232418834Y-150706139D01*
X232474767Y-150748011D01*
X232499184Y-150813475D01*
X232499500Y-150822321D01*
X232499500Y-167495948D01*
X232499234Y-167504058D01*
X232484321Y-167731576D01*
X232483325Y-167741113D01*
X232475917Y-167792636D01*
X232474796Y-167799180D01*
X232435693Y-167995766D01*
X232433053Y-168006510D01*
X232420655Y-168048734D01*
X232419097Y-168053658D01*
X232351779Y-168251970D01*
X232347154Y-168263623D01*
X232347153Y-168263626D01*
X232336542Y-168286859D01*
X232334961Y-168290187D01*
X232235214Y-168492456D01*
X232227104Y-168506504D01*
X232090825Y-168710460D01*
X232080951Y-168723328D01*
X231919218Y-168907749D01*
X231907749Y-168919218D01*
X231723328Y-169080951D01*
X231710460Y-169090825D01*
X231506504Y-169227104D01*
X231492456Y-169235214D01*
X231290187Y-169334961D01*
X231286859Y-169336542D01*
X231263626Y-169347153D01*
X231251970Y-169351779D01*
X231053658Y-169419097D01*
X231048734Y-169420655D01*
X231006510Y-169433053D01*
X230995766Y-169435693D01*
X230799180Y-169474796D01*
X230792636Y-169475917D01*
X230741113Y-169483325D01*
X230731576Y-169484321D01*
X230504058Y-169499234D01*
X230495948Y-169499500D01*
X189504052Y-169499500D01*
X189495942Y-169499234D01*
X189268422Y-169484321D01*
X189258885Y-169483325D01*
X189207362Y-169475917D01*
X189200818Y-169474796D01*
X189004232Y-169435693D01*
X188993488Y-169433053D01*
X188951264Y-169420655D01*
X188946340Y-169419097D01*
X188748028Y-169351779D01*
X188736375Y-169347154D01*
X188713156Y-169336550D01*
X188709824Y-169334968D01*
X188507539Y-169235212D01*
X188493492Y-169227102D01*
X188289539Y-169090825D01*
X188276671Y-169080951D01*
X188092250Y-168919218D01*
X188080781Y-168907749D01*
X187969182Y-168780495D01*
X187919045Y-168723325D01*
X187909174Y-168710460D01*
X187896815Y-168691964D01*
X187772895Y-168506504D01*
X187764787Y-168492460D01*
X187712630Y-168386697D01*
X187665013Y-168290139D01*
X187663448Y-168286842D01*
X187652841Y-168263615D01*
X187648226Y-168251989D01*
X187580887Y-168053614D01*
X187579353Y-168048767D01*
X187566941Y-168006496D01*
X187564310Y-167995789D01*
X187525195Y-167799143D01*
X187524088Y-167792679D01*
X187516671Y-167741094D01*
X187515680Y-167731615D01*
X187500765Y-167504042D01*
X187500500Y-167495933D01*
X187500500Y-165365602D01*
X189449500Y-165365602D01*
X189449500Y-165634397D01*
X189484582Y-165900880D01*
X189484583Y-165900885D01*
X189484584Y-165900891D01*
X189484585Y-165900893D01*
X189554152Y-166160524D01*
X189657011Y-166408850D01*
X189657019Y-166408866D01*
X189737830Y-166548832D01*
X189791413Y-166641641D01*
X189791415Y-166641644D01*
X189791416Y-166641645D01*
X189955042Y-166854888D01*
X189955048Y-166854895D01*
X190145104Y-167044951D01*
X190145111Y-167044957D01*
X190146697Y-167046174D01*
X190358359Y-167208587D01*
X190487305Y-167283034D01*
X190591133Y-167342980D01*
X190591149Y-167342988D01*
X190708182Y-167391464D01*
X190839474Y-167445847D01*
X191099109Y-167515416D01*
X191287319Y-167540193D01*
X191365602Y-167550500D01*
X191365603Y-167550500D01*
X191634398Y-167550500D01*
X191694905Y-167542534D01*
X191900891Y-167515416D01*
X191912151Y-167512399D01*
X207274500Y-167512399D01*
X207274500Y-167637601D01*
X207306905Y-167758536D01*
X207369505Y-167866964D01*
X207458036Y-167955495D01*
X207566464Y-168018095D01*
X207687399Y-168050500D01*
X207687401Y-168050500D01*
X207812599Y-168050500D01*
X207812601Y-168050500D01*
X207933536Y-168018095D01*
X208041964Y-167955495D01*
X208130495Y-167866964D01*
X208193095Y-167758536D01*
X208225500Y-167637601D01*
X208225500Y-167512399D01*
X208774500Y-167512399D01*
X208774500Y-167637601D01*
X208806905Y-167758536D01*
X208869505Y-167866964D01*
X208958036Y-167955495D01*
X209066464Y-168018095D01*
X209187399Y-168050500D01*
X209187401Y-168050500D01*
X209312599Y-168050500D01*
X209312601Y-168050500D01*
X209433536Y-168018095D01*
X209541964Y-167955495D01*
X209630495Y-167866964D01*
X209693095Y-167758536D01*
X209725500Y-167637601D01*
X209725500Y-167512399D01*
X210274500Y-167512399D01*
X210274500Y-167637601D01*
X210306905Y-167758536D01*
X210369505Y-167866964D01*
X210458036Y-167955495D01*
X210566464Y-168018095D01*
X210687399Y-168050500D01*
X210687401Y-168050500D01*
X210812599Y-168050500D01*
X210812601Y-168050500D01*
X210933536Y-168018095D01*
X211041964Y-167955495D01*
X211130495Y-167866964D01*
X211193095Y-167758536D01*
X211225500Y-167637601D01*
X211225500Y-167512399D01*
X211774500Y-167512399D01*
X211774500Y-167637601D01*
X211806905Y-167758536D01*
X211869505Y-167866964D01*
X211958036Y-167955495D01*
X212066464Y-168018095D01*
X212187399Y-168050500D01*
X212187401Y-168050500D01*
X212312599Y-168050500D01*
X212312601Y-168050500D01*
X212433536Y-168018095D01*
X212541964Y-167955495D01*
X212630495Y-167866964D01*
X212693095Y-167758536D01*
X212725500Y-167637601D01*
X212725500Y-167512399D01*
X212693095Y-167391464D01*
X212630495Y-167283036D01*
X212541964Y-167194505D01*
X212433536Y-167131905D01*
X212433537Y-167131905D01*
X212385994Y-167119166D01*
X212312601Y-167099500D01*
X212187399Y-167099500D01*
X212114006Y-167119166D01*
X212066463Y-167131905D01*
X211958037Y-167194504D01*
X211958034Y-167194506D01*
X211869506Y-167283034D01*
X211869504Y-167283037D01*
X211806905Y-167391463D01*
X211806905Y-167391464D01*
X211774500Y-167512399D01*
X211225500Y-167512399D01*
X211193095Y-167391464D01*
X211130495Y-167283036D01*
X211041964Y-167194505D01*
X210933536Y-167131905D01*
X210933537Y-167131905D01*
X210885994Y-167119166D01*
X210812601Y-167099500D01*
X210687399Y-167099500D01*
X210614006Y-167119166D01*
X210566463Y-167131905D01*
X210458037Y-167194504D01*
X210458034Y-167194506D01*
X210369506Y-167283034D01*
X210369504Y-167283037D01*
X210306905Y-167391463D01*
X210306905Y-167391464D01*
X210274500Y-167512399D01*
X209725500Y-167512399D01*
X209693095Y-167391464D01*
X209630495Y-167283036D01*
X209541964Y-167194505D01*
X209433536Y-167131905D01*
X209433537Y-167131905D01*
X209385994Y-167119166D01*
X209312601Y-167099500D01*
X209187399Y-167099500D01*
X209114006Y-167119166D01*
X209066463Y-167131905D01*
X208958037Y-167194504D01*
X208958034Y-167194506D01*
X208869506Y-167283034D01*
X208869504Y-167283037D01*
X208806905Y-167391463D01*
X208806905Y-167391464D01*
X208774500Y-167512399D01*
X208225500Y-167512399D01*
X208193095Y-167391464D01*
X208130495Y-167283036D01*
X208041964Y-167194505D01*
X207933536Y-167131905D01*
X207933537Y-167131905D01*
X207885994Y-167119166D01*
X207812601Y-167099500D01*
X207687399Y-167099500D01*
X207614006Y-167119166D01*
X207566463Y-167131905D01*
X207458037Y-167194504D01*
X207458034Y-167194506D01*
X207369506Y-167283034D01*
X207369504Y-167283037D01*
X207306905Y-167391463D01*
X207306905Y-167391464D01*
X207274500Y-167512399D01*
X191912151Y-167512399D01*
X192160526Y-167445847D01*
X192291818Y-167391464D01*
X192296053Y-167389710D01*
X192408850Y-167342988D01*
X192408853Y-167342986D01*
X192408859Y-167342984D01*
X192641641Y-167208587D01*
X192854890Y-167044956D01*
X193044956Y-166854890D01*
X193173476Y-166687399D01*
X217774500Y-166687399D01*
X217774500Y-166812601D01*
X217782141Y-166841116D01*
X217806905Y-166933536D01*
X217869504Y-167041962D01*
X217869506Y-167041965D01*
X217902360Y-167074819D01*
X217935845Y-167136142D01*
X217930861Y-167205834D01*
X217902360Y-167250181D01*
X217869506Y-167283034D01*
X217869504Y-167283037D01*
X217806905Y-167391463D01*
X217806905Y-167391464D01*
X217774500Y-167512399D01*
X217774500Y-167637601D01*
X217806905Y-167758536D01*
X217830370Y-167799180D01*
X217869504Y-167866962D01*
X217869506Y-167866965D01*
X217902360Y-167899819D01*
X217935845Y-167961142D01*
X217930861Y-168030834D01*
X217902360Y-168075181D01*
X217869506Y-168108034D01*
X217869504Y-168108037D01*
X217806905Y-168216463D01*
X217806905Y-168216464D01*
X217774500Y-168337399D01*
X217774500Y-168462601D01*
X217806905Y-168583536D01*
X217869505Y-168691964D01*
X217958036Y-168780495D01*
X218066464Y-168843095D01*
X218187399Y-168875500D01*
X218187401Y-168875500D01*
X218312599Y-168875500D01*
X218312601Y-168875500D01*
X218433536Y-168843095D01*
X218541964Y-168780495D01*
X218630495Y-168691964D01*
X218693095Y-168583536D01*
X218725500Y-168462601D01*
X218725500Y-168337399D01*
X218693095Y-168216464D01*
X218630495Y-168108036D01*
X218597640Y-168075181D01*
X218596950Y-168073918D01*
X218595704Y-168073201D01*
X218580255Y-168043344D01*
X218564155Y-168013858D01*
X218564257Y-168012424D01*
X218563596Y-168011146D01*
X218566742Y-167977682D01*
X218569139Y-167944166D01*
X218570045Y-167942549D01*
X218570136Y-167941583D01*
X218573169Y-167936976D01*
X218587738Y-167910991D01*
X218592348Y-167905110D01*
X218595881Y-167901577D01*
X222249500Y-167901577D01*
X222249500Y-168098422D01*
X222280290Y-168292826D01*
X222341117Y-168480029D01*
X222393857Y-168583536D01*
X222430476Y-168655405D01*
X222546172Y-168814646D01*
X222685354Y-168953828D01*
X222844595Y-169069524D01*
X222877540Y-169086310D01*
X223019970Y-169158882D01*
X223019972Y-169158882D01*
X223019975Y-169158884D01*
X223120317Y-169191487D01*
X223207173Y-169219709D01*
X223401578Y-169250500D01*
X223401583Y-169250500D01*
X223598422Y-169250500D01*
X223792826Y-169219709D01*
X223980025Y-169158884D01*
X224155405Y-169069524D01*
X224314646Y-168953828D01*
X224453828Y-168814646D01*
X224569524Y-168655405D01*
X224658884Y-168480025D01*
X224719709Y-168292826D01*
X224726180Y-168251970D01*
X224750500Y-168098422D01*
X224750500Y-167901577D01*
X224719709Y-167707173D01*
X224658882Y-167519970D01*
X224569523Y-167344594D01*
X224568356Y-167342988D01*
X224453828Y-167185354D01*
X224314646Y-167046172D01*
X224155405Y-166930476D01*
X223980029Y-166841117D01*
X223792826Y-166780290D01*
X223598422Y-166749500D01*
X223598417Y-166749500D01*
X223401583Y-166749500D01*
X223401578Y-166749500D01*
X223207173Y-166780290D01*
X223019970Y-166841117D01*
X222844594Y-166930476D01*
X222753741Y-166996485D01*
X222685354Y-167046172D01*
X222685352Y-167046174D01*
X222685351Y-167046174D01*
X222546174Y-167185351D01*
X222546174Y-167185352D01*
X222546172Y-167185354D01*
X222499072Y-167250181D01*
X222430476Y-167344594D01*
X222341117Y-167519970D01*
X222280290Y-167707173D01*
X222249500Y-167901577D01*
X218595881Y-167901577D01*
X218630495Y-167866964D01*
X218693095Y-167758536D01*
X218725500Y-167637601D01*
X218725500Y-167512399D01*
X218693095Y-167391464D01*
X218630495Y-167283036D01*
X218597640Y-167250181D01*
X218564155Y-167188858D01*
X218569139Y-167119166D01*
X218597640Y-167074819D01*
X218630495Y-167041964D01*
X218693095Y-166933536D01*
X218725500Y-166812601D01*
X218725500Y-166687399D01*
X218693095Y-166566464D01*
X218630495Y-166458036D01*
X218541964Y-166369505D01*
X218433536Y-166306905D01*
X218433537Y-166306905D01*
X218393224Y-166296103D01*
X218312601Y-166274500D01*
X218187399Y-166274500D01*
X218106775Y-166296103D01*
X218066463Y-166306905D01*
X217958037Y-166369504D01*
X217958034Y-166369506D01*
X217869506Y-166458034D01*
X217869504Y-166458037D01*
X217806905Y-166566463D01*
X217806905Y-166566464D01*
X217774500Y-166687399D01*
X193173476Y-166687399D01*
X193208587Y-166641641D01*
X193342984Y-166408859D01*
X193445847Y-166160526D01*
X193515416Y-165900891D01*
X193550500Y-165634397D01*
X193550500Y-165527400D01*
X210274500Y-165527400D01*
X210274500Y-165652602D01*
X210306905Y-165773537D01*
X210369505Y-165881965D01*
X210458036Y-165970496D01*
X210566464Y-166033096D01*
X210687399Y-166065501D01*
X210687401Y-166065501D01*
X210812599Y-166065501D01*
X210812601Y-166065501D01*
X210933536Y-166033096D01*
X211041964Y-165970496D01*
X211130495Y-165881965D01*
X211193095Y-165773537D01*
X211225500Y-165652602D01*
X211225500Y-165527400D01*
X211193095Y-165406465D01*
X211169503Y-165365602D01*
X226449500Y-165365602D01*
X226449500Y-165634397D01*
X226484582Y-165900880D01*
X226484583Y-165900885D01*
X226484584Y-165900891D01*
X226484585Y-165900893D01*
X226554152Y-166160524D01*
X226657011Y-166408850D01*
X226657019Y-166408866D01*
X226737830Y-166548832D01*
X226791413Y-166641641D01*
X226791415Y-166641644D01*
X226791416Y-166641645D01*
X226955042Y-166854888D01*
X226955048Y-166854895D01*
X227145104Y-167044951D01*
X227145111Y-167044957D01*
X227146697Y-167046174D01*
X227358359Y-167208587D01*
X227487305Y-167283034D01*
X227591133Y-167342980D01*
X227591149Y-167342988D01*
X227708182Y-167391464D01*
X227839474Y-167445847D01*
X228099109Y-167515416D01*
X228287319Y-167540193D01*
X228365602Y-167550500D01*
X228365603Y-167550500D01*
X228634398Y-167550500D01*
X228694905Y-167542534D01*
X228900891Y-167515416D01*
X229160526Y-167445847D01*
X229404970Y-167344595D01*
X229408850Y-167342988D01*
X229408853Y-167342986D01*
X229408859Y-167342984D01*
X229641641Y-167208587D01*
X229854890Y-167044956D01*
X230044956Y-166854890D01*
X230208587Y-166641641D01*
X230342984Y-166408859D01*
X230445847Y-166160526D01*
X230515416Y-165900891D01*
X230550500Y-165634397D01*
X230550500Y-165365603D01*
X230515416Y-165099109D01*
X230445847Y-164839474D01*
X230407132Y-164746008D01*
X230342988Y-164591149D01*
X230342980Y-164591133D01*
X230294964Y-164507968D01*
X230208587Y-164358359D01*
X230044956Y-164145110D01*
X230044951Y-164145104D01*
X229854895Y-163955048D01*
X229854888Y-163955042D01*
X229641645Y-163791416D01*
X229641644Y-163791415D01*
X229641641Y-163791413D01*
X229548832Y-163737830D01*
X229408866Y-163657019D01*
X229408850Y-163657011D01*
X229160524Y-163554152D01*
X229030708Y-163519368D01*
X228900891Y-163484584D01*
X228900885Y-163484583D01*
X228900880Y-163484582D01*
X228634398Y-163449500D01*
X228634397Y-163449500D01*
X228365603Y-163449500D01*
X228365602Y-163449500D01*
X228099119Y-163484582D01*
X228099112Y-163484583D01*
X228099109Y-163484584D01*
X228044239Y-163499286D01*
X227839475Y-163554152D01*
X227591149Y-163657011D01*
X227591133Y-163657019D01*
X227358354Y-163791416D01*
X227145111Y-163955042D01*
X227145104Y-163955048D01*
X226955048Y-164145104D01*
X226955042Y-164145111D01*
X226791416Y-164358354D01*
X226657019Y-164591133D01*
X226657011Y-164591149D01*
X226554152Y-164839475D01*
X226484585Y-165099106D01*
X226484582Y-165099119D01*
X226449500Y-165365602D01*
X211169503Y-165365602D01*
X211130495Y-165298037D01*
X211041964Y-165209506D01*
X210933536Y-165146906D01*
X210933537Y-165146906D01*
X210893224Y-165136104D01*
X210812601Y-165114501D01*
X210687399Y-165114501D01*
X210606775Y-165136104D01*
X210566463Y-165146906D01*
X210458037Y-165209505D01*
X210458034Y-165209507D01*
X210369506Y-165298035D01*
X210369504Y-165298038D01*
X210306905Y-165406464D01*
X210306905Y-165406465D01*
X210274500Y-165527400D01*
X193550500Y-165527400D01*
X193550500Y-165365603D01*
X193515416Y-165099109D01*
X193445847Y-164839474D01*
X193407132Y-164746008D01*
X193342988Y-164591149D01*
X193342980Y-164591133D01*
X193294964Y-164507968D01*
X193208587Y-164358359D01*
X193044956Y-164145110D01*
X193044951Y-164145104D01*
X192854895Y-163955048D01*
X192854888Y-163955042D01*
X192641645Y-163791416D01*
X192641644Y-163791415D01*
X192641641Y-163791413D01*
X192548832Y-163737830D01*
X192408866Y-163657019D01*
X192408850Y-163657011D01*
X192160524Y-163554152D01*
X192030708Y-163519368D01*
X191900891Y-163484584D01*
X191900885Y-163484583D01*
X191900880Y-163484582D01*
X191634398Y-163449500D01*
X191634397Y-163449500D01*
X191365603Y-163449500D01*
X191365602Y-163449500D01*
X191099119Y-163484582D01*
X191099112Y-163484583D01*
X191099109Y-163484584D01*
X191044239Y-163499286D01*
X190839475Y-163554152D01*
X190591149Y-163657011D01*
X190591133Y-163657019D01*
X190358354Y-163791416D01*
X190145111Y-163955042D01*
X190145104Y-163955048D01*
X189955048Y-164145104D01*
X189955042Y-164145111D01*
X189791416Y-164358354D01*
X189657019Y-164591133D01*
X189657011Y-164591149D01*
X189554152Y-164839475D01*
X189484585Y-165099106D01*
X189484582Y-165099119D01*
X189449500Y-165365602D01*
X187500500Y-165365602D01*
X187500500Y-162901577D01*
X222249500Y-162901577D01*
X222249500Y-163098422D01*
X222280290Y-163292826D01*
X222341117Y-163480029D01*
X222430476Y-163655405D01*
X222546172Y-163814646D01*
X222685354Y-163953828D01*
X222844595Y-164069524D01*
X222927455Y-164111743D01*
X223019970Y-164158882D01*
X223019972Y-164158882D01*
X223019975Y-164158884D01*
X223120317Y-164191487D01*
X223207173Y-164219709D01*
X223401578Y-164250500D01*
X223401583Y-164250500D01*
X223598422Y-164250500D01*
X223792826Y-164219709D01*
X223980025Y-164158884D01*
X224155405Y-164069524D01*
X224314646Y-163953828D01*
X224453828Y-163814646D01*
X224569524Y-163655405D01*
X224658884Y-163480025D01*
X224719709Y-163292826D01*
X224750500Y-163098422D01*
X224750500Y-162901577D01*
X224719709Y-162707173D01*
X224662302Y-162530495D01*
X224658884Y-162519975D01*
X224658882Y-162519972D01*
X224658882Y-162519970D01*
X224569523Y-162344594D01*
X224561489Y-162333536D01*
X224453828Y-162185354D01*
X224314646Y-162046172D01*
X224155405Y-161930476D01*
X223980029Y-161841117D01*
X223792826Y-161780290D01*
X223598422Y-161749500D01*
X223598417Y-161749500D01*
X223401583Y-161749500D01*
X223401578Y-161749500D01*
X223207173Y-161780290D01*
X223019970Y-161841117D01*
X222844594Y-161930476D01*
X222795063Y-161966463D01*
X222685354Y-162046172D01*
X222685352Y-162046174D01*
X222685351Y-162046174D01*
X222546174Y-162185351D01*
X222546174Y-162185352D01*
X222546172Y-162185354D01*
X222513375Y-162230495D01*
X222430476Y-162344594D01*
X222341117Y-162519970D01*
X222280290Y-162707173D01*
X222249500Y-162901577D01*
X187500500Y-162901577D01*
X187500500Y-161787399D01*
X212784499Y-161787399D01*
X212784499Y-161912601D01*
X212816904Y-162033536D01*
X212879504Y-162141964D01*
X212968035Y-162230495D01*
X213076463Y-162293095D01*
X213197398Y-162325500D01*
X213197400Y-162325500D01*
X213322598Y-162325500D01*
X213322600Y-162325500D01*
X213443535Y-162293095D01*
X213551963Y-162230495D01*
X213640494Y-162141964D01*
X213703094Y-162033536D01*
X213735499Y-161912601D01*
X213735499Y-161787399D01*
X213703094Y-161666464D01*
X213640494Y-161558036D01*
X213551963Y-161469505D01*
X213443535Y-161406905D01*
X213443536Y-161406905D01*
X213403223Y-161396103D01*
X213322600Y-161374500D01*
X213197398Y-161374500D01*
X213116774Y-161396103D01*
X213076462Y-161406905D01*
X212968036Y-161469504D01*
X212968033Y-161469506D01*
X212879505Y-161558034D01*
X212879503Y-161558037D01*
X212816904Y-161666463D01*
X212808282Y-161698642D01*
X212784499Y-161787399D01*
X187500500Y-161787399D01*
X187500500Y-160437399D01*
X217774500Y-160437399D01*
X217774500Y-160562601D01*
X217781974Y-160590492D01*
X217806905Y-160683536D01*
X217869504Y-160791962D01*
X217869506Y-160791965D01*
X217889860Y-160812319D01*
X217923345Y-160873642D01*
X217918361Y-160943334D01*
X217889860Y-160987681D01*
X217869506Y-161008034D01*
X217869504Y-161008037D01*
X217806905Y-161116463D01*
X217806905Y-161116464D01*
X217774500Y-161237399D01*
X217774500Y-161362601D01*
X217803145Y-161469504D01*
X217806905Y-161483536D01*
X217869504Y-161591962D01*
X217869506Y-161591965D01*
X217914860Y-161637319D01*
X217948345Y-161698642D01*
X217943361Y-161768334D01*
X217914860Y-161812681D01*
X217869506Y-161858034D01*
X217869504Y-161858037D01*
X217806905Y-161966463D01*
X217806905Y-161966464D01*
X217774500Y-162087399D01*
X217774500Y-162212601D01*
X217806905Y-162333536D01*
X217869505Y-162441964D01*
X217958036Y-162530495D01*
X218066464Y-162593095D01*
X218187399Y-162625500D01*
X218187401Y-162625500D01*
X218312599Y-162625500D01*
X218312601Y-162625500D01*
X218433536Y-162593095D01*
X218541964Y-162530495D01*
X218630495Y-162441964D01*
X218693095Y-162333536D01*
X218725500Y-162212601D01*
X218725500Y-162087399D01*
X218693095Y-161966464D01*
X218630495Y-161858036D01*
X218585140Y-161812681D01*
X218551655Y-161751358D01*
X218556639Y-161681666D01*
X218585140Y-161637319D01*
X218630495Y-161591964D01*
X218693095Y-161483536D01*
X218725500Y-161362601D01*
X218725500Y-161237399D01*
X218693095Y-161116464D01*
X218630495Y-161008036D01*
X218610140Y-160987681D01*
X218576655Y-160926358D01*
X218581639Y-160856666D01*
X218610140Y-160812319D01*
X218630495Y-160791964D01*
X218693095Y-160683536D01*
X218725500Y-160562601D01*
X218725500Y-160437399D01*
X218693095Y-160316464D01*
X218630495Y-160208036D01*
X218569857Y-160147398D01*
X220324500Y-160147398D01*
X220324500Y-160272600D01*
X220356905Y-160393535D01*
X220419505Y-160501963D01*
X220508036Y-160590494D01*
X220616464Y-160653094D01*
X220737399Y-160685499D01*
X220737401Y-160685499D01*
X220862599Y-160685499D01*
X220862601Y-160685499D01*
X220983536Y-160653094D01*
X221091964Y-160590494D01*
X221180495Y-160501963D01*
X221243095Y-160393535D01*
X221275500Y-160272600D01*
X221275500Y-160147398D01*
X221243095Y-160026463D01*
X221180495Y-159918035D01*
X221091964Y-159829504D01*
X220983536Y-159766904D01*
X220983537Y-159766904D01*
X220943224Y-159756102D01*
X220862601Y-159734499D01*
X220737399Y-159734499D01*
X220656775Y-159756102D01*
X220616463Y-159766904D01*
X220508037Y-159829503D01*
X220508034Y-159829505D01*
X220419506Y-159918033D01*
X220419504Y-159918036D01*
X220356905Y-160026462D01*
X220356905Y-160026463D01*
X220324500Y-160147398D01*
X218569857Y-160147398D01*
X218541964Y-160119505D01*
X218433536Y-160056905D01*
X218433537Y-160056905D01*
X218393224Y-160046103D01*
X218312601Y-160024500D01*
X218187399Y-160024500D01*
X218106775Y-160046103D01*
X218066463Y-160056905D01*
X217958037Y-160119504D01*
X217958034Y-160119506D01*
X217869506Y-160208034D01*
X217869504Y-160208037D01*
X217806905Y-160316463D01*
X217806905Y-160316464D01*
X217774500Y-160437399D01*
X187500500Y-160437399D01*
X187500500Y-154937399D01*
X192524500Y-154937399D01*
X192524500Y-155062601D01*
X192556905Y-155183536D01*
X192619504Y-155291962D01*
X192619506Y-155291965D01*
X192708036Y-155380495D01*
X192729025Y-155392613D01*
X192777240Y-155443180D01*
X192790462Y-155511788D01*
X192764494Y-155576652D01*
X192729025Y-155607387D01*
X192708036Y-155619504D01*
X192619506Y-155708034D01*
X192619504Y-155708037D01*
X192556905Y-155816463D01*
X192556905Y-155816464D01*
X192524500Y-155937399D01*
X192524500Y-156062601D01*
X192552464Y-156166963D01*
X192556905Y-156183536D01*
X192619504Y-156291962D01*
X192619506Y-156291965D01*
X192708036Y-156380495D01*
X192729025Y-156392613D01*
X192777240Y-156443180D01*
X192790462Y-156511788D01*
X192764494Y-156576652D01*
X192729025Y-156607387D01*
X192708036Y-156619504D01*
X192619506Y-156708034D01*
X192619504Y-156708037D01*
X192556905Y-156816463D01*
X192556905Y-156816464D01*
X192524500Y-156937399D01*
X192524500Y-157062601D01*
X192556905Y-157183536D01*
X192614350Y-157283036D01*
X192619504Y-157291962D01*
X192619506Y-157291965D01*
X192708036Y-157380495D01*
X192729025Y-157392613D01*
X192777240Y-157443180D01*
X192790462Y-157511788D01*
X192764494Y-157576652D01*
X192729025Y-157607387D01*
X192708036Y-157619504D01*
X192619506Y-157708034D01*
X192619504Y-157708037D01*
X192556905Y-157816463D01*
X192556905Y-157816464D01*
X192524500Y-157937399D01*
X192524500Y-158062601D01*
X192556905Y-158183536D01*
X192619505Y-158291964D01*
X192708036Y-158380495D01*
X192729020Y-158392610D01*
X192729024Y-158392612D01*
X192777240Y-158443179D01*
X192790464Y-158511786D01*
X192764496Y-158576651D01*
X192729026Y-158607387D01*
X192708037Y-158619504D01*
X192619507Y-158708034D01*
X192619505Y-158708037D01*
X192556906Y-158816463D01*
X192556906Y-158816464D01*
X192524501Y-158937399D01*
X192524501Y-159062601D01*
X192556906Y-159183536D01*
X192619506Y-159291964D01*
X192708037Y-159380495D01*
X192816465Y-159443095D01*
X192937400Y-159475500D01*
X192937402Y-159475500D01*
X193062600Y-159475500D01*
X193062602Y-159475500D01*
X193130155Y-159457399D01*
X222524500Y-159457399D01*
X222524500Y-159582601D01*
X222556905Y-159703536D01*
X222619505Y-159811964D01*
X222708036Y-159900495D01*
X222816464Y-159963095D01*
X222937399Y-159995500D01*
X222937401Y-159995500D01*
X223062599Y-159995500D01*
X223062601Y-159995500D01*
X223183536Y-159963095D01*
X223291964Y-159900495D01*
X223380495Y-159811964D01*
X223443095Y-159703536D01*
X223475500Y-159582601D01*
X223475500Y-159457399D01*
X223443095Y-159336464D01*
X223380495Y-159228036D01*
X223291964Y-159139505D01*
X223201712Y-159087399D01*
X228724500Y-159087399D01*
X228724500Y-159212601D01*
X228756905Y-159333536D01*
X228819505Y-159441964D01*
X228908036Y-159530495D01*
X229016464Y-159593095D01*
X229137399Y-159625500D01*
X229137401Y-159625500D01*
X229262599Y-159625500D01*
X229262601Y-159625500D01*
X229383536Y-159593095D01*
X229491964Y-159530495D01*
X229580495Y-159441964D01*
X229643095Y-159333536D01*
X229675500Y-159212601D01*
X229675500Y-159087399D01*
X229643095Y-158966464D01*
X229580495Y-158858036D01*
X229491964Y-158769505D01*
X229383536Y-158706905D01*
X229383537Y-158706905D01*
X229343224Y-158696103D01*
X229262601Y-158674500D01*
X229137399Y-158674500D01*
X229056775Y-158696103D01*
X229016463Y-158706905D01*
X228908037Y-158769504D01*
X228908034Y-158769506D01*
X228819506Y-158858034D01*
X228819504Y-158858037D01*
X228756905Y-158966463D01*
X228756905Y-158966464D01*
X228724500Y-159087399D01*
X223201712Y-159087399D01*
X223183536Y-159076905D01*
X223183537Y-159076905D01*
X223143224Y-159066103D01*
X223062601Y-159044500D01*
X222937399Y-159044500D01*
X222856775Y-159066103D01*
X222816463Y-159076905D01*
X222708037Y-159139504D01*
X222708034Y-159139506D01*
X222619506Y-159228034D01*
X222619504Y-159228037D01*
X222556905Y-159336463D01*
X222556905Y-159336464D01*
X222524500Y-159457399D01*
X193130155Y-159457399D01*
X193183537Y-159443095D01*
X193291965Y-159380495D01*
X193380496Y-159291964D01*
X193443096Y-159183536D01*
X193475501Y-159062601D01*
X193475501Y-158937399D01*
X193443096Y-158816464D01*
X193380496Y-158708036D01*
X193291965Y-158619505D01*
X193291964Y-158619504D01*
X193291961Y-158619502D01*
X193270975Y-158607386D01*
X193222759Y-158556819D01*
X193209536Y-158488212D01*
X193235504Y-158423347D01*
X193270977Y-158392611D01*
X193291964Y-158380495D01*
X193380495Y-158291964D01*
X193443095Y-158183536D01*
X193475500Y-158062601D01*
X193475500Y-157937399D01*
X194384499Y-157937399D01*
X194384499Y-158062601D01*
X194416904Y-158183536D01*
X194479504Y-158291964D01*
X194568035Y-158380495D01*
X194676463Y-158443095D01*
X194797398Y-158475500D01*
X194797400Y-158475500D01*
X194922598Y-158475500D01*
X194922600Y-158475500D01*
X195043535Y-158443095D01*
X195151963Y-158380495D01*
X195240494Y-158291964D01*
X195303094Y-158183536D01*
X195335499Y-158062601D01*
X195335499Y-157937399D01*
X195303094Y-157816464D01*
X195240494Y-157708036D01*
X195151963Y-157619505D01*
X195043535Y-157556905D01*
X195043536Y-157556905D01*
X195003223Y-157546103D01*
X194922600Y-157524500D01*
X194797398Y-157524500D01*
X194716774Y-157546103D01*
X194676462Y-157556905D01*
X194568036Y-157619504D01*
X194568033Y-157619506D01*
X194479505Y-157708034D01*
X194479503Y-157708037D01*
X194416904Y-157816463D01*
X194416904Y-157816464D01*
X194384499Y-157937399D01*
X193475500Y-157937399D01*
X193443095Y-157816464D01*
X193380495Y-157708036D01*
X193291964Y-157619505D01*
X193291963Y-157619504D01*
X193270976Y-157607388D01*
X193222760Y-157556821D01*
X193214198Y-157512399D01*
X212474500Y-157512399D01*
X212474500Y-157637601D01*
X212506905Y-157758536D01*
X212569505Y-157866964D01*
X212658036Y-157955495D01*
X212766464Y-158018095D01*
X212887399Y-158050500D01*
X212887401Y-158050500D01*
X213012599Y-158050500D01*
X213012601Y-158050500D01*
X213133536Y-158018095D01*
X213241964Y-157955495D01*
X213330495Y-157866964D01*
X213393095Y-157758536D01*
X213425500Y-157637601D01*
X213425500Y-157512399D01*
X213393095Y-157391464D01*
X213330495Y-157283036D01*
X213241964Y-157194505D01*
X213133536Y-157131905D01*
X213133537Y-157131905D01*
X213093224Y-157121103D01*
X213012601Y-157099500D01*
X212887399Y-157099500D01*
X212806775Y-157121103D01*
X212766463Y-157131905D01*
X212658037Y-157194504D01*
X212658034Y-157194506D01*
X212569506Y-157283034D01*
X212569504Y-157283037D01*
X212506905Y-157391463D01*
X212506905Y-157391464D01*
X212474500Y-157512399D01*
X193214198Y-157512399D01*
X193209536Y-157488214D01*
X193235504Y-157423349D01*
X193270976Y-157392612D01*
X193291964Y-157380495D01*
X193380495Y-157291964D01*
X193443095Y-157183536D01*
X193475500Y-157062601D01*
X193475500Y-156937399D01*
X193462102Y-156887399D01*
X197349500Y-156887399D01*
X197349500Y-157012601D01*
X197381905Y-157133536D01*
X197444505Y-157241964D01*
X197533036Y-157330495D01*
X197641464Y-157393095D01*
X197762399Y-157425500D01*
X197762401Y-157425500D01*
X197887599Y-157425500D01*
X197887601Y-157425500D01*
X198008536Y-157393095D01*
X198116964Y-157330495D01*
X198205495Y-157241964D01*
X198268095Y-157133536D01*
X198300500Y-157012601D01*
X198300500Y-156887399D01*
X198268095Y-156766464D01*
X198205495Y-156658036D01*
X198116964Y-156569505D01*
X198008536Y-156506905D01*
X198008537Y-156506905D01*
X197938781Y-156488214D01*
X197887601Y-156474500D01*
X197762399Y-156474500D01*
X197711219Y-156488214D01*
X197641463Y-156506905D01*
X197533037Y-156569504D01*
X197533034Y-156569506D01*
X197444506Y-156658034D01*
X197444504Y-156658037D01*
X197381905Y-156766463D01*
X197381905Y-156766464D01*
X197349500Y-156887399D01*
X193462102Y-156887399D01*
X193443095Y-156816464D01*
X193380495Y-156708036D01*
X193291964Y-156619505D01*
X193291963Y-156619504D01*
X193270976Y-156607388D01*
X193222760Y-156556821D01*
X193209536Y-156488214D01*
X193235504Y-156423349D01*
X193270976Y-156392612D01*
X193291964Y-156380495D01*
X193380495Y-156291964D01*
X193443095Y-156183536D01*
X193475500Y-156062601D01*
X193475500Y-155937399D01*
X193443095Y-155816464D01*
X193440749Y-155812400D01*
X218274500Y-155812400D01*
X218274500Y-155937602D01*
X218306905Y-156058537D01*
X218369505Y-156166965D01*
X218458036Y-156255496D01*
X218566464Y-156318096D01*
X218687399Y-156350501D01*
X218687401Y-156350501D01*
X218812599Y-156350501D01*
X218812601Y-156350501D01*
X218933536Y-156318096D01*
X219041964Y-156255496D01*
X219130495Y-156166965D01*
X219193095Y-156058537D01*
X219225500Y-155937602D01*
X219225500Y-155812400D01*
X219193095Y-155691465D01*
X219130495Y-155583037D01*
X219041964Y-155494506D01*
X218933536Y-155431906D01*
X218933537Y-155431906D01*
X218893224Y-155421104D01*
X218812601Y-155399501D01*
X218687399Y-155399501D01*
X218606775Y-155421104D01*
X218566463Y-155431906D01*
X218458037Y-155494505D01*
X218458034Y-155494507D01*
X218369506Y-155583035D01*
X218369504Y-155583038D01*
X218306905Y-155691464D01*
X218306905Y-155691465D01*
X218274500Y-155812400D01*
X193440749Y-155812400D01*
X193380495Y-155708036D01*
X193291964Y-155619505D01*
X193291963Y-155619504D01*
X193270976Y-155607388D01*
X193222760Y-155556821D01*
X193209536Y-155488214D01*
X193235504Y-155423349D01*
X193270976Y-155392612D01*
X193291964Y-155380495D01*
X193380495Y-155291964D01*
X193443095Y-155183536D01*
X193475500Y-155062601D01*
X193475500Y-154937399D01*
X193443095Y-154816464D01*
X193380495Y-154708036D01*
X193291964Y-154619505D01*
X193183536Y-154556905D01*
X193183537Y-154556905D01*
X193143224Y-154546103D01*
X193062601Y-154524500D01*
X192937399Y-154524500D01*
X192856775Y-154546103D01*
X192816463Y-154556905D01*
X192708037Y-154619504D01*
X192708034Y-154619506D01*
X192619506Y-154708034D01*
X192619504Y-154708037D01*
X192556905Y-154816463D01*
X192556905Y-154816464D01*
X192524500Y-154937399D01*
X187500500Y-154937399D01*
X187500500Y-154312399D01*
X218774500Y-154312399D01*
X218774500Y-154437601D01*
X218806905Y-154558536D01*
X218869505Y-154666964D01*
X218958036Y-154755495D01*
X219066464Y-154818095D01*
X219187399Y-154850500D01*
X219187401Y-154850500D01*
X219312599Y-154850500D01*
X219312601Y-154850500D01*
X219433536Y-154818095D01*
X219541964Y-154755495D01*
X219630495Y-154666964D01*
X219693095Y-154558536D01*
X219725500Y-154437601D01*
X219725500Y-154312399D01*
X219693095Y-154191464D01*
X219630495Y-154083036D01*
X219541964Y-153994505D01*
X219433536Y-153931905D01*
X219433537Y-153931905D01*
X219393224Y-153921103D01*
X219312601Y-153899500D01*
X219187399Y-153899500D01*
X219106775Y-153921103D01*
X219066463Y-153931905D01*
X218958037Y-153994504D01*
X218958034Y-153994506D01*
X218869506Y-154083034D01*
X218869504Y-154083037D01*
X218806905Y-154191463D01*
X218806905Y-154191464D01*
X218774500Y-154312399D01*
X187500500Y-154312399D01*
X187500500Y-153687399D01*
X224754500Y-153687399D01*
X224754500Y-153812601D01*
X224786905Y-153933536D01*
X224849505Y-154041964D01*
X224938036Y-154130495D01*
X225046464Y-154193095D01*
X225167399Y-154225500D01*
X225167401Y-154225500D01*
X225292599Y-154225500D01*
X225292601Y-154225500D01*
X225413536Y-154193095D01*
X225521964Y-154130495D01*
X225610495Y-154041964D01*
X225673095Y-153933536D01*
X225705500Y-153812601D01*
X225705500Y-153687399D01*
X225673095Y-153566464D01*
X225610495Y-153458036D01*
X225521964Y-153369505D01*
X225413536Y-153306905D01*
X225413537Y-153306905D01*
X225404711Y-153304540D01*
X225292601Y-153274500D01*
X225167399Y-153274500D01*
X225086775Y-153296103D01*
X225046463Y-153306905D01*
X224938037Y-153369504D01*
X224938034Y-153369506D01*
X224849506Y-153458034D01*
X224849504Y-153458037D01*
X224786905Y-153566463D01*
X224778831Y-153596595D01*
X224754500Y-153687399D01*
X187500500Y-153687399D01*
X187500500Y-153097398D01*
X218874500Y-153097398D01*
X218874500Y-153222600D01*
X218906905Y-153343535D01*
X218969505Y-153451963D01*
X219058036Y-153540494D01*
X219166464Y-153603094D01*
X219287399Y-153635499D01*
X219287401Y-153635499D01*
X219412599Y-153635499D01*
X219412601Y-153635499D01*
X219533536Y-153603094D01*
X219641964Y-153540494D01*
X219730495Y-153451963D01*
X219793095Y-153343535D01*
X219825500Y-153222600D01*
X219825500Y-153097398D01*
X219793095Y-152976463D01*
X219730495Y-152868035D01*
X219641964Y-152779504D01*
X219533536Y-152716904D01*
X219533537Y-152716904D01*
X219493224Y-152706102D01*
X219412601Y-152684499D01*
X219287399Y-152684499D01*
X219206775Y-152706102D01*
X219166463Y-152716904D01*
X219058037Y-152779503D01*
X219058034Y-152779505D01*
X218969506Y-152868033D01*
X218969504Y-152868036D01*
X218906905Y-152976462D01*
X218900809Y-152999212D01*
X218874500Y-153097398D01*
X187500500Y-153097398D01*
X187500500Y-152462399D01*
X221274500Y-152462399D01*
X221274500Y-152587601D01*
X221306905Y-152708536D01*
X221369505Y-152816964D01*
X221458036Y-152905495D01*
X221566464Y-152968095D01*
X221682595Y-152999212D01*
X221742254Y-153035578D01*
X221772783Y-153098425D01*
X221774500Y-153118987D01*
X221774500Y-153216101D01*
X221806905Y-153337036D01*
X221869505Y-153445464D01*
X221958036Y-153533995D01*
X222066464Y-153596595D01*
X222187399Y-153629000D01*
X222187401Y-153629000D01*
X222312599Y-153629000D01*
X222312601Y-153629000D01*
X222433536Y-153596595D01*
X222541964Y-153533995D01*
X222630495Y-153445464D01*
X222693095Y-153337036D01*
X222725500Y-153216101D01*
X222725500Y-153187399D01*
X226274500Y-153187399D01*
X226274500Y-153312601D01*
X226306905Y-153433536D01*
X226369505Y-153541964D01*
X226458036Y-153630495D01*
X226566464Y-153693095D01*
X226687399Y-153725500D01*
X226687401Y-153725500D01*
X226812599Y-153725500D01*
X226812601Y-153725500D01*
X226933536Y-153693095D01*
X227041964Y-153630495D01*
X227130495Y-153541964D01*
X227142612Y-153520975D01*
X227193179Y-153472760D01*
X227261786Y-153459536D01*
X227326651Y-153485504D01*
X227357388Y-153520976D01*
X227369503Y-153541962D01*
X227369505Y-153541964D01*
X227458036Y-153630495D01*
X227566464Y-153693095D01*
X227687399Y-153725500D01*
X227687401Y-153725500D01*
X227695249Y-153727603D01*
X227694831Y-153729162D01*
X227750089Y-153753609D01*
X227788559Y-153811935D01*
X227789780Y-153880373D01*
X227774500Y-153937399D01*
X227774500Y-154062601D01*
X227806905Y-154183536D01*
X227869505Y-154291964D01*
X227958036Y-154380495D01*
X228066464Y-154443095D01*
X228187399Y-154475500D01*
X228187401Y-154475500D01*
X228312599Y-154475500D01*
X228312601Y-154475500D01*
X228433536Y-154443095D01*
X228541964Y-154380495D01*
X228630495Y-154291964D01*
X228693095Y-154183536D01*
X228725500Y-154062601D01*
X228725500Y-153937399D01*
X228693095Y-153816464D01*
X228630495Y-153708036D01*
X228541964Y-153619505D01*
X228433536Y-153556905D01*
X228433537Y-153556905D01*
X228367991Y-153539342D01*
X228312601Y-153524500D01*
X228312600Y-153524500D01*
X228304751Y-153522397D01*
X228305168Y-153520840D01*
X228249898Y-153496380D01*
X228211436Y-153438049D01*
X228206468Y-153390887D01*
X228207414Y-153380097D01*
X228225500Y-153312601D01*
X228225500Y-153187399D01*
X228774500Y-153187399D01*
X228774500Y-153312601D01*
X228806905Y-153433536D01*
X228869505Y-153541964D01*
X228958036Y-153630495D01*
X229066464Y-153693095D01*
X229187399Y-153725500D01*
X229187401Y-153725500D01*
X229195249Y-153727603D01*
X229194831Y-153729162D01*
X229250089Y-153753609D01*
X229288559Y-153811935D01*
X229289780Y-153880373D01*
X229274500Y-153937399D01*
X229274500Y-154062601D01*
X229306905Y-154183536D01*
X229369505Y-154291964D01*
X229458036Y-154380495D01*
X229566464Y-154443095D01*
X229687399Y-154475500D01*
X229687401Y-154475500D01*
X229812599Y-154475500D01*
X229812601Y-154475500D01*
X229933536Y-154443095D01*
X230041964Y-154380495D01*
X230130495Y-154291964D01*
X230193095Y-154183536D01*
X230225500Y-154062601D01*
X230225500Y-153937399D01*
X230193095Y-153816464D01*
X230130495Y-153708036D01*
X230041964Y-153619505D01*
X229933536Y-153556905D01*
X229933537Y-153556905D01*
X229867991Y-153539342D01*
X229812601Y-153524500D01*
X229812600Y-153524500D01*
X229804751Y-153522397D01*
X229805168Y-153520840D01*
X229749898Y-153496380D01*
X229711436Y-153438049D01*
X229710220Y-153369624D01*
X229710253Y-153369504D01*
X229725500Y-153312601D01*
X229725500Y-153187399D01*
X229693095Y-153066464D01*
X229630495Y-152958036D01*
X229541964Y-152869505D01*
X229433536Y-152806905D01*
X229433537Y-152806905D01*
X229393224Y-152796103D01*
X229312601Y-152774500D01*
X229187399Y-152774500D01*
X229106775Y-152796103D01*
X229066463Y-152806905D01*
X228958037Y-152869504D01*
X228958034Y-152869506D01*
X228869506Y-152958034D01*
X228869504Y-152958037D01*
X228806905Y-153066463D01*
X228800357Y-153090900D01*
X228774500Y-153187399D01*
X228225500Y-153187399D01*
X228193095Y-153066464D01*
X228130495Y-152958036D01*
X228041964Y-152869505D01*
X227933536Y-152806905D01*
X227933537Y-152806905D01*
X227893224Y-152796103D01*
X227812601Y-152774500D01*
X227687399Y-152774500D01*
X227606775Y-152796103D01*
X227566463Y-152806905D01*
X227458037Y-152869504D01*
X227458034Y-152869506D01*
X227369504Y-152958036D01*
X227357387Y-152979025D01*
X227306820Y-153027240D01*
X227238212Y-153040462D01*
X227173348Y-153014494D01*
X227142613Y-152979025D01*
X227130495Y-152958036D01*
X227041965Y-152869506D01*
X227041964Y-152869505D01*
X226933536Y-152806905D01*
X226933537Y-152806905D01*
X226893224Y-152796103D01*
X226812601Y-152774500D01*
X226687399Y-152774500D01*
X226606775Y-152796103D01*
X226566463Y-152806905D01*
X226458037Y-152869504D01*
X226458034Y-152869506D01*
X226369506Y-152958034D01*
X226369504Y-152958037D01*
X226306905Y-153066463D01*
X226300357Y-153090900D01*
X226274500Y-153187399D01*
X222725500Y-153187399D01*
X222725500Y-153090899D01*
X222693095Y-152969964D01*
X222630495Y-152861536D01*
X222541964Y-152773005D01*
X222433536Y-152710405D01*
X222433531Y-152710403D01*
X222317405Y-152679286D01*
X222295171Y-152665733D01*
X222271171Y-152655639D01*
X222265821Y-152647843D01*
X222257745Y-152642921D01*
X222246366Y-152619496D01*
X222231635Y-152598031D01*
X222229534Y-152584844D01*
X222227217Y-152580073D01*
X222225557Y-152563265D01*
X222225500Y-152561382D01*
X222225500Y-152462399D01*
X222222121Y-152449789D01*
X222221685Y-152435379D01*
X222227012Y-152414968D01*
X222227513Y-152393879D01*
X222235660Y-152381838D01*
X222239332Y-152367774D01*
X222254847Y-152353484D01*
X222266671Y-152336013D01*
X222282911Y-152327639D01*
X222290727Y-152320442D01*
X222300024Y-152318816D01*
X222313530Y-152311853D01*
X222383536Y-152293095D01*
X222491964Y-152230495D01*
X222515060Y-152207399D01*
X231274500Y-152207399D01*
X231274500Y-152332601D01*
X231306905Y-152453536D01*
X231369505Y-152561964D01*
X231458036Y-152650495D01*
X231566464Y-152713095D01*
X231687399Y-152745500D01*
X231687401Y-152745500D01*
X231812599Y-152745500D01*
X231812601Y-152745500D01*
X231933536Y-152713095D01*
X232041964Y-152650495D01*
X232130495Y-152561964D01*
X232193095Y-152453536D01*
X232225500Y-152332601D01*
X232225500Y-152207399D01*
X232193095Y-152086464D01*
X232130495Y-151978036D01*
X232041964Y-151889505D01*
X231933536Y-151826905D01*
X231933537Y-151826905D01*
X231893224Y-151816103D01*
X231812601Y-151794500D01*
X231687399Y-151794500D01*
X231606775Y-151816103D01*
X231566463Y-151826905D01*
X231458037Y-151889504D01*
X231458034Y-151889506D01*
X231369506Y-151978034D01*
X231369504Y-151978037D01*
X231306905Y-152086463D01*
X231306905Y-152086464D01*
X231274500Y-152207399D01*
X222515060Y-152207399D01*
X222580495Y-152141964D01*
X222643095Y-152033536D01*
X222675500Y-151912601D01*
X222675500Y-151787399D01*
X222643095Y-151666464D01*
X222580495Y-151558036D01*
X222491964Y-151469505D01*
X222383536Y-151406905D01*
X222383537Y-151406905D01*
X222343224Y-151396103D01*
X222262601Y-151374500D01*
X222137399Y-151374500D01*
X222056775Y-151396103D01*
X222016463Y-151406905D01*
X221908037Y-151469504D01*
X221908034Y-151469506D01*
X221819506Y-151558034D01*
X221819504Y-151558037D01*
X221756905Y-151666463D01*
X221724500Y-151787400D01*
X221724500Y-151912600D01*
X221725561Y-151920658D01*
X221723918Y-151920874D01*
X221722482Y-151981132D01*
X221683318Y-152038994D01*
X221636466Y-152063147D01*
X221566468Y-152081903D01*
X221566463Y-152081905D01*
X221458037Y-152144504D01*
X221458034Y-152144506D01*
X221369506Y-152233034D01*
X221369504Y-152233037D01*
X221306905Y-152341463D01*
X221306905Y-152341464D01*
X221274500Y-152462399D01*
X187500500Y-152462399D01*
X187500500Y-149787399D01*
X221524500Y-149787399D01*
X221524500Y-149912601D01*
X221556905Y-150033536D01*
X221619505Y-150141964D01*
X221708036Y-150230495D01*
X221816464Y-150293095D01*
X221937399Y-150325500D01*
X221937401Y-150325500D01*
X222056013Y-150325500D01*
X222123052Y-150345185D01*
X222168807Y-150397989D01*
X222175786Y-150417400D01*
X222206905Y-150533536D01*
X222269505Y-150641964D01*
X222358036Y-150730495D01*
X222466464Y-150793095D01*
X222587399Y-150825500D01*
X222587401Y-150825500D01*
X222712599Y-150825500D01*
X222712601Y-150825500D01*
X222833536Y-150793095D01*
X222941964Y-150730495D01*
X223030495Y-150641964D01*
X223093095Y-150533536D01*
X223125500Y-150412601D01*
X223125500Y-150287399D01*
X223093095Y-150166464D01*
X223030495Y-150058036D01*
X222941964Y-149969505D01*
X222941963Y-149969504D01*
X222920976Y-149957388D01*
X222872760Y-149906821D01*
X222859536Y-149838214D01*
X222885504Y-149773349D01*
X222920976Y-149742612D01*
X222941964Y-149730495D01*
X223030495Y-149641964D01*
X223093095Y-149533536D01*
X223125500Y-149412601D01*
X223125500Y-149287399D01*
X223093095Y-149166464D01*
X223030495Y-149058036D01*
X222941964Y-148969505D01*
X222833536Y-148906905D01*
X222833537Y-148906905D01*
X222793224Y-148896103D01*
X222712601Y-148874500D01*
X222587399Y-148874500D01*
X222506775Y-148896103D01*
X222466463Y-148906905D01*
X222358037Y-148969504D01*
X222358034Y-148969506D01*
X222269506Y-149058034D01*
X222269504Y-149058037D01*
X222206905Y-149166463D01*
X222175788Y-149282594D01*
X222139422Y-149342254D01*
X222076575Y-149372783D01*
X222056013Y-149374500D01*
X221937399Y-149374500D01*
X221856775Y-149396103D01*
X221816463Y-149406905D01*
X221708037Y-149469504D01*
X221708034Y-149469506D01*
X221619506Y-149558034D01*
X221619504Y-149558037D01*
X221556905Y-149666463D01*
X221556905Y-149666464D01*
X221524500Y-149787399D01*
X187500500Y-149787399D01*
X187500500Y-144937399D01*
X189464501Y-144937399D01*
X189464501Y-145062601D01*
X189496906Y-145183536D01*
X189559506Y-145291964D01*
X189648037Y-145380495D01*
X189756465Y-145443095D01*
X189877400Y-145475500D01*
X189877402Y-145475500D01*
X190002600Y-145475500D01*
X190002602Y-145475500D01*
X190123537Y-145443095D01*
X190231965Y-145380495D01*
X190320496Y-145291964D01*
X190383096Y-145183536D01*
X190415501Y-145062601D01*
X190415501Y-144937399D01*
X192524500Y-144937399D01*
X192524500Y-145062601D01*
X192556905Y-145183536D01*
X192612883Y-145280495D01*
X192619504Y-145291962D01*
X192619506Y-145291965D01*
X192708036Y-145380495D01*
X192729025Y-145392613D01*
X192777240Y-145443180D01*
X192790462Y-145511788D01*
X192764494Y-145576652D01*
X192729025Y-145607387D01*
X192708036Y-145619504D01*
X192619506Y-145708034D01*
X192619504Y-145708037D01*
X192556905Y-145816463D01*
X192556905Y-145816464D01*
X192524500Y-145937399D01*
X192524500Y-146062601D01*
X192556905Y-146183536D01*
X192616869Y-146287399D01*
X192619504Y-146291962D01*
X192619506Y-146291965D01*
X192708036Y-146380495D01*
X192729025Y-146392613D01*
X192777240Y-146443180D01*
X192790462Y-146511788D01*
X192764494Y-146576652D01*
X192729025Y-146607387D01*
X192708036Y-146619504D01*
X192619506Y-146708034D01*
X192619504Y-146708037D01*
X192556905Y-146816463D01*
X192556905Y-146816464D01*
X192524500Y-146937399D01*
X192524500Y-147062601D01*
X192556905Y-147183536D01*
X192616869Y-147287399D01*
X192619504Y-147291962D01*
X192619506Y-147291965D01*
X192708036Y-147380495D01*
X192729025Y-147392613D01*
X192777240Y-147443180D01*
X192790462Y-147511788D01*
X192764494Y-147576652D01*
X192729025Y-147607387D01*
X192708036Y-147619504D01*
X192619506Y-147708034D01*
X192619504Y-147708037D01*
X192556905Y-147816463D01*
X192556905Y-147816464D01*
X192524500Y-147937399D01*
X192524500Y-148062601D01*
X192556905Y-148183536D01*
X192619505Y-148291964D01*
X192708036Y-148380495D01*
X192816464Y-148443095D01*
X192937399Y-148475500D01*
X192937401Y-148475500D01*
X193062599Y-148475500D01*
X193062601Y-148475500D01*
X193183536Y-148443095D01*
X193291964Y-148380495D01*
X193380495Y-148291964D01*
X193443095Y-148183536D01*
X193475500Y-148062601D01*
X193475500Y-147937399D01*
X193443095Y-147816464D01*
X193380495Y-147708036D01*
X193291964Y-147619505D01*
X193291963Y-147619504D01*
X193270976Y-147607388D01*
X193222760Y-147556821D01*
X193209536Y-147488214D01*
X193235504Y-147423349D01*
X193270976Y-147392612D01*
X193272097Y-147391965D01*
X193291964Y-147380495D01*
X193380495Y-147291964D01*
X193383131Y-147287399D01*
X205624500Y-147287399D01*
X205624500Y-147412601D01*
X205656905Y-147533536D01*
X205719505Y-147641964D01*
X205808036Y-147730495D01*
X205916464Y-147793095D01*
X206037399Y-147825500D01*
X206037401Y-147825500D01*
X206162599Y-147825500D01*
X206162601Y-147825500D01*
X206283536Y-147793095D01*
X206391964Y-147730495D01*
X206480495Y-147641964D01*
X206543095Y-147533536D01*
X206575500Y-147412601D01*
X206575500Y-147287399D01*
X206543095Y-147166464D01*
X206480495Y-147058036D01*
X206459858Y-147037399D01*
X207874500Y-147037399D01*
X207874500Y-147162601D01*
X207906905Y-147283536D01*
X207969505Y-147391964D01*
X208058036Y-147480495D01*
X208166464Y-147543095D01*
X208287399Y-147575500D01*
X208287401Y-147575500D01*
X208412599Y-147575500D01*
X208412601Y-147575500D01*
X208533536Y-147543095D01*
X208641964Y-147480495D01*
X208662319Y-147460140D01*
X208723642Y-147426655D01*
X208793334Y-147431639D01*
X208837681Y-147460140D01*
X208858036Y-147480495D01*
X208966464Y-147543095D01*
X209087399Y-147575500D01*
X209087401Y-147575500D01*
X209212599Y-147575500D01*
X209212601Y-147575500D01*
X209333536Y-147543095D01*
X209441964Y-147480495D01*
X209530495Y-147391964D01*
X209593095Y-147283536D01*
X209625500Y-147162601D01*
X209625500Y-147037399D01*
X217049500Y-147037399D01*
X217049500Y-147162601D01*
X217081905Y-147283536D01*
X217144505Y-147391964D01*
X217233036Y-147480495D01*
X217341464Y-147543095D01*
X217462399Y-147575500D01*
X217462401Y-147575500D01*
X217587599Y-147575500D01*
X217587601Y-147575500D01*
X217708536Y-147543095D01*
X217816964Y-147480495D01*
X217905495Y-147391964D01*
X217968095Y-147283536D01*
X218000500Y-147162601D01*
X218000500Y-147037399D01*
X217968095Y-146916464D01*
X217905495Y-146808036D01*
X217816964Y-146719505D01*
X217708536Y-146656905D01*
X217708537Y-146656905D01*
X217652769Y-146641962D01*
X217587601Y-146624500D01*
X217462399Y-146624500D01*
X217397231Y-146641962D01*
X217341463Y-146656905D01*
X217233037Y-146719504D01*
X217233034Y-146719506D01*
X217144506Y-146808034D01*
X217144504Y-146808037D01*
X217081905Y-146916463D01*
X217067693Y-146969504D01*
X217049500Y-147037399D01*
X209625500Y-147037399D01*
X209593095Y-146916464D01*
X209530495Y-146808036D01*
X209441964Y-146719505D01*
X209333536Y-146656905D01*
X209333537Y-146656905D01*
X209277769Y-146641962D01*
X209212601Y-146624500D01*
X209087399Y-146624500D01*
X209022231Y-146641962D01*
X208966463Y-146656905D01*
X208858037Y-146719504D01*
X208858034Y-146719506D01*
X208837681Y-146739860D01*
X208776358Y-146773345D01*
X208706666Y-146768361D01*
X208662319Y-146739860D01*
X208641965Y-146719506D01*
X208641964Y-146719505D01*
X208533536Y-146656905D01*
X208533537Y-146656905D01*
X208477769Y-146641962D01*
X208412601Y-146624500D01*
X208287399Y-146624500D01*
X208222231Y-146641962D01*
X208166463Y-146656905D01*
X208058037Y-146719504D01*
X208058034Y-146719506D01*
X207969506Y-146808034D01*
X207969504Y-146808037D01*
X207906905Y-146916463D01*
X207892693Y-146969504D01*
X207874500Y-147037399D01*
X206459858Y-147037399D01*
X206391964Y-146969505D01*
X206283536Y-146906905D01*
X206283537Y-146906905D01*
X206243224Y-146896103D01*
X206162601Y-146874500D01*
X206037399Y-146874500D01*
X205956775Y-146896103D01*
X205916463Y-146906905D01*
X205808037Y-146969504D01*
X205808034Y-146969506D01*
X205719506Y-147058034D01*
X205719504Y-147058037D01*
X205656905Y-147166463D01*
X205656905Y-147166464D01*
X205624500Y-147287399D01*
X193383131Y-147287399D01*
X193415984Y-147230495D01*
X193423619Y-147217271D01*
X193423619Y-147217270D01*
X193424762Y-147215289D01*
X193443095Y-147183536D01*
X193475500Y-147062601D01*
X193475500Y-146937399D01*
X193443095Y-146816464D01*
X193380495Y-146708036D01*
X193291964Y-146619505D01*
X193291963Y-146619504D01*
X193270976Y-146607388D01*
X193222760Y-146556821D01*
X193209536Y-146488214D01*
X193235504Y-146423349D01*
X193270976Y-146392612D01*
X193291964Y-146380495D01*
X193380495Y-146291964D01*
X193443095Y-146183536D01*
X193475500Y-146062601D01*
X193475500Y-145987399D01*
X205624500Y-145987399D01*
X205624500Y-146112601D01*
X205656905Y-146233536D01*
X205719505Y-146341964D01*
X205808036Y-146430495D01*
X205916464Y-146493095D01*
X206037399Y-146525500D01*
X206037401Y-146525500D01*
X206162599Y-146525500D01*
X206162601Y-146525500D01*
X206283536Y-146493095D01*
X206391964Y-146430495D01*
X206480495Y-146341964D01*
X206543095Y-146233536D01*
X206575500Y-146112601D01*
X206575500Y-145987399D01*
X206543095Y-145866464D01*
X206480495Y-145758036D01*
X206391964Y-145669505D01*
X206283536Y-145606905D01*
X206283537Y-145606905D01*
X206262692Y-145601320D01*
X206162601Y-145574500D01*
X206037399Y-145574500D01*
X205983110Y-145589047D01*
X205916463Y-145606905D01*
X205808037Y-145669504D01*
X205808034Y-145669506D01*
X205719506Y-145758034D01*
X205719504Y-145758037D01*
X205656905Y-145866463D01*
X205646069Y-145906905D01*
X205624500Y-145987399D01*
X193475500Y-145987399D01*
X193475500Y-145937399D01*
X193443095Y-145816464D01*
X193380495Y-145708036D01*
X193291964Y-145619505D01*
X193291963Y-145619504D01*
X193270976Y-145607388D01*
X193222760Y-145556821D01*
X193209536Y-145488214D01*
X193213865Y-145477400D01*
X220249500Y-145477400D01*
X220249500Y-145602602D01*
X220281905Y-145723537D01*
X220344505Y-145831965D01*
X220433036Y-145920496D01*
X220541464Y-145983096D01*
X220662399Y-146015501D01*
X220662401Y-146015501D01*
X220787599Y-146015501D01*
X220787601Y-146015501D01*
X220908536Y-145983096D01*
X221016964Y-145920496D01*
X221105495Y-145831965D01*
X221168095Y-145723537D01*
X221200500Y-145602602D01*
X221200500Y-145477400D01*
X221168095Y-145356465D01*
X221105495Y-145248037D01*
X221016964Y-145159506D01*
X221011217Y-145153759D01*
X221012433Y-145152542D01*
X220977024Y-145104045D01*
X220972871Y-145034299D01*
X221007084Y-144973380D01*
X221031710Y-144954715D01*
X221116964Y-144905495D01*
X221185060Y-144837399D01*
X225324500Y-144837399D01*
X225324500Y-144962601D01*
X225356905Y-145083536D01*
X225419505Y-145191964D01*
X225508036Y-145280495D01*
X225616464Y-145343095D01*
X225737399Y-145375500D01*
X225737401Y-145375500D01*
X225862599Y-145375500D01*
X225862601Y-145375500D01*
X225983536Y-145343095D01*
X226091964Y-145280495D01*
X226180495Y-145191964D01*
X226243095Y-145083536D01*
X226275500Y-144962601D01*
X226275500Y-144837399D01*
X227724500Y-144837399D01*
X227724500Y-144962601D01*
X227756905Y-145083536D01*
X227819505Y-145191964D01*
X227908036Y-145280495D01*
X228016464Y-145343095D01*
X228137399Y-145375500D01*
X228137401Y-145375500D01*
X228262599Y-145375500D01*
X228262601Y-145375500D01*
X228383536Y-145343095D01*
X228491964Y-145280495D01*
X228580495Y-145191964D01*
X228643095Y-145083536D01*
X228675500Y-144962601D01*
X228675500Y-144837399D01*
X228643095Y-144716464D01*
X228580495Y-144608036D01*
X228549412Y-144576953D01*
X228515927Y-144515630D01*
X228520911Y-144445938D01*
X228562783Y-144390005D01*
X228604994Y-144369499D01*
X228703536Y-144343095D01*
X228811964Y-144280495D01*
X228900495Y-144191964D01*
X228963095Y-144083536D01*
X228995500Y-143962601D01*
X228995500Y-143837399D01*
X228963095Y-143716464D01*
X228900495Y-143608036D01*
X228811964Y-143519505D01*
X228703536Y-143456905D01*
X228703537Y-143456905D01*
X228630747Y-143437401D01*
X228582601Y-143424500D01*
X228457399Y-143424500D01*
X228409253Y-143437401D01*
X228336463Y-143456905D01*
X228228037Y-143519504D01*
X228228034Y-143519506D01*
X228139506Y-143608034D01*
X228139504Y-143608037D01*
X228076905Y-143716463D01*
X228076905Y-143716464D01*
X228044500Y-143837399D01*
X228044500Y-143962601D01*
X228067785Y-144049500D01*
X228076905Y-144083536D01*
X228139504Y-144191962D01*
X228139506Y-144191965D01*
X228170587Y-144223046D01*
X228204072Y-144284369D01*
X228199088Y-144354061D01*
X228157216Y-144409994D01*
X228115002Y-144430501D01*
X228016464Y-144456905D01*
X228016462Y-144456905D01*
X228016462Y-144456906D01*
X227908037Y-144519504D01*
X227908034Y-144519506D01*
X227819506Y-144608034D01*
X227819504Y-144608037D01*
X227756905Y-144716463D01*
X227756905Y-144716464D01*
X227724500Y-144837399D01*
X226275500Y-144837399D01*
X226243095Y-144716464D01*
X226180495Y-144608036D01*
X226091964Y-144519505D01*
X225983536Y-144456905D01*
X225983537Y-144456905D01*
X225942607Y-144445938D01*
X225862601Y-144424500D01*
X225737399Y-144424500D01*
X225657393Y-144445938D01*
X225616463Y-144456905D01*
X225508037Y-144519504D01*
X225508034Y-144519506D01*
X225419506Y-144608034D01*
X225419504Y-144608037D01*
X225356905Y-144716463D01*
X225356905Y-144716464D01*
X225324500Y-144837399D01*
X221185060Y-144837399D01*
X221205495Y-144816964D01*
X221268095Y-144708536D01*
X221300500Y-144587601D01*
X221300500Y-144462399D01*
X221268095Y-144341464D01*
X221205495Y-144233036D01*
X221116964Y-144144505D01*
X221008536Y-144081905D01*
X221008537Y-144081905D01*
X220968224Y-144071103D01*
X220887601Y-144049500D01*
X220762399Y-144049500D01*
X220681775Y-144071103D01*
X220641463Y-144081905D01*
X220533037Y-144144504D01*
X220533034Y-144144506D01*
X220444506Y-144233034D01*
X220444504Y-144233037D01*
X220381905Y-144341463D01*
X220374393Y-144369497D01*
X220349500Y-144462399D01*
X220349500Y-144587601D01*
X220381905Y-144708536D01*
X220444504Y-144816963D01*
X220444506Y-144816965D01*
X220538783Y-144911242D01*
X220537565Y-144912459D01*
X220572974Y-144960951D01*
X220577129Y-145030697D01*
X220542917Y-145091618D01*
X220518285Y-145110287D01*
X220433039Y-145159503D01*
X220433034Y-145159507D01*
X220344506Y-145248035D01*
X220344504Y-145248038D01*
X220281905Y-145356464D01*
X220275466Y-145380495D01*
X220249500Y-145477400D01*
X193213865Y-145477400D01*
X193235504Y-145423349D01*
X193270976Y-145392612D01*
X193291964Y-145380495D01*
X193380495Y-145291964D01*
X193443095Y-145183536D01*
X193475500Y-145062601D01*
X193475500Y-144937399D01*
X193443095Y-144816464D01*
X193380495Y-144708036D01*
X193291964Y-144619505D01*
X193291963Y-144619504D01*
X193278706Y-144611850D01*
X193270975Y-144607387D01*
X193222760Y-144556821D01*
X193209536Y-144488214D01*
X193235504Y-144423349D01*
X193270975Y-144392613D01*
X193291965Y-144380495D01*
X193380496Y-144291964D01*
X193443096Y-144183536D01*
X193475501Y-144062601D01*
X193475501Y-143937399D01*
X193443096Y-143816464D01*
X193380496Y-143708036D01*
X193291965Y-143619505D01*
X193183537Y-143556905D01*
X193183538Y-143556905D01*
X193143225Y-143546103D01*
X193062602Y-143524500D01*
X192937400Y-143524500D01*
X192856776Y-143546103D01*
X192816464Y-143556905D01*
X192708038Y-143619504D01*
X192708035Y-143619506D01*
X192619507Y-143708034D01*
X192619505Y-143708037D01*
X192556906Y-143816463D01*
X192556906Y-143816464D01*
X192524501Y-143937399D01*
X192524501Y-144062601D01*
X192556906Y-144183536D01*
X192619506Y-144291964D01*
X192708037Y-144380495D01*
X192729025Y-144392612D01*
X192777239Y-144443176D01*
X192790464Y-144511783D01*
X192764497Y-144576649D01*
X192729027Y-144607385D01*
X192708039Y-144619502D01*
X192708034Y-144619506D01*
X192619506Y-144708034D01*
X192619504Y-144708037D01*
X192556905Y-144816463D01*
X192551295Y-144837399D01*
X192524500Y-144937399D01*
X190415501Y-144937399D01*
X190383096Y-144816464D01*
X190320496Y-144708036D01*
X190231965Y-144619505D01*
X190123537Y-144556905D01*
X190123538Y-144556905D01*
X190083225Y-144546103D01*
X190002602Y-144524500D01*
X189877400Y-144524500D01*
X189796776Y-144546103D01*
X189756464Y-144556905D01*
X189648038Y-144619504D01*
X189648035Y-144619506D01*
X189559507Y-144708034D01*
X189559505Y-144708037D01*
X189496906Y-144816463D01*
X189491296Y-144837399D01*
X189464501Y-144937399D01*
X187500500Y-144937399D01*
X187500500Y-142487399D01*
X206324500Y-142487399D01*
X206324500Y-142612601D01*
X206356905Y-142733536D01*
X206419505Y-142841964D01*
X206508036Y-142930495D01*
X206616464Y-142993095D01*
X206737399Y-143025500D01*
X206737401Y-143025500D01*
X206810118Y-143025500D01*
X206877157Y-143045185D01*
X206922912Y-143097989D01*
X206932856Y-143167147D01*
X206917506Y-143211499D01*
X206856905Y-143316463D01*
X206856905Y-143316464D01*
X206824500Y-143437399D01*
X206824500Y-143562601D01*
X206856905Y-143683536D01*
X206919505Y-143791964D01*
X207008036Y-143880495D01*
X207116464Y-143943095D01*
X207237399Y-143975500D01*
X207237401Y-143975500D01*
X207362599Y-143975500D01*
X207362601Y-143975500D01*
X207483536Y-143943095D01*
X207591964Y-143880495D01*
X207680495Y-143791964D01*
X207743095Y-143683536D01*
X207775500Y-143562601D01*
X207775500Y-143437399D01*
X207772821Y-143427400D01*
X218249500Y-143427400D01*
X218249500Y-143552602D01*
X218281905Y-143673537D01*
X218344505Y-143781965D01*
X218433036Y-143870496D01*
X218541464Y-143933096D01*
X218662399Y-143965501D01*
X218662401Y-143965501D01*
X218787599Y-143965501D01*
X218787601Y-143965501D01*
X218908536Y-143933096D01*
X219016964Y-143870496D01*
X219050061Y-143837399D01*
X224044500Y-143837399D01*
X224044500Y-143962601D01*
X224076905Y-144083536D01*
X224139505Y-144191964D01*
X224228036Y-144280495D01*
X224336464Y-144343095D01*
X224457399Y-144375500D01*
X224457401Y-144375500D01*
X224582599Y-144375500D01*
X224582601Y-144375500D01*
X224703536Y-144343095D01*
X224811964Y-144280495D01*
X224900495Y-144191964D01*
X224963095Y-144083536D01*
X224995500Y-143962601D01*
X224995500Y-143837399D01*
X226044500Y-143837399D01*
X226044500Y-143962601D01*
X226076905Y-144083536D01*
X226139505Y-144191964D01*
X226228036Y-144280495D01*
X226336464Y-144343095D01*
X226457399Y-144375500D01*
X226457401Y-144375500D01*
X226582599Y-144375500D01*
X226582601Y-144375500D01*
X226703536Y-144343095D01*
X226811964Y-144280495D01*
X226900495Y-144191964D01*
X226963095Y-144083536D01*
X226995500Y-143962601D01*
X226995500Y-143837399D01*
X226963095Y-143716464D01*
X226900495Y-143608036D01*
X226811964Y-143519505D01*
X226703536Y-143456905D01*
X226703537Y-143456905D01*
X226630747Y-143437401D01*
X226582601Y-143424500D01*
X226457399Y-143424500D01*
X226409253Y-143437401D01*
X226336463Y-143456905D01*
X226228037Y-143519504D01*
X226228034Y-143519506D01*
X226139506Y-143608034D01*
X226139504Y-143608037D01*
X226076905Y-143716463D01*
X226076905Y-143716464D01*
X226044500Y-143837399D01*
X224995500Y-143837399D01*
X224963095Y-143716464D01*
X224900495Y-143608036D01*
X224811964Y-143519505D01*
X224703536Y-143456905D01*
X224703537Y-143456905D01*
X224630747Y-143437401D01*
X224582601Y-143424500D01*
X224457399Y-143424500D01*
X224409253Y-143437401D01*
X224336463Y-143456905D01*
X224228037Y-143519504D01*
X224228034Y-143519506D01*
X224139506Y-143608034D01*
X224139504Y-143608037D01*
X224076905Y-143716463D01*
X224076905Y-143716464D01*
X224044500Y-143837399D01*
X219050061Y-143837399D01*
X219105495Y-143781965D01*
X219108579Y-143776622D01*
X219113979Y-143767271D01*
X219143312Y-143716463D01*
X219168095Y-143673537D01*
X219200500Y-143552602D01*
X219200500Y-143427400D01*
X219168095Y-143306465D01*
X219105495Y-143198037D01*
X219016964Y-143109506D01*
X218908536Y-143046906D01*
X218908537Y-143046906D01*
X218868224Y-143036104D01*
X218787601Y-143014501D01*
X218662399Y-143014501D01*
X218581775Y-143036104D01*
X218541463Y-143046906D01*
X218433037Y-143109505D01*
X218433034Y-143109507D01*
X218344506Y-143198035D01*
X218344504Y-143198038D01*
X218281905Y-143306464D01*
X218281905Y-143306465D01*
X218249500Y-143427400D01*
X207772821Y-143427400D01*
X207743095Y-143316464D01*
X207680495Y-143208036D01*
X207591964Y-143119505D01*
X207483536Y-143056905D01*
X207483537Y-143056905D01*
X207439797Y-143045185D01*
X207362601Y-143024500D01*
X207289882Y-143024500D01*
X207222843Y-143004815D01*
X207177088Y-142952011D01*
X207167144Y-142882853D01*
X207182494Y-142838501D01*
X207243095Y-142733536D01*
X207275500Y-142612601D01*
X207275500Y-142547398D01*
X223524500Y-142547398D01*
X223524500Y-142672600D01*
X223556905Y-142793535D01*
X223619505Y-142901963D01*
X223708036Y-142990494D01*
X223816464Y-143053094D01*
X223937399Y-143085499D01*
X223937401Y-143085499D01*
X224062599Y-143085499D01*
X224062601Y-143085499D01*
X224183536Y-143053094D01*
X224291964Y-142990494D01*
X224380495Y-142901963D01*
X224443095Y-142793535D01*
X224475500Y-142672600D01*
X224475500Y-142547398D01*
X224443095Y-142426463D01*
X224380495Y-142318035D01*
X224291964Y-142229504D01*
X224183536Y-142166904D01*
X224183537Y-142166904D01*
X224143224Y-142156102D01*
X224062601Y-142134499D01*
X223937399Y-142134499D01*
X223856775Y-142156102D01*
X223816463Y-142166904D01*
X223708037Y-142229503D01*
X223708034Y-142229505D01*
X223619506Y-142318033D01*
X223619504Y-142318036D01*
X223556905Y-142426462D01*
X223556905Y-142426463D01*
X223524500Y-142547398D01*
X207275500Y-142547398D01*
X207275500Y-142487399D01*
X207243095Y-142366464D01*
X207180495Y-142258036D01*
X207091964Y-142169505D01*
X206983536Y-142106905D01*
X206983537Y-142106905D01*
X206913781Y-142088214D01*
X206862601Y-142074500D01*
X206737399Y-142074500D01*
X206689873Y-142087234D01*
X206662997Y-142094436D01*
X206662995Y-142094436D01*
X206616464Y-142106905D01*
X206508036Y-142169505D01*
X206502434Y-142175106D01*
X206502432Y-142175108D01*
X206419506Y-142258034D01*
X206419504Y-142258037D01*
X206356905Y-142366463D01*
X206356905Y-142366464D01*
X206324500Y-142487399D01*
X187500500Y-142487399D01*
X187500500Y-141437399D01*
X205774500Y-141437399D01*
X205774500Y-141562601D01*
X205806905Y-141683536D01*
X205869505Y-141791964D01*
X205958036Y-141880495D01*
X206066464Y-141943095D01*
X206187399Y-141975500D01*
X206187401Y-141975500D01*
X206312600Y-141975500D01*
X206312601Y-141975500D01*
X206433536Y-141943095D01*
X206541964Y-141880495D01*
X206630495Y-141791964D01*
X206693095Y-141683536D01*
X206725500Y-141562601D01*
X206725500Y-141527400D01*
X224724500Y-141527400D01*
X224724500Y-141652602D01*
X224756905Y-141773537D01*
X224819505Y-141881965D01*
X224908036Y-141970496D01*
X224908037Y-141970497D01*
X224908039Y-141970498D01*
X224946343Y-141992613D01*
X224994559Y-142043180D01*
X225007782Y-142111787D01*
X224981814Y-142176652D01*
X224946343Y-142207387D01*
X224908039Y-142229501D01*
X224908034Y-142229505D01*
X224819506Y-142318033D01*
X224819504Y-142318036D01*
X224756905Y-142426462D01*
X224756905Y-142426463D01*
X224724500Y-142547398D01*
X224724500Y-142672600D01*
X224756905Y-142793535D01*
X224819505Y-142901963D01*
X224908036Y-142990494D01*
X225016464Y-143053094D01*
X225137399Y-143085499D01*
X225137401Y-143085499D01*
X225262599Y-143085499D01*
X225262601Y-143085499D01*
X225383536Y-143053094D01*
X225491964Y-142990494D01*
X225580495Y-142901963D01*
X225643095Y-142793535D01*
X225675500Y-142672600D01*
X225675500Y-142547398D01*
X225924500Y-142547398D01*
X225924500Y-142672600D01*
X225956905Y-142793535D01*
X226019505Y-142901963D01*
X226108036Y-142990494D01*
X226216464Y-143053094D01*
X226337399Y-143085499D01*
X226337401Y-143085499D01*
X226462599Y-143085499D01*
X226462601Y-143085499D01*
X226583536Y-143053094D01*
X226691964Y-142990494D01*
X226780495Y-142901963D01*
X226843095Y-142793535D01*
X226875500Y-142672600D01*
X226875500Y-142547398D01*
X227124500Y-142547398D01*
X227124500Y-142672600D01*
X227156905Y-142793535D01*
X227219505Y-142901963D01*
X227308036Y-142990494D01*
X227416464Y-143053094D01*
X227537399Y-143085499D01*
X227537401Y-143085499D01*
X227662599Y-143085499D01*
X227662601Y-143085499D01*
X227783536Y-143053094D01*
X227891964Y-142990494D01*
X227980495Y-142901963D01*
X228043095Y-142793535D01*
X228075500Y-142672600D01*
X228075500Y-142547398D01*
X228043095Y-142426463D01*
X227980495Y-142318035D01*
X227891964Y-142229504D01*
X227783536Y-142166904D01*
X227783537Y-142166904D01*
X227743224Y-142156102D01*
X227662601Y-142134499D01*
X227537399Y-142134499D01*
X227456775Y-142156102D01*
X227416463Y-142166904D01*
X227308037Y-142229503D01*
X227308034Y-142229505D01*
X227219506Y-142318033D01*
X227219504Y-142318036D01*
X227156905Y-142426462D01*
X227156905Y-142426463D01*
X227124500Y-142547398D01*
X226875500Y-142547398D01*
X226843095Y-142426463D01*
X226780495Y-142318035D01*
X226691964Y-142229504D01*
X226583536Y-142166904D01*
X226583537Y-142166904D01*
X226543224Y-142156102D01*
X226462601Y-142134499D01*
X226337399Y-142134499D01*
X226256775Y-142156102D01*
X226216463Y-142166904D01*
X226108037Y-142229503D01*
X226108034Y-142229505D01*
X226019506Y-142318033D01*
X226019504Y-142318036D01*
X225956905Y-142426462D01*
X225956905Y-142426463D01*
X225924500Y-142547398D01*
X225675500Y-142547398D01*
X225643095Y-142426463D01*
X225580495Y-142318035D01*
X225491964Y-142229504D01*
X225491963Y-142229503D01*
X225453657Y-142207388D01*
X225405441Y-142156821D01*
X225392217Y-142088214D01*
X225418185Y-142023349D01*
X225453657Y-141992612D01*
X225491964Y-141970496D01*
X225580495Y-141881965D01*
X225643095Y-141773537D01*
X225675500Y-141652602D01*
X225675500Y-141527400D01*
X228324500Y-141527400D01*
X228324500Y-141652602D01*
X228356905Y-141773537D01*
X228419505Y-141881965D01*
X228508036Y-141970496D01*
X228508037Y-141970497D01*
X228508039Y-141970498D01*
X228546343Y-141992613D01*
X228594559Y-142043180D01*
X228607782Y-142111787D01*
X228581814Y-142176652D01*
X228546343Y-142207387D01*
X228508039Y-142229501D01*
X228508034Y-142229505D01*
X228419506Y-142318033D01*
X228419504Y-142318036D01*
X228356905Y-142426462D01*
X228356905Y-142426463D01*
X228324500Y-142547398D01*
X228324500Y-142672600D01*
X228356905Y-142793535D01*
X228419505Y-142901963D01*
X228508036Y-142990494D01*
X228616464Y-143053094D01*
X228737399Y-143085499D01*
X228737401Y-143085499D01*
X228862599Y-143085499D01*
X228862601Y-143085499D01*
X228983536Y-143053094D01*
X229091964Y-142990494D01*
X229180495Y-142901963D01*
X229243095Y-142793535D01*
X229275500Y-142672600D01*
X229275500Y-142547398D01*
X229524500Y-142547398D01*
X229524500Y-142672600D01*
X229556905Y-142793535D01*
X229619505Y-142901963D01*
X229708036Y-142990494D01*
X229816464Y-143053094D01*
X229937399Y-143085499D01*
X229937401Y-143085499D01*
X230062599Y-143085499D01*
X230062601Y-143085499D01*
X230183536Y-143053094D01*
X230291964Y-142990494D01*
X230380495Y-142901963D01*
X230443095Y-142793535D01*
X230475500Y-142672600D01*
X230475500Y-142547398D01*
X230443095Y-142426463D01*
X230380495Y-142318035D01*
X230291964Y-142229504D01*
X230183536Y-142166904D01*
X230183537Y-142166904D01*
X230143224Y-142156102D01*
X230062601Y-142134499D01*
X229937399Y-142134499D01*
X229856775Y-142156102D01*
X229816463Y-142166904D01*
X229708037Y-142229503D01*
X229708034Y-142229505D01*
X229619506Y-142318033D01*
X229619504Y-142318036D01*
X229556905Y-142426462D01*
X229556905Y-142426463D01*
X229524500Y-142547398D01*
X229275500Y-142547398D01*
X229243095Y-142426463D01*
X229180495Y-142318035D01*
X229091964Y-142229504D01*
X229091963Y-142229503D01*
X229053657Y-142207388D01*
X229005441Y-142156821D01*
X228992217Y-142088214D01*
X229018185Y-142023349D01*
X229053657Y-141992612D01*
X229091964Y-141970496D01*
X229180495Y-141881965D01*
X229243095Y-141773537D01*
X229275500Y-141652602D01*
X229275500Y-141527400D01*
X229243095Y-141406465D01*
X229180495Y-141298037D01*
X229091964Y-141209506D01*
X228983536Y-141146906D01*
X228983537Y-141146906D01*
X228943224Y-141136104D01*
X228862601Y-141114501D01*
X228737399Y-141114501D01*
X228656775Y-141136104D01*
X228616463Y-141146906D01*
X228508037Y-141209505D01*
X228508034Y-141209507D01*
X228419506Y-141298035D01*
X228419504Y-141298038D01*
X228356905Y-141406464D01*
X228356905Y-141406465D01*
X228324500Y-141527400D01*
X225675500Y-141527400D01*
X225643095Y-141406465D01*
X225580495Y-141298037D01*
X225491964Y-141209506D01*
X225383536Y-141146906D01*
X225383537Y-141146906D01*
X225343224Y-141136104D01*
X225262601Y-141114501D01*
X225137399Y-141114501D01*
X225056775Y-141136104D01*
X225016463Y-141146906D01*
X224908037Y-141209505D01*
X224908034Y-141209507D01*
X224819506Y-141298035D01*
X224819504Y-141298038D01*
X224756905Y-141406464D01*
X224756905Y-141406465D01*
X224724500Y-141527400D01*
X206725500Y-141527400D01*
X206725500Y-141437399D01*
X206693095Y-141316464D01*
X206630495Y-141208036D01*
X206541964Y-141119505D01*
X206433536Y-141056905D01*
X206433537Y-141056905D01*
X206393224Y-141046103D01*
X206312601Y-141024500D01*
X206187399Y-141024500D01*
X206106775Y-141046103D01*
X206066463Y-141056905D01*
X205958037Y-141119504D01*
X205958034Y-141119506D01*
X205869506Y-141208034D01*
X205869504Y-141208037D01*
X205806905Y-141316463D01*
X205806905Y-141316464D01*
X205774500Y-141437399D01*
X187500500Y-141437399D01*
X187500500Y-139477399D01*
X189704500Y-139477399D01*
X189704500Y-139602601D01*
X189736905Y-139723536D01*
X189799505Y-139831964D01*
X189888036Y-139920495D01*
X189996464Y-139983095D01*
X190117399Y-140015500D01*
X190117401Y-140015500D01*
X190242599Y-140015500D01*
X190242601Y-140015500D01*
X190363536Y-139983095D01*
X190471964Y-139920495D01*
X190560495Y-139831964D01*
X190623095Y-139723536D01*
X190655500Y-139602601D01*
X190655500Y-139477399D01*
X193344500Y-139477399D01*
X193344500Y-139602601D01*
X193376905Y-139723536D01*
X193439505Y-139831964D01*
X193528036Y-139920495D01*
X193636464Y-139983095D01*
X193757399Y-140015500D01*
X193757401Y-140015500D01*
X193882599Y-140015500D01*
X193882601Y-140015500D01*
X194003536Y-139983095D01*
X194111964Y-139920495D01*
X194195060Y-139837399D01*
X206219501Y-139837399D01*
X206219501Y-139962601D01*
X206251906Y-140083536D01*
X206314506Y-140191964D01*
X206403037Y-140280495D01*
X206511465Y-140343095D01*
X206632400Y-140375500D01*
X206632402Y-140375500D01*
X206757600Y-140375500D01*
X206757602Y-140375500D01*
X206878537Y-140343095D01*
X206986965Y-140280495D01*
X207075496Y-140191964D01*
X207138096Y-140083536D01*
X207170501Y-139962601D01*
X207170501Y-139837399D01*
X212019501Y-139837399D01*
X212019501Y-139962601D01*
X212051906Y-140083536D01*
X212114506Y-140191964D01*
X212203037Y-140280495D01*
X212311465Y-140343095D01*
X212432400Y-140375500D01*
X212432402Y-140375500D01*
X212557600Y-140375500D01*
X212557602Y-140375500D01*
X212678537Y-140343095D01*
X212786965Y-140280495D01*
X212875496Y-140191964D01*
X212938096Y-140083536D01*
X212970501Y-139962601D01*
X212970501Y-139837399D01*
X217819501Y-139837399D01*
X217819501Y-139962601D01*
X217851906Y-140083536D01*
X217914506Y-140191964D01*
X218003037Y-140280495D01*
X218111465Y-140343095D01*
X218232400Y-140375500D01*
X218232402Y-140375500D01*
X218357600Y-140375500D01*
X218357602Y-140375500D01*
X218478537Y-140343095D01*
X218586965Y-140280495D01*
X218675496Y-140191964D01*
X218738096Y-140083536D01*
X218770501Y-139962601D01*
X218770501Y-139837399D01*
X218738096Y-139716464D01*
X218675496Y-139608036D01*
X218586965Y-139519505D01*
X218478537Y-139456905D01*
X218478538Y-139456905D01*
X218438225Y-139446103D01*
X218357602Y-139424500D01*
X218232400Y-139424500D01*
X218151776Y-139446103D01*
X218111464Y-139456905D01*
X218003038Y-139519504D01*
X218003035Y-139519506D01*
X217914507Y-139608034D01*
X217914505Y-139608037D01*
X217851906Y-139716463D01*
X217851906Y-139716464D01*
X217819501Y-139837399D01*
X212970501Y-139837399D01*
X212938096Y-139716464D01*
X212875496Y-139608036D01*
X212786965Y-139519505D01*
X212678537Y-139456905D01*
X212678538Y-139456905D01*
X212638225Y-139446103D01*
X212557602Y-139424500D01*
X212432400Y-139424500D01*
X212351776Y-139446103D01*
X212311464Y-139456905D01*
X212203038Y-139519504D01*
X212203035Y-139519506D01*
X212114507Y-139608034D01*
X212114505Y-139608037D01*
X212051906Y-139716463D01*
X212051906Y-139716464D01*
X212019501Y-139837399D01*
X207170501Y-139837399D01*
X207138096Y-139716464D01*
X207075496Y-139608036D01*
X206986965Y-139519505D01*
X206878537Y-139456905D01*
X206878538Y-139456905D01*
X206838225Y-139446103D01*
X206757602Y-139424500D01*
X206632400Y-139424500D01*
X206551776Y-139446103D01*
X206511464Y-139456905D01*
X206403038Y-139519504D01*
X206403035Y-139519506D01*
X206314507Y-139608034D01*
X206314505Y-139608037D01*
X206251906Y-139716463D01*
X206251906Y-139716464D01*
X206219501Y-139837399D01*
X194195060Y-139837399D01*
X194200495Y-139831964D01*
X194263095Y-139723536D01*
X194295500Y-139602601D01*
X194295500Y-139477399D01*
X194263095Y-139356464D01*
X194200495Y-139248036D01*
X194111964Y-139159505D01*
X194003536Y-139096905D01*
X194003537Y-139096905D01*
X193963224Y-139086103D01*
X193882601Y-139064500D01*
X193757399Y-139064500D01*
X193676775Y-139086103D01*
X193636463Y-139096905D01*
X193528037Y-139159504D01*
X193528034Y-139159506D01*
X193439506Y-139248034D01*
X193439504Y-139248037D01*
X193376905Y-139356463D01*
X193376905Y-139356464D01*
X193344500Y-139477399D01*
X190655500Y-139477399D01*
X190623095Y-139356464D01*
X190560495Y-139248036D01*
X190471964Y-139159505D01*
X190363536Y-139096905D01*
X190363537Y-139096905D01*
X190323224Y-139086103D01*
X190242601Y-139064500D01*
X190117399Y-139064500D01*
X190036775Y-139086103D01*
X189996463Y-139096905D01*
X189888037Y-139159504D01*
X189888034Y-139159506D01*
X189799506Y-139248034D01*
X189799504Y-139248037D01*
X189736905Y-139356463D01*
X189736905Y-139356464D01*
X189704500Y-139477399D01*
X187500500Y-139477399D01*
X187500500Y-138207399D01*
X193344500Y-138207399D01*
X193344500Y-138332601D01*
X193376905Y-138453536D01*
X193439505Y-138561964D01*
X193528036Y-138650495D01*
X193636464Y-138713095D01*
X193757399Y-138745500D01*
X193757401Y-138745500D01*
X193882599Y-138745500D01*
X193882601Y-138745500D01*
X194003536Y-138713095D01*
X194111964Y-138650495D01*
X194200495Y-138561964D01*
X194263095Y-138453536D01*
X194295500Y-138332601D01*
X194295500Y-138207399D01*
X194263095Y-138086464D01*
X194200495Y-137978036D01*
X194111964Y-137889505D01*
X194003536Y-137826905D01*
X194003537Y-137826905D01*
X193963224Y-137816103D01*
X193882601Y-137794500D01*
X193757399Y-137794500D01*
X193676775Y-137816103D01*
X193636463Y-137826905D01*
X193528037Y-137889504D01*
X193528034Y-137889506D01*
X193439506Y-137978034D01*
X193439504Y-137978037D01*
X193376905Y-138086463D01*
X193376905Y-138086464D01*
X193344500Y-138207399D01*
X187500500Y-138207399D01*
X187500500Y-136837399D01*
X212224500Y-136837399D01*
X212224500Y-136962601D01*
X212256905Y-137083536D01*
X212319505Y-137191964D01*
X212408036Y-137280495D01*
X212408037Y-137280496D01*
X212408039Y-137280497D01*
X212515628Y-137342613D01*
X212563843Y-137393179D01*
X212577067Y-137461786D01*
X212551099Y-137526651D01*
X212515628Y-137557387D01*
X212408039Y-137619502D01*
X212408034Y-137619506D01*
X212319506Y-137708034D01*
X212319504Y-137708037D01*
X212256905Y-137816463D01*
X212256905Y-137816464D01*
X212224500Y-137937399D01*
X212224500Y-138062601D01*
X212256905Y-138183536D01*
X212319505Y-138291964D01*
X212408036Y-138380495D01*
X212516464Y-138443095D01*
X212637399Y-138475500D01*
X212637401Y-138475500D01*
X212762599Y-138475500D01*
X212762601Y-138475500D01*
X212883536Y-138443095D01*
X212991964Y-138380495D01*
X213062319Y-138310140D01*
X213123642Y-138276655D01*
X213193334Y-138281639D01*
X213237681Y-138310140D01*
X213308036Y-138380495D01*
X213416464Y-138443095D01*
X213537399Y-138475500D01*
X213537401Y-138475500D01*
X213662599Y-138475500D01*
X213662601Y-138475500D01*
X213783536Y-138443095D01*
X213891964Y-138380495D01*
X213962319Y-138310140D01*
X214023642Y-138276655D01*
X214093334Y-138281639D01*
X214137681Y-138310140D01*
X214208036Y-138380495D01*
X214316464Y-138443095D01*
X214437399Y-138475500D01*
X214437401Y-138475500D01*
X214562599Y-138475500D01*
X214562601Y-138475500D01*
X214683536Y-138443095D01*
X214791964Y-138380495D01*
X214862319Y-138310140D01*
X214923642Y-138276655D01*
X214993334Y-138281639D01*
X215037681Y-138310140D01*
X215108036Y-138380495D01*
X215216464Y-138443095D01*
X215337399Y-138475500D01*
X215337401Y-138475500D01*
X215462599Y-138475500D01*
X215462601Y-138475500D01*
X215583536Y-138443095D01*
X215691964Y-138380495D01*
X215762319Y-138310140D01*
X215823642Y-138276655D01*
X215893334Y-138281639D01*
X215937681Y-138310140D01*
X216008036Y-138380495D01*
X216116464Y-138443095D01*
X216237399Y-138475500D01*
X216237401Y-138475500D01*
X216362599Y-138475500D01*
X216362601Y-138475500D01*
X216483536Y-138443095D01*
X216591964Y-138380495D01*
X216680495Y-138291964D01*
X216743095Y-138183536D01*
X216775500Y-138062601D01*
X216775500Y-137937399D01*
X216743095Y-137816464D01*
X216680495Y-137708036D01*
X216591964Y-137619505D01*
X216484371Y-137557387D01*
X216436156Y-137506821D01*
X216422932Y-137438214D01*
X216448900Y-137373349D01*
X216484370Y-137342613D01*
X216591964Y-137280495D01*
X216680495Y-137191964D01*
X216743095Y-137083536D01*
X216775500Y-136962601D01*
X216775500Y-136837399D01*
X216743095Y-136716464D01*
X216680495Y-136608036D01*
X216591964Y-136519505D01*
X216483536Y-136456905D01*
X216483537Y-136456905D01*
X216443224Y-136446103D01*
X216362601Y-136424500D01*
X216237399Y-136424500D01*
X216156775Y-136446103D01*
X216116463Y-136456905D01*
X216008037Y-136519504D01*
X216008034Y-136519506D01*
X215937681Y-136589860D01*
X215876358Y-136623345D01*
X215806666Y-136618361D01*
X215762319Y-136589860D01*
X215691965Y-136519506D01*
X215691964Y-136519505D01*
X215583536Y-136456905D01*
X215583537Y-136456905D01*
X215543224Y-136446103D01*
X215462601Y-136424500D01*
X215337399Y-136424500D01*
X215256775Y-136446103D01*
X215216463Y-136456905D01*
X215108037Y-136519504D01*
X215108034Y-136519506D01*
X215037681Y-136589860D01*
X214976358Y-136623345D01*
X214906666Y-136618361D01*
X214862319Y-136589860D01*
X214791965Y-136519506D01*
X214791964Y-136519505D01*
X214683536Y-136456905D01*
X214683537Y-136456905D01*
X214643224Y-136446103D01*
X214562601Y-136424500D01*
X214437399Y-136424500D01*
X214356775Y-136446103D01*
X214316463Y-136456905D01*
X214208037Y-136519504D01*
X214208034Y-136519506D01*
X214137681Y-136589860D01*
X214076358Y-136623345D01*
X214006666Y-136618361D01*
X213962319Y-136589860D01*
X213891965Y-136519506D01*
X213891964Y-136519505D01*
X213783536Y-136456905D01*
X213783537Y-136456905D01*
X213743224Y-136446103D01*
X213662601Y-136424500D01*
X213537399Y-136424500D01*
X213456775Y-136446103D01*
X213416463Y-136456905D01*
X213308037Y-136519504D01*
X213308034Y-136519506D01*
X213237681Y-136589860D01*
X213176358Y-136623345D01*
X213106666Y-136618361D01*
X213062319Y-136589860D01*
X212991965Y-136519506D01*
X212991964Y-136519505D01*
X212883536Y-136456905D01*
X212883537Y-136456905D01*
X212843224Y-136446103D01*
X212762601Y-136424500D01*
X212637399Y-136424500D01*
X212556775Y-136446103D01*
X212516463Y-136456905D01*
X212408037Y-136519504D01*
X212408034Y-136519506D01*
X212319506Y-136608034D01*
X212319504Y-136608037D01*
X212256905Y-136716463D01*
X212256905Y-136716464D01*
X212224500Y-136837399D01*
X187500500Y-136837399D01*
X187500500Y-134397399D01*
X193344500Y-134397399D01*
X193344500Y-134522601D01*
X193376905Y-134643536D01*
X193439505Y-134751964D01*
X193528036Y-134840495D01*
X193636464Y-134903095D01*
X193757399Y-134935500D01*
X193757401Y-134935500D01*
X193882599Y-134935500D01*
X193882601Y-134935500D01*
X194003536Y-134903095D01*
X194111964Y-134840495D01*
X194200495Y-134751964D01*
X194263095Y-134643536D01*
X194295500Y-134522601D01*
X194295500Y-134397399D01*
X194279423Y-134337399D01*
X206424500Y-134337399D01*
X206424500Y-134462601D01*
X206456905Y-134583536D01*
X206519505Y-134691964D01*
X206608036Y-134780495D01*
X206608037Y-134780496D01*
X206608039Y-134780497D01*
X206715628Y-134842613D01*
X206763843Y-134893179D01*
X206777067Y-134961786D01*
X206751099Y-135026651D01*
X206715628Y-135057387D01*
X206608039Y-135119502D01*
X206608034Y-135119506D01*
X206519506Y-135208034D01*
X206519504Y-135208037D01*
X206456905Y-135316463D01*
X206456905Y-135316464D01*
X206424500Y-135437399D01*
X206424500Y-135562601D01*
X206456905Y-135683536D01*
X206519505Y-135791964D01*
X206608036Y-135880495D01*
X206716464Y-135943095D01*
X206837399Y-135975500D01*
X206837401Y-135975500D01*
X206962599Y-135975500D01*
X206962601Y-135975500D01*
X207083536Y-135943095D01*
X207191964Y-135880495D01*
X207262319Y-135810140D01*
X207323642Y-135776655D01*
X207393334Y-135781639D01*
X207437681Y-135810140D01*
X207508036Y-135880495D01*
X207616464Y-135943095D01*
X207737399Y-135975500D01*
X207737401Y-135975500D01*
X207862599Y-135975500D01*
X207862601Y-135975500D01*
X207983536Y-135943095D01*
X208091964Y-135880495D01*
X208162319Y-135810140D01*
X208223642Y-135776655D01*
X208293334Y-135781639D01*
X208337681Y-135810140D01*
X208408036Y-135880495D01*
X208516464Y-135943095D01*
X208637399Y-135975500D01*
X208637401Y-135975500D01*
X208762599Y-135975500D01*
X208762601Y-135975500D01*
X208883536Y-135943095D01*
X208991964Y-135880495D01*
X209062319Y-135810140D01*
X209123642Y-135776655D01*
X209193334Y-135781639D01*
X209237681Y-135810140D01*
X209308036Y-135880495D01*
X209416464Y-135943095D01*
X209537399Y-135975500D01*
X209537401Y-135975500D01*
X209662599Y-135975500D01*
X209662601Y-135975500D01*
X209783536Y-135943095D01*
X209891964Y-135880495D01*
X209962319Y-135810140D01*
X210023642Y-135776655D01*
X210093334Y-135781639D01*
X210137681Y-135810140D01*
X210208036Y-135880495D01*
X210316464Y-135943095D01*
X210437399Y-135975500D01*
X210437401Y-135975500D01*
X210562599Y-135975500D01*
X210562601Y-135975500D01*
X210683536Y-135943095D01*
X210791964Y-135880495D01*
X210880495Y-135791964D01*
X210943095Y-135683536D01*
X210975500Y-135562601D01*
X210975500Y-135437399D01*
X210943095Y-135316464D01*
X210880495Y-135208036D01*
X210791964Y-135119505D01*
X210684371Y-135057387D01*
X210636156Y-135006821D01*
X210622932Y-134938214D01*
X210648900Y-134873349D01*
X210684370Y-134842613D01*
X210791964Y-134780495D01*
X210880495Y-134691964D01*
X210943095Y-134583536D01*
X210975500Y-134462601D01*
X210975500Y-134437399D01*
X217924500Y-134437399D01*
X217924500Y-134562601D01*
X217956905Y-134683536D01*
X218012883Y-134780495D01*
X218019504Y-134791962D01*
X218019506Y-134791965D01*
X218108036Y-134880495D01*
X218129025Y-134892613D01*
X218177240Y-134943180D01*
X218190462Y-135011788D01*
X218164494Y-135076652D01*
X218129025Y-135107387D01*
X218108036Y-135119504D01*
X218019506Y-135208034D01*
X218019504Y-135208037D01*
X217956905Y-135316463D01*
X217956905Y-135316464D01*
X217924500Y-135437399D01*
X217924500Y-135562601D01*
X217956905Y-135683536D01*
X218019505Y-135791964D01*
X218108036Y-135880495D01*
X218216464Y-135943095D01*
X218337399Y-135975500D01*
X218337401Y-135975500D01*
X218462599Y-135975500D01*
X218462601Y-135975500D01*
X218583536Y-135943095D01*
X218691964Y-135880495D01*
X218762319Y-135810140D01*
X218823642Y-135776655D01*
X218893334Y-135781639D01*
X218937681Y-135810140D01*
X219008036Y-135880495D01*
X219116464Y-135943095D01*
X219237399Y-135975500D01*
X219237401Y-135975500D01*
X219362599Y-135975500D01*
X219362601Y-135975500D01*
X219483536Y-135943095D01*
X219591964Y-135880495D01*
X219662319Y-135810140D01*
X219723642Y-135776655D01*
X219793334Y-135781639D01*
X219837681Y-135810140D01*
X219908036Y-135880495D01*
X220016464Y-135943095D01*
X220137399Y-135975500D01*
X220137401Y-135975500D01*
X220262599Y-135975500D01*
X220262601Y-135975500D01*
X220383536Y-135943095D01*
X220491964Y-135880495D01*
X220562319Y-135810140D01*
X220623642Y-135776655D01*
X220693334Y-135781639D01*
X220737681Y-135810140D01*
X220808036Y-135880495D01*
X220916464Y-135943095D01*
X221037399Y-135975500D01*
X221037401Y-135975500D01*
X221162599Y-135975500D01*
X221162601Y-135975500D01*
X221283536Y-135943095D01*
X221391964Y-135880495D01*
X221462319Y-135810140D01*
X221523642Y-135776655D01*
X221593334Y-135781639D01*
X221637681Y-135810140D01*
X221708036Y-135880495D01*
X221816464Y-135943095D01*
X221937399Y-135975500D01*
X221937401Y-135975500D01*
X222062599Y-135975500D01*
X222062601Y-135975500D01*
X222183536Y-135943095D01*
X222210721Y-135927400D01*
X223524500Y-135927400D01*
X223524500Y-136052602D01*
X223556905Y-136173537D01*
X223619505Y-136281965D01*
X223708036Y-136370496D01*
X223816464Y-136433096D01*
X223937399Y-136465501D01*
X223937401Y-136465501D01*
X224062599Y-136465501D01*
X224062601Y-136465501D01*
X224183536Y-136433096D01*
X224291964Y-136370496D01*
X224380495Y-136281965D01*
X224443095Y-136173537D01*
X224475500Y-136052602D01*
X224475500Y-135927400D01*
X224724500Y-135927400D01*
X224724500Y-136052602D01*
X224756905Y-136173537D01*
X224819505Y-136281965D01*
X224908036Y-136370496D01*
X225016464Y-136433096D01*
X225137399Y-136465501D01*
X225137401Y-136465501D01*
X225262599Y-136465501D01*
X225262601Y-136465501D01*
X225383536Y-136433096D01*
X225491964Y-136370496D01*
X225580495Y-136281965D01*
X225643095Y-136173537D01*
X225675500Y-136052602D01*
X225675500Y-135927400D01*
X225924500Y-135927400D01*
X225924500Y-136052602D01*
X225956905Y-136173537D01*
X226019505Y-136281965D01*
X226108036Y-136370496D01*
X226216464Y-136433096D01*
X226337399Y-136465501D01*
X226337401Y-136465501D01*
X226462599Y-136465501D01*
X226462601Y-136465501D01*
X226583536Y-136433096D01*
X226691964Y-136370496D01*
X226780495Y-136281965D01*
X226843095Y-136173537D01*
X226875500Y-136052602D01*
X226875500Y-135927400D01*
X227124500Y-135927400D01*
X227124500Y-136052602D01*
X227156905Y-136173537D01*
X227219505Y-136281965D01*
X227308036Y-136370496D01*
X227416464Y-136433096D01*
X227537399Y-136465501D01*
X227537401Y-136465501D01*
X227662599Y-136465501D01*
X227662601Y-136465501D01*
X227783536Y-136433096D01*
X227891964Y-136370496D01*
X227980495Y-136281965D01*
X228043095Y-136173537D01*
X228075500Y-136052602D01*
X228075500Y-135927400D01*
X228324500Y-135927400D01*
X228324500Y-136052602D01*
X228356905Y-136173537D01*
X228419505Y-136281965D01*
X228508036Y-136370496D01*
X228616464Y-136433096D01*
X228737399Y-136465501D01*
X228737401Y-136465501D01*
X228862599Y-136465501D01*
X228862601Y-136465501D01*
X228983536Y-136433096D01*
X229091964Y-136370496D01*
X229180495Y-136281965D01*
X229243095Y-136173537D01*
X229275500Y-136052602D01*
X229275500Y-135927400D01*
X229524500Y-135927400D01*
X229524500Y-136052602D01*
X229556905Y-136173537D01*
X229619505Y-136281965D01*
X229708036Y-136370496D01*
X229816464Y-136433096D01*
X229937399Y-136465501D01*
X229937401Y-136465501D01*
X230062599Y-136465501D01*
X230062601Y-136465501D01*
X230183536Y-136433096D01*
X230291964Y-136370496D01*
X230380495Y-136281965D01*
X230443095Y-136173537D01*
X230475500Y-136052602D01*
X230475500Y-135927400D01*
X230443095Y-135806465D01*
X230380495Y-135698037D01*
X230291964Y-135609506D01*
X230183536Y-135546906D01*
X230183537Y-135546906D01*
X230143224Y-135536104D01*
X230062601Y-135514501D01*
X229937399Y-135514501D01*
X229856775Y-135536104D01*
X229816463Y-135546906D01*
X229708037Y-135609505D01*
X229708034Y-135609507D01*
X229619506Y-135698035D01*
X229619504Y-135698038D01*
X229556905Y-135806464D01*
X229556905Y-135806465D01*
X229524500Y-135927400D01*
X229275500Y-135927400D01*
X229243095Y-135806465D01*
X229180495Y-135698037D01*
X229091964Y-135609506D01*
X228983536Y-135546906D01*
X228983537Y-135546906D01*
X228943224Y-135536104D01*
X228862601Y-135514501D01*
X228737399Y-135514501D01*
X228656775Y-135536104D01*
X228616463Y-135546906D01*
X228508037Y-135609505D01*
X228508034Y-135609507D01*
X228419506Y-135698035D01*
X228419504Y-135698038D01*
X228356905Y-135806464D01*
X228356905Y-135806465D01*
X228324500Y-135927400D01*
X228075500Y-135927400D01*
X228043095Y-135806465D01*
X227980495Y-135698037D01*
X227891964Y-135609506D01*
X227783536Y-135546906D01*
X227783537Y-135546906D01*
X227743224Y-135536104D01*
X227662601Y-135514501D01*
X227537399Y-135514501D01*
X227456775Y-135536104D01*
X227416463Y-135546906D01*
X227308037Y-135609505D01*
X227308034Y-135609507D01*
X227219506Y-135698035D01*
X227219504Y-135698038D01*
X227156905Y-135806464D01*
X227156905Y-135806465D01*
X227124500Y-135927400D01*
X226875500Y-135927400D01*
X226843095Y-135806465D01*
X226780495Y-135698037D01*
X226691964Y-135609506D01*
X226583536Y-135546906D01*
X226583537Y-135546906D01*
X226543224Y-135536104D01*
X226462601Y-135514501D01*
X226337399Y-135514501D01*
X226256775Y-135536104D01*
X226216463Y-135546906D01*
X226108037Y-135609505D01*
X226108034Y-135609507D01*
X226019506Y-135698035D01*
X226019504Y-135698038D01*
X225956905Y-135806464D01*
X225956905Y-135806465D01*
X225924500Y-135927400D01*
X225675500Y-135927400D01*
X225643095Y-135806465D01*
X225580495Y-135698037D01*
X225491964Y-135609506D01*
X225383536Y-135546906D01*
X225383537Y-135546906D01*
X225343224Y-135536104D01*
X225262601Y-135514501D01*
X225137399Y-135514501D01*
X225056775Y-135536104D01*
X225016463Y-135546906D01*
X224908037Y-135609505D01*
X224908034Y-135609507D01*
X224819506Y-135698035D01*
X224819504Y-135698038D01*
X224756905Y-135806464D01*
X224756905Y-135806465D01*
X224724500Y-135927400D01*
X224475500Y-135927400D01*
X224443095Y-135806465D01*
X224380495Y-135698037D01*
X224291964Y-135609506D01*
X224183536Y-135546906D01*
X224183537Y-135546906D01*
X224143224Y-135536104D01*
X224062601Y-135514501D01*
X223937399Y-135514501D01*
X223856775Y-135536104D01*
X223816463Y-135546906D01*
X223708037Y-135609505D01*
X223708034Y-135609507D01*
X223619506Y-135698035D01*
X223619504Y-135698038D01*
X223556905Y-135806464D01*
X223556905Y-135806465D01*
X223524500Y-135927400D01*
X222210721Y-135927400D01*
X222291964Y-135880495D01*
X222380495Y-135791964D01*
X222443095Y-135683536D01*
X222475500Y-135562601D01*
X222475500Y-135437399D01*
X222443095Y-135316464D01*
X222380495Y-135208036D01*
X222291964Y-135119505D01*
X222291963Y-135119504D01*
X222270976Y-135107388D01*
X222222760Y-135056821D01*
X222209536Y-134988214D01*
X222235504Y-134923349D01*
X222270976Y-134892612D01*
X222291964Y-134880495D01*
X222380495Y-134791964D01*
X222443095Y-134683536D01*
X222475500Y-134562601D01*
X222475500Y-134437399D01*
X222443095Y-134316464D01*
X222380495Y-134208036D01*
X222291964Y-134119505D01*
X222183536Y-134056905D01*
X222183537Y-134056905D01*
X222143224Y-134046103D01*
X222062601Y-134024500D01*
X221937399Y-134024500D01*
X221856775Y-134046103D01*
X221816463Y-134056905D01*
X221708037Y-134119504D01*
X221708034Y-134119506D01*
X221637681Y-134189860D01*
X221576358Y-134223345D01*
X221506666Y-134218361D01*
X221462319Y-134189860D01*
X221391965Y-134119506D01*
X221391964Y-134119505D01*
X221283536Y-134056905D01*
X221283537Y-134056905D01*
X221243224Y-134046103D01*
X221162601Y-134024500D01*
X221037399Y-134024500D01*
X220956775Y-134046103D01*
X220916463Y-134056905D01*
X220808037Y-134119504D01*
X220808034Y-134119506D01*
X220737681Y-134189860D01*
X220676358Y-134223345D01*
X220606666Y-134218361D01*
X220562319Y-134189860D01*
X220491965Y-134119506D01*
X220491964Y-134119505D01*
X220383536Y-134056905D01*
X220383537Y-134056905D01*
X220343224Y-134046103D01*
X220262601Y-134024500D01*
X220137399Y-134024500D01*
X220056775Y-134046103D01*
X220016463Y-134056905D01*
X219908037Y-134119504D01*
X219908034Y-134119506D01*
X219837681Y-134189860D01*
X219776358Y-134223345D01*
X219706666Y-134218361D01*
X219662319Y-134189860D01*
X219591965Y-134119506D01*
X219591964Y-134119505D01*
X219483536Y-134056905D01*
X219483537Y-134056905D01*
X219443224Y-134046103D01*
X219362601Y-134024500D01*
X219237399Y-134024500D01*
X219156775Y-134046103D01*
X219116463Y-134056905D01*
X219008037Y-134119504D01*
X219008034Y-134119506D01*
X218937681Y-134189860D01*
X218876358Y-134223345D01*
X218806666Y-134218361D01*
X218762319Y-134189860D01*
X218691965Y-134119506D01*
X218691964Y-134119505D01*
X218583536Y-134056905D01*
X218583537Y-134056905D01*
X218543224Y-134046103D01*
X218462601Y-134024500D01*
X218337399Y-134024500D01*
X218256775Y-134046103D01*
X218216463Y-134056905D01*
X218108037Y-134119504D01*
X218108034Y-134119506D01*
X218019506Y-134208034D01*
X218019504Y-134208037D01*
X217956905Y-134316463D01*
X217956905Y-134316464D01*
X217924500Y-134437399D01*
X210975500Y-134437399D01*
X210975500Y-134337399D01*
X210943095Y-134216464D01*
X210880495Y-134108036D01*
X210791964Y-134019505D01*
X210683536Y-133956905D01*
X210683537Y-133956905D01*
X210643224Y-133946103D01*
X210562601Y-133924500D01*
X210437399Y-133924500D01*
X210356775Y-133946103D01*
X210316463Y-133956905D01*
X210208037Y-134019504D01*
X210208034Y-134019506D01*
X210137681Y-134089860D01*
X210076358Y-134123345D01*
X210006666Y-134118361D01*
X209962319Y-134089860D01*
X209891965Y-134019506D01*
X209891964Y-134019505D01*
X209783536Y-133956905D01*
X209783537Y-133956905D01*
X209743224Y-133946103D01*
X209662601Y-133924500D01*
X209537399Y-133924500D01*
X209456775Y-133946103D01*
X209416463Y-133956905D01*
X209308037Y-134019504D01*
X209308034Y-134019506D01*
X209237681Y-134089860D01*
X209176358Y-134123345D01*
X209106666Y-134118361D01*
X209062319Y-134089860D01*
X208991965Y-134019506D01*
X208991964Y-134019505D01*
X208883536Y-133956905D01*
X208883537Y-133956905D01*
X208843224Y-133946103D01*
X208762601Y-133924500D01*
X208637399Y-133924500D01*
X208556775Y-133946103D01*
X208516463Y-133956905D01*
X208408037Y-134019504D01*
X208408034Y-134019506D01*
X208337681Y-134089860D01*
X208276358Y-134123345D01*
X208206666Y-134118361D01*
X208162319Y-134089860D01*
X208091965Y-134019506D01*
X208091964Y-134019505D01*
X207983536Y-133956905D01*
X207983537Y-133956905D01*
X207943224Y-133946103D01*
X207862601Y-133924500D01*
X207737399Y-133924500D01*
X207656775Y-133946103D01*
X207616463Y-133956905D01*
X207508037Y-134019504D01*
X207508034Y-134019506D01*
X207437681Y-134089860D01*
X207376358Y-134123345D01*
X207306666Y-134118361D01*
X207262319Y-134089860D01*
X207191965Y-134019506D01*
X207191964Y-134019505D01*
X207083536Y-133956905D01*
X207083537Y-133956905D01*
X207043224Y-133946103D01*
X206962601Y-133924500D01*
X206837399Y-133924500D01*
X206756775Y-133946103D01*
X206716463Y-133956905D01*
X206608037Y-134019504D01*
X206608034Y-134019506D01*
X206519506Y-134108034D01*
X206519504Y-134108037D01*
X206456905Y-134216463D01*
X206455061Y-134223345D01*
X206424500Y-134337399D01*
X194279423Y-134337399D01*
X194263095Y-134276464D01*
X194200495Y-134168036D01*
X194111964Y-134079505D01*
X194003536Y-134016905D01*
X194003537Y-134016905D01*
X193963224Y-134006103D01*
X193882601Y-133984500D01*
X193757399Y-133984500D01*
X193676775Y-134006103D01*
X193636463Y-134016905D01*
X193528037Y-134079504D01*
X193528034Y-134079506D01*
X193439506Y-134168034D01*
X193439504Y-134168037D01*
X193376905Y-134276463D01*
X193376905Y-134276464D01*
X193344500Y-134397399D01*
X187500500Y-134397399D01*
X187500500Y-132237399D01*
X211969500Y-132237399D01*
X211969500Y-132362601D01*
X212001905Y-132483536D01*
X212064505Y-132591964D01*
X212153036Y-132680495D01*
X212261464Y-132743095D01*
X212382399Y-132775500D01*
X212382401Y-132775500D01*
X212507599Y-132775500D01*
X212507601Y-132775500D01*
X212628536Y-132743095D01*
X212736964Y-132680495D01*
X212825495Y-132591964D01*
X212888095Y-132483536D01*
X212920500Y-132362601D01*
X212920500Y-132237399D01*
X217819501Y-132237399D01*
X217819501Y-132362601D01*
X217851906Y-132483536D01*
X217914506Y-132591964D01*
X218003037Y-132680495D01*
X218111465Y-132743095D01*
X218232400Y-132775500D01*
X218232402Y-132775500D01*
X218357600Y-132775500D01*
X218357602Y-132775500D01*
X218478537Y-132743095D01*
X218586965Y-132680495D01*
X218675496Y-132591964D01*
X218738096Y-132483536D01*
X218770501Y-132362601D01*
X218770501Y-132237399D01*
X218738096Y-132116464D01*
X218675496Y-132008036D01*
X218586965Y-131919505D01*
X218478537Y-131856905D01*
X218478538Y-131856905D01*
X218438225Y-131846103D01*
X218357602Y-131824500D01*
X218232400Y-131824500D01*
X218151776Y-131846103D01*
X218111464Y-131856905D01*
X218003038Y-131919504D01*
X218003035Y-131919506D01*
X217914507Y-132008034D01*
X217914505Y-132008037D01*
X217851906Y-132116463D01*
X217851906Y-132116464D01*
X217819501Y-132237399D01*
X212920500Y-132237399D01*
X212888095Y-132116464D01*
X212825495Y-132008036D01*
X212736964Y-131919505D01*
X212628536Y-131856905D01*
X212628537Y-131856905D01*
X212588224Y-131846103D01*
X212507601Y-131824500D01*
X212382399Y-131824500D01*
X212301775Y-131846103D01*
X212261463Y-131856905D01*
X212153037Y-131919504D01*
X212153034Y-131919506D01*
X212064506Y-132008034D01*
X212064504Y-132008037D01*
X212001905Y-132116463D01*
X212001905Y-132116464D01*
X211969500Y-132237399D01*
X187500500Y-132237399D01*
X187500500Y-131387399D01*
X205699500Y-131387399D01*
X205699500Y-131512601D01*
X205731905Y-131633536D01*
X205794505Y-131741964D01*
X205883036Y-131830495D01*
X205991464Y-131893095D01*
X206112399Y-131925500D01*
X206112401Y-131925500D01*
X206237599Y-131925500D01*
X206237601Y-131925500D01*
X206358536Y-131893095D01*
X206466964Y-131830495D01*
X206555495Y-131741964D01*
X206618095Y-131633536D01*
X206650500Y-131512601D01*
X206650500Y-131387399D01*
X206618095Y-131266464D01*
X206555495Y-131158036D01*
X206466964Y-131069505D01*
X206358536Y-131006905D01*
X206358537Y-131006905D01*
X206318224Y-130996103D01*
X206237601Y-130974500D01*
X206112399Y-130974500D01*
X206031775Y-130996103D01*
X205991463Y-131006905D01*
X205883037Y-131069504D01*
X205883034Y-131069506D01*
X205794506Y-131158034D01*
X205794504Y-131158037D01*
X205731905Y-131266463D01*
X205731905Y-131266464D01*
X205699500Y-131387399D01*
X187500500Y-131387399D01*
X187500500Y-128865602D01*
X189449500Y-128865602D01*
X189449500Y-129134397D01*
X189484582Y-129400880D01*
X189484583Y-129400885D01*
X189484584Y-129400891D01*
X189484585Y-129400893D01*
X189554152Y-129660524D01*
X189657011Y-129908850D01*
X189657019Y-129908866D01*
X189737830Y-130048832D01*
X189791413Y-130141641D01*
X189791415Y-130141644D01*
X189791416Y-130141645D01*
X189955042Y-130354888D01*
X189955048Y-130354895D01*
X190145104Y-130544951D01*
X190145110Y-130544956D01*
X190358359Y-130708587D01*
X190507968Y-130794964D01*
X190591133Y-130842980D01*
X190591149Y-130842988D01*
X190746008Y-130907132D01*
X190839474Y-130945847D01*
X191099109Y-131015416D01*
X191287319Y-131040193D01*
X191365602Y-131050500D01*
X191365603Y-131050500D01*
X191634398Y-131050500D01*
X191694905Y-131042534D01*
X191900891Y-131015416D01*
X192160526Y-130945847D01*
X192347457Y-130868417D01*
X192408850Y-130842988D01*
X192408853Y-130842986D01*
X192408859Y-130842984D01*
X192641641Y-130708587D01*
X192854890Y-130544956D01*
X193044956Y-130354890D01*
X193208587Y-130141641D01*
X193342984Y-129908859D01*
X193445847Y-129660526D01*
X193515416Y-129400891D01*
X193550500Y-129134397D01*
X193550500Y-128865603D01*
X193550500Y-128865602D01*
X226449500Y-128865602D01*
X226449500Y-129134397D01*
X226484582Y-129400880D01*
X226484583Y-129400885D01*
X226484584Y-129400891D01*
X226484585Y-129400893D01*
X226554152Y-129660524D01*
X226657011Y-129908850D01*
X226657019Y-129908866D01*
X226737830Y-130048832D01*
X226791413Y-130141641D01*
X226791415Y-130141644D01*
X226791416Y-130141645D01*
X226955042Y-130354888D01*
X226955048Y-130354895D01*
X227145104Y-130544951D01*
X227145110Y-130544956D01*
X227358359Y-130708587D01*
X227507968Y-130794964D01*
X227591133Y-130842980D01*
X227591149Y-130842988D01*
X227746008Y-130907132D01*
X227839474Y-130945847D01*
X228099109Y-131015416D01*
X228287319Y-131040193D01*
X228365602Y-131050500D01*
X228365603Y-131050500D01*
X228634398Y-131050500D01*
X228694905Y-131042534D01*
X228900891Y-131015416D01*
X229160526Y-130945847D01*
X229347457Y-130868417D01*
X229408850Y-130842988D01*
X229408853Y-130842986D01*
X229408859Y-130842984D01*
X229641641Y-130708587D01*
X229854890Y-130544956D01*
X230044956Y-130354890D01*
X230208587Y-130141641D01*
X230342984Y-129908859D01*
X230445847Y-129660526D01*
X230515416Y-129400891D01*
X230550500Y-129134397D01*
X230550500Y-128865603D01*
X230515416Y-128599109D01*
X230445847Y-128339474D01*
X230371044Y-128158884D01*
X230342988Y-128091149D01*
X230342980Y-128091133D01*
X230263704Y-127953825D01*
X230208587Y-127858359D01*
X230044956Y-127645110D01*
X230044951Y-127645104D01*
X229854895Y-127455048D01*
X229854888Y-127455042D01*
X229641645Y-127291416D01*
X229641644Y-127291415D01*
X229641641Y-127291413D01*
X229548832Y-127237830D01*
X229408866Y-127157019D01*
X229408850Y-127157011D01*
X229160524Y-127054152D01*
X229019951Y-127016486D01*
X228900891Y-126984584D01*
X228900885Y-126984583D01*
X228900880Y-126984582D01*
X228634398Y-126949500D01*
X228634397Y-126949500D01*
X228365603Y-126949500D01*
X228365602Y-126949500D01*
X228099119Y-126984582D01*
X228099112Y-126984583D01*
X228099109Y-126984584D01*
X228044239Y-126999286D01*
X227839475Y-127054152D01*
X227591149Y-127157011D01*
X227591133Y-127157019D01*
X227358354Y-127291416D01*
X227145111Y-127455042D01*
X227145104Y-127455048D01*
X226955048Y-127645104D01*
X226955042Y-127645111D01*
X226791416Y-127858354D01*
X226657019Y-128091133D01*
X226657011Y-128091149D01*
X226554152Y-128339475D01*
X226484585Y-128599106D01*
X226484582Y-128599119D01*
X226449500Y-128865602D01*
X193550500Y-128865602D01*
X193515416Y-128599109D01*
X193445847Y-128339474D01*
X193371044Y-128158884D01*
X193342988Y-128091149D01*
X193342980Y-128091133D01*
X193263704Y-127953825D01*
X193208587Y-127858359D01*
X193044956Y-127645110D01*
X193044951Y-127645104D01*
X192854895Y-127455048D01*
X192854888Y-127455042D01*
X192641645Y-127291416D01*
X192641644Y-127291415D01*
X192641641Y-127291413D01*
X192548832Y-127237830D01*
X192408866Y-127157019D01*
X192408850Y-127157011D01*
X192160524Y-127054152D01*
X192092840Y-127036016D01*
X191900891Y-126984584D01*
X191900885Y-126984583D01*
X191900880Y-126984582D01*
X191634398Y-126949500D01*
X191634397Y-126949500D01*
X191365603Y-126949500D01*
X191365602Y-126949500D01*
X191099119Y-126984582D01*
X191099112Y-126984583D01*
X191099109Y-126984584D01*
X191044239Y-126999286D01*
X190839475Y-127054152D01*
X190591149Y-127157011D01*
X190591133Y-127157019D01*
X190358354Y-127291416D01*
X190145111Y-127455042D01*
X190145104Y-127455048D01*
X189955048Y-127645104D01*
X189955042Y-127645111D01*
X189791416Y-127858354D01*
X189657019Y-128091133D01*
X189657011Y-128091149D01*
X189554152Y-128339475D01*
X189484585Y-128599106D01*
X189484582Y-128599119D01*
X189449500Y-128865602D01*
X187500500Y-128865602D01*
X187500500Y-126901577D01*
X195649500Y-126901577D01*
X195649500Y-127098422D01*
X195680290Y-127292826D01*
X195741117Y-127480029D01*
X195825227Y-127645104D01*
X195830476Y-127655405D01*
X195946172Y-127814646D01*
X196085354Y-127953828D01*
X196244595Y-128069524D01*
X196287021Y-128091141D01*
X196419970Y-128158882D01*
X196419972Y-128158882D01*
X196419975Y-128158884D01*
X196520317Y-128191487D01*
X196607173Y-128219709D01*
X196801578Y-128250500D01*
X196801583Y-128250500D01*
X196998422Y-128250500D01*
X197192826Y-128219709D01*
X197380025Y-128158884D01*
X197555405Y-128069524D01*
X197714646Y-127953828D01*
X197853828Y-127814646D01*
X197969524Y-127655405D01*
X198058884Y-127480025D01*
X198119709Y-127292826D01*
X198119933Y-127291413D01*
X198150500Y-127098422D01*
X198150500Y-126901577D01*
X198119709Y-126707173D01*
X198058882Y-126519970D01*
X197969523Y-126344594D01*
X197853828Y-126185354D01*
X197714646Y-126046172D01*
X197555405Y-125930476D01*
X197380029Y-125841117D01*
X197192826Y-125780290D01*
X196998422Y-125749500D01*
X196998417Y-125749500D01*
X196801583Y-125749500D01*
X196801578Y-125749500D01*
X196607173Y-125780290D01*
X196419970Y-125841117D01*
X196244594Y-125930476D01*
X196153741Y-125996485D01*
X196085354Y-126046172D01*
X196085352Y-126046174D01*
X196085351Y-126046174D01*
X195946174Y-126185351D01*
X195946174Y-126185352D01*
X195946172Y-126185354D01*
X195896485Y-126253741D01*
X195830476Y-126344594D01*
X195741117Y-126519970D01*
X195680290Y-126707173D01*
X195649500Y-126901577D01*
X187500500Y-126901577D01*
X187500500Y-125504066D01*
X187500765Y-125495957D01*
X187500858Y-125494536D01*
X187515681Y-125268378D01*
X187516670Y-125258911D01*
X187524090Y-125207308D01*
X187525193Y-125200868D01*
X187564312Y-125004200D01*
X187566938Y-124993513D01*
X187579361Y-124951205D01*
X187580877Y-124946412D01*
X187648231Y-124747996D01*
X187652834Y-124736397D01*
X187663477Y-124713093D01*
X187664987Y-124709913D01*
X187764790Y-124507533D01*
X187772893Y-124493498D01*
X187909182Y-124289527D01*
X187919039Y-124276681D01*
X188080786Y-124092244D01*
X188092244Y-124080786D01*
X188276681Y-123919039D01*
X188289527Y-123909182D01*
X188493498Y-123772893D01*
X188507533Y-123764790D01*
X188709913Y-123664987D01*
X188713093Y-123663477D01*
X188736397Y-123652834D01*
X188747996Y-123648231D01*
X188946412Y-123580877D01*
X188951205Y-123579361D01*
X188993513Y-123566938D01*
X189004200Y-123564312D01*
X189200868Y-123525193D01*
X189207308Y-123524090D01*
X189258911Y-123516670D01*
X189268378Y-123515681D01*
X189483057Y-123501610D01*
X189495958Y-123500765D01*
X189504067Y-123500500D01*
X230495933Y-123500500D01*
X230504042Y-123500765D01*
G37*
%TD.AperFunction*%
%TD*%
M02*
