%TF.GenerationSoftware,KiCad,Pcbnew,9.0.3*%
%TF.CreationDate,2025-07-31T21:13:17-04:00*%
%TF.ProjectId,motor-controller,6d6f746f-722d-4636-9f6e-74726f6c6c65,1*%
%TF.SameCoordinates,Original*%
%TF.FileFunction,Copper,L5,Inr*%
%TF.FilePolarity,Positive*%
%FSLAX46Y46*%
G04 Gerber Fmt 4.6, Leading zero omitted, Abs format (unit mm)*
G04 Created by KiCad (PCBNEW 9.0.3) date 2025-07-31 21:13:17*
%MOMM*%
%LPD*%
G01*
G04 APERTURE LIST*
%TA.AperFunction,ComponentPad*%
%ADD10C,3.600000*%
%TD*%
%TA.AperFunction,ViaPad*%
%ADD11C,0.450000*%
%TD*%
%TA.AperFunction,ViaPad*%
%ADD12C,2.000000*%
%TD*%
%TA.AperFunction,Conductor*%
%ADD13C,0.200000*%
%TD*%
%TA.AperFunction,Conductor*%
%ADD14C,0.153000*%
%TD*%
G04 APERTURE END LIST*
D10*
%TO.N,N/C*%
%TO.C,H2*%
X228500000Y-129000000D03*
%TD*%
%TO.N,N/C*%
%TO.C,H1*%
X191500000Y-129000000D03*
%TD*%
%TO.N,N/C*%
%TO.C,H3*%
X191500000Y-165500000D03*
%TD*%
%TO.N,N/C*%
%TO.C,H4*%
X228500000Y-165500000D03*
%TD*%
D11*
%TO.N,/motor_driver/MOTOR_{U}*%
X212700000Y-138000000D03*
X213600000Y-138000000D03*
X216300000Y-136900000D03*
X212700000Y-136900000D03*
X215400000Y-138000000D03*
X215400000Y-136900000D03*
X216300000Y-138000000D03*
X214500000Y-136900000D03*
X228520000Y-143900000D03*
X213600000Y-136900000D03*
X214500000Y-138000000D03*
D12*
%TO.N,GND*%
X223500000Y-165500000D03*
D11*
X227900000Y-149100000D03*
X216750000Y-167575000D03*
X222900000Y-148350000D03*
X220500000Y-150169999D03*
X189940000Y-148000000D03*
X204650000Y-164550000D03*
X227000000Y-149100000D03*
X227000000Y-150000000D03*
X231350000Y-149850000D03*
X189150000Y-154800000D03*
X227900000Y-150000000D03*
X231750000Y-153230000D03*
X189150000Y-158200000D03*
X204650000Y-163550000D03*
X220850000Y-143490000D03*
X207750000Y-165590001D03*
X224250000Y-153750000D03*
X226100000Y-148200000D03*
X229250000Y-151270000D03*
X227900000Y-148200000D03*
X205500000Y-164550000D03*
X189940000Y-146000000D03*
X212720000Y-154500000D03*
X203600000Y-126600000D03*
X206400000Y-163550000D03*
X203600000Y-125400000D03*
X229950000Y-157900000D03*
X193000001Y-149000000D03*
X205500000Y-163550000D03*
X206400000Y-164550000D03*
X190180000Y-134460000D03*
X189100000Y-152700000D03*
X216625000Y-147100000D03*
X189125000Y-160300000D03*
X223000000Y-160480000D03*
X189150000Y-156500000D03*
X215350000Y-155800001D03*
X227250000Y-151270000D03*
X215680000Y-154500000D03*
X227000000Y-148200000D03*
X219800000Y-143520000D03*
X204700000Y-125400000D03*
X221700000Y-147550000D03*
X190180000Y-138270000D03*
X193000001Y-154000000D03*
X189100000Y-142700000D03*
X206100000Y-148650000D03*
X204700000Y-126600000D03*
X222700000Y-157687500D03*
X221900000Y-160199999D03*
X189100000Y-150300000D03*
X190200000Y-137000000D03*
X228250000Y-151270000D03*
X216000000Y-159930000D03*
X226850000Y-156900000D03*
X226100000Y-150000000D03*
X231000000Y-155500000D03*
X226100000Y-149100000D03*
X219350000Y-150140001D03*
X225150000Y-159100000D03*
D12*
%TO.N,+BATT*%
X196900000Y-127000000D03*
D11*
X219350000Y-153159999D03*
X197825000Y-156950000D03*
X229200000Y-159150000D03*
%TO.N,+3V0*%
X225230000Y-153750000D03*
X220725000Y-145540001D03*
X218750000Y-155875001D03*
X218725000Y-143490001D03*
D12*
X223500000Y-163000000D03*
D11*
%TO.N,/motor_driver/MOTOR_{V}*%
X220200000Y-135500000D03*
X222000000Y-135500000D03*
X221100000Y-135500000D03*
X219300000Y-135500000D03*
X218400000Y-135500000D03*
X221100000Y-134500000D03*
X218400000Y-134500000D03*
X220200000Y-134500000D03*
X222000000Y-134500000D03*
X226520000Y-143900000D03*
X219300000Y-134500000D03*
%TO.N,/motor_driver/MOTOR_{W}*%
X210500000Y-135500000D03*
X207800000Y-135500000D03*
X224520000Y-143900000D03*
X209600000Y-134400000D03*
X206900000Y-135500000D03*
X206900000Y-134400000D03*
X207800000Y-134400000D03*
X208700000Y-135500000D03*
X210500000Y-134400000D03*
X209600000Y-135500000D03*
X208700000Y-134400000D03*
%TO.N,Net-(U1E-OC_COMP)*%
X220825000Y-144525000D03*
%TO.N,/motor_driver/NRST*%
X226750000Y-153250000D03*
X223000000Y-159520000D03*
X193820000Y-134460000D03*
X219250000Y-154375000D03*
%TO.N,/motor_driver/OSC32_N*%
X229250000Y-153250000D03*
%TO.N,/motor_driver/OSC32_P*%
X229750000Y-154000000D03*
%TO.N,/motor_driver/OSC_N*%
X227750000Y-153250000D03*
%TO.N,/motor_driver/OSC_P*%
X228250000Y-154000000D03*
%TO.N,Net-(D1B-K)*%
X228200000Y-144900000D03*
X228800000Y-141590001D03*
%TO.N,Net-(D2B-K)*%
X225800000Y-144900000D03*
X225200000Y-141590001D03*
%TO.N,+3V3*%
X189940001Y-145000000D03*
X231750000Y-152270000D03*
X217525000Y-147100000D03*
X210750000Y-165590001D03*
X190180000Y-139540000D03*
X193000001Y-159000000D03*
X212950000Y-157575000D03*
X194859999Y-158000000D03*
X218250000Y-162150000D03*
X218250000Y-161300000D03*
X218250000Y-160500000D03*
D12*
X223500000Y-168000000D03*
D11*
X193000001Y-144000000D03*
%TO.N,/motor_driver/VEL_ENC_{~{DET}}*%
X222650000Y-150350000D03*
X193000000Y-158000000D03*
%TO.N,/encoder/VEL_ENC.B*%
X222650000Y-149350000D03*
X193000000Y-156000000D03*
%TO.N,/encoder/VEL_ENC.A*%
X222000000Y-149850000D03*
X193000000Y-157000000D03*
%TO.N,/encoder/VEL_ENC.Z*%
X231350000Y-150850000D03*
X193000000Y-155000000D03*
%TO.N,/encoder/MOSI*%
X193000000Y-148000000D03*
X209150000Y-147100000D03*
%TO.N,/encoder/SCK*%
X208350000Y-147100000D03*
X193000000Y-146000000D03*
%TO.N,/encoder/MISO*%
X193000000Y-147000000D03*
X206100000Y-147350000D03*
%TO.N,/encoder/CSn*%
X206100000Y-146050000D03*
X193000000Y-145000000D03*
%TO.N,/BOOT_UART.RST*%
X220800000Y-160209999D03*
X209250000Y-167575000D03*
%TO.N,Net-(Q1-G)*%
X212445000Y-132300000D03*
X228800000Y-142609999D03*
X228800000Y-135990001D03*
%TO.N,Net-(Q2-G)*%
X230000000Y-135990001D03*
X230000000Y-142609999D03*
X212495001Y-139900000D03*
%TO.N,Net-(Q3-G)*%
X218295001Y-132300000D03*
X226400000Y-142609999D03*
X226400000Y-135990001D03*
%TO.N,/motor_driver/LED_{WARN}*%
X232000000Y-150350000D03*
%TO.N,Net-(Q4-G)*%
X227600000Y-142609999D03*
X218295001Y-139900000D03*
X227600000Y-135990001D03*
%TO.N,Net-(Q5-G)*%
X206175000Y-131450000D03*
X224000000Y-142609999D03*
X224000000Y-135990001D03*
%TO.N,Net-(Q6-G)*%
X206695001Y-139900000D03*
X225200000Y-142609999D03*
X225200000Y-135990001D03*
%TO.N,/motor_driver/LED_{FW_READY}*%
X231350000Y-148350000D03*
%TO.N,/motor_driver/LED_{ERROR}*%
X232000000Y-147850000D03*
%TO.N,/motor_driver/HALL_{1}*%
X222250000Y-153153500D03*
X206800000Y-142550000D03*
%TO.N,/motor_driver/HALL_{2}*%
X221750000Y-152525000D03*
X207300000Y-143500000D03*
%TO.N,/motor_driver/HALL_{3}*%
X206250000Y-141500000D03*
X222200000Y-151850000D03*
%TO.N,/BOOT_UART.RX*%
X210750000Y-167575000D03*
X231350000Y-147350000D03*
%TO.N,Net-(J5-Pin_8)*%
X212250000Y-167575000D03*
%TO.N,/BOOT_UART.BOOT0*%
X207750000Y-167575000D03*
X232000000Y-148850000D03*
%TO.N,/motor_driver/SWCLK*%
X213259999Y-161850000D03*
X193820000Y-138270000D03*
X232000000Y-146850000D03*
%TO.N,Net-(D7-A1)*%
X218250000Y-166750000D03*
X218250000Y-168400000D03*
X218250000Y-167575000D03*
%TO.N,/motor_driver/SWDIO*%
X193820000Y-139540000D03*
X231350000Y-146350000D03*
%TD*%
D13*
%TO.N,/motor_driver/MOTOR_{U}*%
X227950000Y-143900000D02*
X227300000Y-144550000D01*
X226277000Y-144550000D02*
X225800000Y-144073000D01*
X224010448Y-138698000D02*
X216998000Y-138698000D01*
X225800000Y-144073000D02*
X225800000Y-140487552D01*
X225800000Y-140487552D02*
X224010448Y-138698000D01*
X228520000Y-143900000D02*
X227950000Y-143900000D01*
X227300000Y-144550000D02*
X226277000Y-144550000D01*
X216998000Y-138698000D02*
X216300000Y-138000000D01*
%TO.N,/motor_driver/MOTOR_{V}*%
X224145896Y-138371000D02*
X223021000Y-138371000D01*
X226975000Y-141200104D02*
X224145896Y-138371000D01*
X223021000Y-138371000D02*
X222000000Y-137350000D01*
X222000000Y-137350000D02*
X222000000Y-135500000D01*
X226520000Y-143900000D02*
X226975000Y-143445000D01*
X226975000Y-143445000D02*
X226975000Y-141200104D01*
%TO.N,/motor_driver/MOTOR_{W}*%
X223496000Y-139746000D02*
X222775000Y-139025000D01*
X223496000Y-142876000D02*
X223496000Y-139746000D01*
X224520000Y-143900000D02*
X223496000Y-142876000D01*
X222775000Y-139025000D02*
X211600000Y-139025000D01*
X211600000Y-139025000D02*
X210500000Y-137925000D01*
X210500000Y-137925000D02*
X210500000Y-135500000D01*
D14*
%TO.N,/motor_driver/NRST*%
X207869500Y-147299030D02*
X207869500Y-145257440D01*
X197072060Y-134460000D02*
X193820000Y-134460000D01*
X207869500Y-145257440D02*
X197072060Y-134460000D01*
X212150000Y-149550000D02*
X210120470Y-149550000D01*
X210120470Y-149550000D02*
X207869500Y-147299030D01*
X219250000Y-154375000D02*
X216975000Y-154375000D01*
X216975000Y-154375000D02*
X212150000Y-149550000D01*
D13*
%TO.N,Net-(D1B-K)*%
X228800000Y-141590001D02*
X229304000Y-142094001D01*
X229304000Y-144096000D02*
X228500000Y-144900000D01*
X229304000Y-142094001D02*
X229304000Y-144096000D01*
X228500000Y-144900000D02*
X228200000Y-144900000D01*
%TO.N,Net-(D2B-K)*%
X224504000Y-142286001D02*
X224504000Y-143029000D01*
X224504000Y-143029000D02*
X225473000Y-143998000D01*
X225473000Y-144573000D02*
X225800000Y-144900000D01*
X225473000Y-143998000D02*
X225473000Y-144573000D01*
X225200000Y-141590001D02*
X224504000Y-142286001D01*
D14*
%TO.N,/BOOT_UART.RST*%
X214050000Y-163901414D02*
X218001414Y-159950000D01*
X209875000Y-168200000D02*
X212600000Y-168200000D01*
X214050000Y-166750000D02*
X214050000Y-163901414D01*
X212600000Y-168200000D02*
X214050000Y-166750000D01*
X220800000Y-160200000D02*
X220800000Y-160209999D01*
X218001414Y-159950000D02*
X220550000Y-159950000D01*
X209250000Y-167575000D02*
X209875000Y-168200000D01*
X220550000Y-159950000D02*
X220800000Y-160200000D01*
%TO.N,/motor_driver/HALL_{1}*%
X206800000Y-143791960D02*
X216658040Y-153650000D01*
X221753500Y-153650000D02*
X222250000Y-153153500D01*
X216658040Y-153650000D02*
X221753500Y-153650000D01*
X206800000Y-142550000D02*
X206800000Y-143791960D01*
%TO.N,/motor_driver/HALL_{2}*%
X215929020Y-152525000D02*
X221750000Y-152525000D01*
X207300000Y-143500000D02*
X207300000Y-143895980D01*
X207300000Y-143895980D02*
X215929020Y-152525000D01*
%TO.N,/motor_driver/HALL_{3}*%
X215650000Y-151850000D02*
X222200000Y-151850000D01*
X206250000Y-141500000D02*
X206700000Y-141500000D01*
X207800000Y-142600000D02*
X207800000Y-144000000D01*
X206700000Y-141500000D02*
X207800000Y-142600000D01*
X207800000Y-144000000D02*
X215650000Y-151850000D01*
%TO.N,/BOOT_UART.RX*%
X225300000Y-148320470D02*
X225300000Y-151500000D01*
X231350000Y-147350000D02*
X226270470Y-147350000D01*
X223420000Y-154134020D02*
X210750000Y-166804020D01*
X223420000Y-153380000D02*
X223420000Y-154134020D01*
X225300000Y-151500000D02*
X223420000Y-153380000D01*
X210750000Y-166804020D02*
X210750000Y-167575000D01*
X226270470Y-147350000D02*
X225300000Y-148320470D01*
%TO.N,/BOOT_UART.BOOT0*%
X212800000Y-168650000D02*
X208825000Y-168650000D01*
X208825000Y-168650000D02*
X207750000Y-167575000D01*
X232000000Y-148850000D02*
X230850000Y-148850000D01*
X217625000Y-166675000D02*
X214775000Y-166675000D01*
X223700000Y-160600000D02*
X217625000Y-166675000D01*
X230850000Y-148850000D02*
X229200000Y-150500000D01*
X226695980Y-150500000D02*
X223700000Y-153495980D01*
X223700000Y-153495980D02*
X223700000Y-160600000D01*
X229200000Y-150500000D02*
X226695980Y-150500000D01*
X214775000Y-166675000D02*
X212800000Y-168650000D01*
%TO.N,/motor_driver/SWCLK*%
X225020000Y-148204490D02*
X225020000Y-151384020D01*
X223140000Y-154018040D02*
X215308040Y-161850000D01*
X215308040Y-161850000D02*
X213259999Y-161850000D01*
X232000000Y-146850000D02*
X226374490Y-146850000D01*
X223140000Y-153264020D02*
X223140000Y-154018040D01*
X225020000Y-151384020D02*
X223140000Y-153264020D01*
X226374490Y-146850000D02*
X225020000Y-148204490D01*
%TD*%
M02*
