%TF.GenerationSoftware,KiCad,Pcbnew,8.0.7*%
%TF.CreationDate,2025-04-07T22:13:35-04:00*%
%TF.ProjectId,motor-controller,6d6f746f-722d-4636-9f6e-74726f6c6c65,1*%
%TF.SameCoordinates,Original*%
%TF.FileFunction,Paste,Bot*%
%TF.FilePolarity,Positive*%
%FSLAX46Y46*%
G04 Gerber Fmt 4.6, Leading zero omitted, Abs format (unit mm)*
G04 Created by KiCad (PCBNEW 8.0.7) date 2025-04-07 22:13:35*
%MOMM*%
%LPD*%
G01*
G04 APERTURE LIST*
G04 Aperture macros list*
%AMRoundRect*
0 Rectangle with rounded corners*
0 $1 Rounding radius*
0 $2 $3 $4 $5 $6 $7 $8 $9 X,Y pos of 4 corners*
0 Add a 4 corners polygon primitive as box body*
4,1,4,$2,$3,$4,$5,$6,$7,$8,$9,$2,$3,0*
0 Add four circle primitives for the rounded corners*
1,1,$1+$1,$2,$3*
1,1,$1+$1,$4,$5*
1,1,$1+$1,$6,$7*
1,1,$1+$1,$8,$9*
0 Add four rect primitives between the rounded corners*
20,1,$1+$1,$2,$3,$4,$5,0*
20,1,$1+$1,$4,$5,$6,$7,0*
20,1,$1+$1,$6,$7,$8,$9,0*
20,1,$1+$1,$8,$9,$2,$3,0*%
G04 Aperture macros list end*
%ADD10RoundRect,0.140000X-0.170000X0.140000X-0.170000X-0.140000X0.170000X-0.140000X0.170000X0.140000X0*%
%ADD11R,2.200000X0.800000*%
%ADD12RoundRect,0.200000X-0.200000X-1.250000X0.200000X-1.250000X0.200000X1.250000X-0.200000X1.250000X0*%
%ADD13RoundRect,0.250000X-0.650000X-1.650000X0.650000X-1.650000X0.650000X1.650000X-0.650000X1.650000X0*%
%ADD14RoundRect,0.135000X0.185000X-0.135000X0.185000X0.135000X-0.185000X0.135000X-0.185000X-0.135000X0*%
%ADD15R,0.650000X1.150000*%
%ADD16R,4.600000X4.650000*%
%ADD17RoundRect,0.250000X-1.500000X-0.550000X1.500000X-0.550000X1.500000X0.550000X-1.500000X0.550000X0*%
%ADD18RoundRect,0.250000X-0.325000X-0.650000X0.325000X-0.650000X0.325000X0.650000X-0.325000X0.650000X0*%
%ADD19RoundRect,0.140000X0.140000X0.170000X-0.140000X0.170000X-0.140000X-0.170000X0.140000X-0.170000X0*%
%ADD20RoundRect,0.250001X-0.624999X0.462499X-0.624999X-0.462499X0.624999X-0.462499X0.624999X0.462499X0*%
%ADD21RoundRect,0.150000X0.625000X-0.150000X0.625000X0.150000X-0.625000X0.150000X-0.625000X-0.150000X0*%
%ADD22RoundRect,0.250000X0.650000X-0.350000X0.650000X0.350000X-0.650000X0.350000X-0.650000X-0.350000X0*%
%ADD23RoundRect,0.135000X-0.135000X-0.185000X0.135000X-0.185000X0.135000X0.185000X-0.135000X0.185000X0*%
%ADD24RoundRect,0.135000X-0.185000X0.135000X-0.185000X-0.135000X0.185000X-0.135000X0.185000X0.135000X0*%
%ADD25RoundRect,0.140000X0.170000X-0.140000X0.170000X0.140000X-0.170000X0.140000X-0.170000X-0.140000X0*%
%ADD26R,2.500000X2.300000*%
%ADD27R,1.200000X3.400000*%
%ADD28R,0.600000X3.400000*%
%ADD29RoundRect,0.100000X-0.100000X0.225000X-0.100000X-0.225000X0.100000X-0.225000X0.100000X0.225000X0*%
%ADD30R,0.300000X0.850000*%
%ADD31R,0.850000X0.300000*%
%ADD32R,2.800000X2.800000*%
%ADD33RoundRect,0.250000X0.325000X0.650000X-0.325000X0.650000X-0.325000X-0.650000X0.325000X-0.650000X0*%
G04 APERTURE END LIST*
D10*
%TO.C,C4*%
X231750000Y-152270000D03*
X231750000Y-153230000D03*
%TD*%
D11*
%TO.C,J6*%
X190180000Y-139540000D03*
X193820000Y-139540000D03*
X190180000Y-138270000D03*
X193820000Y-138270000D03*
X190180000Y-137000000D03*
X193820000Y-137000000D03*
X190180000Y-135730000D03*
X193820000Y-135730000D03*
X190180000Y-134460000D03*
X193820000Y-134460000D03*
%TD*%
D12*
%TO.C,J5*%
X201750000Y-167575000D03*
X203250000Y-167575000D03*
X204750000Y-167575000D03*
X206250000Y-167575000D03*
X207750000Y-167575000D03*
X209250000Y-167575000D03*
X210750000Y-167575000D03*
X212250000Y-167575000D03*
X213750000Y-167575000D03*
X215250000Y-167575000D03*
X216750000Y-167575000D03*
X218250000Y-167575000D03*
D13*
X199150000Y-162875000D03*
X220850000Y-162875000D03*
%TD*%
D14*
%TO.C,R38*%
X219350000Y-151159999D03*
X219350000Y-150140001D03*
%TD*%
D15*
%TO.C,Q3*%
X222104999Y-132300000D03*
X220835000Y-132300000D03*
X219565000Y-132300000D03*
X218295001Y-132300000D03*
D16*
X220200000Y-128600000D03*
%TD*%
D14*
%TO.C,R17*%
X219350000Y-153159999D03*
X219350000Y-152140001D03*
%TD*%
D15*
%TO.C,Q5*%
X210504999Y-132300000D03*
X209235000Y-132300000D03*
X207965000Y-132300000D03*
X206695001Y-132300000D03*
D16*
X208600000Y-128600000D03*
%TD*%
D17*
%TO.C,C23*%
X198400000Y-139400000D03*
X203800000Y-139400000D03*
%TD*%
D18*
%TO.C,C8*%
X228024999Y-155500000D03*
X230975001Y-155500000D03*
%TD*%
D15*
%TO.C,Q1*%
X216254998Y-132300000D03*
X214984999Y-132300000D03*
X213714999Y-132300000D03*
X212445000Y-132300000D03*
D16*
X214349999Y-128600000D03*
%TD*%
D19*
%TO.C,C7*%
X227480000Y-143900000D03*
X226520000Y-143900000D03*
%TD*%
D14*
%TO.C,R14*%
X225200000Y-137009999D03*
X225200000Y-135990001D03*
%TD*%
%TO.C,R10*%
X227600000Y-137009999D03*
X227600000Y-135990001D03*
%TD*%
D20*
%TO.C,F2*%
X196550000Y-156362500D03*
X196550000Y-159337500D03*
%TD*%
D21*
%TO.C,J1*%
X193000001Y-159000000D03*
X193000000Y-158000000D03*
X193000000Y-157000000D03*
X193000000Y-156000000D03*
X193000000Y-155000000D03*
X193000001Y-154000000D03*
D22*
X189125000Y-160300000D03*
X189125000Y-152700000D03*
%TD*%
D23*
%TO.C,R22*%
X218690001Y-145525000D03*
X219709999Y-145525000D03*
%TD*%
D24*
%TO.C,R9*%
X227600000Y-141590001D03*
X227600000Y-142609999D03*
%TD*%
%TO.C,R21*%
X218725000Y-143490001D03*
X218725000Y-144509999D03*
%TD*%
D15*
%TO.C,Q4*%
X222104999Y-139900000D03*
X220835000Y-139900000D03*
X219565000Y-139900000D03*
X218295001Y-139900000D03*
D16*
X220200000Y-136200000D03*
%TD*%
D25*
%TO.C,C11*%
X220500000Y-151129999D03*
X220500000Y-150169999D03*
%TD*%
D24*
%TO.C,R12*%
X224000000Y-141590001D03*
X224000000Y-142609999D03*
%TD*%
D21*
%TO.C,J3*%
X193000001Y-149000000D03*
X193000000Y-148000000D03*
X193000000Y-147000000D03*
X193000000Y-146000000D03*
X193000000Y-145000000D03*
X193000001Y-144000000D03*
D22*
X189125000Y-150300000D03*
X189125000Y-142700000D03*
%TD*%
D26*
%TO.C,D6*%
X204150001Y-126000000D03*
X199849999Y-126000000D03*
%TD*%
D24*
%TO.C,R23*%
X220725000Y-145540001D03*
X220725000Y-146559999D03*
%TD*%
D17*
%TO.C,C22*%
X198400000Y-132100000D03*
X203800000Y-132100000D03*
%TD*%
D19*
%TO.C,C9*%
X225480000Y-143900000D03*
X224520000Y-143900000D03*
%TD*%
D14*
%TO.C,R5*%
X226400000Y-137009999D03*
X226400000Y-135990001D03*
%TD*%
D27*
%TO.C,R27*%
X212900000Y-144600001D03*
X210100000Y-144600001D03*
D28*
X211500000Y-144600000D03*
X211500000Y-149600000D03*
D27*
X212900000Y-149599999D03*
X210100000Y-149599999D03*
%TD*%
D29*
%TO.C,D2*%
X224750000Y-138350000D03*
X225400000Y-138350001D03*
X226050000Y-138350000D03*
X226050000Y-140250000D03*
X225400000Y-140249999D03*
X224750000Y-140250000D03*
%TD*%
D24*
%TO.C,R2*%
X228800000Y-141590001D03*
X228800000Y-142609999D03*
%TD*%
D27*
%TO.C,R18*%
X217400000Y-144600001D03*
X214600000Y-144600001D03*
D28*
X216000000Y-144600000D03*
X216000000Y-149600000D03*
D27*
X217400000Y-149599999D03*
X214600000Y-149599999D03*
%TD*%
D14*
%TO.C,R11*%
X224000000Y-137009999D03*
X224000000Y-135990001D03*
%TD*%
%TO.C,R25*%
X220500000Y-153159999D03*
X220500000Y-152140001D03*
%TD*%
D23*
%TO.C,R26*%
X218690001Y-146575000D03*
X219709999Y-146575000D03*
%TD*%
D24*
%TO.C,R19*%
X220750000Y-147640001D03*
X220750000Y-148659999D03*
%TD*%
%TO.C,R13*%
X225200000Y-141590001D03*
X225200000Y-142609999D03*
%TD*%
D25*
%TO.C,C10*%
X219800000Y-144480000D03*
X219800000Y-143520000D03*
%TD*%
D14*
%TO.C,R1*%
X228800000Y-137009999D03*
X228800000Y-135990001D03*
%TD*%
D15*
%TO.C,Q6*%
X210504999Y-139900000D03*
X209235000Y-139900000D03*
X207965000Y-139900000D03*
X206695001Y-139900000D03*
D16*
X208600000Y-136200000D03*
%TD*%
D23*
%TO.C,R24*%
X218690001Y-147625000D03*
X219709999Y-147625000D03*
%TD*%
D30*
%TO.C,U1*%
X229750000Y-152525000D03*
X229250000Y-152525000D03*
X228750000Y-152525000D03*
X228250000Y-152525000D03*
X227750000Y-152525000D03*
X227250000Y-152525000D03*
X226750000Y-152525000D03*
X226250000Y-152525000D03*
X225750000Y-152525000D03*
X225250000Y-152525000D03*
X224750000Y-152525000D03*
X224250000Y-152525000D03*
D31*
X223575000Y-151850000D03*
X223575000Y-151350000D03*
X223575000Y-150850000D03*
X223575000Y-150350000D03*
X223575000Y-149850000D03*
X223575000Y-149350000D03*
X223575000Y-148850000D03*
X223575000Y-148350000D03*
X223575000Y-147850000D03*
X223575000Y-147350000D03*
X223575000Y-146850000D03*
X223575000Y-146350000D03*
D30*
X224250000Y-145675000D03*
X224750000Y-145675000D03*
X225250000Y-145675000D03*
X225750000Y-145675000D03*
X226250000Y-145675000D03*
X226750000Y-145675000D03*
X227250000Y-145675000D03*
X227750000Y-145675000D03*
X228250000Y-145675000D03*
X228750000Y-145675000D03*
X229250000Y-145675000D03*
X229750000Y-145675000D03*
D31*
X230425000Y-146350000D03*
X230425000Y-146850000D03*
X230425000Y-147350000D03*
X230425000Y-147850000D03*
X230425000Y-148350000D03*
X230425000Y-148850000D03*
X230425000Y-149350000D03*
X230425000Y-149850000D03*
X230425000Y-150350000D03*
X230425000Y-150850000D03*
X230425000Y-151350000D03*
X230425000Y-151850000D03*
D32*
X227000000Y-149100000D03*
%TD*%
D29*
%TO.C,D1*%
X227950000Y-138350000D03*
X228600000Y-138350001D03*
X229250000Y-138350000D03*
X229250000Y-140250000D03*
X228600000Y-140249999D03*
X227950000Y-140250000D03*
%TD*%
D19*
%TO.C,C6*%
X225230000Y-153750000D03*
X224270000Y-153750000D03*
%TD*%
D15*
%TO.C,Q2*%
X216304999Y-139900000D03*
X215035000Y-139900000D03*
X213765000Y-139900000D03*
X212495001Y-139900000D03*
D16*
X214400000Y-136200000D03*
%TD*%
D33*
%TO.C,C2*%
X225975001Y-155500000D03*
X223024999Y-155500000D03*
%TD*%
D10*
%TO.C,C16*%
X223000000Y-159520000D03*
X223000000Y-160480000D03*
%TD*%
D24*
%TO.C,R6*%
X226400000Y-141590001D03*
X226400000Y-142609999D03*
%TD*%
D19*
%TO.C,C1*%
X229480000Y-143900000D03*
X228520000Y-143900000D03*
%TD*%
D24*
%TO.C,R3*%
X230000000Y-141590001D03*
X230000000Y-142609999D03*
%TD*%
D14*
%TO.C,R4*%
X230000000Y-137009999D03*
X230000000Y-135990001D03*
%TD*%
M02*
