%TF.GenerationSoftware,KiCad,Pcbnew,8.0.7*%
%TF.CreationDate,2025-04-07T22:13:35-04:00*%
%TF.ProjectId,motor-controller,6d6f746f-722d-4636-9f6e-74726f6c6c65,1*%
%TF.SameCoordinates,Original*%
%TF.FileFunction,Legend,Bot*%
%TF.FilePolarity,Positive*%
%FSLAX46Y46*%
G04 Gerber Fmt 4.6, Leading zero omitted, Abs format (unit mm)*
G04 Created by KiCad (PCBNEW 8.0.7) date 2025-04-07 22:13:35*
%MOMM*%
%LPD*%
G01*
G04 APERTURE LIST*
G04 Aperture macros list*
%AMRoundRect*
0 Rectangle with rounded corners*
0 $1 Rounding radius*
0 $2 $3 $4 $5 $6 $7 $8 $9 X,Y pos of 4 corners*
0 Add a 4 corners polygon primitive as box body*
4,1,4,$2,$3,$4,$5,$6,$7,$8,$9,$2,$3,0*
0 Add four circle primitives for the rounded corners*
1,1,$1+$1,$2,$3*
1,1,$1+$1,$4,$5*
1,1,$1+$1,$6,$7*
1,1,$1+$1,$8,$9*
0 Add four rect primitives between the rounded corners*
20,1,$1+$1,$2,$3,$4,$5,0*
20,1,$1+$1,$4,$5,$6,$7,0*
20,1,$1+$1,$6,$7,$8,$9,0*
20,1,$1+$1,$8,$9,$2,$3,0*%
G04 Aperture macros list end*
%ADD10C,0.050000*%
%ADD11C,0.153000*%
%ADD12C,0.150000*%
%ADD13C,0.100000*%
%ADD14C,0.120000*%
%ADD15C,3.600000*%
%ADD16C,6.400000*%
%ADD17RoundRect,0.140000X-0.170000X0.140000X-0.170000X-0.140000X0.170000X-0.140000X0.170000X0.140000X0*%
%ADD18R,2.200000X0.800000*%
%ADD19RoundRect,0.200000X-0.200000X-1.250000X0.200000X-1.250000X0.200000X1.250000X-0.200000X1.250000X0*%
%ADD20RoundRect,0.250000X-0.650000X-1.650000X0.650000X-1.650000X0.650000X1.650000X-0.650000X1.650000X0*%
%ADD21RoundRect,0.135000X0.185000X-0.135000X0.185000X0.135000X-0.185000X0.135000X-0.185000X-0.135000X0*%
%ADD22R,0.650000X1.150000*%
%ADD23R,4.600000X4.650000*%
%ADD24C,1.500000*%
%ADD25RoundRect,0.250000X-1.500000X-0.550000X1.500000X-0.550000X1.500000X0.550000X-1.500000X0.550000X0*%
%ADD26RoundRect,0.250000X-0.325000X-0.650000X0.325000X-0.650000X0.325000X0.650000X-0.325000X0.650000X0*%
%ADD27RoundRect,0.140000X0.140000X0.170000X-0.140000X0.170000X-0.140000X-0.170000X0.140000X-0.170000X0*%
%ADD28RoundRect,0.250001X-0.624999X0.462499X-0.624999X-0.462499X0.624999X-0.462499X0.624999X0.462499X0*%
%ADD29RoundRect,0.150000X0.625000X-0.150000X0.625000X0.150000X-0.625000X0.150000X-0.625000X-0.150000X0*%
%ADD30RoundRect,0.250000X0.650000X-0.350000X0.650000X0.350000X-0.650000X0.350000X-0.650000X-0.350000X0*%
%ADD31RoundRect,0.135000X-0.135000X-0.185000X0.135000X-0.185000X0.135000X0.185000X-0.135000X0.185000X0*%
%ADD32RoundRect,0.135000X-0.185000X0.135000X-0.185000X-0.135000X0.185000X-0.135000X0.185000X0.135000X0*%
%ADD33RoundRect,0.140000X0.170000X-0.140000X0.170000X0.140000X-0.170000X0.140000X-0.170000X-0.140000X0*%
%ADD34R,2.500000X2.300000*%
%ADD35R,1.200000X3.400000*%
%ADD36R,0.600000X3.400000*%
%ADD37RoundRect,0.100000X-0.100000X0.225000X-0.100000X-0.225000X0.100000X-0.225000X0.100000X0.225000X0*%
%ADD38R,0.300000X0.850000*%
%ADD39R,0.850000X0.300000*%
%ADD40R,2.800000X2.800000*%
%ADD41RoundRect,0.250000X0.325000X0.650000X-0.325000X0.650000X-0.325000X-0.650000X0.325000X-0.650000X0*%
G04 APERTURE END LIST*
D10*
X206300000Y-140900000D02*
X230700000Y-140900000D01*
X206300000Y-145300000D02*
X196200000Y-145300000D01*
X209400000Y-153000000D02*
X209400000Y-152150000D01*
X220400000Y-142900000D02*
X218200000Y-142900000D01*
X218200000Y-153000000D02*
X218200000Y-142900000D01*
X221400000Y-149200000D02*
X218200000Y-149200000D01*
X223200000Y-141100000D02*
X223000000Y-141100000D01*
X223200000Y-144500000D02*
X223200000Y-141100000D01*
X209400000Y-152150000D02*
X206500000Y-152150000D01*
X210800000Y-159000000D02*
X210800000Y-153000000D01*
X230700000Y-144500000D02*
X223200000Y-144500000D01*
X206300000Y-145300000D02*
X206300000Y-140900000D01*
X210800000Y-159000000D02*
X206300000Y-159000000D01*
X218200000Y-153000000D02*
X209400000Y-153000000D01*
X230700000Y-140900000D02*
X230700000Y-144500000D01*
D11*
X197800000Y-148800000D02*
X206400000Y-148800000D01*
X206400000Y-158800000D01*
X197800000Y-158800000D01*
X197800000Y-148800000D01*
G36*
X197800000Y-148800000D02*
G01*
X206400000Y-148800000D01*
X206400000Y-158800000D01*
X197800000Y-158800000D01*
X197800000Y-148800000D01*
G37*
X197461247Y-149669663D02*
X197461247Y-148669663D01*
X196985057Y-149669663D02*
X196985057Y-148669663D01*
X196985057Y-148669663D02*
X196746962Y-148669663D01*
X196746962Y-148669663D02*
X196604105Y-148717282D01*
X196604105Y-148717282D02*
X196508867Y-148812520D01*
X196508867Y-148812520D02*
X196461248Y-148907758D01*
X196461248Y-148907758D02*
X196413629Y-149098234D01*
X196413629Y-149098234D02*
X196413629Y-149241091D01*
X196413629Y-149241091D02*
X196461248Y-149431567D01*
X196461248Y-149431567D02*
X196508867Y-149526805D01*
X196508867Y-149526805D02*
X196604105Y-149622044D01*
X196604105Y-149622044D02*
X196746962Y-149669663D01*
X196746962Y-149669663D02*
X196985057Y-149669663D01*
X230661247Y-125369663D02*
X230661247Y-124369663D01*
X230661247Y-124369663D02*
X230327914Y-125083948D01*
X230327914Y-125083948D02*
X229994581Y-124369663D01*
X229994581Y-124369663D02*
X229994581Y-125369663D01*
X229375533Y-125369663D02*
X229470771Y-125322044D01*
X229470771Y-125322044D02*
X229518390Y-125274424D01*
X229518390Y-125274424D02*
X229566009Y-125179186D01*
X229566009Y-125179186D02*
X229566009Y-124893472D01*
X229566009Y-124893472D02*
X229518390Y-124798234D01*
X229518390Y-124798234D02*
X229470771Y-124750615D01*
X229470771Y-124750615D02*
X229375533Y-124702996D01*
X229375533Y-124702996D02*
X229232676Y-124702996D01*
X229232676Y-124702996D02*
X229137438Y-124750615D01*
X229137438Y-124750615D02*
X229089819Y-124798234D01*
X229089819Y-124798234D02*
X229042200Y-124893472D01*
X229042200Y-124893472D02*
X229042200Y-125179186D01*
X229042200Y-125179186D02*
X229089819Y-125274424D01*
X229089819Y-125274424D02*
X229137438Y-125322044D01*
X229137438Y-125322044D02*
X229232676Y-125369663D01*
X229232676Y-125369663D02*
X229375533Y-125369663D01*
X228756485Y-124702996D02*
X228375533Y-124702996D01*
X228613628Y-124369663D02*
X228613628Y-125226805D01*
X228613628Y-125226805D02*
X228566009Y-125322044D01*
X228566009Y-125322044D02*
X228470771Y-125369663D01*
X228470771Y-125369663D02*
X228375533Y-125369663D01*
X227899342Y-125369663D02*
X227994580Y-125322044D01*
X227994580Y-125322044D02*
X228042199Y-125274424D01*
X228042199Y-125274424D02*
X228089818Y-125179186D01*
X228089818Y-125179186D02*
X228089818Y-124893472D01*
X228089818Y-124893472D02*
X228042199Y-124798234D01*
X228042199Y-124798234D02*
X227994580Y-124750615D01*
X227994580Y-124750615D02*
X227899342Y-124702996D01*
X227899342Y-124702996D02*
X227756485Y-124702996D01*
X227756485Y-124702996D02*
X227661247Y-124750615D01*
X227661247Y-124750615D02*
X227613628Y-124798234D01*
X227613628Y-124798234D02*
X227566009Y-124893472D01*
X227566009Y-124893472D02*
X227566009Y-125179186D01*
X227566009Y-125179186D02*
X227613628Y-125274424D01*
X227613628Y-125274424D02*
X227661247Y-125322044D01*
X227661247Y-125322044D02*
X227756485Y-125369663D01*
X227756485Y-125369663D02*
X227899342Y-125369663D01*
X227137437Y-125369663D02*
X227137437Y-124702996D01*
X227137437Y-124893472D02*
X227089818Y-124798234D01*
X227089818Y-124798234D02*
X227042199Y-124750615D01*
X227042199Y-124750615D02*
X226946961Y-124702996D01*
X226946961Y-124702996D02*
X226851723Y-124702996D01*
X225185056Y-125274424D02*
X225232675Y-125322044D01*
X225232675Y-125322044D02*
X225375532Y-125369663D01*
X225375532Y-125369663D02*
X225470770Y-125369663D01*
X225470770Y-125369663D02*
X225613627Y-125322044D01*
X225613627Y-125322044D02*
X225708865Y-125226805D01*
X225708865Y-125226805D02*
X225756484Y-125131567D01*
X225756484Y-125131567D02*
X225804103Y-124941091D01*
X225804103Y-124941091D02*
X225804103Y-124798234D01*
X225804103Y-124798234D02*
X225756484Y-124607758D01*
X225756484Y-124607758D02*
X225708865Y-124512520D01*
X225708865Y-124512520D02*
X225613627Y-124417282D01*
X225613627Y-124417282D02*
X225470770Y-124369663D01*
X225470770Y-124369663D02*
X225375532Y-124369663D01*
X225375532Y-124369663D02*
X225232675Y-124417282D01*
X225232675Y-124417282D02*
X225185056Y-124464901D01*
X224613627Y-125369663D02*
X224708865Y-125322044D01*
X224708865Y-125322044D02*
X224756484Y-125274424D01*
X224756484Y-125274424D02*
X224804103Y-125179186D01*
X224804103Y-125179186D02*
X224804103Y-124893472D01*
X224804103Y-124893472D02*
X224756484Y-124798234D01*
X224756484Y-124798234D02*
X224708865Y-124750615D01*
X224708865Y-124750615D02*
X224613627Y-124702996D01*
X224613627Y-124702996D02*
X224470770Y-124702996D01*
X224470770Y-124702996D02*
X224375532Y-124750615D01*
X224375532Y-124750615D02*
X224327913Y-124798234D01*
X224327913Y-124798234D02*
X224280294Y-124893472D01*
X224280294Y-124893472D02*
X224280294Y-125179186D01*
X224280294Y-125179186D02*
X224327913Y-125274424D01*
X224327913Y-125274424D02*
X224375532Y-125322044D01*
X224375532Y-125322044D02*
X224470770Y-125369663D01*
X224470770Y-125369663D02*
X224613627Y-125369663D01*
X223851722Y-124702996D02*
X223851722Y-125369663D01*
X223851722Y-124798234D02*
X223804103Y-124750615D01*
X223804103Y-124750615D02*
X223708865Y-124702996D01*
X223708865Y-124702996D02*
X223566008Y-124702996D01*
X223566008Y-124702996D02*
X223470770Y-124750615D01*
X223470770Y-124750615D02*
X223423151Y-124845853D01*
X223423151Y-124845853D02*
X223423151Y-125369663D01*
X223089817Y-124702996D02*
X222708865Y-124702996D01*
X222946960Y-124369663D02*
X222946960Y-125226805D01*
X222946960Y-125226805D02*
X222899341Y-125322044D01*
X222899341Y-125322044D02*
X222804103Y-125369663D01*
X222804103Y-125369663D02*
X222708865Y-125369663D01*
X222375531Y-125369663D02*
X222375531Y-124702996D01*
X222375531Y-124893472D02*
X222327912Y-124798234D01*
X222327912Y-124798234D02*
X222280293Y-124750615D01*
X222280293Y-124750615D02*
X222185055Y-124702996D01*
X222185055Y-124702996D02*
X222089817Y-124702996D01*
X221613626Y-125369663D02*
X221708864Y-125322044D01*
X221708864Y-125322044D02*
X221756483Y-125274424D01*
X221756483Y-125274424D02*
X221804102Y-125179186D01*
X221804102Y-125179186D02*
X221804102Y-124893472D01*
X221804102Y-124893472D02*
X221756483Y-124798234D01*
X221756483Y-124798234D02*
X221708864Y-124750615D01*
X221708864Y-124750615D02*
X221613626Y-124702996D01*
X221613626Y-124702996D02*
X221470769Y-124702996D01*
X221470769Y-124702996D02*
X221375531Y-124750615D01*
X221375531Y-124750615D02*
X221327912Y-124798234D01*
X221327912Y-124798234D02*
X221280293Y-124893472D01*
X221280293Y-124893472D02*
X221280293Y-125179186D01*
X221280293Y-125179186D02*
X221327912Y-125274424D01*
X221327912Y-125274424D02*
X221375531Y-125322044D01*
X221375531Y-125322044D02*
X221470769Y-125369663D01*
X221470769Y-125369663D02*
X221613626Y-125369663D01*
X220708864Y-125369663D02*
X220804102Y-125322044D01*
X220804102Y-125322044D02*
X220851721Y-125226805D01*
X220851721Y-125226805D02*
X220851721Y-124369663D01*
X220185054Y-125369663D02*
X220280292Y-125322044D01*
X220280292Y-125322044D02*
X220327911Y-125226805D01*
X220327911Y-125226805D02*
X220327911Y-124369663D01*
X219423149Y-125322044D02*
X219518387Y-125369663D01*
X219518387Y-125369663D02*
X219708863Y-125369663D01*
X219708863Y-125369663D02*
X219804101Y-125322044D01*
X219804101Y-125322044D02*
X219851720Y-125226805D01*
X219851720Y-125226805D02*
X219851720Y-124845853D01*
X219851720Y-124845853D02*
X219804101Y-124750615D01*
X219804101Y-124750615D02*
X219708863Y-124702996D01*
X219708863Y-124702996D02*
X219518387Y-124702996D01*
X219518387Y-124702996D02*
X219423149Y-124750615D01*
X219423149Y-124750615D02*
X219375530Y-124845853D01*
X219375530Y-124845853D02*
X219375530Y-124941091D01*
X219375530Y-124941091D02*
X219851720Y-125036329D01*
X218946958Y-125369663D02*
X218946958Y-124702996D01*
X218946958Y-124893472D02*
X218899339Y-124798234D01*
X218899339Y-124798234D02*
X218851720Y-124750615D01*
X218851720Y-124750615D02*
X218756482Y-124702996D01*
X218756482Y-124702996D02*
X218661244Y-124702996D01*
X217661243Y-124702996D02*
X217423148Y-125369663D01*
X217423148Y-125369663D02*
X217185053Y-124702996D01*
X216280291Y-125369663D02*
X216851719Y-125369663D01*
X216566005Y-125369663D02*
X216566005Y-124369663D01*
X216566005Y-124369663D02*
X216661243Y-124512520D01*
X216661243Y-124512520D02*
X216756481Y-124607758D01*
X216756481Y-124607758D02*
X216851719Y-124655377D01*
X215851719Y-125274424D02*
X215804100Y-125322044D01*
X215804100Y-125322044D02*
X215851719Y-125369663D01*
X215851719Y-125369663D02*
X215899338Y-125322044D01*
X215899338Y-125322044D02*
X215851719Y-125274424D01*
X215851719Y-125274424D02*
X215851719Y-125369663D01*
X215185053Y-124369663D02*
X215089815Y-124369663D01*
X215089815Y-124369663D02*
X214994577Y-124417282D01*
X214994577Y-124417282D02*
X214946958Y-124464901D01*
X214946958Y-124464901D02*
X214899339Y-124560139D01*
X214899339Y-124560139D02*
X214851720Y-124750615D01*
X214851720Y-124750615D02*
X214851720Y-124988710D01*
X214851720Y-124988710D02*
X214899339Y-125179186D01*
X214899339Y-125179186D02*
X214946958Y-125274424D01*
X214946958Y-125274424D02*
X214994577Y-125322044D01*
X214994577Y-125322044D02*
X215089815Y-125369663D01*
X215089815Y-125369663D02*
X215185053Y-125369663D01*
X215185053Y-125369663D02*
X215280291Y-125322044D01*
X215280291Y-125322044D02*
X215327910Y-125274424D01*
X215327910Y-125274424D02*
X215375529Y-125179186D01*
X215375529Y-125179186D02*
X215423148Y-124988710D01*
X215423148Y-124988710D02*
X215423148Y-124750615D01*
X215423148Y-124750615D02*
X215375529Y-124560139D01*
X215375529Y-124560139D02*
X215327910Y-124464901D01*
X215327910Y-124464901D02*
X215280291Y-124417282D01*
X215280291Y-124417282D02*
X215185053Y-124369663D01*
X195780336Y-154637438D02*
X195780336Y-155208866D01*
X195780336Y-154923152D02*
X196780336Y-154923152D01*
X196780336Y-154923152D02*
X196637479Y-155018390D01*
X196637479Y-155018390D02*
X196542241Y-155113628D01*
X196542241Y-155113628D02*
X196494622Y-155208866D01*
X196780336Y-154018390D02*
X196780336Y-153923152D01*
X196780336Y-153923152D02*
X196732717Y-153827914D01*
X196732717Y-153827914D02*
X196685098Y-153780295D01*
X196685098Y-153780295D02*
X196589860Y-153732676D01*
X196589860Y-153732676D02*
X196399384Y-153685057D01*
X196399384Y-153685057D02*
X196161289Y-153685057D01*
X196161289Y-153685057D02*
X195970813Y-153732676D01*
X195970813Y-153732676D02*
X195875575Y-153780295D01*
X195875575Y-153780295D02*
X195827956Y-153827914D01*
X195827956Y-153827914D02*
X195780336Y-153923152D01*
X195780336Y-153923152D02*
X195780336Y-154018390D01*
X195780336Y-154018390D02*
X195827956Y-154113628D01*
X195827956Y-154113628D02*
X195875575Y-154161247D01*
X195875575Y-154161247D02*
X195970813Y-154208866D01*
X195970813Y-154208866D02*
X196161289Y-154256485D01*
X196161289Y-154256485D02*
X196399384Y-154256485D01*
X196399384Y-154256485D02*
X196589860Y-154208866D01*
X196589860Y-154208866D02*
X196685098Y-154161247D01*
X196685098Y-154161247D02*
X196732717Y-154113628D01*
X196732717Y-154113628D02*
X196780336Y-154018390D01*
X196066051Y-153304104D02*
X196066051Y-152827914D01*
X195780336Y-153399342D02*
X196780336Y-153066009D01*
X196780336Y-153066009D02*
X195780336Y-152732676D01*
X195827956Y-151685056D02*
X195780336Y-151542199D01*
X195780336Y-151542199D02*
X195780336Y-151304104D01*
X195780336Y-151304104D02*
X195827956Y-151208866D01*
X195827956Y-151208866D02*
X195875575Y-151161247D01*
X195875575Y-151161247D02*
X195970813Y-151113628D01*
X195970813Y-151113628D02*
X196066051Y-151113628D01*
X196066051Y-151113628D02*
X196161289Y-151161247D01*
X196161289Y-151161247D02*
X196208908Y-151208866D01*
X196208908Y-151208866D02*
X196256527Y-151304104D01*
X196256527Y-151304104D02*
X196304146Y-151494580D01*
X196304146Y-151494580D02*
X196351765Y-151589818D01*
X196351765Y-151589818D02*
X196399384Y-151637437D01*
X196399384Y-151637437D02*
X196494622Y-151685056D01*
X196494622Y-151685056D02*
X196589860Y-151685056D01*
X196589860Y-151685056D02*
X196685098Y-151637437D01*
X196685098Y-151637437D02*
X196732717Y-151589818D01*
X196732717Y-151589818D02*
X196780336Y-151494580D01*
X196780336Y-151494580D02*
X196780336Y-151256485D01*
X196780336Y-151256485D02*
X196732717Y-151113628D01*
X195780336Y-150542199D02*
X195827956Y-150637437D01*
X195827956Y-150637437D02*
X195923194Y-150685056D01*
X195923194Y-150685056D02*
X196780336Y-150685056D01*
X195780336Y-150018389D02*
X195827956Y-150113627D01*
X195827956Y-150113627D02*
X195875575Y-150161246D01*
X195875575Y-150161246D02*
X195970813Y-150208865D01*
X195970813Y-150208865D02*
X196256527Y-150208865D01*
X196256527Y-150208865D02*
X196351765Y-150161246D01*
X196351765Y-150161246D02*
X196399384Y-150113627D01*
X196399384Y-150113627D02*
X196447003Y-150018389D01*
X196447003Y-150018389D02*
X196447003Y-149875532D01*
X196447003Y-149875532D02*
X196399384Y-149780294D01*
X196399384Y-149780294D02*
X196351765Y-149732675D01*
X196351765Y-149732675D02*
X196256527Y-149685056D01*
X196256527Y-149685056D02*
X195970813Y-149685056D01*
X195970813Y-149685056D02*
X195875575Y-149732675D01*
X195875575Y-149732675D02*
X195827956Y-149780294D01*
X195827956Y-149780294D02*
X195780336Y-149875532D01*
X195780336Y-149875532D02*
X195780336Y-150018389D01*
D12*
X232159580Y-157533333D02*
X232207200Y-157485714D01*
X232207200Y-157485714D02*
X232254819Y-157342857D01*
X232254819Y-157342857D02*
X232254819Y-157247619D01*
X232254819Y-157247619D02*
X232207200Y-157104762D01*
X232207200Y-157104762D02*
X232111961Y-157009524D01*
X232111961Y-157009524D02*
X232016723Y-156961905D01*
X232016723Y-156961905D02*
X231826247Y-156914286D01*
X231826247Y-156914286D02*
X231683390Y-156914286D01*
X231683390Y-156914286D02*
X231492914Y-156961905D01*
X231492914Y-156961905D02*
X231397676Y-157009524D01*
X231397676Y-157009524D02*
X231302438Y-157104762D01*
X231302438Y-157104762D02*
X231254819Y-157247619D01*
X231254819Y-157247619D02*
X231254819Y-157342857D01*
X231254819Y-157342857D02*
X231302438Y-157485714D01*
X231302438Y-157485714D02*
X231350057Y-157533333D01*
X231588152Y-158390476D02*
X232254819Y-158390476D01*
X231207200Y-158152381D02*
X231921485Y-157914286D01*
X231921485Y-157914286D02*
X231921485Y-158533333D01*
X194833333Y-132254819D02*
X194833333Y-132969104D01*
X194833333Y-132969104D02*
X194880952Y-133111961D01*
X194880952Y-133111961D02*
X194976190Y-133207200D01*
X194976190Y-133207200D02*
X195119047Y-133254819D01*
X195119047Y-133254819D02*
X195214285Y-133254819D01*
X193928571Y-132254819D02*
X194119047Y-132254819D01*
X194119047Y-132254819D02*
X194214285Y-132302438D01*
X194214285Y-132302438D02*
X194261904Y-132350057D01*
X194261904Y-132350057D02*
X194357142Y-132492914D01*
X194357142Y-132492914D02*
X194404761Y-132683390D01*
X194404761Y-132683390D02*
X194404761Y-133064342D01*
X194404761Y-133064342D02*
X194357142Y-133159580D01*
X194357142Y-133159580D02*
X194309523Y-133207200D01*
X194309523Y-133207200D02*
X194214285Y-133254819D01*
X194214285Y-133254819D02*
X194023809Y-133254819D01*
X194023809Y-133254819D02*
X193928571Y-133207200D01*
X193928571Y-133207200D02*
X193880952Y-133159580D01*
X193880952Y-133159580D02*
X193833333Y-133064342D01*
X193833333Y-133064342D02*
X193833333Y-132826247D01*
X193833333Y-132826247D02*
X193880952Y-132731009D01*
X193880952Y-132731009D02*
X193928571Y-132683390D01*
X193928571Y-132683390D02*
X194023809Y-132635771D01*
X194023809Y-132635771D02*
X194214285Y-132635771D01*
X194214285Y-132635771D02*
X194309523Y-132683390D01*
X194309523Y-132683390D02*
X194357142Y-132731009D01*
X194357142Y-132731009D02*
X194404761Y-132826247D01*
X196833333Y-167454819D02*
X196833333Y-168169104D01*
X196833333Y-168169104D02*
X196880952Y-168311961D01*
X196880952Y-168311961D02*
X196976190Y-168407200D01*
X196976190Y-168407200D02*
X197119047Y-168454819D01*
X197119047Y-168454819D02*
X197214285Y-168454819D01*
X195880952Y-167454819D02*
X196357142Y-167454819D01*
X196357142Y-167454819D02*
X196404761Y-167931009D01*
X196404761Y-167931009D02*
X196357142Y-167883390D01*
X196357142Y-167883390D02*
X196261904Y-167835771D01*
X196261904Y-167835771D02*
X196023809Y-167835771D01*
X196023809Y-167835771D02*
X195928571Y-167883390D01*
X195928571Y-167883390D02*
X195880952Y-167931009D01*
X195880952Y-167931009D02*
X195833333Y-168026247D01*
X195833333Y-168026247D02*
X195833333Y-168264342D01*
X195833333Y-168264342D02*
X195880952Y-168359580D01*
X195880952Y-168359580D02*
X195928571Y-168407200D01*
X195928571Y-168407200D02*
X196023809Y-168454819D01*
X196023809Y-168454819D02*
X196261904Y-168454819D01*
X196261904Y-168454819D02*
X196357142Y-168407200D01*
X196357142Y-168407200D02*
X196404761Y-168359580D01*
X219754819Y-154357142D02*
X219278628Y-154023809D01*
X219754819Y-153785714D02*
X218754819Y-153785714D01*
X218754819Y-153785714D02*
X218754819Y-154166666D01*
X218754819Y-154166666D02*
X218802438Y-154261904D01*
X218802438Y-154261904D02*
X218850057Y-154309523D01*
X218850057Y-154309523D02*
X218945295Y-154357142D01*
X218945295Y-154357142D02*
X219088152Y-154357142D01*
X219088152Y-154357142D02*
X219183390Y-154309523D01*
X219183390Y-154309523D02*
X219231009Y-154261904D01*
X219231009Y-154261904D02*
X219278628Y-154166666D01*
X219278628Y-154166666D02*
X219278628Y-153785714D01*
X218754819Y-154690476D02*
X218754819Y-155309523D01*
X218754819Y-155309523D02*
X219135771Y-154976190D01*
X219135771Y-154976190D02*
X219135771Y-155119047D01*
X219135771Y-155119047D02*
X219183390Y-155214285D01*
X219183390Y-155214285D02*
X219231009Y-155261904D01*
X219231009Y-155261904D02*
X219326247Y-155309523D01*
X219326247Y-155309523D02*
X219564342Y-155309523D01*
X219564342Y-155309523D02*
X219659580Y-155261904D01*
X219659580Y-155261904D02*
X219707200Y-155214285D01*
X219707200Y-155214285D02*
X219754819Y-155119047D01*
X219754819Y-155119047D02*
X219754819Y-154833333D01*
X219754819Y-154833333D02*
X219707200Y-154738095D01*
X219707200Y-154738095D02*
X219659580Y-154690476D01*
X219183390Y-155880952D02*
X219135771Y-155785714D01*
X219135771Y-155785714D02*
X219088152Y-155738095D01*
X219088152Y-155738095D02*
X218992914Y-155690476D01*
X218992914Y-155690476D02*
X218945295Y-155690476D01*
X218945295Y-155690476D02*
X218850057Y-155738095D01*
X218850057Y-155738095D02*
X218802438Y-155785714D01*
X218802438Y-155785714D02*
X218754819Y-155880952D01*
X218754819Y-155880952D02*
X218754819Y-156071428D01*
X218754819Y-156071428D02*
X218802438Y-156166666D01*
X218802438Y-156166666D02*
X218850057Y-156214285D01*
X218850057Y-156214285D02*
X218945295Y-156261904D01*
X218945295Y-156261904D02*
X218992914Y-156261904D01*
X218992914Y-156261904D02*
X219088152Y-156214285D01*
X219088152Y-156214285D02*
X219135771Y-156166666D01*
X219135771Y-156166666D02*
X219183390Y-156071428D01*
X219183390Y-156071428D02*
X219183390Y-155880952D01*
X219183390Y-155880952D02*
X219231009Y-155785714D01*
X219231009Y-155785714D02*
X219278628Y-155738095D01*
X219278628Y-155738095D02*
X219373866Y-155690476D01*
X219373866Y-155690476D02*
X219564342Y-155690476D01*
X219564342Y-155690476D02*
X219659580Y-155738095D01*
X219659580Y-155738095D02*
X219707200Y-155785714D01*
X219707200Y-155785714D02*
X219754819Y-155880952D01*
X219754819Y-155880952D02*
X219754819Y-156071428D01*
X219754819Y-156071428D02*
X219707200Y-156166666D01*
X219707200Y-156166666D02*
X219659580Y-156214285D01*
X219659580Y-156214285D02*
X219564342Y-156261904D01*
X219564342Y-156261904D02*
X219373866Y-156261904D01*
X219373866Y-156261904D02*
X219278628Y-156214285D01*
X219278628Y-156214285D02*
X219231009Y-156166666D01*
X219231009Y-156166666D02*
X219183390Y-156071428D01*
X209750057Y-124904761D02*
X209702438Y-124809523D01*
X209702438Y-124809523D02*
X209607200Y-124714285D01*
X209607200Y-124714285D02*
X209464342Y-124571428D01*
X209464342Y-124571428D02*
X209416723Y-124476190D01*
X209416723Y-124476190D02*
X209416723Y-124380952D01*
X209654819Y-124428571D02*
X209607200Y-124333333D01*
X209607200Y-124333333D02*
X209511961Y-124238095D01*
X209511961Y-124238095D02*
X209321485Y-124190476D01*
X209321485Y-124190476D02*
X208988152Y-124190476D01*
X208988152Y-124190476D02*
X208797676Y-124238095D01*
X208797676Y-124238095D02*
X208702438Y-124333333D01*
X208702438Y-124333333D02*
X208654819Y-124428571D01*
X208654819Y-124428571D02*
X208654819Y-124619047D01*
X208654819Y-124619047D02*
X208702438Y-124714285D01*
X208702438Y-124714285D02*
X208797676Y-124809523D01*
X208797676Y-124809523D02*
X208988152Y-124857142D01*
X208988152Y-124857142D02*
X209321485Y-124857142D01*
X209321485Y-124857142D02*
X209511961Y-124809523D01*
X209511961Y-124809523D02*
X209607200Y-124714285D01*
X209607200Y-124714285D02*
X209654819Y-124619047D01*
X209654819Y-124619047D02*
X209654819Y-124428571D01*
X208654819Y-125190476D02*
X208654819Y-125809523D01*
X208654819Y-125809523D02*
X209035771Y-125476190D01*
X209035771Y-125476190D02*
X209035771Y-125619047D01*
X209035771Y-125619047D02*
X209083390Y-125714285D01*
X209083390Y-125714285D02*
X209131009Y-125761904D01*
X209131009Y-125761904D02*
X209226247Y-125809523D01*
X209226247Y-125809523D02*
X209464342Y-125809523D01*
X209464342Y-125809523D02*
X209559580Y-125761904D01*
X209559580Y-125761904D02*
X209607200Y-125714285D01*
X209607200Y-125714285D02*
X209654819Y-125619047D01*
X209654819Y-125619047D02*
X209654819Y-125333333D01*
X209654819Y-125333333D02*
X209607200Y-125238095D01*
X209607200Y-125238095D02*
X209559580Y-125190476D01*
X231461904Y-160854819D02*
X230890476Y-160854819D01*
X231176190Y-161854819D02*
X231176190Y-160854819D01*
X230557142Y-161854819D02*
X230557142Y-160854819D01*
X230557142Y-160854819D02*
X230176190Y-160854819D01*
X230176190Y-160854819D02*
X230080952Y-160902438D01*
X230080952Y-160902438D02*
X230033333Y-160950057D01*
X230033333Y-160950057D02*
X229985714Y-161045295D01*
X229985714Y-161045295D02*
X229985714Y-161188152D01*
X229985714Y-161188152D02*
X230033333Y-161283390D01*
X230033333Y-161283390D02*
X230080952Y-161331009D01*
X230080952Y-161331009D02*
X230176190Y-161378628D01*
X230176190Y-161378628D02*
X230557142Y-161378628D01*
X229652380Y-160854819D02*
X229033333Y-160854819D01*
X229033333Y-160854819D02*
X229366666Y-161235771D01*
X229366666Y-161235771D02*
X229223809Y-161235771D01*
X229223809Y-161235771D02*
X229128571Y-161283390D01*
X229128571Y-161283390D02*
X229080952Y-161331009D01*
X229080952Y-161331009D02*
X229033333Y-161426247D01*
X229033333Y-161426247D02*
X229033333Y-161664342D01*
X229033333Y-161664342D02*
X229080952Y-161759580D01*
X229080952Y-161759580D02*
X229128571Y-161807200D01*
X229128571Y-161807200D02*
X229223809Y-161854819D01*
X229223809Y-161854819D02*
X229509523Y-161854819D01*
X229509523Y-161854819D02*
X229604761Y-161807200D01*
X229604761Y-161807200D02*
X229652380Y-161759580D01*
X219754819Y-157157142D02*
X219278628Y-156823809D01*
X219754819Y-156585714D02*
X218754819Y-156585714D01*
X218754819Y-156585714D02*
X218754819Y-156966666D01*
X218754819Y-156966666D02*
X218802438Y-157061904D01*
X218802438Y-157061904D02*
X218850057Y-157109523D01*
X218850057Y-157109523D02*
X218945295Y-157157142D01*
X218945295Y-157157142D02*
X219088152Y-157157142D01*
X219088152Y-157157142D02*
X219183390Y-157109523D01*
X219183390Y-157109523D02*
X219231009Y-157061904D01*
X219231009Y-157061904D02*
X219278628Y-156966666D01*
X219278628Y-156966666D02*
X219278628Y-156585714D01*
X219754819Y-158109523D02*
X219754819Y-157538095D01*
X219754819Y-157823809D02*
X218754819Y-157823809D01*
X218754819Y-157823809D02*
X218897676Y-157728571D01*
X218897676Y-157728571D02*
X218992914Y-157633333D01*
X218992914Y-157633333D02*
X219040533Y-157538095D01*
X218754819Y-158442857D02*
X218754819Y-159109523D01*
X218754819Y-159109523D02*
X219754819Y-158680952D01*
X207150057Y-124904761D02*
X207102438Y-124809523D01*
X207102438Y-124809523D02*
X207007200Y-124714285D01*
X207007200Y-124714285D02*
X206864342Y-124571428D01*
X206864342Y-124571428D02*
X206816723Y-124476190D01*
X206816723Y-124476190D02*
X206816723Y-124380952D01*
X207054819Y-124428571D02*
X207007200Y-124333333D01*
X207007200Y-124333333D02*
X206911961Y-124238095D01*
X206911961Y-124238095D02*
X206721485Y-124190476D01*
X206721485Y-124190476D02*
X206388152Y-124190476D01*
X206388152Y-124190476D02*
X206197676Y-124238095D01*
X206197676Y-124238095D02*
X206102438Y-124333333D01*
X206102438Y-124333333D02*
X206054819Y-124428571D01*
X206054819Y-124428571D02*
X206054819Y-124619047D01*
X206054819Y-124619047D02*
X206102438Y-124714285D01*
X206102438Y-124714285D02*
X206197676Y-124809523D01*
X206197676Y-124809523D02*
X206388152Y-124857142D01*
X206388152Y-124857142D02*
X206721485Y-124857142D01*
X206721485Y-124857142D02*
X206911961Y-124809523D01*
X206911961Y-124809523D02*
X207007200Y-124714285D01*
X207007200Y-124714285D02*
X207054819Y-124619047D01*
X207054819Y-124619047D02*
X207054819Y-124428571D01*
X206054819Y-125761904D02*
X206054819Y-125285714D01*
X206054819Y-125285714D02*
X206531009Y-125238095D01*
X206531009Y-125238095D02*
X206483390Y-125285714D01*
X206483390Y-125285714D02*
X206435771Y-125380952D01*
X206435771Y-125380952D02*
X206435771Y-125619047D01*
X206435771Y-125619047D02*
X206483390Y-125714285D01*
X206483390Y-125714285D02*
X206531009Y-125761904D01*
X206531009Y-125761904D02*
X206626247Y-125809523D01*
X206626247Y-125809523D02*
X206864342Y-125809523D01*
X206864342Y-125809523D02*
X206959580Y-125761904D01*
X206959580Y-125761904D02*
X207007200Y-125714285D01*
X207007200Y-125714285D02*
X207054819Y-125619047D01*
X207054819Y-125619047D02*
X207054819Y-125380952D01*
X207054819Y-125380952D02*
X207007200Y-125285714D01*
X207007200Y-125285714D02*
X206959580Y-125238095D01*
X199942857Y-144109580D02*
X199990476Y-144157200D01*
X199990476Y-144157200D02*
X200133333Y-144204819D01*
X200133333Y-144204819D02*
X200228571Y-144204819D01*
X200228571Y-144204819D02*
X200371428Y-144157200D01*
X200371428Y-144157200D02*
X200466666Y-144061961D01*
X200466666Y-144061961D02*
X200514285Y-143966723D01*
X200514285Y-143966723D02*
X200561904Y-143776247D01*
X200561904Y-143776247D02*
X200561904Y-143633390D01*
X200561904Y-143633390D02*
X200514285Y-143442914D01*
X200514285Y-143442914D02*
X200466666Y-143347676D01*
X200466666Y-143347676D02*
X200371428Y-143252438D01*
X200371428Y-143252438D02*
X200228571Y-143204819D01*
X200228571Y-143204819D02*
X200133333Y-143204819D01*
X200133333Y-143204819D02*
X199990476Y-143252438D01*
X199990476Y-143252438D02*
X199942857Y-143300057D01*
X199561904Y-143300057D02*
X199514285Y-143252438D01*
X199514285Y-143252438D02*
X199419047Y-143204819D01*
X199419047Y-143204819D02*
X199180952Y-143204819D01*
X199180952Y-143204819D02*
X199085714Y-143252438D01*
X199085714Y-143252438D02*
X199038095Y-143300057D01*
X199038095Y-143300057D02*
X198990476Y-143395295D01*
X198990476Y-143395295D02*
X198990476Y-143490533D01*
X198990476Y-143490533D02*
X199038095Y-143633390D01*
X199038095Y-143633390D02*
X199609523Y-144204819D01*
X199609523Y-144204819D02*
X198990476Y-144204819D01*
X198657142Y-143204819D02*
X198038095Y-143204819D01*
X198038095Y-143204819D02*
X198371428Y-143585771D01*
X198371428Y-143585771D02*
X198228571Y-143585771D01*
X198228571Y-143585771D02*
X198133333Y-143633390D01*
X198133333Y-143633390D02*
X198085714Y-143681009D01*
X198085714Y-143681009D02*
X198038095Y-143776247D01*
X198038095Y-143776247D02*
X198038095Y-144014342D01*
X198038095Y-144014342D02*
X198085714Y-144109580D01*
X198085714Y-144109580D02*
X198133333Y-144157200D01*
X198133333Y-144157200D02*
X198228571Y-144204819D01*
X198228571Y-144204819D02*
X198514285Y-144204819D01*
X198514285Y-144204819D02*
X198609523Y-144157200D01*
X198609523Y-144157200D02*
X198657142Y-144109580D01*
X229666666Y-157859580D02*
X229714285Y-157907200D01*
X229714285Y-157907200D02*
X229857142Y-157954819D01*
X229857142Y-157954819D02*
X229952380Y-157954819D01*
X229952380Y-157954819D02*
X230095237Y-157907200D01*
X230095237Y-157907200D02*
X230190475Y-157811961D01*
X230190475Y-157811961D02*
X230238094Y-157716723D01*
X230238094Y-157716723D02*
X230285713Y-157526247D01*
X230285713Y-157526247D02*
X230285713Y-157383390D01*
X230285713Y-157383390D02*
X230238094Y-157192914D01*
X230238094Y-157192914D02*
X230190475Y-157097676D01*
X230190475Y-157097676D02*
X230095237Y-157002438D01*
X230095237Y-157002438D02*
X229952380Y-156954819D01*
X229952380Y-156954819D02*
X229857142Y-156954819D01*
X229857142Y-156954819D02*
X229714285Y-157002438D01*
X229714285Y-157002438D02*
X229666666Y-157050057D01*
X229095237Y-157383390D02*
X229190475Y-157335771D01*
X229190475Y-157335771D02*
X229238094Y-157288152D01*
X229238094Y-157288152D02*
X229285713Y-157192914D01*
X229285713Y-157192914D02*
X229285713Y-157145295D01*
X229285713Y-157145295D02*
X229238094Y-157050057D01*
X229238094Y-157050057D02*
X229190475Y-157002438D01*
X229190475Y-157002438D02*
X229095237Y-156954819D01*
X229095237Y-156954819D02*
X228904761Y-156954819D01*
X228904761Y-156954819D02*
X228809523Y-157002438D01*
X228809523Y-157002438D02*
X228761904Y-157050057D01*
X228761904Y-157050057D02*
X228714285Y-157145295D01*
X228714285Y-157145295D02*
X228714285Y-157192914D01*
X228714285Y-157192914D02*
X228761904Y-157288152D01*
X228761904Y-157288152D02*
X228809523Y-157335771D01*
X228809523Y-157335771D02*
X228904761Y-157383390D01*
X228904761Y-157383390D02*
X229095237Y-157383390D01*
X229095237Y-157383390D02*
X229190475Y-157431009D01*
X229190475Y-157431009D02*
X229238094Y-157478628D01*
X229238094Y-157478628D02*
X229285713Y-157573866D01*
X229285713Y-157573866D02*
X229285713Y-157764342D01*
X229285713Y-157764342D02*
X229238094Y-157859580D01*
X229238094Y-157859580D02*
X229190475Y-157907200D01*
X229190475Y-157907200D02*
X229095237Y-157954819D01*
X229095237Y-157954819D02*
X228904761Y-157954819D01*
X228904761Y-157954819D02*
X228809523Y-157907200D01*
X228809523Y-157907200D02*
X228761904Y-157859580D01*
X228761904Y-157859580D02*
X228714285Y-157764342D01*
X228714285Y-157764342D02*
X228714285Y-157573866D01*
X228714285Y-157573866D02*
X228761904Y-157478628D01*
X228761904Y-157478628D02*
X228809523Y-157431009D01*
X228809523Y-157431009D02*
X228904761Y-157383390D01*
X208450057Y-124904761D02*
X208402438Y-124809523D01*
X208402438Y-124809523D02*
X208307200Y-124714285D01*
X208307200Y-124714285D02*
X208164342Y-124571428D01*
X208164342Y-124571428D02*
X208116723Y-124476190D01*
X208116723Y-124476190D02*
X208116723Y-124380952D01*
X208354819Y-124428571D02*
X208307200Y-124333333D01*
X208307200Y-124333333D02*
X208211961Y-124238095D01*
X208211961Y-124238095D02*
X208021485Y-124190476D01*
X208021485Y-124190476D02*
X207688152Y-124190476D01*
X207688152Y-124190476D02*
X207497676Y-124238095D01*
X207497676Y-124238095D02*
X207402438Y-124333333D01*
X207402438Y-124333333D02*
X207354819Y-124428571D01*
X207354819Y-124428571D02*
X207354819Y-124619047D01*
X207354819Y-124619047D02*
X207402438Y-124714285D01*
X207402438Y-124714285D02*
X207497676Y-124809523D01*
X207497676Y-124809523D02*
X207688152Y-124857142D01*
X207688152Y-124857142D02*
X208021485Y-124857142D01*
X208021485Y-124857142D02*
X208211961Y-124809523D01*
X208211961Y-124809523D02*
X208307200Y-124714285D01*
X208307200Y-124714285D02*
X208354819Y-124619047D01*
X208354819Y-124619047D02*
X208354819Y-124428571D01*
X208354819Y-125809523D02*
X208354819Y-125238095D01*
X208354819Y-125523809D02*
X207354819Y-125523809D01*
X207354819Y-125523809D02*
X207497676Y-125428571D01*
X207497676Y-125428571D02*
X207592914Y-125333333D01*
X207592914Y-125333333D02*
X207640533Y-125238095D01*
X202066666Y-148359580D02*
X202114285Y-148407200D01*
X202114285Y-148407200D02*
X202257142Y-148454819D01*
X202257142Y-148454819D02*
X202352380Y-148454819D01*
X202352380Y-148454819D02*
X202495237Y-148407200D01*
X202495237Y-148407200D02*
X202590475Y-148311961D01*
X202590475Y-148311961D02*
X202638094Y-148216723D01*
X202638094Y-148216723D02*
X202685713Y-148026247D01*
X202685713Y-148026247D02*
X202685713Y-147883390D01*
X202685713Y-147883390D02*
X202638094Y-147692914D01*
X202638094Y-147692914D02*
X202590475Y-147597676D01*
X202590475Y-147597676D02*
X202495237Y-147502438D01*
X202495237Y-147502438D02*
X202352380Y-147454819D01*
X202352380Y-147454819D02*
X202257142Y-147454819D01*
X202257142Y-147454819D02*
X202114285Y-147502438D01*
X202114285Y-147502438D02*
X202066666Y-147550057D01*
X201733332Y-147454819D02*
X201066666Y-147454819D01*
X201066666Y-147454819D02*
X201495237Y-148454819D01*
X225554819Y-133357142D02*
X225078628Y-133023809D01*
X225554819Y-132785714D02*
X224554819Y-132785714D01*
X224554819Y-132785714D02*
X224554819Y-133166666D01*
X224554819Y-133166666D02*
X224602438Y-133261904D01*
X224602438Y-133261904D02*
X224650057Y-133309523D01*
X224650057Y-133309523D02*
X224745295Y-133357142D01*
X224745295Y-133357142D02*
X224888152Y-133357142D01*
X224888152Y-133357142D02*
X224983390Y-133309523D01*
X224983390Y-133309523D02*
X225031009Y-133261904D01*
X225031009Y-133261904D02*
X225078628Y-133166666D01*
X225078628Y-133166666D02*
X225078628Y-132785714D01*
X225554819Y-134309523D02*
X225554819Y-133738095D01*
X225554819Y-134023809D02*
X224554819Y-134023809D01*
X224554819Y-134023809D02*
X224697676Y-133928571D01*
X224697676Y-133928571D02*
X224792914Y-133833333D01*
X224792914Y-133833333D02*
X224840533Y-133738095D01*
X224888152Y-135166666D02*
X225554819Y-135166666D01*
X224507200Y-134928571D02*
X225221485Y-134690476D01*
X225221485Y-134690476D02*
X225221485Y-135309523D01*
X228154819Y-133357142D02*
X227678628Y-133023809D01*
X228154819Y-132785714D02*
X227154819Y-132785714D01*
X227154819Y-132785714D02*
X227154819Y-133166666D01*
X227154819Y-133166666D02*
X227202438Y-133261904D01*
X227202438Y-133261904D02*
X227250057Y-133309523D01*
X227250057Y-133309523D02*
X227345295Y-133357142D01*
X227345295Y-133357142D02*
X227488152Y-133357142D01*
X227488152Y-133357142D02*
X227583390Y-133309523D01*
X227583390Y-133309523D02*
X227631009Y-133261904D01*
X227631009Y-133261904D02*
X227678628Y-133166666D01*
X227678628Y-133166666D02*
X227678628Y-132785714D01*
X228154819Y-134309523D02*
X228154819Y-133738095D01*
X228154819Y-134023809D02*
X227154819Y-134023809D01*
X227154819Y-134023809D02*
X227297676Y-133928571D01*
X227297676Y-133928571D02*
X227392914Y-133833333D01*
X227392914Y-133833333D02*
X227440533Y-133738095D01*
X227154819Y-134928571D02*
X227154819Y-135023809D01*
X227154819Y-135023809D02*
X227202438Y-135119047D01*
X227202438Y-135119047D02*
X227250057Y-135166666D01*
X227250057Y-135166666D02*
X227345295Y-135214285D01*
X227345295Y-135214285D02*
X227535771Y-135261904D01*
X227535771Y-135261904D02*
X227773866Y-135261904D01*
X227773866Y-135261904D02*
X227964342Y-135214285D01*
X227964342Y-135214285D02*
X228059580Y-135166666D01*
X228059580Y-135166666D02*
X228107200Y-135119047D01*
X228107200Y-135119047D02*
X228154819Y-135023809D01*
X228154819Y-135023809D02*
X228154819Y-134928571D01*
X228154819Y-134928571D02*
X228107200Y-134833333D01*
X228107200Y-134833333D02*
X228059580Y-134785714D01*
X228059580Y-134785714D02*
X227964342Y-134738095D01*
X227964342Y-134738095D02*
X227773866Y-134690476D01*
X227773866Y-134690476D02*
X227535771Y-134690476D01*
X227535771Y-134690476D02*
X227345295Y-134738095D01*
X227345295Y-134738095D02*
X227250057Y-134785714D01*
X227250057Y-134785714D02*
X227202438Y-134833333D01*
X227202438Y-134833333D02*
X227154819Y-134928571D01*
X194661009Y-157516666D02*
X194661009Y-157183333D01*
X195184819Y-157183333D02*
X194184819Y-157183333D01*
X194184819Y-157183333D02*
X194184819Y-157659523D01*
X194280057Y-157992857D02*
X194232438Y-158040476D01*
X194232438Y-158040476D02*
X194184819Y-158135714D01*
X194184819Y-158135714D02*
X194184819Y-158373809D01*
X194184819Y-158373809D02*
X194232438Y-158469047D01*
X194232438Y-158469047D02*
X194280057Y-158516666D01*
X194280057Y-158516666D02*
X194375295Y-158564285D01*
X194375295Y-158564285D02*
X194470533Y-158564285D01*
X194470533Y-158564285D02*
X194613390Y-158516666D01*
X194613390Y-158516666D02*
X195184819Y-157945238D01*
X195184819Y-157945238D02*
X195184819Y-158564285D01*
X194454819Y-160266666D02*
X195169104Y-160266666D01*
X195169104Y-160266666D02*
X195311961Y-160219047D01*
X195311961Y-160219047D02*
X195407200Y-160123809D01*
X195407200Y-160123809D02*
X195454819Y-159980952D01*
X195454819Y-159980952D02*
X195454819Y-159885714D01*
X195454819Y-161266666D02*
X195454819Y-160695238D01*
X195454819Y-160980952D02*
X194454819Y-160980952D01*
X194454819Y-160980952D02*
X194597676Y-160885714D01*
X194597676Y-160885714D02*
X194692914Y-160790476D01*
X194692914Y-160790476D02*
X194740533Y-160695238D01*
X208642857Y-156154819D02*
X208976190Y-155678628D01*
X209214285Y-156154819D02*
X209214285Y-155154819D01*
X209214285Y-155154819D02*
X208833333Y-155154819D01*
X208833333Y-155154819D02*
X208738095Y-155202438D01*
X208738095Y-155202438D02*
X208690476Y-155250057D01*
X208690476Y-155250057D02*
X208642857Y-155345295D01*
X208642857Y-155345295D02*
X208642857Y-155488152D01*
X208642857Y-155488152D02*
X208690476Y-155583390D01*
X208690476Y-155583390D02*
X208738095Y-155631009D01*
X208738095Y-155631009D02*
X208833333Y-155678628D01*
X208833333Y-155678628D02*
X209214285Y-155678628D01*
X208261904Y-155250057D02*
X208214285Y-155202438D01*
X208214285Y-155202438D02*
X208119047Y-155154819D01*
X208119047Y-155154819D02*
X207880952Y-155154819D01*
X207880952Y-155154819D02*
X207785714Y-155202438D01*
X207785714Y-155202438D02*
X207738095Y-155250057D01*
X207738095Y-155250057D02*
X207690476Y-155345295D01*
X207690476Y-155345295D02*
X207690476Y-155440533D01*
X207690476Y-155440533D02*
X207738095Y-155583390D01*
X207738095Y-155583390D02*
X208309523Y-156154819D01*
X208309523Y-156154819D02*
X207690476Y-156154819D01*
X207309523Y-155250057D02*
X207261904Y-155202438D01*
X207261904Y-155202438D02*
X207166666Y-155154819D01*
X207166666Y-155154819D02*
X206928571Y-155154819D01*
X206928571Y-155154819D02*
X206833333Y-155202438D01*
X206833333Y-155202438D02*
X206785714Y-155250057D01*
X206785714Y-155250057D02*
X206738095Y-155345295D01*
X206738095Y-155345295D02*
X206738095Y-155440533D01*
X206738095Y-155440533D02*
X206785714Y-155583390D01*
X206785714Y-155583390D02*
X207357142Y-156154819D01*
X207357142Y-156154819D02*
X206738095Y-156154819D01*
X201254819Y-146133333D02*
X200778628Y-145800000D01*
X201254819Y-145561905D02*
X200254819Y-145561905D01*
X200254819Y-145561905D02*
X200254819Y-145942857D01*
X200254819Y-145942857D02*
X200302438Y-146038095D01*
X200302438Y-146038095D02*
X200350057Y-146085714D01*
X200350057Y-146085714D02*
X200445295Y-146133333D01*
X200445295Y-146133333D02*
X200588152Y-146133333D01*
X200588152Y-146133333D02*
X200683390Y-146085714D01*
X200683390Y-146085714D02*
X200731009Y-146038095D01*
X200731009Y-146038095D02*
X200778628Y-145942857D01*
X200778628Y-145942857D02*
X200778628Y-145561905D01*
X201254819Y-146609524D02*
X201254819Y-146800000D01*
X201254819Y-146800000D02*
X201207200Y-146895238D01*
X201207200Y-146895238D02*
X201159580Y-146942857D01*
X201159580Y-146942857D02*
X201016723Y-147038095D01*
X201016723Y-147038095D02*
X200826247Y-147085714D01*
X200826247Y-147085714D02*
X200445295Y-147085714D01*
X200445295Y-147085714D02*
X200350057Y-147038095D01*
X200350057Y-147038095D02*
X200302438Y-146990476D01*
X200302438Y-146990476D02*
X200254819Y-146895238D01*
X200254819Y-146895238D02*
X200254819Y-146704762D01*
X200254819Y-146704762D02*
X200302438Y-146609524D01*
X200302438Y-146609524D02*
X200350057Y-146561905D01*
X200350057Y-146561905D02*
X200445295Y-146514286D01*
X200445295Y-146514286D02*
X200683390Y-146514286D01*
X200683390Y-146514286D02*
X200778628Y-146561905D01*
X200778628Y-146561905D02*
X200826247Y-146609524D01*
X200826247Y-146609524D02*
X200873866Y-146704762D01*
X200873866Y-146704762D02*
X200873866Y-146895238D01*
X200873866Y-146895238D02*
X200826247Y-146990476D01*
X200826247Y-146990476D02*
X200778628Y-147038095D01*
X200778628Y-147038095D02*
X200683390Y-147085714D01*
X207729819Y-152957142D02*
X207253628Y-152623809D01*
X207729819Y-152385714D02*
X206729819Y-152385714D01*
X206729819Y-152385714D02*
X206729819Y-152766666D01*
X206729819Y-152766666D02*
X206777438Y-152861904D01*
X206777438Y-152861904D02*
X206825057Y-152909523D01*
X206825057Y-152909523D02*
X206920295Y-152957142D01*
X206920295Y-152957142D02*
X207063152Y-152957142D01*
X207063152Y-152957142D02*
X207158390Y-152909523D01*
X207158390Y-152909523D02*
X207206009Y-152861904D01*
X207206009Y-152861904D02*
X207253628Y-152766666D01*
X207253628Y-152766666D02*
X207253628Y-152385714D01*
X206825057Y-153338095D02*
X206777438Y-153385714D01*
X206777438Y-153385714D02*
X206729819Y-153480952D01*
X206729819Y-153480952D02*
X206729819Y-153719047D01*
X206729819Y-153719047D02*
X206777438Y-153814285D01*
X206777438Y-153814285D02*
X206825057Y-153861904D01*
X206825057Y-153861904D02*
X206920295Y-153909523D01*
X206920295Y-153909523D02*
X207015533Y-153909523D01*
X207015533Y-153909523D02*
X207158390Y-153861904D01*
X207158390Y-153861904D02*
X207729819Y-153290476D01*
X207729819Y-153290476D02*
X207729819Y-153909523D01*
X207729819Y-154861904D02*
X207729819Y-154290476D01*
X207729819Y-154576190D02*
X206729819Y-154576190D01*
X206729819Y-154576190D02*
X206872676Y-154480952D01*
X206872676Y-154480952D02*
X206967914Y-154385714D01*
X206967914Y-154385714D02*
X207015533Y-154290476D01*
X218695238Y-142350057D02*
X218790476Y-142302438D01*
X218790476Y-142302438D02*
X218885714Y-142207200D01*
X218885714Y-142207200D02*
X219028571Y-142064342D01*
X219028571Y-142064342D02*
X219123809Y-142016723D01*
X219123809Y-142016723D02*
X219219047Y-142016723D01*
X219171428Y-142254819D02*
X219266666Y-142207200D01*
X219266666Y-142207200D02*
X219361904Y-142111961D01*
X219361904Y-142111961D02*
X219409523Y-141921485D01*
X219409523Y-141921485D02*
X219409523Y-141588152D01*
X219409523Y-141588152D02*
X219361904Y-141397676D01*
X219361904Y-141397676D02*
X219266666Y-141302438D01*
X219266666Y-141302438D02*
X219171428Y-141254819D01*
X219171428Y-141254819D02*
X218980952Y-141254819D01*
X218980952Y-141254819D02*
X218885714Y-141302438D01*
X218885714Y-141302438D02*
X218790476Y-141397676D01*
X218790476Y-141397676D02*
X218742857Y-141588152D01*
X218742857Y-141588152D02*
X218742857Y-141921485D01*
X218742857Y-141921485D02*
X218790476Y-142111961D01*
X218790476Y-142111961D02*
X218885714Y-142207200D01*
X218885714Y-142207200D02*
X218980952Y-142254819D01*
X218980952Y-142254819D02*
X219171428Y-142254819D01*
X217885714Y-141588152D02*
X217885714Y-142254819D01*
X218123809Y-141207200D02*
X218361904Y-141921485D01*
X218361904Y-141921485D02*
X217742857Y-141921485D01*
X220959580Y-154357142D02*
X221007200Y-154309523D01*
X221007200Y-154309523D02*
X221054819Y-154166666D01*
X221054819Y-154166666D02*
X221054819Y-154071428D01*
X221054819Y-154071428D02*
X221007200Y-153928571D01*
X221007200Y-153928571D02*
X220911961Y-153833333D01*
X220911961Y-153833333D02*
X220816723Y-153785714D01*
X220816723Y-153785714D02*
X220626247Y-153738095D01*
X220626247Y-153738095D02*
X220483390Y-153738095D01*
X220483390Y-153738095D02*
X220292914Y-153785714D01*
X220292914Y-153785714D02*
X220197676Y-153833333D01*
X220197676Y-153833333D02*
X220102438Y-153928571D01*
X220102438Y-153928571D02*
X220054819Y-154071428D01*
X220054819Y-154071428D02*
X220054819Y-154166666D01*
X220054819Y-154166666D02*
X220102438Y-154309523D01*
X220102438Y-154309523D02*
X220150057Y-154357142D01*
X221054819Y-155309523D02*
X221054819Y-154738095D01*
X221054819Y-155023809D02*
X220054819Y-155023809D01*
X220054819Y-155023809D02*
X220197676Y-154928571D01*
X220197676Y-154928571D02*
X220292914Y-154833333D01*
X220292914Y-154833333D02*
X220340533Y-154738095D01*
X221054819Y-156261904D02*
X221054819Y-155690476D01*
X221054819Y-155976190D02*
X220054819Y-155976190D01*
X220054819Y-155976190D02*
X220197676Y-155880952D01*
X220197676Y-155880952D02*
X220292914Y-155785714D01*
X220292914Y-155785714D02*
X220340533Y-155690476D01*
X197354819Y-146157142D02*
X196878628Y-145823809D01*
X197354819Y-145585714D02*
X196354819Y-145585714D01*
X196354819Y-145585714D02*
X196354819Y-145966666D01*
X196354819Y-145966666D02*
X196402438Y-146061904D01*
X196402438Y-146061904D02*
X196450057Y-146109523D01*
X196450057Y-146109523D02*
X196545295Y-146157142D01*
X196545295Y-146157142D02*
X196688152Y-146157142D01*
X196688152Y-146157142D02*
X196783390Y-146109523D01*
X196783390Y-146109523D02*
X196831009Y-146061904D01*
X196831009Y-146061904D02*
X196878628Y-145966666D01*
X196878628Y-145966666D02*
X196878628Y-145585714D01*
X197354819Y-147109523D02*
X197354819Y-146538095D01*
X197354819Y-146823809D02*
X196354819Y-146823809D01*
X196354819Y-146823809D02*
X196497676Y-146728571D01*
X196497676Y-146728571D02*
X196592914Y-146633333D01*
X196592914Y-146633333D02*
X196640533Y-146538095D01*
X196450057Y-147490476D02*
X196402438Y-147538095D01*
X196402438Y-147538095D02*
X196354819Y-147633333D01*
X196354819Y-147633333D02*
X196354819Y-147871428D01*
X196354819Y-147871428D02*
X196402438Y-147966666D01*
X196402438Y-147966666D02*
X196450057Y-148014285D01*
X196450057Y-148014285D02*
X196545295Y-148061904D01*
X196545295Y-148061904D02*
X196640533Y-148061904D01*
X196640533Y-148061904D02*
X196783390Y-148014285D01*
X196783390Y-148014285D02*
X197354819Y-147442857D01*
X197354819Y-147442857D02*
X197354819Y-148061904D01*
X194454819Y-150266666D02*
X195169104Y-150266666D01*
X195169104Y-150266666D02*
X195311961Y-150219047D01*
X195311961Y-150219047D02*
X195407200Y-150123809D01*
X195407200Y-150123809D02*
X195454819Y-149980952D01*
X195454819Y-149980952D02*
X195454819Y-149885714D01*
X194454819Y-150647619D02*
X194454819Y-151266666D01*
X194454819Y-151266666D02*
X194835771Y-150933333D01*
X194835771Y-150933333D02*
X194835771Y-151076190D01*
X194835771Y-151076190D02*
X194883390Y-151171428D01*
X194883390Y-151171428D02*
X194931009Y-151219047D01*
X194931009Y-151219047D02*
X195026247Y-151266666D01*
X195026247Y-151266666D02*
X195264342Y-151266666D01*
X195264342Y-151266666D02*
X195359580Y-151219047D01*
X195359580Y-151219047D02*
X195407200Y-151171428D01*
X195407200Y-151171428D02*
X195454819Y-151076190D01*
X195454819Y-151076190D02*
X195454819Y-150790476D01*
X195454819Y-150790476D02*
X195407200Y-150695238D01*
X195407200Y-150695238D02*
X195359580Y-150647619D01*
X228461904Y-160854819D02*
X227890476Y-160854819D01*
X228176190Y-161854819D02*
X228176190Y-160854819D01*
X227557142Y-161854819D02*
X227557142Y-160854819D01*
X227557142Y-160854819D02*
X227176190Y-160854819D01*
X227176190Y-160854819D02*
X227080952Y-160902438D01*
X227080952Y-160902438D02*
X227033333Y-160950057D01*
X227033333Y-160950057D02*
X226985714Y-161045295D01*
X226985714Y-161045295D02*
X226985714Y-161188152D01*
X226985714Y-161188152D02*
X227033333Y-161283390D01*
X227033333Y-161283390D02*
X227080952Y-161331009D01*
X227080952Y-161331009D02*
X227176190Y-161378628D01*
X227176190Y-161378628D02*
X227557142Y-161378628D01*
X226128571Y-161188152D02*
X226128571Y-161854819D01*
X226366666Y-160807200D02*
X226604761Y-161521485D01*
X226604761Y-161521485D02*
X225985714Y-161521485D01*
X198138094Y-125054819D02*
X198138094Y-124054819D01*
X198138094Y-124054819D02*
X197899999Y-124054819D01*
X197899999Y-124054819D02*
X197757142Y-124102438D01*
X197757142Y-124102438D02*
X197661904Y-124197676D01*
X197661904Y-124197676D02*
X197614285Y-124292914D01*
X197614285Y-124292914D02*
X197566666Y-124483390D01*
X197566666Y-124483390D02*
X197566666Y-124626247D01*
X197566666Y-124626247D02*
X197614285Y-124816723D01*
X197614285Y-124816723D02*
X197661904Y-124911961D01*
X197661904Y-124911961D02*
X197757142Y-125007200D01*
X197757142Y-125007200D02*
X197899999Y-125054819D01*
X197899999Y-125054819D02*
X198138094Y-125054819D01*
X196709523Y-124054819D02*
X196899999Y-124054819D01*
X196899999Y-124054819D02*
X196995237Y-124102438D01*
X196995237Y-124102438D02*
X197042856Y-124150057D01*
X197042856Y-124150057D02*
X197138094Y-124292914D01*
X197138094Y-124292914D02*
X197185713Y-124483390D01*
X197185713Y-124483390D02*
X197185713Y-124864342D01*
X197185713Y-124864342D02*
X197138094Y-124959580D01*
X197138094Y-124959580D02*
X197090475Y-125007200D01*
X197090475Y-125007200D02*
X196995237Y-125054819D01*
X196995237Y-125054819D02*
X196804761Y-125054819D01*
X196804761Y-125054819D02*
X196709523Y-125007200D01*
X196709523Y-125007200D02*
X196661904Y-124959580D01*
X196661904Y-124959580D02*
X196614285Y-124864342D01*
X196614285Y-124864342D02*
X196614285Y-124626247D01*
X196614285Y-124626247D02*
X196661904Y-124531009D01*
X196661904Y-124531009D02*
X196709523Y-124483390D01*
X196709523Y-124483390D02*
X196804761Y-124435771D01*
X196804761Y-124435771D02*
X196995237Y-124435771D01*
X196995237Y-124435771D02*
X197090475Y-124483390D01*
X197090475Y-124483390D02*
X197138094Y-124531009D01*
X197138094Y-124531009D02*
X197185713Y-124626247D01*
X210529819Y-154157142D02*
X210053628Y-153823809D01*
X210529819Y-153585714D02*
X209529819Y-153585714D01*
X209529819Y-153585714D02*
X209529819Y-153966666D01*
X209529819Y-153966666D02*
X209577438Y-154061904D01*
X209577438Y-154061904D02*
X209625057Y-154109523D01*
X209625057Y-154109523D02*
X209720295Y-154157142D01*
X209720295Y-154157142D02*
X209863152Y-154157142D01*
X209863152Y-154157142D02*
X209958390Y-154109523D01*
X209958390Y-154109523D02*
X210006009Y-154061904D01*
X210006009Y-154061904D02*
X210053628Y-153966666D01*
X210053628Y-153966666D02*
X210053628Y-153585714D01*
X209625057Y-154538095D02*
X209577438Y-154585714D01*
X209577438Y-154585714D02*
X209529819Y-154680952D01*
X209529819Y-154680952D02*
X209529819Y-154919047D01*
X209529819Y-154919047D02*
X209577438Y-155014285D01*
X209577438Y-155014285D02*
X209625057Y-155061904D01*
X209625057Y-155061904D02*
X209720295Y-155109523D01*
X209720295Y-155109523D02*
X209815533Y-155109523D01*
X209815533Y-155109523D02*
X209958390Y-155061904D01*
X209958390Y-155061904D02*
X210529819Y-154490476D01*
X210529819Y-154490476D02*
X210529819Y-155109523D01*
X209529819Y-155442857D02*
X209529819Y-156061904D01*
X209529819Y-156061904D02*
X209910771Y-155728571D01*
X209910771Y-155728571D02*
X209910771Y-155871428D01*
X209910771Y-155871428D02*
X209958390Y-155966666D01*
X209958390Y-155966666D02*
X210006009Y-156014285D01*
X210006009Y-156014285D02*
X210101247Y-156061904D01*
X210101247Y-156061904D02*
X210339342Y-156061904D01*
X210339342Y-156061904D02*
X210434580Y-156014285D01*
X210434580Y-156014285D02*
X210482200Y-155966666D01*
X210482200Y-155966666D02*
X210529819Y-155871428D01*
X210529819Y-155871428D02*
X210529819Y-155585714D01*
X210529819Y-155585714D02*
X210482200Y-155490476D01*
X210482200Y-155490476D02*
X210434580Y-155442857D01*
X197242857Y-129159580D02*
X197290476Y-129207200D01*
X197290476Y-129207200D02*
X197433333Y-129254819D01*
X197433333Y-129254819D02*
X197528571Y-129254819D01*
X197528571Y-129254819D02*
X197671428Y-129207200D01*
X197671428Y-129207200D02*
X197766666Y-129111961D01*
X197766666Y-129111961D02*
X197814285Y-129016723D01*
X197814285Y-129016723D02*
X197861904Y-128826247D01*
X197861904Y-128826247D02*
X197861904Y-128683390D01*
X197861904Y-128683390D02*
X197814285Y-128492914D01*
X197814285Y-128492914D02*
X197766666Y-128397676D01*
X197766666Y-128397676D02*
X197671428Y-128302438D01*
X197671428Y-128302438D02*
X197528571Y-128254819D01*
X197528571Y-128254819D02*
X197433333Y-128254819D01*
X197433333Y-128254819D02*
X197290476Y-128302438D01*
X197290476Y-128302438D02*
X197242857Y-128350057D01*
X196861904Y-128350057D02*
X196814285Y-128302438D01*
X196814285Y-128302438D02*
X196719047Y-128254819D01*
X196719047Y-128254819D02*
X196480952Y-128254819D01*
X196480952Y-128254819D02*
X196385714Y-128302438D01*
X196385714Y-128302438D02*
X196338095Y-128350057D01*
X196338095Y-128350057D02*
X196290476Y-128445295D01*
X196290476Y-128445295D02*
X196290476Y-128540533D01*
X196290476Y-128540533D02*
X196338095Y-128683390D01*
X196338095Y-128683390D02*
X196909523Y-129254819D01*
X196909523Y-129254819D02*
X196290476Y-129254819D01*
X195909523Y-128350057D02*
X195861904Y-128302438D01*
X195861904Y-128302438D02*
X195766666Y-128254819D01*
X195766666Y-128254819D02*
X195528571Y-128254819D01*
X195528571Y-128254819D02*
X195433333Y-128302438D01*
X195433333Y-128302438D02*
X195385714Y-128350057D01*
X195385714Y-128350057D02*
X195338095Y-128445295D01*
X195338095Y-128445295D02*
X195338095Y-128540533D01*
X195338095Y-128540533D02*
X195385714Y-128683390D01*
X195385714Y-128683390D02*
X195957142Y-129254819D01*
X195957142Y-129254819D02*
X195338095Y-129254819D01*
X200066666Y-148359580D02*
X200114285Y-148407200D01*
X200114285Y-148407200D02*
X200257142Y-148454819D01*
X200257142Y-148454819D02*
X200352380Y-148454819D01*
X200352380Y-148454819D02*
X200495237Y-148407200D01*
X200495237Y-148407200D02*
X200590475Y-148311961D01*
X200590475Y-148311961D02*
X200638094Y-148216723D01*
X200638094Y-148216723D02*
X200685713Y-148026247D01*
X200685713Y-148026247D02*
X200685713Y-147883390D01*
X200685713Y-147883390D02*
X200638094Y-147692914D01*
X200638094Y-147692914D02*
X200590475Y-147597676D01*
X200590475Y-147597676D02*
X200495237Y-147502438D01*
X200495237Y-147502438D02*
X200352380Y-147454819D01*
X200352380Y-147454819D02*
X200257142Y-147454819D01*
X200257142Y-147454819D02*
X200114285Y-147502438D01*
X200114285Y-147502438D02*
X200066666Y-147550057D01*
X199590475Y-148454819D02*
X199399999Y-148454819D01*
X199399999Y-148454819D02*
X199304761Y-148407200D01*
X199304761Y-148407200D02*
X199257142Y-148359580D01*
X199257142Y-148359580D02*
X199161904Y-148216723D01*
X199161904Y-148216723D02*
X199114285Y-148026247D01*
X199114285Y-148026247D02*
X199114285Y-147645295D01*
X199114285Y-147645295D02*
X199161904Y-147550057D01*
X199161904Y-147550057D02*
X199209523Y-147502438D01*
X199209523Y-147502438D02*
X199304761Y-147454819D01*
X199304761Y-147454819D02*
X199495237Y-147454819D01*
X199495237Y-147454819D02*
X199590475Y-147502438D01*
X199590475Y-147502438D02*
X199638094Y-147550057D01*
X199638094Y-147550057D02*
X199685713Y-147645295D01*
X199685713Y-147645295D02*
X199685713Y-147883390D01*
X199685713Y-147883390D02*
X199638094Y-147978628D01*
X199638094Y-147978628D02*
X199590475Y-148026247D01*
X199590475Y-148026247D02*
X199495237Y-148073866D01*
X199495237Y-148073866D02*
X199304761Y-148073866D01*
X199304761Y-148073866D02*
X199209523Y-148026247D01*
X199209523Y-148026247D02*
X199161904Y-147978628D01*
X199161904Y-147978628D02*
X199114285Y-147883390D01*
X226854819Y-134333333D02*
X226378628Y-134000000D01*
X226854819Y-133761905D02*
X225854819Y-133761905D01*
X225854819Y-133761905D02*
X225854819Y-134142857D01*
X225854819Y-134142857D02*
X225902438Y-134238095D01*
X225902438Y-134238095D02*
X225950057Y-134285714D01*
X225950057Y-134285714D02*
X226045295Y-134333333D01*
X226045295Y-134333333D02*
X226188152Y-134333333D01*
X226188152Y-134333333D02*
X226283390Y-134285714D01*
X226283390Y-134285714D02*
X226331009Y-134238095D01*
X226331009Y-134238095D02*
X226378628Y-134142857D01*
X226378628Y-134142857D02*
X226378628Y-133761905D01*
X225854819Y-135238095D02*
X225854819Y-134761905D01*
X225854819Y-134761905D02*
X226331009Y-134714286D01*
X226331009Y-134714286D02*
X226283390Y-134761905D01*
X226283390Y-134761905D02*
X226235771Y-134857143D01*
X226235771Y-134857143D02*
X226235771Y-135095238D01*
X226235771Y-135095238D02*
X226283390Y-135190476D01*
X226283390Y-135190476D02*
X226331009Y-135238095D01*
X226331009Y-135238095D02*
X226426247Y-135285714D01*
X226426247Y-135285714D02*
X226664342Y-135285714D01*
X226664342Y-135285714D02*
X226759580Y-135238095D01*
X226759580Y-135238095D02*
X226807200Y-135190476D01*
X226807200Y-135190476D02*
X226854819Y-135095238D01*
X226854819Y-135095238D02*
X226854819Y-134857143D01*
X226854819Y-134857143D02*
X226807200Y-134761905D01*
X226807200Y-134761905D02*
X226759580Y-134714286D01*
D13*
X210857142Y-151642580D02*
X210523809Y-152118771D01*
X210285714Y-151642580D02*
X210285714Y-152642580D01*
X210285714Y-152642580D02*
X210666666Y-152642580D01*
X210666666Y-152642580D02*
X210761904Y-152594961D01*
X210761904Y-152594961D02*
X210809523Y-152547342D01*
X210809523Y-152547342D02*
X210857142Y-152452104D01*
X210857142Y-152452104D02*
X210857142Y-152309247D01*
X210857142Y-152309247D02*
X210809523Y-152214009D01*
X210809523Y-152214009D02*
X210761904Y-152166390D01*
X210761904Y-152166390D02*
X210666666Y-152118771D01*
X210666666Y-152118771D02*
X210285714Y-152118771D01*
X211238095Y-152547342D02*
X211285714Y-152594961D01*
X211285714Y-152594961D02*
X211380952Y-152642580D01*
X211380952Y-152642580D02*
X211619047Y-152642580D01*
X211619047Y-152642580D02*
X211714285Y-152594961D01*
X211714285Y-152594961D02*
X211761904Y-152547342D01*
X211761904Y-152547342D02*
X211809523Y-152452104D01*
X211809523Y-152452104D02*
X211809523Y-152356866D01*
X211809523Y-152356866D02*
X211761904Y-152214009D01*
X211761904Y-152214009D02*
X211190476Y-151642580D01*
X211190476Y-151642580D02*
X211809523Y-151642580D01*
X212142857Y-152642580D02*
X212809523Y-152642580D01*
X212809523Y-152642580D02*
X212380952Y-151642580D01*
D12*
X231154819Y-138561905D02*
X230154819Y-138561905D01*
X230154819Y-138561905D02*
X230154819Y-138800000D01*
X230154819Y-138800000D02*
X230202438Y-138942857D01*
X230202438Y-138942857D02*
X230297676Y-139038095D01*
X230297676Y-139038095D02*
X230392914Y-139085714D01*
X230392914Y-139085714D02*
X230583390Y-139133333D01*
X230583390Y-139133333D02*
X230726247Y-139133333D01*
X230726247Y-139133333D02*
X230916723Y-139085714D01*
X230916723Y-139085714D02*
X231011961Y-139038095D01*
X231011961Y-139038095D02*
X231107200Y-138942857D01*
X231107200Y-138942857D02*
X231154819Y-138800000D01*
X231154819Y-138800000D02*
X231154819Y-138561905D01*
X230250057Y-139514286D02*
X230202438Y-139561905D01*
X230202438Y-139561905D02*
X230154819Y-139657143D01*
X230154819Y-139657143D02*
X230154819Y-139895238D01*
X230154819Y-139895238D02*
X230202438Y-139990476D01*
X230202438Y-139990476D02*
X230250057Y-140038095D01*
X230250057Y-140038095D02*
X230345295Y-140085714D01*
X230345295Y-140085714D02*
X230440533Y-140085714D01*
X230440533Y-140085714D02*
X230583390Y-140038095D01*
X230583390Y-140038095D02*
X231154819Y-139466667D01*
X231154819Y-139466667D02*
X231154819Y-140085714D01*
X202454819Y-146133333D02*
X201978628Y-145800000D01*
X202454819Y-145561905D02*
X201454819Y-145561905D01*
X201454819Y-145561905D02*
X201454819Y-145942857D01*
X201454819Y-145942857D02*
X201502438Y-146038095D01*
X201502438Y-146038095D02*
X201550057Y-146085714D01*
X201550057Y-146085714D02*
X201645295Y-146133333D01*
X201645295Y-146133333D02*
X201788152Y-146133333D01*
X201788152Y-146133333D02*
X201883390Y-146085714D01*
X201883390Y-146085714D02*
X201931009Y-146038095D01*
X201931009Y-146038095D02*
X201978628Y-145942857D01*
X201978628Y-145942857D02*
X201978628Y-145561905D01*
X201550057Y-146514286D02*
X201502438Y-146561905D01*
X201502438Y-146561905D02*
X201454819Y-146657143D01*
X201454819Y-146657143D02*
X201454819Y-146895238D01*
X201454819Y-146895238D02*
X201502438Y-146990476D01*
X201502438Y-146990476D02*
X201550057Y-147038095D01*
X201550057Y-147038095D02*
X201645295Y-147085714D01*
X201645295Y-147085714D02*
X201740533Y-147085714D01*
X201740533Y-147085714D02*
X201883390Y-147038095D01*
X201883390Y-147038095D02*
X202454819Y-146466667D01*
X202454819Y-146466667D02*
X202454819Y-147085714D01*
D13*
X215357142Y-151642580D02*
X215023809Y-152118771D01*
X214785714Y-151642580D02*
X214785714Y-152642580D01*
X214785714Y-152642580D02*
X215166666Y-152642580D01*
X215166666Y-152642580D02*
X215261904Y-152594961D01*
X215261904Y-152594961D02*
X215309523Y-152547342D01*
X215309523Y-152547342D02*
X215357142Y-152452104D01*
X215357142Y-152452104D02*
X215357142Y-152309247D01*
X215357142Y-152309247D02*
X215309523Y-152214009D01*
X215309523Y-152214009D02*
X215261904Y-152166390D01*
X215261904Y-152166390D02*
X215166666Y-152118771D01*
X215166666Y-152118771D02*
X214785714Y-152118771D01*
X216309523Y-151642580D02*
X215738095Y-151642580D01*
X216023809Y-151642580D02*
X216023809Y-152642580D01*
X216023809Y-152642580D02*
X215928571Y-152499723D01*
X215928571Y-152499723D02*
X215833333Y-152404485D01*
X215833333Y-152404485D02*
X215738095Y-152356866D01*
X216880952Y-152214009D02*
X216785714Y-152261628D01*
X216785714Y-152261628D02*
X216738095Y-152309247D01*
X216738095Y-152309247D02*
X216690476Y-152404485D01*
X216690476Y-152404485D02*
X216690476Y-152452104D01*
X216690476Y-152452104D02*
X216738095Y-152547342D01*
X216738095Y-152547342D02*
X216785714Y-152594961D01*
X216785714Y-152594961D02*
X216880952Y-152642580D01*
X216880952Y-152642580D02*
X217071428Y-152642580D01*
X217071428Y-152642580D02*
X217166666Y-152594961D01*
X217166666Y-152594961D02*
X217214285Y-152547342D01*
X217214285Y-152547342D02*
X217261904Y-152452104D01*
X217261904Y-152452104D02*
X217261904Y-152404485D01*
X217261904Y-152404485D02*
X217214285Y-152309247D01*
X217214285Y-152309247D02*
X217166666Y-152261628D01*
X217166666Y-152261628D02*
X217071428Y-152214009D01*
X217071428Y-152214009D02*
X216880952Y-152214009D01*
X216880952Y-152214009D02*
X216785714Y-152166390D01*
X216785714Y-152166390D02*
X216738095Y-152118771D01*
X216738095Y-152118771D02*
X216690476Y-152023533D01*
X216690476Y-152023533D02*
X216690476Y-151833057D01*
X216690476Y-151833057D02*
X216738095Y-151737819D01*
X216738095Y-151737819D02*
X216785714Y-151690200D01*
X216785714Y-151690200D02*
X216880952Y-151642580D01*
X216880952Y-151642580D02*
X217071428Y-151642580D01*
X217071428Y-151642580D02*
X217166666Y-151690200D01*
X217166666Y-151690200D02*
X217214285Y-151737819D01*
X217214285Y-151737819D02*
X217261904Y-151833057D01*
X217261904Y-151833057D02*
X217261904Y-152023533D01*
X217261904Y-152023533D02*
X217214285Y-152118771D01*
X217214285Y-152118771D02*
X217166666Y-152166390D01*
X217166666Y-152166390D02*
X217071428Y-152214009D01*
D12*
X223061904Y-141706819D02*
X222490476Y-141706819D01*
X222776190Y-142706819D02*
X222776190Y-141706819D01*
X222157142Y-142706819D02*
X222157142Y-141706819D01*
X222157142Y-141706819D02*
X221776190Y-141706819D01*
X221776190Y-141706819D02*
X221680952Y-141754438D01*
X221680952Y-141754438D02*
X221633333Y-141802057D01*
X221633333Y-141802057D02*
X221585714Y-141897295D01*
X221585714Y-141897295D02*
X221585714Y-142040152D01*
X221585714Y-142040152D02*
X221633333Y-142135390D01*
X221633333Y-142135390D02*
X221680952Y-142183009D01*
X221680952Y-142183009D02*
X221776190Y-142230628D01*
X221776190Y-142230628D02*
X222157142Y-142230628D01*
X220680952Y-141706819D02*
X221157142Y-141706819D01*
X221157142Y-141706819D02*
X221204761Y-142183009D01*
X221204761Y-142183009D02*
X221157142Y-142135390D01*
X221157142Y-142135390D02*
X221061904Y-142087771D01*
X221061904Y-142087771D02*
X220823809Y-142087771D01*
X220823809Y-142087771D02*
X220728571Y-142135390D01*
X220728571Y-142135390D02*
X220680952Y-142183009D01*
X220680952Y-142183009D02*
X220633333Y-142278247D01*
X220633333Y-142278247D02*
X220633333Y-142516342D01*
X220633333Y-142516342D02*
X220680952Y-142611580D01*
X220680952Y-142611580D02*
X220728571Y-142659200D01*
X220728571Y-142659200D02*
X220823809Y-142706819D01*
X220823809Y-142706819D02*
X221061904Y-142706819D01*
X221061904Y-142706819D02*
X221157142Y-142659200D01*
X221157142Y-142659200D02*
X221204761Y-142611580D01*
X224254819Y-133357142D02*
X223778628Y-133023809D01*
X224254819Y-132785714D02*
X223254819Y-132785714D01*
X223254819Y-132785714D02*
X223254819Y-133166666D01*
X223254819Y-133166666D02*
X223302438Y-133261904D01*
X223302438Y-133261904D02*
X223350057Y-133309523D01*
X223350057Y-133309523D02*
X223445295Y-133357142D01*
X223445295Y-133357142D02*
X223588152Y-133357142D01*
X223588152Y-133357142D02*
X223683390Y-133309523D01*
X223683390Y-133309523D02*
X223731009Y-133261904D01*
X223731009Y-133261904D02*
X223778628Y-133166666D01*
X223778628Y-133166666D02*
X223778628Y-132785714D01*
X224254819Y-134309523D02*
X224254819Y-133738095D01*
X224254819Y-134023809D02*
X223254819Y-134023809D01*
X223254819Y-134023809D02*
X223397676Y-133928571D01*
X223397676Y-133928571D02*
X223492914Y-133833333D01*
X223492914Y-133833333D02*
X223540533Y-133738095D01*
X224254819Y-135261904D02*
X224254819Y-134690476D01*
X224254819Y-134976190D02*
X223254819Y-134976190D01*
X223254819Y-134976190D02*
X223397676Y-134880952D01*
X223397676Y-134880952D02*
X223492914Y-134785714D01*
X223492914Y-134785714D02*
X223540533Y-134690476D01*
X221054819Y-157157142D02*
X220578628Y-156823809D01*
X221054819Y-156585714D02*
X220054819Y-156585714D01*
X220054819Y-156585714D02*
X220054819Y-156966666D01*
X220054819Y-156966666D02*
X220102438Y-157061904D01*
X220102438Y-157061904D02*
X220150057Y-157109523D01*
X220150057Y-157109523D02*
X220245295Y-157157142D01*
X220245295Y-157157142D02*
X220388152Y-157157142D01*
X220388152Y-157157142D02*
X220483390Y-157109523D01*
X220483390Y-157109523D02*
X220531009Y-157061904D01*
X220531009Y-157061904D02*
X220578628Y-156966666D01*
X220578628Y-156966666D02*
X220578628Y-156585714D01*
X220150057Y-157538095D02*
X220102438Y-157585714D01*
X220102438Y-157585714D02*
X220054819Y-157680952D01*
X220054819Y-157680952D02*
X220054819Y-157919047D01*
X220054819Y-157919047D02*
X220102438Y-158014285D01*
X220102438Y-158014285D02*
X220150057Y-158061904D01*
X220150057Y-158061904D02*
X220245295Y-158109523D01*
X220245295Y-158109523D02*
X220340533Y-158109523D01*
X220340533Y-158109523D02*
X220483390Y-158061904D01*
X220483390Y-158061904D02*
X221054819Y-157490476D01*
X221054819Y-157490476D02*
X221054819Y-158109523D01*
X220054819Y-159014285D02*
X220054819Y-158538095D01*
X220054819Y-158538095D02*
X220531009Y-158490476D01*
X220531009Y-158490476D02*
X220483390Y-158538095D01*
X220483390Y-158538095D02*
X220435771Y-158633333D01*
X220435771Y-158633333D02*
X220435771Y-158871428D01*
X220435771Y-158871428D02*
X220483390Y-158966666D01*
X220483390Y-158966666D02*
X220531009Y-159014285D01*
X220531009Y-159014285D02*
X220626247Y-159061904D01*
X220626247Y-159061904D02*
X220864342Y-159061904D01*
X220864342Y-159061904D02*
X220959580Y-159014285D01*
X220959580Y-159014285D02*
X221007200Y-158966666D01*
X221007200Y-158966666D02*
X221054819Y-158871428D01*
X221054819Y-158871428D02*
X221054819Y-158633333D01*
X221054819Y-158633333D02*
X221007200Y-158538095D01*
X221007200Y-158538095D02*
X220959580Y-158490476D01*
X209161904Y-150754819D02*
X208590476Y-150754819D01*
X208876190Y-151754819D02*
X208876190Y-150754819D01*
X208257142Y-151754819D02*
X208257142Y-150754819D01*
X208257142Y-150754819D02*
X207876190Y-150754819D01*
X207876190Y-150754819D02*
X207780952Y-150802438D01*
X207780952Y-150802438D02*
X207733333Y-150850057D01*
X207733333Y-150850057D02*
X207685714Y-150945295D01*
X207685714Y-150945295D02*
X207685714Y-151088152D01*
X207685714Y-151088152D02*
X207733333Y-151183390D01*
X207733333Y-151183390D02*
X207780952Y-151231009D01*
X207780952Y-151231009D02*
X207876190Y-151278628D01*
X207876190Y-151278628D02*
X208257142Y-151278628D01*
X207304761Y-150850057D02*
X207257142Y-150802438D01*
X207257142Y-150802438D02*
X207161904Y-150754819D01*
X207161904Y-150754819D02*
X206923809Y-150754819D01*
X206923809Y-150754819D02*
X206828571Y-150802438D01*
X206828571Y-150802438D02*
X206780952Y-150850057D01*
X206780952Y-150850057D02*
X206733333Y-150945295D01*
X206733333Y-150945295D02*
X206733333Y-151040533D01*
X206733333Y-151040533D02*
X206780952Y-151183390D01*
X206780952Y-151183390D02*
X207352380Y-151754819D01*
X207352380Y-151754819D02*
X206733333Y-151754819D01*
X208642857Y-157454819D02*
X208976190Y-156978628D01*
X209214285Y-157454819D02*
X209214285Y-156454819D01*
X209214285Y-156454819D02*
X208833333Y-156454819D01*
X208833333Y-156454819D02*
X208738095Y-156502438D01*
X208738095Y-156502438D02*
X208690476Y-156550057D01*
X208690476Y-156550057D02*
X208642857Y-156645295D01*
X208642857Y-156645295D02*
X208642857Y-156788152D01*
X208642857Y-156788152D02*
X208690476Y-156883390D01*
X208690476Y-156883390D02*
X208738095Y-156931009D01*
X208738095Y-156931009D02*
X208833333Y-156978628D01*
X208833333Y-156978628D02*
X209214285Y-156978628D01*
X208261904Y-156550057D02*
X208214285Y-156502438D01*
X208214285Y-156502438D02*
X208119047Y-156454819D01*
X208119047Y-156454819D02*
X207880952Y-156454819D01*
X207880952Y-156454819D02*
X207785714Y-156502438D01*
X207785714Y-156502438D02*
X207738095Y-156550057D01*
X207738095Y-156550057D02*
X207690476Y-156645295D01*
X207690476Y-156645295D02*
X207690476Y-156740533D01*
X207690476Y-156740533D02*
X207738095Y-156883390D01*
X207738095Y-156883390D02*
X208309523Y-157454819D01*
X208309523Y-157454819D02*
X207690476Y-157454819D01*
X206833333Y-156454819D02*
X207023809Y-156454819D01*
X207023809Y-156454819D02*
X207119047Y-156502438D01*
X207119047Y-156502438D02*
X207166666Y-156550057D01*
X207166666Y-156550057D02*
X207261904Y-156692914D01*
X207261904Y-156692914D02*
X207309523Y-156883390D01*
X207309523Y-156883390D02*
X207309523Y-157264342D01*
X207309523Y-157264342D02*
X207261904Y-157359580D01*
X207261904Y-157359580D02*
X207214285Y-157407200D01*
X207214285Y-157407200D02*
X207119047Y-157454819D01*
X207119047Y-157454819D02*
X206928571Y-157454819D01*
X206928571Y-157454819D02*
X206833333Y-157407200D01*
X206833333Y-157407200D02*
X206785714Y-157359580D01*
X206785714Y-157359580D02*
X206738095Y-157264342D01*
X206738095Y-157264342D02*
X206738095Y-157026247D01*
X206738095Y-157026247D02*
X206785714Y-156931009D01*
X206785714Y-156931009D02*
X206833333Y-156883390D01*
X206833333Y-156883390D02*
X206928571Y-156835771D01*
X206928571Y-156835771D02*
X207119047Y-156835771D01*
X207119047Y-156835771D02*
X207214285Y-156883390D01*
X207214285Y-156883390D02*
X207261904Y-156931009D01*
X207261904Y-156931009D02*
X207309523Y-157026247D01*
X210529819Y-156957142D02*
X210053628Y-156623809D01*
X210529819Y-156385714D02*
X209529819Y-156385714D01*
X209529819Y-156385714D02*
X209529819Y-156766666D01*
X209529819Y-156766666D02*
X209577438Y-156861904D01*
X209577438Y-156861904D02*
X209625057Y-156909523D01*
X209625057Y-156909523D02*
X209720295Y-156957142D01*
X209720295Y-156957142D02*
X209863152Y-156957142D01*
X209863152Y-156957142D02*
X209958390Y-156909523D01*
X209958390Y-156909523D02*
X210006009Y-156861904D01*
X210006009Y-156861904D02*
X210053628Y-156766666D01*
X210053628Y-156766666D02*
X210053628Y-156385714D01*
X210529819Y-157909523D02*
X210529819Y-157338095D01*
X210529819Y-157623809D02*
X209529819Y-157623809D01*
X209529819Y-157623809D02*
X209672676Y-157528571D01*
X209672676Y-157528571D02*
X209767914Y-157433333D01*
X209767914Y-157433333D02*
X209815533Y-157338095D01*
X210529819Y-158385714D02*
X210529819Y-158576190D01*
X210529819Y-158576190D02*
X210482200Y-158671428D01*
X210482200Y-158671428D02*
X210434580Y-158719047D01*
X210434580Y-158719047D02*
X210291723Y-158814285D01*
X210291723Y-158814285D02*
X210101247Y-158861904D01*
X210101247Y-158861904D02*
X209720295Y-158861904D01*
X209720295Y-158861904D02*
X209625057Y-158814285D01*
X209625057Y-158814285D02*
X209577438Y-158766666D01*
X209577438Y-158766666D02*
X209529819Y-158671428D01*
X209529819Y-158671428D02*
X209529819Y-158480952D01*
X209529819Y-158480952D02*
X209577438Y-158385714D01*
X209577438Y-158385714D02*
X209625057Y-158338095D01*
X209625057Y-158338095D02*
X209720295Y-158290476D01*
X209720295Y-158290476D02*
X209958390Y-158290476D01*
X209958390Y-158290476D02*
X210053628Y-158338095D01*
X210053628Y-158338095D02*
X210101247Y-158385714D01*
X210101247Y-158385714D02*
X210148866Y-158480952D01*
X210148866Y-158480952D02*
X210148866Y-158671428D01*
X210148866Y-158671428D02*
X210101247Y-158766666D01*
X210101247Y-158766666D02*
X210053628Y-158814285D01*
X210053628Y-158814285D02*
X209958390Y-158861904D01*
X209161904Y-142454819D02*
X208590476Y-142454819D01*
X208876190Y-143454819D02*
X208876190Y-142454819D01*
X208257142Y-143454819D02*
X208257142Y-142454819D01*
X208257142Y-142454819D02*
X207876190Y-142454819D01*
X207876190Y-142454819D02*
X207780952Y-142502438D01*
X207780952Y-142502438D02*
X207733333Y-142550057D01*
X207733333Y-142550057D02*
X207685714Y-142645295D01*
X207685714Y-142645295D02*
X207685714Y-142788152D01*
X207685714Y-142788152D02*
X207733333Y-142883390D01*
X207733333Y-142883390D02*
X207780952Y-142931009D01*
X207780952Y-142931009D02*
X207876190Y-142978628D01*
X207876190Y-142978628D02*
X208257142Y-142978628D01*
X206733333Y-143454819D02*
X207304761Y-143454819D01*
X207019047Y-143454819D02*
X207019047Y-142454819D01*
X207019047Y-142454819D02*
X207114285Y-142597676D01*
X207114285Y-142597676D02*
X207209523Y-142692914D01*
X207209523Y-142692914D02*
X207304761Y-142740533D01*
X198654819Y-146157142D02*
X198178628Y-145823809D01*
X198654819Y-145585714D02*
X197654819Y-145585714D01*
X197654819Y-145585714D02*
X197654819Y-145966666D01*
X197654819Y-145966666D02*
X197702438Y-146061904D01*
X197702438Y-146061904D02*
X197750057Y-146109523D01*
X197750057Y-146109523D02*
X197845295Y-146157142D01*
X197845295Y-146157142D02*
X197988152Y-146157142D01*
X197988152Y-146157142D02*
X198083390Y-146109523D01*
X198083390Y-146109523D02*
X198131009Y-146061904D01*
X198131009Y-146061904D02*
X198178628Y-145966666D01*
X198178628Y-145966666D02*
X198178628Y-145585714D01*
X198654819Y-147109523D02*
X198654819Y-146538095D01*
X198654819Y-146823809D02*
X197654819Y-146823809D01*
X197654819Y-146823809D02*
X197797676Y-146728571D01*
X197797676Y-146728571D02*
X197892914Y-146633333D01*
X197892914Y-146633333D02*
X197940533Y-146538095D01*
X197654819Y-147442857D02*
X197654819Y-148061904D01*
X197654819Y-148061904D02*
X198035771Y-147728571D01*
X198035771Y-147728571D02*
X198035771Y-147871428D01*
X198035771Y-147871428D02*
X198083390Y-147966666D01*
X198083390Y-147966666D02*
X198131009Y-148014285D01*
X198131009Y-148014285D02*
X198226247Y-148061904D01*
X198226247Y-148061904D02*
X198464342Y-148061904D01*
X198464342Y-148061904D02*
X198559580Y-148014285D01*
X198559580Y-148014285D02*
X198607200Y-147966666D01*
X198607200Y-147966666D02*
X198654819Y-147871428D01*
X198654819Y-147871428D02*
X198654819Y-147585714D01*
X198654819Y-147585714D02*
X198607200Y-147490476D01*
X198607200Y-147490476D02*
X198559580Y-147442857D01*
X209034580Y-152957142D02*
X209082200Y-152909523D01*
X209082200Y-152909523D02*
X209129819Y-152766666D01*
X209129819Y-152766666D02*
X209129819Y-152671428D01*
X209129819Y-152671428D02*
X209082200Y-152528571D01*
X209082200Y-152528571D02*
X208986961Y-152433333D01*
X208986961Y-152433333D02*
X208891723Y-152385714D01*
X208891723Y-152385714D02*
X208701247Y-152338095D01*
X208701247Y-152338095D02*
X208558390Y-152338095D01*
X208558390Y-152338095D02*
X208367914Y-152385714D01*
X208367914Y-152385714D02*
X208272676Y-152433333D01*
X208272676Y-152433333D02*
X208177438Y-152528571D01*
X208177438Y-152528571D02*
X208129819Y-152671428D01*
X208129819Y-152671428D02*
X208129819Y-152766666D01*
X208129819Y-152766666D02*
X208177438Y-152909523D01*
X208177438Y-152909523D02*
X208225057Y-152957142D01*
X209129819Y-153909523D02*
X209129819Y-153338095D01*
X209129819Y-153623809D02*
X208129819Y-153623809D01*
X208129819Y-153623809D02*
X208272676Y-153528571D01*
X208272676Y-153528571D02*
X208367914Y-153433333D01*
X208367914Y-153433333D02*
X208415533Y-153338095D01*
X208129819Y-154528571D02*
X208129819Y-154623809D01*
X208129819Y-154623809D02*
X208177438Y-154719047D01*
X208177438Y-154719047D02*
X208225057Y-154766666D01*
X208225057Y-154766666D02*
X208320295Y-154814285D01*
X208320295Y-154814285D02*
X208510771Y-154861904D01*
X208510771Y-154861904D02*
X208748866Y-154861904D01*
X208748866Y-154861904D02*
X208939342Y-154814285D01*
X208939342Y-154814285D02*
X209034580Y-154766666D01*
X209034580Y-154766666D02*
X209082200Y-154719047D01*
X209082200Y-154719047D02*
X209129819Y-154623809D01*
X209129819Y-154623809D02*
X209129819Y-154528571D01*
X209129819Y-154528571D02*
X209082200Y-154433333D01*
X209082200Y-154433333D02*
X209034580Y-154385714D01*
X209034580Y-154385714D02*
X208939342Y-154338095D01*
X208939342Y-154338095D02*
X208748866Y-154290476D01*
X208748866Y-154290476D02*
X208510771Y-154290476D01*
X208510771Y-154290476D02*
X208320295Y-154338095D01*
X208320295Y-154338095D02*
X208225057Y-154385714D01*
X208225057Y-154385714D02*
X208177438Y-154433333D01*
X208177438Y-154433333D02*
X208129819Y-154528571D01*
X229454819Y-134333333D02*
X228978628Y-134000000D01*
X229454819Y-133761905D02*
X228454819Y-133761905D01*
X228454819Y-133761905D02*
X228454819Y-134142857D01*
X228454819Y-134142857D02*
X228502438Y-134238095D01*
X228502438Y-134238095D02*
X228550057Y-134285714D01*
X228550057Y-134285714D02*
X228645295Y-134333333D01*
X228645295Y-134333333D02*
X228788152Y-134333333D01*
X228788152Y-134333333D02*
X228883390Y-134285714D01*
X228883390Y-134285714D02*
X228931009Y-134238095D01*
X228931009Y-134238095D02*
X228978628Y-134142857D01*
X228978628Y-134142857D02*
X228978628Y-133761905D01*
X229454819Y-135285714D02*
X229454819Y-134714286D01*
X229454819Y-135000000D02*
X228454819Y-135000000D01*
X228454819Y-135000000D02*
X228597676Y-134904762D01*
X228597676Y-134904762D02*
X228692914Y-134809524D01*
X228692914Y-134809524D02*
X228740533Y-134714286D01*
X210295238Y-142350057D02*
X210390476Y-142302438D01*
X210390476Y-142302438D02*
X210485714Y-142207200D01*
X210485714Y-142207200D02*
X210628571Y-142064342D01*
X210628571Y-142064342D02*
X210723809Y-142016723D01*
X210723809Y-142016723D02*
X210819047Y-142016723D01*
X210771428Y-142254819D02*
X210866666Y-142207200D01*
X210866666Y-142207200D02*
X210961904Y-142111961D01*
X210961904Y-142111961D02*
X211009523Y-141921485D01*
X211009523Y-141921485D02*
X211009523Y-141588152D01*
X211009523Y-141588152D02*
X210961904Y-141397676D01*
X210961904Y-141397676D02*
X210866666Y-141302438D01*
X210866666Y-141302438D02*
X210771428Y-141254819D01*
X210771428Y-141254819D02*
X210580952Y-141254819D01*
X210580952Y-141254819D02*
X210485714Y-141302438D01*
X210485714Y-141302438D02*
X210390476Y-141397676D01*
X210390476Y-141397676D02*
X210342857Y-141588152D01*
X210342857Y-141588152D02*
X210342857Y-141921485D01*
X210342857Y-141921485D02*
X210390476Y-142111961D01*
X210390476Y-142111961D02*
X210485714Y-142207200D01*
X210485714Y-142207200D02*
X210580952Y-142254819D01*
X210580952Y-142254819D02*
X210771428Y-142254819D01*
X209485714Y-141254819D02*
X209676190Y-141254819D01*
X209676190Y-141254819D02*
X209771428Y-141302438D01*
X209771428Y-141302438D02*
X209819047Y-141350057D01*
X209819047Y-141350057D02*
X209914285Y-141492914D01*
X209914285Y-141492914D02*
X209961904Y-141683390D01*
X209961904Y-141683390D02*
X209961904Y-142064342D01*
X209961904Y-142064342D02*
X209914285Y-142159580D01*
X209914285Y-142159580D02*
X209866666Y-142207200D01*
X209866666Y-142207200D02*
X209771428Y-142254819D01*
X209771428Y-142254819D02*
X209580952Y-142254819D01*
X209580952Y-142254819D02*
X209485714Y-142207200D01*
X209485714Y-142207200D02*
X209438095Y-142159580D01*
X209438095Y-142159580D02*
X209390476Y-142064342D01*
X209390476Y-142064342D02*
X209390476Y-141826247D01*
X209390476Y-141826247D02*
X209438095Y-141731009D01*
X209438095Y-141731009D02*
X209485714Y-141683390D01*
X209485714Y-141683390D02*
X209580952Y-141635771D01*
X209580952Y-141635771D02*
X209771428Y-141635771D01*
X209771428Y-141635771D02*
X209866666Y-141683390D01*
X209866666Y-141683390D02*
X209914285Y-141731009D01*
X209914285Y-141731009D02*
X209961904Y-141826247D01*
X208642857Y-158754819D02*
X208976190Y-158278628D01*
X209214285Y-158754819D02*
X209214285Y-157754819D01*
X209214285Y-157754819D02*
X208833333Y-157754819D01*
X208833333Y-157754819D02*
X208738095Y-157802438D01*
X208738095Y-157802438D02*
X208690476Y-157850057D01*
X208690476Y-157850057D02*
X208642857Y-157945295D01*
X208642857Y-157945295D02*
X208642857Y-158088152D01*
X208642857Y-158088152D02*
X208690476Y-158183390D01*
X208690476Y-158183390D02*
X208738095Y-158231009D01*
X208738095Y-158231009D02*
X208833333Y-158278628D01*
X208833333Y-158278628D02*
X209214285Y-158278628D01*
X208261904Y-157850057D02*
X208214285Y-157802438D01*
X208214285Y-157802438D02*
X208119047Y-157754819D01*
X208119047Y-157754819D02*
X207880952Y-157754819D01*
X207880952Y-157754819D02*
X207785714Y-157802438D01*
X207785714Y-157802438D02*
X207738095Y-157850057D01*
X207738095Y-157850057D02*
X207690476Y-157945295D01*
X207690476Y-157945295D02*
X207690476Y-158040533D01*
X207690476Y-158040533D02*
X207738095Y-158183390D01*
X207738095Y-158183390D02*
X208309523Y-158754819D01*
X208309523Y-158754819D02*
X207690476Y-158754819D01*
X206833333Y-158088152D02*
X206833333Y-158754819D01*
X207071428Y-157707200D02*
X207309523Y-158421485D01*
X207309523Y-158421485D02*
X206690476Y-158421485D01*
X231054819Y-143438095D02*
X231864342Y-143438095D01*
X231864342Y-143438095D02*
X231959580Y-143485714D01*
X231959580Y-143485714D02*
X232007200Y-143533333D01*
X232007200Y-143533333D02*
X232054819Y-143628571D01*
X232054819Y-143628571D02*
X232054819Y-143819047D01*
X232054819Y-143819047D02*
X232007200Y-143914285D01*
X232007200Y-143914285D02*
X231959580Y-143961904D01*
X231959580Y-143961904D02*
X231864342Y-144009523D01*
X231864342Y-144009523D02*
X231054819Y-144009523D01*
X232054819Y-145009523D02*
X232054819Y-144438095D01*
X232054819Y-144723809D02*
X231054819Y-144723809D01*
X231054819Y-144723809D02*
X231197676Y-144628571D01*
X231197676Y-144628571D02*
X231292914Y-144533333D01*
X231292914Y-144533333D02*
X231340533Y-144438095D01*
X232354819Y-138561905D02*
X231354819Y-138561905D01*
X231354819Y-138561905D02*
X231354819Y-138800000D01*
X231354819Y-138800000D02*
X231402438Y-138942857D01*
X231402438Y-138942857D02*
X231497676Y-139038095D01*
X231497676Y-139038095D02*
X231592914Y-139085714D01*
X231592914Y-139085714D02*
X231783390Y-139133333D01*
X231783390Y-139133333D02*
X231926247Y-139133333D01*
X231926247Y-139133333D02*
X232116723Y-139085714D01*
X232116723Y-139085714D02*
X232211961Y-139038095D01*
X232211961Y-139038095D02*
X232307200Y-138942857D01*
X232307200Y-138942857D02*
X232354819Y-138800000D01*
X232354819Y-138800000D02*
X232354819Y-138561905D01*
X232354819Y-140085714D02*
X232354819Y-139514286D01*
X232354819Y-139800000D02*
X231354819Y-139800000D01*
X231354819Y-139800000D02*
X231497676Y-139704762D01*
X231497676Y-139704762D02*
X231592914Y-139609524D01*
X231592914Y-139609524D02*
X231640533Y-139514286D01*
X223016666Y-154059580D02*
X223064285Y-154107200D01*
X223064285Y-154107200D02*
X223207142Y-154154819D01*
X223207142Y-154154819D02*
X223302380Y-154154819D01*
X223302380Y-154154819D02*
X223445237Y-154107200D01*
X223445237Y-154107200D02*
X223540475Y-154011961D01*
X223540475Y-154011961D02*
X223588094Y-153916723D01*
X223588094Y-153916723D02*
X223635713Y-153726247D01*
X223635713Y-153726247D02*
X223635713Y-153583390D01*
X223635713Y-153583390D02*
X223588094Y-153392914D01*
X223588094Y-153392914D02*
X223540475Y-153297676D01*
X223540475Y-153297676D02*
X223445237Y-153202438D01*
X223445237Y-153202438D02*
X223302380Y-153154819D01*
X223302380Y-153154819D02*
X223207142Y-153154819D01*
X223207142Y-153154819D02*
X223064285Y-153202438D01*
X223064285Y-153202438D02*
X223016666Y-153250057D01*
X222159523Y-153154819D02*
X222349999Y-153154819D01*
X222349999Y-153154819D02*
X222445237Y-153202438D01*
X222445237Y-153202438D02*
X222492856Y-153250057D01*
X222492856Y-153250057D02*
X222588094Y-153392914D01*
X222588094Y-153392914D02*
X222635713Y-153583390D01*
X222635713Y-153583390D02*
X222635713Y-153964342D01*
X222635713Y-153964342D02*
X222588094Y-154059580D01*
X222588094Y-154059580D02*
X222540475Y-154107200D01*
X222540475Y-154107200D02*
X222445237Y-154154819D01*
X222445237Y-154154819D02*
X222254761Y-154154819D01*
X222254761Y-154154819D02*
X222159523Y-154107200D01*
X222159523Y-154107200D02*
X222111904Y-154059580D01*
X222111904Y-154059580D02*
X222064285Y-153964342D01*
X222064285Y-153964342D02*
X222064285Y-153726247D01*
X222064285Y-153726247D02*
X222111904Y-153631009D01*
X222111904Y-153631009D02*
X222159523Y-153583390D01*
X222159523Y-153583390D02*
X222254761Y-153535771D01*
X222254761Y-153535771D02*
X222445237Y-153535771D01*
X222445237Y-153535771D02*
X222540475Y-153583390D01*
X222540475Y-153583390D02*
X222588094Y-153631009D01*
X222588094Y-153631009D02*
X222635713Y-153726247D01*
X213095238Y-142350057D02*
X213190476Y-142302438D01*
X213190476Y-142302438D02*
X213285714Y-142207200D01*
X213285714Y-142207200D02*
X213428571Y-142064342D01*
X213428571Y-142064342D02*
X213523809Y-142016723D01*
X213523809Y-142016723D02*
X213619047Y-142016723D01*
X213571428Y-142254819D02*
X213666666Y-142207200D01*
X213666666Y-142207200D02*
X213761904Y-142111961D01*
X213761904Y-142111961D02*
X213809523Y-141921485D01*
X213809523Y-141921485D02*
X213809523Y-141588152D01*
X213809523Y-141588152D02*
X213761904Y-141397676D01*
X213761904Y-141397676D02*
X213666666Y-141302438D01*
X213666666Y-141302438D02*
X213571428Y-141254819D01*
X213571428Y-141254819D02*
X213380952Y-141254819D01*
X213380952Y-141254819D02*
X213285714Y-141302438D01*
X213285714Y-141302438D02*
X213190476Y-141397676D01*
X213190476Y-141397676D02*
X213142857Y-141588152D01*
X213142857Y-141588152D02*
X213142857Y-141921485D01*
X213142857Y-141921485D02*
X213190476Y-142111961D01*
X213190476Y-142111961D02*
X213285714Y-142207200D01*
X213285714Y-142207200D02*
X213380952Y-142254819D01*
X213380952Y-142254819D02*
X213571428Y-142254819D01*
X212761904Y-141350057D02*
X212714285Y-141302438D01*
X212714285Y-141302438D02*
X212619047Y-141254819D01*
X212619047Y-141254819D02*
X212380952Y-141254819D01*
X212380952Y-141254819D02*
X212285714Y-141302438D01*
X212285714Y-141302438D02*
X212238095Y-141350057D01*
X212238095Y-141350057D02*
X212190476Y-141445295D01*
X212190476Y-141445295D02*
X212190476Y-141540533D01*
X212190476Y-141540533D02*
X212238095Y-141683390D01*
X212238095Y-141683390D02*
X212809523Y-142254819D01*
X212809523Y-142254819D02*
X212190476Y-142254819D01*
X224666666Y-157809580D02*
X224714285Y-157857200D01*
X224714285Y-157857200D02*
X224857142Y-157904819D01*
X224857142Y-157904819D02*
X224952380Y-157904819D01*
X224952380Y-157904819D02*
X225095237Y-157857200D01*
X225095237Y-157857200D02*
X225190475Y-157761961D01*
X225190475Y-157761961D02*
X225238094Y-157666723D01*
X225238094Y-157666723D02*
X225285713Y-157476247D01*
X225285713Y-157476247D02*
X225285713Y-157333390D01*
X225285713Y-157333390D02*
X225238094Y-157142914D01*
X225238094Y-157142914D02*
X225190475Y-157047676D01*
X225190475Y-157047676D02*
X225095237Y-156952438D01*
X225095237Y-156952438D02*
X224952380Y-156904819D01*
X224952380Y-156904819D02*
X224857142Y-156904819D01*
X224857142Y-156904819D02*
X224714285Y-156952438D01*
X224714285Y-156952438D02*
X224666666Y-157000057D01*
X224285713Y-157000057D02*
X224238094Y-156952438D01*
X224238094Y-156952438D02*
X224142856Y-156904819D01*
X224142856Y-156904819D02*
X223904761Y-156904819D01*
X223904761Y-156904819D02*
X223809523Y-156952438D01*
X223809523Y-156952438D02*
X223761904Y-157000057D01*
X223761904Y-157000057D02*
X223714285Y-157095295D01*
X223714285Y-157095295D02*
X223714285Y-157190533D01*
X223714285Y-157190533D02*
X223761904Y-157333390D01*
X223761904Y-157333390D02*
X224333332Y-157904819D01*
X224333332Y-157904819D02*
X223714285Y-157904819D01*
X224509580Y-160157142D02*
X224557200Y-160109523D01*
X224557200Y-160109523D02*
X224604819Y-159966666D01*
X224604819Y-159966666D02*
X224604819Y-159871428D01*
X224604819Y-159871428D02*
X224557200Y-159728571D01*
X224557200Y-159728571D02*
X224461961Y-159633333D01*
X224461961Y-159633333D02*
X224366723Y-159585714D01*
X224366723Y-159585714D02*
X224176247Y-159538095D01*
X224176247Y-159538095D02*
X224033390Y-159538095D01*
X224033390Y-159538095D02*
X223842914Y-159585714D01*
X223842914Y-159585714D02*
X223747676Y-159633333D01*
X223747676Y-159633333D02*
X223652438Y-159728571D01*
X223652438Y-159728571D02*
X223604819Y-159871428D01*
X223604819Y-159871428D02*
X223604819Y-159966666D01*
X223604819Y-159966666D02*
X223652438Y-160109523D01*
X223652438Y-160109523D02*
X223700057Y-160157142D01*
X224604819Y-161109523D02*
X224604819Y-160538095D01*
X224604819Y-160823809D02*
X223604819Y-160823809D01*
X223604819Y-160823809D02*
X223747676Y-160728571D01*
X223747676Y-160728571D02*
X223842914Y-160633333D01*
X223842914Y-160633333D02*
X223890533Y-160538095D01*
X223604819Y-161966666D02*
X223604819Y-161776190D01*
X223604819Y-161776190D02*
X223652438Y-161680952D01*
X223652438Y-161680952D02*
X223700057Y-161633333D01*
X223700057Y-161633333D02*
X223842914Y-161538095D01*
X223842914Y-161538095D02*
X224033390Y-161490476D01*
X224033390Y-161490476D02*
X224414342Y-161490476D01*
X224414342Y-161490476D02*
X224509580Y-161538095D01*
X224509580Y-161538095D02*
X224557200Y-161585714D01*
X224557200Y-161585714D02*
X224604819Y-161680952D01*
X224604819Y-161680952D02*
X224604819Y-161871428D01*
X224604819Y-161871428D02*
X224557200Y-161966666D01*
X224557200Y-161966666D02*
X224509580Y-162014285D01*
X224509580Y-162014285D02*
X224414342Y-162061904D01*
X224414342Y-162061904D02*
X224176247Y-162061904D01*
X224176247Y-162061904D02*
X224081009Y-162014285D01*
X224081009Y-162014285D02*
X224033390Y-161966666D01*
X224033390Y-161966666D02*
X223985771Y-161871428D01*
X223985771Y-161871428D02*
X223985771Y-161680952D01*
X223985771Y-161680952D02*
X224033390Y-161585714D01*
X224033390Y-161585714D02*
X224081009Y-161538095D01*
X224081009Y-161538095D02*
X224176247Y-161490476D01*
X199954819Y-146133333D02*
X199478628Y-145800000D01*
X199954819Y-145561905D02*
X198954819Y-145561905D01*
X198954819Y-145561905D02*
X198954819Y-145942857D01*
X198954819Y-145942857D02*
X199002438Y-146038095D01*
X199002438Y-146038095D02*
X199050057Y-146085714D01*
X199050057Y-146085714D02*
X199145295Y-146133333D01*
X199145295Y-146133333D02*
X199288152Y-146133333D01*
X199288152Y-146133333D02*
X199383390Y-146085714D01*
X199383390Y-146085714D02*
X199431009Y-146038095D01*
X199431009Y-146038095D02*
X199478628Y-145942857D01*
X199478628Y-145942857D02*
X199478628Y-145561905D01*
X198954819Y-146990476D02*
X198954819Y-146800000D01*
X198954819Y-146800000D02*
X199002438Y-146704762D01*
X199002438Y-146704762D02*
X199050057Y-146657143D01*
X199050057Y-146657143D02*
X199192914Y-146561905D01*
X199192914Y-146561905D02*
X199383390Y-146514286D01*
X199383390Y-146514286D02*
X199764342Y-146514286D01*
X199764342Y-146514286D02*
X199859580Y-146561905D01*
X199859580Y-146561905D02*
X199907200Y-146609524D01*
X199907200Y-146609524D02*
X199954819Y-146704762D01*
X199954819Y-146704762D02*
X199954819Y-146895238D01*
X199954819Y-146895238D02*
X199907200Y-146990476D01*
X199907200Y-146990476D02*
X199859580Y-147038095D01*
X199859580Y-147038095D02*
X199764342Y-147085714D01*
X199764342Y-147085714D02*
X199526247Y-147085714D01*
X199526247Y-147085714D02*
X199431009Y-147038095D01*
X199431009Y-147038095D02*
X199383390Y-146990476D01*
X199383390Y-146990476D02*
X199335771Y-146895238D01*
X199335771Y-146895238D02*
X199335771Y-146704762D01*
X199335771Y-146704762D02*
X199383390Y-146609524D01*
X199383390Y-146609524D02*
X199431009Y-146561905D01*
X199431009Y-146561905D02*
X199526247Y-146514286D01*
X203966666Y-148359580D02*
X204014285Y-148407200D01*
X204014285Y-148407200D02*
X204157142Y-148454819D01*
X204157142Y-148454819D02*
X204252380Y-148454819D01*
X204252380Y-148454819D02*
X204395237Y-148407200D01*
X204395237Y-148407200D02*
X204490475Y-148311961D01*
X204490475Y-148311961D02*
X204538094Y-148216723D01*
X204538094Y-148216723D02*
X204585713Y-148026247D01*
X204585713Y-148026247D02*
X204585713Y-147883390D01*
X204585713Y-147883390D02*
X204538094Y-147692914D01*
X204538094Y-147692914D02*
X204490475Y-147597676D01*
X204490475Y-147597676D02*
X204395237Y-147502438D01*
X204395237Y-147502438D02*
X204252380Y-147454819D01*
X204252380Y-147454819D02*
X204157142Y-147454819D01*
X204157142Y-147454819D02*
X204014285Y-147502438D01*
X204014285Y-147502438D02*
X203966666Y-147550057D01*
X203014285Y-148454819D02*
X203585713Y-148454819D01*
X203299999Y-148454819D02*
X203299999Y-147454819D01*
X203299999Y-147454819D02*
X203395237Y-147597676D01*
X203395237Y-147597676D02*
X203490475Y-147692914D01*
X203490475Y-147692914D02*
X203585713Y-147740533D01*
X203754819Y-146133333D02*
X203278628Y-145800000D01*
X203754819Y-145561905D02*
X202754819Y-145561905D01*
X202754819Y-145561905D02*
X202754819Y-145942857D01*
X202754819Y-145942857D02*
X202802438Y-146038095D01*
X202802438Y-146038095D02*
X202850057Y-146085714D01*
X202850057Y-146085714D02*
X202945295Y-146133333D01*
X202945295Y-146133333D02*
X203088152Y-146133333D01*
X203088152Y-146133333D02*
X203183390Y-146085714D01*
X203183390Y-146085714D02*
X203231009Y-146038095D01*
X203231009Y-146038095D02*
X203278628Y-145942857D01*
X203278628Y-145942857D02*
X203278628Y-145561905D01*
X202754819Y-146466667D02*
X202754819Y-147085714D01*
X202754819Y-147085714D02*
X203135771Y-146752381D01*
X203135771Y-146752381D02*
X203135771Y-146895238D01*
X203135771Y-146895238D02*
X203183390Y-146990476D01*
X203183390Y-146990476D02*
X203231009Y-147038095D01*
X203231009Y-147038095D02*
X203326247Y-147085714D01*
X203326247Y-147085714D02*
X203564342Y-147085714D01*
X203564342Y-147085714D02*
X203659580Y-147038095D01*
X203659580Y-147038095D02*
X203707200Y-146990476D01*
X203707200Y-146990476D02*
X203754819Y-146895238D01*
X203754819Y-146895238D02*
X203754819Y-146609524D01*
X203754819Y-146609524D02*
X203707200Y-146514286D01*
X203707200Y-146514286D02*
X203659580Y-146466667D01*
X230754819Y-134333333D02*
X230278628Y-134000000D01*
X230754819Y-133761905D02*
X229754819Y-133761905D01*
X229754819Y-133761905D02*
X229754819Y-134142857D01*
X229754819Y-134142857D02*
X229802438Y-134238095D01*
X229802438Y-134238095D02*
X229850057Y-134285714D01*
X229850057Y-134285714D02*
X229945295Y-134333333D01*
X229945295Y-134333333D02*
X230088152Y-134333333D01*
X230088152Y-134333333D02*
X230183390Y-134285714D01*
X230183390Y-134285714D02*
X230231009Y-134238095D01*
X230231009Y-134238095D02*
X230278628Y-134142857D01*
X230278628Y-134142857D02*
X230278628Y-133761905D01*
X230088152Y-135190476D02*
X230754819Y-135190476D01*
X229707200Y-134952381D02*
X230421485Y-134714286D01*
X230421485Y-134714286D02*
X230421485Y-135333333D01*
D14*
%TO.C,C4*%
X231390000Y-152857836D02*
X231390000Y-152642164D01*
X232110000Y-152857836D02*
X232110000Y-152642164D01*
%TO.C,J6*%
X188580000Y-133560000D02*
X195420000Y-133560000D01*
X188580000Y-139640000D02*
X188580000Y-133560000D01*
X189380000Y-140440000D02*
X188580000Y-139640000D01*
X195420000Y-133560000D02*
X195420000Y-140440000D01*
X195420000Y-140440000D02*
X189380000Y-140440000D01*
%TO.C,J5*%
X198640000Y-159415000D02*
X198640000Y-160715000D01*
X198640000Y-167135000D02*
X198640000Y-165035000D01*
X201090000Y-167135000D02*
X198640000Y-167135000D01*
X201090000Y-169025000D02*
X201090000Y-167135000D01*
X218910000Y-167135000D02*
X221360000Y-167135000D01*
X221360000Y-159415000D02*
X198640000Y-159415000D01*
X221360000Y-160715000D02*
X221360000Y-159415000D01*
X221360000Y-167135000D02*
X221360000Y-165035000D01*
%TO.C,R38*%
X218970000Y-150496359D02*
X218970000Y-150803641D01*
X219730000Y-150496359D02*
X219730000Y-150803641D01*
%TO.C,Q3*%
X217630000Y-126630000D02*
X217630000Y-132520000D01*
X222770000Y-126630000D02*
X222769999Y-132975000D01*
%TO.C,TP3*%
X231150000Y-159500000D02*
G75*
G02*
X229250000Y-159500000I-950000J0D01*
G01*
X229250000Y-159500000D02*
G75*
G02*
X231150000Y-159500000I950000J0D01*
G01*
%TO.C,R17*%
X218970000Y-152496359D02*
X218970000Y-152803641D01*
X219730000Y-152496359D02*
X219730000Y-152803641D01*
%TO.C,Q5*%
X206030000Y-126630000D02*
X206030000Y-132520000D01*
X211170000Y-126630000D02*
X211169999Y-132975000D01*
%TO.C,C23*%
X197056250Y-140853750D02*
X197056250Y-141641250D01*
X197450000Y-141247500D02*
X196662500Y-141247500D01*
X197690000Y-138340000D02*
X197690000Y-137054437D01*
X197690000Y-140460000D02*
X197690000Y-141745563D01*
X198754437Y-135990000D02*
X197690000Y-137054437D01*
X198754437Y-142810000D02*
X197690000Y-141745563D01*
X204510000Y-135990000D02*
X198754437Y-135990000D01*
X204510000Y-138340000D02*
X204510000Y-135990000D01*
X204510000Y-140460000D02*
X204510000Y-142810000D01*
X204510000Y-142810000D02*
X198754437Y-142810000D01*
%TO.C,C8*%
X230211252Y-154590000D02*
X228788748Y-154590000D01*
X230211252Y-156410000D02*
X228788748Y-156410000D01*
%TO.C,Q1*%
X211779999Y-126630000D02*
X211779999Y-132520000D01*
X216919999Y-126630000D02*
X216919998Y-132975000D01*
%TO.C,C7*%
X226892164Y-143540000D02*
X227107836Y-143540000D01*
X226892164Y-144260000D02*
X227107836Y-144260000D01*
%TO.C,R14*%
X224820000Y-136346359D02*
X224820000Y-136653641D01*
X225580000Y-136346359D02*
X225580000Y-136653641D01*
%TO.C,R10*%
X227220000Y-136346359D02*
X227220000Y-136653641D01*
X227980000Y-136346359D02*
X227980000Y-136653641D01*
%TO.C,F2*%
X195640000Y-158452064D02*
X195640000Y-157247936D01*
X197460000Y-158452064D02*
X197460000Y-157247936D01*
%TO.C,J1*%
X188315000Y-153560000D02*
X188315000Y-159440000D01*
X192785000Y-152390001D02*
X190285000Y-152390000D01*
X192785000Y-153440000D02*
X192785000Y-152390001D01*
X192785000Y-159560000D02*
X192785000Y-160609999D01*
X192785000Y-160609999D02*
X190285000Y-160610000D01*
X193775000Y-159560000D02*
X192785000Y-159560000D01*
%TO.C,R22*%
X219353641Y-145145000D02*
X219046359Y-145145000D01*
X219353641Y-145905000D02*
X219046359Y-145905000D01*
%TO.C,R9*%
X227220000Y-142253641D02*
X227220000Y-141946359D01*
X227980000Y-142253641D02*
X227980000Y-141946359D01*
%TO.C,R21*%
X218345000Y-144153641D02*
X218345000Y-143846359D01*
X219105000Y-144153641D02*
X219105000Y-143846359D01*
%TO.C,Q4*%
X217630000Y-134230000D02*
X217630000Y-140120000D01*
X222770000Y-134230000D02*
X222769999Y-140575000D01*
%TO.C,C11*%
X220140000Y-150542163D02*
X220140000Y-150757835D01*
X220860000Y-150542163D02*
X220860000Y-150757835D01*
%TO.C,R12*%
X223620000Y-142253641D02*
X223620000Y-141946359D01*
X224380000Y-142253641D02*
X224380000Y-141946359D01*
%TO.C,J3*%
X188315000Y-143560000D02*
X188315000Y-149440000D01*
X192785000Y-142390001D02*
X190285000Y-142390000D01*
X192785000Y-143440000D02*
X192785000Y-142390001D01*
X192785000Y-149560000D02*
X192785000Y-150609999D01*
X192785000Y-150609999D02*
X190285000Y-150610000D01*
X193775000Y-149560000D02*
X192785000Y-149560000D01*
%TO.C,TP4*%
X228149999Y-159500000D02*
G75*
G02*
X226250001Y-159500000I-949999J0D01*
G01*
X226250001Y-159500000D02*
G75*
G02*
X228149999Y-159500000I949999J0D01*
G01*
%TO.C,D6*%
X199500000Y-123999999D02*
X204500000Y-123999999D01*
X199500000Y-124500000D02*
X199500000Y-123999999D01*
X199500000Y-127500000D02*
X199500000Y-128000001D01*
X199500000Y-128000001D02*
X204500000Y-128000001D01*
X204500000Y-124500000D02*
X204500000Y-123999999D01*
X204500000Y-127500000D02*
X204500000Y-128000001D01*
%TO.C,R23*%
X220345000Y-146203641D02*
X220345000Y-145896359D01*
X221105000Y-146203641D02*
X221105000Y-145896359D01*
%TO.C,C22*%
X197056250Y-133553750D02*
X197056250Y-134341250D01*
X197450000Y-133947500D02*
X196662500Y-133947500D01*
X197690000Y-131040000D02*
X197690000Y-129754437D01*
X197690000Y-133160000D02*
X197690000Y-134445563D01*
X198754437Y-128690000D02*
X197690000Y-129754437D01*
X198754437Y-135510000D02*
X197690000Y-134445563D01*
X204510000Y-128690000D02*
X198754437Y-128690000D01*
X204510000Y-131040000D02*
X204510000Y-128690000D01*
X204510000Y-133160000D02*
X204510000Y-135510000D01*
X204510000Y-135510000D02*
X198754437Y-135510000D01*
%TO.C,C9*%
X224892164Y-143540000D02*
X225107836Y-143540000D01*
X224892164Y-144260000D02*
X225107836Y-144260000D01*
%TO.C,R5*%
X226020000Y-136346359D02*
X226020000Y-136653641D01*
X226780000Y-136346359D02*
X226780000Y-136653641D01*
%TO.C,D2*%
X224240000Y-140000000D02*
X224240000Y-138590000D01*
X226560000Y-140000000D02*
X226560000Y-138600000D01*
X224290000Y-138220000D02*
X223960000Y-138460000D01*
X223960000Y-137980000D01*
X224290000Y-138220000D01*
G36*
X224290000Y-138220000D02*
G01*
X223960000Y-138460000D01*
X223960000Y-137980000D01*
X224290000Y-138220000D01*
G37*
%TO.C,R2*%
X228420000Y-142253641D02*
X228420000Y-141946359D01*
X229180000Y-142253641D02*
X229180000Y-141946359D01*
%TO.C,TP5*%
X222750000Y-143900000D02*
G75*
G02*
X220850000Y-143900000I-950000J0D01*
G01*
X220850000Y-143900000D02*
G75*
G02*
X222750000Y-143900000I950000J0D01*
G01*
%TO.C,R11*%
X223620000Y-136346359D02*
X223620000Y-136653641D01*
X224380000Y-136346359D02*
X224380000Y-136653641D01*
%TO.C,R25*%
X220120000Y-152496359D02*
X220120000Y-152803641D01*
X220880000Y-152496359D02*
X220880000Y-152803641D01*
%TO.C,TP2*%
X208875000Y-149200000D02*
G75*
G02*
X206975000Y-149200000I-950000J0D01*
G01*
X206975000Y-149200000D02*
G75*
G02*
X208875000Y-149200000I950000J0D01*
G01*
%TO.C,R26*%
X219353641Y-146195000D02*
X219046359Y-146195000D01*
X219353641Y-146955000D02*
X219046359Y-146955000D01*
%TO.C,R19*%
X220370000Y-148303641D02*
X220370000Y-147996359D01*
X221130000Y-148303641D02*
X221130000Y-147996359D01*
%TO.C,TP1*%
X208875000Y-145025000D02*
G75*
G02*
X206975000Y-145025000I-950000J0D01*
G01*
X206975000Y-145025000D02*
G75*
G02*
X208875000Y-145025000I950000J0D01*
G01*
%TO.C,R13*%
X224820000Y-142253641D02*
X224820000Y-141946359D01*
X225580000Y-142253641D02*
X225580000Y-141946359D01*
%TO.C,C10*%
X219440000Y-143892164D02*
X219440000Y-144107836D01*
X220160000Y-143892164D02*
X220160000Y-144107836D01*
%TO.C,R1*%
X228420000Y-136346359D02*
X228420000Y-136653641D01*
X229180000Y-136346359D02*
X229180000Y-136653641D01*
%TO.C,Q6*%
X206030000Y-134230000D02*
X206030000Y-140120000D01*
X211170000Y-134230000D02*
X211169999Y-140575000D01*
%TO.C,R24*%
X219353641Y-147245000D02*
X219046359Y-147245000D01*
X219353641Y-148005000D02*
X219046359Y-148005000D01*
%TO.C,U1*%
X223390000Y-145490000D02*
X223390000Y-145965000D01*
X223390000Y-152710000D02*
X223390000Y-152235000D01*
X223865000Y-145490000D02*
X223390000Y-145490000D01*
X223865000Y-152710000D02*
X223390000Y-152710000D01*
X230135000Y-145490000D02*
X230610000Y-145490000D01*
X230610000Y-145490000D02*
X230610000Y-145965000D01*
X230610000Y-152710000D02*
X230610000Y-152235000D01*
%TO.C,D1*%
X227440000Y-140000000D02*
X227440000Y-138590000D01*
X229760000Y-140000000D02*
X229760000Y-138600000D01*
X227490000Y-138220000D02*
X227160000Y-138460000D01*
X227160000Y-137980000D01*
X227490000Y-138220000D01*
G36*
X227490000Y-138220000D02*
G01*
X227160000Y-138460000D01*
X227160000Y-137980000D01*
X227490000Y-138220000D01*
G37*
%TO.C,C6*%
X224642164Y-153390000D02*
X224857836Y-153390000D01*
X224642164Y-154110000D02*
X224857836Y-154110000D01*
%TO.C,Q2*%
X211830000Y-134230000D02*
X211830000Y-140120000D01*
X216970000Y-134230000D02*
X216969999Y-140575000D01*
%TO.C,C2*%
X223788748Y-154590000D02*
X225211252Y-154590000D01*
X223788748Y-156410000D02*
X225211252Y-156410000D01*
%TO.C,C16*%
X222640000Y-160107836D02*
X222640000Y-159892164D01*
X223360000Y-160107836D02*
X223360000Y-159892164D01*
%TO.C,R6*%
X226020000Y-142253641D02*
X226020000Y-141946359D01*
X226780000Y-142253641D02*
X226780000Y-141946359D01*
%TO.C,C1*%
X228892164Y-143540000D02*
X229107836Y-143540000D01*
X228892164Y-144260000D02*
X229107836Y-144260000D01*
%TO.C,R3*%
X229620000Y-142253641D02*
X229620000Y-141946359D01*
X230380000Y-142253641D02*
X230380000Y-141946359D01*
%TO.C,R4*%
X229620000Y-136346359D02*
X229620000Y-136653641D01*
X230380000Y-136346359D02*
X230380000Y-136653641D01*
%TD*%
%LPC*%
D15*
%TO.C,H2*%
X228500000Y-129000000D03*
D16*
X228500000Y-129000000D03*
%TD*%
D15*
%TO.C,H1*%
X191500000Y-129000000D03*
D16*
X191500000Y-129000000D03*
%TD*%
D15*
%TO.C,H3*%
X191500000Y-165500000D03*
D16*
X191500000Y-165500000D03*
%TD*%
D15*
%TO.C,H4*%
X228500000Y-165500000D03*
D16*
X228500000Y-165500000D03*
%TD*%
D17*
%TO.C,C4*%
X231750000Y-152270000D03*
X231750000Y-153230000D03*
%TD*%
D18*
%TO.C,J6*%
X190180000Y-139540000D03*
X193820000Y-139540000D03*
X190180000Y-138270000D03*
X193820000Y-138270000D03*
X190180000Y-137000000D03*
X193820000Y-137000000D03*
X190180000Y-135730000D03*
X193820000Y-135730000D03*
X190180000Y-134460000D03*
X193820000Y-134460000D03*
%TD*%
D19*
%TO.C,J5*%
X201750000Y-167575000D03*
X203250000Y-167575000D03*
X204750000Y-167575000D03*
X206250000Y-167575000D03*
X207750000Y-167575000D03*
X209250000Y-167575000D03*
X210750000Y-167575000D03*
X212250000Y-167575000D03*
X213750000Y-167575000D03*
X215250000Y-167575000D03*
X216750000Y-167575000D03*
X218250000Y-167575000D03*
D20*
X199150000Y-162875000D03*
X220850000Y-162875000D03*
%TD*%
D21*
%TO.C,R38*%
X219350000Y-151159999D03*
X219350000Y-150140001D03*
%TD*%
D22*
%TO.C,Q3*%
X222104999Y-132300000D03*
X220835000Y-132300000D03*
X219565000Y-132300000D03*
X218295001Y-132300000D03*
D23*
X220200000Y-128600000D03*
%TD*%
D24*
%TO.C,TP3*%
X230200000Y-159500000D03*
%TD*%
D21*
%TO.C,R17*%
X219350000Y-153159999D03*
X219350000Y-152140001D03*
%TD*%
D22*
%TO.C,Q5*%
X210504999Y-132300000D03*
X209235000Y-132300000D03*
X207965000Y-132300000D03*
X206695001Y-132300000D03*
D23*
X208600000Y-128600000D03*
%TD*%
D25*
%TO.C,C23*%
X198400000Y-139400000D03*
X203800000Y-139400000D03*
%TD*%
D26*
%TO.C,C8*%
X228024999Y-155500000D03*
X230975001Y-155500000D03*
%TD*%
D22*
%TO.C,Q1*%
X216254998Y-132300000D03*
X214984999Y-132300000D03*
X213714999Y-132300000D03*
X212445000Y-132300000D03*
D23*
X214349999Y-128600000D03*
%TD*%
D27*
%TO.C,C7*%
X227480000Y-143900000D03*
X226520000Y-143900000D03*
%TD*%
D21*
%TO.C,R14*%
X225200000Y-137009999D03*
X225200000Y-135990001D03*
%TD*%
%TO.C,R10*%
X227600000Y-137009999D03*
X227600000Y-135990001D03*
%TD*%
D28*
%TO.C,F2*%
X196550000Y-156362500D03*
X196550000Y-159337500D03*
%TD*%
D29*
%TO.C,J1*%
X193000001Y-159000000D03*
X193000000Y-158000000D03*
X193000000Y-157000000D03*
X193000000Y-156000000D03*
X193000000Y-155000000D03*
X193000001Y-154000000D03*
D30*
X189125000Y-160300000D03*
X189125000Y-152700000D03*
%TD*%
D31*
%TO.C,R22*%
X218690001Y-145525000D03*
X219709999Y-145525000D03*
%TD*%
D32*
%TO.C,R9*%
X227600000Y-141590001D03*
X227600000Y-142609999D03*
%TD*%
%TO.C,R21*%
X218725000Y-143490001D03*
X218725000Y-144509999D03*
%TD*%
D22*
%TO.C,Q4*%
X222104999Y-139900000D03*
X220835000Y-139900000D03*
X219565000Y-139900000D03*
X218295001Y-139900000D03*
D23*
X220200000Y-136200000D03*
%TD*%
D33*
%TO.C,C11*%
X220500000Y-151129999D03*
X220500000Y-150169999D03*
%TD*%
D32*
%TO.C,R12*%
X224000000Y-141590001D03*
X224000000Y-142609999D03*
%TD*%
D29*
%TO.C,J3*%
X193000001Y-149000000D03*
X193000000Y-148000000D03*
X193000000Y-147000000D03*
X193000000Y-146000000D03*
X193000000Y-145000000D03*
X193000001Y-144000000D03*
D30*
X189125000Y-150300000D03*
X189125000Y-142700000D03*
%TD*%
D24*
%TO.C,TP4*%
X227200000Y-159500000D03*
%TD*%
D34*
%TO.C,D6*%
X204150001Y-126000000D03*
X199849999Y-126000000D03*
%TD*%
D32*
%TO.C,R23*%
X220725000Y-145540001D03*
X220725000Y-146559999D03*
%TD*%
D25*
%TO.C,C22*%
X198400000Y-132100000D03*
X203800000Y-132100000D03*
%TD*%
D27*
%TO.C,C9*%
X225480000Y-143900000D03*
X224520000Y-143900000D03*
%TD*%
D21*
%TO.C,R5*%
X226400000Y-137009999D03*
X226400000Y-135990001D03*
%TD*%
D35*
%TO.C,R27*%
X212900000Y-144600001D03*
X210100000Y-144600001D03*
D36*
X211500000Y-144600000D03*
X211500000Y-149600000D03*
D35*
X212900000Y-149599999D03*
X210100000Y-149599999D03*
%TD*%
D37*
%TO.C,D2*%
X224750000Y-138350000D03*
X225400000Y-138350001D03*
X226050000Y-138350000D03*
X226050000Y-140250000D03*
X225400000Y-140249999D03*
X224750000Y-140250000D03*
%TD*%
D32*
%TO.C,R2*%
X228800000Y-141590001D03*
X228800000Y-142609999D03*
%TD*%
D35*
%TO.C,R18*%
X217400000Y-144600001D03*
X214600000Y-144600001D03*
D36*
X216000000Y-144600000D03*
X216000000Y-149600000D03*
D35*
X217400000Y-149599999D03*
X214600000Y-149599999D03*
%TD*%
D24*
%TO.C,TP5*%
X221800000Y-143900000D03*
%TD*%
D21*
%TO.C,R11*%
X224000000Y-137009999D03*
X224000000Y-135990001D03*
%TD*%
%TO.C,R25*%
X220500000Y-153159999D03*
X220500000Y-152140001D03*
%TD*%
D24*
%TO.C,TP2*%
X207925000Y-149200000D03*
%TD*%
D31*
%TO.C,R26*%
X218690001Y-146575000D03*
X219709999Y-146575000D03*
%TD*%
D32*
%TO.C,R19*%
X220750000Y-147640001D03*
X220750000Y-148659999D03*
%TD*%
D24*
%TO.C,TP1*%
X207925000Y-145025000D03*
%TD*%
D32*
%TO.C,R13*%
X225200000Y-141590001D03*
X225200000Y-142609999D03*
%TD*%
D33*
%TO.C,C10*%
X219800000Y-144480000D03*
X219800000Y-143520000D03*
%TD*%
D21*
%TO.C,R1*%
X228800000Y-137009999D03*
X228800000Y-135990001D03*
%TD*%
D22*
%TO.C,Q6*%
X210504999Y-139900000D03*
X209235000Y-139900000D03*
X207965000Y-139900000D03*
X206695001Y-139900000D03*
D23*
X208600000Y-136200000D03*
%TD*%
D31*
%TO.C,R24*%
X218690001Y-147625000D03*
X219709999Y-147625000D03*
%TD*%
D38*
%TO.C,U1*%
X229750000Y-152525000D03*
X229250000Y-152525000D03*
X228750000Y-152525000D03*
X228250000Y-152525000D03*
X227750000Y-152525000D03*
X227250000Y-152525000D03*
X226750000Y-152525000D03*
X226250000Y-152525000D03*
X225750000Y-152525000D03*
X225250000Y-152525000D03*
X224750000Y-152525000D03*
X224250000Y-152525000D03*
D39*
X223575000Y-151850000D03*
X223575000Y-151350000D03*
X223575000Y-150850000D03*
X223575000Y-150350000D03*
X223575000Y-149850000D03*
X223575000Y-149350000D03*
X223575000Y-148850000D03*
X223575000Y-148350000D03*
X223575000Y-147850000D03*
X223575000Y-147350000D03*
X223575000Y-146850000D03*
X223575000Y-146350000D03*
D38*
X224250000Y-145675000D03*
X224750000Y-145675000D03*
X225250000Y-145675000D03*
X225750000Y-145675000D03*
X226250000Y-145675000D03*
X226750000Y-145675000D03*
X227250000Y-145675000D03*
X227750000Y-145675000D03*
X228250000Y-145675000D03*
X228750000Y-145675000D03*
X229250000Y-145675000D03*
X229750000Y-145675000D03*
D39*
X230425000Y-146350000D03*
X230425000Y-146850000D03*
X230425000Y-147350000D03*
X230425000Y-147850000D03*
X230425000Y-148350000D03*
X230425000Y-148850000D03*
X230425000Y-149350000D03*
X230425000Y-149850000D03*
X230425000Y-150350000D03*
X230425000Y-150850000D03*
X230425000Y-151350000D03*
X230425000Y-151850000D03*
D40*
X227000000Y-149100000D03*
%TD*%
D37*
%TO.C,D1*%
X227950000Y-138350000D03*
X228600000Y-138350001D03*
X229250000Y-138350000D03*
X229250000Y-140250000D03*
X228600000Y-140249999D03*
X227950000Y-140250000D03*
%TD*%
D27*
%TO.C,C6*%
X225230000Y-153750000D03*
X224270000Y-153750000D03*
%TD*%
D22*
%TO.C,Q2*%
X216304999Y-139900000D03*
X215035000Y-139900000D03*
X213765000Y-139900000D03*
X212495001Y-139900000D03*
D23*
X214400000Y-136200000D03*
%TD*%
D41*
%TO.C,C2*%
X225975001Y-155500000D03*
X223024999Y-155500000D03*
%TD*%
D17*
%TO.C,C16*%
X223000000Y-159520000D03*
X223000000Y-160480000D03*
%TD*%
D32*
%TO.C,R6*%
X226400000Y-141590001D03*
X226400000Y-142609999D03*
%TD*%
D27*
%TO.C,C1*%
X229480000Y-143900000D03*
X228520000Y-143900000D03*
%TD*%
D32*
%TO.C,R3*%
X230000000Y-141590001D03*
X230000000Y-142609999D03*
%TD*%
D21*
%TO.C,R4*%
X230000000Y-137009999D03*
X230000000Y-135990001D03*
%TD*%
%LPD*%
M02*
