%TF.GenerationSoftware,KiCad,Pcbnew,8.0.7*%
%TF.CreationDate,2025-04-07T22:13:35-04:00*%
%TF.ProjectId,motor-controller,6d6f746f-722d-4636-9f6e-74726f6c6c65,1*%
%TF.SameCoordinates,Original*%
%TF.FileFunction,Copper,L3,Inr*%
%TF.FilePolarity,Positive*%
%FSLAX46Y46*%
G04 Gerber Fmt 4.6, Leading zero omitted, Abs format (unit mm)*
G04 Created by KiCad (PCBNEW 8.0.7) date 2025-04-07 22:13:35*
%MOMM*%
%LPD*%
G01*
G04 APERTURE LIST*
%TA.AperFunction,ComponentPad*%
%ADD10C,3.600000*%
%TD*%
%TA.AperFunction,ViaPad*%
%ADD11C,0.450000*%
%TD*%
%TA.AperFunction,ViaPad*%
%ADD12C,2.000000*%
%TD*%
G04 APERTURE END LIST*
D10*
%TO.N,N/C*%
%TO.C,H2*%
X228500000Y-129000000D03*
%TD*%
%TO.N,N/C*%
%TO.C,H1*%
X191500000Y-129000000D03*
%TD*%
%TO.N,N/C*%
%TO.C,H3*%
X191500000Y-165500000D03*
%TD*%
%TO.N,N/C*%
%TO.C,H4*%
X228500000Y-165500000D03*
%TD*%
D11*
%TO.N,/motor_driver/MOTOR_{U}*%
X212700000Y-138000000D03*
X213600000Y-138000000D03*
X216300000Y-136900000D03*
X212700000Y-136900000D03*
X215400000Y-138000000D03*
X215400000Y-136900000D03*
X216300000Y-138000000D03*
X214500000Y-136900000D03*
X228520000Y-143900000D03*
X213600000Y-136900000D03*
X214500000Y-138000000D03*
D12*
%TO.N,GND*%
X223500000Y-165500000D03*
D11*
X227900000Y-149100000D03*
X222800000Y-148350000D03*
X220500000Y-150169999D03*
X189940000Y-148000000D03*
X204650000Y-164550000D03*
X223000000Y-155500000D03*
X227000000Y-149100000D03*
X227000000Y-150000000D03*
X231350000Y-149850000D03*
X189150000Y-154800000D03*
X227900000Y-150000000D03*
X231750000Y-153230000D03*
X189150000Y-158200000D03*
X204650000Y-163550000D03*
X207750000Y-165590001D03*
X224250000Y-153750000D03*
X226100000Y-148200000D03*
X229250000Y-151270000D03*
X227900000Y-148200000D03*
X205500000Y-164550000D03*
X189940000Y-146000000D03*
X212720000Y-154500000D03*
X203600000Y-126600000D03*
X206400000Y-163550000D03*
X203600000Y-125400000D03*
X193000001Y-149000000D03*
X205500000Y-163550000D03*
X206400000Y-164550000D03*
X190180000Y-134460000D03*
X189100000Y-152700000D03*
X216625000Y-147100000D03*
X189125000Y-160300000D03*
X223000000Y-160480000D03*
X189150000Y-156500000D03*
X215350000Y-155800001D03*
X227250000Y-151270000D03*
X215680000Y-154500000D03*
X227000000Y-148200000D03*
X219800000Y-143520000D03*
X204700000Y-125400000D03*
X190180000Y-138270000D03*
X193000001Y-154000000D03*
X189100000Y-142700000D03*
X206100000Y-148650000D03*
X204700000Y-126600000D03*
X222700000Y-157687500D03*
X209250000Y-165600000D03*
X189100000Y-150300000D03*
X190200000Y-137000000D03*
X228250000Y-151270000D03*
X216000000Y-159930000D03*
X226850000Y-156900000D03*
X226100000Y-150000000D03*
X231000000Y-155500000D03*
X226100000Y-149100000D03*
X219350000Y-150140001D03*
X225150000Y-159100000D03*
D12*
%TO.N,+BATT*%
X196900000Y-127000000D03*
D11*
X219350000Y-153159999D03*
X197825000Y-156950000D03*
X225975001Y-155500000D03*
%TO.N,+3V0*%
X225230000Y-153750000D03*
X220725000Y-145540001D03*
X218750000Y-155875001D03*
X218725000Y-143490001D03*
D12*
X223500000Y-163000000D03*
D11*
%TO.N,/motor_driver/MOTOR_{V}*%
X220200000Y-135500000D03*
X222000000Y-135500000D03*
X221100000Y-135500000D03*
X219300000Y-135500000D03*
X218400000Y-135500000D03*
X221100000Y-134500000D03*
X218400000Y-134500000D03*
X220200000Y-134500000D03*
X222000000Y-134500000D03*
X226520000Y-143900000D03*
X219300000Y-134500000D03*
%TO.N,/motor_driver/MOTOR_{W}*%
X210500000Y-135500000D03*
X207800000Y-135500000D03*
X224520000Y-143900000D03*
X209600000Y-134400000D03*
X206900000Y-135500000D03*
X206900000Y-134400000D03*
X207800000Y-134400000D03*
X208700000Y-135500000D03*
X210500000Y-134400000D03*
X209600000Y-135500000D03*
X208700000Y-134400000D03*
%TO.N,/motor_driver/NRST*%
X226750000Y-153250000D03*
X223000000Y-159520000D03*
X193820000Y-134460000D03*
X219250000Y-154375000D03*
%TO.N,/motor_driver/OSC32_N*%
X229250000Y-153250000D03*
%TO.N,/motor_driver/OSC32_P*%
X229750000Y-154000000D03*
%TO.N,/motor_driver/OSC_N*%
X227750000Y-153250000D03*
%TO.N,/motor_driver/OSC_P*%
X228250000Y-154000000D03*
%TO.N,Net-(D1B-K)*%
X228200000Y-144900000D03*
X228800000Y-141590001D03*
%TO.N,Net-(D2B-K)*%
X225800000Y-144900000D03*
X225200000Y-141590001D03*
%TO.N,+3V3*%
X189940001Y-145000000D03*
X231750000Y-152270000D03*
X217525000Y-147100000D03*
X210750000Y-165590001D03*
X190180000Y-139540000D03*
X193000001Y-159000000D03*
X212950000Y-157575000D03*
X194859999Y-158000000D03*
X218250000Y-162150000D03*
X218250000Y-161300000D03*
X218250000Y-160500000D03*
D12*
X223500000Y-168000000D03*
D11*
X193000001Y-144000000D03*
%TO.N,/motor_driver/VEL_ENC_{~{DET}}*%
X222650000Y-150350000D03*
X193000000Y-158000000D03*
%TO.N,/encoder/VEL_ENC.B*%
X222650000Y-149350000D03*
X193000000Y-156000000D03*
%TO.N,/encoder/VEL_ENC.A*%
X222000000Y-149850000D03*
X193000000Y-157000000D03*
%TO.N,/encoder/VEL_ENC.Z*%
X231350000Y-150850000D03*
X193000000Y-155000000D03*
%TO.N,/encoder/MOSI*%
X193000000Y-148000000D03*
X209150000Y-147100000D03*
%TO.N,/encoder/SCK*%
X208350000Y-147100000D03*
X193000000Y-146000000D03*
%TO.N,/encoder/MISO*%
X193000000Y-147000000D03*
X206100000Y-147350000D03*
%TO.N,/encoder/CSn*%
X206100000Y-146050000D03*
X193000000Y-145000000D03*
%TO.N,/BOOT_UART.RST*%
X209250000Y-167575000D03*
X220800000Y-157687500D03*
%TO.N,Net-(Q1-G)*%
X212445000Y-132300000D03*
X228800000Y-142609999D03*
X228800000Y-135990001D03*
%TO.N,Net-(Q2-G)*%
X230000000Y-135990001D03*
X230000000Y-142609999D03*
X212495001Y-139900000D03*
%TO.N,Net-(Q3-G)*%
X218295001Y-132300000D03*
X226400000Y-142609999D03*
X226400000Y-135990001D03*
%TO.N,/motor_driver/LED_{WARN}*%
X232000000Y-150350000D03*
%TO.N,Net-(Q4-G)*%
X227600000Y-142609999D03*
X218295001Y-139900000D03*
X227600000Y-135990001D03*
%TO.N,Net-(Q5-G)*%
X206175000Y-131450000D03*
X224000000Y-142609999D03*
X224000000Y-135990001D03*
%TO.N,Net-(Q6-G)*%
X206695001Y-139900000D03*
X225200000Y-142609999D03*
X225200000Y-135990001D03*
%TO.N,/motor_driver/LED_{FW_READY}*%
X231350000Y-148350000D03*
%TO.N,/motor_driver/LED_{ERROR}*%
X232000000Y-147850000D03*
%TO.N,/motor_driver/HALL_{1}*%
X222250000Y-153153500D03*
X206800000Y-142550000D03*
%TO.N,/motor_driver/HALL_{2}*%
X221750000Y-152525000D03*
X207300000Y-143500000D03*
%TO.N,/motor_driver/HALL_{3}*%
X206250000Y-141500000D03*
X222200000Y-151850000D03*
%TO.N,/BOOT_UART.RX*%
X210750000Y-167575000D03*
X231350000Y-147350000D03*
%TO.N,Net-(J5-Pin_8)*%
X212250000Y-167575000D03*
%TO.N,/BOOT_UART.BOOT0*%
X207750000Y-167575000D03*
X232000000Y-148850000D03*
%TO.N,/motor_driver/SWCLK*%
X213259999Y-161850000D03*
X193820000Y-138270000D03*
X232000000Y-146850000D03*
%TO.N,Net-(J5-Pin_12)*%
X218250000Y-166750000D03*
X218250000Y-168400000D03*
X218250000Y-167575000D03*
%TO.N,/motor_driver/SWDIO*%
X193820000Y-139540000D03*
X231350000Y-146350000D03*
%TD*%
%TA.AperFunction,Conductor*%
%TO.N,GND*%
G36*
X230501121Y-123500020D02*
G01*
X230635109Y-123502409D01*
X230650528Y-123503650D01*
X230916897Y-123541948D01*
X230934184Y-123545708D01*
X231191313Y-123621209D01*
X231207887Y-123627391D01*
X231317159Y-123677293D01*
X231451659Y-123738717D01*
X231467173Y-123747188D01*
X231692628Y-123892080D01*
X231706787Y-123902679D01*
X231909317Y-124078172D01*
X231921827Y-124090682D01*
X232097320Y-124293212D01*
X232107921Y-124307374D01*
X232252808Y-124532821D01*
X232261284Y-124548345D01*
X232372608Y-124792112D01*
X232378791Y-124808688D01*
X232454290Y-125065814D01*
X232458051Y-125083102D01*
X232496348Y-125349463D01*
X232497590Y-125364898D01*
X232499980Y-125498877D01*
X232500000Y-125501089D01*
X232500000Y-146379012D01*
X232480315Y-146446051D01*
X232427511Y-146491806D01*
X232358353Y-146501750D01*
X232308962Y-146483328D01*
X232199559Y-146413021D01*
X232068368Y-146374500D01*
X232068367Y-146374500D01*
X231941359Y-146374500D01*
X231874320Y-146354815D01*
X231828565Y-146302011D01*
X231818621Y-146268146D01*
X231817410Y-146259721D01*
X231810931Y-146214658D01*
X231774710Y-146135345D01*
X231754132Y-146090285D01*
X231754127Y-146090278D01*
X231664590Y-145986946D01*
X231664586Y-145986942D01*
X231552113Y-145914662D01*
X231549561Y-145913022D01*
X231549560Y-145913021D01*
X231549559Y-145913021D01*
X231418368Y-145874500D01*
X231418367Y-145874500D01*
X231281633Y-145874500D01*
X231281632Y-145874500D01*
X231150440Y-145913021D01*
X231035413Y-145986942D01*
X231035409Y-145986946D01*
X230945872Y-146090278D01*
X230945867Y-146090285D01*
X230889070Y-146214654D01*
X230889068Y-146214662D01*
X230869610Y-146350000D01*
X230889068Y-146485337D01*
X230889070Y-146485345D01*
X230945867Y-146609714D01*
X230945872Y-146609721D01*
X231035409Y-146713053D01*
X231035411Y-146713055D01*
X231086184Y-146745684D01*
X231131939Y-146798488D01*
X231141883Y-146867646D01*
X231112859Y-146931202D01*
X231086185Y-146954314D01*
X231067274Y-146966467D01*
X231035410Y-146986945D01*
X231035409Y-146986946D01*
X230945872Y-147090278D01*
X230945867Y-147090285D01*
X230889070Y-147214654D01*
X230889068Y-147214662D01*
X230869610Y-147350000D01*
X230889068Y-147485337D01*
X230889070Y-147485345D01*
X230945867Y-147609714D01*
X230945872Y-147609721D01*
X231035409Y-147713053D01*
X231035411Y-147713055D01*
X231086184Y-147745684D01*
X231131939Y-147798488D01*
X231141883Y-147867646D01*
X231112859Y-147931202D01*
X231086185Y-147954314D01*
X231067274Y-147966467D01*
X231035410Y-147986945D01*
X231035409Y-147986946D01*
X230945872Y-148090278D01*
X230945867Y-148090285D01*
X230889070Y-148214654D01*
X230889068Y-148214662D01*
X230869610Y-148350000D01*
X230889068Y-148485337D01*
X230889070Y-148485345D01*
X230945867Y-148609714D01*
X230945872Y-148609721D01*
X231035409Y-148713053D01*
X231035413Y-148713057D01*
X231095979Y-148751979D01*
X231150439Y-148786978D01*
X231216036Y-148806239D01*
X231281632Y-148825500D01*
X231408641Y-148825500D01*
X231475680Y-148845185D01*
X231521435Y-148897989D01*
X231531379Y-148931854D01*
X231539068Y-148985336D01*
X231539070Y-148985345D01*
X231595867Y-149109714D01*
X231595872Y-149109721D01*
X231685409Y-149213053D01*
X231685413Y-149213057D01*
X231745979Y-149251979D01*
X231800439Y-149286978D01*
X231866036Y-149306239D01*
X231931632Y-149325500D01*
X231931633Y-149325500D01*
X232068367Y-149325500D01*
X232199561Y-149286978D01*
X232308963Y-149216670D01*
X232376001Y-149196987D01*
X232443040Y-149216672D01*
X232488795Y-149269476D01*
X232500000Y-149320987D01*
X232500000Y-149879012D01*
X232480315Y-149946051D01*
X232427511Y-149991806D01*
X232358353Y-150001750D01*
X232308962Y-149983328D01*
X232199559Y-149913021D01*
X232068368Y-149874500D01*
X232068367Y-149874500D01*
X231931633Y-149874500D01*
X231931632Y-149874500D01*
X231800440Y-149913021D01*
X231685413Y-149986942D01*
X231685409Y-149986946D01*
X231595872Y-150090278D01*
X231595867Y-150090285D01*
X231539070Y-150214654D01*
X231539068Y-150214663D01*
X231531379Y-150268146D01*
X231502355Y-150331702D01*
X231443577Y-150369477D01*
X231408641Y-150374500D01*
X231281632Y-150374500D01*
X231150440Y-150413021D01*
X231035413Y-150486942D01*
X231035409Y-150486946D01*
X230945872Y-150590278D01*
X230945867Y-150590285D01*
X230889070Y-150714654D01*
X230889068Y-150714662D01*
X230869610Y-150850000D01*
X230889068Y-150985337D01*
X230889070Y-150985345D01*
X230945867Y-151109714D01*
X230945872Y-151109721D01*
X231035409Y-151213053D01*
X231035413Y-151213057D01*
X231095979Y-151251979D01*
X231150439Y-151286978D01*
X231216036Y-151306239D01*
X231281632Y-151325500D01*
X231281633Y-151325500D01*
X231418367Y-151325500D01*
X231549561Y-151286978D01*
X231664589Y-151213055D01*
X231754130Y-151109718D01*
X231810931Y-150985342D01*
X231818621Y-150931852D01*
X231847645Y-150868298D01*
X231906423Y-150830523D01*
X231941359Y-150825500D01*
X232068367Y-150825500D01*
X232199561Y-150786978D01*
X232308963Y-150716670D01*
X232376001Y-150696987D01*
X232443040Y-150716672D01*
X232488795Y-150769476D01*
X232500000Y-150820987D01*
X232500000Y-167498910D01*
X232499980Y-167501122D01*
X232497590Y-167635101D01*
X232496348Y-167650536D01*
X232458051Y-167916897D01*
X232454290Y-167934185D01*
X232378791Y-168191311D01*
X232372608Y-168207887D01*
X232261284Y-168451654D01*
X232252805Y-168467183D01*
X232107922Y-168692624D01*
X232097320Y-168706787D01*
X231921827Y-168909317D01*
X231909317Y-168921827D01*
X231706787Y-169097320D01*
X231692624Y-169107922D01*
X231467183Y-169252805D01*
X231451654Y-169261284D01*
X231207887Y-169372608D01*
X231191311Y-169378791D01*
X230934185Y-169454290D01*
X230916897Y-169458051D01*
X230650536Y-169496348D01*
X230635101Y-169497590D01*
X230504818Y-169499914D01*
X230501120Y-169499980D01*
X230498910Y-169500000D01*
X223542871Y-169500000D01*
X223500568Y-169487578D01*
X223481561Y-169497569D01*
X223457129Y-169500000D01*
X189501090Y-169500000D01*
X189498879Y-169499980D01*
X189495015Y-169499911D01*
X189364898Y-169497590D01*
X189349463Y-169496348D01*
X189083102Y-169458051D01*
X189065814Y-169454290D01*
X188808688Y-169378791D01*
X188792112Y-169372608D01*
X188548345Y-169261284D01*
X188532821Y-169252808D01*
X188307374Y-169107921D01*
X188293212Y-169097320D01*
X188090682Y-168921827D01*
X188078172Y-168909317D01*
X187902679Y-168706787D01*
X187892077Y-168692624D01*
X187747188Y-168467173D01*
X187738715Y-168451654D01*
X187728520Y-168429331D01*
X187653315Y-168264654D01*
X187627391Y-168207887D01*
X187621208Y-168191311D01*
X187606225Y-168140285D01*
X187545708Y-167934184D01*
X187541948Y-167916897D01*
X187530133Y-167834721D01*
X187503650Y-167650528D01*
X187502409Y-167635109D01*
X187501337Y-167575000D01*
X207269610Y-167575000D01*
X207289068Y-167710337D01*
X207289070Y-167710345D01*
X207345867Y-167834714D01*
X207345872Y-167834721D01*
X207435409Y-167938053D01*
X207435413Y-167938057D01*
X207484893Y-167969855D01*
X207550439Y-168011978D01*
X207616036Y-168031239D01*
X207681632Y-168050500D01*
X207681633Y-168050500D01*
X207818367Y-168050500D01*
X207949561Y-168011978D01*
X208064589Y-167938055D01*
X208154130Y-167834718D01*
X208210931Y-167710342D01*
X208230390Y-167575000D01*
X208769610Y-167575000D01*
X208789068Y-167710337D01*
X208789070Y-167710345D01*
X208845867Y-167834714D01*
X208845872Y-167834721D01*
X208935409Y-167938053D01*
X208935413Y-167938057D01*
X208984893Y-167969855D01*
X209050439Y-168011978D01*
X209116036Y-168031239D01*
X209181632Y-168050500D01*
X209181633Y-168050500D01*
X209318367Y-168050500D01*
X209449561Y-168011978D01*
X209564589Y-167938055D01*
X209654130Y-167834718D01*
X209710931Y-167710342D01*
X209730390Y-167575000D01*
X210269610Y-167575000D01*
X210289068Y-167710337D01*
X210289070Y-167710345D01*
X210345867Y-167834714D01*
X210345872Y-167834721D01*
X210435409Y-167938053D01*
X210435413Y-167938057D01*
X210484893Y-167969855D01*
X210550439Y-168011978D01*
X210616036Y-168031239D01*
X210681632Y-168050500D01*
X210681633Y-168050500D01*
X210818367Y-168050500D01*
X210949561Y-168011978D01*
X211064589Y-167938055D01*
X211154130Y-167834718D01*
X211210931Y-167710342D01*
X211230390Y-167575000D01*
X211769610Y-167575000D01*
X211789068Y-167710337D01*
X211789070Y-167710345D01*
X211845867Y-167834714D01*
X211845872Y-167834721D01*
X211935409Y-167938053D01*
X211935413Y-167938057D01*
X211984893Y-167969855D01*
X212050439Y-168011978D01*
X212116036Y-168031239D01*
X212181632Y-168050500D01*
X212181633Y-168050500D01*
X212318367Y-168050500D01*
X212449561Y-168011978D01*
X212564589Y-167938055D01*
X212654130Y-167834718D01*
X212710931Y-167710342D01*
X212730390Y-167575000D01*
X212710931Y-167439658D01*
X212680198Y-167372362D01*
X212654132Y-167315285D01*
X212654127Y-167315278D01*
X212564590Y-167211946D01*
X212564586Y-167211942D01*
X212473736Y-167153558D01*
X212449561Y-167138022D01*
X212449560Y-167138021D01*
X212449559Y-167138021D01*
X212318368Y-167099500D01*
X212318367Y-167099500D01*
X212181633Y-167099500D01*
X212181632Y-167099500D01*
X212050440Y-167138021D01*
X211935413Y-167211942D01*
X211935409Y-167211946D01*
X211845872Y-167315278D01*
X211845867Y-167315285D01*
X211789070Y-167439654D01*
X211789068Y-167439662D01*
X211769610Y-167575000D01*
X211230390Y-167575000D01*
X211210931Y-167439658D01*
X211180198Y-167372362D01*
X211154132Y-167315285D01*
X211154127Y-167315278D01*
X211064590Y-167211946D01*
X211064586Y-167211942D01*
X210973736Y-167153558D01*
X210949561Y-167138022D01*
X210949560Y-167138021D01*
X210949559Y-167138021D01*
X210818368Y-167099500D01*
X210818367Y-167099500D01*
X210681633Y-167099500D01*
X210681632Y-167099500D01*
X210550440Y-167138021D01*
X210435413Y-167211942D01*
X210435409Y-167211946D01*
X210345872Y-167315278D01*
X210345867Y-167315285D01*
X210289070Y-167439654D01*
X210289068Y-167439662D01*
X210269610Y-167575000D01*
X209730390Y-167575000D01*
X209710931Y-167439658D01*
X209680198Y-167372362D01*
X209654132Y-167315285D01*
X209654127Y-167315278D01*
X209564590Y-167211946D01*
X209564586Y-167211942D01*
X209473736Y-167153558D01*
X209449561Y-167138022D01*
X209449560Y-167138021D01*
X209449559Y-167138021D01*
X209318368Y-167099500D01*
X209318367Y-167099500D01*
X209181633Y-167099500D01*
X209181632Y-167099500D01*
X209050440Y-167138021D01*
X208935413Y-167211942D01*
X208935409Y-167211946D01*
X208845872Y-167315278D01*
X208845867Y-167315285D01*
X208789070Y-167439654D01*
X208789068Y-167439662D01*
X208769610Y-167575000D01*
X208230390Y-167575000D01*
X208210931Y-167439658D01*
X208180198Y-167372362D01*
X208154132Y-167315285D01*
X208154127Y-167315278D01*
X208064590Y-167211946D01*
X208064586Y-167211942D01*
X207973736Y-167153558D01*
X207949561Y-167138022D01*
X207949560Y-167138021D01*
X207949559Y-167138021D01*
X207818368Y-167099500D01*
X207818367Y-167099500D01*
X207681633Y-167099500D01*
X207681632Y-167099500D01*
X207550440Y-167138021D01*
X207435413Y-167211942D01*
X207435409Y-167211946D01*
X207345872Y-167315278D01*
X207345867Y-167315285D01*
X207289070Y-167439654D01*
X207289068Y-167439662D01*
X207269610Y-167575000D01*
X187501337Y-167575000D01*
X187500020Y-167501121D01*
X187500000Y-167498910D01*
X187500000Y-165500000D01*
X189444709Y-165500000D01*
X189463851Y-165779862D01*
X189463852Y-165779864D01*
X189520921Y-166054499D01*
X189520926Y-166054516D01*
X189599109Y-166274500D01*
X189614864Y-166318830D01*
X189743919Y-166567896D01*
X189905688Y-166797069D01*
X189905692Y-166797073D01*
X189905692Y-166797074D01*
X190013863Y-166912897D01*
X190097155Y-167002081D01*
X190314754Y-167179111D01*
X190314756Y-167179112D01*
X190314757Y-167179113D01*
X190554433Y-167324863D01*
X190763257Y-167415567D01*
X190811725Y-167436620D01*
X191081839Y-167512303D01*
X191326159Y-167545884D01*
X191359741Y-167550500D01*
X191359742Y-167550500D01*
X191640259Y-167550500D01*
X191670219Y-167546381D01*
X191918161Y-167512303D01*
X192188275Y-167436620D01*
X192445568Y-167324862D01*
X192685246Y-167179111D01*
X192902845Y-167002081D01*
X193094312Y-166797069D01*
X193127537Y-166750000D01*
X217769610Y-166750000D01*
X217789068Y-166885337D01*
X217789070Y-166885345D01*
X217845867Y-167009714D01*
X217845870Y-167009718D01*
X217907893Y-167081298D01*
X217936917Y-167144855D01*
X217926973Y-167214013D01*
X217907893Y-167243702D01*
X217845870Y-167315281D01*
X217845867Y-167315285D01*
X217789070Y-167439654D01*
X217789068Y-167439662D01*
X217769610Y-167575000D01*
X217789068Y-167710337D01*
X217789070Y-167710345D01*
X217845867Y-167834714D01*
X217845870Y-167834718D01*
X217907893Y-167906298D01*
X217936917Y-167969855D01*
X217926973Y-168039013D01*
X217907893Y-168068702D01*
X217845870Y-168140281D01*
X217845867Y-168140285D01*
X217789070Y-168264654D01*
X217789068Y-168264662D01*
X217769610Y-168400000D01*
X217789068Y-168535337D01*
X217789070Y-168535345D01*
X217845867Y-168659714D01*
X217845872Y-168659721D01*
X217935409Y-168763053D01*
X217935413Y-168763057D01*
X217995979Y-168801979D01*
X218050439Y-168836978D01*
X218116036Y-168856239D01*
X218181632Y-168875500D01*
X218181633Y-168875500D01*
X218318367Y-168875500D01*
X218449561Y-168836978D01*
X218564589Y-168763055D01*
X218654130Y-168659718D01*
X218710931Y-168535342D01*
X218730390Y-168400000D01*
X218710931Y-168264658D01*
X218689612Y-168217977D01*
X218654132Y-168140285D01*
X218654130Y-168140283D01*
X218654130Y-168140282D01*
X218592104Y-168068700D01*
X218563081Y-168005147D01*
X218563822Y-167999997D01*
X222244723Y-167999997D01*
X222244723Y-168000002D01*
X222263793Y-168217975D01*
X222263793Y-168217979D01*
X222320422Y-168429322D01*
X222320424Y-168429326D01*
X222320425Y-168429330D01*
X222338076Y-168467183D01*
X222412897Y-168627638D01*
X222412898Y-168627639D01*
X222538402Y-168806877D01*
X222693123Y-168961598D01*
X222872361Y-169087102D01*
X223070670Y-169179575D01*
X223282023Y-169236207D01*
X223440120Y-169250038D01*
X223467936Y-169252472D01*
X223497203Y-169263920D01*
X223507936Y-169257023D01*
X223532064Y-169252472D01*
X223554412Y-169250516D01*
X223717977Y-169236207D01*
X223929330Y-169179575D01*
X224127639Y-169087102D01*
X224306877Y-168961598D01*
X224461598Y-168806877D01*
X224587102Y-168627639D01*
X224679575Y-168429330D01*
X224736207Y-168217977D01*
X224755277Y-168000000D01*
X224754183Y-167987500D01*
X224749519Y-167934184D01*
X224736207Y-167782023D01*
X224679575Y-167570670D01*
X224587102Y-167372362D01*
X224587100Y-167372359D01*
X224587099Y-167372357D01*
X224461599Y-167193124D01*
X224406496Y-167138021D01*
X224306877Y-167038402D01*
X224127639Y-166912898D01*
X224127640Y-166912898D01*
X224127638Y-166912897D01*
X224028484Y-166866661D01*
X223929330Y-166820425D01*
X223929326Y-166820424D01*
X223929322Y-166820422D01*
X223717977Y-166763793D01*
X223500002Y-166744723D01*
X223499998Y-166744723D01*
X223354682Y-166757436D01*
X223282023Y-166763793D01*
X223282020Y-166763793D01*
X223070677Y-166820422D01*
X223070668Y-166820426D01*
X222872361Y-166912898D01*
X222872357Y-166912900D01*
X222693121Y-167038402D01*
X222538402Y-167193121D01*
X222412900Y-167372357D01*
X222412898Y-167372361D01*
X222320426Y-167570668D01*
X222320422Y-167570677D01*
X222263793Y-167782020D01*
X222263793Y-167782024D01*
X222244723Y-167999997D01*
X218563822Y-167999997D01*
X218573025Y-167935989D01*
X218592102Y-167906302D01*
X218654130Y-167834718D01*
X218710931Y-167710342D01*
X218730390Y-167575000D01*
X218710931Y-167439658D01*
X218680198Y-167372362D01*
X218654132Y-167315285D01*
X218654130Y-167315283D01*
X218654130Y-167315282D01*
X218592104Y-167243700D01*
X218563081Y-167180147D01*
X218573025Y-167110989D01*
X218592102Y-167081302D01*
X218654130Y-167009718D01*
X218710931Y-166885342D01*
X218730390Y-166750000D01*
X218710931Y-166614658D01*
X218689575Y-166567896D01*
X218654132Y-166490285D01*
X218654127Y-166490278D01*
X218564590Y-166386946D01*
X218564586Y-166386942D01*
X218473736Y-166328558D01*
X218449561Y-166313022D01*
X218449560Y-166313021D01*
X218449559Y-166313021D01*
X218318368Y-166274500D01*
X218318367Y-166274500D01*
X218181633Y-166274500D01*
X218181632Y-166274500D01*
X218050440Y-166313021D01*
X217935413Y-166386942D01*
X217935409Y-166386946D01*
X217845872Y-166490278D01*
X217845867Y-166490285D01*
X217789070Y-166614654D01*
X217789068Y-166614662D01*
X217769610Y-166750000D01*
X193127537Y-166750000D01*
X193256081Y-166567896D01*
X193385136Y-166318830D01*
X193479075Y-166054511D01*
X193479076Y-166054504D01*
X193479078Y-166054499D01*
X193521632Y-165849715D01*
X193536148Y-165779862D01*
X193549135Y-165590001D01*
X210269610Y-165590001D01*
X210289068Y-165725338D01*
X210289070Y-165725346D01*
X210345867Y-165849715D01*
X210345872Y-165849722D01*
X210435409Y-165953054D01*
X210435413Y-165953058D01*
X210495979Y-165991980D01*
X210550439Y-166026979D01*
X210616036Y-166046240D01*
X210681632Y-166065501D01*
X210681633Y-166065501D01*
X210818367Y-166065501D01*
X210949561Y-166026979D01*
X211064589Y-165953056D01*
X211154130Y-165849719D01*
X211210931Y-165725343D01*
X211230390Y-165590001D01*
X211217450Y-165500000D01*
X226444709Y-165500000D01*
X226463851Y-165779862D01*
X226463852Y-165779864D01*
X226520921Y-166054499D01*
X226520926Y-166054516D01*
X226599109Y-166274500D01*
X226614864Y-166318830D01*
X226743919Y-166567896D01*
X226905688Y-166797069D01*
X226905692Y-166797073D01*
X226905692Y-166797074D01*
X227013863Y-166912897D01*
X227097155Y-167002081D01*
X227314754Y-167179111D01*
X227314756Y-167179112D01*
X227314757Y-167179113D01*
X227554433Y-167324863D01*
X227763257Y-167415567D01*
X227811725Y-167436620D01*
X228081839Y-167512303D01*
X228326159Y-167545884D01*
X228359741Y-167550500D01*
X228359742Y-167550500D01*
X228640259Y-167550500D01*
X228670219Y-167546381D01*
X228918161Y-167512303D01*
X229188275Y-167436620D01*
X229445568Y-167324862D01*
X229685246Y-167179111D01*
X229902845Y-167002081D01*
X230094312Y-166797069D01*
X230256081Y-166567896D01*
X230385136Y-166318830D01*
X230479075Y-166054511D01*
X230479076Y-166054504D01*
X230479078Y-166054499D01*
X230521632Y-165849715D01*
X230536148Y-165779862D01*
X230555291Y-165500000D01*
X230536614Y-165226946D01*
X230536148Y-165220137D01*
X230536147Y-165220135D01*
X230479078Y-164945500D01*
X230479073Y-164945483D01*
X230385136Y-164681171D01*
X230385136Y-164681170D01*
X230256081Y-164432104D01*
X230094312Y-164202931D01*
X230094307Y-164202925D01*
X229902845Y-163997919D01*
X229685246Y-163820889D01*
X229685244Y-163820888D01*
X229685242Y-163820886D01*
X229445566Y-163675136D01*
X229188276Y-163563380D01*
X228918166Y-163487698D01*
X228918162Y-163487697D01*
X228918161Y-163487697D01*
X228779209Y-163468598D01*
X228640259Y-163449500D01*
X228640258Y-163449500D01*
X228359742Y-163449500D01*
X228359741Y-163449500D01*
X228081839Y-163487697D01*
X228081833Y-163487698D01*
X227811723Y-163563380D01*
X227554433Y-163675136D01*
X227314757Y-163820886D01*
X227097154Y-163997919D01*
X226905692Y-164202925D01*
X226905692Y-164202926D01*
X226743919Y-164432103D01*
X226614863Y-164681171D01*
X226520926Y-164945483D01*
X226520921Y-164945500D01*
X226463852Y-165220135D01*
X226463851Y-165220137D01*
X226444709Y-165500000D01*
X211217450Y-165500000D01*
X211210931Y-165454659D01*
X211198677Y-165427828D01*
X211154132Y-165330286D01*
X211154127Y-165330279D01*
X211064590Y-165226947D01*
X211064586Y-165226943D01*
X210949559Y-165153022D01*
X210818368Y-165114501D01*
X210818367Y-165114501D01*
X210681633Y-165114501D01*
X210681632Y-165114501D01*
X210550440Y-165153022D01*
X210435413Y-165226943D01*
X210435409Y-165226947D01*
X210345872Y-165330279D01*
X210345867Y-165330286D01*
X210289070Y-165454655D01*
X210289068Y-165454663D01*
X210269610Y-165590001D01*
X193549135Y-165590001D01*
X193555291Y-165500000D01*
X193536614Y-165226946D01*
X193536148Y-165220137D01*
X193536147Y-165220135D01*
X193479078Y-164945500D01*
X193479073Y-164945483D01*
X193385136Y-164681171D01*
X193385136Y-164681170D01*
X193256081Y-164432104D01*
X193094312Y-164202931D01*
X193094307Y-164202925D01*
X192902845Y-163997919D01*
X192685246Y-163820889D01*
X192685244Y-163820888D01*
X192685242Y-163820886D01*
X192445566Y-163675136D01*
X192188276Y-163563380D01*
X191918166Y-163487698D01*
X191918162Y-163487697D01*
X191918161Y-163487697D01*
X191779209Y-163468598D01*
X191640259Y-163449500D01*
X191640258Y-163449500D01*
X191359742Y-163449500D01*
X191359741Y-163449500D01*
X191081839Y-163487697D01*
X191081833Y-163487698D01*
X190811723Y-163563380D01*
X190554433Y-163675136D01*
X190314757Y-163820886D01*
X190097154Y-163997919D01*
X189905692Y-164202925D01*
X189905692Y-164202926D01*
X189743919Y-164432103D01*
X189614863Y-164681171D01*
X189520926Y-164945483D01*
X189520921Y-164945500D01*
X189463852Y-165220135D01*
X189463851Y-165220137D01*
X189444709Y-165500000D01*
X187500000Y-165500000D01*
X187500000Y-162999997D01*
X222244723Y-162999997D01*
X222244723Y-163000002D01*
X222263793Y-163217975D01*
X222263793Y-163217979D01*
X222320422Y-163429322D01*
X222320424Y-163429326D01*
X222320425Y-163429330D01*
X222366661Y-163528484D01*
X222412897Y-163627638D01*
X222412898Y-163627639D01*
X222538402Y-163806877D01*
X222693123Y-163961598D01*
X222872361Y-164087102D01*
X223070670Y-164179575D01*
X223282023Y-164236207D01*
X223464926Y-164252208D01*
X223499998Y-164255277D01*
X223500000Y-164255277D01*
X223500002Y-164255277D01*
X223528254Y-164252805D01*
X223717977Y-164236207D01*
X223929330Y-164179575D01*
X224127639Y-164087102D01*
X224306877Y-163961598D01*
X224461598Y-163806877D01*
X224587102Y-163627639D01*
X224679575Y-163429330D01*
X224736207Y-163217977D01*
X224755277Y-163000000D01*
X224736207Y-162782023D01*
X224679575Y-162570670D01*
X224587102Y-162372362D01*
X224587100Y-162372359D01*
X224587099Y-162372357D01*
X224461599Y-162193124D01*
X224418475Y-162150000D01*
X224306877Y-162038402D01*
X224127639Y-161912898D01*
X224127640Y-161912898D01*
X224127638Y-161912897D01*
X224028484Y-161866661D01*
X223929330Y-161820425D01*
X223929326Y-161820424D01*
X223929322Y-161820422D01*
X223717977Y-161763793D01*
X223500002Y-161744723D01*
X223499998Y-161744723D01*
X223354682Y-161757436D01*
X223282023Y-161763793D01*
X223282020Y-161763793D01*
X223070677Y-161820422D01*
X223070668Y-161820426D01*
X222872361Y-161912898D01*
X222872357Y-161912900D01*
X222693121Y-162038402D01*
X222538402Y-162193121D01*
X222412900Y-162372357D01*
X222412898Y-162372361D01*
X222320426Y-162570668D01*
X222320422Y-162570677D01*
X222263793Y-162782020D01*
X222263793Y-162782024D01*
X222244723Y-162999997D01*
X187500000Y-162999997D01*
X187500000Y-161850000D01*
X212779609Y-161850000D01*
X212799067Y-161985337D01*
X212799069Y-161985345D01*
X212855866Y-162109714D01*
X212855871Y-162109721D01*
X212945408Y-162213053D01*
X212945412Y-162213057D01*
X213005978Y-162251979D01*
X213060438Y-162286978D01*
X213126035Y-162306239D01*
X213191631Y-162325500D01*
X213191632Y-162325500D01*
X213328366Y-162325500D01*
X213459560Y-162286978D01*
X213574588Y-162213055D01*
X213664129Y-162109718D01*
X213720930Y-161985342D01*
X213740389Y-161850000D01*
X213720930Y-161714658D01*
X213688569Y-161643797D01*
X213664131Y-161590285D01*
X213664126Y-161590278D01*
X213574589Y-161486946D01*
X213574585Y-161486942D01*
X213459558Y-161413021D01*
X213328367Y-161374500D01*
X213328366Y-161374500D01*
X213191632Y-161374500D01*
X213191631Y-161374500D01*
X213060439Y-161413021D01*
X212945412Y-161486942D01*
X212945408Y-161486946D01*
X212855871Y-161590278D01*
X212855866Y-161590285D01*
X212799069Y-161714654D01*
X212799067Y-161714662D01*
X212779609Y-161850000D01*
X187500000Y-161850000D01*
X187500000Y-160500000D01*
X217769610Y-160500000D01*
X217789068Y-160635337D01*
X217789070Y-160635345D01*
X217845867Y-160759714D01*
X217845870Y-160759718D01*
X217897062Y-160818798D01*
X217926086Y-160882354D01*
X217916142Y-160951513D01*
X217897062Y-160981202D01*
X217845870Y-161040281D01*
X217845867Y-161040285D01*
X217789070Y-161164654D01*
X217789068Y-161164662D01*
X217769610Y-161300000D01*
X217789068Y-161435337D01*
X217789070Y-161435345D01*
X217845867Y-161559714D01*
X217845870Y-161559718D01*
X217918724Y-161643798D01*
X217947748Y-161707355D01*
X217937804Y-161776513D01*
X217918724Y-161806202D01*
X217845870Y-161890281D01*
X217845867Y-161890285D01*
X217789070Y-162014654D01*
X217789068Y-162014662D01*
X217769610Y-162150000D01*
X217789068Y-162285337D01*
X217789070Y-162285345D01*
X217845867Y-162409714D01*
X217845872Y-162409721D01*
X217935409Y-162513053D01*
X217935413Y-162513057D01*
X217995979Y-162551979D01*
X218050439Y-162586978D01*
X218116036Y-162606239D01*
X218181632Y-162625500D01*
X218181633Y-162625500D01*
X218318367Y-162625500D01*
X218449561Y-162586978D01*
X218564589Y-162513055D01*
X218654130Y-162409718D01*
X218710931Y-162285342D01*
X218730390Y-162150000D01*
X218710931Y-162014658D01*
X218697540Y-161985337D01*
X218654132Y-161890285D01*
X218654130Y-161890283D01*
X218654130Y-161890282D01*
X218581273Y-161806200D01*
X218552250Y-161742647D01*
X218562194Y-161673489D01*
X218581272Y-161643801D01*
X218654130Y-161559718D01*
X218710931Y-161435342D01*
X218730390Y-161300000D01*
X218710931Y-161164658D01*
X218698677Y-161137827D01*
X218654132Y-161040285D01*
X218654130Y-161040283D01*
X218654130Y-161040282D01*
X218602935Y-160981199D01*
X218573912Y-160917648D01*
X218583855Y-160848489D01*
X218602933Y-160818802D01*
X218654130Y-160759718D01*
X218710931Y-160635342D01*
X218730390Y-160500000D01*
X218710931Y-160364658D01*
X218698677Y-160337827D01*
X218654132Y-160240285D01*
X218654127Y-160240278D01*
X218564590Y-160136946D01*
X218564586Y-160136942D01*
X218449559Y-160063021D01*
X218318368Y-160024500D01*
X218318367Y-160024500D01*
X218181633Y-160024500D01*
X218181632Y-160024500D01*
X218050440Y-160063021D01*
X217935413Y-160136942D01*
X217935409Y-160136946D01*
X217845872Y-160240278D01*
X217845867Y-160240285D01*
X217789070Y-160364654D01*
X217789068Y-160364662D01*
X217769610Y-160500000D01*
X187500000Y-160500000D01*
X187500000Y-159520000D01*
X222519610Y-159520000D01*
X222539068Y-159655337D01*
X222539070Y-159655345D01*
X222595867Y-159779714D01*
X222595872Y-159779721D01*
X222685409Y-159883053D01*
X222685413Y-159883057D01*
X222745979Y-159921979D01*
X222800439Y-159956978D01*
X222866036Y-159976239D01*
X222931632Y-159995500D01*
X222931633Y-159995500D01*
X223068367Y-159995500D01*
X223199561Y-159956978D01*
X223314589Y-159883055D01*
X223404130Y-159779718D01*
X223460931Y-159655342D01*
X223480390Y-159520000D01*
X223460931Y-159384658D01*
X223448677Y-159357827D01*
X223404132Y-159260285D01*
X223404127Y-159260278D01*
X223314590Y-159156946D01*
X223314586Y-159156942D01*
X223199559Y-159083021D01*
X223068368Y-159044500D01*
X223068367Y-159044500D01*
X222931633Y-159044500D01*
X222931632Y-159044500D01*
X222800440Y-159083021D01*
X222685413Y-159156942D01*
X222685409Y-159156946D01*
X222595872Y-159260278D01*
X222595867Y-159260285D01*
X222539070Y-159384654D01*
X222539068Y-159384662D01*
X222519610Y-159520000D01*
X187500000Y-159520000D01*
X187500000Y-155000000D01*
X192519610Y-155000000D01*
X192539068Y-155135337D01*
X192539070Y-155135345D01*
X192595867Y-155259714D01*
X192595872Y-155259721D01*
X192685409Y-155363053D01*
X192685411Y-155363055D01*
X192736184Y-155395684D01*
X192781939Y-155448488D01*
X192791883Y-155517646D01*
X192762859Y-155581202D01*
X192736185Y-155604314D01*
X192736182Y-155604317D01*
X192685410Y-155636945D01*
X192685409Y-155636946D01*
X192595872Y-155740278D01*
X192595867Y-155740285D01*
X192539070Y-155864654D01*
X192539068Y-155864662D01*
X192519610Y-156000000D01*
X192539068Y-156135337D01*
X192539070Y-156135345D01*
X192595867Y-156259714D01*
X192595872Y-156259721D01*
X192674533Y-156350501D01*
X192685411Y-156363055D01*
X192736184Y-156395684D01*
X192781939Y-156448488D01*
X192791883Y-156517646D01*
X192762859Y-156581202D01*
X192736185Y-156604314D01*
X192736182Y-156604317D01*
X192685410Y-156636945D01*
X192685409Y-156636946D01*
X192595872Y-156740278D01*
X192595867Y-156740285D01*
X192539070Y-156864654D01*
X192539068Y-156864662D01*
X192519610Y-157000000D01*
X192539068Y-157135337D01*
X192539070Y-157135345D01*
X192595867Y-157259714D01*
X192595872Y-157259721D01*
X192651956Y-157324446D01*
X192685411Y-157363055D01*
X192736184Y-157395684D01*
X192781939Y-157448488D01*
X192791883Y-157517646D01*
X192762859Y-157581202D01*
X192736185Y-157604314D01*
X192736182Y-157604317D01*
X192685410Y-157636945D01*
X192685409Y-157636946D01*
X192595872Y-157740278D01*
X192595867Y-157740285D01*
X192539070Y-157864654D01*
X192539068Y-157864662D01*
X192519610Y-158000000D01*
X192539068Y-158135337D01*
X192539070Y-158135345D01*
X192595867Y-158259714D01*
X192595872Y-158259721D01*
X192685409Y-158363053D01*
X192685411Y-158363055D01*
X192736184Y-158395684D01*
X192781939Y-158448488D01*
X192791883Y-158517646D01*
X192762859Y-158581202D01*
X192736184Y-158604316D01*
X192685412Y-158636944D01*
X192685410Y-158636946D01*
X192595873Y-158740278D01*
X192595868Y-158740285D01*
X192539071Y-158864654D01*
X192539069Y-158864662D01*
X192519611Y-159000000D01*
X192539069Y-159135337D01*
X192539071Y-159135345D01*
X192595868Y-159259714D01*
X192595873Y-159259721D01*
X192685410Y-159363053D01*
X192685414Y-159363057D01*
X192745980Y-159401979D01*
X192800440Y-159436978D01*
X192866037Y-159456239D01*
X192931633Y-159475500D01*
X192931634Y-159475500D01*
X193068368Y-159475500D01*
X193199562Y-159436978D01*
X193314590Y-159363055D01*
X193404131Y-159259718D01*
X193460932Y-159135342D01*
X193480391Y-159000000D01*
X193460932Y-158864658D01*
X193448678Y-158837827D01*
X193404133Y-158740285D01*
X193404128Y-158740278D01*
X193314591Y-158636946D01*
X193314590Y-158636945D01*
X193263815Y-158604314D01*
X193218061Y-158551511D01*
X193208117Y-158482353D01*
X193237142Y-158418797D01*
X193263813Y-158395686D01*
X193314589Y-158363055D01*
X193404130Y-158259718D01*
X193460931Y-158135342D01*
X193480390Y-158000000D01*
X194379609Y-158000000D01*
X194399067Y-158135337D01*
X194399069Y-158135345D01*
X194455866Y-158259714D01*
X194455871Y-158259721D01*
X194545408Y-158363053D01*
X194545412Y-158363057D01*
X194596179Y-158395682D01*
X194660438Y-158436978D01*
X194726035Y-158456239D01*
X194791631Y-158475500D01*
X194791632Y-158475500D01*
X194928366Y-158475500D01*
X195059560Y-158436978D01*
X195174588Y-158363055D01*
X195264129Y-158259718D01*
X195320930Y-158135342D01*
X195340389Y-158000000D01*
X195320930Y-157864658D01*
X195301831Y-157822837D01*
X195264131Y-157740285D01*
X195264126Y-157740278D01*
X195174589Y-157636946D01*
X195174585Y-157636942D01*
X195078198Y-157575000D01*
X212469610Y-157575000D01*
X212489068Y-157710337D01*
X212489070Y-157710345D01*
X212545867Y-157834714D01*
X212545872Y-157834721D01*
X212635409Y-157938053D01*
X212635413Y-157938057D01*
X212695979Y-157976979D01*
X212750439Y-158011978D01*
X212816036Y-158031239D01*
X212881632Y-158050500D01*
X212881633Y-158050500D01*
X213018367Y-158050500D01*
X213149561Y-158011978D01*
X213264589Y-157938055D01*
X213354130Y-157834718D01*
X213410931Y-157710342D01*
X213414215Y-157687500D01*
X220319610Y-157687500D01*
X220339068Y-157822837D01*
X220339070Y-157822845D01*
X220395867Y-157947214D01*
X220395872Y-157947221D01*
X220485409Y-158050553D01*
X220485413Y-158050557D01*
X220545979Y-158089479D01*
X220600439Y-158124478D01*
X220637449Y-158135345D01*
X220731632Y-158163000D01*
X220731633Y-158163000D01*
X220868367Y-158163000D01*
X220999561Y-158124478D01*
X221114589Y-158050555D01*
X221204130Y-157947218D01*
X221260931Y-157822842D01*
X221280390Y-157687500D01*
X221260931Y-157552158D01*
X221229053Y-157482355D01*
X221204132Y-157427785D01*
X221204127Y-157427778D01*
X221114590Y-157324446D01*
X221114586Y-157324442D01*
X220999559Y-157250521D01*
X220868368Y-157212000D01*
X220868367Y-157212000D01*
X220731633Y-157212000D01*
X220731632Y-157212000D01*
X220600440Y-157250521D01*
X220485413Y-157324442D01*
X220485409Y-157324446D01*
X220395872Y-157427778D01*
X220395867Y-157427785D01*
X220339070Y-157552154D01*
X220339068Y-157552162D01*
X220319610Y-157687500D01*
X213414215Y-157687500D01*
X213430390Y-157575000D01*
X213410931Y-157439658D01*
X213386873Y-157386978D01*
X213354132Y-157315285D01*
X213354127Y-157315278D01*
X213264590Y-157211946D01*
X213264586Y-157211942D01*
X213149559Y-157138021D01*
X213018368Y-157099500D01*
X213018367Y-157099500D01*
X212881633Y-157099500D01*
X212881632Y-157099500D01*
X212750440Y-157138021D01*
X212635413Y-157211942D01*
X212635409Y-157211946D01*
X212545872Y-157315278D01*
X212545867Y-157315285D01*
X212489070Y-157439654D01*
X212489068Y-157439662D01*
X212469610Y-157575000D01*
X195078198Y-157575000D01*
X195059558Y-157563021D01*
X194928367Y-157524500D01*
X194928366Y-157524500D01*
X194791632Y-157524500D01*
X194791631Y-157524500D01*
X194660439Y-157563021D01*
X194545412Y-157636942D01*
X194545408Y-157636946D01*
X194455871Y-157740278D01*
X194455866Y-157740285D01*
X194399069Y-157864654D01*
X194399067Y-157864662D01*
X194379609Y-158000000D01*
X193480390Y-158000000D01*
X193460931Y-157864658D01*
X193441832Y-157822837D01*
X193404132Y-157740285D01*
X193404127Y-157740278D01*
X193314590Y-157636946D01*
X193314591Y-157636946D01*
X193305899Y-157631360D01*
X193263813Y-157604313D01*
X193218060Y-157551513D01*
X193208116Y-157482355D01*
X193237140Y-157418799D01*
X193263809Y-157395688D01*
X193314589Y-157363055D01*
X193404130Y-157259718D01*
X193460931Y-157135342D01*
X193480390Y-157000000D01*
X193473201Y-156950000D01*
X197344610Y-156950000D01*
X197364068Y-157085337D01*
X197364070Y-157085345D01*
X197420867Y-157209714D01*
X197420872Y-157209721D01*
X197510409Y-157313053D01*
X197510413Y-157313057D01*
X197570979Y-157351979D01*
X197625439Y-157386978D01*
X197655086Y-157395683D01*
X197756632Y-157425500D01*
X197756633Y-157425500D01*
X197893367Y-157425500D01*
X198024561Y-157386978D01*
X198139589Y-157313055D01*
X198229130Y-157209718D01*
X198285931Y-157085342D01*
X198305390Y-156950000D01*
X198285931Y-156814658D01*
X198251966Y-156740285D01*
X198229132Y-156690285D01*
X198229127Y-156690278D01*
X198139590Y-156586946D01*
X198139586Y-156586942D01*
X198024559Y-156513021D01*
X197893368Y-156474500D01*
X197893367Y-156474500D01*
X197756633Y-156474500D01*
X197756632Y-156474500D01*
X197625440Y-156513021D01*
X197510413Y-156586942D01*
X197510409Y-156586946D01*
X197420872Y-156690278D01*
X197420867Y-156690285D01*
X197364070Y-156814654D01*
X197364068Y-156814662D01*
X197344610Y-156950000D01*
X193473201Y-156950000D01*
X193460931Y-156864658D01*
X193448677Y-156837827D01*
X193404132Y-156740285D01*
X193404127Y-156740278D01*
X193314590Y-156636946D01*
X193314591Y-156636946D01*
X193305899Y-156631360D01*
X193263813Y-156604313D01*
X193218060Y-156551513D01*
X193208116Y-156482355D01*
X193237140Y-156418799D01*
X193263809Y-156395688D01*
X193314589Y-156363055D01*
X193404130Y-156259718D01*
X193460931Y-156135342D01*
X193480390Y-156000000D01*
X193462418Y-155875001D01*
X218269610Y-155875001D01*
X218289068Y-156010338D01*
X218289070Y-156010346D01*
X218345867Y-156134715D01*
X218345872Y-156134722D01*
X218435409Y-156238054D01*
X218435413Y-156238058D01*
X218495979Y-156276980D01*
X218550439Y-156311979D01*
X218616036Y-156331240D01*
X218681632Y-156350501D01*
X218681633Y-156350501D01*
X218818367Y-156350501D01*
X218949561Y-156311979D01*
X219064589Y-156238056D01*
X219154130Y-156134719D01*
X219210931Y-156010343D01*
X219230390Y-155875001D01*
X219210931Y-155739659D01*
X219198677Y-155712828D01*
X219154132Y-155615286D01*
X219154127Y-155615279D01*
X219064590Y-155511947D01*
X219064586Y-155511943D01*
X219046002Y-155500000D01*
X225494611Y-155500000D01*
X225514069Y-155635337D01*
X225514071Y-155635345D01*
X225570868Y-155759714D01*
X225570873Y-155759721D01*
X225660410Y-155863053D01*
X225660414Y-155863057D01*
X225720980Y-155901979D01*
X225775440Y-155936978D01*
X225841037Y-155956239D01*
X225906633Y-155975500D01*
X225906634Y-155975500D01*
X226043368Y-155975500D01*
X226174562Y-155936978D01*
X226289590Y-155863055D01*
X226379131Y-155759718D01*
X226435932Y-155635342D01*
X226455391Y-155500000D01*
X226435932Y-155364658D01*
X226388009Y-155259721D01*
X226379133Y-155240285D01*
X226379128Y-155240278D01*
X226289591Y-155136946D01*
X226289587Y-155136942D01*
X226174560Y-155063021D01*
X226043369Y-155024500D01*
X226043368Y-155024500D01*
X225906634Y-155024500D01*
X225906633Y-155024500D01*
X225775441Y-155063021D01*
X225660414Y-155136942D01*
X225660410Y-155136946D01*
X225570873Y-155240278D01*
X225570868Y-155240285D01*
X225514071Y-155364654D01*
X225514069Y-155364662D01*
X225494611Y-155500000D01*
X219046002Y-155500000D01*
X218949559Y-155438022D01*
X218818368Y-155399501D01*
X218818367Y-155399501D01*
X218681633Y-155399501D01*
X218681632Y-155399501D01*
X218550440Y-155438022D01*
X218435413Y-155511943D01*
X218435409Y-155511947D01*
X218345872Y-155615279D01*
X218345867Y-155615286D01*
X218289070Y-155739655D01*
X218289068Y-155739663D01*
X218269610Y-155875001D01*
X193462418Y-155875001D01*
X193460931Y-155864658D01*
X193413008Y-155759721D01*
X193404132Y-155740285D01*
X193404127Y-155740278D01*
X193314590Y-155636946D01*
X193314591Y-155636946D01*
X193305899Y-155631360D01*
X193263813Y-155604313D01*
X193218060Y-155551513D01*
X193208116Y-155482355D01*
X193237140Y-155418799D01*
X193263809Y-155395688D01*
X193314589Y-155363055D01*
X193404130Y-155259718D01*
X193460931Y-155135342D01*
X193480390Y-155000000D01*
X193460931Y-154864658D01*
X193436873Y-154811978D01*
X193404132Y-154740285D01*
X193404127Y-154740278D01*
X193314590Y-154636946D01*
X193314586Y-154636942D01*
X193199559Y-154563021D01*
X193068368Y-154524500D01*
X193068367Y-154524500D01*
X192931633Y-154524500D01*
X192931632Y-154524500D01*
X192800440Y-154563021D01*
X192685413Y-154636942D01*
X192685409Y-154636946D01*
X192595872Y-154740278D01*
X192595867Y-154740285D01*
X192539070Y-154864654D01*
X192539068Y-154864662D01*
X192519610Y-155000000D01*
X187500000Y-155000000D01*
X187500000Y-154375000D01*
X218769610Y-154375000D01*
X218789068Y-154510337D01*
X218789070Y-154510345D01*
X218845867Y-154634714D01*
X218845872Y-154634721D01*
X218935409Y-154738053D01*
X218935413Y-154738057D01*
X218995979Y-154776979D01*
X219050439Y-154811978D01*
X219116036Y-154831239D01*
X219181632Y-154850500D01*
X219181633Y-154850500D01*
X219318367Y-154850500D01*
X219449561Y-154811978D01*
X219564589Y-154738055D01*
X219654130Y-154634718D01*
X219710931Y-154510342D01*
X219730390Y-154375000D01*
X219710931Y-154239658D01*
X219663293Y-154135345D01*
X219654132Y-154115285D01*
X219654127Y-154115278D01*
X219564590Y-154011946D01*
X219564586Y-154011942D01*
X219449559Y-153938021D01*
X219318368Y-153899500D01*
X219318367Y-153899500D01*
X219181633Y-153899500D01*
X219181632Y-153899500D01*
X219050440Y-153938021D01*
X218935413Y-154011942D01*
X218935409Y-154011946D01*
X218845872Y-154115278D01*
X218845867Y-154115285D01*
X218789070Y-154239654D01*
X218789068Y-154239662D01*
X218769610Y-154375000D01*
X187500000Y-154375000D01*
X187500000Y-153750000D01*
X224749610Y-153750000D01*
X224769068Y-153885337D01*
X224769070Y-153885345D01*
X224825867Y-154009714D01*
X224825872Y-154009721D01*
X224915409Y-154113053D01*
X224915413Y-154113057D01*
X224950095Y-154135345D01*
X225030439Y-154186978D01*
X225096036Y-154206239D01*
X225161632Y-154225500D01*
X225161633Y-154225500D01*
X225298367Y-154225500D01*
X225429561Y-154186978D01*
X225544589Y-154113055D01*
X225634130Y-154009718D01*
X225690931Y-153885342D01*
X225710390Y-153750000D01*
X225690931Y-153614658D01*
X225678677Y-153587827D01*
X225634132Y-153490285D01*
X225634127Y-153490278D01*
X225544590Y-153386946D01*
X225544586Y-153386942D01*
X225429559Y-153313021D01*
X225298368Y-153274500D01*
X225298367Y-153274500D01*
X225161633Y-153274500D01*
X225161632Y-153274500D01*
X225030440Y-153313021D01*
X224915413Y-153386942D01*
X224915409Y-153386946D01*
X224825872Y-153490278D01*
X224825867Y-153490285D01*
X224769070Y-153614654D01*
X224769068Y-153614662D01*
X224749610Y-153750000D01*
X187500000Y-153750000D01*
X187500000Y-153159999D01*
X218869610Y-153159999D01*
X218889068Y-153295336D01*
X218889070Y-153295344D01*
X218945867Y-153419713D01*
X218945872Y-153419720D01*
X219035409Y-153523052D01*
X219035413Y-153523056D01*
X219062363Y-153540375D01*
X219150439Y-153596977D01*
X219210641Y-153614654D01*
X219281632Y-153635499D01*
X219281633Y-153635499D01*
X219418367Y-153635499D01*
X219549561Y-153596977D01*
X219664589Y-153523054D01*
X219754130Y-153419717D01*
X219810931Y-153295341D01*
X219830390Y-153159999D01*
X219810931Y-153024657D01*
X219782306Y-152961978D01*
X219754132Y-152900284D01*
X219754127Y-152900277D01*
X219664590Y-152796945D01*
X219664586Y-152796941D01*
X219549559Y-152723020D01*
X219418368Y-152684499D01*
X219418367Y-152684499D01*
X219281633Y-152684499D01*
X219281632Y-152684499D01*
X219150440Y-152723020D01*
X219035413Y-152796941D01*
X219035409Y-152796945D01*
X218945872Y-152900277D01*
X218945867Y-152900284D01*
X218889070Y-153024653D01*
X218889068Y-153024661D01*
X218869610Y-153159999D01*
X187500000Y-153159999D01*
X187500000Y-152525000D01*
X221269610Y-152525000D01*
X221289068Y-152660337D01*
X221289070Y-152660345D01*
X221345867Y-152784714D01*
X221345872Y-152784721D01*
X221435409Y-152888053D01*
X221435413Y-152888057D01*
X221550441Y-152961979D01*
X221684058Y-153001212D01*
X221742837Y-153038986D01*
X221771862Y-153102541D01*
X221771862Y-153137835D01*
X221769610Y-153153500D01*
X221776194Y-153199294D01*
X221789068Y-153288837D01*
X221789070Y-153288845D01*
X221845867Y-153413214D01*
X221845872Y-153413221D01*
X221935409Y-153516553D01*
X221935413Y-153516557D01*
X221972476Y-153540375D01*
X222050439Y-153590478D01*
X222072573Y-153596977D01*
X222181632Y-153629000D01*
X222181633Y-153629000D01*
X222318367Y-153629000D01*
X222449561Y-153590478D01*
X222564589Y-153516555D01*
X222654130Y-153413218D01*
X222710931Y-153288842D01*
X222716516Y-153250000D01*
X226269610Y-153250000D01*
X226289068Y-153385337D01*
X226289070Y-153385345D01*
X226345867Y-153509714D01*
X226345872Y-153509721D01*
X226435409Y-153613053D01*
X226435413Y-153613057D01*
X226495979Y-153651979D01*
X226550439Y-153686978D01*
X226616036Y-153706239D01*
X226681632Y-153725500D01*
X226681633Y-153725500D01*
X226818367Y-153725500D01*
X226949561Y-153686978D01*
X227064589Y-153613055D01*
X227130049Y-153537508D01*
X227156287Y-153507229D01*
X227215065Y-153469454D01*
X227284934Y-153469454D01*
X227343713Y-153507228D01*
X227343713Y-153507229D01*
X227435409Y-153613053D01*
X227435413Y-153613057D01*
X227495979Y-153651979D01*
X227550439Y-153686978D01*
X227681633Y-153725500D01*
X227681641Y-153725500D01*
X227683752Y-153725804D01*
X227685705Y-153726696D01*
X227690143Y-153727999D01*
X227689955Y-153728636D01*
X227747309Y-153754827D01*
X227785086Y-153813603D01*
X227788848Y-153866189D01*
X227769610Y-153999999D01*
X227769610Y-154000000D01*
X227771328Y-154011946D01*
X227789068Y-154135337D01*
X227789070Y-154135345D01*
X227845867Y-154259714D01*
X227845872Y-154259721D01*
X227935409Y-154363053D01*
X227935413Y-154363057D01*
X227995979Y-154401979D01*
X228050439Y-154436978D01*
X228116036Y-154456239D01*
X228181632Y-154475500D01*
X228181633Y-154475500D01*
X228318367Y-154475500D01*
X228449561Y-154436978D01*
X228564589Y-154363055D01*
X228654130Y-154259718D01*
X228710931Y-154135342D01*
X228730390Y-154000000D01*
X228710931Y-153864658D01*
X228660773Y-153754827D01*
X228654132Y-153740285D01*
X228654127Y-153740278D01*
X228564590Y-153636946D01*
X228564586Y-153636942D01*
X228449559Y-153563021D01*
X228318363Y-153524498D01*
X228316238Y-153524193D01*
X228314285Y-153523301D01*
X228309857Y-153522001D01*
X228310044Y-153521364D01*
X228252683Y-153495166D01*
X228214911Y-153436387D01*
X228211151Y-153383809D01*
X228230390Y-153250000D01*
X228769610Y-153250000D01*
X228789068Y-153385337D01*
X228789070Y-153385345D01*
X228845867Y-153509714D01*
X228845872Y-153509721D01*
X228935409Y-153613053D01*
X228935413Y-153613057D01*
X228995979Y-153651979D01*
X229050439Y-153686978D01*
X229181633Y-153725500D01*
X229181641Y-153725500D01*
X229183752Y-153725804D01*
X229185705Y-153726696D01*
X229190143Y-153727999D01*
X229189955Y-153728636D01*
X229247309Y-153754827D01*
X229285086Y-153813603D01*
X229288848Y-153866189D01*
X229269610Y-153999999D01*
X229269610Y-154000000D01*
X229271328Y-154011946D01*
X229289068Y-154135337D01*
X229289070Y-154135345D01*
X229345867Y-154259714D01*
X229345872Y-154259721D01*
X229435409Y-154363053D01*
X229435413Y-154363057D01*
X229495979Y-154401979D01*
X229550439Y-154436978D01*
X229616036Y-154456239D01*
X229681632Y-154475500D01*
X229681633Y-154475500D01*
X229818367Y-154475500D01*
X229949561Y-154436978D01*
X230064589Y-154363055D01*
X230154130Y-154259718D01*
X230210931Y-154135342D01*
X230230390Y-154000000D01*
X230210931Y-153864658D01*
X230160773Y-153754827D01*
X230154132Y-153740285D01*
X230154127Y-153740278D01*
X230064590Y-153636946D01*
X230064586Y-153636942D01*
X229949559Y-153563021D01*
X229818363Y-153524498D01*
X229816238Y-153524193D01*
X229814285Y-153523301D01*
X229809857Y-153522001D01*
X229810044Y-153521364D01*
X229752683Y-153495166D01*
X229714911Y-153436387D01*
X229711151Y-153383809D01*
X229730390Y-153250000D01*
X229710931Y-153114658D01*
X229672518Y-153030545D01*
X229654132Y-152990285D01*
X229654127Y-152990278D01*
X229564590Y-152886946D01*
X229564586Y-152886942D01*
X229449559Y-152813021D01*
X229318368Y-152774500D01*
X229318367Y-152774500D01*
X229181633Y-152774500D01*
X229181632Y-152774500D01*
X229050440Y-152813021D01*
X228935413Y-152886942D01*
X228935409Y-152886946D01*
X228845872Y-152990278D01*
X228845867Y-152990285D01*
X228789070Y-153114654D01*
X228789068Y-153114662D01*
X228769610Y-153250000D01*
X228230390Y-153250000D01*
X228210931Y-153114658D01*
X228172518Y-153030545D01*
X228154132Y-152990285D01*
X228154127Y-152990278D01*
X228064590Y-152886946D01*
X228064586Y-152886942D01*
X227949559Y-152813021D01*
X227818368Y-152774500D01*
X227818367Y-152774500D01*
X227681633Y-152774500D01*
X227681632Y-152774500D01*
X227550440Y-152813021D01*
X227435413Y-152886942D01*
X227435413Y-152886943D01*
X227435411Y-152886944D01*
X227435411Y-152886945D01*
X227423853Y-152900284D01*
X227343713Y-152992771D01*
X227284935Y-153030545D01*
X227215065Y-153030545D01*
X227156287Y-152992771D01*
X227139025Y-152972850D01*
X227064589Y-152886945D01*
X227064586Y-152886943D01*
X227064586Y-152886942D01*
X226949559Y-152813021D01*
X226818368Y-152774500D01*
X226818367Y-152774500D01*
X226681633Y-152774500D01*
X226681632Y-152774500D01*
X226550440Y-152813021D01*
X226435413Y-152886942D01*
X226435409Y-152886946D01*
X226345872Y-152990278D01*
X226345867Y-152990285D01*
X226289070Y-153114654D01*
X226289068Y-153114662D01*
X226269610Y-153250000D01*
X222716516Y-153250000D01*
X222730390Y-153153500D01*
X222710931Y-153018158D01*
X222685274Y-152961978D01*
X222654132Y-152893785D01*
X222654127Y-152893778D01*
X222564590Y-152790446D01*
X222564586Y-152790442D01*
X222449559Y-152716521D01*
X222315940Y-152677287D01*
X222257162Y-152639513D01*
X222228137Y-152575957D01*
X222228137Y-152540663D01*
X222230390Y-152525000D01*
X222219697Y-152450630D01*
X222229640Y-152381475D01*
X222275395Y-152328671D01*
X222307499Y-152314009D01*
X222399558Y-152286979D01*
X222399559Y-152286979D01*
X222425980Y-152270000D01*
X231269610Y-152270000D01*
X231289068Y-152405337D01*
X231289070Y-152405345D01*
X231345867Y-152529714D01*
X231345872Y-152529721D01*
X231435409Y-152633053D01*
X231435413Y-152633057D01*
X231495979Y-152671979D01*
X231550439Y-152706978D01*
X231616036Y-152726239D01*
X231681632Y-152745500D01*
X231681633Y-152745500D01*
X231818367Y-152745500D01*
X231949561Y-152706978D01*
X232064589Y-152633055D01*
X232154130Y-152529718D01*
X232210931Y-152405342D01*
X232230390Y-152270000D01*
X232210931Y-152134658D01*
X232177288Y-152060990D01*
X232154132Y-152010285D01*
X232154127Y-152010278D01*
X232064590Y-151906946D01*
X232064586Y-151906942D01*
X231949559Y-151833021D01*
X231818368Y-151794500D01*
X231818367Y-151794500D01*
X231681633Y-151794500D01*
X231681632Y-151794500D01*
X231550440Y-151833021D01*
X231435413Y-151906942D01*
X231435409Y-151906946D01*
X231345872Y-152010278D01*
X231345867Y-152010285D01*
X231289070Y-152134654D01*
X231289068Y-152134662D01*
X231269610Y-152270000D01*
X222425980Y-152270000D01*
X222514589Y-152213055D01*
X222604130Y-152109718D01*
X222660931Y-151985342D01*
X222680390Y-151850000D01*
X222660931Y-151714658D01*
X222648677Y-151687827D01*
X222604132Y-151590285D01*
X222604127Y-151590278D01*
X222514590Y-151486946D01*
X222514586Y-151486942D01*
X222399559Y-151413021D01*
X222268368Y-151374500D01*
X222268367Y-151374500D01*
X222131633Y-151374500D01*
X222131632Y-151374500D01*
X222000440Y-151413021D01*
X221885413Y-151486942D01*
X221885409Y-151486946D01*
X221795872Y-151590278D01*
X221795867Y-151590285D01*
X221739070Y-151714654D01*
X221739068Y-151714662D01*
X221719610Y-151850000D01*
X221730302Y-151924366D01*
X221720358Y-151993525D01*
X221674603Y-152046329D01*
X221642499Y-152060990D01*
X221550440Y-152088020D01*
X221435413Y-152161942D01*
X221435409Y-152161946D01*
X221345872Y-152265278D01*
X221345867Y-152265285D01*
X221289070Y-152389654D01*
X221289068Y-152389662D01*
X221269610Y-152525000D01*
X187500000Y-152525000D01*
X187500000Y-149850000D01*
X221519610Y-149850000D01*
X221539068Y-149985337D01*
X221539070Y-149985345D01*
X221595867Y-150109714D01*
X221595872Y-150109721D01*
X221685409Y-150213053D01*
X221685413Y-150213057D01*
X221745979Y-150251979D01*
X221800439Y-150286978D01*
X221866036Y-150306239D01*
X221931632Y-150325500D01*
X222058641Y-150325500D01*
X222125680Y-150345185D01*
X222171435Y-150397989D01*
X222181379Y-150431854D01*
X222189068Y-150485336D01*
X222189070Y-150485345D01*
X222245867Y-150609714D01*
X222245872Y-150609721D01*
X222335409Y-150713053D01*
X222335413Y-150713057D01*
X222395979Y-150751979D01*
X222450439Y-150786978D01*
X222516036Y-150806239D01*
X222581632Y-150825500D01*
X222581633Y-150825500D01*
X222718367Y-150825500D01*
X222849561Y-150786978D01*
X222964589Y-150713055D01*
X223054130Y-150609718D01*
X223110931Y-150485342D01*
X223130390Y-150350000D01*
X223110931Y-150214658D01*
X223063008Y-150109721D01*
X223054132Y-150090285D01*
X223054127Y-150090278D01*
X222964590Y-149986946D01*
X222964591Y-149986946D01*
X222955899Y-149981360D01*
X222913813Y-149954313D01*
X222868060Y-149901513D01*
X222858116Y-149832355D01*
X222887140Y-149768799D01*
X222913809Y-149745688D01*
X222964589Y-149713055D01*
X223054130Y-149609718D01*
X223110931Y-149485342D01*
X223130390Y-149350000D01*
X223110931Y-149214658D01*
X223063008Y-149109721D01*
X223054132Y-149090285D01*
X223054127Y-149090278D01*
X222964590Y-148986946D01*
X222964586Y-148986942D01*
X222849559Y-148913021D01*
X222718368Y-148874500D01*
X222718367Y-148874500D01*
X222581633Y-148874500D01*
X222581632Y-148874500D01*
X222450440Y-148913021D01*
X222335413Y-148986942D01*
X222335409Y-148986946D01*
X222245872Y-149090278D01*
X222245867Y-149090285D01*
X222189070Y-149214654D01*
X222189068Y-149214663D01*
X222181379Y-149268146D01*
X222152355Y-149331702D01*
X222093577Y-149369477D01*
X222058641Y-149374500D01*
X221931632Y-149374500D01*
X221800440Y-149413021D01*
X221685413Y-149486942D01*
X221685409Y-149486946D01*
X221595872Y-149590278D01*
X221595867Y-149590285D01*
X221539070Y-149714654D01*
X221539068Y-149714662D01*
X221519610Y-149850000D01*
X187500000Y-149850000D01*
X187500000Y-145000000D01*
X189459611Y-145000000D01*
X189479069Y-145135337D01*
X189479071Y-145135345D01*
X189535868Y-145259714D01*
X189535873Y-145259721D01*
X189625410Y-145363053D01*
X189625414Y-145363057D01*
X189676183Y-145395683D01*
X189740440Y-145436978D01*
X189806037Y-145456239D01*
X189871633Y-145475500D01*
X189871634Y-145475500D01*
X190008368Y-145475500D01*
X190139562Y-145436978D01*
X190254590Y-145363055D01*
X190344131Y-145259718D01*
X190400932Y-145135342D01*
X190420391Y-145000000D01*
X192519610Y-145000000D01*
X192539068Y-145135337D01*
X192539070Y-145135345D01*
X192595867Y-145259714D01*
X192595872Y-145259721D01*
X192613689Y-145280283D01*
X192685411Y-145363055D01*
X192736184Y-145395684D01*
X192781939Y-145448488D01*
X192791883Y-145517646D01*
X192762859Y-145581202D01*
X192736185Y-145604314D01*
X192717274Y-145616467D01*
X192685410Y-145636945D01*
X192685409Y-145636946D01*
X192595872Y-145740278D01*
X192595867Y-145740285D01*
X192539070Y-145864654D01*
X192539068Y-145864662D01*
X192519610Y-146000000D01*
X192539068Y-146135337D01*
X192539070Y-146135345D01*
X192595867Y-146259714D01*
X192595872Y-146259721D01*
X192639197Y-146309721D01*
X192685411Y-146363055D01*
X192736184Y-146395684D01*
X192781939Y-146448488D01*
X192791883Y-146517646D01*
X192762859Y-146581202D01*
X192736185Y-146604314D01*
X192736182Y-146604317D01*
X192685410Y-146636945D01*
X192685409Y-146636946D01*
X192595872Y-146740278D01*
X192595867Y-146740285D01*
X192539070Y-146864654D01*
X192539068Y-146864662D01*
X192519610Y-147000000D01*
X192539068Y-147135337D01*
X192539070Y-147135345D01*
X192595867Y-147259714D01*
X192595872Y-147259721D01*
X192682522Y-147359721D01*
X192685411Y-147363055D01*
X192736184Y-147395684D01*
X192781939Y-147448488D01*
X192791883Y-147517646D01*
X192762859Y-147581202D01*
X192736185Y-147604314D01*
X192736182Y-147604317D01*
X192685410Y-147636945D01*
X192685409Y-147636946D01*
X192595872Y-147740278D01*
X192595867Y-147740285D01*
X192539070Y-147864654D01*
X192539068Y-147864662D01*
X192519610Y-148000000D01*
X192539068Y-148135337D01*
X192539070Y-148135345D01*
X192595867Y-148259714D01*
X192595872Y-148259721D01*
X192685409Y-148363053D01*
X192685413Y-148363057D01*
X192745979Y-148401979D01*
X192800439Y-148436978D01*
X192866036Y-148456239D01*
X192931632Y-148475500D01*
X192931633Y-148475500D01*
X193068367Y-148475500D01*
X193199561Y-148436978D01*
X193314589Y-148363055D01*
X193404130Y-148259718D01*
X193460931Y-148135342D01*
X193480390Y-148000000D01*
X193460931Y-147864658D01*
X193428380Y-147793382D01*
X193404132Y-147740285D01*
X193404127Y-147740278D01*
X193314590Y-147636946D01*
X193314591Y-147636946D01*
X193305899Y-147631360D01*
X193263813Y-147604313D01*
X193218060Y-147551513D01*
X193208116Y-147482355D01*
X193237140Y-147418799D01*
X193263809Y-147395688D01*
X193314589Y-147363055D01*
X193325901Y-147350000D01*
X205619610Y-147350000D01*
X205639068Y-147485337D01*
X205639070Y-147485345D01*
X205695867Y-147609714D01*
X205695872Y-147609721D01*
X205785409Y-147713053D01*
X205785413Y-147713057D01*
X205827782Y-147740285D01*
X205900439Y-147786978D01*
X205966036Y-147806239D01*
X206031632Y-147825500D01*
X206031633Y-147825500D01*
X206168367Y-147825500D01*
X206299561Y-147786978D01*
X206414589Y-147713055D01*
X206504130Y-147609718D01*
X206560931Y-147485342D01*
X206580390Y-147350000D01*
X206560931Y-147214658D01*
X206524710Y-147135345D01*
X206508569Y-147100000D01*
X207869610Y-147100000D01*
X207889068Y-147235337D01*
X207889070Y-147235345D01*
X207945867Y-147359714D01*
X207945872Y-147359721D01*
X208035409Y-147463053D01*
X208035413Y-147463057D01*
X208070095Y-147485345D01*
X208150439Y-147536978D01*
X208199941Y-147551513D01*
X208281632Y-147575500D01*
X208281633Y-147575500D01*
X208418367Y-147575500D01*
X208549561Y-147536978D01*
X208664589Y-147463055D01*
X208664596Y-147463046D01*
X208668794Y-147459410D01*
X208732349Y-147430384D01*
X208801508Y-147440325D01*
X208831206Y-147459410D01*
X208835406Y-147463050D01*
X208835411Y-147463055D01*
X208950439Y-147536978D01*
X208999941Y-147551513D01*
X209081632Y-147575500D01*
X209081633Y-147575500D01*
X209218367Y-147575500D01*
X209349561Y-147536978D01*
X209464589Y-147463055D01*
X209554130Y-147359718D01*
X209610931Y-147235342D01*
X209630390Y-147100000D01*
X217044610Y-147100000D01*
X217064068Y-147235337D01*
X217064070Y-147235345D01*
X217120867Y-147359714D01*
X217120872Y-147359721D01*
X217210409Y-147463053D01*
X217210413Y-147463057D01*
X217245095Y-147485345D01*
X217325439Y-147536978D01*
X217374941Y-147551513D01*
X217456632Y-147575500D01*
X217456633Y-147575500D01*
X217593367Y-147575500D01*
X217724561Y-147536978D01*
X217839589Y-147463055D01*
X217929130Y-147359718D01*
X217985931Y-147235342D01*
X218005390Y-147100000D01*
X217985931Y-146964658D01*
X217970652Y-146931202D01*
X217929132Y-146840285D01*
X217929127Y-146840278D01*
X217839590Y-146736946D01*
X217839586Y-146736942D01*
X217724559Y-146663021D01*
X217593368Y-146624500D01*
X217593367Y-146624500D01*
X217456633Y-146624500D01*
X217456632Y-146624500D01*
X217325440Y-146663021D01*
X217210413Y-146736942D01*
X217210409Y-146736946D01*
X217120872Y-146840278D01*
X217120867Y-146840285D01*
X217064070Y-146964654D01*
X217064068Y-146964662D01*
X217044610Y-147100000D01*
X209630390Y-147100000D01*
X209610931Y-146964658D01*
X209595652Y-146931202D01*
X209554132Y-146840285D01*
X209554127Y-146840278D01*
X209464590Y-146736946D01*
X209464586Y-146736942D01*
X209349559Y-146663021D01*
X209218368Y-146624500D01*
X209218367Y-146624500D01*
X209081633Y-146624500D01*
X209081632Y-146624500D01*
X208950440Y-146663021D01*
X208835413Y-146736942D01*
X208831201Y-146740593D01*
X208767644Y-146769616D01*
X208698486Y-146759671D01*
X208668799Y-146740593D01*
X208664586Y-146736942D01*
X208549559Y-146663021D01*
X208418368Y-146624500D01*
X208418367Y-146624500D01*
X208281633Y-146624500D01*
X208281632Y-146624500D01*
X208150440Y-146663021D01*
X208035413Y-146736942D01*
X208035409Y-146736946D01*
X207945872Y-146840278D01*
X207945867Y-146840285D01*
X207889070Y-146964654D01*
X207889068Y-146964662D01*
X207869610Y-147100000D01*
X206508569Y-147100000D01*
X206504132Y-147090285D01*
X206504127Y-147090278D01*
X206414590Y-146986946D01*
X206414586Y-146986942D01*
X206299559Y-146913021D01*
X206168368Y-146874500D01*
X206168367Y-146874500D01*
X206031633Y-146874500D01*
X206031632Y-146874500D01*
X205900440Y-146913021D01*
X205785413Y-146986942D01*
X205785409Y-146986946D01*
X205695872Y-147090278D01*
X205695867Y-147090285D01*
X205639070Y-147214654D01*
X205639068Y-147214662D01*
X205619610Y-147350000D01*
X193325901Y-147350000D01*
X193404130Y-147259718D01*
X193460931Y-147135342D01*
X193480390Y-147000000D01*
X193460931Y-146864658D01*
X193428380Y-146793382D01*
X193404132Y-146740285D01*
X193404127Y-146740278D01*
X193314590Y-146636946D01*
X193314591Y-146636946D01*
X193305899Y-146631360D01*
X193263813Y-146604313D01*
X193218060Y-146551513D01*
X193208116Y-146482355D01*
X193237140Y-146418799D01*
X193263809Y-146395688D01*
X193314589Y-146363055D01*
X193404130Y-146259718D01*
X193460931Y-146135342D01*
X193473201Y-146050000D01*
X205619610Y-146050000D01*
X205639068Y-146185337D01*
X205639070Y-146185345D01*
X205695867Y-146309714D01*
X205695872Y-146309721D01*
X205785409Y-146413053D01*
X205785413Y-146413057D01*
X205845979Y-146451979D01*
X205900439Y-146486978D01*
X205916882Y-146491806D01*
X206031632Y-146525500D01*
X206031633Y-146525500D01*
X206168367Y-146525500D01*
X206299561Y-146486978D01*
X206414589Y-146413055D01*
X206504130Y-146309718D01*
X206560931Y-146185342D01*
X206580390Y-146050000D01*
X206560931Y-145914658D01*
X206542591Y-145874500D01*
X206504132Y-145790285D01*
X206504127Y-145790278D01*
X206414590Y-145686946D01*
X206414586Y-145686942D01*
X206299559Y-145613021D01*
X206168368Y-145574500D01*
X206168367Y-145574500D01*
X206031633Y-145574500D01*
X206031632Y-145574500D01*
X205900440Y-145613021D01*
X205785413Y-145686942D01*
X205785409Y-145686946D01*
X205695872Y-145790278D01*
X205695867Y-145790285D01*
X205639070Y-145914654D01*
X205639068Y-145914662D01*
X205619610Y-146050000D01*
X193473201Y-146050000D01*
X193480390Y-146000000D01*
X193460931Y-145864658D01*
X193431274Y-145799719D01*
X193404132Y-145740285D01*
X193404127Y-145740278D01*
X193314590Y-145636946D01*
X193314591Y-145636946D01*
X193305899Y-145631360D01*
X193263813Y-145604313D01*
X193218060Y-145551513D01*
X193216405Y-145540001D01*
X220244610Y-145540001D01*
X220264068Y-145675338D01*
X220264070Y-145675346D01*
X220320867Y-145799715D01*
X220320872Y-145799722D01*
X220410409Y-145903054D01*
X220410413Y-145903058D01*
X220470979Y-145941980D01*
X220525439Y-145976979D01*
X220559384Y-145986946D01*
X220656632Y-146015501D01*
X220656633Y-146015501D01*
X220793367Y-146015501D01*
X220924561Y-145976979D01*
X221039589Y-145903056D01*
X221129130Y-145799719D01*
X221133439Y-145790285D01*
X221156276Y-145740278D01*
X221185931Y-145675343D01*
X221205390Y-145540001D01*
X221185931Y-145404659D01*
X221155022Y-145336978D01*
X221129132Y-145280286D01*
X221129127Y-145280279D01*
X221039590Y-145176947D01*
X221039586Y-145176943D01*
X220924559Y-145103022D01*
X220793368Y-145064501D01*
X220793367Y-145064501D01*
X220656633Y-145064501D01*
X220656632Y-145064501D01*
X220525440Y-145103022D01*
X220410413Y-145176943D01*
X220410409Y-145176947D01*
X220320872Y-145280279D01*
X220320867Y-145280286D01*
X220264070Y-145404655D01*
X220264068Y-145404663D01*
X220244610Y-145540001D01*
X193216405Y-145540001D01*
X193208116Y-145482355D01*
X193237140Y-145418799D01*
X193263809Y-145395688D01*
X193314589Y-145363055D01*
X193404130Y-145259718D01*
X193460931Y-145135342D01*
X193480390Y-145000000D01*
X193466012Y-144900000D01*
X225319610Y-144900000D01*
X225339068Y-145035337D01*
X225339070Y-145035345D01*
X225395867Y-145159714D01*
X225395872Y-145159721D01*
X225485409Y-145263053D01*
X225485413Y-145263057D01*
X225512223Y-145280286D01*
X225600439Y-145336978D01*
X225666036Y-145356239D01*
X225731632Y-145375500D01*
X225731633Y-145375500D01*
X225868367Y-145375500D01*
X225999561Y-145336978D01*
X226114589Y-145263055D01*
X226204130Y-145159718D01*
X226260931Y-145035342D01*
X226280390Y-144900000D01*
X227719610Y-144900000D01*
X227739068Y-145035337D01*
X227739070Y-145035345D01*
X227795867Y-145159714D01*
X227795872Y-145159721D01*
X227885409Y-145263053D01*
X227885413Y-145263057D01*
X227912223Y-145280286D01*
X228000439Y-145336978D01*
X228066036Y-145356239D01*
X228131632Y-145375500D01*
X228131633Y-145375500D01*
X228268367Y-145375500D01*
X228399561Y-145336978D01*
X228514589Y-145263055D01*
X228604130Y-145159718D01*
X228660931Y-145035342D01*
X228680390Y-144900000D01*
X228660931Y-144764658D01*
X228648677Y-144737827D01*
X228604132Y-144640285D01*
X228604129Y-144640281D01*
X228544386Y-144571333D01*
X228515362Y-144507779D01*
X228525306Y-144438620D01*
X228571061Y-144385817D01*
X228603166Y-144371155D01*
X228682569Y-144347839D01*
X228719558Y-144336979D01*
X228719559Y-144336979D01*
X228834586Y-144263057D01*
X228834586Y-144263056D01*
X228834589Y-144263055D01*
X228924130Y-144159718D01*
X228980931Y-144035342D01*
X229000390Y-143900000D01*
X228980931Y-143764658D01*
X228968677Y-143737827D01*
X228924132Y-143640285D01*
X228924127Y-143640278D01*
X228834590Y-143536946D01*
X228834586Y-143536942D01*
X228719559Y-143463021D01*
X228588368Y-143424500D01*
X228588367Y-143424500D01*
X228451633Y-143424500D01*
X228451632Y-143424500D01*
X228320440Y-143463021D01*
X228205413Y-143536942D01*
X228205409Y-143536946D01*
X228115872Y-143640278D01*
X228115867Y-143640285D01*
X228059070Y-143764654D01*
X228059068Y-143764662D01*
X228039610Y-143900000D01*
X228059068Y-144035337D01*
X228059070Y-144035345D01*
X228115867Y-144159714D01*
X228115870Y-144159718D01*
X228175612Y-144228665D01*
X228204637Y-144292220D01*
X228194693Y-144361379D01*
X228148938Y-144414183D01*
X228116835Y-144428844D01*
X228000440Y-144463021D01*
X227885413Y-144536942D01*
X227885409Y-144536946D01*
X227795872Y-144640278D01*
X227795867Y-144640285D01*
X227739070Y-144764654D01*
X227739068Y-144764662D01*
X227719610Y-144900000D01*
X226280390Y-144900000D01*
X226260931Y-144764658D01*
X226248677Y-144737827D01*
X226204132Y-144640285D01*
X226204127Y-144640278D01*
X226114590Y-144536946D01*
X226114586Y-144536942D01*
X225999559Y-144463021D01*
X225868368Y-144424500D01*
X225868367Y-144424500D01*
X225731633Y-144424500D01*
X225731632Y-144424500D01*
X225600440Y-144463021D01*
X225485413Y-144536942D01*
X225485409Y-144536946D01*
X225395872Y-144640278D01*
X225395867Y-144640285D01*
X225339070Y-144764654D01*
X225339068Y-144764662D01*
X225319610Y-144900000D01*
X193466012Y-144900000D01*
X193460931Y-144864658D01*
X193448677Y-144837827D01*
X193404132Y-144740285D01*
X193404127Y-144740278D01*
X193314590Y-144636946D01*
X193314589Y-144636945D01*
X193314584Y-144636942D01*
X193263815Y-144604315D01*
X193218061Y-144551512D01*
X193208117Y-144482354D01*
X193237141Y-144418798D01*
X193263810Y-144395688D01*
X193314590Y-144363055D01*
X193404131Y-144259718D01*
X193460932Y-144135342D01*
X193480391Y-144000000D01*
X193460932Y-143864658D01*
X193448678Y-143837827D01*
X193404133Y-143740285D01*
X193404128Y-143740278D01*
X193314591Y-143636946D01*
X193314587Y-143636942D01*
X193199560Y-143563021D01*
X193068369Y-143524500D01*
X193068368Y-143524500D01*
X192931634Y-143524500D01*
X192931633Y-143524500D01*
X192800441Y-143563021D01*
X192685414Y-143636942D01*
X192685410Y-143636946D01*
X192595873Y-143740278D01*
X192595868Y-143740285D01*
X192539071Y-143864654D01*
X192539069Y-143864662D01*
X192519611Y-144000000D01*
X192539069Y-144135337D01*
X192539071Y-144135345D01*
X192595868Y-144259714D01*
X192595873Y-144259721D01*
X192685410Y-144363053D01*
X192685414Y-144363057D01*
X192736183Y-144395683D01*
X192781939Y-144448486D01*
X192791883Y-144517644D01*
X192762859Y-144581201D01*
X192736185Y-144604314D01*
X192685413Y-144636943D01*
X192685409Y-144636946D01*
X192595872Y-144740278D01*
X192595867Y-144740285D01*
X192539070Y-144864654D01*
X192539068Y-144864662D01*
X192519610Y-145000000D01*
X190420391Y-145000000D01*
X190400932Y-144864658D01*
X190388678Y-144837827D01*
X190344133Y-144740285D01*
X190344128Y-144740278D01*
X190254591Y-144636946D01*
X190254587Y-144636942D01*
X190139560Y-144563021D01*
X190008369Y-144524500D01*
X190008368Y-144524500D01*
X189871634Y-144524500D01*
X189871633Y-144524500D01*
X189740441Y-144563021D01*
X189625414Y-144636942D01*
X189625410Y-144636946D01*
X189535873Y-144740278D01*
X189535868Y-144740285D01*
X189479071Y-144864654D01*
X189479069Y-144864662D01*
X189459611Y-145000000D01*
X187500000Y-145000000D01*
X187500000Y-142550000D01*
X206319610Y-142550000D01*
X206339068Y-142685337D01*
X206339070Y-142685345D01*
X206395867Y-142809714D01*
X206395872Y-142809721D01*
X206485409Y-142913053D01*
X206485413Y-142913057D01*
X206545979Y-142951979D01*
X206600439Y-142986978D01*
X206661186Y-143004815D01*
X206731632Y-143025500D01*
X206810457Y-143025500D01*
X206877496Y-143045185D01*
X206923251Y-143097989D01*
X206933195Y-143167147D01*
X206904171Y-143230701D01*
X206895872Y-143240277D01*
X206895867Y-143240285D01*
X206839070Y-143364654D01*
X206839068Y-143364662D01*
X206819610Y-143500000D01*
X206839068Y-143635337D01*
X206839070Y-143635345D01*
X206895867Y-143759714D01*
X206895872Y-143759721D01*
X206985409Y-143863053D01*
X206985413Y-143863057D01*
X207042899Y-143900000D01*
X207100439Y-143936978D01*
X207166036Y-143956239D01*
X207231632Y-143975500D01*
X207231633Y-143975500D01*
X207368367Y-143975500D01*
X207499561Y-143936978D01*
X207614589Y-143863055D01*
X207704130Y-143759718D01*
X207708697Y-143749719D01*
X207716383Y-143732887D01*
X207760931Y-143635342D01*
X207780390Y-143500000D01*
X207778952Y-143490001D01*
X218244610Y-143490001D01*
X218264068Y-143625338D01*
X218264070Y-143625346D01*
X218320867Y-143749715D01*
X218320872Y-143749722D01*
X218410409Y-143853054D01*
X218410413Y-143853058D01*
X218470979Y-143891980D01*
X218525439Y-143926979D01*
X218591036Y-143946240D01*
X218656632Y-143965501D01*
X218656633Y-143965501D01*
X218793367Y-143965501D01*
X218924561Y-143926979D01*
X218966542Y-143900000D01*
X224039610Y-143900000D01*
X224059068Y-144035337D01*
X224059070Y-144035345D01*
X224115867Y-144159714D01*
X224115872Y-144159721D01*
X224205409Y-144263053D01*
X224205413Y-144263057D01*
X224250793Y-144292220D01*
X224320439Y-144336978D01*
X224386036Y-144356239D01*
X224451632Y-144375500D01*
X224451633Y-144375500D01*
X224588367Y-144375500D01*
X224719561Y-144336978D01*
X224834589Y-144263055D01*
X224924130Y-144159718D01*
X224980931Y-144035342D01*
X225000390Y-143900000D01*
X226039610Y-143900000D01*
X226059068Y-144035337D01*
X226059070Y-144035345D01*
X226115867Y-144159714D01*
X226115872Y-144159721D01*
X226205409Y-144263053D01*
X226205413Y-144263057D01*
X226250793Y-144292220D01*
X226320439Y-144336978D01*
X226386036Y-144356239D01*
X226451632Y-144375500D01*
X226451633Y-144375500D01*
X226588367Y-144375500D01*
X226719561Y-144336978D01*
X226834589Y-144263055D01*
X226924130Y-144159718D01*
X226980931Y-144035342D01*
X227000390Y-143900000D01*
X226980931Y-143764658D01*
X226968677Y-143737827D01*
X226924132Y-143640285D01*
X226924127Y-143640278D01*
X226834590Y-143536946D01*
X226834586Y-143536942D01*
X226719559Y-143463021D01*
X226588368Y-143424500D01*
X226588367Y-143424500D01*
X226451633Y-143424500D01*
X226451632Y-143424500D01*
X226320440Y-143463021D01*
X226205413Y-143536942D01*
X226205409Y-143536946D01*
X226115872Y-143640278D01*
X226115867Y-143640285D01*
X226059070Y-143764654D01*
X226059068Y-143764662D01*
X226039610Y-143900000D01*
X225000390Y-143900000D01*
X224980931Y-143764658D01*
X224968677Y-143737827D01*
X224924132Y-143640285D01*
X224924127Y-143640278D01*
X224834590Y-143536946D01*
X224834586Y-143536942D01*
X224719559Y-143463021D01*
X224588368Y-143424500D01*
X224588367Y-143424500D01*
X224451633Y-143424500D01*
X224451632Y-143424500D01*
X224320440Y-143463021D01*
X224205413Y-143536942D01*
X224205409Y-143536946D01*
X224115872Y-143640278D01*
X224115867Y-143640285D01*
X224059070Y-143764654D01*
X224059068Y-143764662D01*
X224039610Y-143900000D01*
X218966542Y-143900000D01*
X219039589Y-143853056D01*
X219129130Y-143749719D01*
X219133439Y-143740285D01*
X219179107Y-143640285D01*
X219185931Y-143625343D01*
X219205390Y-143490001D01*
X219185931Y-143354659D01*
X219133698Y-143240285D01*
X219129132Y-143230286D01*
X219129127Y-143230279D01*
X219039590Y-143126947D01*
X219039586Y-143126943D01*
X218924559Y-143053022D01*
X218793368Y-143014501D01*
X218793367Y-143014501D01*
X218656633Y-143014501D01*
X218656632Y-143014501D01*
X218525440Y-143053022D01*
X218410413Y-143126943D01*
X218410409Y-143126947D01*
X218320872Y-143230279D01*
X218320867Y-143230286D01*
X218264070Y-143354655D01*
X218264068Y-143354663D01*
X218244610Y-143490001D01*
X207778952Y-143490001D01*
X207760931Y-143364658D01*
X207748677Y-143337827D01*
X207704132Y-143240285D01*
X207704127Y-143240278D01*
X207614590Y-143136946D01*
X207614586Y-143136942D01*
X207499559Y-143063021D01*
X207368368Y-143024500D01*
X207368367Y-143024500D01*
X207289543Y-143024500D01*
X207222504Y-143004815D01*
X207176749Y-142952011D01*
X207166805Y-142882853D01*
X207195829Y-142819299D01*
X207204127Y-142809722D01*
X207204128Y-142809720D01*
X207204130Y-142809718D01*
X207260931Y-142685342D01*
X207271764Y-142609999D01*
X223519610Y-142609999D01*
X223539068Y-142745336D01*
X223539070Y-142745344D01*
X223595867Y-142869713D01*
X223595872Y-142869720D01*
X223685409Y-142973052D01*
X223685413Y-142973056D01*
X223707077Y-142986978D01*
X223800439Y-143046977D01*
X223821030Y-143053023D01*
X223931632Y-143085499D01*
X223931633Y-143085499D01*
X224068367Y-143085499D01*
X224199561Y-143046977D01*
X224314589Y-142973054D01*
X224404130Y-142869717D01*
X224460931Y-142745341D01*
X224477262Y-142631753D01*
X224487197Y-142609998D01*
X224712802Y-142609998D01*
X224722738Y-142631754D01*
X224739068Y-142745336D01*
X224739070Y-142745344D01*
X224795867Y-142869713D01*
X224795872Y-142869720D01*
X224885409Y-142973052D01*
X224885413Y-142973056D01*
X224907077Y-142986978D01*
X225000439Y-143046977D01*
X225021030Y-143053023D01*
X225131632Y-143085499D01*
X225131633Y-143085499D01*
X225268367Y-143085499D01*
X225399561Y-143046977D01*
X225514589Y-142973054D01*
X225604130Y-142869717D01*
X225660931Y-142745341D01*
X225677262Y-142631753D01*
X225687197Y-142609998D01*
X225912802Y-142609998D01*
X225922738Y-142631754D01*
X225939068Y-142745336D01*
X225939070Y-142745344D01*
X225995867Y-142869713D01*
X225995872Y-142869720D01*
X226085409Y-142973052D01*
X226085413Y-142973056D01*
X226107077Y-142986978D01*
X226200439Y-143046977D01*
X226221030Y-143053023D01*
X226331632Y-143085499D01*
X226331633Y-143085499D01*
X226468367Y-143085499D01*
X226599561Y-143046977D01*
X226714589Y-142973054D01*
X226804130Y-142869717D01*
X226860931Y-142745341D01*
X226877262Y-142631753D01*
X226887197Y-142609998D01*
X227112802Y-142609998D01*
X227122738Y-142631754D01*
X227139068Y-142745336D01*
X227139070Y-142745344D01*
X227195867Y-142869713D01*
X227195872Y-142869720D01*
X227285409Y-142973052D01*
X227285413Y-142973056D01*
X227307077Y-142986978D01*
X227400439Y-143046977D01*
X227421030Y-143053023D01*
X227531632Y-143085499D01*
X227531633Y-143085499D01*
X227668367Y-143085499D01*
X227799561Y-143046977D01*
X227914589Y-142973054D01*
X228004130Y-142869717D01*
X228060931Y-142745341D01*
X228077262Y-142631753D01*
X228087197Y-142609998D01*
X228312802Y-142609998D01*
X228322738Y-142631754D01*
X228339068Y-142745336D01*
X228339070Y-142745344D01*
X228395867Y-142869713D01*
X228395872Y-142869720D01*
X228485409Y-142973052D01*
X228485413Y-142973056D01*
X228507077Y-142986978D01*
X228600439Y-143046977D01*
X228621030Y-143053023D01*
X228731632Y-143085499D01*
X228731633Y-143085499D01*
X228868367Y-143085499D01*
X228999561Y-143046977D01*
X229114589Y-142973054D01*
X229204130Y-142869717D01*
X229260931Y-142745341D01*
X229277262Y-142631753D01*
X229287197Y-142609998D01*
X229512802Y-142609998D01*
X229522738Y-142631754D01*
X229539068Y-142745336D01*
X229539070Y-142745344D01*
X229595867Y-142869713D01*
X229595872Y-142869720D01*
X229685409Y-142973052D01*
X229685413Y-142973056D01*
X229707077Y-142986978D01*
X229800439Y-143046977D01*
X229821030Y-143053023D01*
X229931632Y-143085499D01*
X229931633Y-143085499D01*
X230068367Y-143085499D01*
X230199561Y-143046977D01*
X230314589Y-142973054D01*
X230404130Y-142869717D01*
X230460931Y-142745341D01*
X230480390Y-142609999D01*
X230460931Y-142474657D01*
X230433530Y-142414658D01*
X230404132Y-142350284D01*
X230404127Y-142350277D01*
X230314590Y-142246945D01*
X230314586Y-142246941D01*
X230212291Y-142181202D01*
X230199561Y-142173021D01*
X230199560Y-142173020D01*
X230199559Y-142173020D01*
X230068368Y-142134499D01*
X230068367Y-142134499D01*
X229931633Y-142134499D01*
X229931632Y-142134499D01*
X229800440Y-142173020D01*
X229685413Y-142246941D01*
X229685409Y-142246945D01*
X229595872Y-142350277D01*
X229595867Y-142350284D01*
X229539070Y-142474653D01*
X229539068Y-142474661D01*
X229522738Y-142588243D01*
X229512802Y-142609998D01*
X229287197Y-142609998D01*
X229277262Y-142588243D01*
X229277214Y-142587911D01*
X229260931Y-142474657D01*
X229233530Y-142414658D01*
X229204132Y-142350284D01*
X229204127Y-142350277D01*
X229114590Y-142246945D01*
X229114586Y-142246942D01*
X229104617Y-142240535D01*
X229048256Y-142204315D01*
X229002501Y-142151513D01*
X228992557Y-142082355D01*
X229021581Y-142018799D01*
X229048255Y-141995685D01*
X229114589Y-141953056D01*
X229204130Y-141849719D01*
X229260931Y-141725343D01*
X229280390Y-141590001D01*
X229260931Y-141454659D01*
X229248677Y-141427828D01*
X229204132Y-141330286D01*
X229204127Y-141330279D01*
X229114590Y-141226947D01*
X229114586Y-141226943D01*
X228999559Y-141153022D01*
X228868368Y-141114501D01*
X228868367Y-141114501D01*
X228731633Y-141114501D01*
X228731632Y-141114501D01*
X228600440Y-141153022D01*
X228485413Y-141226943D01*
X228485409Y-141226947D01*
X228395872Y-141330279D01*
X228395867Y-141330286D01*
X228339070Y-141454655D01*
X228339068Y-141454663D01*
X228319610Y-141590001D01*
X228339068Y-141725338D01*
X228339070Y-141725346D01*
X228395867Y-141849715D01*
X228395872Y-141849722D01*
X228485409Y-141953054D01*
X228485411Y-141953056D01*
X228551743Y-141995684D01*
X228597498Y-142048488D01*
X228607442Y-142117646D01*
X228578418Y-142181202D01*
X228551744Y-142204314D01*
X228526010Y-142220852D01*
X228485410Y-142246944D01*
X228485409Y-142246945D01*
X228395872Y-142350277D01*
X228395867Y-142350284D01*
X228339070Y-142474653D01*
X228339068Y-142474661D01*
X228322738Y-142588243D01*
X228312802Y-142609998D01*
X228087197Y-142609998D01*
X228077262Y-142588243D01*
X228077214Y-142587911D01*
X228060931Y-142474657D01*
X228033530Y-142414658D01*
X228004132Y-142350284D01*
X228004127Y-142350277D01*
X227914590Y-142246945D01*
X227914586Y-142246941D01*
X227812291Y-142181202D01*
X227799561Y-142173021D01*
X227799560Y-142173020D01*
X227799559Y-142173020D01*
X227668368Y-142134499D01*
X227668367Y-142134499D01*
X227531633Y-142134499D01*
X227531632Y-142134499D01*
X227400440Y-142173020D01*
X227285413Y-142246941D01*
X227285409Y-142246945D01*
X227195872Y-142350277D01*
X227195867Y-142350284D01*
X227139070Y-142474653D01*
X227139068Y-142474661D01*
X227122738Y-142588243D01*
X227112802Y-142609998D01*
X226887197Y-142609998D01*
X226877262Y-142588243D01*
X226877214Y-142587911D01*
X226860931Y-142474657D01*
X226833530Y-142414658D01*
X226804132Y-142350284D01*
X226804127Y-142350277D01*
X226714590Y-142246945D01*
X226714586Y-142246941D01*
X226612291Y-142181202D01*
X226599561Y-142173021D01*
X226599560Y-142173020D01*
X226599559Y-142173020D01*
X226468368Y-142134499D01*
X226468367Y-142134499D01*
X226331633Y-142134499D01*
X226331632Y-142134499D01*
X226200440Y-142173020D01*
X226085413Y-142246941D01*
X226085409Y-142246945D01*
X225995872Y-142350277D01*
X225995867Y-142350284D01*
X225939070Y-142474653D01*
X225939068Y-142474661D01*
X225922738Y-142588243D01*
X225912802Y-142609998D01*
X225687197Y-142609998D01*
X225677262Y-142588243D01*
X225677214Y-142587911D01*
X225660931Y-142474657D01*
X225633530Y-142414658D01*
X225604132Y-142350284D01*
X225604127Y-142350277D01*
X225514590Y-142246945D01*
X225514586Y-142246942D01*
X225504617Y-142240535D01*
X225448256Y-142204315D01*
X225402501Y-142151513D01*
X225392557Y-142082355D01*
X225421581Y-142018799D01*
X225448255Y-141995685D01*
X225514589Y-141953056D01*
X225604130Y-141849719D01*
X225660931Y-141725343D01*
X225680390Y-141590001D01*
X225660931Y-141454659D01*
X225648677Y-141427828D01*
X225604132Y-141330286D01*
X225604127Y-141330279D01*
X225514590Y-141226947D01*
X225514586Y-141226943D01*
X225399559Y-141153022D01*
X225268368Y-141114501D01*
X225268367Y-141114501D01*
X225131633Y-141114501D01*
X225131632Y-141114501D01*
X225000440Y-141153022D01*
X224885413Y-141226943D01*
X224885409Y-141226947D01*
X224795872Y-141330279D01*
X224795867Y-141330286D01*
X224739070Y-141454655D01*
X224739068Y-141454663D01*
X224719610Y-141590001D01*
X224739068Y-141725338D01*
X224739070Y-141725346D01*
X224795867Y-141849715D01*
X224795872Y-141849722D01*
X224885409Y-141953054D01*
X224885411Y-141953056D01*
X224951743Y-141995684D01*
X224997498Y-142048488D01*
X225007442Y-142117646D01*
X224978418Y-142181202D01*
X224951744Y-142204314D01*
X224926010Y-142220852D01*
X224885410Y-142246944D01*
X224885409Y-142246945D01*
X224795872Y-142350277D01*
X224795867Y-142350284D01*
X224739070Y-142474653D01*
X224739068Y-142474661D01*
X224722738Y-142588243D01*
X224712802Y-142609998D01*
X224487197Y-142609998D01*
X224477262Y-142588243D01*
X224477214Y-142587911D01*
X224460931Y-142474657D01*
X224433530Y-142414658D01*
X224404132Y-142350284D01*
X224404127Y-142350277D01*
X224314590Y-142246945D01*
X224314586Y-142246941D01*
X224212291Y-142181202D01*
X224199561Y-142173021D01*
X224199560Y-142173020D01*
X224199559Y-142173020D01*
X224068368Y-142134499D01*
X224068367Y-142134499D01*
X223931633Y-142134499D01*
X223931632Y-142134499D01*
X223800440Y-142173020D01*
X223685413Y-142246941D01*
X223685409Y-142246945D01*
X223595872Y-142350277D01*
X223595867Y-142350284D01*
X223539070Y-142474653D01*
X223539068Y-142474661D01*
X223519610Y-142609999D01*
X207271764Y-142609999D01*
X207280390Y-142550000D01*
X207260931Y-142414658D01*
X207231529Y-142350277D01*
X207204132Y-142290285D01*
X207204127Y-142290278D01*
X207114590Y-142186946D01*
X207114586Y-142186942D01*
X207023736Y-142128558D01*
X206999561Y-142113022D01*
X206999560Y-142113021D01*
X206999559Y-142113021D01*
X206868368Y-142074500D01*
X206868367Y-142074500D01*
X206731633Y-142074500D01*
X206645765Y-142099712D01*
X206575896Y-142099711D01*
X206556758Y-142087411D01*
X206551961Y-142120776D01*
X206506206Y-142173580D01*
X206485415Y-142186941D01*
X206485409Y-142186946D01*
X206395872Y-142290278D01*
X206395867Y-142290285D01*
X206339070Y-142414654D01*
X206339068Y-142414662D01*
X206319610Y-142550000D01*
X187500000Y-142550000D01*
X187500000Y-141500000D01*
X205769610Y-141500000D01*
X205789068Y-141635337D01*
X205789070Y-141635345D01*
X205845867Y-141759714D01*
X205845872Y-141759721D01*
X205935409Y-141863053D01*
X205935413Y-141863057D01*
X205995979Y-141901979D01*
X206050439Y-141936978D01*
X206095769Y-141950288D01*
X206181632Y-141975500D01*
X206181633Y-141975500D01*
X206318367Y-141975500D01*
X206404232Y-141950288D01*
X206474102Y-141950288D01*
X206493240Y-141962587D01*
X206498038Y-141929221D01*
X206543792Y-141876420D01*
X206564589Y-141863055D01*
X206654130Y-141759718D01*
X206710931Y-141635342D01*
X206730390Y-141500000D01*
X206710931Y-141364658D01*
X206695231Y-141330279D01*
X206654132Y-141240285D01*
X206654127Y-141240278D01*
X206564590Y-141136946D01*
X206564586Y-141136942D01*
X206449559Y-141063021D01*
X206318368Y-141024500D01*
X206318367Y-141024500D01*
X206181633Y-141024500D01*
X206181632Y-141024500D01*
X206050440Y-141063021D01*
X205935413Y-141136942D01*
X205935409Y-141136946D01*
X205845872Y-141240278D01*
X205845867Y-141240285D01*
X205789070Y-141364654D01*
X205789068Y-141364662D01*
X205769610Y-141500000D01*
X187500000Y-141500000D01*
X187500000Y-139540000D01*
X189699610Y-139540000D01*
X189719068Y-139675337D01*
X189719070Y-139675345D01*
X189775867Y-139799714D01*
X189775872Y-139799721D01*
X189865409Y-139903053D01*
X189865413Y-139903057D01*
X189925979Y-139941979D01*
X189980439Y-139976978D01*
X190046036Y-139996239D01*
X190111632Y-140015500D01*
X190111633Y-140015500D01*
X190248367Y-140015500D01*
X190379561Y-139976978D01*
X190494589Y-139903055D01*
X190584130Y-139799718D01*
X190640931Y-139675342D01*
X190660390Y-139540000D01*
X193339610Y-139540000D01*
X193359068Y-139675337D01*
X193359070Y-139675345D01*
X193415867Y-139799714D01*
X193415872Y-139799721D01*
X193505409Y-139903053D01*
X193505413Y-139903057D01*
X193565979Y-139941979D01*
X193620439Y-139976978D01*
X193686036Y-139996239D01*
X193751632Y-140015500D01*
X193751633Y-140015500D01*
X193888367Y-140015500D01*
X194019561Y-139976978D01*
X194134589Y-139903055D01*
X194137236Y-139900000D01*
X206214611Y-139900000D01*
X206234069Y-140035337D01*
X206234071Y-140035345D01*
X206290868Y-140159714D01*
X206290873Y-140159721D01*
X206380410Y-140263053D01*
X206380414Y-140263057D01*
X206440980Y-140301979D01*
X206495440Y-140336978D01*
X206561037Y-140356239D01*
X206626633Y-140375500D01*
X206626634Y-140375500D01*
X206763368Y-140375500D01*
X206894562Y-140336978D01*
X207009590Y-140263055D01*
X207099131Y-140159718D01*
X207155932Y-140035342D01*
X207175391Y-139900000D01*
X212014611Y-139900000D01*
X212034069Y-140035337D01*
X212034071Y-140035345D01*
X212090868Y-140159714D01*
X212090873Y-140159721D01*
X212180410Y-140263053D01*
X212180414Y-140263057D01*
X212240980Y-140301979D01*
X212295440Y-140336978D01*
X212361037Y-140356239D01*
X212426633Y-140375500D01*
X212426634Y-140375500D01*
X212563368Y-140375500D01*
X212694562Y-140336978D01*
X212809590Y-140263055D01*
X212899131Y-140159718D01*
X212955932Y-140035342D01*
X212975391Y-139900000D01*
X217814611Y-139900000D01*
X217834069Y-140035337D01*
X217834071Y-140035345D01*
X217890868Y-140159714D01*
X217890873Y-140159721D01*
X217980410Y-140263053D01*
X217980414Y-140263057D01*
X218040980Y-140301979D01*
X218095440Y-140336978D01*
X218161037Y-140356239D01*
X218226633Y-140375500D01*
X218226634Y-140375500D01*
X218363368Y-140375500D01*
X218494562Y-140336978D01*
X218609590Y-140263055D01*
X218699131Y-140159718D01*
X218755932Y-140035342D01*
X218775391Y-139900000D01*
X218755932Y-139764658D01*
X218715144Y-139675345D01*
X218699133Y-139640285D01*
X218699128Y-139640278D01*
X218609591Y-139536946D01*
X218609587Y-139536942D01*
X218494560Y-139463021D01*
X218363369Y-139424500D01*
X218363368Y-139424500D01*
X218226634Y-139424500D01*
X218226633Y-139424500D01*
X218095441Y-139463021D01*
X217980414Y-139536942D01*
X217980410Y-139536946D01*
X217890873Y-139640278D01*
X217890868Y-139640285D01*
X217834071Y-139764654D01*
X217834069Y-139764662D01*
X217814611Y-139900000D01*
X212975391Y-139900000D01*
X212955932Y-139764658D01*
X212915144Y-139675345D01*
X212899133Y-139640285D01*
X212899128Y-139640278D01*
X212809591Y-139536946D01*
X212809587Y-139536942D01*
X212694560Y-139463021D01*
X212563369Y-139424500D01*
X212563368Y-139424500D01*
X212426634Y-139424500D01*
X212426633Y-139424500D01*
X212295441Y-139463021D01*
X212180414Y-139536942D01*
X212180410Y-139536946D01*
X212090873Y-139640278D01*
X212090868Y-139640285D01*
X212034071Y-139764654D01*
X212034069Y-139764662D01*
X212014611Y-139900000D01*
X207175391Y-139900000D01*
X207155932Y-139764658D01*
X207115144Y-139675345D01*
X207099133Y-139640285D01*
X207099128Y-139640278D01*
X207009591Y-139536946D01*
X207009587Y-139536942D01*
X206894560Y-139463021D01*
X206763369Y-139424500D01*
X206763368Y-139424500D01*
X206626634Y-139424500D01*
X206626633Y-139424500D01*
X206495441Y-139463021D01*
X206380414Y-139536942D01*
X206380410Y-139536946D01*
X206290873Y-139640278D01*
X206290868Y-139640285D01*
X206234071Y-139764654D01*
X206234069Y-139764662D01*
X206214611Y-139900000D01*
X194137236Y-139900000D01*
X194224130Y-139799718D01*
X194280931Y-139675342D01*
X194300390Y-139540000D01*
X194280931Y-139404658D01*
X194268677Y-139377827D01*
X194224132Y-139280285D01*
X194224127Y-139280278D01*
X194134590Y-139176946D01*
X194134586Y-139176942D01*
X194019559Y-139103021D01*
X193888368Y-139064500D01*
X193888367Y-139064500D01*
X193751633Y-139064500D01*
X193751632Y-139064500D01*
X193620440Y-139103021D01*
X193505413Y-139176942D01*
X193505409Y-139176946D01*
X193415872Y-139280278D01*
X193415867Y-139280285D01*
X193359070Y-139404654D01*
X193359068Y-139404662D01*
X193339610Y-139540000D01*
X190660390Y-139540000D01*
X190640931Y-139404658D01*
X190628677Y-139377827D01*
X190584132Y-139280285D01*
X190584127Y-139280278D01*
X190494590Y-139176946D01*
X190494586Y-139176942D01*
X190379559Y-139103021D01*
X190248368Y-139064500D01*
X190248367Y-139064500D01*
X190111633Y-139064500D01*
X190111632Y-139064500D01*
X189980440Y-139103021D01*
X189865413Y-139176942D01*
X189865409Y-139176946D01*
X189775872Y-139280278D01*
X189775867Y-139280285D01*
X189719070Y-139404654D01*
X189719068Y-139404662D01*
X189699610Y-139540000D01*
X187500000Y-139540000D01*
X187500000Y-138270000D01*
X193339610Y-138270000D01*
X193359068Y-138405337D01*
X193359070Y-138405345D01*
X193415867Y-138529714D01*
X193415872Y-138529721D01*
X193505409Y-138633053D01*
X193505413Y-138633057D01*
X193565979Y-138671979D01*
X193620439Y-138706978D01*
X193686036Y-138726239D01*
X193751632Y-138745500D01*
X193751633Y-138745500D01*
X193888367Y-138745500D01*
X194019561Y-138706978D01*
X194134589Y-138633055D01*
X194224130Y-138529718D01*
X194280931Y-138405342D01*
X194300390Y-138270000D01*
X194280931Y-138134658D01*
X194268677Y-138107827D01*
X194224132Y-138010285D01*
X194224127Y-138010278D01*
X194134590Y-137906946D01*
X194134586Y-137906942D01*
X194043736Y-137848558D01*
X194019561Y-137833022D01*
X194019560Y-137833021D01*
X194019559Y-137833021D01*
X193888368Y-137794500D01*
X193888367Y-137794500D01*
X193751633Y-137794500D01*
X193751632Y-137794500D01*
X193620440Y-137833021D01*
X193505413Y-137906942D01*
X193505409Y-137906946D01*
X193415872Y-138010278D01*
X193415867Y-138010285D01*
X193359070Y-138134654D01*
X193359068Y-138134662D01*
X193339610Y-138270000D01*
X187500000Y-138270000D01*
X187500000Y-136900000D01*
X212219610Y-136900000D01*
X212239068Y-137035337D01*
X212239070Y-137035345D01*
X212295867Y-137159714D01*
X212295872Y-137159721D01*
X212385409Y-137263053D01*
X212385413Y-137263057D01*
X212462096Y-137312337D01*
X212500439Y-137336978D01*
X212500442Y-137336978D01*
X212500943Y-137337208D01*
X212501361Y-137337570D01*
X212507899Y-137341772D01*
X212507294Y-137342712D01*
X212553745Y-137382966D01*
X212573426Y-137450006D01*
X212553738Y-137517044D01*
X212507294Y-137557287D01*
X212507899Y-137558228D01*
X212501361Y-137562429D01*
X212500943Y-137562792D01*
X212500438Y-137563022D01*
X212385413Y-137636942D01*
X212385409Y-137636946D01*
X212295872Y-137740278D01*
X212295867Y-137740285D01*
X212239070Y-137864654D01*
X212239068Y-137864662D01*
X212219610Y-138000000D01*
X212239068Y-138135337D01*
X212239070Y-138135345D01*
X212295867Y-138259714D01*
X212295872Y-138259721D01*
X212385409Y-138363053D01*
X212385413Y-138363057D01*
X212445979Y-138401979D01*
X212500439Y-138436978D01*
X212566036Y-138456239D01*
X212631632Y-138475500D01*
X212631633Y-138475500D01*
X212768367Y-138475500D01*
X212899561Y-138436978D01*
X213014589Y-138363055D01*
X213056289Y-138314930D01*
X213115064Y-138277157D01*
X213184934Y-138277157D01*
X213243709Y-138314928D01*
X213285411Y-138363055D01*
X213285414Y-138363057D01*
X213285413Y-138363057D01*
X213345979Y-138401979D01*
X213400439Y-138436978D01*
X213466036Y-138456239D01*
X213531632Y-138475500D01*
X213531633Y-138475500D01*
X213668367Y-138475500D01*
X213799561Y-138436978D01*
X213914589Y-138363055D01*
X213956289Y-138314930D01*
X214015064Y-138277157D01*
X214084934Y-138277157D01*
X214143709Y-138314928D01*
X214185411Y-138363055D01*
X214185414Y-138363057D01*
X214185413Y-138363057D01*
X214245979Y-138401979D01*
X214300439Y-138436978D01*
X214366036Y-138456239D01*
X214431632Y-138475500D01*
X214431633Y-138475500D01*
X214568367Y-138475500D01*
X214699561Y-138436978D01*
X214814589Y-138363055D01*
X214856289Y-138314930D01*
X214915064Y-138277157D01*
X214984934Y-138277157D01*
X215043709Y-138314928D01*
X215085411Y-138363055D01*
X215085414Y-138363057D01*
X215085413Y-138363057D01*
X215145979Y-138401979D01*
X215200439Y-138436978D01*
X215266036Y-138456239D01*
X215331632Y-138475500D01*
X215331633Y-138475500D01*
X215468367Y-138475500D01*
X215599561Y-138436978D01*
X215714589Y-138363055D01*
X215756289Y-138314930D01*
X215815064Y-138277157D01*
X215884934Y-138277157D01*
X215943709Y-138314928D01*
X215985411Y-138363055D01*
X215985414Y-138363057D01*
X215985413Y-138363057D01*
X216045979Y-138401979D01*
X216100439Y-138436978D01*
X216166036Y-138456239D01*
X216231632Y-138475500D01*
X216231633Y-138475500D01*
X216368367Y-138475500D01*
X216499561Y-138436978D01*
X216614589Y-138363055D01*
X216704130Y-138259718D01*
X216760931Y-138135342D01*
X216780390Y-138000000D01*
X216760931Y-137864658D01*
X216728891Y-137794500D01*
X216704132Y-137740285D01*
X216704127Y-137740278D01*
X216614590Y-137636946D01*
X216614586Y-137636942D01*
X216499562Y-137563022D01*
X216499061Y-137562794D01*
X216498644Y-137562433D01*
X216492101Y-137558228D01*
X216492705Y-137557287D01*
X216446257Y-137517039D01*
X216426573Y-137450000D01*
X216446258Y-137382960D01*
X216492705Y-137342712D01*
X216492101Y-137341772D01*
X216498644Y-137337566D01*
X216499061Y-137337206D01*
X216499557Y-137336978D01*
X216499561Y-137336978D01*
X216614589Y-137263055D01*
X216704130Y-137159718D01*
X216760931Y-137035342D01*
X216780390Y-136900000D01*
X216760931Y-136764658D01*
X216748677Y-136737827D01*
X216704132Y-136640285D01*
X216704127Y-136640278D01*
X216614590Y-136536946D01*
X216614586Y-136536942D01*
X216499559Y-136463021D01*
X216368368Y-136424500D01*
X216368367Y-136424500D01*
X216231633Y-136424500D01*
X216231632Y-136424500D01*
X216100440Y-136463021D01*
X215985413Y-136536942D01*
X215985413Y-136536943D01*
X215943713Y-136585068D01*
X215884935Y-136622842D01*
X215815065Y-136622842D01*
X215756287Y-136585068D01*
X215714589Y-136536945D01*
X215714586Y-136536943D01*
X215714586Y-136536942D01*
X215599559Y-136463021D01*
X215468368Y-136424500D01*
X215468367Y-136424500D01*
X215331633Y-136424500D01*
X215331632Y-136424500D01*
X215200440Y-136463021D01*
X215085413Y-136536942D01*
X215085413Y-136536943D01*
X215043713Y-136585068D01*
X214984935Y-136622842D01*
X214915065Y-136622842D01*
X214856287Y-136585068D01*
X214814589Y-136536945D01*
X214814586Y-136536943D01*
X214814586Y-136536942D01*
X214699559Y-136463021D01*
X214568368Y-136424500D01*
X214568367Y-136424500D01*
X214431633Y-136424500D01*
X214431632Y-136424500D01*
X214300440Y-136463021D01*
X214185413Y-136536942D01*
X214185413Y-136536943D01*
X214143713Y-136585068D01*
X214084935Y-136622842D01*
X214015065Y-136622842D01*
X213956287Y-136585068D01*
X213914589Y-136536945D01*
X213914586Y-136536943D01*
X213914586Y-136536942D01*
X213799559Y-136463021D01*
X213668368Y-136424500D01*
X213668367Y-136424500D01*
X213531633Y-136424500D01*
X213531632Y-136424500D01*
X213400440Y-136463021D01*
X213285413Y-136536942D01*
X213285413Y-136536943D01*
X213243713Y-136585068D01*
X213184935Y-136622842D01*
X213115065Y-136622842D01*
X213056287Y-136585068D01*
X213014589Y-136536945D01*
X213014586Y-136536943D01*
X213014586Y-136536942D01*
X212899559Y-136463021D01*
X212768368Y-136424500D01*
X212768367Y-136424500D01*
X212631633Y-136424500D01*
X212631632Y-136424500D01*
X212500440Y-136463021D01*
X212385413Y-136536942D01*
X212385409Y-136536946D01*
X212295872Y-136640278D01*
X212295867Y-136640285D01*
X212239070Y-136764654D01*
X212239068Y-136764662D01*
X212219610Y-136900000D01*
X187500000Y-136900000D01*
X187500000Y-135990001D01*
X223519610Y-135990001D01*
X223539068Y-136125338D01*
X223539070Y-136125346D01*
X223595867Y-136249715D01*
X223595872Y-136249722D01*
X223685409Y-136353054D01*
X223685413Y-136353058D01*
X223745979Y-136391980D01*
X223800439Y-136426979D01*
X223866036Y-136446240D01*
X223931632Y-136465501D01*
X223931633Y-136465501D01*
X224068367Y-136465501D01*
X224199561Y-136426979D01*
X224314589Y-136353056D01*
X224404130Y-136249719D01*
X224460931Y-136125343D01*
X224477262Y-136011755D01*
X224487197Y-135990000D01*
X224712802Y-135990000D01*
X224722738Y-136011756D01*
X224739068Y-136125338D01*
X224739070Y-136125346D01*
X224795867Y-136249715D01*
X224795872Y-136249722D01*
X224885409Y-136353054D01*
X224885413Y-136353058D01*
X224945979Y-136391980D01*
X225000439Y-136426979D01*
X225066036Y-136446240D01*
X225131632Y-136465501D01*
X225131633Y-136465501D01*
X225268367Y-136465501D01*
X225399561Y-136426979D01*
X225514589Y-136353056D01*
X225604130Y-136249719D01*
X225660931Y-136125343D01*
X225677262Y-136011755D01*
X225687197Y-135990000D01*
X225912802Y-135990000D01*
X225922738Y-136011756D01*
X225939068Y-136125338D01*
X225939070Y-136125346D01*
X225995867Y-136249715D01*
X225995872Y-136249722D01*
X226085409Y-136353054D01*
X226085413Y-136353058D01*
X226145979Y-136391980D01*
X226200439Y-136426979D01*
X226266036Y-136446240D01*
X226331632Y-136465501D01*
X226331633Y-136465501D01*
X226468367Y-136465501D01*
X226599561Y-136426979D01*
X226714589Y-136353056D01*
X226804130Y-136249719D01*
X226860931Y-136125343D01*
X226877262Y-136011755D01*
X226887197Y-135990000D01*
X227112802Y-135990000D01*
X227122738Y-136011756D01*
X227139068Y-136125338D01*
X227139070Y-136125346D01*
X227195867Y-136249715D01*
X227195872Y-136249722D01*
X227285409Y-136353054D01*
X227285413Y-136353058D01*
X227345979Y-136391980D01*
X227400439Y-136426979D01*
X227466036Y-136446240D01*
X227531632Y-136465501D01*
X227531633Y-136465501D01*
X227668367Y-136465501D01*
X227799561Y-136426979D01*
X227914589Y-136353056D01*
X228004130Y-136249719D01*
X228060931Y-136125343D01*
X228077262Y-136011755D01*
X228087197Y-135990000D01*
X228312802Y-135990000D01*
X228322738Y-136011756D01*
X228339068Y-136125338D01*
X228339070Y-136125346D01*
X228395867Y-136249715D01*
X228395872Y-136249722D01*
X228485409Y-136353054D01*
X228485413Y-136353058D01*
X228545979Y-136391980D01*
X228600439Y-136426979D01*
X228666036Y-136446240D01*
X228731632Y-136465501D01*
X228731633Y-136465501D01*
X228868367Y-136465501D01*
X228999561Y-136426979D01*
X229114589Y-136353056D01*
X229204130Y-136249719D01*
X229260931Y-136125343D01*
X229277262Y-136011755D01*
X229287197Y-135990000D01*
X229512802Y-135990000D01*
X229522738Y-136011756D01*
X229539068Y-136125338D01*
X229539070Y-136125346D01*
X229595867Y-136249715D01*
X229595872Y-136249722D01*
X229685409Y-136353054D01*
X229685413Y-136353058D01*
X229745979Y-136391980D01*
X229800439Y-136426979D01*
X229866036Y-136446240D01*
X229931632Y-136465501D01*
X229931633Y-136465501D01*
X230068367Y-136465501D01*
X230199561Y-136426979D01*
X230314589Y-136353056D01*
X230404130Y-136249719D01*
X230460931Y-136125343D01*
X230480390Y-135990001D01*
X230460931Y-135854659D01*
X230417571Y-135759714D01*
X230404132Y-135730286D01*
X230404127Y-135730279D01*
X230314590Y-135626947D01*
X230314586Y-135626943D01*
X230199559Y-135553022D01*
X230068368Y-135514501D01*
X230068367Y-135514501D01*
X229931633Y-135514501D01*
X229931632Y-135514501D01*
X229800440Y-135553022D01*
X229685413Y-135626943D01*
X229685409Y-135626947D01*
X229595872Y-135730279D01*
X229595867Y-135730286D01*
X229539070Y-135854655D01*
X229539068Y-135854663D01*
X229522738Y-135968245D01*
X229512802Y-135990000D01*
X229287197Y-135990000D01*
X229277262Y-135968245D01*
X229277214Y-135967913D01*
X229260931Y-135854659D01*
X229217571Y-135759714D01*
X229204132Y-135730286D01*
X229204127Y-135730279D01*
X229114590Y-135626947D01*
X229114586Y-135626943D01*
X228999559Y-135553022D01*
X228868368Y-135514501D01*
X228868367Y-135514501D01*
X228731633Y-135514501D01*
X228731632Y-135514501D01*
X228600440Y-135553022D01*
X228485413Y-135626943D01*
X228485409Y-135626947D01*
X228395872Y-135730279D01*
X228395867Y-135730286D01*
X228339070Y-135854655D01*
X228339068Y-135854663D01*
X228322738Y-135968245D01*
X228312802Y-135990000D01*
X228087197Y-135990000D01*
X228077262Y-135968245D01*
X228077214Y-135967913D01*
X228060931Y-135854659D01*
X228017571Y-135759714D01*
X228004132Y-135730286D01*
X228004127Y-135730279D01*
X227914590Y-135626947D01*
X227914586Y-135626943D01*
X227799559Y-135553022D01*
X227668368Y-135514501D01*
X227668367Y-135514501D01*
X227531633Y-135514501D01*
X227531632Y-135514501D01*
X227400440Y-135553022D01*
X227285413Y-135626943D01*
X227285409Y-135626947D01*
X227195872Y-135730279D01*
X227195867Y-135730286D01*
X227139070Y-135854655D01*
X227139068Y-135854663D01*
X227122738Y-135968245D01*
X227112802Y-135990000D01*
X226887197Y-135990000D01*
X226877262Y-135968245D01*
X226877214Y-135967913D01*
X226860931Y-135854659D01*
X226817571Y-135759714D01*
X226804132Y-135730286D01*
X226804127Y-135730279D01*
X226714590Y-135626947D01*
X226714586Y-135626943D01*
X226599559Y-135553022D01*
X226468368Y-135514501D01*
X226468367Y-135514501D01*
X226331633Y-135514501D01*
X226331632Y-135514501D01*
X226200440Y-135553022D01*
X226085413Y-135626943D01*
X226085409Y-135626947D01*
X225995872Y-135730279D01*
X225995867Y-135730286D01*
X225939070Y-135854655D01*
X225939068Y-135854663D01*
X225922738Y-135968245D01*
X225912802Y-135990000D01*
X225687197Y-135990000D01*
X225677262Y-135968245D01*
X225677214Y-135967913D01*
X225660931Y-135854659D01*
X225617571Y-135759714D01*
X225604132Y-135730286D01*
X225604127Y-135730279D01*
X225514590Y-135626947D01*
X225514586Y-135626943D01*
X225399559Y-135553022D01*
X225268368Y-135514501D01*
X225268367Y-135514501D01*
X225131633Y-135514501D01*
X225131632Y-135514501D01*
X225000440Y-135553022D01*
X224885413Y-135626943D01*
X224885409Y-135626947D01*
X224795872Y-135730279D01*
X224795867Y-135730286D01*
X224739070Y-135854655D01*
X224739068Y-135854663D01*
X224722738Y-135968245D01*
X224712802Y-135990000D01*
X224487197Y-135990000D01*
X224477262Y-135968245D01*
X224477214Y-135967913D01*
X224460931Y-135854659D01*
X224417571Y-135759714D01*
X224404132Y-135730286D01*
X224404127Y-135730279D01*
X224314590Y-135626947D01*
X224314586Y-135626943D01*
X224199559Y-135553022D01*
X224068368Y-135514501D01*
X224068367Y-135514501D01*
X223931633Y-135514501D01*
X223931632Y-135514501D01*
X223800440Y-135553022D01*
X223685413Y-135626943D01*
X223685409Y-135626947D01*
X223595872Y-135730279D01*
X223595867Y-135730286D01*
X223539070Y-135854655D01*
X223539068Y-135854663D01*
X223519610Y-135990001D01*
X187500000Y-135990001D01*
X187500000Y-134460000D01*
X193339610Y-134460000D01*
X193359068Y-134595337D01*
X193359070Y-134595345D01*
X193415867Y-134719714D01*
X193415872Y-134719721D01*
X193505409Y-134823053D01*
X193505413Y-134823057D01*
X193535998Y-134842712D01*
X193620439Y-134896978D01*
X193686036Y-134916239D01*
X193751632Y-134935500D01*
X193751633Y-134935500D01*
X193888367Y-134935500D01*
X194019561Y-134896978D01*
X194134589Y-134823055D01*
X194224130Y-134719718D01*
X194280931Y-134595342D01*
X194300390Y-134460000D01*
X194291763Y-134400000D01*
X206419610Y-134400000D01*
X206439068Y-134535337D01*
X206439070Y-134535345D01*
X206495867Y-134659714D01*
X206495872Y-134659721D01*
X206585409Y-134763053D01*
X206585413Y-134763057D01*
X206662096Y-134812337D01*
X206700439Y-134836978D01*
X206700442Y-134836978D01*
X206700943Y-134837208D01*
X206701361Y-134837570D01*
X206707899Y-134841772D01*
X206707294Y-134842712D01*
X206753745Y-134882966D01*
X206773426Y-134950006D01*
X206753738Y-135017044D01*
X206707294Y-135057287D01*
X206707899Y-135058228D01*
X206701361Y-135062429D01*
X206700943Y-135062792D01*
X206700438Y-135063022D01*
X206585413Y-135136942D01*
X206585409Y-135136946D01*
X206495872Y-135240278D01*
X206495867Y-135240285D01*
X206439070Y-135364654D01*
X206439068Y-135364662D01*
X206419610Y-135500000D01*
X206439068Y-135635337D01*
X206439070Y-135635345D01*
X206495867Y-135759714D01*
X206495872Y-135759721D01*
X206585409Y-135863053D01*
X206585413Y-135863057D01*
X206645979Y-135901979D01*
X206700439Y-135936978D01*
X206766036Y-135956239D01*
X206831632Y-135975500D01*
X206831633Y-135975500D01*
X206968367Y-135975500D01*
X207099561Y-135936978D01*
X207214589Y-135863055D01*
X207256289Y-135814930D01*
X207315064Y-135777157D01*
X207384934Y-135777157D01*
X207443709Y-135814928D01*
X207485411Y-135863055D01*
X207485414Y-135863057D01*
X207485413Y-135863057D01*
X207545979Y-135901979D01*
X207600439Y-135936978D01*
X207666036Y-135956239D01*
X207731632Y-135975500D01*
X207731633Y-135975500D01*
X207868367Y-135975500D01*
X207999561Y-135936978D01*
X208114589Y-135863055D01*
X208156289Y-135814930D01*
X208215064Y-135777157D01*
X208284934Y-135777157D01*
X208343709Y-135814928D01*
X208385411Y-135863055D01*
X208385414Y-135863057D01*
X208385413Y-135863057D01*
X208445979Y-135901979D01*
X208500439Y-135936978D01*
X208566036Y-135956239D01*
X208631632Y-135975500D01*
X208631633Y-135975500D01*
X208768367Y-135975500D01*
X208899561Y-135936978D01*
X209014589Y-135863055D01*
X209056289Y-135814930D01*
X209115064Y-135777157D01*
X209184934Y-135777157D01*
X209243709Y-135814928D01*
X209285411Y-135863055D01*
X209285414Y-135863057D01*
X209285413Y-135863057D01*
X209345979Y-135901979D01*
X209400439Y-135936978D01*
X209466036Y-135956239D01*
X209531632Y-135975500D01*
X209531633Y-135975500D01*
X209668367Y-135975500D01*
X209799561Y-135936978D01*
X209914589Y-135863055D01*
X209956289Y-135814930D01*
X210015064Y-135777157D01*
X210084934Y-135777157D01*
X210143709Y-135814928D01*
X210185411Y-135863055D01*
X210185414Y-135863057D01*
X210185413Y-135863057D01*
X210245979Y-135901979D01*
X210300439Y-135936978D01*
X210366036Y-135956239D01*
X210431632Y-135975500D01*
X210431633Y-135975500D01*
X210568367Y-135975500D01*
X210699561Y-135936978D01*
X210814589Y-135863055D01*
X210904130Y-135759718D01*
X210960931Y-135635342D01*
X210980390Y-135500000D01*
X210960931Y-135364658D01*
X210948677Y-135337827D01*
X210904132Y-135240285D01*
X210904127Y-135240278D01*
X210814590Y-135136946D01*
X210814586Y-135136942D01*
X210699562Y-135063022D01*
X210699061Y-135062794D01*
X210698644Y-135062433D01*
X210692101Y-135058228D01*
X210692705Y-135057287D01*
X210646257Y-135017039D01*
X210626573Y-134950000D01*
X210646258Y-134882960D01*
X210692705Y-134842712D01*
X210692101Y-134841772D01*
X210698644Y-134837566D01*
X210699061Y-134837206D01*
X210699557Y-134836978D01*
X210699561Y-134836978D01*
X210814589Y-134763055D01*
X210904130Y-134659718D01*
X210904332Y-134659277D01*
X210933528Y-134595345D01*
X210960931Y-134535342D01*
X210966012Y-134500000D01*
X217919610Y-134500000D01*
X217939068Y-134635337D01*
X217939070Y-134635345D01*
X217995867Y-134759714D01*
X217995872Y-134759721D01*
X218063325Y-134837566D01*
X218085411Y-134863055D01*
X218136184Y-134895684D01*
X218181939Y-134948488D01*
X218191883Y-135017646D01*
X218162859Y-135081202D01*
X218136185Y-135104314D01*
X218136182Y-135104317D01*
X218085410Y-135136945D01*
X218085409Y-135136946D01*
X217995872Y-135240278D01*
X217995867Y-135240285D01*
X217939070Y-135364654D01*
X217939068Y-135364662D01*
X217919610Y-135500000D01*
X217939068Y-135635337D01*
X217939070Y-135635345D01*
X217995867Y-135759714D01*
X217995872Y-135759721D01*
X218085409Y-135863053D01*
X218085413Y-135863057D01*
X218145979Y-135901979D01*
X218200439Y-135936978D01*
X218266036Y-135956239D01*
X218331632Y-135975500D01*
X218331633Y-135975500D01*
X218468367Y-135975500D01*
X218599561Y-135936978D01*
X218714589Y-135863055D01*
X218756289Y-135814930D01*
X218815064Y-135777157D01*
X218884934Y-135777157D01*
X218943709Y-135814928D01*
X218985411Y-135863055D01*
X218985414Y-135863057D01*
X218985413Y-135863057D01*
X219045979Y-135901979D01*
X219100439Y-135936978D01*
X219166036Y-135956239D01*
X219231632Y-135975500D01*
X219231633Y-135975500D01*
X219368367Y-135975500D01*
X219499561Y-135936978D01*
X219614589Y-135863055D01*
X219656289Y-135814930D01*
X219715064Y-135777157D01*
X219784934Y-135777157D01*
X219843709Y-135814928D01*
X219885411Y-135863055D01*
X219885414Y-135863057D01*
X219885413Y-135863057D01*
X219945979Y-135901979D01*
X220000439Y-135936978D01*
X220066036Y-135956239D01*
X220131632Y-135975500D01*
X220131633Y-135975500D01*
X220268367Y-135975500D01*
X220399561Y-135936978D01*
X220514589Y-135863055D01*
X220556289Y-135814930D01*
X220615064Y-135777157D01*
X220684934Y-135777157D01*
X220743709Y-135814928D01*
X220785411Y-135863055D01*
X220785414Y-135863057D01*
X220785413Y-135863057D01*
X220845979Y-135901979D01*
X220900439Y-135936978D01*
X220966036Y-135956239D01*
X221031632Y-135975500D01*
X221031633Y-135975500D01*
X221168367Y-135975500D01*
X221299561Y-135936978D01*
X221414589Y-135863055D01*
X221456289Y-135814930D01*
X221515064Y-135777157D01*
X221584934Y-135777157D01*
X221643709Y-135814928D01*
X221685411Y-135863055D01*
X221685414Y-135863057D01*
X221685413Y-135863057D01*
X221745979Y-135901979D01*
X221800439Y-135936978D01*
X221866036Y-135956239D01*
X221931632Y-135975500D01*
X221931633Y-135975500D01*
X222068367Y-135975500D01*
X222199561Y-135936978D01*
X222314589Y-135863055D01*
X222404130Y-135759718D01*
X222460931Y-135635342D01*
X222480390Y-135500000D01*
X222460931Y-135364658D01*
X222448677Y-135337827D01*
X222404132Y-135240285D01*
X222404127Y-135240278D01*
X222314590Y-135136946D01*
X222314591Y-135136946D01*
X222305899Y-135131360D01*
X222263813Y-135104313D01*
X222218060Y-135051513D01*
X222208116Y-134982355D01*
X222237140Y-134918799D01*
X222263809Y-134895688D01*
X222314589Y-134863055D01*
X222404130Y-134759718D01*
X222460931Y-134635342D01*
X222480390Y-134500000D01*
X222460931Y-134364658D01*
X222442665Y-134324662D01*
X222404132Y-134240285D01*
X222404127Y-134240278D01*
X222314590Y-134136946D01*
X222314586Y-134136942D01*
X222199559Y-134063021D01*
X222068368Y-134024500D01*
X222068367Y-134024500D01*
X221931633Y-134024500D01*
X221931632Y-134024500D01*
X221800440Y-134063021D01*
X221685413Y-134136942D01*
X221685413Y-134136943D01*
X221643713Y-134185068D01*
X221584935Y-134222842D01*
X221515065Y-134222842D01*
X221456287Y-134185068D01*
X221414589Y-134136945D01*
X221414586Y-134136943D01*
X221414586Y-134136942D01*
X221299559Y-134063021D01*
X221168368Y-134024500D01*
X221168367Y-134024500D01*
X221031633Y-134024500D01*
X221031632Y-134024500D01*
X220900440Y-134063021D01*
X220785413Y-134136942D01*
X220785413Y-134136943D01*
X220743713Y-134185068D01*
X220684935Y-134222842D01*
X220615065Y-134222842D01*
X220556287Y-134185068D01*
X220514589Y-134136945D01*
X220514586Y-134136943D01*
X220514586Y-134136942D01*
X220399559Y-134063021D01*
X220268368Y-134024500D01*
X220268367Y-134024500D01*
X220131633Y-134024500D01*
X220131632Y-134024500D01*
X220000440Y-134063021D01*
X219885413Y-134136942D01*
X219885413Y-134136943D01*
X219843713Y-134185068D01*
X219784935Y-134222842D01*
X219715065Y-134222842D01*
X219656287Y-134185068D01*
X219614589Y-134136945D01*
X219614586Y-134136943D01*
X219614586Y-134136942D01*
X219499559Y-134063021D01*
X219368368Y-134024500D01*
X219368367Y-134024500D01*
X219231633Y-134024500D01*
X219231632Y-134024500D01*
X219100440Y-134063021D01*
X218985413Y-134136942D01*
X218985413Y-134136943D01*
X218943713Y-134185068D01*
X218884935Y-134222842D01*
X218815065Y-134222842D01*
X218756287Y-134185068D01*
X218714589Y-134136945D01*
X218714586Y-134136943D01*
X218714586Y-134136942D01*
X218599559Y-134063021D01*
X218468368Y-134024500D01*
X218468367Y-134024500D01*
X218331633Y-134024500D01*
X218331632Y-134024500D01*
X218200440Y-134063021D01*
X218085413Y-134136942D01*
X218085409Y-134136946D01*
X217995872Y-134240278D01*
X217995867Y-134240285D01*
X217939070Y-134364654D01*
X217939068Y-134364662D01*
X217919610Y-134500000D01*
X210966012Y-134500000D01*
X210980390Y-134400000D01*
X210960931Y-134264658D01*
X210931533Y-134200285D01*
X210904132Y-134140285D01*
X210904127Y-134140278D01*
X210814590Y-134036946D01*
X210814586Y-134036942D01*
X210699559Y-133963021D01*
X210568368Y-133924500D01*
X210568367Y-133924500D01*
X210431633Y-133924500D01*
X210431632Y-133924500D01*
X210300440Y-133963021D01*
X210185413Y-134036942D01*
X210185413Y-134036943D01*
X210185411Y-134036944D01*
X210185411Y-134036945D01*
X210162816Y-134063022D01*
X210143713Y-134085068D01*
X210084935Y-134122842D01*
X210015065Y-134122842D01*
X209956287Y-134085068D01*
X209914589Y-134036945D01*
X209914586Y-134036943D01*
X209914586Y-134036942D01*
X209799559Y-133963021D01*
X209668368Y-133924500D01*
X209668367Y-133924500D01*
X209531633Y-133924500D01*
X209531632Y-133924500D01*
X209400440Y-133963021D01*
X209285413Y-134036942D01*
X209285413Y-134036943D01*
X209285411Y-134036944D01*
X209285411Y-134036945D01*
X209262816Y-134063022D01*
X209243713Y-134085068D01*
X209184935Y-134122842D01*
X209115065Y-134122842D01*
X209056287Y-134085068D01*
X209014589Y-134036945D01*
X209014586Y-134036943D01*
X209014586Y-134036942D01*
X208899559Y-133963021D01*
X208768368Y-133924500D01*
X208768367Y-133924500D01*
X208631633Y-133924500D01*
X208631632Y-133924500D01*
X208500440Y-133963021D01*
X208385413Y-134036942D01*
X208385413Y-134036943D01*
X208385411Y-134036944D01*
X208385411Y-134036945D01*
X208362816Y-134063022D01*
X208343713Y-134085068D01*
X208284935Y-134122842D01*
X208215065Y-134122842D01*
X208156287Y-134085068D01*
X208114589Y-134036945D01*
X208114586Y-134036943D01*
X208114586Y-134036942D01*
X207999559Y-133963021D01*
X207868368Y-133924500D01*
X207868367Y-133924500D01*
X207731633Y-133924500D01*
X207731632Y-133924500D01*
X207600440Y-133963021D01*
X207485413Y-134036942D01*
X207485413Y-134036943D01*
X207485411Y-134036944D01*
X207485411Y-134036945D01*
X207462816Y-134063022D01*
X207443713Y-134085068D01*
X207384935Y-134122842D01*
X207315065Y-134122842D01*
X207256287Y-134085068D01*
X207214589Y-134036945D01*
X207214586Y-134036943D01*
X207214586Y-134036942D01*
X207099559Y-133963021D01*
X206968368Y-133924500D01*
X206968367Y-133924500D01*
X206831633Y-133924500D01*
X206831632Y-133924500D01*
X206700440Y-133963021D01*
X206585413Y-134036942D01*
X206585409Y-134036946D01*
X206495872Y-134140278D01*
X206495867Y-134140285D01*
X206439070Y-134264654D01*
X206439068Y-134264662D01*
X206419610Y-134400000D01*
X194291763Y-134400000D01*
X194280931Y-134324658D01*
X194253528Y-134264654D01*
X194224132Y-134200285D01*
X194224127Y-134200278D01*
X194134590Y-134096946D01*
X194134586Y-134096942D01*
X194041221Y-134036942D01*
X194019561Y-134023022D01*
X194019560Y-134023021D01*
X194019559Y-134023021D01*
X193888368Y-133984500D01*
X193888367Y-133984500D01*
X193751633Y-133984500D01*
X193751632Y-133984500D01*
X193620440Y-134023021D01*
X193505413Y-134096942D01*
X193505409Y-134096946D01*
X193415872Y-134200278D01*
X193415867Y-134200285D01*
X193359070Y-134324654D01*
X193359068Y-134324662D01*
X193339610Y-134460000D01*
X187500000Y-134460000D01*
X187500000Y-132300000D01*
X211964610Y-132300000D01*
X211984068Y-132435337D01*
X211984070Y-132435345D01*
X212040867Y-132559714D01*
X212040872Y-132559721D01*
X212130409Y-132663053D01*
X212130413Y-132663057D01*
X212190979Y-132701979D01*
X212245439Y-132736978D01*
X212311036Y-132756239D01*
X212376632Y-132775500D01*
X212376633Y-132775500D01*
X212513367Y-132775500D01*
X212644561Y-132736978D01*
X212759589Y-132663055D01*
X212849130Y-132559718D01*
X212905931Y-132435342D01*
X212925390Y-132300000D01*
X217814611Y-132300000D01*
X217834069Y-132435337D01*
X217834071Y-132435345D01*
X217890868Y-132559714D01*
X217890873Y-132559721D01*
X217980410Y-132663053D01*
X217980414Y-132663057D01*
X218040980Y-132701979D01*
X218095440Y-132736978D01*
X218161037Y-132756239D01*
X218226633Y-132775500D01*
X218226634Y-132775500D01*
X218363368Y-132775500D01*
X218494562Y-132736978D01*
X218609590Y-132663055D01*
X218699131Y-132559718D01*
X218755932Y-132435342D01*
X218775391Y-132300000D01*
X218755932Y-132164658D01*
X218743678Y-132137827D01*
X218699133Y-132040285D01*
X218699128Y-132040278D01*
X218609591Y-131936946D01*
X218609587Y-131936942D01*
X218494560Y-131863021D01*
X218363369Y-131824500D01*
X218363368Y-131824500D01*
X218226634Y-131824500D01*
X218226633Y-131824500D01*
X218095441Y-131863021D01*
X217980414Y-131936942D01*
X217980410Y-131936946D01*
X217890873Y-132040278D01*
X217890868Y-132040285D01*
X217834071Y-132164654D01*
X217834069Y-132164662D01*
X217814611Y-132300000D01*
X212925390Y-132300000D01*
X212905931Y-132164658D01*
X212893677Y-132137827D01*
X212849132Y-132040285D01*
X212849127Y-132040278D01*
X212759590Y-131936946D01*
X212759586Y-131936942D01*
X212644559Y-131863021D01*
X212513368Y-131824500D01*
X212513367Y-131824500D01*
X212376633Y-131824500D01*
X212376632Y-131824500D01*
X212245440Y-131863021D01*
X212130413Y-131936942D01*
X212130409Y-131936946D01*
X212040872Y-132040278D01*
X212040867Y-132040285D01*
X211984070Y-132164654D01*
X211984068Y-132164662D01*
X211964610Y-132300000D01*
X187500000Y-132300000D01*
X187500000Y-131450000D01*
X205694610Y-131450000D01*
X205714068Y-131585337D01*
X205714070Y-131585345D01*
X205770867Y-131709714D01*
X205770872Y-131709721D01*
X205860409Y-131813053D01*
X205860413Y-131813057D01*
X205920979Y-131851979D01*
X205975439Y-131886978D01*
X206041036Y-131906239D01*
X206106632Y-131925500D01*
X206106633Y-131925500D01*
X206243367Y-131925500D01*
X206374561Y-131886978D01*
X206489589Y-131813055D01*
X206579130Y-131709718D01*
X206635931Y-131585342D01*
X206655390Y-131450000D01*
X206635931Y-131314658D01*
X206623677Y-131287827D01*
X206579132Y-131190285D01*
X206579127Y-131190278D01*
X206489590Y-131086946D01*
X206489586Y-131086942D01*
X206374559Y-131013021D01*
X206243368Y-130974500D01*
X206243367Y-130974500D01*
X206106633Y-130974500D01*
X206106632Y-130974500D01*
X205975440Y-131013021D01*
X205860413Y-131086942D01*
X205860409Y-131086946D01*
X205770872Y-131190278D01*
X205770867Y-131190285D01*
X205714070Y-131314654D01*
X205714068Y-131314662D01*
X205694610Y-131450000D01*
X187500000Y-131450000D01*
X187500000Y-129000000D01*
X189444709Y-129000000D01*
X189463851Y-129279862D01*
X189463852Y-129279864D01*
X189520921Y-129554499D01*
X189520926Y-129554516D01*
X189614863Y-129818828D01*
X189614864Y-129818830D01*
X189743919Y-130067896D01*
X189905688Y-130297069D01*
X189905692Y-130297073D01*
X189905692Y-130297074D01*
X190097154Y-130502080D01*
X190097155Y-130502081D01*
X190314754Y-130679111D01*
X190314756Y-130679112D01*
X190314757Y-130679113D01*
X190554433Y-130824863D01*
X190763257Y-130915567D01*
X190811725Y-130936620D01*
X191081839Y-131012303D01*
X191326159Y-131045884D01*
X191359741Y-131050500D01*
X191359742Y-131050500D01*
X191640259Y-131050500D01*
X191670219Y-131046381D01*
X191918161Y-131012303D01*
X192188275Y-130936620D01*
X192445568Y-130824862D01*
X192685246Y-130679111D01*
X192902845Y-130502081D01*
X193094312Y-130297069D01*
X193256081Y-130067896D01*
X193385136Y-129818830D01*
X193479075Y-129554511D01*
X193479076Y-129554504D01*
X193479078Y-129554499D01*
X193505571Y-129427005D01*
X193536148Y-129279862D01*
X193555291Y-129000000D01*
X226444709Y-129000000D01*
X226463851Y-129279862D01*
X226463852Y-129279864D01*
X226520921Y-129554499D01*
X226520926Y-129554516D01*
X226614863Y-129818828D01*
X226614864Y-129818830D01*
X226743919Y-130067896D01*
X226905688Y-130297069D01*
X226905692Y-130297073D01*
X226905692Y-130297074D01*
X227097154Y-130502080D01*
X227097155Y-130502081D01*
X227314754Y-130679111D01*
X227314756Y-130679112D01*
X227314757Y-130679113D01*
X227554433Y-130824863D01*
X227763257Y-130915567D01*
X227811725Y-130936620D01*
X228081839Y-131012303D01*
X228326159Y-131045884D01*
X228359741Y-131050500D01*
X228359742Y-131050500D01*
X228640259Y-131050500D01*
X228670219Y-131046381D01*
X228918161Y-131012303D01*
X229188275Y-130936620D01*
X229445568Y-130824862D01*
X229685246Y-130679111D01*
X229902845Y-130502081D01*
X230094312Y-130297069D01*
X230256081Y-130067896D01*
X230385136Y-129818830D01*
X230479075Y-129554511D01*
X230479076Y-129554504D01*
X230479078Y-129554499D01*
X230505571Y-129427005D01*
X230536148Y-129279862D01*
X230555291Y-129000000D01*
X230536148Y-128720138D01*
X230516443Y-128625315D01*
X230479078Y-128445500D01*
X230479073Y-128445483D01*
X230453576Y-128373742D01*
X230385136Y-128181170D01*
X230256081Y-127932104D01*
X230094312Y-127702931D01*
X230094307Y-127702925D01*
X229902845Y-127497919D01*
X229685242Y-127320886D01*
X229445566Y-127175136D01*
X229188276Y-127063380D01*
X228918166Y-126987698D01*
X228918162Y-126987697D01*
X228918161Y-126987697D01*
X228779209Y-126968598D01*
X228640259Y-126949500D01*
X228640258Y-126949500D01*
X228359742Y-126949500D01*
X228359741Y-126949500D01*
X228081839Y-126987697D01*
X228081833Y-126987698D01*
X227811723Y-127063380D01*
X227554433Y-127175136D01*
X227314757Y-127320886D01*
X227097154Y-127497919D01*
X226905692Y-127702925D01*
X226905692Y-127702926D01*
X226743919Y-127932103D01*
X226614863Y-128181171D01*
X226520926Y-128445483D01*
X226520921Y-128445500D01*
X226463852Y-128720135D01*
X226463851Y-128720137D01*
X226444709Y-129000000D01*
X193555291Y-129000000D01*
X193536148Y-128720138D01*
X193516443Y-128625315D01*
X193479078Y-128445500D01*
X193479073Y-128445483D01*
X193453576Y-128373742D01*
X193385136Y-128181170D01*
X193256081Y-127932104D01*
X193094312Y-127702931D01*
X193094307Y-127702925D01*
X192902845Y-127497919D01*
X192685242Y-127320886D01*
X192445566Y-127175136D01*
X192188276Y-127063380D01*
X191962061Y-126999997D01*
X195644723Y-126999997D01*
X195644723Y-127000002D01*
X195663793Y-127217975D01*
X195663793Y-127217979D01*
X195720422Y-127429322D01*
X195720424Y-127429326D01*
X195720425Y-127429330D01*
X195752409Y-127497919D01*
X195812897Y-127627638D01*
X195812898Y-127627639D01*
X195938402Y-127806877D01*
X196093123Y-127961598D01*
X196272361Y-128087102D01*
X196470670Y-128179575D01*
X196470676Y-128179576D01*
X196470677Y-128179577D01*
X196476626Y-128181171D01*
X196682023Y-128236207D01*
X196864926Y-128252208D01*
X196899998Y-128255277D01*
X196900000Y-128255277D01*
X196900002Y-128255277D01*
X196928254Y-128252805D01*
X197117977Y-128236207D01*
X197329330Y-128179575D01*
X197527639Y-128087102D01*
X197706877Y-127961598D01*
X197861598Y-127806877D01*
X197987102Y-127627639D01*
X198079575Y-127429330D01*
X198136207Y-127217977D01*
X198155277Y-127000000D01*
X198136207Y-126782023D01*
X198079575Y-126570670D01*
X197987102Y-126372362D01*
X197987100Y-126372359D01*
X197987099Y-126372357D01*
X197861599Y-126193124D01*
X197861596Y-126193121D01*
X197706877Y-126038402D01*
X197527639Y-125912898D01*
X197527640Y-125912898D01*
X197527638Y-125912897D01*
X197428484Y-125866661D01*
X197329330Y-125820425D01*
X197329326Y-125820424D01*
X197329322Y-125820422D01*
X197117977Y-125763793D01*
X196900002Y-125744723D01*
X196899998Y-125744723D01*
X196754682Y-125757436D01*
X196682023Y-125763793D01*
X196682020Y-125763793D01*
X196470677Y-125820422D01*
X196470668Y-125820426D01*
X196272361Y-125912898D01*
X196272357Y-125912900D01*
X196093121Y-126038402D01*
X195938402Y-126193121D01*
X195812900Y-126372357D01*
X195812898Y-126372361D01*
X195720426Y-126570668D01*
X195720422Y-126570677D01*
X195663793Y-126782020D01*
X195663793Y-126782024D01*
X195644723Y-126999997D01*
X191962061Y-126999997D01*
X191918166Y-126987698D01*
X191918162Y-126987697D01*
X191918161Y-126987697D01*
X191779209Y-126968598D01*
X191640259Y-126949500D01*
X191640258Y-126949500D01*
X191359742Y-126949500D01*
X191359741Y-126949500D01*
X191081839Y-126987697D01*
X191081833Y-126987698D01*
X190811723Y-127063380D01*
X190554433Y-127175136D01*
X190314757Y-127320886D01*
X190097154Y-127497919D01*
X189905692Y-127702925D01*
X189905692Y-127702926D01*
X189743919Y-127932103D01*
X189614863Y-128181171D01*
X189520926Y-128445483D01*
X189520921Y-128445500D01*
X189463852Y-128720135D01*
X189463851Y-128720137D01*
X189444709Y-129000000D01*
X187500000Y-129000000D01*
X187500000Y-125501089D01*
X187500020Y-125498878D01*
X187500020Y-125498877D01*
X187502409Y-125364889D01*
X187503650Y-125349472D01*
X187541948Y-125083099D01*
X187545709Y-125065814D01*
X187621210Y-124808681D01*
X187627391Y-124792112D01*
X187738720Y-124548334D01*
X187747185Y-124532832D01*
X187892084Y-124307364D01*
X187902670Y-124293222D01*
X188078177Y-124090676D01*
X188090676Y-124078177D01*
X188293222Y-123902670D01*
X188307364Y-123892084D01*
X188532832Y-123747185D01*
X188548334Y-123738720D01*
X188792112Y-123627390D01*
X188808681Y-123621210D01*
X189065818Y-123545707D01*
X189083099Y-123541948D01*
X189349472Y-123503650D01*
X189364889Y-123502409D01*
X189498879Y-123500020D01*
X189501090Y-123500000D01*
X230498910Y-123500000D01*
X230501121Y-123500020D01*
G37*
%TD.AperFunction*%
%TD*%
M02*
