M48
; DRILL file {KiCad 8.0.7} date 2025-04-07T22:13:35-0400
; FORMAT={-:-/ absolute / inch / decimal}
; #@! TF.CreationDate,2025-04-07T22:13:35-04:00
; #@! TF.GenerationSoftware,Kicad,Pcbnew,8.0.7
; #@! TF.FileFunction,Plated,1,6,PTH
FMAT,2
INCH
; #@! TA.AperFunction,Plated,PTH,ViaDrill
T1C0.0118
; #@! TA.AperFunction,Plated,PTH,ViaDrill
T2C0.0394
; #@! TA.AperFunction,Plated,PTH,ComponentDrill
T3C0.1260
%
G90
G05
T1
X7.4449Y-5.6181
X7.4449Y-5.9173
X7.4449Y-6.0118
X7.4459Y-6.311
X7.4469Y-6.0945
X7.4469Y-6.1614
X7.4469Y-6.2283
X7.478Y-5.748
X7.478Y-5.8268
X7.478Y-5.7087
X7.4874Y-5.2937
X7.4874Y-5.4437
X7.4874Y-5.4937
X7.4882Y-5.3937
X7.5984Y-5.7087
X7.5984Y-5.748
X7.5984Y-5.7874
X7.5984Y-5.8268
X7.5984Y-6.1024
X7.5984Y-6.1417
X7.5984Y-6.1811
X7.5984Y-6.2205
X7.5984Y-5.6693
X7.5984Y-5.8661
X7.5984Y-6.063
X7.5984Y-6.2598
X7.6307Y-5.2937
X7.6307Y-5.4437
X7.6307Y-5.4937
X7.6717Y-6.2205
X7.7884Y-6.1791
X8.0157Y-4.937
X8.0157Y-4.9843
X8.0571Y-6.439
X8.0571Y-6.4783
X8.0591Y-4.937
X8.0591Y-4.9843
X8.0906Y-6.439
X8.0906Y-6.4783
X8.1142Y-5.75
X8.1142Y-5.8012
X8.1142Y-5.8524
X8.1171Y-5.1752
X8.1201Y-5.5709
X8.126Y-6.439
X8.126Y-6.4783
X8.1376Y-5.5079
X8.1417Y-5.6122
X8.1457Y-5.2913
X8.1457Y-5.3346
X8.1614Y-5.6496
X8.1791Y-6.5193
X8.1791Y-6.5974
X8.1811Y-5.2913
X8.1811Y-5.3346
X8.2028Y-5.7913
X8.2165Y-5.2913
X8.2165Y-5.3346
X8.2343Y-5.7913
X8.2382Y-6.5197
X8.2382Y-6.5974
X8.252Y-5.2913
X8.252Y-5.3346
X8.2874Y-5.2913
X8.2874Y-5.3346
X8.2972Y-6.5193
X8.2972Y-6.5974
X8.3563Y-6.5974
X8.364Y-5.2087
X8.3659Y-5.5079
X8.374Y-5.3898
X8.374Y-5.4331
X8.3748Y-6.0827
X8.3839Y-6.2037
X8.3961Y-6.372
X8.4094Y-5.3898
X8.4094Y-5.4331
X8.4449Y-5.3898
X8.4449Y-5.4331
X8.4783Y-6.1339
X8.4803Y-5.3898
X8.4803Y-5.4331
X8.4913Y-6.0827
X8.5039Y-6.2965
X8.5157Y-5.3898
X8.5157Y-5.4331
X8.5285Y-5.7913
X8.564Y-5.7913
X8.5925Y-6.3189
X8.5925Y-6.3504
X8.5925Y-6.3839
X8.5925Y-6.565
X8.5925Y-6.5974
X8.5925Y-6.6299
X8.5943Y-5.2087
X8.5943Y-5.5079
X8.5984Y-5.2953
X8.5984Y-5.3346
X8.6112Y-5.6492
X8.6122Y-6.1368
X8.6319Y-6.0778
X8.6339Y-5.2953
X8.6339Y-5.3346
X8.6358Y-5.911
X8.6358Y-6.0299
X8.6535Y-5.6504
X8.6693Y-5.2953
X8.6693Y-5.3346
X8.6811Y-5.9122
X8.69Y-5.7299
X8.6929Y-6.2082
X8.7047Y-5.2953
X8.7047Y-5.3346
X8.7303Y-6.0049
X8.7402Y-5.2953
X8.7402Y-5.3346
X8.7402Y-5.8996
X8.748Y-5.9783
X8.75Y-6.0297
X8.7657Y-5.8799
X8.7657Y-5.9193
X8.7677Y-6.2082
X8.7717Y-5.8406
X8.7795Y-6.122
X8.7795Y-6.2803
X8.7795Y-6.3181
X8.8189Y-5.3539
X8.8189Y-5.6146
X8.8287Y-6.0531
X8.8394Y-5.6654
X8.8642Y-6.2638
X8.8661Y-5.3539
X8.8661Y-5.5744
X8.8661Y-5.6146
X8.8673Y-6.0531
X8.8898Y-5.7047
X8.8967Y-6.122
X8.9016Y-5.8346
X8.9016Y-5.8701
X8.9016Y-5.9055
X8.9134Y-5.3539
X8.9134Y-5.6146
X8.9181Y-5.6654
X8.9272Y-6.0335
X8.9311Y-6.1772
X8.937Y-5.8346
X8.937Y-5.8701
X8.937Y-5.9055
X8.9469Y-5.9555
X8.9606Y-5.3539
X8.9606Y-5.6146
X8.9665Y-6.0335
X8.9724Y-5.8346
X8.9724Y-5.8701
X8.9724Y-5.9055
X8.9843Y-5.7047
X8.9862Y-5.9555
X8.9862Y-6.063
X8.9969Y-5.6654
X9.0079Y-5.3539
X9.0079Y-5.5744
X9.0079Y-5.6146
X9.0256Y-5.9555
X9.0256Y-6.0335
X9.0453Y-6.063
X9.0551Y-5.3539
X9.0551Y-5.6146
X9.0945Y-6.122
X9.1083Y-5.7618
X9.1083Y-5.8012
X9.1083Y-5.8406
X9.1083Y-5.8996
X9.1083Y-5.939
X9.124Y-5.9949
X9.124Y-6.0327
X9.1339Y-5.7815
X9.1339Y-5.8209
X9.1339Y-5.8602
X9.1339Y-5.9193
T2
X7.752Y-5.0
X8.7992Y-6.4173
X8.7992Y-6.5157
X8.7992Y-6.6142
T3
X7.5394Y-5.0787
X7.5394Y-6.5157
X8.9961Y-5.0787
X8.9961Y-6.5157
M30
