%TF.GenerationSoftware,KiCad,Pcbnew,8.0.7*%
%TF.CreationDate,2025-04-17T20:50:55-04:00*%
%TF.ProjectId,kicker,6b69636b-6572-42e6-9b69-6361645f7063,v4*%
%TF.SameCoordinates,Original*%
%TF.FileFunction,Copper,L3,Inr*%
%TF.FilePolarity,Positive*%
%FSLAX46Y46*%
G04 Gerber Fmt 4.6, Leading zero omitted, Abs format (unit mm)*
G04 Created by KiCad (PCBNEW 8.0.7) date 2025-04-17 20:50:55*
%MOMM*%
%LPD*%
G01*
G04 APERTURE LIST*
G04 Aperture macros list*
%AMRoundRect*
0 Rectangle with rounded corners*
0 $1 Rounding radius*
0 $2 $3 $4 $5 $6 $7 $8 $9 X,Y pos of 4 corners*
0 Add a 4 corners polygon primitive as box body*
4,1,4,$2,$3,$4,$5,$6,$7,$8,$9,$2,$3,0*
0 Add four circle primitives for the rounded corners*
1,1,$1+$1,$2,$3*
1,1,$1+$1,$4,$5*
1,1,$1+$1,$6,$7*
1,1,$1+$1,$8,$9*
0 Add four rect primitives between the rounded corners*
20,1,$1+$1,$2,$3,$4,$5,0*
20,1,$1+$1,$4,$5,$6,$7,0*
20,1,$1+$1,$6,$7,$8,$9,0*
20,1,$1+$1,$8,$9,$2,$3,0*%
%AMOutline5P*
0 Free polygon, 5 corners , with rotation*
0 The origin of the aperture is its center*
0 number of corners: always 5*
0 $1 to $10 corner X, Y*
0 $11 Rotation angle, in degrees counterclockwise*
0 create outline with 5 corners*
4,1,5,$1,$2,$3,$4,$5,$6,$7,$8,$9,$10,$1,$2,$11*%
%AMOutline6P*
0 Free polygon, 6 corners , with rotation*
0 The origin of the aperture is its center*
0 number of corners: always 6*
0 $1 to $12 corner X, Y*
0 $13 Rotation angle, in degrees counterclockwise*
0 create outline with 6 corners*
4,1,6,$1,$2,$3,$4,$5,$6,$7,$8,$9,$10,$11,$12,$1,$2,$13*%
%AMOutline7P*
0 Free polygon, 7 corners , with rotation*
0 The origin of the aperture is its center*
0 number of corners: always 7*
0 $1 to $14 corner X, Y*
0 $15 Rotation angle, in degrees counterclockwise*
0 create outline with 7 corners*
4,1,7,$1,$2,$3,$4,$5,$6,$7,$8,$9,$10,$11,$12,$13,$14,$1,$2,$15*%
%AMOutline8P*
0 Free polygon, 8 corners , with rotation*
0 The origin of the aperture is its center*
0 number of corners: always 8*
0 $1 to $16 corner X, Y*
0 $17 Rotation angle, in degrees counterclockwise*
0 create outline with 8 corners*
4,1,8,$1,$2,$3,$4,$5,$6,$7,$8,$9,$10,$11,$12,$13,$14,$15,$16,$1,$2,$17*%
G04 Aperture macros list end*
%TA.AperFunction,ComponentPad*%
%ADD10RoundRect,0.760000X-1.140000X1.140000X-1.140000X-1.140000X1.140000X-1.140000X1.140000X1.140000X0*%
%TD*%
%TA.AperFunction,ComponentPad*%
%ADD11C,3.800000*%
%TD*%
%TA.AperFunction,ComponentPad*%
%ADD12C,6.400000*%
%TD*%
%TA.AperFunction,ComponentPad*%
%ADD13R,4.000000X4.000000*%
%TD*%
%TA.AperFunction,ComponentPad*%
%ADD14C,4.000000*%
%TD*%
%TA.AperFunction,ComponentPad*%
%ADD15C,3.200000*%
%TD*%
%TA.AperFunction,ComponentPad*%
%ADD16Outline8P,-0.800000X0.400000X-0.400000X0.800000X0.400000X0.800000X0.800000X0.400000X0.800000X-0.400000X0.400000X-0.800000X-0.400000X-0.800000X-0.800000X-0.400000X0.000000*%
%TD*%
%TA.AperFunction,ComponentPad*%
%ADD17C,1.600000*%
%TD*%
%TA.AperFunction,ViaPad*%
%ADD18C,0.450000*%
%TD*%
%TA.AperFunction,ViaPad*%
%ADD19C,0.800000*%
%TD*%
%TA.AperFunction,Conductor*%
%ADD20C,1.000000*%
%TD*%
%TA.AperFunction,Conductor*%
%ADD21C,0.152400*%
%TD*%
%TA.AperFunction,Conductor*%
%ADD22C,0.250000*%
%TD*%
%TA.AperFunction,Conductor*%
%ADD23C,0.200000*%
%TD*%
G04 APERTURE END LIST*
D10*
%TO.N,GND*%
%TO.C,J3*%
X185500000Y-166500000D03*
D11*
%TO.N,/Power Regulation/V_{batt}*%
X185500000Y-171500000D03*
%TD*%
D12*
%TO.N,unconnected-(H2-Pad1)*%
%TO.C,H2*%
X291000000Y-138000000D03*
%TD*%
%TO.N,unconnected-(H1-Pad1)*%
%TO.C,H1*%
X210000000Y-69000000D03*
%TD*%
%TO.N,unconnected-(H3-Pad1)*%
%TO.C,H3*%
X129000000Y-138000000D03*
%TD*%
D13*
%TO.N,/hv_kicker/flyback_charger/V_{solenoid}*%
%TO.C,C26*%
X271500000Y-136000000D03*
D14*
%TO.N,GND*%
X271500000Y-146000000D03*
%TD*%
D13*
%TO.N,/hv_kicker/flyback_charger/V_{solenoid}*%
%TO.C,C25*%
X148500000Y-136000000D03*
D14*
%TO.N,GND*%
X148500000Y-146000000D03*
%TD*%
D15*
%TO.N,/Power Regulation/V_{batt}*%
%TO.C,F3*%
X173265000Y-142300000D03*
X173265000Y-145700000D03*
%TO.N,+BATT*%
X186735000Y-142300000D03*
X186735000Y-145700000D03*
%TD*%
D16*
%TO.N,/hv_kicker/flyback_charger/V_{solenoid}*%
%TO.C,J5*%
X234500000Y-144000000D03*
D17*
%TO.N,/hv_kicker/solenoid_control/KICK_SW*%
X231500000Y-144000000D03*
%TD*%
D16*
%TO.N,/hv_kicker/solenoid_control/CHIP_SW*%
%TO.C,J6*%
X243500000Y-144000000D03*
D17*
%TO.N,/hv_kicker/flyback_charger/V_{solenoid}*%
X240500000Y-144000000D03*
%TD*%
D18*
%TO.N,/COMS.CTS*%
X232900000Y-174500000D03*
%TO.N,Net-(J11-Pin_8)*%
X236600000Y-169500000D03*
%TO.N,/COMS.RTS*%
X231900000Y-174450000D03*
%TO.N,Net-(J11-Pin_8)*%
X232900000Y-173350000D03*
%TO.N,GND*%
X233990001Y-172000000D03*
X233990000Y-173250000D03*
%TO.N,Net-(U8-INTVCC)*%
X202500000Y-139780002D03*
%TO.N,GND*%
X209280000Y-158300000D03*
X209400000Y-178409999D03*
X195800000Y-145700000D03*
D19*
X200500000Y-83000000D03*
D18*
X251606245Y-153515076D03*
D19*
X198000000Y-91750000D03*
X198000000Y-90500000D03*
D18*
X210700000Y-178409999D03*
X169363782Y-163101041D03*
X184500000Y-155000000D03*
X200000000Y-144520000D03*
X181009999Y-175500000D03*
D19*
X200500000Y-86750000D03*
X198000000Y-83000000D03*
D18*
X203600000Y-156500000D03*
X228000000Y-98000000D03*
X217500000Y-168000000D03*
X211875000Y-175850000D03*
X207000000Y-169500000D03*
X211750000Y-143009999D03*
X223000000Y-98000000D03*
D19*
X196250000Y-74500000D03*
X196750000Y-83000000D03*
D18*
X244000000Y-168250000D03*
D19*
X200500000Y-94250000D03*
D18*
X195900000Y-175850000D03*
X203100000Y-84010000D03*
X233300000Y-180100000D03*
X220000000Y-141009999D03*
X204509999Y-170000000D03*
X246515076Y-158606245D03*
D19*
X195100000Y-74500000D03*
X196750000Y-94250000D03*
X193850000Y-74500000D03*
D18*
X207400001Y-82500000D03*
X219000000Y-168000000D03*
X216000000Y-172200000D03*
D19*
X198000000Y-81750000D03*
X200500000Y-93000000D03*
D18*
X204700000Y-165280000D03*
X200000000Y-147759999D03*
D19*
X198000000Y-93000000D03*
X196750000Y-93000000D03*
X172250000Y-176500000D03*
X198750000Y-74500000D03*
D18*
X250000000Y-168250000D03*
X195000000Y-145700000D03*
X206400001Y-79980000D03*
D19*
X199250000Y-90500000D03*
D18*
X229000000Y-99000000D03*
X182500000Y-154000001D03*
D19*
X196750000Y-85500000D03*
X200500000Y-90500000D03*
D18*
X184500000Y-154000000D03*
X206900000Y-81900000D03*
D19*
X200000000Y-74500000D03*
D18*
X240500000Y-177509998D03*
D19*
X200500000Y-91750000D03*
D18*
X199320000Y-154900000D03*
D19*
X199250000Y-83000000D03*
D18*
X191000000Y-161600000D03*
X204509999Y-167600001D03*
X180500000Y-154000000D03*
X195000000Y-147300000D03*
D19*
X173500000Y-179000000D03*
D18*
X218650000Y-140980000D03*
X227900000Y-175850000D03*
X224000000Y-99000000D03*
X226000000Y-98000000D03*
X206900000Y-83100000D03*
D19*
X200500000Y-88000000D03*
D18*
X225000000Y-98000000D03*
X207000000Y-168750000D03*
X207900000Y-83100000D03*
X212010000Y-96000000D03*
X189400000Y-161000000D03*
X243500000Y-177509998D03*
X223000000Y-100000000D03*
X242500000Y-177509998D03*
X185500000Y-154000000D03*
X242786934Y-161286934D03*
D19*
X196750000Y-84250000D03*
D18*
X217500000Y-169500000D03*
D19*
X207950001Y-79500000D03*
D18*
X205000000Y-161400000D03*
D19*
X191900000Y-168650000D03*
D18*
X224000000Y-100000000D03*
D19*
X205500000Y-141449999D03*
D18*
X225000000Y-99000000D03*
X181500000Y-155000000D03*
X227000000Y-167250000D03*
X203700000Y-149700000D03*
X204400001Y-79020000D03*
D19*
X196750000Y-81750000D03*
D18*
X180500000Y-155000000D03*
X163863782Y-157601041D03*
D19*
X198000000Y-85500000D03*
D18*
X203100000Y-81020000D03*
D19*
X198000000Y-84250000D03*
D18*
X215700000Y-148600000D03*
X252533310Y-156941207D03*
D19*
X199250000Y-89250000D03*
X171000000Y-175250000D03*
D18*
X195800000Y-147300000D03*
D19*
X195100000Y-73250000D03*
D18*
X190524999Y-158900000D03*
X257533310Y-151941207D03*
X236171751Y-156578249D03*
D19*
X203000000Y-95500000D03*
D18*
X230450000Y-168437500D03*
D19*
X197500000Y-73250000D03*
D18*
X194200000Y-145700000D03*
X222000000Y-99000000D03*
X199320000Y-156000000D03*
X201000000Y-162105000D03*
D19*
X199250000Y-84250000D03*
D18*
X180980000Y-176500000D03*
X226000000Y-100000000D03*
D19*
X199250000Y-85500000D03*
D18*
X204509999Y-168800001D03*
D19*
X200500000Y-89250000D03*
D18*
X228000000Y-99000000D03*
D19*
X199250000Y-91750000D03*
D18*
X220280000Y-161000000D03*
X202525000Y-179050000D03*
D19*
X199250000Y-94250000D03*
D18*
X214900000Y-172209999D03*
X167839411Y-158339411D03*
D19*
X196750000Y-90500000D03*
D18*
X241500000Y-177509998D03*
D19*
X204000000Y-95500000D03*
D18*
X199520000Y-151000000D03*
D19*
X169750000Y-174000000D03*
D18*
X245008839Y-152584664D03*
D19*
X193900000Y-168650000D03*
D18*
X207000000Y-168000000D03*
X213500000Y-157820000D03*
X182500000Y-155000000D03*
X181500000Y-154000000D03*
D19*
X199250000Y-86750000D03*
X198000000Y-94250000D03*
X197500000Y-74500000D03*
D18*
X216000000Y-144740000D03*
D19*
X199250000Y-93000000D03*
D18*
X211400001Y-80020000D03*
X225000000Y-100000000D03*
X223000000Y-99000000D03*
X195800000Y-146500000D03*
X229000000Y-100000000D03*
X233300000Y-165150000D03*
X228000000Y-100000000D03*
X222000000Y-100000000D03*
X211000000Y-157820000D03*
X211750000Y-139990001D03*
D19*
X196750000Y-89250000D03*
D18*
X204000000Y-89990000D03*
X194200000Y-146500000D03*
X199500000Y-149700000D03*
X207900000Y-81900000D03*
X217000000Y-144740000D03*
X227000000Y-98000000D03*
X209250000Y-138259999D03*
X246000000Y-168250000D03*
X227000000Y-100000000D03*
X197000000Y-157500000D03*
D19*
X193850000Y-73250000D03*
X200500000Y-81750000D03*
D18*
X197000000Y-160600000D03*
D19*
X198000000Y-86750000D03*
X200000000Y-73250000D03*
X196750000Y-91750000D03*
X196750000Y-88000000D03*
D18*
X224000000Y-98000000D03*
X220500000Y-156490001D03*
X217475000Y-179050000D03*
D19*
X200500000Y-84250000D03*
D18*
X219000000Y-169500000D03*
D19*
X196250000Y-73250000D03*
X196750000Y-86750000D03*
X198000000Y-89250000D03*
D18*
X213125000Y-175850000D03*
D19*
X213400001Y-80550000D03*
X199250000Y-88000000D03*
D18*
X213800000Y-166820000D03*
X227000000Y-99000000D03*
X210200000Y-148500000D03*
X244582986Y-159490883D03*
X248000000Y-168250000D03*
D19*
X200500000Y-85500000D03*
X198750000Y-73250000D03*
D18*
X195000000Y-146500000D03*
D19*
X173500000Y-177750000D03*
D18*
X183500000Y-155000000D03*
X226000000Y-99000000D03*
D19*
X198000000Y-88000000D03*
D18*
X210500000Y-144770000D03*
X183500000Y-154000000D03*
X185500000Y-155000000D03*
X241888909Y-162184960D03*
X208500000Y-144509999D03*
X190500000Y-149580000D03*
X210900001Y-94010000D03*
X190500000Y-141990001D03*
X208500000Y-167069950D03*
X217500000Y-168750000D03*
X216500000Y-160500000D03*
D19*
X199250000Y-81750000D03*
D18*
X219000000Y-168750000D03*
X194200000Y-147300000D03*
X241139376Y-151139376D03*
D19*
%TO.N,+BATT*%
X191250000Y-84250000D03*
X192500000Y-81750000D03*
X190000000Y-83000000D03*
X188750000Y-89250000D03*
X191250000Y-85500000D03*
D18*
X228490001Y-162000000D03*
D19*
X192500000Y-83000000D03*
X190000000Y-88000000D03*
X192500000Y-88000000D03*
X188750000Y-83000000D03*
D18*
X222000000Y-169500000D03*
D19*
X190000000Y-86750000D03*
X188750000Y-88000000D03*
X188750000Y-84250000D03*
D18*
X192999999Y-151400000D03*
D19*
X188750000Y-85500000D03*
X190000000Y-85500000D03*
D18*
X222000000Y-168000000D03*
D19*
X192500000Y-86750000D03*
X191250000Y-86750000D03*
D18*
X220500000Y-168750000D03*
D19*
X192500000Y-89250000D03*
X192500000Y-85500000D03*
X190000000Y-89250000D03*
X192500000Y-84250000D03*
X191250000Y-89250000D03*
X190000000Y-84250000D03*
X188750000Y-86750000D03*
X191250000Y-81750000D03*
D18*
X222000000Y-168750000D03*
X220500000Y-168000000D03*
D19*
X191250000Y-83000000D03*
X190000000Y-81750000D03*
X191250000Y-88000000D03*
D18*
X220500000Y-169500000D03*
D19*
X188750000Y-81750000D03*
D18*
%TO.N,+3V0*%
X200280000Y-154900000D03*
X200280000Y-156000000D03*
%TO.N,+5V*%
X215625000Y-175850000D03*
X201490001Y-167600002D03*
%TO.N,+3V3*%
X240990883Y-163082986D03*
X244190000Y-171095000D03*
X211500000Y-172000000D03*
X210000000Y-172000000D03*
X136000000Y-133009999D03*
X213500000Y-163900000D03*
X230400000Y-175850000D03*
X198400000Y-175850000D03*
D19*
X195900000Y-163900000D03*
D18*
X214000000Y-144740001D03*
X214375000Y-175850000D03*
X190000000Y-178250000D03*
X193425000Y-172890001D03*
X205500000Y-168750000D03*
X194625000Y-172890001D03*
X205600000Y-178409999D03*
X206475000Y-158295000D03*
X204700000Y-164300000D03*
X205500000Y-169500000D03*
X206900000Y-178409999D03*
X216000000Y-145700000D03*
X193009999Y-143000000D03*
X248941207Y-160533310D03*
X217000000Y-145700000D03*
X201490001Y-166400000D03*
X200500000Y-149700000D03*
X237990001Y-155000000D03*
X210500000Y-145730000D03*
X284000000Y-133009999D03*
X219320000Y-161000000D03*
X253941207Y-155533310D03*
X233990001Y-167050000D03*
X199900000Y-160800000D03*
%TO.N,/digital/RCC_OSC32_N*%
X211000000Y-160500000D03*
%TO.N,/digital/RCC_OSC32_P*%
X213499998Y-160500000D03*
%TO.N,/digital/V_{sense}_HV_FILT*%
X197000000Y-159620000D03*
X207300000Y-164100000D03*
%TO.N,/digital/NRST*%
X249484924Y-151393755D03*
X212600000Y-163900000D03*
X229500000Y-166562499D03*
X209500000Y-164500000D03*
X219250000Y-165900000D03*
X244393755Y-156484924D03*
D19*
%TO.N,+VSW*%
X215500000Y-140000000D03*
D18*
X201490001Y-168800000D03*
D19*
%TO.N,Net-(U8-INTVCC)*%
X213400001Y-82450000D03*
%TO.N,+VSW*%
X202500000Y-143125000D03*
X205500000Y-139500000D03*
%TO.N,/hv_kicker/flyback_charger/V_{trans}*%
X231500000Y-81250000D03*
X231500000Y-87500000D03*
X231500000Y-88750000D03*
X230250000Y-83750000D03*
X230250000Y-82500000D03*
X230250000Y-80000000D03*
X229000000Y-83750000D03*
X231500000Y-85000000D03*
X229000000Y-88750000D03*
X229000000Y-82500000D03*
X229000000Y-81250000D03*
X230250000Y-86250000D03*
X229000000Y-85000000D03*
X229000000Y-86250000D03*
X231500000Y-82500000D03*
X229000000Y-77500000D03*
X227750000Y-85000000D03*
X230250000Y-81250000D03*
X227750000Y-76250000D03*
X227750000Y-82500000D03*
X230250000Y-88750000D03*
X227750000Y-87500000D03*
X229000000Y-80000000D03*
X229000000Y-87500000D03*
X227750000Y-86250000D03*
X227750000Y-77500000D03*
X227750000Y-88750000D03*
X229000000Y-78750000D03*
X230250000Y-87500000D03*
X231500000Y-80000000D03*
X230250000Y-85000000D03*
X230250000Y-78750000D03*
X231500000Y-86250000D03*
X227750000Y-83750000D03*
X227750000Y-78750000D03*
X231500000Y-83750000D03*
X227750000Y-80000000D03*
X227750000Y-81250000D03*
D18*
%TO.N,/digital/BB_LED_DRAIN*%
X245662913Y-150587087D03*
X129000000Y-133250000D03*
X291000000Y-133250000D03*
%TO.N,/digital/USR_BTN*%
X233787868Y-159881371D03*
X216500000Y-157000000D03*
X181009999Y-174500000D03*
%TO.N,/digital/SWCLK*%
X221250000Y-151000000D03*
%TO.N,/digital/SWDIO*%
X220750000Y-149750000D03*
%TO.N,/digital/V_{sense}_HV*%
X198990001Y-159700000D03*
D19*
%TO.N,/hv_kicker/flyback_charger/HV_AC*%
X194000000Y-98500000D03*
X195500000Y-100000000D03*
X194000000Y-100000000D03*
X195500000Y-98500000D03*
D18*
%TO.N,Net-(J1-Pin_10)*%
X204375000Y-175850000D03*
%TO.N,/COMS.RST*%
X236600000Y-172000000D03*
%TO.N,Net-(J1-Pin_7)*%
X208125000Y-175850000D03*
%TO.N,/Ball Sense/SENSE_BOOT_UART.CTS*%
X205625000Y-175850000D03*
%TO.N,/COMS.BOOT0*%
X220500000Y-158500000D03*
X236600000Y-173250000D03*
%TO.N,/COMS.RX*%
X214000000Y-149100000D03*
%TO.N,/Dribbler/DRIB_BOOT_UART.CTS*%
X208500000Y-160200000D03*
X210000000Y-169600000D03*
%TO.N,/Dribbler/DRIB_BOOT_UART.BOOT0*%
X205600000Y-151000000D03*
X216000000Y-171180002D03*
%TO.N,/Dribbler/DRIB_BOOT_UART.RX*%
X203700000Y-151000000D03*
X211500002Y-169600000D03*
%TO.N,/Dribbler/DRIB_BOOT_UART.RST*%
X214900000Y-171190001D03*
X204800000Y-151500000D03*
%TO.N,/Breakbeam/BB_LEFT.AGPIO*%
X209000000Y-163900000D03*
X197150000Y-175850000D03*
%TO.N,Net-(R12-Pad1)*%
X240500000Y-176490000D03*
X251810000Y-171095000D03*
X239250001Y-170000000D03*
%TO.N,Net-(R13-Pad1)*%
X251810000Y-172365000D03*
X240250000Y-170000000D03*
X241500000Y-176490000D03*
%TO.N,Net-(R14-Pad1)*%
X241250000Y-170000000D03*
X242500000Y-176490000D03*
X251810000Y-173635000D03*
%TO.N,Net-(R15-Pad1)*%
X251810000Y-174905000D03*
X242250000Y-170000000D03*
X243500000Y-176490001D03*
%TO.N,/Breakbeam/BB_RIGHT.RST*%
X208000000Y-148500000D03*
X224125000Y-177300000D03*
%TO.N,/Breakbeam/BB_RIGHT.~{DET}*%
X222825000Y-177300000D03*
X207500000Y-149100000D03*
%TO.N,/Breakbeam/BB_RIGHT.INT*%
X207000000Y-148500000D03*
X221625000Y-177300000D03*
%TO.N,/Breakbeam/BB_RIGHT.SCL*%
X211000000Y-148500000D03*
X225425000Y-177300000D03*
%TO.N,/Breakbeam/BB_RIGHT.SDA*%
X211500000Y-149100000D03*
X226625000Y-177300000D03*
%TO.N,/Breakbeam/BB_LEFT.INT*%
X189650000Y-177000000D03*
X219800000Y-151500000D03*
%TO.N,/Breakbeam/BB_LEFT.RST*%
X192150000Y-175850000D03*
X219800000Y-150500000D03*
%TO.N,/Breakbeam/BB_LEFT.~{DET}*%
X190900000Y-175850000D03*
X219200000Y-151000000D03*
%TO.N,/Breakbeam/BB_LEFT.SDA*%
X214300000Y-158000000D03*
X194650000Y-175850000D03*
%TO.N,/Breakbeam/BB_LEFT.SCL*%
X219000000Y-150000000D03*
X193400000Y-175850000D03*
%TO.N,/Ball Sense/SENSE_BOOT_UART.RX*%
X206875000Y-175850000D03*
%TO.N,/Ball Sense/SENSE_BOOT_UART.RST*%
X209375000Y-175850000D03*
%TO.N,/Ball Sense/SENSE_BOOT_UART.BOOT0*%
X210625000Y-175850000D03*
%TO.N,/digital/LED_BB_BLUE*%
X243665336Y-151241161D03*
X222000000Y-160000000D03*
%TO.N,/hv_kicker/solenoid_control/GATE_{kick}_FILT*%
X209250000Y-134990001D03*
%TO.N,/hv_kicker/solenoid_control/GATE_{chip}_FILT*%
X222750000Y-134000000D03*
%TO.N,/COMS.TX*%
X213500000Y-148500000D03*
%TO.N,/Power Regulation/VSW_CEN*%
X190500000Y-143009999D03*
X192300000Y-147135000D03*
%TO.N,/Power Regulation/VSW_PGOOD*%
X192300000Y-145865000D03*
%TO.N,/digital/VSW_EN*%
X190500000Y-145990001D03*
%TO.N,/digital/LED_GREEN*%
X222000000Y-159000000D03*
%TO.N,/digital/LED_RED*%
X221400000Y-159500000D03*
%TO.N,/digital/ShutdownInitiated*%
X221400000Y-157500000D03*
%TO.N,/digital/DIP3*%
X221300000Y-166600000D03*
X239250001Y-168980002D03*
%TO.N,/digital/DIP2*%
X240250000Y-168980002D03*
%TO.N,/digital/DIP1*%
X241250000Y-168980002D03*
%TO.N,/digital/DIP0*%
X242250000Y-168980002D03*
%TO.N,/digital/CMD_{KICK}*%
X211750000Y-141990001D03*
%TO.N,/digital/CMD_{CHIP}*%
X217155000Y-142975000D03*
X211750000Y-141009999D03*
%TO.N,/digital/CMD_{CHG}*%
X210000000Y-140300000D03*
X210990000Y-96000000D03*
X211700000Y-81900000D03*
%TO.N,/hv_kicker/flyback_charger/HVGATE*%
X210900001Y-92020000D03*
X211100000Y-83100000D03*
%TO.N,/hv_kicker/flyback_charger/FB*%
X204000000Y-91010000D03*
X204000000Y-81900000D03*
%TO.N,/Dribbler/DRIB_BOOT_UART.TX*%
X204300000Y-150500000D03*
%TO.N,/Ball Sense/SENSE_BOOT_UART.TX*%
X208200000Y-178409999D03*
%TO.N,/digital/USER_ADJ1*%
X220750000Y-149000000D03*
X204300000Y-154500000D03*
%TO.N,/digital/USER_ADJ2*%
X203700000Y-154000000D03*
X219000000Y-148500000D03*
%TO.N,/digital/DOTSTAR_SCK*%
X168232412Y-164232412D03*
X216600000Y-164100000D03*
%TO.N,/digital/DOTSTAR_MOSI*%
X167101041Y-165363782D03*
X217100000Y-165200000D03*
%TO.N,/digital/FLASH_SCK*%
X206475000Y-160835000D03*
%TO.N,/digital/FLASH_MOSI*%
X204600000Y-159500000D03*
%TO.N,/COMS.CTS*%
X214000000Y-150400000D03*
%TO.N,/COMS.RTS*%
X214800000Y-150600000D03*
%TO.N,/Dribbler/DRIB_BOOT_UART.RTS*%
X208500000Y-161100000D03*
%TO.N,/digital/FLASH_MISO*%
X203700000Y-160000000D03*
%TO.N,/digital/FLASH_NSS*%
X203700000Y-161000000D03*
%TO.N,/Ball Sense/SENSE_BOOT_UART.RTS*%
X204400000Y-178409999D03*
%TO.N,Net-(J11-Pin_9)*%
X236600000Y-168250000D03*
%TO.N,/COMS.CTS*%
X236600000Y-167000000D03*
%TD*%
D20*
%TO.N,Net-(U8-INTVCC)*%
X202500000Y-127500000D02*
X202500000Y-139780002D01*
D21*
%TO.N,GND*%
X173500000Y-179000000D02*
X171000000Y-176500000D01*
X171000000Y-176500000D02*
X171000000Y-175250000D01*
%TO.N,/digital/NRST*%
X244393755Y-157306245D02*
X244393755Y-156484924D01*
X235800000Y-165900000D02*
X244393755Y-157306245D01*
X229500000Y-165900000D02*
X235800000Y-165900000D01*
X209500000Y-164500000D02*
X210100000Y-163900000D01*
X219250000Y-165900000D02*
X229500000Y-165900000D01*
X229500000Y-165900000D02*
X229500000Y-166562499D01*
X210100000Y-163900000D02*
X212600000Y-163900000D01*
D22*
%TO.N,+VSW*%
X202500000Y-143125000D02*
X202500000Y-167790001D01*
X202500000Y-167790001D02*
X201490001Y-168800000D01*
%TO.N,/digital/BB_LED_DRAIN*%
X246062913Y-155062913D02*
X255668136Y-164668136D01*
X135620000Y-135870000D02*
X135620000Y-144870000D01*
X146250000Y-155500000D02*
X155250000Y-155500000D01*
X284500000Y-147500000D02*
X284500000Y-136500000D01*
X133000000Y-133250000D02*
X135620000Y-135870000D01*
X263836272Y-156500000D02*
X275500000Y-156500000D01*
X181646001Y-181896001D02*
X247103999Y-181896001D01*
X275500000Y-156500000D02*
X284500000Y-147500000D01*
X245662913Y-150587087D02*
X246062913Y-150987087D01*
X253000000Y-176000000D02*
X253000000Y-167336272D01*
X287750000Y-133250000D02*
X291000000Y-133250000D01*
X129000000Y-133250000D02*
X133000000Y-133250000D01*
X155250000Y-155500000D02*
X181646001Y-181896001D01*
X246062913Y-150987087D02*
X246062913Y-155062913D01*
X253000000Y-167336272D02*
X255668136Y-164668136D01*
X135620000Y-144870000D02*
X146250000Y-155500000D01*
X255668136Y-164668136D02*
X263836272Y-156500000D01*
X247103999Y-181896001D02*
X253000000Y-176000000D01*
X284500000Y-136500000D02*
X287750000Y-133250000D01*
D21*
%TO.N,/digital/USR_BTN*%
X216000000Y-165900000D02*
X216000000Y-161500000D01*
X229669107Y-161500000D02*
X216000000Y-161500000D01*
X233787868Y-159881371D02*
X231287736Y-159881371D01*
X181009999Y-174500000D02*
X187509999Y-181000000D01*
X216700000Y-166600000D02*
X216000000Y-165900000D01*
X211401252Y-181000000D02*
X216700000Y-175701252D01*
X231287736Y-159881371D02*
X229669107Y-161500000D01*
X216000000Y-157500000D02*
X216000000Y-161500000D01*
X187509999Y-181000000D02*
X211401252Y-181000000D01*
X216000000Y-157500000D02*
X216500000Y-157000000D01*
X216700000Y-175701252D02*
X216700000Y-166600000D01*
%TO.N,/Breakbeam/BB_LEFT.AGPIO*%
X197700000Y-176400000D02*
X197150000Y-175850000D01*
X200900000Y-176400000D02*
X197700000Y-176400000D01*
X209000000Y-163900000D02*
X209000000Y-168300000D01*
X209000000Y-168300000D02*
X200900000Y-176400000D01*
%TO.N,Net-(R12-Pad1)*%
X239250001Y-175240001D02*
X240500000Y-176490000D01*
X239250001Y-170000000D02*
X239250001Y-175240001D01*
%TO.N,Net-(R13-Pad1)*%
X240250000Y-175240000D02*
X241500000Y-176490000D01*
X240250000Y-170000000D02*
X240250000Y-175240000D01*
%TO.N,Net-(R14-Pad1)*%
X241250000Y-175240000D02*
X242500000Y-176490000D01*
X241250000Y-170000000D02*
X241250000Y-175240000D01*
%TO.N,Net-(R15-Pad1)*%
X242250000Y-175240001D02*
X243500000Y-176490001D01*
X242250000Y-170000000D02*
X242250000Y-175240001D01*
%TO.N,/Breakbeam/BB_LEFT.INT*%
X219800000Y-151500000D02*
X215647200Y-155652800D01*
X215647200Y-169350922D02*
X213768522Y-171229600D01*
X190625000Y-177000000D02*
X189650000Y-177000000D01*
X208067270Y-171229600D02*
X201432070Y-177864800D01*
X215647200Y-155652800D02*
X215647200Y-169350922D01*
X191489800Y-177864800D02*
X190625000Y-177000000D01*
X201432070Y-177864800D02*
X191489800Y-177864800D01*
X213768522Y-171229600D02*
X208067270Y-171229600D01*
%TO.N,/Breakbeam/BB_LEFT.RST*%
X215082400Y-169116974D02*
X213534574Y-170664800D01*
X215082400Y-154316974D02*
X215082400Y-169116974D01*
X213534574Y-170664800D02*
X207833322Y-170664800D01*
X207833322Y-170664800D02*
X201198122Y-177300000D01*
X219800000Y-150500000D02*
X218899374Y-150500000D01*
X201198122Y-177300000D02*
X193600000Y-177300000D01*
X218899374Y-150500000D02*
X215082400Y-154316974D01*
X193600000Y-177300000D02*
X192150000Y-175850000D01*
%TO.N,/Breakbeam/BB_LEFT.~{DET}*%
X215364800Y-169233948D02*
X213651548Y-170947200D01*
X192632400Y-177582400D02*
X190900000Y-175850000D01*
X215364800Y-154835200D02*
X215364800Y-169233948D01*
X219200000Y-151000000D02*
X215364800Y-154835200D01*
X213651548Y-170947200D02*
X207950296Y-170947200D01*
X201315096Y-177582400D02*
X192632400Y-177582400D01*
X207950296Y-170947200D02*
X201315096Y-177582400D01*
%TO.N,/Breakbeam/BB_LEFT.SDA*%
X214517600Y-158217600D02*
X214517600Y-168883026D01*
X195517600Y-176717600D02*
X194650000Y-175850000D01*
X214300000Y-158000000D02*
X214517600Y-158217600D01*
X200981774Y-176717600D02*
X195517600Y-176717600D01*
X213300626Y-170100000D02*
X207599374Y-170100000D01*
X207599374Y-170100000D02*
X200981774Y-176717600D01*
X214517600Y-168883026D02*
X213300626Y-170100000D01*
%TO.N,/Breakbeam/BB_LEFT.SCL*%
X194425000Y-177000000D02*
X193400000Y-175975000D01*
X201098748Y-177000000D02*
X194425000Y-177000000D01*
X213417600Y-170382400D02*
X207716348Y-170382400D01*
X214800000Y-169000000D02*
X213417600Y-170382400D01*
X207716348Y-170382400D02*
X201098748Y-177000000D01*
X219000000Y-150000000D02*
X214800000Y-154200000D01*
X214800000Y-154200000D02*
X214800000Y-169000000D01*
%TO.N,/digital/LED_BB_BLUE*%
X230500000Y-160000000D02*
X238880424Y-151619576D01*
X243286921Y-151619576D02*
X243665336Y-151241161D01*
X238880424Y-151619576D02*
X243286921Y-151619576D01*
X222000000Y-160000000D02*
X230500000Y-160000000D01*
D23*
%TO.N,/Power Regulation/VSW_CEN*%
X192300000Y-147135000D02*
X192300000Y-146635000D01*
X192300000Y-146635000D02*
X190500000Y-144835000D01*
X190500000Y-144835000D02*
X190500000Y-143009999D01*
D21*
%TO.N,/digital/DIP3*%
X238030003Y-170200000D02*
X239250001Y-168980002D01*
X223100000Y-166600000D02*
X226700000Y-170200000D01*
X226700000Y-170200000D02*
X238030003Y-170200000D01*
X221300000Y-166600000D02*
X223100000Y-166600000D01*
%TO.N,/digital/CMD_{CHIP}*%
X211750000Y-141009999D02*
X215189999Y-141009999D01*
X215189999Y-141009999D02*
X217155000Y-142975000D01*
D23*
%TO.N,/digital/CMD_{CHG}*%
X211700000Y-95290000D02*
X210990000Y-96000000D01*
X211700000Y-81900000D02*
X211700000Y-95290000D01*
%TO.N,/hv_kicker/flyback_charger/HVGATE*%
X211100000Y-83100000D02*
X211100000Y-91820001D01*
X211100000Y-91820001D02*
X210900001Y-92020000D01*
%TO.N,/hv_kicker/flyback_charger/FB*%
X204700000Y-90310000D02*
X204000000Y-91010000D01*
X204700000Y-82600000D02*
X204700000Y-90310000D01*
X204000000Y-81900000D02*
X204700000Y-82600000D01*
D21*
%TO.N,/digital/USER_ADJ1*%
X213500000Y-154500000D02*
X204300000Y-154500000D01*
X219000000Y-149000000D02*
X213500000Y-154500000D01*
X220750000Y-149000000D02*
X219000000Y-149000000D01*
%TO.N,/digital/USER_ADJ2*%
X219000000Y-148500000D02*
X213500000Y-154000000D01*
X213500000Y-154000000D02*
X203700000Y-154000000D01*
%TO.N,/digital/DOTSTAR_SCK*%
X218117600Y-166896706D02*
X218117600Y-174683026D01*
X183981774Y-181282400D02*
X169500000Y-166800626D01*
X211518226Y-181282400D02*
X183981774Y-181282400D01*
X216600000Y-164100000D02*
X216600000Y-165379106D01*
X169500000Y-166800000D02*
X169000000Y-166300000D01*
X169500000Y-166800626D02*
X169500000Y-166800000D01*
X218117600Y-174683026D02*
X211518226Y-181282400D01*
X216600000Y-165379106D02*
X218117600Y-166896706D01*
X169000000Y-166300000D02*
X169000000Y-165000000D01*
X169000000Y-165000000D02*
X168232412Y-164232412D01*
%TO.N,/digital/DOTSTAR_MOSI*%
X168800000Y-166500000D02*
X183864800Y-181564800D01*
X183864800Y-181564800D02*
X211635200Y-181564800D01*
X218400000Y-174800000D02*
X218400000Y-166500000D01*
X218400000Y-166500000D02*
X217100000Y-165200000D01*
X167101041Y-165363782D02*
X168237259Y-166500000D01*
X211635200Y-181564800D02*
X218400000Y-174800000D01*
X168237259Y-166500000D02*
X168800000Y-166500000D01*
D20*
%TO.N,Net-(U8-INTVCC)*%
X216000000Y-85049999D02*
X213400001Y-82450000D01*
X216000000Y-114000000D02*
X216000000Y-85049999D01*
X202500000Y-127500000D02*
X216000000Y-114000000D01*
%TD*%
%TA.AperFunction,Conductor*%
%TO.N,/Power Regulation/V_{batt}*%
G36*
X175443039Y-140519685D02*
G01*
X175488794Y-140572489D01*
X175500000Y-140624000D01*
X175500000Y-165000000D01*
X180000000Y-169500000D01*
X187376000Y-169500000D01*
X187443039Y-169519685D01*
X187488794Y-169572489D01*
X187500000Y-169624000D01*
X187500000Y-173376000D01*
X187480315Y-173443039D01*
X187427511Y-173488794D01*
X187376000Y-173500000D01*
X178051362Y-173500000D01*
X177984323Y-173480315D01*
X177963681Y-173463681D01*
X171536319Y-167036319D01*
X171502834Y-166974996D01*
X171500000Y-166948638D01*
X171500000Y-140624000D01*
X171519685Y-140556961D01*
X171572489Y-140511206D01*
X171624000Y-140500000D01*
X175376000Y-140500000D01*
X175443039Y-140519685D01*
G37*
%TD.AperFunction*%
%TD*%
%TA.AperFunction,Conductor*%
%TO.N,+BATT*%
G36*
X192943039Y-81019685D02*
G01*
X192988794Y-81072489D01*
X193000000Y-81124000D01*
X193000000Y-97790567D01*
X192980315Y-97857606D01*
X192974959Y-97865287D01*
X192974944Y-97865306D01*
X192875775Y-98064461D01*
X192875769Y-98064476D01*
X192814885Y-98278462D01*
X192814884Y-98278464D01*
X192794357Y-98499999D01*
X192794357Y-98500000D01*
X192814884Y-98721535D01*
X192814885Y-98721537D01*
X192875769Y-98935523D01*
X192875775Y-98935538D01*
X192974938Y-99134683D01*
X192974943Y-99134691D01*
X192974954Y-99134705D01*
X192974956Y-99134712D01*
X192977959Y-99139561D01*
X192977010Y-99140148D01*
X192999646Y-99200066D01*
X193000000Y-99209432D01*
X193000000Y-99290567D01*
X192980315Y-99357606D01*
X192974959Y-99365287D01*
X192974944Y-99365306D01*
X192875775Y-99564461D01*
X192875769Y-99564476D01*
X192814885Y-99778462D01*
X192814884Y-99778464D01*
X192794357Y-99999999D01*
X192794357Y-100000000D01*
X192814884Y-100221535D01*
X192814885Y-100221538D01*
X192875768Y-100435523D01*
X192875771Y-100435529D01*
X192898729Y-100481635D01*
X192910990Y-100550421D01*
X192884117Y-100614916D01*
X192875410Y-100624588D01*
X191500000Y-101999999D01*
X191500000Y-140448638D01*
X191480315Y-140515677D01*
X191463681Y-140536319D01*
X190521818Y-141478182D01*
X190460495Y-141511667D01*
X190434137Y-141514501D01*
X190431632Y-141514501D01*
X190300440Y-141553022D01*
X190185413Y-141626943D01*
X190185409Y-141626947D01*
X190095872Y-141730279D01*
X190095869Y-141730284D01*
X190039069Y-141854657D01*
X190039068Y-141854662D01*
X190027096Y-141937926D01*
X189998070Y-142001482D01*
X189992039Y-142007959D01*
X189000000Y-142999999D01*
X189000000Y-147376000D01*
X188980315Y-147443039D01*
X188927511Y-147488794D01*
X188876000Y-147500000D01*
X184624000Y-147500000D01*
X184556961Y-147480315D01*
X184511206Y-147427511D01*
X184500000Y-147376000D01*
X184500000Y-102051362D01*
X184519685Y-101984323D01*
X184536319Y-101963681D01*
X186500000Y-100000000D01*
X186500000Y-81124000D01*
X186519685Y-81056961D01*
X186572489Y-81011206D01*
X186624000Y-81000000D01*
X192876000Y-81000000D01*
X192943039Y-81019685D01*
G37*
%TD.AperFunction*%
%TD*%
M02*
