M48
; DRILL file {KiCad 8.0.7} date 2025-04-17T21:37:31-0400
; FORMAT={-:-/ absolute / inch / decimal}
; #@! TF.CreationDate,2025-04-17T21:37:31-04:00
; #@! TF.GenerationSoftware,Kicad,Pcbnew,8.0.7
; #@! TF.FileFunction,Plated,1,6,PTH
FMAT,2
INCH
; #@! TA.AperFunction,Plated,PTH,ViaDrill
T1C0.0118
; #@! TA.AperFunction,Plated,PTH,ViaDrill
T2C0.0157
; #@! TA.AperFunction,Plated,PTH,ComponentDrill
T3C0.0433
; #@! TA.AperFunction,Plated,PTH,ComponentDrill
T4C0.0709
; #@! TA.AperFunction,Plated,PTH,ComponentDrill
T5C0.0787
; #@! TA.AperFunction,Plated,PTH,ComponentDrill
T6C0.1063
; #@! TA.AperFunction,Plated,PTH,ComponentDrill
T7C0.1260
%
G90
G05
T1
X5.0787Y-5.2461
X5.3543Y-5.2366
X6.4513Y-6.2048
X6.5788Y-6.5104
X6.6079Y-6.2338
X6.6233Y-6.4658
X6.6679Y-6.4213
X7.1063Y-6.063
X7.1063Y-6.1024
X7.1252Y-6.9488
X7.1264Y-6.8701
X7.1264Y-6.9094
X7.1457Y-6.063
X7.1457Y-6.1024
X7.185Y-6.063
X7.185Y-6.1024
X7.2244Y-6.063
X7.2244Y-6.1024
X7.2638Y-6.063
X7.2638Y-6.1024
X7.3031Y-6.063
X7.3031Y-6.1024
X7.4567Y-6.3386
X7.4665Y-6.9685
X7.4803Y-7.0177
X7.5Y-5.5902
X7.5Y-5.6303
X7.5Y-5.7476
X7.5Y-5.889
X7.501Y-6.2559
X7.5157Y-6.9232
X7.5197Y-6.3622
X7.5551Y-6.6398
X7.565Y-6.9232
X7.5709Y-5.7427
X7.5709Y-5.7927
X7.5984Y-5.9606
X7.5988Y-5.6299
X7.6142Y-6.9232
X7.6152Y-6.8067
X7.6339Y-6.6398
X7.6378Y-3.878
X7.6378Y-3.937
X7.6457Y-5.7362
X7.6457Y-5.7677
X7.6457Y-5.7992
X7.6624Y-6.8067
X7.6634Y-6.9232
X7.6772Y-5.7362
X7.6772Y-5.7677
X7.6772Y-5.7992
X7.6969Y-3.878
X7.6969Y-3.937
X7.7087Y-5.7362
X7.7087Y-5.7677
X7.7087Y-5.7992
X7.7126Y-6.4528
X7.7126Y-6.9232
X7.7559Y-6.2008
X7.7559Y-6.2843
X7.7559Y-6.3228
X7.7618Y-6.9232
X7.811Y-6.9232
X7.8343Y-6.2874
X7.8472Y-6.0984
X7.8472Y-6.1417
X7.8543Y-5.8937
X7.8551Y-5.9449
X7.8701Y-6.3307
X7.874Y-5.6898
X7.874Y-5.8173
X7.885Y-6.0984
X7.885Y-6.1417
X7.8937Y-5.8937
X7.9134Y-6.3821
X7.9327Y-6.5512
X7.9327Y-6.5984
X7.9327Y-6.6457
X7.9724Y-5.5031
X7.9724Y-5.6348
X7.9734Y-7.0492
X7.9921Y-3.7598
X7.9961Y-3.1898
X7.9961Y-3.3075
X8.0157Y-6.1614
X8.0197Y-5.8937
X8.0197Y-5.9449
X8.0197Y-6.063
X8.0197Y-6.2992
X8.0197Y-6.3386
X8.0315Y-3.2244
X8.0315Y-3.5429
X8.0315Y-3.5831
X8.0315Y-3.7598
X8.0433Y-5.9252
X8.0433Y-6.0827
X8.0463Y-6.9232
X8.0472Y-7.024
X8.0472Y-3.111
X8.0516Y-6.5984
X8.0516Y-6.6457
X8.0516Y-6.6929
X8.0551Y-6.2795
X8.0591Y-6.4685
X8.0591Y-6.5071
X8.063Y-5.9646
X8.0709Y-6.3543
X8.0906Y-5.4921
X8.0906Y-5.5689
X8.0906Y-6.6437
X8.0906Y-6.6732
X8.0945Y-5.9449
X8.0945Y-7.024
X8.0955Y-6.9232
X8.126Y-3.1488
X8.1289Y-6.2321
X8.1289Y-6.3321
X8.1447Y-6.9232
X8.1457Y-3.2244
X8.1457Y-3.2717
X8.1457Y-7.024
X8.1496Y-5.8465
X8.1496Y-6.6142
X8.1496Y-6.6437
X8.1496Y-6.6732
X8.1614Y-6.4606
X8.1654Y-3.248
X8.1693Y-5.8701
X8.185Y-3.2244
X8.185Y-3.2717
X8.187Y-3.1299
X8.189Y-5.8465
X8.1939Y-6.9232
X8.1969Y-7.024
X8.2087Y-5.6894
X8.2087Y-6.3071
X8.2087Y-6.3425
X8.2087Y-6.5776
X8.2283Y-6.4528
X8.2382Y-5.3146
X8.2382Y-5.4433
X8.2394Y-6.2323
X8.2431Y-6.9232
X8.2441Y-7.024
X8.248Y-6.4764
X8.2677Y-5.5236
X8.2677Y-6.6772
X8.2677Y-6.7717
X8.2756Y-5.8465
X8.2874Y-5.6996
X8.2874Y-5.7374
X8.2923Y-6.9232
X8.2953Y-7.024
X8.3031Y-3.6228
X8.3031Y-3.7012
X8.3067Y-3.7795
X8.3071Y-5.8465
X8.3071Y-6.2134
X8.3071Y-6.3189
X8.311Y-3.2717
X8.3228Y-3.1504
X8.3268Y-5.8701
X8.3268Y-6.7717
X8.3268Y-6.6772
X8.3346Y-3.2244
X8.3366Y-5.5114
X8.3366Y-5.5516
X8.3366Y-5.5902
X8.3366Y-5.6303
X8.3415Y-6.9232
X8.3469Y-3.7795
X8.3701Y-6.4528
X8.3907Y-6.9232
X8.4016Y-3.1713
X8.4016Y-3.2461
X8.4055Y-6.3189
X8.4055Y-5.8465
X8.4055Y-6.2134
X8.4055Y-6.4528
X8.4173Y-6.5677
X8.4252Y-5.6984
X8.4252Y-5.8701
X8.4252Y-5.9213
X8.437Y-6.2205
X8.44Y-6.9232
X8.4567Y-5.9291
X8.4606Y-6.7398
X8.4606Y-6.7799
X8.4843Y-5.5118
X8.4892Y-6.9232
X8.4921Y-5.8504
X8.5039Y-5.6984
X8.5039Y-5.7362
X8.5039Y-6.7394
X8.5039Y-6.7795
X8.5236Y-6.1811
X8.5236Y-6.3189
X8.5276Y-6.4606
X8.5433Y-5.6984
X8.5433Y-5.7362
X8.5472Y-6.5039
X8.5494Y-5.6289
X8.562Y-7.0492
X8.563Y-6.6142
X8.563Y-6.6437
X8.563Y-6.6732
X8.6083Y-5.5504
X8.622Y-5.8465
X8.622Y-5.9055
X8.622Y-6.6142
X8.622Y-6.6437
X8.622Y-6.6732
X8.6299Y-5.9449
X8.6319Y-6.5315
X8.6346Y-6.3386
X8.6535Y-5.9252
X8.6535Y-5.9646
X8.6614Y-5.5516
X8.6724Y-6.3386
X8.6811Y-6.161
X8.6811Y-6.2402
X8.6811Y-6.6142
X8.6811Y-6.6437
X8.6811Y-6.6732
X8.6909Y-5.8661
X8.6909Y-5.8957
X8.7106Y-5.9449
X8.7126Y-6.5591
X8.7165Y-6.2008
X8.7165Y-6.2795
X8.7254Y-6.9803
X8.7402Y-3.8976
X8.7402Y-3.937
X8.7402Y-6.2598
X8.7402Y-6.2992
X8.7402Y-6.6142
X8.7402Y-6.6437
X8.7402Y-6.6732
X8.7697Y-5.2756
X8.7726Y-6.9803
X8.7795Y-3.8583
X8.7795Y-3.8976
X8.7795Y-3.937
X8.8189Y-3.8583
X8.8189Y-3.8976
X8.8189Y-3.937
X8.8238Y-6.9803
X8.8583Y-3.8583
X8.8583Y-3.8976
X8.8583Y-3.937
X8.875Y-6.9803
X8.8976Y-3.8583
X8.8976Y-3.8976
X8.8976Y-3.937
X8.9222Y-6.9803
X8.937Y-3.8583
X8.937Y-3.8976
X8.937Y-3.937
X8.937Y-6.5846
X8.9724Y-6.9232
X8.9764Y-3.8583
X8.9764Y-3.8976
X8.9764Y-3.937
X8.9957Y-6.378
X9.0157Y-3.8976
X9.0157Y-3.937
X9.0354Y-6.5576
X9.0709Y-6.9232
X9.0728Y-6.6314
X9.1299Y-6.8681
X9.1693Y-6.8248
X9.1693Y-6.8701
X9.185Y-6.502
X9.185Y-7.0906
X9.2042Y-6.2945
X9.2122Y-6.8209
X9.2122Y-6.5768
X9.2122Y-6.7717
X9.2981Y-6.1645
X9.315Y-6.5748
X9.315Y-6.624
X9.315Y-6.6732
X9.315Y-6.7717
X9.315Y-6.8209
X9.3697Y-6.1024
X9.3799Y-6.8701
X9.3799Y-6.9193
X9.4193Y-6.6528
X9.4193Y-6.6929
X9.4587Y-6.6528
X9.4587Y-6.6929
X9.4685Y-6.9484
X9.4685Y-6.9886
X9.4878Y-6.4206
X9.4937Y-5.9504
X9.498Y-6.6528
X9.498Y-6.6929
X9.5079Y-6.9484
X9.5079Y-6.9886
X9.5232Y-6.3852
X9.5374Y-6.6528
X9.5374Y-6.6929
X9.5472Y-6.9484
X9.5472Y-6.9886
X9.5585Y-6.3499
X9.5866Y-6.9484
X9.5866Y-6.9886
X9.5931Y-5.9544
X9.6063Y-6.624
X9.6138Y-6.736
X9.6218Y-6.1608
X9.6293Y-6.2792
X9.646Y-6.0073
X9.6718Y-5.9286
X9.685Y-6.624
X9.7053Y-6.2443
X9.7638Y-6.624
X9.8008Y-6.3202
X9.8222Y-5.9604
X9.8425Y-6.624
X9.9058Y-6.0439
X9.9138Y-6.736
X9.9138Y-6.786
X9.9138Y-6.836
X9.9138Y-6.886
X9.9423Y-6.1788
X9.9977Y-6.1234
X10.1391Y-5.9819
X11.1811Y-5.2366
X11.4567Y-5.2461
T2
X6.6831Y-6.8504
X6.7323Y-6.8996
X6.7815Y-6.9488
X6.8307Y-6.998
X6.8307Y-7.0472
X7.4311Y-3.2185
X7.4311Y-3.2677
X7.4311Y-3.3169
X7.4311Y-3.3661
X7.4311Y-3.4154
X7.4311Y-3.4646
X7.4311Y-3.5138
X7.4803Y-3.2185
X7.4803Y-3.2677
X7.4803Y-3.3169
X7.4803Y-3.3661
X7.4803Y-3.4154
X7.4803Y-3.4646
X7.4803Y-3.5138
X7.5295Y-3.2185
X7.5295Y-3.2677
X7.5295Y-3.3169
X7.5295Y-3.3661
X7.5295Y-3.4154
X7.5295Y-3.4646
X7.5295Y-3.5138
X7.5787Y-3.2185
X7.5787Y-3.2677
X7.5787Y-3.3169
X7.5787Y-3.3661
X7.5787Y-3.4154
X7.5787Y-3.4646
X7.5787Y-3.5138
X7.6319Y-2.8839
X7.6319Y-2.9331
X7.6811Y-2.8839
X7.6811Y-2.9331
X7.7264Y-2.8839
X7.7264Y-2.9331
X7.7461Y-3.2185
X7.7461Y-3.2677
X7.7461Y-3.3169
X7.7461Y-3.3661
X7.7461Y-3.4154
X7.7461Y-3.4646
X7.7461Y-3.5138
X7.7461Y-3.563
X7.7461Y-3.6122
X7.7461Y-3.6614
X7.7461Y-3.7106
X7.7756Y-2.8839
X7.7756Y-2.9331
X7.7953Y-3.2185
X7.7953Y-3.2677
X7.7953Y-3.3169
X7.7953Y-3.3661
X7.7953Y-3.4154
X7.7953Y-3.4646
X7.7953Y-3.5138
X7.7953Y-3.563
X7.7953Y-3.6122
X7.7953Y-3.6614
X7.7953Y-3.7106
X7.8248Y-2.8839
X7.8248Y-2.9331
X7.8445Y-3.2185
X7.8445Y-3.2677
X7.8445Y-3.3169
X7.8445Y-3.3661
X7.8445Y-3.4154
X7.8445Y-3.4646
X7.8445Y-3.5138
X7.8445Y-3.563
X7.8445Y-3.6122
X7.8445Y-3.6614
X7.8445Y-3.7106
X7.874Y-2.8839
X7.874Y-2.9331
X7.8937Y-3.2185
X7.8937Y-3.2677
X7.8937Y-3.3169
X7.8937Y-3.3661
X7.8937Y-3.4154
X7.8937Y-3.4646
X7.8937Y-3.5138
X7.8937Y-3.563
X7.8937Y-3.6122
X7.8937Y-3.6614
X7.8937Y-3.7106
X8.9665Y-3.002
X8.9665Y-3.0512
X8.9665Y-3.1004
X8.9665Y-3.1496
X8.9665Y-3.1988
X8.9665Y-3.248
X8.9665Y-3.2972
X8.9665Y-3.3465
X8.9665Y-3.3957
X8.9665Y-3.4449
X8.9665Y-3.4941
X9.0157Y-3.0512
X9.0157Y-3.1004
X9.0157Y-3.1496
X9.0157Y-3.1988
X9.0157Y-3.248
X9.0157Y-3.2972
X9.0157Y-3.3465
X9.0157Y-3.3957
X9.0157Y-3.4449
X9.0157Y-3.4941
X9.065Y-3.1004
X9.065Y-3.1496
X9.065Y-3.1988
X9.065Y-3.248
X9.065Y-3.2972
X9.065Y-3.3465
X9.065Y-3.3957
X9.065Y-3.4449
X9.065Y-3.4941
X9.1142Y-3.1496
X9.1142Y-3.1988
X9.1142Y-3.248
X9.1142Y-3.2972
X9.1142Y-3.3465
X9.1142Y-3.3957
X9.1142Y-3.4449
X9.1142Y-3.4941
T3
X9.1142Y-5.6693
X9.2323Y-5.6693
X9.4685Y-5.6693
X9.5866Y-5.6693
T4
X6.8215Y-5.6024
X6.8215Y-5.7362
X7.3518Y-5.6024
X7.3518Y-5.7362
T5
X5.8465Y-5.3543
X5.8465Y-5.748
X10.689Y-5.3543
X10.689Y-5.748
T6
X7.3031Y-6.5551
X7.3031Y-6.752
T7
X5.0787Y-5.4331
X8.2677Y-2.7165
X11.4567Y-5.4331
M30
