%TF.GenerationSoftware,KiCad,Pcbnew,8.0.7*%
%TF.CreationDate,2025-04-17T21:37:31-04:00*%
%TF.ProjectId,kicker,6b69636b-6572-42e6-9b69-6361645f7063,v4*%
%TF.SameCoordinates,Original*%
%TF.FileFunction,Legend,Bot*%
%TF.FilePolarity,Positive*%
%FSLAX46Y46*%
G04 Gerber Fmt 4.6, Leading zero omitted, Abs format (unit mm)*
G04 Created by KiCad (PCBNEW 8.0.7) date 2025-04-17 21:37:31*
%MOMM*%
%LPD*%
G01*
G04 APERTURE LIST*
G04 Aperture macros list*
%AMRoundRect*
0 Rectangle with rounded corners*
0 $1 Rounding radius*
0 $2 $3 $4 $5 $6 $7 $8 $9 X,Y pos of 4 corners*
0 Add a 4 corners polygon primitive as box body*
4,1,4,$2,$3,$4,$5,$6,$7,$8,$9,$2,$3,0*
0 Add four circle primitives for the rounded corners*
1,1,$1+$1,$2,$3*
1,1,$1+$1,$4,$5*
1,1,$1+$1,$6,$7*
1,1,$1+$1,$8,$9*
0 Add four rect primitives between the rounded corners*
20,1,$1+$1,$2,$3,$4,$5,0*
20,1,$1+$1,$4,$5,$6,$7,0*
20,1,$1+$1,$6,$7,$8,$9,0*
20,1,$1+$1,$8,$9,$2,$3,0*%
%AMOutline5P*
0 Free polygon, 5 corners , with rotation*
0 The origin of the aperture is its center*
0 number of corners: always 5*
0 $1 to $10 corner X, Y*
0 $11 Rotation angle, in degrees counterclockwise*
0 create outline with 5 corners*
4,1,5,$1,$2,$3,$4,$5,$6,$7,$8,$9,$10,$1,$2,$11*%
%AMOutline6P*
0 Free polygon, 6 corners , with rotation*
0 The origin of the aperture is its center*
0 number of corners: always 6*
0 $1 to $12 corner X, Y*
0 $13 Rotation angle, in degrees counterclockwise*
0 create outline with 6 corners*
4,1,6,$1,$2,$3,$4,$5,$6,$7,$8,$9,$10,$11,$12,$1,$2,$13*%
%AMOutline7P*
0 Free polygon, 7 corners , with rotation*
0 The origin of the aperture is its center*
0 number of corners: always 7*
0 $1 to $14 corner X, Y*
0 $15 Rotation angle, in degrees counterclockwise*
0 create outline with 7 corners*
4,1,7,$1,$2,$3,$4,$5,$6,$7,$8,$9,$10,$11,$12,$13,$14,$1,$2,$15*%
%AMOutline8P*
0 Free polygon, 8 corners , with rotation*
0 The origin of the aperture is its center*
0 number of corners: always 8*
0 $1 to $16 corner X, Y*
0 $17 Rotation angle, in degrees counterclockwise*
0 create outline with 8 corners*
4,1,8,$1,$2,$3,$4,$5,$6,$7,$8,$9,$10,$11,$12,$13,$14,$15,$16,$1,$2,$17*%
G04 Aperture macros list end*
%ADD10C,0.150000*%
%ADD11C,0.600000*%
%ADD12C,0.500000*%
%ADD13C,0.120000*%
%ADD14C,0.575000*%
%ADD15RoundRect,0.760000X-1.140000X1.140000X-1.140000X-1.140000X1.140000X-1.140000X1.140000X1.140000X0*%
%ADD16C,3.800000*%
%ADD17C,6.400000*%
%ADD18O,2.000000X1.000000*%
%ADD19C,1.000000*%
%ADD20R,6.000000X3.000000*%
%ADD21RoundRect,0.250000X0.250000X0.475000X-0.250000X0.475000X-0.250000X-0.475000X0.250000X-0.475000X0*%
%ADD22R,4.000000X4.000000*%
%ADD23C,4.000000*%
%ADD24RoundRect,0.135000X-0.185000X0.135000X-0.185000X-0.135000X0.185000X-0.135000X0.185000X0.135000X0*%
%ADD25RoundRect,0.135000X-0.135000X-0.185000X0.135000X-0.185000X0.135000X0.185000X-0.135000X0.185000X0*%
%ADD26RoundRect,0.140000X0.140000X0.170000X-0.140000X0.170000X-0.140000X-0.170000X0.140000X-0.170000X0*%
%ADD27RoundRect,0.075000X0.075000X-0.725000X0.075000X0.725000X-0.075000X0.725000X-0.075000X-0.725000X0*%
%ADD28RoundRect,0.075000X0.725000X-0.075000X0.725000X0.075000X-0.725000X0.075000X-0.725000X-0.075000X0*%
%ADD29RoundRect,0.135000X0.135000X0.185000X-0.135000X0.185000X-0.135000X-0.185000X0.135000X-0.185000X0*%
%ADD30R,2.750000X2.000000*%
%ADD31RoundRect,0.150000X0.150000X0.700000X-0.150000X0.700000X-0.150000X-0.700000X0.150000X-0.700000X0*%
%ADD32RoundRect,0.250000X0.250000X1.100000X-0.250000X1.100000X-0.250000X-1.100000X0.250000X-1.100000X0*%
%ADD33C,3.200000*%
%ADD34RoundRect,0.140000X0.170000X-0.140000X0.170000X0.140000X-0.170000X0.140000X-0.170000X-0.140000X0*%
%ADD35RoundRect,0.135000X0.185000X-0.135000X0.185000X0.135000X-0.185000X0.135000X-0.185000X-0.135000X0*%
%ADD36RoundRect,0.250000X-0.300000X2.050000X-0.300000X-2.050000X0.300000X-2.050000X0.300000X2.050000X0*%
%ADD37RoundRect,0.250002X-5.149998X4.449998X-5.149998X-4.449998X5.149998X-4.449998X5.149998X4.449998X0*%
%ADD38R,1.400000X1.200000*%
%ADD39RoundRect,0.140000X-0.140000X-0.170000X0.140000X-0.170000X0.140000X0.170000X-0.140000X0.170000X0*%
%ADD40C,1.020000*%
%ADD41Outline8P,-0.800000X0.400000X-0.400000X0.800000X0.400000X0.800000X0.800000X0.400000X0.800000X-0.400000X0.400000X-0.800000X-0.400000X-0.800000X-0.800000X-0.400000X0.000000*%
%ADD42C,1.600000*%
%ADD43RoundRect,0.140000X-0.170000X0.140000X-0.170000X-0.140000X0.170000X-0.140000X0.170000X0.140000X0*%
%ADD44RoundRect,0.250000X-2.050000X-0.300000X2.050000X-0.300000X2.050000X0.300000X-2.050000X0.300000X0*%
%ADD45RoundRect,0.250002X-4.449998X-5.149998X4.449998X-5.149998X4.449998X5.149998X-4.449998X5.149998X0*%
G04 APERTURE END LIST*
D10*
X248500000Y-184500000D02*
X246000000Y-184500000D01*
X262000000Y-157000000D01*
X264500000Y-157000000D01*
X248500000Y-184500000D01*
G36*
X248500000Y-184500000D02*
G01*
X246000000Y-184500000D01*
X262000000Y-157000000D01*
X264500000Y-157000000D01*
X248500000Y-184500000D01*
G37*
X260000000Y-125500000D02*
X256500000Y-125500000D01*
X230000000Y-99000000D01*
X233500000Y-99000000D01*
X260000000Y-125500000D01*
G36*
X260000000Y-125500000D02*
G01*
X256500000Y-125500000D01*
X230000000Y-99000000D01*
X233500000Y-99000000D01*
X260000000Y-125500000D01*
G37*
X163500000Y-125500000D02*
X160000000Y-125500000D01*
X186500000Y-99000000D01*
X190000000Y-99000000D01*
X163500000Y-125500000D01*
G36*
X163500000Y-125500000D02*
G01*
X160000000Y-125500000D01*
X186500000Y-99000000D01*
X190000000Y-99000000D01*
X163500000Y-125500000D01*
G37*
X171500000Y-181500000D02*
X248500000Y-181500000D01*
X248500000Y-184500000D01*
X171500000Y-184500000D01*
X171500000Y-181500000D01*
G36*
X171500000Y-181500000D02*
G01*
X248500000Y-181500000D01*
X248500000Y-184500000D01*
X171500000Y-184500000D01*
X171500000Y-181500000D01*
G37*
X218000000Y-105500000D02*
X233000000Y-105500000D01*
X233000000Y-123500000D01*
X218000000Y-123500000D01*
X218000000Y-105500000D01*
G36*
X218000000Y-105500000D02*
G01*
X233000000Y-105500000D01*
X233000000Y-123500000D01*
X218000000Y-123500000D01*
X218000000Y-105500000D01*
G37*
X174000000Y-184500000D02*
X171500000Y-184500000D01*
X155500000Y-157000000D01*
X158000000Y-157000000D01*
X174000000Y-184500000D01*
G36*
X174000000Y-184500000D02*
G01*
X171500000Y-184500000D01*
X155500000Y-157000000D01*
X158000000Y-157000000D01*
X174000000Y-184500000D01*
G37*
X172610588Y-174800057D02*
X172562969Y-174752438D01*
X172562969Y-174752438D02*
X172467731Y-174704819D01*
X172467731Y-174704819D02*
X172229636Y-174704819D01*
X172229636Y-174704819D02*
X172134398Y-174752438D01*
X172134398Y-174752438D02*
X172086779Y-174800057D01*
X172086779Y-174800057D02*
X172039160Y-174895295D01*
X172039160Y-174895295D02*
X172039160Y-174990533D01*
X172039160Y-174990533D02*
X172086779Y-175133390D01*
X172086779Y-175133390D02*
X172658207Y-175704819D01*
X172658207Y-175704819D02*
X172039160Y-175704819D01*
D11*
X216071428Y-115271825D02*
X214357143Y-115271825D01*
X215214285Y-118271825D02*
X215214285Y-115271825D01*
X213357143Y-118271825D02*
X213357143Y-115271825D01*
X212071429Y-118271825D02*
X212071429Y-116700396D01*
X212071429Y-116700396D02*
X212214286Y-116414682D01*
X212214286Y-116414682D02*
X212500000Y-116271825D01*
X212500000Y-116271825D02*
X212928571Y-116271825D01*
X212928571Y-116271825D02*
X213214286Y-116414682D01*
X213214286Y-116414682D02*
X213357143Y-116557539D01*
X209500000Y-118128968D02*
X209785714Y-118271825D01*
X209785714Y-118271825D02*
X210357143Y-118271825D01*
X210357143Y-118271825D02*
X210642857Y-118128968D01*
X210642857Y-118128968D02*
X210785714Y-117843253D01*
X210785714Y-117843253D02*
X210785714Y-116700396D01*
X210785714Y-116700396D02*
X210642857Y-116414682D01*
X210642857Y-116414682D02*
X210357143Y-116271825D01*
X210357143Y-116271825D02*
X209785714Y-116271825D01*
X209785714Y-116271825D02*
X209500000Y-116414682D01*
X209500000Y-116414682D02*
X209357143Y-116700396D01*
X209357143Y-116700396D02*
X209357143Y-116986110D01*
X209357143Y-116986110D02*
X210785714Y-117271825D01*
X205928571Y-117414682D02*
X204500000Y-117414682D01*
X206214285Y-118271825D02*
X205214285Y-115271825D01*
X205214285Y-115271825D02*
X204214285Y-118271825D01*
X203214285Y-117128968D02*
X200928571Y-117128968D01*
X199928570Y-115271825D02*
X198214285Y-115271825D01*
X199071427Y-118271825D02*
X199071427Y-115271825D01*
X196071428Y-118128968D02*
X196357142Y-118271825D01*
X196357142Y-118271825D02*
X196928571Y-118271825D01*
X196928571Y-118271825D02*
X197214285Y-118128968D01*
X197214285Y-118128968D02*
X197357142Y-117843253D01*
X197357142Y-117843253D02*
X197357142Y-116700396D01*
X197357142Y-116700396D02*
X197214285Y-116414682D01*
X197214285Y-116414682D02*
X196928571Y-116271825D01*
X196928571Y-116271825D02*
X196357142Y-116271825D01*
X196357142Y-116271825D02*
X196071428Y-116414682D01*
X196071428Y-116414682D02*
X195928571Y-116700396D01*
X195928571Y-116700396D02*
X195928571Y-116986110D01*
X195928571Y-116986110D02*
X197357142Y-117271825D01*
X193357142Y-118271825D02*
X193357142Y-116700396D01*
X193357142Y-116700396D02*
X193499999Y-116414682D01*
X193499999Y-116414682D02*
X193785713Y-116271825D01*
X193785713Y-116271825D02*
X194357142Y-116271825D01*
X194357142Y-116271825D02*
X194642856Y-116414682D01*
X193357142Y-118128968D02*
X193642856Y-118271825D01*
X193642856Y-118271825D02*
X194357142Y-118271825D01*
X194357142Y-118271825D02*
X194642856Y-118128968D01*
X194642856Y-118128968D02*
X194785713Y-117843253D01*
X194785713Y-117843253D02*
X194785713Y-117557539D01*
X194785713Y-117557539D02*
X194642856Y-117271825D01*
X194642856Y-117271825D02*
X194357142Y-117128968D01*
X194357142Y-117128968D02*
X193642856Y-117128968D01*
X193642856Y-117128968D02*
X193357142Y-116986110D01*
X191928570Y-118271825D02*
X191928570Y-116271825D01*
X191928570Y-116557539D02*
X191785713Y-116414682D01*
X191785713Y-116414682D02*
X191499998Y-116271825D01*
X191499998Y-116271825D02*
X191071427Y-116271825D01*
X191071427Y-116271825D02*
X190785713Y-116414682D01*
X190785713Y-116414682D02*
X190642856Y-116700396D01*
X190642856Y-116700396D02*
X190642856Y-118271825D01*
X190642856Y-116700396D02*
X190499998Y-116414682D01*
X190499998Y-116414682D02*
X190214284Y-116271825D01*
X190214284Y-116271825D02*
X189785713Y-116271825D01*
X189785713Y-116271825D02*
X189499998Y-116414682D01*
X189499998Y-116414682D02*
X189357141Y-116700396D01*
X189357141Y-116700396D02*
X189357141Y-118271825D01*
X214571428Y-123101657D02*
X214571428Y-120101657D01*
X212857142Y-123101657D02*
X214142856Y-121387371D01*
X212857142Y-120101657D02*
X214571428Y-121815942D01*
X211571428Y-123101657D02*
X211571428Y-121101657D01*
X211571428Y-120101657D02*
X211714285Y-120244514D01*
X211714285Y-120244514D02*
X211571428Y-120387371D01*
X211571428Y-120387371D02*
X211428571Y-120244514D01*
X211428571Y-120244514D02*
X211571428Y-120101657D01*
X211571428Y-120101657D02*
X211571428Y-120387371D01*
X208857143Y-122958800D02*
X209142857Y-123101657D01*
X209142857Y-123101657D02*
X209714285Y-123101657D01*
X209714285Y-123101657D02*
X210000000Y-122958800D01*
X210000000Y-122958800D02*
X210142857Y-122815942D01*
X210142857Y-122815942D02*
X210285714Y-122530228D01*
X210285714Y-122530228D02*
X210285714Y-121673085D01*
X210285714Y-121673085D02*
X210142857Y-121387371D01*
X210142857Y-121387371D02*
X210000000Y-121244514D01*
X210000000Y-121244514D02*
X209714285Y-121101657D01*
X209714285Y-121101657D02*
X209142857Y-121101657D01*
X209142857Y-121101657D02*
X208857143Y-121244514D01*
X207571428Y-123101657D02*
X207571428Y-120101657D01*
X207285714Y-121958800D02*
X206428571Y-123101657D01*
X206428571Y-121101657D02*
X207571428Y-122244514D01*
X204000000Y-122958800D02*
X204285714Y-123101657D01*
X204285714Y-123101657D02*
X204857143Y-123101657D01*
X204857143Y-123101657D02*
X205142857Y-122958800D01*
X205142857Y-122958800D02*
X205285714Y-122673085D01*
X205285714Y-122673085D02*
X205285714Y-121530228D01*
X205285714Y-121530228D02*
X205142857Y-121244514D01*
X205142857Y-121244514D02*
X204857143Y-121101657D01*
X204857143Y-121101657D02*
X204285714Y-121101657D01*
X204285714Y-121101657D02*
X204000000Y-121244514D01*
X204000000Y-121244514D02*
X203857143Y-121530228D01*
X203857143Y-121530228D02*
X203857143Y-121815942D01*
X203857143Y-121815942D02*
X205285714Y-122101657D01*
X202571428Y-123101657D02*
X202571428Y-121101657D01*
X202571428Y-121673085D02*
X202428571Y-121387371D01*
X202428571Y-121387371D02*
X202285714Y-121244514D01*
X202285714Y-121244514D02*
X201999999Y-121101657D01*
X201999999Y-121101657D02*
X201714285Y-121101657D01*
X198714285Y-121101657D02*
X197999999Y-123101657D01*
X197999999Y-123101657D02*
X197285714Y-121101657D01*
X194857143Y-121101657D02*
X194857143Y-123101657D01*
X195571428Y-119958800D02*
X196285714Y-122101657D01*
X196285714Y-122101657D02*
X194428571Y-122101657D01*
X193285714Y-122815942D02*
X193142857Y-122958800D01*
X193142857Y-122958800D02*
X193285714Y-123101657D01*
X193285714Y-123101657D02*
X193428571Y-122958800D01*
X193428571Y-122958800D02*
X193285714Y-122815942D01*
X193285714Y-122815942D02*
X193285714Y-123101657D01*
X191285714Y-120101657D02*
X191000000Y-120101657D01*
X191000000Y-120101657D02*
X190714286Y-120244514D01*
X190714286Y-120244514D02*
X190571429Y-120387371D01*
X190571429Y-120387371D02*
X190428571Y-120673085D01*
X190428571Y-120673085D02*
X190285714Y-121244514D01*
X190285714Y-121244514D02*
X190285714Y-121958800D01*
X190285714Y-121958800D02*
X190428571Y-122530228D01*
X190428571Y-122530228D02*
X190571429Y-122815942D01*
X190571429Y-122815942D02*
X190714286Y-122958800D01*
X190714286Y-122958800D02*
X191000000Y-123101657D01*
X191000000Y-123101657D02*
X191285714Y-123101657D01*
X191285714Y-123101657D02*
X191571429Y-122958800D01*
X191571429Y-122958800D02*
X191714286Y-122815942D01*
X191714286Y-122815942D02*
X191857143Y-122530228D01*
X191857143Y-122530228D02*
X192000000Y-121958800D01*
X192000000Y-121958800D02*
X192000000Y-121244514D01*
X192000000Y-121244514D02*
X191857143Y-120673085D01*
X191857143Y-120673085D02*
X191714286Y-120387371D01*
X191714286Y-120387371D02*
X191571429Y-120244514D01*
X191571429Y-120244514D02*
X191285714Y-120101657D01*
X247071428Y-147815942D02*
X247214285Y-147958800D01*
X247214285Y-147958800D02*
X247642857Y-148101657D01*
X247642857Y-148101657D02*
X247928571Y-148101657D01*
X247928571Y-148101657D02*
X248357142Y-147958800D01*
X248357142Y-147958800D02*
X248642857Y-147673085D01*
X248642857Y-147673085D02*
X248785714Y-147387371D01*
X248785714Y-147387371D02*
X248928571Y-146815942D01*
X248928571Y-146815942D02*
X248928571Y-146387371D01*
X248928571Y-146387371D02*
X248785714Y-145815942D01*
X248785714Y-145815942D02*
X248642857Y-145530228D01*
X248642857Y-145530228D02*
X248357142Y-145244514D01*
X248357142Y-145244514D02*
X247928571Y-145101657D01*
X247928571Y-145101657D02*
X247642857Y-145101657D01*
X247642857Y-145101657D02*
X247214285Y-145244514D01*
X247214285Y-145244514D02*
X247071428Y-145387371D01*
D10*
X173908207Y-175954819D02*
X173289160Y-175954819D01*
X173289160Y-175954819D02*
X173622493Y-176335771D01*
X173622493Y-176335771D02*
X173479636Y-176335771D01*
X173479636Y-176335771D02*
X173384398Y-176383390D01*
X173384398Y-176383390D02*
X173336779Y-176431009D01*
X173336779Y-176431009D02*
X173289160Y-176526247D01*
X173289160Y-176526247D02*
X173289160Y-176764342D01*
X173289160Y-176764342D02*
X173336779Y-176859580D01*
X173336779Y-176859580D02*
X173384398Y-176907200D01*
X173384398Y-176907200D02*
X173479636Y-176954819D01*
X173479636Y-176954819D02*
X173765350Y-176954819D01*
X173765350Y-176954819D02*
X173860588Y-176907200D01*
X173860588Y-176907200D02*
X173908207Y-176859580D01*
X174634398Y-177538152D02*
X174634398Y-178204819D01*
X174872493Y-177157200D02*
X175110588Y-177871485D01*
X175110588Y-177871485D02*
X174491541Y-177871485D01*
X170789160Y-174454819D02*
X171360588Y-174454819D01*
X171074874Y-174454819D02*
X171074874Y-173454819D01*
X171074874Y-173454819D02*
X171170112Y-173597676D01*
X171170112Y-173597676D02*
X171265350Y-173692914D01*
X171265350Y-173692914D02*
X171360588Y-173740533D01*
D11*
X227785714Y-148101657D02*
X227785714Y-145101657D01*
X226071428Y-148101657D02*
X227357142Y-146387371D01*
X226071428Y-145101657D02*
X227785714Y-146815942D01*
D12*
X188637333Y-112238095D02*
X188637333Y-113761905D01*
D10*
X189142857Y-94859580D02*
X189190476Y-94907200D01*
X189190476Y-94907200D02*
X189333333Y-94954819D01*
X189333333Y-94954819D02*
X189428571Y-94954819D01*
X189428571Y-94954819D02*
X189571428Y-94907200D01*
X189571428Y-94907200D02*
X189666666Y-94811961D01*
X189666666Y-94811961D02*
X189714285Y-94716723D01*
X189714285Y-94716723D02*
X189761904Y-94526247D01*
X189761904Y-94526247D02*
X189761904Y-94383390D01*
X189761904Y-94383390D02*
X189714285Y-94192914D01*
X189714285Y-94192914D02*
X189666666Y-94097676D01*
X189666666Y-94097676D02*
X189571428Y-94002438D01*
X189571428Y-94002438D02*
X189428571Y-93954819D01*
X189428571Y-93954819D02*
X189333333Y-93954819D01*
X189333333Y-93954819D02*
X189190476Y-94002438D01*
X189190476Y-94002438D02*
X189142857Y-94050057D01*
X188809523Y-93954819D02*
X188190476Y-93954819D01*
X188190476Y-93954819D02*
X188523809Y-94335771D01*
X188523809Y-94335771D02*
X188380952Y-94335771D01*
X188380952Y-94335771D02*
X188285714Y-94383390D01*
X188285714Y-94383390D02*
X188238095Y-94431009D01*
X188238095Y-94431009D02*
X188190476Y-94526247D01*
X188190476Y-94526247D02*
X188190476Y-94764342D01*
X188190476Y-94764342D02*
X188238095Y-94859580D01*
X188238095Y-94859580D02*
X188285714Y-94907200D01*
X188285714Y-94907200D02*
X188380952Y-94954819D01*
X188380952Y-94954819D02*
X188666666Y-94954819D01*
X188666666Y-94954819D02*
X188761904Y-94907200D01*
X188761904Y-94907200D02*
X188809523Y-94859580D01*
X187619047Y-94383390D02*
X187714285Y-94335771D01*
X187714285Y-94335771D02*
X187761904Y-94288152D01*
X187761904Y-94288152D02*
X187809523Y-94192914D01*
X187809523Y-94192914D02*
X187809523Y-94145295D01*
X187809523Y-94145295D02*
X187761904Y-94050057D01*
X187761904Y-94050057D02*
X187714285Y-94002438D01*
X187714285Y-94002438D02*
X187619047Y-93954819D01*
X187619047Y-93954819D02*
X187428571Y-93954819D01*
X187428571Y-93954819D02*
X187333333Y-94002438D01*
X187333333Y-94002438D02*
X187285714Y-94050057D01*
X187285714Y-94050057D02*
X187238095Y-94145295D01*
X187238095Y-94145295D02*
X187238095Y-94192914D01*
X187238095Y-94192914D02*
X187285714Y-94288152D01*
X187285714Y-94288152D02*
X187333333Y-94335771D01*
X187333333Y-94335771D02*
X187428571Y-94383390D01*
X187428571Y-94383390D02*
X187619047Y-94383390D01*
X187619047Y-94383390D02*
X187714285Y-94431009D01*
X187714285Y-94431009D02*
X187761904Y-94478628D01*
X187761904Y-94478628D02*
X187809523Y-94573866D01*
X187809523Y-94573866D02*
X187809523Y-94764342D01*
X187809523Y-94764342D02*
X187761904Y-94859580D01*
X187761904Y-94859580D02*
X187714285Y-94907200D01*
X187714285Y-94907200D02*
X187619047Y-94954819D01*
X187619047Y-94954819D02*
X187428571Y-94954819D01*
X187428571Y-94954819D02*
X187333333Y-94907200D01*
X187333333Y-94907200D02*
X187285714Y-94859580D01*
X187285714Y-94859580D02*
X187238095Y-94764342D01*
X187238095Y-94764342D02*
X187238095Y-94573866D01*
X187238095Y-94573866D02*
X187285714Y-94478628D01*
X187285714Y-94478628D02*
X187333333Y-94431009D01*
X187333333Y-94431009D02*
X187428571Y-94383390D01*
X255609580Y-140357142D02*
X255657200Y-140309523D01*
X255657200Y-140309523D02*
X255704819Y-140166666D01*
X255704819Y-140166666D02*
X255704819Y-140071428D01*
X255704819Y-140071428D02*
X255657200Y-139928571D01*
X255657200Y-139928571D02*
X255561961Y-139833333D01*
X255561961Y-139833333D02*
X255466723Y-139785714D01*
X255466723Y-139785714D02*
X255276247Y-139738095D01*
X255276247Y-139738095D02*
X255133390Y-139738095D01*
X255133390Y-139738095D02*
X254942914Y-139785714D01*
X254942914Y-139785714D02*
X254847676Y-139833333D01*
X254847676Y-139833333D02*
X254752438Y-139928571D01*
X254752438Y-139928571D02*
X254704819Y-140071428D01*
X254704819Y-140071428D02*
X254704819Y-140166666D01*
X254704819Y-140166666D02*
X254752438Y-140309523D01*
X254752438Y-140309523D02*
X254800057Y-140357142D01*
X254800057Y-140738095D02*
X254752438Y-140785714D01*
X254752438Y-140785714D02*
X254704819Y-140880952D01*
X254704819Y-140880952D02*
X254704819Y-141119047D01*
X254704819Y-141119047D02*
X254752438Y-141214285D01*
X254752438Y-141214285D02*
X254800057Y-141261904D01*
X254800057Y-141261904D02*
X254895295Y-141309523D01*
X254895295Y-141309523D02*
X254990533Y-141309523D01*
X254990533Y-141309523D02*
X255133390Y-141261904D01*
X255133390Y-141261904D02*
X255704819Y-140690476D01*
X255704819Y-140690476D02*
X255704819Y-141309523D01*
X254704819Y-142166666D02*
X254704819Y-141976190D01*
X254704819Y-141976190D02*
X254752438Y-141880952D01*
X254752438Y-141880952D02*
X254800057Y-141833333D01*
X254800057Y-141833333D02*
X254942914Y-141738095D01*
X254942914Y-141738095D02*
X255133390Y-141690476D01*
X255133390Y-141690476D02*
X255514342Y-141690476D01*
X255514342Y-141690476D02*
X255609580Y-141738095D01*
X255609580Y-141738095D02*
X255657200Y-141785714D01*
X255657200Y-141785714D02*
X255704819Y-141880952D01*
X255704819Y-141880952D02*
X255704819Y-142071428D01*
X255704819Y-142071428D02*
X255657200Y-142166666D01*
X255657200Y-142166666D02*
X255609580Y-142214285D01*
X255609580Y-142214285D02*
X255514342Y-142261904D01*
X255514342Y-142261904D02*
X255276247Y-142261904D01*
X255276247Y-142261904D02*
X255181009Y-142214285D01*
X255181009Y-142214285D02*
X255133390Y-142166666D01*
X255133390Y-142166666D02*
X255085771Y-142071428D01*
X255085771Y-142071428D02*
X255085771Y-141880952D01*
X255085771Y-141880952D02*
X255133390Y-141785714D01*
X255133390Y-141785714D02*
X255181009Y-141738095D01*
X255181009Y-141738095D02*
X255276247Y-141690476D01*
X227179819Y-169957142D02*
X226703628Y-169623809D01*
X227179819Y-169385714D02*
X226179819Y-169385714D01*
X226179819Y-169385714D02*
X226179819Y-169766666D01*
X226179819Y-169766666D02*
X226227438Y-169861904D01*
X226227438Y-169861904D02*
X226275057Y-169909523D01*
X226275057Y-169909523D02*
X226370295Y-169957142D01*
X226370295Y-169957142D02*
X226513152Y-169957142D01*
X226513152Y-169957142D02*
X226608390Y-169909523D01*
X226608390Y-169909523D02*
X226656009Y-169861904D01*
X226656009Y-169861904D02*
X226703628Y-169766666D01*
X226703628Y-169766666D02*
X226703628Y-169385714D01*
X226179819Y-170290476D02*
X226179819Y-170957142D01*
X226179819Y-170957142D02*
X227179819Y-170528571D01*
X226275057Y-171290476D02*
X226227438Y-171338095D01*
X226227438Y-171338095D02*
X226179819Y-171433333D01*
X226179819Y-171433333D02*
X226179819Y-171671428D01*
X226179819Y-171671428D02*
X226227438Y-171766666D01*
X226227438Y-171766666D02*
X226275057Y-171814285D01*
X226275057Y-171814285D02*
X226370295Y-171861904D01*
X226370295Y-171861904D02*
X226465533Y-171861904D01*
X226465533Y-171861904D02*
X226608390Y-171814285D01*
X226608390Y-171814285D02*
X227179819Y-171242857D01*
X227179819Y-171242857D02*
X227179819Y-171861904D01*
X195692857Y-157904819D02*
X196026190Y-157428628D01*
X196264285Y-157904819D02*
X196264285Y-156904819D01*
X196264285Y-156904819D02*
X195883333Y-156904819D01*
X195883333Y-156904819D02*
X195788095Y-156952438D01*
X195788095Y-156952438D02*
X195740476Y-157000057D01*
X195740476Y-157000057D02*
X195692857Y-157095295D01*
X195692857Y-157095295D02*
X195692857Y-157238152D01*
X195692857Y-157238152D02*
X195740476Y-157333390D01*
X195740476Y-157333390D02*
X195788095Y-157381009D01*
X195788095Y-157381009D02*
X195883333Y-157428628D01*
X195883333Y-157428628D02*
X196264285Y-157428628D01*
X195311904Y-157000057D02*
X195264285Y-156952438D01*
X195264285Y-156952438D02*
X195169047Y-156904819D01*
X195169047Y-156904819D02*
X194930952Y-156904819D01*
X194930952Y-156904819D02*
X194835714Y-156952438D01*
X194835714Y-156952438D02*
X194788095Y-157000057D01*
X194788095Y-157000057D02*
X194740476Y-157095295D01*
X194740476Y-157095295D02*
X194740476Y-157190533D01*
X194740476Y-157190533D02*
X194788095Y-157333390D01*
X194788095Y-157333390D02*
X195359523Y-157904819D01*
X195359523Y-157904819D02*
X194740476Y-157904819D01*
X193883333Y-156904819D02*
X194073809Y-156904819D01*
X194073809Y-156904819D02*
X194169047Y-156952438D01*
X194169047Y-156952438D02*
X194216666Y-157000057D01*
X194216666Y-157000057D02*
X194311904Y-157142914D01*
X194311904Y-157142914D02*
X194359523Y-157333390D01*
X194359523Y-157333390D02*
X194359523Y-157714342D01*
X194359523Y-157714342D02*
X194311904Y-157809580D01*
X194311904Y-157809580D02*
X194264285Y-157857200D01*
X194264285Y-157857200D02*
X194169047Y-157904819D01*
X194169047Y-157904819D02*
X193978571Y-157904819D01*
X193978571Y-157904819D02*
X193883333Y-157857200D01*
X193883333Y-157857200D02*
X193835714Y-157809580D01*
X193835714Y-157809580D02*
X193788095Y-157714342D01*
X193788095Y-157714342D02*
X193788095Y-157476247D01*
X193788095Y-157476247D02*
X193835714Y-157381009D01*
X193835714Y-157381009D02*
X193883333Y-157333390D01*
X193883333Y-157333390D02*
X193978571Y-157285771D01*
X193978571Y-157285771D02*
X194169047Y-157285771D01*
X194169047Y-157285771D02*
X194264285Y-157333390D01*
X194264285Y-157333390D02*
X194311904Y-157381009D01*
X194311904Y-157381009D02*
X194359523Y-157476247D01*
X199966666Y-154159580D02*
X200014285Y-154207200D01*
X200014285Y-154207200D02*
X200157142Y-154254819D01*
X200157142Y-154254819D02*
X200252380Y-154254819D01*
X200252380Y-154254819D02*
X200395237Y-154207200D01*
X200395237Y-154207200D02*
X200490475Y-154111961D01*
X200490475Y-154111961D02*
X200538094Y-154016723D01*
X200538094Y-154016723D02*
X200585713Y-153826247D01*
X200585713Y-153826247D02*
X200585713Y-153683390D01*
X200585713Y-153683390D02*
X200538094Y-153492914D01*
X200538094Y-153492914D02*
X200490475Y-153397676D01*
X200490475Y-153397676D02*
X200395237Y-153302438D01*
X200395237Y-153302438D02*
X200252380Y-153254819D01*
X200252380Y-153254819D02*
X200157142Y-153254819D01*
X200157142Y-153254819D02*
X200014285Y-153302438D01*
X200014285Y-153302438D02*
X199966666Y-153350057D01*
X199490475Y-154254819D02*
X199299999Y-154254819D01*
X199299999Y-154254819D02*
X199204761Y-154207200D01*
X199204761Y-154207200D02*
X199157142Y-154159580D01*
X199157142Y-154159580D02*
X199061904Y-154016723D01*
X199061904Y-154016723D02*
X199014285Y-153826247D01*
X199014285Y-153826247D02*
X199014285Y-153445295D01*
X199014285Y-153445295D02*
X199061904Y-153350057D01*
X199061904Y-153350057D02*
X199109523Y-153302438D01*
X199109523Y-153302438D02*
X199204761Y-153254819D01*
X199204761Y-153254819D02*
X199395237Y-153254819D01*
X199395237Y-153254819D02*
X199490475Y-153302438D01*
X199490475Y-153302438D02*
X199538094Y-153350057D01*
X199538094Y-153350057D02*
X199585713Y-153445295D01*
X199585713Y-153445295D02*
X199585713Y-153683390D01*
X199585713Y-153683390D02*
X199538094Y-153778628D01*
X199538094Y-153778628D02*
X199490475Y-153826247D01*
X199490475Y-153826247D02*
X199395237Y-153873866D01*
X199395237Y-153873866D02*
X199204761Y-153873866D01*
X199204761Y-153873866D02*
X199109523Y-153826247D01*
X199109523Y-153826247D02*
X199061904Y-153778628D01*
X199061904Y-153778628D02*
X199014285Y-153683390D01*
X200442857Y-152959580D02*
X200490476Y-153007200D01*
X200490476Y-153007200D02*
X200633333Y-153054819D01*
X200633333Y-153054819D02*
X200728571Y-153054819D01*
X200728571Y-153054819D02*
X200871428Y-153007200D01*
X200871428Y-153007200D02*
X200966666Y-152911961D01*
X200966666Y-152911961D02*
X201014285Y-152816723D01*
X201014285Y-152816723D02*
X201061904Y-152626247D01*
X201061904Y-152626247D02*
X201061904Y-152483390D01*
X201061904Y-152483390D02*
X201014285Y-152292914D01*
X201014285Y-152292914D02*
X200966666Y-152197676D01*
X200966666Y-152197676D02*
X200871428Y-152102438D01*
X200871428Y-152102438D02*
X200728571Y-152054819D01*
X200728571Y-152054819D02*
X200633333Y-152054819D01*
X200633333Y-152054819D02*
X200490476Y-152102438D01*
X200490476Y-152102438D02*
X200442857Y-152150057D01*
X199490476Y-153054819D02*
X200061904Y-153054819D01*
X199776190Y-153054819D02*
X199776190Y-152054819D01*
X199776190Y-152054819D02*
X199871428Y-152197676D01*
X199871428Y-152197676D02*
X199966666Y-152292914D01*
X199966666Y-152292914D02*
X200061904Y-152340533D01*
X198585714Y-152054819D02*
X199061904Y-152054819D01*
X199061904Y-152054819D02*
X199109523Y-152531009D01*
X199109523Y-152531009D02*
X199061904Y-152483390D01*
X199061904Y-152483390D02*
X198966666Y-152435771D01*
X198966666Y-152435771D02*
X198728571Y-152435771D01*
X198728571Y-152435771D02*
X198633333Y-152483390D01*
X198633333Y-152483390D02*
X198585714Y-152531009D01*
X198585714Y-152531009D02*
X198538095Y-152626247D01*
X198538095Y-152626247D02*
X198538095Y-152864342D01*
X198538095Y-152864342D02*
X198585714Y-152959580D01*
X198585714Y-152959580D02*
X198633333Y-153007200D01*
X198633333Y-153007200D02*
X198728571Y-153054819D01*
X198728571Y-153054819D02*
X198966666Y-153054819D01*
X198966666Y-153054819D02*
X199061904Y-153007200D01*
X199061904Y-153007200D02*
X199109523Y-152959580D01*
X192779819Y-172357142D02*
X192303628Y-172023809D01*
X192779819Y-171785714D02*
X191779819Y-171785714D01*
X191779819Y-171785714D02*
X191779819Y-172166666D01*
X191779819Y-172166666D02*
X191827438Y-172261904D01*
X191827438Y-172261904D02*
X191875057Y-172309523D01*
X191875057Y-172309523D02*
X191970295Y-172357142D01*
X191970295Y-172357142D02*
X192113152Y-172357142D01*
X192113152Y-172357142D02*
X192208390Y-172309523D01*
X192208390Y-172309523D02*
X192256009Y-172261904D01*
X192256009Y-172261904D02*
X192303628Y-172166666D01*
X192303628Y-172166666D02*
X192303628Y-171785714D01*
X191779819Y-172690476D02*
X191779819Y-173357142D01*
X191779819Y-173357142D02*
X192779819Y-172928571D01*
X191779819Y-173642857D02*
X191779819Y-174261904D01*
X191779819Y-174261904D02*
X192160771Y-173928571D01*
X192160771Y-173928571D02*
X192160771Y-174071428D01*
X192160771Y-174071428D02*
X192208390Y-174166666D01*
X192208390Y-174166666D02*
X192256009Y-174214285D01*
X192256009Y-174214285D02*
X192351247Y-174261904D01*
X192351247Y-174261904D02*
X192589342Y-174261904D01*
X192589342Y-174261904D02*
X192684580Y-174214285D01*
X192684580Y-174214285D02*
X192732200Y-174166666D01*
X192732200Y-174166666D02*
X192779819Y-174071428D01*
X192779819Y-174071428D02*
X192779819Y-173785714D01*
X192779819Y-173785714D02*
X192732200Y-173690476D01*
X192732200Y-173690476D02*
X192684580Y-173642857D01*
X218874819Y-154238095D02*
X219684342Y-154238095D01*
X219684342Y-154238095D02*
X219779580Y-154285714D01*
X219779580Y-154285714D02*
X219827200Y-154333333D01*
X219827200Y-154333333D02*
X219874819Y-154428571D01*
X219874819Y-154428571D02*
X219874819Y-154619047D01*
X219874819Y-154619047D02*
X219827200Y-154714285D01*
X219827200Y-154714285D02*
X219779580Y-154761904D01*
X219779580Y-154761904D02*
X219684342Y-154809523D01*
X219684342Y-154809523D02*
X218874819Y-154809523D01*
X218874819Y-155190476D02*
X218874819Y-155809523D01*
X218874819Y-155809523D02*
X219255771Y-155476190D01*
X219255771Y-155476190D02*
X219255771Y-155619047D01*
X219255771Y-155619047D02*
X219303390Y-155714285D01*
X219303390Y-155714285D02*
X219351009Y-155761904D01*
X219351009Y-155761904D02*
X219446247Y-155809523D01*
X219446247Y-155809523D02*
X219684342Y-155809523D01*
X219684342Y-155809523D02*
X219779580Y-155761904D01*
X219779580Y-155761904D02*
X219827200Y-155714285D01*
X219827200Y-155714285D02*
X219874819Y-155619047D01*
X219874819Y-155619047D02*
X219874819Y-155333333D01*
X219874819Y-155333333D02*
X219827200Y-155238095D01*
X219827200Y-155238095D02*
X219779580Y-155190476D01*
X225879819Y-169957142D02*
X225403628Y-169623809D01*
X225879819Y-169385714D02*
X224879819Y-169385714D01*
X224879819Y-169385714D02*
X224879819Y-169766666D01*
X224879819Y-169766666D02*
X224927438Y-169861904D01*
X224927438Y-169861904D02*
X224975057Y-169909523D01*
X224975057Y-169909523D02*
X225070295Y-169957142D01*
X225070295Y-169957142D02*
X225213152Y-169957142D01*
X225213152Y-169957142D02*
X225308390Y-169909523D01*
X225308390Y-169909523D02*
X225356009Y-169861904D01*
X225356009Y-169861904D02*
X225403628Y-169766666D01*
X225403628Y-169766666D02*
X225403628Y-169385714D01*
X224879819Y-170290476D02*
X224879819Y-170957142D01*
X224879819Y-170957142D02*
X225879819Y-170528571D01*
X225213152Y-171766666D02*
X225879819Y-171766666D01*
X224832200Y-171528571D02*
X225546485Y-171290476D01*
X225546485Y-171290476D02*
X225546485Y-171909523D01*
X192892857Y-159204819D02*
X193226190Y-158728628D01*
X193464285Y-159204819D02*
X193464285Y-158204819D01*
X193464285Y-158204819D02*
X193083333Y-158204819D01*
X193083333Y-158204819D02*
X192988095Y-158252438D01*
X192988095Y-158252438D02*
X192940476Y-158300057D01*
X192940476Y-158300057D02*
X192892857Y-158395295D01*
X192892857Y-158395295D02*
X192892857Y-158538152D01*
X192892857Y-158538152D02*
X192940476Y-158633390D01*
X192940476Y-158633390D02*
X192988095Y-158681009D01*
X192988095Y-158681009D02*
X193083333Y-158728628D01*
X193083333Y-158728628D02*
X193464285Y-158728628D01*
X192511904Y-158300057D02*
X192464285Y-158252438D01*
X192464285Y-158252438D02*
X192369047Y-158204819D01*
X192369047Y-158204819D02*
X192130952Y-158204819D01*
X192130952Y-158204819D02*
X192035714Y-158252438D01*
X192035714Y-158252438D02*
X191988095Y-158300057D01*
X191988095Y-158300057D02*
X191940476Y-158395295D01*
X191940476Y-158395295D02*
X191940476Y-158490533D01*
X191940476Y-158490533D02*
X191988095Y-158633390D01*
X191988095Y-158633390D02*
X192559523Y-159204819D01*
X192559523Y-159204819D02*
X191940476Y-159204819D01*
X191464285Y-159204819D02*
X191273809Y-159204819D01*
X191273809Y-159204819D02*
X191178571Y-159157200D01*
X191178571Y-159157200D02*
X191130952Y-159109580D01*
X191130952Y-159109580D02*
X191035714Y-158966723D01*
X191035714Y-158966723D02*
X190988095Y-158776247D01*
X190988095Y-158776247D02*
X190988095Y-158395295D01*
X190988095Y-158395295D02*
X191035714Y-158300057D01*
X191035714Y-158300057D02*
X191083333Y-158252438D01*
X191083333Y-158252438D02*
X191178571Y-158204819D01*
X191178571Y-158204819D02*
X191369047Y-158204819D01*
X191369047Y-158204819D02*
X191464285Y-158252438D01*
X191464285Y-158252438D02*
X191511904Y-158300057D01*
X191511904Y-158300057D02*
X191559523Y-158395295D01*
X191559523Y-158395295D02*
X191559523Y-158633390D01*
X191559523Y-158633390D02*
X191511904Y-158728628D01*
X191511904Y-158728628D02*
X191464285Y-158776247D01*
X191464285Y-158776247D02*
X191369047Y-158823866D01*
X191369047Y-158823866D02*
X191178571Y-158823866D01*
X191178571Y-158823866D02*
X191083333Y-158776247D01*
X191083333Y-158776247D02*
X191035714Y-158728628D01*
X191035714Y-158728628D02*
X190988095Y-158633390D01*
X132759580Y-141557142D02*
X132807200Y-141509523D01*
X132807200Y-141509523D02*
X132854819Y-141366666D01*
X132854819Y-141366666D02*
X132854819Y-141271428D01*
X132854819Y-141271428D02*
X132807200Y-141128571D01*
X132807200Y-141128571D02*
X132711961Y-141033333D01*
X132711961Y-141033333D02*
X132616723Y-140985714D01*
X132616723Y-140985714D02*
X132426247Y-140938095D01*
X132426247Y-140938095D02*
X132283390Y-140938095D01*
X132283390Y-140938095D02*
X132092914Y-140985714D01*
X132092914Y-140985714D02*
X131997676Y-141033333D01*
X131997676Y-141033333D02*
X131902438Y-141128571D01*
X131902438Y-141128571D02*
X131854819Y-141271428D01*
X131854819Y-141271428D02*
X131854819Y-141366666D01*
X131854819Y-141366666D02*
X131902438Y-141509523D01*
X131902438Y-141509523D02*
X131950057Y-141557142D01*
X131950057Y-141938095D02*
X131902438Y-141985714D01*
X131902438Y-141985714D02*
X131854819Y-142080952D01*
X131854819Y-142080952D02*
X131854819Y-142319047D01*
X131854819Y-142319047D02*
X131902438Y-142414285D01*
X131902438Y-142414285D02*
X131950057Y-142461904D01*
X131950057Y-142461904D02*
X132045295Y-142509523D01*
X132045295Y-142509523D02*
X132140533Y-142509523D01*
X132140533Y-142509523D02*
X132283390Y-142461904D01*
X132283390Y-142461904D02*
X132854819Y-141890476D01*
X132854819Y-141890476D02*
X132854819Y-142509523D01*
X131854819Y-143414285D02*
X131854819Y-142938095D01*
X131854819Y-142938095D02*
X132331009Y-142890476D01*
X132331009Y-142890476D02*
X132283390Y-142938095D01*
X132283390Y-142938095D02*
X132235771Y-143033333D01*
X132235771Y-143033333D02*
X132235771Y-143271428D01*
X132235771Y-143271428D02*
X132283390Y-143366666D01*
X132283390Y-143366666D02*
X132331009Y-143414285D01*
X132331009Y-143414285D02*
X132426247Y-143461904D01*
X132426247Y-143461904D02*
X132664342Y-143461904D01*
X132664342Y-143461904D02*
X132759580Y-143414285D01*
X132759580Y-143414285D02*
X132807200Y-143366666D01*
X132807200Y-143366666D02*
X132854819Y-143271428D01*
X132854819Y-143271428D02*
X132854819Y-143033333D01*
X132854819Y-143033333D02*
X132807200Y-142938095D01*
X132807200Y-142938095D02*
X132759580Y-142890476D01*
X205666666Y-73054819D02*
X206142856Y-73054819D01*
X206142856Y-73054819D02*
X206142856Y-72054819D01*
X205380951Y-72150057D02*
X205333332Y-72102438D01*
X205333332Y-72102438D02*
X205238094Y-72054819D01*
X205238094Y-72054819D02*
X204999999Y-72054819D01*
X204999999Y-72054819D02*
X204904761Y-72102438D01*
X204904761Y-72102438D02*
X204857142Y-72150057D01*
X204857142Y-72150057D02*
X204809523Y-72245295D01*
X204809523Y-72245295D02*
X204809523Y-72340533D01*
X204809523Y-72340533D02*
X204857142Y-72483390D01*
X204857142Y-72483390D02*
X205428570Y-73054819D01*
X205428570Y-73054819D02*
X204809523Y-73054819D01*
X188633333Y-174654819D02*
X188633333Y-175369104D01*
X188633333Y-175369104D02*
X188680952Y-175511961D01*
X188680952Y-175511961D02*
X188776190Y-175607200D01*
X188776190Y-175607200D02*
X188919047Y-175654819D01*
X188919047Y-175654819D02*
X189014285Y-175654819D01*
X188109523Y-175654819D02*
X187919047Y-175654819D01*
X187919047Y-175654819D02*
X187823809Y-175607200D01*
X187823809Y-175607200D02*
X187776190Y-175559580D01*
X187776190Y-175559580D02*
X187680952Y-175416723D01*
X187680952Y-175416723D02*
X187633333Y-175226247D01*
X187633333Y-175226247D02*
X187633333Y-174845295D01*
X187633333Y-174845295D02*
X187680952Y-174750057D01*
X187680952Y-174750057D02*
X187728571Y-174702438D01*
X187728571Y-174702438D02*
X187823809Y-174654819D01*
X187823809Y-174654819D02*
X188014285Y-174654819D01*
X188014285Y-174654819D02*
X188109523Y-174702438D01*
X188109523Y-174702438D02*
X188157142Y-174750057D01*
X188157142Y-174750057D02*
X188204761Y-174845295D01*
X188204761Y-174845295D02*
X188204761Y-175083390D01*
X188204761Y-175083390D02*
X188157142Y-175178628D01*
X188157142Y-175178628D02*
X188109523Y-175226247D01*
X188109523Y-175226247D02*
X188014285Y-175273866D01*
X188014285Y-175273866D02*
X187823809Y-175273866D01*
X187823809Y-175273866D02*
X187728571Y-175226247D01*
X187728571Y-175226247D02*
X187680952Y-175178628D01*
X187680952Y-175178628D02*
X187633333Y-175083390D01*
X198642857Y-169204819D02*
X198976190Y-168728628D01*
X199214285Y-169204819D02*
X199214285Y-168204819D01*
X199214285Y-168204819D02*
X198833333Y-168204819D01*
X198833333Y-168204819D02*
X198738095Y-168252438D01*
X198738095Y-168252438D02*
X198690476Y-168300057D01*
X198690476Y-168300057D02*
X198642857Y-168395295D01*
X198642857Y-168395295D02*
X198642857Y-168538152D01*
X198642857Y-168538152D02*
X198690476Y-168633390D01*
X198690476Y-168633390D02*
X198738095Y-168681009D01*
X198738095Y-168681009D02*
X198833333Y-168728628D01*
X198833333Y-168728628D02*
X199214285Y-168728628D01*
X198309523Y-168204819D02*
X197690476Y-168204819D01*
X197690476Y-168204819D02*
X198023809Y-168585771D01*
X198023809Y-168585771D02*
X197880952Y-168585771D01*
X197880952Y-168585771D02*
X197785714Y-168633390D01*
X197785714Y-168633390D02*
X197738095Y-168681009D01*
X197738095Y-168681009D02*
X197690476Y-168776247D01*
X197690476Y-168776247D02*
X197690476Y-169014342D01*
X197690476Y-169014342D02*
X197738095Y-169109580D01*
X197738095Y-169109580D02*
X197785714Y-169157200D01*
X197785714Y-169157200D02*
X197880952Y-169204819D01*
X197880952Y-169204819D02*
X198166666Y-169204819D01*
X198166666Y-169204819D02*
X198261904Y-169157200D01*
X198261904Y-169157200D02*
X198309523Y-169109580D01*
X197357142Y-168204819D02*
X196690476Y-168204819D01*
X196690476Y-168204819D02*
X197119047Y-169204819D01*
X180333333Y-148431010D02*
X180666666Y-148431010D01*
X180666666Y-148954820D02*
X180666666Y-147954820D01*
X180666666Y-147954820D02*
X180190476Y-147954820D01*
X179904761Y-147954820D02*
X179285714Y-147954820D01*
X179285714Y-147954820D02*
X179619047Y-148335772D01*
X179619047Y-148335772D02*
X179476190Y-148335772D01*
X179476190Y-148335772D02*
X179380952Y-148383391D01*
X179380952Y-148383391D02*
X179333333Y-148431010D01*
X179333333Y-148431010D02*
X179285714Y-148526248D01*
X179285714Y-148526248D02*
X179285714Y-148764343D01*
X179285714Y-148764343D02*
X179333333Y-148859581D01*
X179333333Y-148859581D02*
X179380952Y-148907201D01*
X179380952Y-148907201D02*
X179476190Y-148954820D01*
X179476190Y-148954820D02*
X179761904Y-148954820D01*
X179761904Y-148954820D02*
X179857142Y-148907201D01*
X179857142Y-148907201D02*
X179904761Y-148859581D01*
X215319580Y-166657142D02*
X215367200Y-166609523D01*
X215367200Y-166609523D02*
X215414819Y-166466666D01*
X215414819Y-166466666D02*
X215414819Y-166371428D01*
X215414819Y-166371428D02*
X215367200Y-166228571D01*
X215367200Y-166228571D02*
X215271961Y-166133333D01*
X215271961Y-166133333D02*
X215176723Y-166085714D01*
X215176723Y-166085714D02*
X214986247Y-166038095D01*
X214986247Y-166038095D02*
X214843390Y-166038095D01*
X214843390Y-166038095D02*
X214652914Y-166085714D01*
X214652914Y-166085714D02*
X214557676Y-166133333D01*
X214557676Y-166133333D02*
X214462438Y-166228571D01*
X214462438Y-166228571D02*
X214414819Y-166371428D01*
X214414819Y-166371428D02*
X214414819Y-166466666D01*
X214414819Y-166466666D02*
X214462438Y-166609523D01*
X214462438Y-166609523D02*
X214510057Y-166657142D01*
X214510057Y-167038095D02*
X214462438Y-167085714D01*
X214462438Y-167085714D02*
X214414819Y-167180952D01*
X214414819Y-167180952D02*
X214414819Y-167419047D01*
X214414819Y-167419047D02*
X214462438Y-167514285D01*
X214462438Y-167514285D02*
X214510057Y-167561904D01*
X214510057Y-167561904D02*
X214605295Y-167609523D01*
X214605295Y-167609523D02*
X214700533Y-167609523D01*
X214700533Y-167609523D02*
X214843390Y-167561904D01*
X214843390Y-167561904D02*
X215414819Y-166990476D01*
X215414819Y-166990476D02*
X215414819Y-167609523D01*
X214414819Y-167942857D02*
X214414819Y-168561904D01*
X214414819Y-168561904D02*
X214795771Y-168228571D01*
X214795771Y-168228571D02*
X214795771Y-168371428D01*
X214795771Y-168371428D02*
X214843390Y-168466666D01*
X214843390Y-168466666D02*
X214891009Y-168514285D01*
X214891009Y-168514285D02*
X214986247Y-168561904D01*
X214986247Y-168561904D02*
X215224342Y-168561904D01*
X215224342Y-168561904D02*
X215319580Y-168514285D01*
X215319580Y-168514285D02*
X215367200Y-168466666D01*
X215367200Y-168466666D02*
X215414819Y-168371428D01*
X215414819Y-168371428D02*
X215414819Y-168085714D01*
X215414819Y-168085714D02*
X215367200Y-167990476D01*
X215367200Y-167990476D02*
X215319580Y-167942857D01*
X189142857Y-93609580D02*
X189190476Y-93657200D01*
X189190476Y-93657200D02*
X189333333Y-93704819D01*
X189333333Y-93704819D02*
X189428571Y-93704819D01*
X189428571Y-93704819D02*
X189571428Y-93657200D01*
X189571428Y-93657200D02*
X189666666Y-93561961D01*
X189666666Y-93561961D02*
X189714285Y-93466723D01*
X189714285Y-93466723D02*
X189761904Y-93276247D01*
X189761904Y-93276247D02*
X189761904Y-93133390D01*
X189761904Y-93133390D02*
X189714285Y-92942914D01*
X189714285Y-92942914D02*
X189666666Y-92847676D01*
X189666666Y-92847676D02*
X189571428Y-92752438D01*
X189571428Y-92752438D02*
X189428571Y-92704819D01*
X189428571Y-92704819D02*
X189333333Y-92704819D01*
X189333333Y-92704819D02*
X189190476Y-92752438D01*
X189190476Y-92752438D02*
X189142857Y-92800057D01*
X188809523Y-92704819D02*
X188190476Y-92704819D01*
X188190476Y-92704819D02*
X188523809Y-93085771D01*
X188523809Y-93085771D02*
X188380952Y-93085771D01*
X188380952Y-93085771D02*
X188285714Y-93133390D01*
X188285714Y-93133390D02*
X188238095Y-93181009D01*
X188238095Y-93181009D02*
X188190476Y-93276247D01*
X188190476Y-93276247D02*
X188190476Y-93514342D01*
X188190476Y-93514342D02*
X188238095Y-93609580D01*
X188238095Y-93609580D02*
X188285714Y-93657200D01*
X188285714Y-93657200D02*
X188380952Y-93704819D01*
X188380952Y-93704819D02*
X188666666Y-93704819D01*
X188666666Y-93704819D02*
X188761904Y-93657200D01*
X188761904Y-93657200D02*
X188809523Y-93609580D01*
X187333333Y-92704819D02*
X187523809Y-92704819D01*
X187523809Y-92704819D02*
X187619047Y-92752438D01*
X187619047Y-92752438D02*
X187666666Y-92800057D01*
X187666666Y-92800057D02*
X187761904Y-92942914D01*
X187761904Y-92942914D02*
X187809523Y-93133390D01*
X187809523Y-93133390D02*
X187809523Y-93514342D01*
X187809523Y-93514342D02*
X187761904Y-93609580D01*
X187761904Y-93609580D02*
X187714285Y-93657200D01*
X187714285Y-93657200D02*
X187619047Y-93704819D01*
X187619047Y-93704819D02*
X187428571Y-93704819D01*
X187428571Y-93704819D02*
X187333333Y-93657200D01*
X187333333Y-93657200D02*
X187285714Y-93609580D01*
X187285714Y-93609580D02*
X187238095Y-93514342D01*
X187238095Y-93514342D02*
X187238095Y-93276247D01*
X187238095Y-93276247D02*
X187285714Y-93181009D01*
X187285714Y-93181009D02*
X187333333Y-93133390D01*
X187333333Y-93133390D02*
X187428571Y-93085771D01*
X187428571Y-93085771D02*
X187619047Y-93085771D01*
X187619047Y-93085771D02*
X187714285Y-93133390D01*
X187714285Y-93133390D02*
X187761904Y-93181009D01*
X187761904Y-93181009D02*
X187809523Y-93276247D01*
X214454819Y-143083333D02*
X213978628Y-142750000D01*
X214454819Y-142511905D02*
X213454819Y-142511905D01*
X213454819Y-142511905D02*
X213454819Y-142892857D01*
X213454819Y-142892857D02*
X213502438Y-142988095D01*
X213502438Y-142988095D02*
X213550057Y-143035714D01*
X213550057Y-143035714D02*
X213645295Y-143083333D01*
X213645295Y-143083333D02*
X213788152Y-143083333D01*
X213788152Y-143083333D02*
X213883390Y-143035714D01*
X213883390Y-143035714D02*
X213931009Y-142988095D01*
X213931009Y-142988095D02*
X213978628Y-142892857D01*
X213978628Y-142892857D02*
X213978628Y-142511905D01*
X213454819Y-143416667D02*
X213454819Y-144035714D01*
X213454819Y-144035714D02*
X213835771Y-143702381D01*
X213835771Y-143702381D02*
X213835771Y-143845238D01*
X213835771Y-143845238D02*
X213883390Y-143940476D01*
X213883390Y-143940476D02*
X213931009Y-143988095D01*
X213931009Y-143988095D02*
X214026247Y-144035714D01*
X214026247Y-144035714D02*
X214264342Y-144035714D01*
X214264342Y-144035714D02*
X214359580Y-143988095D01*
X214359580Y-143988095D02*
X214407200Y-143940476D01*
X214407200Y-143940476D02*
X214454819Y-143845238D01*
X214454819Y-143845238D02*
X214454819Y-143559524D01*
X214454819Y-143559524D02*
X214407200Y-143464286D01*
X214407200Y-143464286D02*
X214359580Y-143416667D01*
X191579819Y-172357142D02*
X191103628Y-172023809D01*
X191579819Y-171785714D02*
X190579819Y-171785714D01*
X190579819Y-171785714D02*
X190579819Y-172166666D01*
X190579819Y-172166666D02*
X190627438Y-172261904D01*
X190627438Y-172261904D02*
X190675057Y-172309523D01*
X190675057Y-172309523D02*
X190770295Y-172357142D01*
X190770295Y-172357142D02*
X190913152Y-172357142D01*
X190913152Y-172357142D02*
X191008390Y-172309523D01*
X191008390Y-172309523D02*
X191056009Y-172261904D01*
X191056009Y-172261904D02*
X191103628Y-172166666D01*
X191103628Y-172166666D02*
X191103628Y-171785714D01*
X190579819Y-172690476D02*
X190579819Y-173357142D01*
X190579819Y-173357142D02*
X191579819Y-172928571D01*
X190579819Y-174214285D02*
X190579819Y-173738095D01*
X190579819Y-173738095D02*
X191056009Y-173690476D01*
X191056009Y-173690476D02*
X191008390Y-173738095D01*
X191008390Y-173738095D02*
X190960771Y-173833333D01*
X190960771Y-173833333D02*
X190960771Y-174071428D01*
X190960771Y-174071428D02*
X191008390Y-174166666D01*
X191008390Y-174166666D02*
X191056009Y-174214285D01*
X191056009Y-174214285D02*
X191151247Y-174261904D01*
X191151247Y-174261904D02*
X191389342Y-174261904D01*
X191389342Y-174261904D02*
X191484580Y-174214285D01*
X191484580Y-174214285D02*
X191532200Y-174166666D01*
X191532200Y-174166666D02*
X191579819Y-174071428D01*
X191579819Y-174071428D02*
X191579819Y-173833333D01*
X191579819Y-173833333D02*
X191532200Y-173738095D01*
X191532200Y-173738095D02*
X191484580Y-173690476D01*
X210454819Y-171857142D02*
X209978628Y-171523809D01*
X210454819Y-171285714D02*
X209454819Y-171285714D01*
X209454819Y-171285714D02*
X209454819Y-171666666D01*
X209454819Y-171666666D02*
X209502438Y-171761904D01*
X209502438Y-171761904D02*
X209550057Y-171809523D01*
X209550057Y-171809523D02*
X209645295Y-171857142D01*
X209645295Y-171857142D02*
X209788152Y-171857142D01*
X209788152Y-171857142D02*
X209883390Y-171809523D01*
X209883390Y-171809523D02*
X209931009Y-171761904D01*
X209931009Y-171761904D02*
X209978628Y-171666666D01*
X209978628Y-171666666D02*
X209978628Y-171285714D01*
X209454819Y-172714285D02*
X209454819Y-172523809D01*
X209454819Y-172523809D02*
X209502438Y-172428571D01*
X209502438Y-172428571D02*
X209550057Y-172380952D01*
X209550057Y-172380952D02*
X209692914Y-172285714D01*
X209692914Y-172285714D02*
X209883390Y-172238095D01*
X209883390Y-172238095D02*
X210264342Y-172238095D01*
X210264342Y-172238095D02*
X210359580Y-172285714D01*
X210359580Y-172285714D02*
X210407200Y-172333333D01*
X210407200Y-172333333D02*
X210454819Y-172428571D01*
X210454819Y-172428571D02*
X210454819Y-172619047D01*
X210454819Y-172619047D02*
X210407200Y-172714285D01*
X210407200Y-172714285D02*
X210359580Y-172761904D01*
X210359580Y-172761904D02*
X210264342Y-172809523D01*
X210264342Y-172809523D02*
X210026247Y-172809523D01*
X210026247Y-172809523D02*
X209931009Y-172761904D01*
X209931009Y-172761904D02*
X209883390Y-172714285D01*
X209883390Y-172714285D02*
X209835771Y-172619047D01*
X209835771Y-172619047D02*
X209835771Y-172428571D01*
X209835771Y-172428571D02*
X209883390Y-172333333D01*
X209883390Y-172333333D02*
X209931009Y-172285714D01*
X209931009Y-172285714D02*
X210026247Y-172238095D01*
X210454819Y-173285714D02*
X210454819Y-173476190D01*
X210454819Y-173476190D02*
X210407200Y-173571428D01*
X210407200Y-173571428D02*
X210359580Y-173619047D01*
X210359580Y-173619047D02*
X210216723Y-173714285D01*
X210216723Y-173714285D02*
X210026247Y-173761904D01*
X210026247Y-173761904D02*
X209645295Y-173761904D01*
X209645295Y-173761904D02*
X209550057Y-173714285D01*
X209550057Y-173714285D02*
X209502438Y-173666666D01*
X209502438Y-173666666D02*
X209454819Y-173571428D01*
X209454819Y-173571428D02*
X209454819Y-173380952D01*
X209454819Y-173380952D02*
X209502438Y-173285714D01*
X209502438Y-173285714D02*
X209550057Y-173238095D01*
X209550057Y-173238095D02*
X209645295Y-173190476D01*
X209645295Y-173190476D02*
X209883390Y-173190476D01*
X209883390Y-173190476D02*
X209978628Y-173238095D01*
X209978628Y-173238095D02*
X210026247Y-173285714D01*
X210026247Y-173285714D02*
X210073866Y-173380952D01*
X210073866Y-173380952D02*
X210073866Y-173571428D01*
X210073866Y-173571428D02*
X210026247Y-173666666D01*
X210026247Y-173666666D02*
X209978628Y-173714285D01*
X209978628Y-173714285D02*
X209883390Y-173761904D01*
X232766666Y-168704819D02*
X233099999Y-168228628D01*
X233338094Y-168704819D02*
X233338094Y-167704819D01*
X233338094Y-167704819D02*
X232957142Y-167704819D01*
X232957142Y-167704819D02*
X232861904Y-167752438D01*
X232861904Y-167752438D02*
X232814285Y-167800057D01*
X232814285Y-167800057D02*
X232766666Y-167895295D01*
X232766666Y-167895295D02*
X232766666Y-168038152D01*
X232766666Y-168038152D02*
X232814285Y-168133390D01*
X232814285Y-168133390D02*
X232861904Y-168181009D01*
X232861904Y-168181009D02*
X232957142Y-168228628D01*
X232957142Y-168228628D02*
X233338094Y-168228628D01*
X232385713Y-167800057D02*
X232338094Y-167752438D01*
X232338094Y-167752438D02*
X232242856Y-167704819D01*
X232242856Y-167704819D02*
X232004761Y-167704819D01*
X232004761Y-167704819D02*
X231909523Y-167752438D01*
X231909523Y-167752438D02*
X231861904Y-167800057D01*
X231861904Y-167800057D02*
X231814285Y-167895295D01*
X231814285Y-167895295D02*
X231814285Y-167990533D01*
X231814285Y-167990533D02*
X231861904Y-168133390D01*
X231861904Y-168133390D02*
X232433332Y-168704819D01*
X232433332Y-168704819D02*
X231814285Y-168704819D01*
X198642857Y-167704819D02*
X198976190Y-167228628D01*
X199214285Y-167704819D02*
X199214285Y-166704819D01*
X199214285Y-166704819D02*
X198833333Y-166704819D01*
X198833333Y-166704819D02*
X198738095Y-166752438D01*
X198738095Y-166752438D02*
X198690476Y-166800057D01*
X198690476Y-166800057D02*
X198642857Y-166895295D01*
X198642857Y-166895295D02*
X198642857Y-167038152D01*
X198642857Y-167038152D02*
X198690476Y-167133390D01*
X198690476Y-167133390D02*
X198738095Y-167181009D01*
X198738095Y-167181009D02*
X198833333Y-167228628D01*
X198833333Y-167228628D02*
X199214285Y-167228628D01*
X197785714Y-167038152D02*
X197785714Y-167704819D01*
X198023809Y-166657200D02*
X198261904Y-167371485D01*
X198261904Y-167371485D02*
X197642857Y-167371485D01*
X197071428Y-166704819D02*
X196976190Y-166704819D01*
X196976190Y-166704819D02*
X196880952Y-166752438D01*
X196880952Y-166752438D02*
X196833333Y-166800057D01*
X196833333Y-166800057D02*
X196785714Y-166895295D01*
X196785714Y-166895295D02*
X196738095Y-167085771D01*
X196738095Y-167085771D02*
X196738095Y-167323866D01*
X196738095Y-167323866D02*
X196785714Y-167514342D01*
X196785714Y-167514342D02*
X196833333Y-167609580D01*
X196833333Y-167609580D02*
X196880952Y-167657200D01*
X196880952Y-167657200D02*
X196976190Y-167704819D01*
X196976190Y-167704819D02*
X197071428Y-167704819D01*
X197071428Y-167704819D02*
X197166666Y-167657200D01*
X197166666Y-167657200D02*
X197214285Y-167609580D01*
X197214285Y-167609580D02*
X197261904Y-167514342D01*
X197261904Y-167514342D02*
X197309523Y-167323866D01*
X197309523Y-167323866D02*
X197309523Y-167085771D01*
X197309523Y-167085771D02*
X197261904Y-166895295D01*
X197261904Y-166895295D02*
X197214285Y-166800057D01*
X197214285Y-166800057D02*
X197166666Y-166752438D01*
X197166666Y-166752438D02*
X197071428Y-166704819D01*
X219254819Y-171057142D02*
X218778628Y-170723809D01*
X219254819Y-170485714D02*
X218254819Y-170485714D01*
X218254819Y-170485714D02*
X218254819Y-170866666D01*
X218254819Y-170866666D02*
X218302438Y-170961904D01*
X218302438Y-170961904D02*
X218350057Y-171009523D01*
X218350057Y-171009523D02*
X218445295Y-171057142D01*
X218445295Y-171057142D02*
X218588152Y-171057142D01*
X218588152Y-171057142D02*
X218683390Y-171009523D01*
X218683390Y-171009523D02*
X218731009Y-170961904D01*
X218731009Y-170961904D02*
X218778628Y-170866666D01*
X218778628Y-170866666D02*
X218778628Y-170485714D01*
X218683390Y-171628571D02*
X218635771Y-171533333D01*
X218635771Y-171533333D02*
X218588152Y-171485714D01*
X218588152Y-171485714D02*
X218492914Y-171438095D01*
X218492914Y-171438095D02*
X218445295Y-171438095D01*
X218445295Y-171438095D02*
X218350057Y-171485714D01*
X218350057Y-171485714D02*
X218302438Y-171533333D01*
X218302438Y-171533333D02*
X218254819Y-171628571D01*
X218254819Y-171628571D02*
X218254819Y-171819047D01*
X218254819Y-171819047D02*
X218302438Y-171914285D01*
X218302438Y-171914285D02*
X218350057Y-171961904D01*
X218350057Y-171961904D02*
X218445295Y-172009523D01*
X218445295Y-172009523D02*
X218492914Y-172009523D01*
X218492914Y-172009523D02*
X218588152Y-171961904D01*
X218588152Y-171961904D02*
X218635771Y-171914285D01*
X218635771Y-171914285D02*
X218683390Y-171819047D01*
X218683390Y-171819047D02*
X218683390Y-171628571D01*
X218683390Y-171628571D02*
X218731009Y-171533333D01*
X218731009Y-171533333D02*
X218778628Y-171485714D01*
X218778628Y-171485714D02*
X218873866Y-171438095D01*
X218873866Y-171438095D02*
X219064342Y-171438095D01*
X219064342Y-171438095D02*
X219159580Y-171485714D01*
X219159580Y-171485714D02*
X219207200Y-171533333D01*
X219207200Y-171533333D02*
X219254819Y-171628571D01*
X219254819Y-171628571D02*
X219254819Y-171819047D01*
X219254819Y-171819047D02*
X219207200Y-171914285D01*
X219207200Y-171914285D02*
X219159580Y-171961904D01*
X219159580Y-171961904D02*
X219064342Y-172009523D01*
X219064342Y-172009523D02*
X218873866Y-172009523D01*
X218873866Y-172009523D02*
X218778628Y-171961904D01*
X218778628Y-171961904D02*
X218731009Y-171914285D01*
X218731009Y-171914285D02*
X218683390Y-171819047D01*
X219254819Y-172961904D02*
X219254819Y-172390476D01*
X219254819Y-172676190D02*
X218254819Y-172676190D01*
X218254819Y-172676190D02*
X218397676Y-172580952D01*
X218397676Y-172580952D02*
X218492914Y-172485714D01*
X218492914Y-172485714D02*
X218540533Y-172390476D01*
X193504819Y-160107142D02*
X193028628Y-159773809D01*
X193504819Y-159535714D02*
X192504819Y-159535714D01*
X192504819Y-159535714D02*
X192504819Y-159916666D01*
X192504819Y-159916666D02*
X192552438Y-160011904D01*
X192552438Y-160011904D02*
X192600057Y-160059523D01*
X192600057Y-160059523D02*
X192695295Y-160107142D01*
X192695295Y-160107142D02*
X192838152Y-160107142D01*
X192838152Y-160107142D02*
X192933390Y-160059523D01*
X192933390Y-160059523D02*
X192981009Y-160011904D01*
X192981009Y-160011904D02*
X193028628Y-159916666D01*
X193028628Y-159916666D02*
X193028628Y-159535714D01*
X192600057Y-160488095D02*
X192552438Y-160535714D01*
X192552438Y-160535714D02*
X192504819Y-160630952D01*
X192504819Y-160630952D02*
X192504819Y-160869047D01*
X192504819Y-160869047D02*
X192552438Y-160964285D01*
X192552438Y-160964285D02*
X192600057Y-161011904D01*
X192600057Y-161011904D02*
X192695295Y-161059523D01*
X192695295Y-161059523D02*
X192790533Y-161059523D01*
X192790533Y-161059523D02*
X192933390Y-161011904D01*
X192933390Y-161011904D02*
X193504819Y-160440476D01*
X193504819Y-160440476D02*
X193504819Y-161059523D01*
X192504819Y-161392857D02*
X192504819Y-162011904D01*
X192504819Y-162011904D02*
X192885771Y-161678571D01*
X192885771Y-161678571D02*
X192885771Y-161821428D01*
X192885771Y-161821428D02*
X192933390Y-161916666D01*
X192933390Y-161916666D02*
X192981009Y-161964285D01*
X192981009Y-161964285D02*
X193076247Y-162011904D01*
X193076247Y-162011904D02*
X193314342Y-162011904D01*
X193314342Y-162011904D02*
X193409580Y-161964285D01*
X193409580Y-161964285D02*
X193457200Y-161916666D01*
X193457200Y-161916666D02*
X193504819Y-161821428D01*
X193504819Y-161821428D02*
X193504819Y-161535714D01*
X193504819Y-161535714D02*
X193457200Y-161440476D01*
X193457200Y-161440476D02*
X193409580Y-161392857D01*
X195642857Y-170704819D02*
X195976190Y-170228628D01*
X196214285Y-170704819D02*
X196214285Y-169704819D01*
X196214285Y-169704819D02*
X195833333Y-169704819D01*
X195833333Y-169704819D02*
X195738095Y-169752438D01*
X195738095Y-169752438D02*
X195690476Y-169800057D01*
X195690476Y-169800057D02*
X195642857Y-169895295D01*
X195642857Y-169895295D02*
X195642857Y-170038152D01*
X195642857Y-170038152D02*
X195690476Y-170133390D01*
X195690476Y-170133390D02*
X195738095Y-170181009D01*
X195738095Y-170181009D02*
X195833333Y-170228628D01*
X195833333Y-170228628D02*
X196214285Y-170228628D01*
X195309523Y-169704819D02*
X194690476Y-169704819D01*
X194690476Y-169704819D02*
X195023809Y-170085771D01*
X195023809Y-170085771D02*
X194880952Y-170085771D01*
X194880952Y-170085771D02*
X194785714Y-170133390D01*
X194785714Y-170133390D02*
X194738095Y-170181009D01*
X194738095Y-170181009D02*
X194690476Y-170276247D01*
X194690476Y-170276247D02*
X194690476Y-170514342D01*
X194690476Y-170514342D02*
X194738095Y-170609580D01*
X194738095Y-170609580D02*
X194785714Y-170657200D01*
X194785714Y-170657200D02*
X194880952Y-170704819D01*
X194880952Y-170704819D02*
X195166666Y-170704819D01*
X195166666Y-170704819D02*
X195261904Y-170657200D01*
X195261904Y-170657200D02*
X195309523Y-170609580D01*
X194357142Y-169704819D02*
X193738095Y-169704819D01*
X193738095Y-169704819D02*
X194071428Y-170085771D01*
X194071428Y-170085771D02*
X193928571Y-170085771D01*
X193928571Y-170085771D02*
X193833333Y-170133390D01*
X193833333Y-170133390D02*
X193785714Y-170181009D01*
X193785714Y-170181009D02*
X193738095Y-170276247D01*
X193738095Y-170276247D02*
X193738095Y-170514342D01*
X193738095Y-170514342D02*
X193785714Y-170609580D01*
X193785714Y-170609580D02*
X193833333Y-170657200D01*
X193833333Y-170657200D02*
X193928571Y-170704819D01*
X193928571Y-170704819D02*
X194214285Y-170704819D01*
X194214285Y-170704819D02*
X194309523Y-170657200D01*
X194309523Y-170657200D02*
X194357142Y-170609580D01*
X212259580Y-144207142D02*
X212307200Y-144159523D01*
X212307200Y-144159523D02*
X212354819Y-144016666D01*
X212354819Y-144016666D02*
X212354819Y-143921428D01*
X212354819Y-143921428D02*
X212307200Y-143778571D01*
X212307200Y-143778571D02*
X212211961Y-143683333D01*
X212211961Y-143683333D02*
X212116723Y-143635714D01*
X212116723Y-143635714D02*
X211926247Y-143588095D01*
X211926247Y-143588095D02*
X211783390Y-143588095D01*
X211783390Y-143588095D02*
X211592914Y-143635714D01*
X211592914Y-143635714D02*
X211497676Y-143683333D01*
X211497676Y-143683333D02*
X211402438Y-143778571D01*
X211402438Y-143778571D02*
X211354819Y-143921428D01*
X211354819Y-143921428D02*
X211354819Y-144016666D01*
X211354819Y-144016666D02*
X211402438Y-144159523D01*
X211402438Y-144159523D02*
X211450057Y-144207142D01*
X212354819Y-145159523D02*
X212354819Y-144588095D01*
X212354819Y-144873809D02*
X211354819Y-144873809D01*
X211354819Y-144873809D02*
X211497676Y-144778571D01*
X211497676Y-144778571D02*
X211592914Y-144683333D01*
X211592914Y-144683333D02*
X211640533Y-144588095D01*
X211450057Y-145540476D02*
X211402438Y-145588095D01*
X211402438Y-145588095D02*
X211354819Y-145683333D01*
X211354819Y-145683333D02*
X211354819Y-145921428D01*
X211354819Y-145921428D02*
X211402438Y-146016666D01*
X211402438Y-146016666D02*
X211450057Y-146064285D01*
X211450057Y-146064285D02*
X211545295Y-146111904D01*
X211545295Y-146111904D02*
X211640533Y-146111904D01*
X211640533Y-146111904D02*
X211783390Y-146064285D01*
X211783390Y-146064285D02*
X212354819Y-145492857D01*
X212354819Y-145492857D02*
X212354819Y-146111904D01*
X195692857Y-159204819D02*
X196026190Y-158728628D01*
X196264285Y-159204819D02*
X196264285Y-158204819D01*
X196264285Y-158204819D02*
X195883333Y-158204819D01*
X195883333Y-158204819D02*
X195788095Y-158252438D01*
X195788095Y-158252438D02*
X195740476Y-158300057D01*
X195740476Y-158300057D02*
X195692857Y-158395295D01*
X195692857Y-158395295D02*
X195692857Y-158538152D01*
X195692857Y-158538152D02*
X195740476Y-158633390D01*
X195740476Y-158633390D02*
X195788095Y-158681009D01*
X195788095Y-158681009D02*
X195883333Y-158728628D01*
X195883333Y-158728628D02*
X196264285Y-158728628D01*
X195311904Y-158300057D02*
X195264285Y-158252438D01*
X195264285Y-158252438D02*
X195169047Y-158204819D01*
X195169047Y-158204819D02*
X194930952Y-158204819D01*
X194930952Y-158204819D02*
X194835714Y-158252438D01*
X194835714Y-158252438D02*
X194788095Y-158300057D01*
X194788095Y-158300057D02*
X194740476Y-158395295D01*
X194740476Y-158395295D02*
X194740476Y-158490533D01*
X194740476Y-158490533D02*
X194788095Y-158633390D01*
X194788095Y-158633390D02*
X195359523Y-159204819D01*
X195359523Y-159204819D02*
X194740476Y-159204819D01*
X194169047Y-158633390D02*
X194264285Y-158585771D01*
X194264285Y-158585771D02*
X194311904Y-158538152D01*
X194311904Y-158538152D02*
X194359523Y-158442914D01*
X194359523Y-158442914D02*
X194359523Y-158395295D01*
X194359523Y-158395295D02*
X194311904Y-158300057D01*
X194311904Y-158300057D02*
X194264285Y-158252438D01*
X194264285Y-158252438D02*
X194169047Y-158204819D01*
X194169047Y-158204819D02*
X193978571Y-158204819D01*
X193978571Y-158204819D02*
X193883333Y-158252438D01*
X193883333Y-158252438D02*
X193835714Y-158300057D01*
X193835714Y-158300057D02*
X193788095Y-158395295D01*
X193788095Y-158395295D02*
X193788095Y-158442914D01*
X193788095Y-158442914D02*
X193835714Y-158538152D01*
X193835714Y-158538152D02*
X193883333Y-158585771D01*
X193883333Y-158585771D02*
X193978571Y-158633390D01*
X193978571Y-158633390D02*
X194169047Y-158633390D01*
X194169047Y-158633390D02*
X194264285Y-158681009D01*
X194264285Y-158681009D02*
X194311904Y-158728628D01*
X194311904Y-158728628D02*
X194359523Y-158823866D01*
X194359523Y-158823866D02*
X194359523Y-159014342D01*
X194359523Y-159014342D02*
X194311904Y-159109580D01*
X194311904Y-159109580D02*
X194264285Y-159157200D01*
X194264285Y-159157200D02*
X194169047Y-159204819D01*
X194169047Y-159204819D02*
X193978571Y-159204819D01*
X193978571Y-159204819D02*
X193883333Y-159157200D01*
X193883333Y-159157200D02*
X193835714Y-159109580D01*
X193835714Y-159109580D02*
X193788095Y-159014342D01*
X193788095Y-159014342D02*
X193788095Y-158823866D01*
X193788095Y-158823866D02*
X193835714Y-158728628D01*
X193835714Y-158728628D02*
X193883333Y-158681009D01*
X193883333Y-158681009D02*
X193978571Y-158633390D01*
X225650057Y-128279760D02*
X225602438Y-128184522D01*
X225602438Y-128184522D02*
X225507200Y-128089284D01*
X225507200Y-128089284D02*
X225364342Y-127946427D01*
X225364342Y-127946427D02*
X225316723Y-127851189D01*
X225316723Y-127851189D02*
X225316723Y-127755951D01*
X225554819Y-127803570D02*
X225507200Y-127708332D01*
X225507200Y-127708332D02*
X225411961Y-127613094D01*
X225411961Y-127613094D02*
X225221485Y-127565475D01*
X225221485Y-127565475D02*
X224888152Y-127565475D01*
X224888152Y-127565475D02*
X224697676Y-127613094D01*
X224697676Y-127613094D02*
X224602438Y-127708332D01*
X224602438Y-127708332D02*
X224554819Y-127803570D01*
X224554819Y-127803570D02*
X224554819Y-127994046D01*
X224554819Y-127994046D02*
X224602438Y-128089284D01*
X224602438Y-128089284D02*
X224697676Y-128184522D01*
X224697676Y-128184522D02*
X224888152Y-128232141D01*
X224888152Y-128232141D02*
X225221485Y-128232141D01*
X225221485Y-128232141D02*
X225411961Y-128184522D01*
X225411961Y-128184522D02*
X225507200Y-128089284D01*
X225507200Y-128089284D02*
X225554819Y-127994046D01*
X225554819Y-127994046D02*
X225554819Y-127803570D01*
X224888152Y-129089284D02*
X225554819Y-129089284D01*
X224507200Y-128851189D02*
X225221485Y-128613094D01*
X225221485Y-128613094D02*
X225221485Y-129232141D01*
X213576190Y-169378628D02*
X213576190Y-169854819D01*
X213909523Y-168854819D02*
X213576190Y-169378628D01*
X213576190Y-169378628D02*
X213242857Y-168854819D01*
X212957142Y-168950057D02*
X212909523Y-168902438D01*
X212909523Y-168902438D02*
X212814285Y-168854819D01*
X212814285Y-168854819D02*
X212576190Y-168854819D01*
X212576190Y-168854819D02*
X212480952Y-168902438D01*
X212480952Y-168902438D02*
X212433333Y-168950057D01*
X212433333Y-168950057D02*
X212385714Y-169045295D01*
X212385714Y-169045295D02*
X212385714Y-169140533D01*
X212385714Y-169140533D02*
X212433333Y-169283390D01*
X212433333Y-169283390D02*
X213004761Y-169854819D01*
X213004761Y-169854819D02*
X212385714Y-169854819D01*
X201784819Y-139647143D02*
X201308628Y-139313810D01*
X201784819Y-139075715D02*
X200784819Y-139075715D01*
X200784819Y-139075715D02*
X200784819Y-139456667D01*
X200784819Y-139456667D02*
X200832438Y-139551905D01*
X200832438Y-139551905D02*
X200880057Y-139599524D01*
X200880057Y-139599524D02*
X200975295Y-139647143D01*
X200975295Y-139647143D02*
X201118152Y-139647143D01*
X201118152Y-139647143D02*
X201213390Y-139599524D01*
X201213390Y-139599524D02*
X201261009Y-139551905D01*
X201261009Y-139551905D02*
X201308628Y-139456667D01*
X201308628Y-139456667D02*
X201308628Y-139075715D01*
X201213390Y-140218572D02*
X201165771Y-140123334D01*
X201165771Y-140123334D02*
X201118152Y-140075715D01*
X201118152Y-140075715D02*
X201022914Y-140028096D01*
X201022914Y-140028096D02*
X200975295Y-140028096D01*
X200975295Y-140028096D02*
X200880057Y-140075715D01*
X200880057Y-140075715D02*
X200832438Y-140123334D01*
X200832438Y-140123334D02*
X200784819Y-140218572D01*
X200784819Y-140218572D02*
X200784819Y-140409048D01*
X200784819Y-140409048D02*
X200832438Y-140504286D01*
X200832438Y-140504286D02*
X200880057Y-140551905D01*
X200880057Y-140551905D02*
X200975295Y-140599524D01*
X200975295Y-140599524D02*
X201022914Y-140599524D01*
X201022914Y-140599524D02*
X201118152Y-140551905D01*
X201118152Y-140551905D02*
X201165771Y-140504286D01*
X201165771Y-140504286D02*
X201213390Y-140409048D01*
X201213390Y-140409048D02*
X201213390Y-140218572D01*
X201213390Y-140218572D02*
X201261009Y-140123334D01*
X201261009Y-140123334D02*
X201308628Y-140075715D01*
X201308628Y-140075715D02*
X201403866Y-140028096D01*
X201403866Y-140028096D02*
X201594342Y-140028096D01*
X201594342Y-140028096D02*
X201689580Y-140075715D01*
X201689580Y-140075715D02*
X201737200Y-140123334D01*
X201737200Y-140123334D02*
X201784819Y-140218572D01*
X201784819Y-140218572D02*
X201784819Y-140409048D01*
X201784819Y-140409048D02*
X201737200Y-140504286D01*
X201737200Y-140504286D02*
X201689580Y-140551905D01*
X201689580Y-140551905D02*
X201594342Y-140599524D01*
X201594342Y-140599524D02*
X201403866Y-140599524D01*
X201403866Y-140599524D02*
X201308628Y-140551905D01*
X201308628Y-140551905D02*
X201261009Y-140504286D01*
X201261009Y-140504286D02*
X201213390Y-140409048D01*
X201213390Y-141170953D02*
X201165771Y-141075715D01*
X201165771Y-141075715D02*
X201118152Y-141028096D01*
X201118152Y-141028096D02*
X201022914Y-140980477D01*
X201022914Y-140980477D02*
X200975295Y-140980477D01*
X200975295Y-140980477D02*
X200880057Y-141028096D01*
X200880057Y-141028096D02*
X200832438Y-141075715D01*
X200832438Y-141075715D02*
X200784819Y-141170953D01*
X200784819Y-141170953D02*
X200784819Y-141361429D01*
X200784819Y-141361429D02*
X200832438Y-141456667D01*
X200832438Y-141456667D02*
X200880057Y-141504286D01*
X200880057Y-141504286D02*
X200975295Y-141551905D01*
X200975295Y-141551905D02*
X201022914Y-141551905D01*
X201022914Y-141551905D02*
X201118152Y-141504286D01*
X201118152Y-141504286D02*
X201165771Y-141456667D01*
X201165771Y-141456667D02*
X201213390Y-141361429D01*
X201213390Y-141361429D02*
X201213390Y-141170953D01*
X201213390Y-141170953D02*
X201261009Y-141075715D01*
X201261009Y-141075715D02*
X201308628Y-141028096D01*
X201308628Y-141028096D02*
X201403866Y-140980477D01*
X201403866Y-140980477D02*
X201594342Y-140980477D01*
X201594342Y-140980477D02*
X201689580Y-141028096D01*
X201689580Y-141028096D02*
X201737200Y-141075715D01*
X201737200Y-141075715D02*
X201784819Y-141170953D01*
X201784819Y-141170953D02*
X201784819Y-141361429D01*
X201784819Y-141361429D02*
X201737200Y-141456667D01*
X201737200Y-141456667D02*
X201689580Y-141504286D01*
X201689580Y-141504286D02*
X201594342Y-141551905D01*
X201594342Y-141551905D02*
X201403866Y-141551905D01*
X201403866Y-141551905D02*
X201308628Y-141504286D01*
X201308628Y-141504286D02*
X201261009Y-141456667D01*
X201261009Y-141456667D02*
X201213390Y-141361429D01*
X220442857Y-162519580D02*
X220490476Y-162567200D01*
X220490476Y-162567200D02*
X220633333Y-162614819D01*
X220633333Y-162614819D02*
X220728571Y-162614819D01*
X220728571Y-162614819D02*
X220871428Y-162567200D01*
X220871428Y-162567200D02*
X220966666Y-162471961D01*
X220966666Y-162471961D02*
X221014285Y-162376723D01*
X221014285Y-162376723D02*
X221061904Y-162186247D01*
X221061904Y-162186247D02*
X221061904Y-162043390D01*
X221061904Y-162043390D02*
X221014285Y-161852914D01*
X221014285Y-161852914D02*
X220966666Y-161757676D01*
X220966666Y-161757676D02*
X220871428Y-161662438D01*
X220871428Y-161662438D02*
X220728571Y-161614819D01*
X220728571Y-161614819D02*
X220633333Y-161614819D01*
X220633333Y-161614819D02*
X220490476Y-161662438D01*
X220490476Y-161662438D02*
X220442857Y-161710057D01*
X219490476Y-162614819D02*
X220061904Y-162614819D01*
X219776190Y-162614819D02*
X219776190Y-161614819D01*
X219776190Y-161614819D02*
X219871428Y-161757676D01*
X219871428Y-161757676D02*
X219966666Y-161852914D01*
X219966666Y-161852914D02*
X220061904Y-161900533D01*
X219157142Y-161614819D02*
X218538095Y-161614819D01*
X218538095Y-161614819D02*
X218871428Y-161995771D01*
X218871428Y-161995771D02*
X218728571Y-161995771D01*
X218728571Y-161995771D02*
X218633333Y-162043390D01*
X218633333Y-162043390D02*
X218585714Y-162091009D01*
X218585714Y-162091009D02*
X218538095Y-162186247D01*
X218538095Y-162186247D02*
X218538095Y-162424342D01*
X218538095Y-162424342D02*
X218585714Y-162519580D01*
X218585714Y-162519580D02*
X218633333Y-162567200D01*
X218633333Y-162567200D02*
X218728571Y-162614819D01*
X218728571Y-162614819D02*
X219014285Y-162614819D01*
X219014285Y-162614819D02*
X219109523Y-162567200D01*
X219109523Y-162567200D02*
X219157142Y-162519580D01*
X232666666Y-150795180D02*
X232666666Y-150080895D01*
X232666666Y-150080895D02*
X232619047Y-149938038D01*
X232619047Y-149938038D02*
X232523809Y-149842800D01*
X232523809Y-149842800D02*
X232380952Y-149795180D01*
X232380952Y-149795180D02*
X232285714Y-149795180D01*
X233619047Y-150795180D02*
X233142857Y-150795180D01*
X233142857Y-150795180D02*
X233095238Y-150318990D01*
X233095238Y-150318990D02*
X233142857Y-150366609D01*
X233142857Y-150366609D02*
X233238095Y-150414228D01*
X233238095Y-150414228D02*
X233476190Y-150414228D01*
X233476190Y-150414228D02*
X233571428Y-150366609D01*
X233571428Y-150366609D02*
X233619047Y-150318990D01*
X233619047Y-150318990D02*
X233666666Y-150223752D01*
X233666666Y-150223752D02*
X233666666Y-149985657D01*
X233666666Y-149985657D02*
X233619047Y-149890419D01*
X233619047Y-149890419D02*
X233571428Y-149842800D01*
X233571428Y-149842800D02*
X233476190Y-149795180D01*
X233476190Y-149795180D02*
X233238095Y-149795180D01*
X233238095Y-149795180D02*
X233142857Y-149842800D01*
X233142857Y-149842800D02*
X233095238Y-149890419D01*
X211854819Y-171857142D02*
X211378628Y-171523809D01*
X211854819Y-171285714D02*
X210854819Y-171285714D01*
X210854819Y-171285714D02*
X210854819Y-171666666D01*
X210854819Y-171666666D02*
X210902438Y-171761904D01*
X210902438Y-171761904D02*
X210950057Y-171809523D01*
X210950057Y-171809523D02*
X211045295Y-171857142D01*
X211045295Y-171857142D02*
X211188152Y-171857142D01*
X211188152Y-171857142D02*
X211283390Y-171809523D01*
X211283390Y-171809523D02*
X211331009Y-171761904D01*
X211331009Y-171761904D02*
X211378628Y-171666666D01*
X211378628Y-171666666D02*
X211378628Y-171285714D01*
X210854819Y-172190476D02*
X210854819Y-172857142D01*
X210854819Y-172857142D02*
X211854819Y-172428571D01*
X211854819Y-173761904D02*
X211854819Y-173190476D01*
X211854819Y-173476190D02*
X210854819Y-173476190D01*
X210854819Y-173476190D02*
X210997676Y-173380952D01*
X210997676Y-173380952D02*
X211092914Y-173285714D01*
X211092914Y-173285714D02*
X211140533Y-173190476D01*
X189142857Y-92359580D02*
X189190476Y-92407200D01*
X189190476Y-92407200D02*
X189333333Y-92454819D01*
X189333333Y-92454819D02*
X189428571Y-92454819D01*
X189428571Y-92454819D02*
X189571428Y-92407200D01*
X189571428Y-92407200D02*
X189666666Y-92311961D01*
X189666666Y-92311961D02*
X189714285Y-92216723D01*
X189714285Y-92216723D02*
X189761904Y-92026247D01*
X189761904Y-92026247D02*
X189761904Y-91883390D01*
X189761904Y-91883390D02*
X189714285Y-91692914D01*
X189714285Y-91692914D02*
X189666666Y-91597676D01*
X189666666Y-91597676D02*
X189571428Y-91502438D01*
X189571428Y-91502438D02*
X189428571Y-91454819D01*
X189428571Y-91454819D02*
X189333333Y-91454819D01*
X189333333Y-91454819D02*
X189190476Y-91502438D01*
X189190476Y-91502438D02*
X189142857Y-91550057D01*
X188809523Y-91454819D02*
X188190476Y-91454819D01*
X188190476Y-91454819D02*
X188523809Y-91835771D01*
X188523809Y-91835771D02*
X188380952Y-91835771D01*
X188380952Y-91835771D02*
X188285714Y-91883390D01*
X188285714Y-91883390D02*
X188238095Y-91931009D01*
X188238095Y-91931009D02*
X188190476Y-92026247D01*
X188190476Y-92026247D02*
X188190476Y-92264342D01*
X188190476Y-92264342D02*
X188238095Y-92359580D01*
X188238095Y-92359580D02*
X188285714Y-92407200D01*
X188285714Y-92407200D02*
X188380952Y-92454819D01*
X188380952Y-92454819D02*
X188666666Y-92454819D01*
X188666666Y-92454819D02*
X188761904Y-92407200D01*
X188761904Y-92407200D02*
X188809523Y-92359580D01*
X187857142Y-91454819D02*
X187238095Y-91454819D01*
X187238095Y-91454819D02*
X187571428Y-91835771D01*
X187571428Y-91835771D02*
X187428571Y-91835771D01*
X187428571Y-91835771D02*
X187333333Y-91883390D01*
X187333333Y-91883390D02*
X187285714Y-91931009D01*
X187285714Y-91931009D02*
X187238095Y-92026247D01*
X187238095Y-92026247D02*
X187238095Y-92264342D01*
X187238095Y-92264342D02*
X187285714Y-92359580D01*
X187285714Y-92359580D02*
X187333333Y-92407200D01*
X187333333Y-92407200D02*
X187428571Y-92454819D01*
X187428571Y-92454819D02*
X187714285Y-92454819D01*
X187714285Y-92454819D02*
X187809523Y-92407200D01*
X187809523Y-92407200D02*
X187857142Y-92359580D01*
X232742857Y-167504819D02*
X233076190Y-167028628D01*
X233314285Y-167504819D02*
X233314285Y-166504819D01*
X233314285Y-166504819D02*
X232933333Y-166504819D01*
X232933333Y-166504819D02*
X232838095Y-166552438D01*
X232838095Y-166552438D02*
X232790476Y-166600057D01*
X232790476Y-166600057D02*
X232742857Y-166695295D01*
X232742857Y-166695295D02*
X232742857Y-166838152D01*
X232742857Y-166838152D02*
X232790476Y-166933390D01*
X232790476Y-166933390D02*
X232838095Y-166981009D01*
X232838095Y-166981009D02*
X232933333Y-167028628D01*
X232933333Y-167028628D02*
X233314285Y-167028628D01*
X232171428Y-166933390D02*
X232266666Y-166885771D01*
X232266666Y-166885771D02*
X232314285Y-166838152D01*
X232314285Y-166838152D02*
X232361904Y-166742914D01*
X232361904Y-166742914D02*
X232361904Y-166695295D01*
X232361904Y-166695295D02*
X232314285Y-166600057D01*
X232314285Y-166600057D02*
X232266666Y-166552438D01*
X232266666Y-166552438D02*
X232171428Y-166504819D01*
X232171428Y-166504819D02*
X231980952Y-166504819D01*
X231980952Y-166504819D02*
X231885714Y-166552438D01*
X231885714Y-166552438D02*
X231838095Y-166600057D01*
X231838095Y-166600057D02*
X231790476Y-166695295D01*
X231790476Y-166695295D02*
X231790476Y-166742914D01*
X231790476Y-166742914D02*
X231838095Y-166838152D01*
X231838095Y-166838152D02*
X231885714Y-166885771D01*
X231885714Y-166885771D02*
X231980952Y-166933390D01*
X231980952Y-166933390D02*
X232171428Y-166933390D01*
X232171428Y-166933390D02*
X232266666Y-166981009D01*
X232266666Y-166981009D02*
X232314285Y-167028628D01*
X232314285Y-167028628D02*
X232361904Y-167123866D01*
X232361904Y-167123866D02*
X232361904Y-167314342D01*
X232361904Y-167314342D02*
X232314285Y-167409580D01*
X232314285Y-167409580D02*
X232266666Y-167457200D01*
X232266666Y-167457200D02*
X232171428Y-167504819D01*
X232171428Y-167504819D02*
X231980952Y-167504819D01*
X231980952Y-167504819D02*
X231885714Y-167457200D01*
X231885714Y-167457200D02*
X231838095Y-167409580D01*
X231838095Y-167409580D02*
X231790476Y-167314342D01*
X231790476Y-167314342D02*
X231790476Y-167123866D01*
X231790476Y-167123866D02*
X231838095Y-167028628D01*
X231838095Y-167028628D02*
X231885714Y-166981009D01*
X231885714Y-166981009D02*
X231980952Y-166933390D01*
X231409523Y-166600057D02*
X231361904Y-166552438D01*
X231361904Y-166552438D02*
X231266666Y-166504819D01*
X231266666Y-166504819D02*
X231028571Y-166504819D01*
X231028571Y-166504819D02*
X230933333Y-166552438D01*
X230933333Y-166552438D02*
X230885714Y-166600057D01*
X230885714Y-166600057D02*
X230838095Y-166695295D01*
X230838095Y-166695295D02*
X230838095Y-166790533D01*
X230838095Y-166790533D02*
X230885714Y-166933390D01*
X230885714Y-166933390D02*
X231457142Y-167504819D01*
X231457142Y-167504819D02*
X230838095Y-167504819D01*
X237642857Y-172454819D02*
X237976190Y-171978628D01*
X238214285Y-172454819D02*
X238214285Y-171454819D01*
X238214285Y-171454819D02*
X237833333Y-171454819D01*
X237833333Y-171454819D02*
X237738095Y-171502438D01*
X237738095Y-171502438D02*
X237690476Y-171550057D01*
X237690476Y-171550057D02*
X237642857Y-171645295D01*
X237642857Y-171645295D02*
X237642857Y-171788152D01*
X237642857Y-171788152D02*
X237690476Y-171883390D01*
X237690476Y-171883390D02*
X237738095Y-171931009D01*
X237738095Y-171931009D02*
X237833333Y-171978628D01*
X237833333Y-171978628D02*
X238214285Y-171978628D01*
X237071428Y-171883390D02*
X237166666Y-171835771D01*
X237166666Y-171835771D02*
X237214285Y-171788152D01*
X237214285Y-171788152D02*
X237261904Y-171692914D01*
X237261904Y-171692914D02*
X237261904Y-171645295D01*
X237261904Y-171645295D02*
X237214285Y-171550057D01*
X237214285Y-171550057D02*
X237166666Y-171502438D01*
X237166666Y-171502438D02*
X237071428Y-171454819D01*
X237071428Y-171454819D02*
X236880952Y-171454819D01*
X236880952Y-171454819D02*
X236785714Y-171502438D01*
X236785714Y-171502438D02*
X236738095Y-171550057D01*
X236738095Y-171550057D02*
X236690476Y-171645295D01*
X236690476Y-171645295D02*
X236690476Y-171692914D01*
X236690476Y-171692914D02*
X236738095Y-171788152D01*
X236738095Y-171788152D02*
X236785714Y-171835771D01*
X236785714Y-171835771D02*
X236880952Y-171883390D01*
X236880952Y-171883390D02*
X237071428Y-171883390D01*
X237071428Y-171883390D02*
X237166666Y-171931009D01*
X237166666Y-171931009D02*
X237214285Y-171978628D01*
X237214285Y-171978628D02*
X237261904Y-172073866D01*
X237261904Y-172073866D02*
X237261904Y-172264342D01*
X237261904Y-172264342D02*
X237214285Y-172359580D01*
X237214285Y-172359580D02*
X237166666Y-172407200D01*
X237166666Y-172407200D02*
X237071428Y-172454819D01*
X237071428Y-172454819D02*
X236880952Y-172454819D01*
X236880952Y-172454819D02*
X236785714Y-172407200D01*
X236785714Y-172407200D02*
X236738095Y-172359580D01*
X236738095Y-172359580D02*
X236690476Y-172264342D01*
X236690476Y-172264342D02*
X236690476Y-172073866D01*
X236690476Y-172073866D02*
X236738095Y-171978628D01*
X236738095Y-171978628D02*
X236785714Y-171931009D01*
X236785714Y-171931009D02*
X236880952Y-171883390D01*
X235833333Y-171788152D02*
X235833333Y-172454819D01*
X236071428Y-171407200D02*
X236309523Y-172121485D01*
X236309523Y-172121485D02*
X235690476Y-172121485D01*
X195692857Y-160504819D02*
X196026190Y-160028628D01*
X196264285Y-160504819D02*
X196264285Y-159504819D01*
X196264285Y-159504819D02*
X195883333Y-159504819D01*
X195883333Y-159504819D02*
X195788095Y-159552438D01*
X195788095Y-159552438D02*
X195740476Y-159600057D01*
X195740476Y-159600057D02*
X195692857Y-159695295D01*
X195692857Y-159695295D02*
X195692857Y-159838152D01*
X195692857Y-159838152D02*
X195740476Y-159933390D01*
X195740476Y-159933390D02*
X195788095Y-159981009D01*
X195788095Y-159981009D02*
X195883333Y-160028628D01*
X195883333Y-160028628D02*
X196264285Y-160028628D01*
X195311904Y-159600057D02*
X195264285Y-159552438D01*
X195264285Y-159552438D02*
X195169047Y-159504819D01*
X195169047Y-159504819D02*
X194930952Y-159504819D01*
X194930952Y-159504819D02*
X194835714Y-159552438D01*
X194835714Y-159552438D02*
X194788095Y-159600057D01*
X194788095Y-159600057D02*
X194740476Y-159695295D01*
X194740476Y-159695295D02*
X194740476Y-159790533D01*
X194740476Y-159790533D02*
X194788095Y-159933390D01*
X194788095Y-159933390D02*
X195359523Y-160504819D01*
X195359523Y-160504819D02*
X194740476Y-160504819D01*
X193883333Y-159838152D02*
X193883333Y-160504819D01*
X194121428Y-159457200D02*
X194359523Y-160171485D01*
X194359523Y-160171485D02*
X193740476Y-160171485D01*
X237642857Y-173704819D02*
X237976190Y-173228628D01*
X238214285Y-173704819D02*
X238214285Y-172704819D01*
X238214285Y-172704819D02*
X237833333Y-172704819D01*
X237833333Y-172704819D02*
X237738095Y-172752438D01*
X237738095Y-172752438D02*
X237690476Y-172800057D01*
X237690476Y-172800057D02*
X237642857Y-172895295D01*
X237642857Y-172895295D02*
X237642857Y-173038152D01*
X237642857Y-173038152D02*
X237690476Y-173133390D01*
X237690476Y-173133390D02*
X237738095Y-173181009D01*
X237738095Y-173181009D02*
X237833333Y-173228628D01*
X237833333Y-173228628D02*
X238214285Y-173228628D01*
X237071428Y-173133390D02*
X237166666Y-173085771D01*
X237166666Y-173085771D02*
X237214285Y-173038152D01*
X237214285Y-173038152D02*
X237261904Y-172942914D01*
X237261904Y-172942914D02*
X237261904Y-172895295D01*
X237261904Y-172895295D02*
X237214285Y-172800057D01*
X237214285Y-172800057D02*
X237166666Y-172752438D01*
X237166666Y-172752438D02*
X237071428Y-172704819D01*
X237071428Y-172704819D02*
X236880952Y-172704819D01*
X236880952Y-172704819D02*
X236785714Y-172752438D01*
X236785714Y-172752438D02*
X236738095Y-172800057D01*
X236738095Y-172800057D02*
X236690476Y-172895295D01*
X236690476Y-172895295D02*
X236690476Y-172942914D01*
X236690476Y-172942914D02*
X236738095Y-173038152D01*
X236738095Y-173038152D02*
X236785714Y-173085771D01*
X236785714Y-173085771D02*
X236880952Y-173133390D01*
X236880952Y-173133390D02*
X237071428Y-173133390D01*
X237071428Y-173133390D02*
X237166666Y-173181009D01*
X237166666Y-173181009D02*
X237214285Y-173228628D01*
X237214285Y-173228628D02*
X237261904Y-173323866D01*
X237261904Y-173323866D02*
X237261904Y-173514342D01*
X237261904Y-173514342D02*
X237214285Y-173609580D01*
X237214285Y-173609580D02*
X237166666Y-173657200D01*
X237166666Y-173657200D02*
X237071428Y-173704819D01*
X237071428Y-173704819D02*
X236880952Y-173704819D01*
X236880952Y-173704819D02*
X236785714Y-173657200D01*
X236785714Y-173657200D02*
X236738095Y-173609580D01*
X236738095Y-173609580D02*
X236690476Y-173514342D01*
X236690476Y-173514342D02*
X236690476Y-173323866D01*
X236690476Y-173323866D02*
X236738095Y-173228628D01*
X236738095Y-173228628D02*
X236785714Y-173181009D01*
X236785714Y-173181009D02*
X236880952Y-173133390D01*
X236357142Y-172704819D02*
X235738095Y-172704819D01*
X235738095Y-172704819D02*
X236071428Y-173085771D01*
X236071428Y-173085771D02*
X235928571Y-173085771D01*
X235928571Y-173085771D02*
X235833333Y-173133390D01*
X235833333Y-173133390D02*
X235785714Y-173181009D01*
X235785714Y-173181009D02*
X235738095Y-173276247D01*
X235738095Y-173276247D02*
X235738095Y-173514342D01*
X235738095Y-173514342D02*
X235785714Y-173609580D01*
X235785714Y-173609580D02*
X235833333Y-173657200D01*
X235833333Y-173657200D02*
X235928571Y-173704819D01*
X235928571Y-173704819D02*
X236214285Y-173704819D01*
X236214285Y-173704819D02*
X236309523Y-173657200D01*
X236309523Y-173657200D02*
X236357142Y-173609580D01*
X195642857Y-167704819D02*
X195976190Y-167228628D01*
X196214285Y-167704819D02*
X196214285Y-166704819D01*
X196214285Y-166704819D02*
X195833333Y-166704819D01*
X195833333Y-166704819D02*
X195738095Y-166752438D01*
X195738095Y-166752438D02*
X195690476Y-166800057D01*
X195690476Y-166800057D02*
X195642857Y-166895295D01*
X195642857Y-166895295D02*
X195642857Y-167038152D01*
X195642857Y-167038152D02*
X195690476Y-167133390D01*
X195690476Y-167133390D02*
X195738095Y-167181009D01*
X195738095Y-167181009D02*
X195833333Y-167228628D01*
X195833333Y-167228628D02*
X196214285Y-167228628D01*
X195309523Y-166704819D02*
X194690476Y-166704819D01*
X194690476Y-166704819D02*
X195023809Y-167085771D01*
X195023809Y-167085771D02*
X194880952Y-167085771D01*
X194880952Y-167085771D02*
X194785714Y-167133390D01*
X194785714Y-167133390D02*
X194738095Y-167181009D01*
X194738095Y-167181009D02*
X194690476Y-167276247D01*
X194690476Y-167276247D02*
X194690476Y-167514342D01*
X194690476Y-167514342D02*
X194738095Y-167609580D01*
X194738095Y-167609580D02*
X194785714Y-167657200D01*
X194785714Y-167657200D02*
X194880952Y-167704819D01*
X194880952Y-167704819D02*
X195166666Y-167704819D01*
X195166666Y-167704819D02*
X195261904Y-167657200D01*
X195261904Y-167657200D02*
X195309523Y-167609580D01*
X194214285Y-167704819D02*
X194023809Y-167704819D01*
X194023809Y-167704819D02*
X193928571Y-167657200D01*
X193928571Y-167657200D02*
X193880952Y-167609580D01*
X193880952Y-167609580D02*
X193785714Y-167466723D01*
X193785714Y-167466723D02*
X193738095Y-167276247D01*
X193738095Y-167276247D02*
X193738095Y-166895295D01*
X193738095Y-166895295D02*
X193785714Y-166800057D01*
X193785714Y-166800057D02*
X193833333Y-166752438D01*
X193833333Y-166752438D02*
X193928571Y-166704819D01*
X193928571Y-166704819D02*
X194119047Y-166704819D01*
X194119047Y-166704819D02*
X194214285Y-166752438D01*
X194214285Y-166752438D02*
X194261904Y-166800057D01*
X194261904Y-166800057D02*
X194309523Y-166895295D01*
X194309523Y-166895295D02*
X194309523Y-167133390D01*
X194309523Y-167133390D02*
X194261904Y-167228628D01*
X194261904Y-167228628D02*
X194214285Y-167276247D01*
X194214285Y-167276247D02*
X194119047Y-167323866D01*
X194119047Y-167323866D02*
X193928571Y-167323866D01*
X193928571Y-167323866D02*
X193833333Y-167276247D01*
X193833333Y-167276247D02*
X193785714Y-167228628D01*
X193785714Y-167228628D02*
X193738095Y-167133390D01*
X195642857Y-166204819D02*
X195976190Y-165728628D01*
X196214285Y-166204819D02*
X196214285Y-165204819D01*
X196214285Y-165204819D02*
X195833333Y-165204819D01*
X195833333Y-165204819D02*
X195738095Y-165252438D01*
X195738095Y-165252438D02*
X195690476Y-165300057D01*
X195690476Y-165300057D02*
X195642857Y-165395295D01*
X195642857Y-165395295D02*
X195642857Y-165538152D01*
X195642857Y-165538152D02*
X195690476Y-165633390D01*
X195690476Y-165633390D02*
X195738095Y-165681009D01*
X195738095Y-165681009D02*
X195833333Y-165728628D01*
X195833333Y-165728628D02*
X196214285Y-165728628D01*
X194785714Y-165538152D02*
X194785714Y-166204819D01*
X195023809Y-165157200D02*
X195261904Y-165871485D01*
X195261904Y-165871485D02*
X194642857Y-165871485D01*
X193738095Y-166204819D02*
X194309523Y-166204819D01*
X194023809Y-166204819D02*
X194023809Y-165204819D01*
X194023809Y-165204819D02*
X194119047Y-165347676D01*
X194119047Y-165347676D02*
X194214285Y-165442914D01*
X194214285Y-165442914D02*
X194309523Y-165490533D01*
X207699580Y-165947092D02*
X207747200Y-165899473D01*
X207747200Y-165899473D02*
X207794819Y-165756616D01*
X207794819Y-165756616D02*
X207794819Y-165661378D01*
X207794819Y-165661378D02*
X207747200Y-165518521D01*
X207747200Y-165518521D02*
X207651961Y-165423283D01*
X207651961Y-165423283D02*
X207556723Y-165375664D01*
X207556723Y-165375664D02*
X207366247Y-165328045D01*
X207366247Y-165328045D02*
X207223390Y-165328045D01*
X207223390Y-165328045D02*
X207032914Y-165375664D01*
X207032914Y-165375664D02*
X206937676Y-165423283D01*
X206937676Y-165423283D02*
X206842438Y-165518521D01*
X206842438Y-165518521D02*
X206794819Y-165661378D01*
X206794819Y-165661378D02*
X206794819Y-165756616D01*
X206794819Y-165756616D02*
X206842438Y-165899473D01*
X206842438Y-165899473D02*
X206890057Y-165947092D01*
X206890057Y-166328045D02*
X206842438Y-166375664D01*
X206842438Y-166375664D02*
X206794819Y-166470902D01*
X206794819Y-166470902D02*
X206794819Y-166708997D01*
X206794819Y-166708997D02*
X206842438Y-166804235D01*
X206842438Y-166804235D02*
X206890057Y-166851854D01*
X206890057Y-166851854D02*
X206985295Y-166899473D01*
X206985295Y-166899473D02*
X207080533Y-166899473D01*
X207080533Y-166899473D02*
X207223390Y-166851854D01*
X207223390Y-166851854D02*
X207794819Y-166280426D01*
X207794819Y-166280426D02*
X207794819Y-166899473D01*
X207794819Y-167851854D02*
X207794819Y-167280426D01*
X207794819Y-167566140D02*
X206794819Y-167566140D01*
X206794819Y-167566140D02*
X206937676Y-167470902D01*
X206937676Y-167470902D02*
X207032914Y-167375664D01*
X207032914Y-167375664D02*
X207080533Y-167280426D01*
X220533333Y-174654819D02*
X220533333Y-175369104D01*
X220533333Y-175369104D02*
X220580952Y-175511961D01*
X220580952Y-175511961D02*
X220676190Y-175607200D01*
X220676190Y-175607200D02*
X220819047Y-175654819D01*
X220819047Y-175654819D02*
X220914285Y-175654819D01*
X219914285Y-175083390D02*
X220009523Y-175035771D01*
X220009523Y-175035771D02*
X220057142Y-174988152D01*
X220057142Y-174988152D02*
X220104761Y-174892914D01*
X220104761Y-174892914D02*
X220104761Y-174845295D01*
X220104761Y-174845295D02*
X220057142Y-174750057D01*
X220057142Y-174750057D02*
X220009523Y-174702438D01*
X220009523Y-174702438D02*
X219914285Y-174654819D01*
X219914285Y-174654819D02*
X219723809Y-174654819D01*
X219723809Y-174654819D02*
X219628571Y-174702438D01*
X219628571Y-174702438D02*
X219580952Y-174750057D01*
X219580952Y-174750057D02*
X219533333Y-174845295D01*
X219533333Y-174845295D02*
X219533333Y-174892914D01*
X219533333Y-174892914D02*
X219580952Y-174988152D01*
X219580952Y-174988152D02*
X219628571Y-175035771D01*
X219628571Y-175035771D02*
X219723809Y-175083390D01*
X219723809Y-175083390D02*
X219914285Y-175083390D01*
X219914285Y-175083390D02*
X220009523Y-175131009D01*
X220009523Y-175131009D02*
X220057142Y-175178628D01*
X220057142Y-175178628D02*
X220104761Y-175273866D01*
X220104761Y-175273866D02*
X220104761Y-175464342D01*
X220104761Y-175464342D02*
X220057142Y-175559580D01*
X220057142Y-175559580D02*
X220009523Y-175607200D01*
X220009523Y-175607200D02*
X219914285Y-175654819D01*
X219914285Y-175654819D02*
X219723809Y-175654819D01*
X219723809Y-175654819D02*
X219628571Y-175607200D01*
X219628571Y-175607200D02*
X219580952Y-175559580D01*
X219580952Y-175559580D02*
X219533333Y-175464342D01*
X219533333Y-175464342D02*
X219533333Y-175273866D01*
X219533333Y-175273866D02*
X219580952Y-175178628D01*
X219580952Y-175178628D02*
X219628571Y-175131009D01*
X219628571Y-175131009D02*
X219723809Y-175083390D01*
X217854819Y-171057142D02*
X217378628Y-170723809D01*
X217854819Y-170485714D02*
X216854819Y-170485714D01*
X216854819Y-170485714D02*
X216854819Y-170866666D01*
X216854819Y-170866666D02*
X216902438Y-170961904D01*
X216902438Y-170961904D02*
X216950057Y-171009523D01*
X216950057Y-171009523D02*
X217045295Y-171057142D01*
X217045295Y-171057142D02*
X217188152Y-171057142D01*
X217188152Y-171057142D02*
X217283390Y-171009523D01*
X217283390Y-171009523D02*
X217331009Y-170961904D01*
X217331009Y-170961904D02*
X217378628Y-170866666D01*
X217378628Y-170866666D02*
X217378628Y-170485714D01*
X217283390Y-171628571D02*
X217235771Y-171533333D01*
X217235771Y-171533333D02*
X217188152Y-171485714D01*
X217188152Y-171485714D02*
X217092914Y-171438095D01*
X217092914Y-171438095D02*
X217045295Y-171438095D01*
X217045295Y-171438095D02*
X216950057Y-171485714D01*
X216950057Y-171485714D02*
X216902438Y-171533333D01*
X216902438Y-171533333D02*
X216854819Y-171628571D01*
X216854819Y-171628571D02*
X216854819Y-171819047D01*
X216854819Y-171819047D02*
X216902438Y-171914285D01*
X216902438Y-171914285D02*
X216950057Y-171961904D01*
X216950057Y-171961904D02*
X217045295Y-172009523D01*
X217045295Y-172009523D02*
X217092914Y-172009523D01*
X217092914Y-172009523D02*
X217188152Y-171961904D01*
X217188152Y-171961904D02*
X217235771Y-171914285D01*
X217235771Y-171914285D02*
X217283390Y-171819047D01*
X217283390Y-171819047D02*
X217283390Y-171628571D01*
X217283390Y-171628571D02*
X217331009Y-171533333D01*
X217331009Y-171533333D02*
X217378628Y-171485714D01*
X217378628Y-171485714D02*
X217473866Y-171438095D01*
X217473866Y-171438095D02*
X217664342Y-171438095D01*
X217664342Y-171438095D02*
X217759580Y-171485714D01*
X217759580Y-171485714D02*
X217807200Y-171533333D01*
X217807200Y-171533333D02*
X217854819Y-171628571D01*
X217854819Y-171628571D02*
X217854819Y-171819047D01*
X217854819Y-171819047D02*
X217807200Y-171914285D01*
X217807200Y-171914285D02*
X217759580Y-171961904D01*
X217759580Y-171961904D02*
X217664342Y-172009523D01*
X217664342Y-172009523D02*
X217473866Y-172009523D01*
X217473866Y-172009523D02*
X217378628Y-171961904D01*
X217378628Y-171961904D02*
X217331009Y-171914285D01*
X217331009Y-171914285D02*
X217283390Y-171819047D01*
X216854819Y-172628571D02*
X216854819Y-172723809D01*
X216854819Y-172723809D02*
X216902438Y-172819047D01*
X216902438Y-172819047D02*
X216950057Y-172866666D01*
X216950057Y-172866666D02*
X217045295Y-172914285D01*
X217045295Y-172914285D02*
X217235771Y-172961904D01*
X217235771Y-172961904D02*
X217473866Y-172961904D01*
X217473866Y-172961904D02*
X217664342Y-172914285D01*
X217664342Y-172914285D02*
X217759580Y-172866666D01*
X217759580Y-172866666D02*
X217807200Y-172819047D01*
X217807200Y-172819047D02*
X217854819Y-172723809D01*
X217854819Y-172723809D02*
X217854819Y-172628571D01*
X217854819Y-172628571D02*
X217807200Y-172533333D01*
X217807200Y-172533333D02*
X217759580Y-172485714D01*
X217759580Y-172485714D02*
X217664342Y-172438095D01*
X217664342Y-172438095D02*
X217473866Y-172390476D01*
X217473866Y-172390476D02*
X217235771Y-172390476D01*
X217235771Y-172390476D02*
X217045295Y-172438095D01*
X217045295Y-172438095D02*
X216950057Y-172485714D01*
X216950057Y-172485714D02*
X216902438Y-172533333D01*
X216902438Y-172533333D02*
X216854819Y-172628571D01*
X217359580Y-142107142D02*
X217407200Y-142059523D01*
X217407200Y-142059523D02*
X217454819Y-141916666D01*
X217454819Y-141916666D02*
X217454819Y-141821428D01*
X217454819Y-141821428D02*
X217407200Y-141678571D01*
X217407200Y-141678571D02*
X217311961Y-141583333D01*
X217311961Y-141583333D02*
X217216723Y-141535714D01*
X217216723Y-141535714D02*
X217026247Y-141488095D01*
X217026247Y-141488095D02*
X216883390Y-141488095D01*
X216883390Y-141488095D02*
X216692914Y-141535714D01*
X216692914Y-141535714D02*
X216597676Y-141583333D01*
X216597676Y-141583333D02*
X216502438Y-141678571D01*
X216502438Y-141678571D02*
X216454819Y-141821428D01*
X216454819Y-141821428D02*
X216454819Y-141916666D01*
X216454819Y-141916666D02*
X216502438Y-142059523D01*
X216502438Y-142059523D02*
X216550057Y-142107142D01*
X217454819Y-143059523D02*
X217454819Y-142488095D01*
X217454819Y-142773809D02*
X216454819Y-142773809D01*
X216454819Y-142773809D02*
X216597676Y-142678571D01*
X216597676Y-142678571D02*
X216692914Y-142583333D01*
X216692914Y-142583333D02*
X216740533Y-142488095D01*
X216454819Y-143916666D02*
X216454819Y-143726190D01*
X216454819Y-143726190D02*
X216502438Y-143630952D01*
X216502438Y-143630952D02*
X216550057Y-143583333D01*
X216550057Y-143583333D02*
X216692914Y-143488095D01*
X216692914Y-143488095D02*
X216883390Y-143440476D01*
X216883390Y-143440476D02*
X217264342Y-143440476D01*
X217264342Y-143440476D02*
X217359580Y-143488095D01*
X217359580Y-143488095D02*
X217407200Y-143535714D01*
X217407200Y-143535714D02*
X217454819Y-143630952D01*
X217454819Y-143630952D02*
X217454819Y-143821428D01*
X217454819Y-143821428D02*
X217407200Y-143916666D01*
X217407200Y-143916666D02*
X217359580Y-143964285D01*
X217359580Y-143964285D02*
X217264342Y-144011904D01*
X217264342Y-144011904D02*
X217026247Y-144011904D01*
X217026247Y-144011904D02*
X216931009Y-143964285D01*
X216931009Y-143964285D02*
X216883390Y-143916666D01*
X216883390Y-143916666D02*
X216835771Y-143821428D01*
X216835771Y-143821428D02*
X216835771Y-143630952D01*
X216835771Y-143630952D02*
X216883390Y-143535714D01*
X216883390Y-143535714D02*
X216931009Y-143488095D01*
X216931009Y-143488095D02*
X217026247Y-143440476D01*
X200642857Y-148899580D02*
X200690476Y-148947200D01*
X200690476Y-148947200D02*
X200833333Y-148994819D01*
X200833333Y-148994819D02*
X200928571Y-148994819D01*
X200928571Y-148994819D02*
X201071428Y-148947200D01*
X201071428Y-148947200D02*
X201166666Y-148851961D01*
X201166666Y-148851961D02*
X201214285Y-148756723D01*
X201214285Y-148756723D02*
X201261904Y-148566247D01*
X201261904Y-148566247D02*
X201261904Y-148423390D01*
X201261904Y-148423390D02*
X201214285Y-148232914D01*
X201214285Y-148232914D02*
X201166666Y-148137676D01*
X201166666Y-148137676D02*
X201071428Y-148042438D01*
X201071428Y-148042438D02*
X200928571Y-147994819D01*
X200928571Y-147994819D02*
X200833333Y-147994819D01*
X200833333Y-147994819D02*
X200690476Y-148042438D01*
X200690476Y-148042438D02*
X200642857Y-148090057D01*
X199690476Y-148994819D02*
X200261904Y-148994819D01*
X199976190Y-148994819D02*
X199976190Y-147994819D01*
X199976190Y-147994819D02*
X200071428Y-148137676D01*
X200071428Y-148137676D02*
X200166666Y-148232914D01*
X200166666Y-148232914D02*
X200261904Y-148280533D01*
X198833333Y-148328152D02*
X198833333Y-148994819D01*
X199071428Y-147947200D02*
X199309523Y-148661485D01*
X199309523Y-148661485D02*
X198690476Y-148661485D01*
X192109580Y-160207142D02*
X192157200Y-160159523D01*
X192157200Y-160159523D02*
X192204819Y-160016666D01*
X192204819Y-160016666D02*
X192204819Y-159921428D01*
X192204819Y-159921428D02*
X192157200Y-159778571D01*
X192157200Y-159778571D02*
X192061961Y-159683333D01*
X192061961Y-159683333D02*
X191966723Y-159635714D01*
X191966723Y-159635714D02*
X191776247Y-159588095D01*
X191776247Y-159588095D02*
X191633390Y-159588095D01*
X191633390Y-159588095D02*
X191442914Y-159635714D01*
X191442914Y-159635714D02*
X191347676Y-159683333D01*
X191347676Y-159683333D02*
X191252438Y-159778571D01*
X191252438Y-159778571D02*
X191204819Y-159921428D01*
X191204819Y-159921428D02*
X191204819Y-160016666D01*
X191204819Y-160016666D02*
X191252438Y-160159523D01*
X191252438Y-160159523D02*
X191300057Y-160207142D01*
X192204819Y-161159523D02*
X192204819Y-160588095D01*
X192204819Y-160873809D02*
X191204819Y-160873809D01*
X191204819Y-160873809D02*
X191347676Y-160778571D01*
X191347676Y-160778571D02*
X191442914Y-160683333D01*
X191442914Y-160683333D02*
X191490533Y-160588095D01*
X191633390Y-161730952D02*
X191585771Y-161635714D01*
X191585771Y-161635714D02*
X191538152Y-161588095D01*
X191538152Y-161588095D02*
X191442914Y-161540476D01*
X191442914Y-161540476D02*
X191395295Y-161540476D01*
X191395295Y-161540476D02*
X191300057Y-161588095D01*
X191300057Y-161588095D02*
X191252438Y-161635714D01*
X191252438Y-161635714D02*
X191204819Y-161730952D01*
X191204819Y-161730952D02*
X191204819Y-161921428D01*
X191204819Y-161921428D02*
X191252438Y-162016666D01*
X191252438Y-162016666D02*
X191300057Y-162064285D01*
X191300057Y-162064285D02*
X191395295Y-162111904D01*
X191395295Y-162111904D02*
X191442914Y-162111904D01*
X191442914Y-162111904D02*
X191538152Y-162064285D01*
X191538152Y-162064285D02*
X191585771Y-162016666D01*
X191585771Y-162016666D02*
X191633390Y-161921428D01*
X191633390Y-161921428D02*
X191633390Y-161730952D01*
X191633390Y-161730952D02*
X191681009Y-161635714D01*
X191681009Y-161635714D02*
X191728628Y-161588095D01*
X191728628Y-161588095D02*
X191823866Y-161540476D01*
X191823866Y-161540476D02*
X192014342Y-161540476D01*
X192014342Y-161540476D02*
X192109580Y-161588095D01*
X192109580Y-161588095D02*
X192157200Y-161635714D01*
X192157200Y-161635714D02*
X192204819Y-161730952D01*
X192204819Y-161730952D02*
X192204819Y-161921428D01*
X192204819Y-161921428D02*
X192157200Y-162016666D01*
X192157200Y-162016666D02*
X192109580Y-162064285D01*
X192109580Y-162064285D02*
X192014342Y-162111904D01*
X192014342Y-162111904D02*
X191823866Y-162111904D01*
X191823866Y-162111904D02*
X191728628Y-162064285D01*
X191728628Y-162064285D02*
X191681009Y-162016666D01*
X191681009Y-162016666D02*
X191633390Y-161921428D01*
X241666666Y-150795180D02*
X241666666Y-150080895D01*
X241666666Y-150080895D02*
X241619047Y-149938038D01*
X241619047Y-149938038D02*
X241523809Y-149842800D01*
X241523809Y-149842800D02*
X241380952Y-149795180D01*
X241380952Y-149795180D02*
X241285714Y-149795180D01*
X242571428Y-150795180D02*
X242380952Y-150795180D01*
X242380952Y-150795180D02*
X242285714Y-150747561D01*
X242285714Y-150747561D02*
X242238095Y-150699942D01*
X242238095Y-150699942D02*
X242142857Y-150557085D01*
X242142857Y-150557085D02*
X242095238Y-150366609D01*
X242095238Y-150366609D02*
X242095238Y-149985657D01*
X242095238Y-149985657D02*
X242142857Y-149890419D01*
X242142857Y-149890419D02*
X242190476Y-149842800D01*
X242190476Y-149842800D02*
X242285714Y-149795180D01*
X242285714Y-149795180D02*
X242476190Y-149795180D01*
X242476190Y-149795180D02*
X242571428Y-149842800D01*
X242571428Y-149842800D02*
X242619047Y-149890419D01*
X242619047Y-149890419D02*
X242666666Y-149985657D01*
X242666666Y-149985657D02*
X242666666Y-150223752D01*
X242666666Y-150223752D02*
X242619047Y-150318990D01*
X242619047Y-150318990D02*
X242571428Y-150366609D01*
X242571428Y-150366609D02*
X242476190Y-150414228D01*
X242476190Y-150414228D02*
X242285714Y-150414228D01*
X242285714Y-150414228D02*
X242190476Y-150366609D01*
X242190476Y-150366609D02*
X242142857Y-150318990D01*
X242142857Y-150318990D02*
X242095238Y-150223752D01*
X203333333Y-174654819D02*
X203333333Y-175369104D01*
X203333333Y-175369104D02*
X203380952Y-175511961D01*
X203380952Y-175511961D02*
X203476190Y-175607200D01*
X203476190Y-175607200D02*
X203619047Y-175654819D01*
X203619047Y-175654819D02*
X203714285Y-175654819D01*
X202333333Y-175654819D02*
X202904761Y-175654819D01*
X202619047Y-175654819D02*
X202619047Y-174654819D01*
X202619047Y-174654819D02*
X202714285Y-174797676D01*
X202714285Y-174797676D02*
X202809523Y-174892914D01*
X202809523Y-174892914D02*
X202904761Y-174940533D01*
X202866666Y-165159580D02*
X202914285Y-165207200D01*
X202914285Y-165207200D02*
X203057142Y-165254819D01*
X203057142Y-165254819D02*
X203152380Y-165254819D01*
X203152380Y-165254819D02*
X203295237Y-165207200D01*
X203295237Y-165207200D02*
X203390475Y-165111961D01*
X203390475Y-165111961D02*
X203438094Y-165016723D01*
X203438094Y-165016723D02*
X203485713Y-164826247D01*
X203485713Y-164826247D02*
X203485713Y-164683390D01*
X203485713Y-164683390D02*
X203438094Y-164492914D01*
X203438094Y-164492914D02*
X203390475Y-164397676D01*
X203390475Y-164397676D02*
X203295237Y-164302438D01*
X203295237Y-164302438D02*
X203152380Y-164254819D01*
X203152380Y-164254819D02*
X203057142Y-164254819D01*
X203057142Y-164254819D02*
X202914285Y-164302438D01*
X202914285Y-164302438D02*
X202866666Y-164350057D01*
X202295237Y-164683390D02*
X202390475Y-164635771D01*
X202390475Y-164635771D02*
X202438094Y-164588152D01*
X202438094Y-164588152D02*
X202485713Y-164492914D01*
X202485713Y-164492914D02*
X202485713Y-164445295D01*
X202485713Y-164445295D02*
X202438094Y-164350057D01*
X202438094Y-164350057D02*
X202390475Y-164302438D01*
X202390475Y-164302438D02*
X202295237Y-164254819D01*
X202295237Y-164254819D02*
X202104761Y-164254819D01*
X202104761Y-164254819D02*
X202009523Y-164302438D01*
X202009523Y-164302438D02*
X201961904Y-164350057D01*
X201961904Y-164350057D02*
X201914285Y-164445295D01*
X201914285Y-164445295D02*
X201914285Y-164492914D01*
X201914285Y-164492914D02*
X201961904Y-164588152D01*
X201961904Y-164588152D02*
X202009523Y-164635771D01*
X202009523Y-164635771D02*
X202104761Y-164683390D01*
X202104761Y-164683390D02*
X202295237Y-164683390D01*
X202295237Y-164683390D02*
X202390475Y-164731009D01*
X202390475Y-164731009D02*
X202438094Y-164778628D01*
X202438094Y-164778628D02*
X202485713Y-164873866D01*
X202485713Y-164873866D02*
X202485713Y-165064342D01*
X202485713Y-165064342D02*
X202438094Y-165159580D01*
X202438094Y-165159580D02*
X202390475Y-165207200D01*
X202390475Y-165207200D02*
X202295237Y-165254819D01*
X202295237Y-165254819D02*
X202104761Y-165254819D01*
X202104761Y-165254819D02*
X202009523Y-165207200D01*
X202009523Y-165207200D02*
X201961904Y-165159580D01*
X201961904Y-165159580D02*
X201914285Y-165064342D01*
X201914285Y-165064342D02*
X201914285Y-164873866D01*
X201914285Y-164873866D02*
X201961904Y-164778628D01*
X201961904Y-164778628D02*
X202009523Y-164731009D01*
X202009523Y-164731009D02*
X202104761Y-164683390D01*
X195642857Y-169204819D02*
X195976190Y-168728628D01*
X196214285Y-169204819D02*
X196214285Y-168204819D01*
X196214285Y-168204819D02*
X195833333Y-168204819D01*
X195833333Y-168204819D02*
X195738095Y-168252438D01*
X195738095Y-168252438D02*
X195690476Y-168300057D01*
X195690476Y-168300057D02*
X195642857Y-168395295D01*
X195642857Y-168395295D02*
X195642857Y-168538152D01*
X195642857Y-168538152D02*
X195690476Y-168633390D01*
X195690476Y-168633390D02*
X195738095Y-168681009D01*
X195738095Y-168681009D02*
X195833333Y-168728628D01*
X195833333Y-168728628D02*
X196214285Y-168728628D01*
X195309523Y-168204819D02*
X194690476Y-168204819D01*
X194690476Y-168204819D02*
X195023809Y-168585771D01*
X195023809Y-168585771D02*
X194880952Y-168585771D01*
X194880952Y-168585771D02*
X194785714Y-168633390D01*
X194785714Y-168633390D02*
X194738095Y-168681009D01*
X194738095Y-168681009D02*
X194690476Y-168776247D01*
X194690476Y-168776247D02*
X194690476Y-169014342D01*
X194690476Y-169014342D02*
X194738095Y-169109580D01*
X194738095Y-169109580D02*
X194785714Y-169157200D01*
X194785714Y-169157200D02*
X194880952Y-169204819D01*
X194880952Y-169204819D02*
X195166666Y-169204819D01*
X195166666Y-169204819D02*
X195261904Y-169157200D01*
X195261904Y-169157200D02*
X195309523Y-169109580D01*
X193833333Y-168204819D02*
X194023809Y-168204819D01*
X194023809Y-168204819D02*
X194119047Y-168252438D01*
X194119047Y-168252438D02*
X194166666Y-168300057D01*
X194166666Y-168300057D02*
X194261904Y-168442914D01*
X194261904Y-168442914D02*
X194309523Y-168633390D01*
X194309523Y-168633390D02*
X194309523Y-169014342D01*
X194309523Y-169014342D02*
X194261904Y-169109580D01*
X194261904Y-169109580D02*
X194214285Y-169157200D01*
X194214285Y-169157200D02*
X194119047Y-169204819D01*
X194119047Y-169204819D02*
X193928571Y-169204819D01*
X193928571Y-169204819D02*
X193833333Y-169157200D01*
X193833333Y-169157200D02*
X193785714Y-169109580D01*
X193785714Y-169109580D02*
X193738095Y-169014342D01*
X193738095Y-169014342D02*
X193738095Y-168776247D01*
X193738095Y-168776247D02*
X193785714Y-168681009D01*
X193785714Y-168681009D02*
X193833333Y-168633390D01*
X193833333Y-168633390D02*
X193928571Y-168585771D01*
X193928571Y-168585771D02*
X194119047Y-168585771D01*
X194119047Y-168585771D02*
X194214285Y-168633390D01*
X194214285Y-168633390D02*
X194261904Y-168681009D01*
X194261904Y-168681009D02*
X194309523Y-168776247D01*
X208970238Y-126950057D02*
X209065476Y-126902438D01*
X209065476Y-126902438D02*
X209160714Y-126807200D01*
X209160714Y-126807200D02*
X209303571Y-126664342D01*
X209303571Y-126664342D02*
X209398809Y-126616723D01*
X209398809Y-126616723D02*
X209494047Y-126616723D01*
X209446428Y-126854819D02*
X209541666Y-126807200D01*
X209541666Y-126807200D02*
X209636904Y-126711961D01*
X209636904Y-126711961D02*
X209684523Y-126521485D01*
X209684523Y-126521485D02*
X209684523Y-126188152D01*
X209684523Y-126188152D02*
X209636904Y-125997676D01*
X209636904Y-125997676D02*
X209541666Y-125902438D01*
X209541666Y-125902438D02*
X209446428Y-125854819D01*
X209446428Y-125854819D02*
X209255952Y-125854819D01*
X209255952Y-125854819D02*
X209160714Y-125902438D01*
X209160714Y-125902438D02*
X209065476Y-125997676D01*
X209065476Y-125997676D02*
X209017857Y-126188152D01*
X209017857Y-126188152D02*
X209017857Y-126521485D01*
X209017857Y-126521485D02*
X209065476Y-126711961D01*
X209065476Y-126711961D02*
X209160714Y-126807200D01*
X209160714Y-126807200D02*
X209255952Y-126854819D01*
X209255952Y-126854819D02*
X209446428Y-126854819D01*
X208684523Y-125854819D02*
X208065476Y-125854819D01*
X208065476Y-125854819D02*
X208398809Y-126235771D01*
X208398809Y-126235771D02*
X208255952Y-126235771D01*
X208255952Y-126235771D02*
X208160714Y-126283390D01*
X208160714Y-126283390D02*
X208113095Y-126331009D01*
X208113095Y-126331009D02*
X208065476Y-126426247D01*
X208065476Y-126426247D02*
X208065476Y-126664342D01*
X208065476Y-126664342D02*
X208113095Y-126759580D01*
X208113095Y-126759580D02*
X208160714Y-126807200D01*
X208160714Y-126807200D02*
X208255952Y-126854819D01*
X208255952Y-126854819D02*
X208541666Y-126854819D01*
X208541666Y-126854819D02*
X208636904Y-126807200D01*
X208636904Y-126807200D02*
X208684523Y-126759580D01*
X198642857Y-166204819D02*
X198976190Y-165728628D01*
X199214285Y-166204819D02*
X199214285Y-165204819D01*
X199214285Y-165204819D02*
X198833333Y-165204819D01*
X198833333Y-165204819D02*
X198738095Y-165252438D01*
X198738095Y-165252438D02*
X198690476Y-165300057D01*
X198690476Y-165300057D02*
X198642857Y-165395295D01*
X198642857Y-165395295D02*
X198642857Y-165538152D01*
X198642857Y-165538152D02*
X198690476Y-165633390D01*
X198690476Y-165633390D02*
X198738095Y-165681009D01*
X198738095Y-165681009D02*
X198833333Y-165728628D01*
X198833333Y-165728628D02*
X199214285Y-165728628D01*
X197785714Y-165538152D02*
X197785714Y-166204819D01*
X198023809Y-165157200D02*
X198261904Y-165871485D01*
X198261904Y-165871485D02*
X197642857Y-165871485D01*
X197309523Y-165300057D02*
X197261904Y-165252438D01*
X197261904Y-165252438D02*
X197166666Y-165204819D01*
X197166666Y-165204819D02*
X196928571Y-165204819D01*
X196928571Y-165204819D02*
X196833333Y-165252438D01*
X196833333Y-165252438D02*
X196785714Y-165300057D01*
X196785714Y-165300057D02*
X196738095Y-165395295D01*
X196738095Y-165395295D02*
X196738095Y-165490533D01*
X196738095Y-165490533D02*
X196785714Y-165633390D01*
X196785714Y-165633390D02*
X197357142Y-166204819D01*
X197357142Y-166204819D02*
X196738095Y-166204819D01*
X189142857Y-91109580D02*
X189190476Y-91157200D01*
X189190476Y-91157200D02*
X189333333Y-91204819D01*
X189333333Y-91204819D02*
X189428571Y-91204819D01*
X189428571Y-91204819D02*
X189571428Y-91157200D01*
X189571428Y-91157200D02*
X189666666Y-91061961D01*
X189666666Y-91061961D02*
X189714285Y-90966723D01*
X189714285Y-90966723D02*
X189761904Y-90776247D01*
X189761904Y-90776247D02*
X189761904Y-90633390D01*
X189761904Y-90633390D02*
X189714285Y-90442914D01*
X189714285Y-90442914D02*
X189666666Y-90347676D01*
X189666666Y-90347676D02*
X189571428Y-90252438D01*
X189571428Y-90252438D02*
X189428571Y-90204819D01*
X189428571Y-90204819D02*
X189333333Y-90204819D01*
X189333333Y-90204819D02*
X189190476Y-90252438D01*
X189190476Y-90252438D02*
X189142857Y-90300057D01*
X188809523Y-90204819D02*
X188190476Y-90204819D01*
X188190476Y-90204819D02*
X188523809Y-90585771D01*
X188523809Y-90585771D02*
X188380952Y-90585771D01*
X188380952Y-90585771D02*
X188285714Y-90633390D01*
X188285714Y-90633390D02*
X188238095Y-90681009D01*
X188238095Y-90681009D02*
X188190476Y-90776247D01*
X188190476Y-90776247D02*
X188190476Y-91014342D01*
X188190476Y-91014342D02*
X188238095Y-91109580D01*
X188238095Y-91109580D02*
X188285714Y-91157200D01*
X188285714Y-91157200D02*
X188380952Y-91204819D01*
X188380952Y-91204819D02*
X188666666Y-91204819D01*
X188666666Y-91204819D02*
X188761904Y-91157200D01*
X188761904Y-91157200D02*
X188809523Y-91109580D01*
X187571428Y-90204819D02*
X187476190Y-90204819D01*
X187476190Y-90204819D02*
X187380952Y-90252438D01*
X187380952Y-90252438D02*
X187333333Y-90300057D01*
X187333333Y-90300057D02*
X187285714Y-90395295D01*
X187285714Y-90395295D02*
X187238095Y-90585771D01*
X187238095Y-90585771D02*
X187238095Y-90823866D01*
X187238095Y-90823866D02*
X187285714Y-91014342D01*
X187285714Y-91014342D02*
X187333333Y-91109580D01*
X187333333Y-91109580D02*
X187380952Y-91157200D01*
X187380952Y-91157200D02*
X187476190Y-91204819D01*
X187476190Y-91204819D02*
X187571428Y-91204819D01*
X187571428Y-91204819D02*
X187666666Y-91157200D01*
X187666666Y-91157200D02*
X187714285Y-91109580D01*
X187714285Y-91109580D02*
X187761904Y-91014342D01*
X187761904Y-91014342D02*
X187809523Y-90823866D01*
X187809523Y-90823866D02*
X187809523Y-90585771D01*
X187809523Y-90585771D02*
X187761904Y-90395295D01*
X187761904Y-90395295D02*
X187714285Y-90300057D01*
X187714285Y-90300057D02*
X187666666Y-90252438D01*
X187666666Y-90252438D02*
X187571428Y-90204819D01*
X192892857Y-157904819D02*
X193226190Y-157428628D01*
X193464285Y-157904819D02*
X193464285Y-156904819D01*
X193464285Y-156904819D02*
X193083333Y-156904819D01*
X193083333Y-156904819D02*
X192988095Y-156952438D01*
X192988095Y-156952438D02*
X192940476Y-157000057D01*
X192940476Y-157000057D02*
X192892857Y-157095295D01*
X192892857Y-157095295D02*
X192892857Y-157238152D01*
X192892857Y-157238152D02*
X192940476Y-157333390D01*
X192940476Y-157333390D02*
X192988095Y-157381009D01*
X192988095Y-157381009D02*
X193083333Y-157428628D01*
X193083333Y-157428628D02*
X193464285Y-157428628D01*
X192511904Y-157000057D02*
X192464285Y-156952438D01*
X192464285Y-156952438D02*
X192369047Y-156904819D01*
X192369047Y-156904819D02*
X192130952Y-156904819D01*
X192130952Y-156904819D02*
X192035714Y-156952438D01*
X192035714Y-156952438D02*
X191988095Y-157000057D01*
X191988095Y-157000057D02*
X191940476Y-157095295D01*
X191940476Y-157095295D02*
X191940476Y-157190533D01*
X191940476Y-157190533D02*
X191988095Y-157333390D01*
X191988095Y-157333390D02*
X192559523Y-157904819D01*
X192559523Y-157904819D02*
X191940476Y-157904819D01*
X191035714Y-156904819D02*
X191511904Y-156904819D01*
X191511904Y-156904819D02*
X191559523Y-157381009D01*
X191559523Y-157381009D02*
X191511904Y-157333390D01*
X191511904Y-157333390D02*
X191416666Y-157285771D01*
X191416666Y-157285771D02*
X191178571Y-157285771D01*
X191178571Y-157285771D02*
X191083333Y-157333390D01*
X191083333Y-157333390D02*
X191035714Y-157381009D01*
X191035714Y-157381009D02*
X190988095Y-157476247D01*
X190988095Y-157476247D02*
X190988095Y-157714342D01*
X190988095Y-157714342D02*
X191035714Y-157809580D01*
X191035714Y-157809580D02*
X191083333Y-157857200D01*
X191083333Y-157857200D02*
X191178571Y-157904819D01*
X191178571Y-157904819D02*
X191416666Y-157904819D01*
X191416666Y-157904819D02*
X191511904Y-157857200D01*
X191511904Y-157857200D02*
X191559523Y-157809580D01*
X198642857Y-170704819D02*
X198976190Y-170228628D01*
X199214285Y-170704819D02*
X199214285Y-169704819D01*
X199214285Y-169704819D02*
X198833333Y-169704819D01*
X198833333Y-169704819D02*
X198738095Y-169752438D01*
X198738095Y-169752438D02*
X198690476Y-169800057D01*
X198690476Y-169800057D02*
X198642857Y-169895295D01*
X198642857Y-169895295D02*
X198642857Y-170038152D01*
X198642857Y-170038152D02*
X198690476Y-170133390D01*
X198690476Y-170133390D02*
X198738095Y-170181009D01*
X198738095Y-170181009D02*
X198833333Y-170228628D01*
X198833333Y-170228628D02*
X199214285Y-170228628D01*
X198309523Y-169704819D02*
X197690476Y-169704819D01*
X197690476Y-169704819D02*
X198023809Y-170085771D01*
X198023809Y-170085771D02*
X197880952Y-170085771D01*
X197880952Y-170085771D02*
X197785714Y-170133390D01*
X197785714Y-170133390D02*
X197738095Y-170181009D01*
X197738095Y-170181009D02*
X197690476Y-170276247D01*
X197690476Y-170276247D02*
X197690476Y-170514342D01*
X197690476Y-170514342D02*
X197738095Y-170609580D01*
X197738095Y-170609580D02*
X197785714Y-170657200D01*
X197785714Y-170657200D02*
X197880952Y-170704819D01*
X197880952Y-170704819D02*
X198166666Y-170704819D01*
X198166666Y-170704819D02*
X198261904Y-170657200D01*
X198261904Y-170657200D02*
X198309523Y-170609580D01*
X196833333Y-170038152D02*
X196833333Y-170704819D01*
X197071428Y-169657200D02*
X197309523Y-170371485D01*
X197309523Y-170371485D02*
X196690476Y-170371485D01*
X216109580Y-142107142D02*
X216157200Y-142059523D01*
X216157200Y-142059523D02*
X216204819Y-141916666D01*
X216204819Y-141916666D02*
X216204819Y-141821428D01*
X216204819Y-141821428D02*
X216157200Y-141678571D01*
X216157200Y-141678571D02*
X216061961Y-141583333D01*
X216061961Y-141583333D02*
X215966723Y-141535714D01*
X215966723Y-141535714D02*
X215776247Y-141488095D01*
X215776247Y-141488095D02*
X215633390Y-141488095D01*
X215633390Y-141488095D02*
X215442914Y-141535714D01*
X215442914Y-141535714D02*
X215347676Y-141583333D01*
X215347676Y-141583333D02*
X215252438Y-141678571D01*
X215252438Y-141678571D02*
X215204819Y-141821428D01*
X215204819Y-141821428D02*
X215204819Y-141916666D01*
X215204819Y-141916666D02*
X215252438Y-142059523D01*
X215252438Y-142059523D02*
X215300057Y-142107142D01*
X216204819Y-143059523D02*
X216204819Y-142488095D01*
X216204819Y-142773809D02*
X215204819Y-142773809D01*
X215204819Y-142773809D02*
X215347676Y-142678571D01*
X215347676Y-142678571D02*
X215442914Y-142583333D01*
X215442914Y-142583333D02*
X215490533Y-142488095D01*
X215204819Y-143678571D02*
X215204819Y-143773809D01*
X215204819Y-143773809D02*
X215252438Y-143869047D01*
X215252438Y-143869047D02*
X215300057Y-143916666D01*
X215300057Y-143916666D02*
X215395295Y-143964285D01*
X215395295Y-143964285D02*
X215585771Y-144011904D01*
X215585771Y-144011904D02*
X215823866Y-144011904D01*
X215823866Y-144011904D02*
X216014342Y-143964285D01*
X216014342Y-143964285D02*
X216109580Y-143916666D01*
X216109580Y-143916666D02*
X216157200Y-143869047D01*
X216157200Y-143869047D02*
X216204819Y-143773809D01*
X216204819Y-143773809D02*
X216204819Y-143678571D01*
X216204819Y-143678571D02*
X216157200Y-143583333D01*
X216157200Y-143583333D02*
X216109580Y-143535714D01*
X216109580Y-143535714D02*
X216014342Y-143488095D01*
X216014342Y-143488095D02*
X215823866Y-143440476D01*
X215823866Y-143440476D02*
X215585771Y-143440476D01*
X215585771Y-143440476D02*
X215395295Y-143488095D01*
X215395295Y-143488095D02*
X215300057Y-143535714D01*
X215300057Y-143535714D02*
X215252438Y-143583333D01*
X215252438Y-143583333D02*
X215204819Y-143678571D01*
D13*
%TO.C,C38*%
X188238748Y-88265000D02*
X188761252Y-88265000D01*
X188238748Y-89735000D02*
X188761252Y-89735000D01*
%TO.C,C26*%
X263025000Y-127820869D02*
X263025000Y-124820869D01*
X264525000Y-126320869D02*
X261525000Y-126320869D01*
X269260000Y-143761000D02*
X256674000Y-143761000D01*
X269260000Y-143801000D02*
X256681000Y-143801000D01*
X269260000Y-143841000D02*
X256689000Y-143841000D01*
X269260000Y-143881000D02*
X256696000Y-143881000D01*
X269260000Y-143921000D02*
X256704000Y-143921000D01*
X269260000Y-143961000D02*
X256712000Y-143961000D01*
X269260000Y-144001000D02*
X256720000Y-144001000D01*
X269260000Y-144041000D02*
X256728000Y-144041000D01*
X269260000Y-144081000D02*
X256737000Y-144081000D01*
X269260000Y-144121000D02*
X256745000Y-144121000D01*
X269260000Y-144161000D02*
X256753000Y-144161000D01*
X269260000Y-144201000D02*
X256762000Y-144201000D01*
X269260000Y-144241000D02*
X256771000Y-144241000D01*
X269260000Y-144281000D02*
X256780000Y-144281000D01*
X269260000Y-144321000D02*
X256789000Y-144321000D01*
X269260000Y-144361000D02*
X256798000Y-144361000D01*
X269260000Y-144401000D02*
X256807000Y-144401000D01*
X269260000Y-144441000D02*
X256816000Y-144441000D01*
X269260000Y-144481000D02*
X256825000Y-144481000D01*
X269260000Y-144521000D02*
X256835000Y-144521000D01*
X269260000Y-144561000D02*
X256845000Y-144561000D01*
X269260000Y-144601000D02*
X256854000Y-144601000D01*
X269260000Y-144641000D02*
X256864000Y-144641000D01*
X269260000Y-144681000D02*
X256874000Y-144681000D01*
X269260000Y-144721000D02*
X256884000Y-144721000D01*
X269260000Y-144761000D02*
X256894000Y-144761000D01*
X269260000Y-144801000D02*
X256905000Y-144801000D01*
X269260000Y-144841000D02*
X256915000Y-144841000D01*
X269260000Y-144881000D02*
X256926000Y-144881000D01*
X269260000Y-144921000D02*
X256936000Y-144921000D01*
X269260000Y-144961000D02*
X256947000Y-144961000D01*
X269260000Y-145001000D02*
X256958000Y-145001000D01*
X269260000Y-145041000D02*
X256969000Y-145041000D01*
X269260000Y-145081000D02*
X256980000Y-145081000D01*
X269260000Y-145121000D02*
X256992000Y-145121000D01*
X269260000Y-145161000D02*
X257003000Y-145161000D01*
X269260000Y-145201000D02*
X257015000Y-145201000D01*
X269260000Y-145241000D02*
X257026000Y-145241000D01*
X269260000Y-145281000D02*
X257038000Y-145281000D01*
X269260000Y-145321000D02*
X257050000Y-145321000D01*
X269260000Y-145361000D02*
X257062000Y-145361000D01*
X269260000Y-145401000D02*
X257074000Y-145401000D01*
X269260000Y-145441000D02*
X257086000Y-145441000D01*
X269260000Y-145481000D02*
X257098000Y-145481000D01*
X269260000Y-145521000D02*
X257111000Y-145521000D01*
X269260000Y-145561000D02*
X257124000Y-145561000D01*
X269260000Y-145601000D02*
X257136000Y-145601000D01*
X269260000Y-145641000D02*
X257149000Y-145641000D01*
X269260000Y-145681000D02*
X257162000Y-145681000D01*
X269260000Y-145721000D02*
X257175000Y-145721000D01*
X269260000Y-145761000D02*
X257188000Y-145761000D01*
X269260000Y-145801000D02*
X257202000Y-145801000D01*
X269260000Y-145841000D02*
X257215000Y-145841000D01*
X269260000Y-145881000D02*
X257229000Y-145881000D01*
X269260000Y-145921000D02*
X257242000Y-145921000D01*
X269260000Y-145961000D02*
X257256000Y-145961000D01*
X269260000Y-146001000D02*
X257270000Y-146001000D01*
X269260000Y-146041000D02*
X257284000Y-146041000D01*
X269260000Y-146081000D02*
X257298000Y-146081000D01*
X269260000Y-146121000D02*
X257313000Y-146121000D01*
X269260000Y-146161000D02*
X257327000Y-146161000D01*
X269260000Y-146201000D02*
X257342000Y-146201000D01*
X269260000Y-146241000D02*
X257357000Y-146241000D01*
X269260000Y-146281000D02*
X257371000Y-146281000D01*
X269260000Y-146321000D02*
X257386000Y-146321000D01*
X269260000Y-146361000D02*
X257401000Y-146361000D01*
X269260000Y-146401000D02*
X257417000Y-146401000D01*
X269260000Y-146441000D02*
X257432000Y-146441000D01*
X269260000Y-146481000D02*
X257448000Y-146481000D01*
X269260000Y-146521000D02*
X257463000Y-146521000D01*
X269260000Y-146561000D02*
X257479000Y-146561000D01*
X269260000Y-146601000D02*
X257495000Y-146601000D01*
X269260000Y-146641000D02*
X257511000Y-146641000D01*
X269260000Y-146681000D02*
X257527000Y-146681000D01*
X269260000Y-146721000D02*
X257543000Y-146721000D01*
X269260000Y-146761000D02*
X257560000Y-146761000D01*
X269260000Y-146801000D02*
X257576000Y-146801000D01*
X269260000Y-146841000D02*
X257593000Y-146841000D01*
X269260000Y-146881000D02*
X257610000Y-146881000D01*
X269260000Y-146921000D02*
X257627000Y-146921000D01*
X269260000Y-146961000D02*
X257644000Y-146961000D01*
X269260000Y-147001000D02*
X257661000Y-147001000D01*
X269260000Y-147041000D02*
X257678000Y-147041000D01*
X269260000Y-147081000D02*
X257696000Y-147081000D01*
X269260000Y-147121000D02*
X257713000Y-147121000D01*
X269260000Y-147161000D02*
X257731000Y-147161000D01*
X269260000Y-147201000D02*
X257749000Y-147201000D01*
X269260000Y-147241000D02*
X257767000Y-147241000D01*
X269260000Y-147281000D02*
X257785000Y-147281000D01*
X269260000Y-147321000D02*
X257804000Y-147321000D01*
X269260000Y-147361000D02*
X257822000Y-147361000D01*
X269260000Y-147401000D02*
X257841000Y-147401000D01*
X269260000Y-147441000D02*
X257860000Y-147441000D01*
X269260000Y-147481000D02*
X257878000Y-147481000D01*
X269260000Y-147521000D02*
X257898000Y-147521000D01*
X269260000Y-147561000D02*
X257917000Y-147561000D01*
X269260000Y-147601000D02*
X257936000Y-147601000D01*
X269260000Y-147641000D02*
X257956000Y-147641000D01*
X269260000Y-147681000D02*
X257975000Y-147681000D01*
X269260000Y-147721000D02*
X257995000Y-147721000D01*
X269260000Y-147761000D02*
X258015000Y-147761000D01*
X269260000Y-147801000D02*
X258035000Y-147801000D01*
X269260000Y-147841000D02*
X258055000Y-147841000D01*
X269260000Y-147881000D02*
X258075000Y-147881000D01*
X269260000Y-147921000D02*
X258096000Y-147921000D01*
X269260000Y-147961000D02*
X258117000Y-147961000D01*
X269260000Y-148001000D02*
X258137000Y-148001000D01*
X269260000Y-148041000D02*
X258158000Y-148041000D01*
X269260000Y-148081000D02*
X258180000Y-148081000D01*
X269260000Y-148121000D02*
X258201000Y-148121000D01*
X269260000Y-148161000D02*
X258222000Y-148161000D01*
X269260000Y-148201000D02*
X258244000Y-148201000D01*
X271540000Y-156120000D02*
X271460000Y-156120000D01*
X272560000Y-156080000D02*
X270440000Y-156080000D01*
X273014000Y-156040000D02*
X269986000Y-156040000D01*
X273362000Y-156000000D02*
X269638000Y-156000000D01*
X273654000Y-155960000D02*
X269346000Y-155960000D01*
X273912000Y-155920000D02*
X269088000Y-155920000D01*
X274144000Y-155880000D02*
X268856000Y-155880000D01*
X274357000Y-155840000D02*
X268643000Y-155840000D01*
X274555000Y-155800000D02*
X268445000Y-155800000D01*
X274740000Y-155760000D02*
X268260000Y-155760000D01*
X274915000Y-155720000D02*
X268085000Y-155720000D01*
X275082000Y-155680000D02*
X267918000Y-155680000D01*
X275240000Y-155640000D02*
X267760000Y-155640000D01*
X275392000Y-155600000D02*
X267608000Y-155600000D01*
X275537000Y-155560000D02*
X267463000Y-155560000D01*
X275678000Y-155520000D02*
X267322000Y-155520000D01*
X275813000Y-155480000D02*
X267187000Y-155480000D01*
X275944000Y-155440000D02*
X267056000Y-155440000D01*
X276071000Y-155400000D02*
X266929000Y-155400000D01*
X276194000Y-155360000D02*
X266806000Y-155360000D01*
X276314000Y-155320000D02*
X266686000Y-155320000D01*
X276430000Y-155280000D02*
X266570000Y-155280000D01*
X276543000Y-155240000D02*
X266457000Y-155240000D01*
X276654000Y-155200000D02*
X266346000Y-155200000D01*
X276762000Y-155160000D02*
X266238000Y-155160000D01*
X276868000Y-155120000D02*
X266132000Y-155120000D01*
X276971000Y-155080000D02*
X266029000Y-155080000D01*
X277072000Y-155040000D02*
X265928000Y-155040000D01*
X277171000Y-155000000D02*
X265829000Y-155000000D01*
X277268000Y-154960000D02*
X265732000Y-154960000D01*
X277364000Y-154920000D02*
X265636000Y-154920000D01*
X277457000Y-154880000D02*
X265543000Y-154880000D01*
X277549000Y-154840000D02*
X265451000Y-154840000D01*
X277639000Y-154800000D02*
X265361000Y-154800000D01*
X277728000Y-154760000D02*
X265272000Y-154760000D01*
X277815000Y-154720000D02*
X265185000Y-154720000D01*
X277900000Y-154680000D02*
X265100000Y-154680000D01*
X277985000Y-154640000D02*
X265015000Y-154640000D01*
X278068000Y-154600000D02*
X264932000Y-154600000D01*
X278149000Y-154560000D02*
X264851000Y-154560000D01*
X278230000Y-154520000D02*
X264770000Y-154520000D01*
X278309000Y-154480000D02*
X264691000Y-154480000D01*
X278387000Y-154440000D02*
X264613000Y-154440000D01*
X278464000Y-154400000D02*
X264536000Y-154400000D01*
X278540000Y-154360000D02*
X264460000Y-154360000D01*
X278615000Y-154320000D02*
X264385000Y-154320000D01*
X278689000Y-154280000D02*
X264311000Y-154280000D01*
X278762000Y-154240000D02*
X264238000Y-154240000D01*
X278834000Y-154200000D02*
X264166000Y-154200000D01*
X278906000Y-154160000D02*
X264094000Y-154160000D01*
X278976000Y-154120000D02*
X264024000Y-154120000D01*
X279045000Y-154080000D02*
X263955000Y-154080000D01*
X279114000Y-154040000D02*
X263886000Y-154040000D01*
X279182000Y-154000000D02*
X263818000Y-154000000D01*
X279248000Y-153960000D02*
X263752000Y-153960000D01*
X279315000Y-153920000D02*
X263685000Y-153920000D01*
X279380000Y-153880000D02*
X263620000Y-153880000D01*
X279445000Y-153840000D02*
X263555000Y-153840000D01*
X279509000Y-153800000D02*
X263491000Y-153800000D01*
X279572000Y-153760000D02*
X263428000Y-153760000D01*
X279635000Y-153720000D02*
X263365000Y-153720000D01*
X279697000Y-153680000D02*
X263303000Y-153680000D01*
X279758000Y-153640000D02*
X263242000Y-153640000D01*
X279818000Y-153600000D02*
X263182000Y-153600000D01*
X279878000Y-153560000D02*
X263122000Y-153560000D01*
X279938000Y-153520000D02*
X263062000Y-153520000D01*
X279997000Y-153480000D02*
X263003000Y-153480000D01*
X280055000Y-153440000D02*
X262945000Y-153440000D01*
X280112000Y-153400000D02*
X262888000Y-153400000D01*
X280169000Y-153360000D02*
X262831000Y-153360000D01*
X280226000Y-153320000D02*
X262774000Y-153320000D01*
X280282000Y-153280000D02*
X262718000Y-153280000D01*
X280337000Y-153240000D02*
X262663000Y-153240000D01*
X280392000Y-153200000D02*
X262608000Y-153200000D01*
X280447000Y-153160000D02*
X262553000Y-153160000D01*
X280500000Y-153120000D02*
X262500000Y-153120000D01*
X280554000Y-153080000D02*
X262446000Y-153080000D01*
X280607000Y-153040000D02*
X262393000Y-153040000D01*
X280659000Y-153000000D02*
X262341000Y-153000000D01*
X280711000Y-152960000D02*
X262289000Y-152960000D01*
X280763000Y-152920000D02*
X262237000Y-152920000D01*
X280814000Y-152880000D02*
X262186000Y-152880000D01*
X280864000Y-152840000D02*
X262136000Y-152840000D01*
X280914000Y-152800000D02*
X262086000Y-152800000D01*
X280964000Y-152760000D02*
X262036000Y-152760000D01*
X281013000Y-152720000D02*
X261987000Y-152720000D01*
X281062000Y-152680000D02*
X261938000Y-152680000D01*
X281111000Y-152640000D02*
X261889000Y-152640000D01*
X281159000Y-152600000D02*
X261841000Y-152600000D01*
X281206000Y-152560000D02*
X261794000Y-152560000D01*
X281254000Y-152520000D02*
X261746000Y-152520000D01*
X281300000Y-152480000D02*
X261700000Y-152480000D01*
X281347000Y-152440000D02*
X261653000Y-152440000D01*
X281393000Y-152400000D02*
X261607000Y-152400000D01*
X281439000Y-152360000D02*
X261561000Y-152360000D01*
X281484000Y-152320000D02*
X261516000Y-152320000D01*
X281529000Y-152280000D02*
X261471000Y-152280000D01*
X281574000Y-152240000D02*
X261426000Y-152240000D01*
X281618000Y-152200000D02*
X261382000Y-152200000D01*
X281662000Y-152160000D02*
X261338000Y-152160000D01*
X281705000Y-152120000D02*
X261295000Y-152120000D01*
X281749000Y-152080000D02*
X261251000Y-152080000D01*
X281792000Y-152040000D02*
X261208000Y-152040000D01*
X281834000Y-152000000D02*
X261166000Y-152000000D01*
X281876000Y-151960000D02*
X261124000Y-151960000D01*
X281918000Y-151920000D02*
X261082000Y-151920000D01*
X281960000Y-151880000D02*
X261040000Y-151880000D01*
X282001000Y-151840000D02*
X260999000Y-151840000D01*
X282042000Y-151800000D02*
X260958000Y-151800000D01*
X282083000Y-151760000D02*
X260917000Y-151760000D01*
X282123000Y-151720000D02*
X260877000Y-151720000D01*
X282163000Y-151680000D02*
X260837000Y-151680000D01*
X282203000Y-151640000D02*
X260797000Y-151640000D01*
X282243000Y-151600000D02*
X260757000Y-151600000D01*
X282282000Y-151560000D02*
X260718000Y-151560000D01*
X282321000Y-151520000D02*
X260679000Y-151520000D01*
X282359000Y-151480000D02*
X260641000Y-151480000D01*
X282398000Y-151440000D02*
X260602000Y-151440000D01*
X282436000Y-151400000D02*
X260564000Y-151400000D01*
X282473000Y-151360000D02*
X260527000Y-151360000D01*
X282511000Y-151320000D02*
X260489000Y-151320000D01*
X282548000Y-151280000D02*
X260452000Y-151280000D01*
X282585000Y-151240000D02*
X260415000Y-151240000D01*
X282622000Y-151200000D02*
X260378000Y-151200000D01*
X282658000Y-151160000D02*
X260342000Y-151160000D01*
X282694000Y-151120000D02*
X260306000Y-151120000D01*
X282730000Y-151080000D02*
X260270000Y-151080000D01*
X282766000Y-151040000D02*
X260234000Y-151040000D01*
X282801000Y-151000000D02*
X260199000Y-151000000D01*
X282836000Y-150960000D02*
X260164000Y-150960000D01*
X282871000Y-150920000D02*
X260129000Y-150920000D01*
X282906000Y-150880000D02*
X260094000Y-150880000D01*
X282940000Y-150840000D02*
X260060000Y-150840000D01*
X282975000Y-150800000D02*
X260025000Y-150800000D01*
X283009000Y-150760000D02*
X259991000Y-150760000D01*
X283042000Y-150720000D02*
X259958000Y-150720000D01*
X283076000Y-150680000D02*
X259924000Y-150680000D01*
X283109000Y-150640000D02*
X259891000Y-150640000D01*
X283142000Y-150600000D02*
X259858000Y-150600000D01*
X283175000Y-150560000D02*
X259825000Y-150560000D01*
X283207000Y-150520000D02*
X259793000Y-150520000D01*
X283239000Y-150480000D02*
X259761000Y-150480000D01*
X283272000Y-150440000D02*
X259728000Y-150440000D01*
X283303000Y-150400000D02*
X259697000Y-150400000D01*
X283335000Y-150360000D02*
X259665000Y-150360000D01*
X283366000Y-150320000D02*
X259634000Y-150320000D01*
X283398000Y-150280000D02*
X259602000Y-150280000D01*
X283429000Y-150240000D02*
X259571000Y-150240000D01*
X283459000Y-150200000D02*
X259541000Y-150200000D01*
X283490000Y-150160000D02*
X259510000Y-150160000D01*
X283520000Y-150120000D02*
X259480000Y-150120000D01*
X283550000Y-150080000D02*
X259450000Y-150080000D01*
X283580000Y-150040000D02*
X259420000Y-150040000D01*
X283610000Y-150000000D02*
X259390000Y-150000000D01*
X283640000Y-149960000D02*
X259360000Y-149960000D01*
X283669000Y-149920000D02*
X259331000Y-149920000D01*
X283698000Y-149880000D02*
X259302000Y-149880000D01*
X283727000Y-149840000D02*
X259273000Y-149840000D01*
X283756000Y-149800000D02*
X259244000Y-149800000D01*
X283784000Y-149760000D02*
X259216000Y-149760000D01*
X283813000Y-149720000D02*
X259187000Y-149720000D01*
X283841000Y-149680000D02*
X259159000Y-149680000D01*
X283869000Y-149640000D02*
X259131000Y-149640000D01*
X283897000Y-149600000D02*
X259103000Y-149600000D01*
X283924000Y-149560000D02*
X259076000Y-149560000D01*
X283951000Y-149520000D02*
X259049000Y-149520000D01*
X283979000Y-149480000D02*
X259021000Y-149480000D01*
X284006000Y-149440000D02*
X258994000Y-149440000D01*
X284032000Y-149400000D02*
X258968000Y-149400000D01*
X284059000Y-149360000D02*
X258941000Y-149360000D01*
X284086000Y-149320000D02*
X258914000Y-149320000D01*
X284112000Y-149280000D02*
X258888000Y-149280000D01*
X284138000Y-149240000D02*
X258862000Y-149240000D01*
X284164000Y-149200000D02*
X258836000Y-149200000D01*
X284190000Y-149161000D02*
X258810000Y-149161000D01*
X284215000Y-149121000D02*
X258785000Y-149121000D01*
X284240000Y-149081000D02*
X258760000Y-149081000D01*
X284266000Y-149041000D02*
X258734000Y-149041000D01*
X284291000Y-149001000D02*
X258709000Y-149001000D01*
X284316000Y-148961000D02*
X258684000Y-148961000D01*
X284340000Y-148921000D02*
X258660000Y-148921000D01*
X284365000Y-148881000D02*
X258635000Y-148881000D01*
X284389000Y-148841000D02*
X258611000Y-148841000D01*
X284413000Y-148801000D02*
X258587000Y-148801000D01*
X284437000Y-148761000D02*
X258563000Y-148761000D01*
X284461000Y-148721000D02*
X258539000Y-148721000D01*
X284485000Y-148681000D02*
X258515000Y-148681000D01*
X284508000Y-148641000D02*
X258492000Y-148641000D01*
X284532000Y-148601000D02*
X258468000Y-148601000D01*
X284555000Y-148561000D02*
X258445000Y-148561000D01*
X284578000Y-148521000D02*
X258422000Y-148521000D01*
X284601000Y-148481000D02*
X258399000Y-148481000D01*
X284623000Y-148441000D02*
X258377000Y-148441000D01*
X284646000Y-148401000D02*
X258354000Y-148401000D01*
X284668000Y-148361000D02*
X258332000Y-148361000D01*
X284690000Y-148321000D02*
X258310000Y-148321000D01*
X284713000Y-148281000D02*
X258287000Y-148281000D01*
X284734000Y-148241000D02*
X258266000Y-148241000D01*
X284756000Y-148201000D02*
X273740000Y-148201000D01*
X284778000Y-148161000D02*
X273740000Y-148161000D01*
X284799000Y-148121000D02*
X273740000Y-148121000D01*
X284820000Y-148081000D02*
X273740000Y-148081000D01*
X284842000Y-148041000D02*
X273740000Y-148041000D01*
X284863000Y-148001000D02*
X273740000Y-148001000D01*
X284883000Y-147961000D02*
X273740000Y-147961000D01*
X284904000Y-147921000D02*
X273740000Y-147921000D01*
X284925000Y-147881000D02*
X273740000Y-147881000D01*
X284945000Y-147841000D02*
X273740000Y-147841000D01*
X284965000Y-147801000D02*
X273740000Y-147801000D01*
X284985000Y-147761000D02*
X273740000Y-147761000D01*
X285005000Y-147721000D02*
X273740000Y-147721000D01*
X285025000Y-147681000D02*
X273740000Y-147681000D01*
X285044000Y-147641000D02*
X273740000Y-147641000D01*
X285064000Y-147601000D02*
X273740000Y-147601000D01*
X285083000Y-147561000D02*
X273740000Y-147561000D01*
X285102000Y-147521000D02*
X273740000Y-147521000D01*
X285122000Y-147481000D02*
X273740000Y-147481000D01*
X285140000Y-147441000D02*
X273740000Y-147441000D01*
X285159000Y-147401000D02*
X273740000Y-147401000D01*
X285178000Y-147361000D02*
X273740000Y-147361000D01*
X285196000Y-147321000D02*
X273740000Y-147321000D01*
X285215000Y-147281000D02*
X273740000Y-147281000D01*
X285233000Y-147241000D02*
X273740000Y-147241000D01*
X285251000Y-147201000D02*
X273740000Y-147201000D01*
X285269000Y-147161000D02*
X273740000Y-147161000D01*
X285287000Y-147121000D02*
X273740000Y-147121000D01*
X285304000Y-147081000D02*
X273740000Y-147081000D01*
X285322000Y-147041000D02*
X273740000Y-147041000D01*
X285339000Y-147001000D02*
X273740000Y-147001000D01*
X285356000Y-146961000D02*
X273740000Y-146961000D01*
X285373000Y-146921000D02*
X273740000Y-146921000D01*
X285390000Y-146881000D02*
X273740000Y-146881000D01*
X285407000Y-146841000D02*
X273740000Y-146841000D01*
X285424000Y-146801000D02*
X273740000Y-146801000D01*
X285440000Y-146761000D02*
X273740000Y-146761000D01*
X285457000Y-146721000D02*
X273740000Y-146721000D01*
X285473000Y-146681000D02*
X273740000Y-146681000D01*
X285489000Y-146641000D02*
X273740000Y-146641000D01*
X285505000Y-146601000D02*
X273740000Y-146601000D01*
X285521000Y-146561000D02*
X273740000Y-146561000D01*
X285537000Y-146521000D02*
X273740000Y-146521000D01*
X285552000Y-146481000D02*
X273740000Y-146481000D01*
X285568000Y-146441000D02*
X273740000Y-146441000D01*
X285583000Y-146401000D02*
X273740000Y-146401000D01*
X285599000Y-146361000D02*
X273740000Y-146361000D01*
X285614000Y-146321000D02*
X273740000Y-146321000D01*
X285629000Y-146281000D02*
X273740000Y-146281000D01*
X285643000Y-146241000D02*
X273740000Y-146241000D01*
X285658000Y-146201000D02*
X273740000Y-146201000D01*
X285673000Y-146161000D02*
X273740000Y-146161000D01*
X285687000Y-146121000D02*
X273740000Y-146121000D01*
X285702000Y-146081000D02*
X273740000Y-146081000D01*
X285716000Y-146041000D02*
X273740000Y-146041000D01*
X285730000Y-146001000D02*
X273740000Y-146001000D01*
X285744000Y-145961000D02*
X273740000Y-145961000D01*
X285758000Y-145921000D02*
X273740000Y-145921000D01*
X285771000Y-145881000D02*
X273740000Y-145881000D01*
X285785000Y-145841000D02*
X273740000Y-145841000D01*
X285798000Y-145801000D02*
X273740000Y-145801000D01*
X285812000Y-145761000D02*
X273740000Y-145761000D01*
X285825000Y-145721000D02*
X273740000Y-145721000D01*
X285838000Y-145681000D02*
X273740000Y-145681000D01*
X285851000Y-145641000D02*
X273740000Y-145641000D01*
X285864000Y-145601000D02*
X273740000Y-145601000D01*
X285876000Y-145561000D02*
X273740000Y-145561000D01*
X285889000Y-145521000D02*
X273740000Y-145521000D01*
X285902000Y-145481000D02*
X273740000Y-145481000D01*
X285914000Y-145441000D02*
X273740000Y-145441000D01*
X285926000Y-145401000D02*
X273740000Y-145401000D01*
X285938000Y-145361000D02*
X273740000Y-145361000D01*
X285950000Y-145321000D02*
X273740000Y-145321000D01*
X285962000Y-145281000D02*
X273740000Y-145281000D01*
X285974000Y-145241000D02*
X273740000Y-145241000D01*
X285985000Y-145201000D02*
X273740000Y-145201000D01*
X285997000Y-145161000D02*
X273740000Y-145161000D01*
X286008000Y-145121000D02*
X273740000Y-145121000D01*
X286020000Y-145081000D02*
X273740000Y-145081000D01*
X286031000Y-145041000D02*
X273740000Y-145041000D01*
X286042000Y-145001000D02*
X273740000Y-145001000D01*
X286053000Y-144961000D02*
X273740000Y-144961000D01*
X286064000Y-144921000D02*
X273740000Y-144921000D01*
X286074000Y-144881000D02*
X273740000Y-144881000D01*
X286085000Y-144841000D02*
X273740000Y-144841000D01*
X286095000Y-144801000D02*
X273740000Y-144801000D01*
X286106000Y-144761000D02*
X273740000Y-144761000D01*
X286116000Y-144721000D02*
X273740000Y-144721000D01*
X286126000Y-144681000D02*
X273740000Y-144681000D01*
X286136000Y-144641000D02*
X273740000Y-144641000D01*
X286146000Y-144601000D02*
X273740000Y-144601000D01*
X286155000Y-144561000D02*
X273740000Y-144561000D01*
X286165000Y-144521000D02*
X273740000Y-144521000D01*
X286175000Y-144481000D02*
X273740000Y-144481000D01*
X286184000Y-144441000D02*
X273740000Y-144441000D01*
X286193000Y-144401000D02*
X273740000Y-144401000D01*
X286202000Y-144361000D02*
X273740000Y-144361000D01*
X286211000Y-144321000D02*
X273740000Y-144321000D01*
X286220000Y-144281000D02*
X273740000Y-144281000D01*
X286229000Y-144241000D02*
X273740000Y-144241000D01*
X286238000Y-144201000D02*
X273740000Y-144201000D01*
X286247000Y-144161000D02*
X273740000Y-144161000D01*
X286255000Y-144121000D02*
X273740000Y-144121000D01*
X286263000Y-144081000D02*
X273740000Y-144081000D01*
X286272000Y-144041000D02*
X273740000Y-144041000D01*
X286280000Y-144001000D02*
X273740000Y-144001000D01*
X286288000Y-143961000D02*
X273740000Y-143961000D01*
X286296000Y-143921000D02*
X273740000Y-143921000D01*
X286304000Y-143881000D02*
X273740000Y-143881000D01*
X286311000Y-143841000D02*
X273740000Y-143841000D01*
X286319000Y-143801000D02*
X273740000Y-143801000D01*
X286326000Y-143761000D02*
X273740000Y-143761000D01*
X286334000Y-143721000D02*
X256666000Y-143721000D01*
X286341000Y-143681000D02*
X256659000Y-143681000D01*
X286348000Y-143641000D02*
X256652000Y-143641000D01*
X286355000Y-143601000D02*
X256645000Y-143601000D01*
X286362000Y-143561000D02*
X256638000Y-143561000D01*
X286369000Y-143521000D02*
X256631000Y-143521000D01*
X286376000Y-143481000D02*
X256624000Y-143481000D01*
X286382000Y-143441000D02*
X256618000Y-143441000D01*
X286389000Y-143401000D02*
X256611000Y-143401000D01*
X286395000Y-143361000D02*
X256605000Y-143361000D01*
X286401000Y-143321000D02*
X256599000Y-143321000D01*
X286408000Y-143281000D02*
X256592000Y-143281000D01*
X286414000Y-143241000D02*
X256586000Y-143241000D01*
X286420000Y-143201000D02*
X256580000Y-143201000D01*
X286425000Y-143161000D02*
X256575000Y-143161000D01*
X286431000Y-143121000D02*
X256569000Y-143121000D01*
X286437000Y-143081000D02*
X256563000Y-143081000D01*
X286442000Y-143041000D02*
X256558000Y-143041000D01*
X286448000Y-143001000D02*
X256552000Y-143001000D01*
X286453000Y-142961000D02*
X256547000Y-142961000D01*
X286458000Y-142921000D02*
X256542000Y-142921000D01*
X286463000Y-142881000D02*
X256537000Y-142881000D01*
X286468000Y-142841000D02*
X256532000Y-142841000D01*
X286473000Y-142801000D02*
X256527000Y-142801000D01*
X286478000Y-142761000D02*
X256522000Y-142761000D01*
X286482000Y-142721000D02*
X256518000Y-142721000D01*
X286487000Y-142681000D02*
X256513000Y-142681000D01*
X286491000Y-142641000D02*
X256509000Y-142641000D01*
X286496000Y-142601000D02*
X256504000Y-142601000D01*
X286500000Y-142561000D02*
X256500000Y-142561000D01*
X286504000Y-142521000D02*
X256496000Y-142521000D01*
X286508000Y-142481000D02*
X256492000Y-142481000D01*
X286512000Y-142441000D02*
X256488000Y-142441000D01*
X286516000Y-142401000D02*
X256484000Y-142401000D01*
X286519000Y-142361000D02*
X256481000Y-142361000D01*
X286523000Y-142321000D02*
X256477000Y-142321000D01*
X286526000Y-142281000D02*
X256474000Y-142281000D01*
X286530000Y-142241000D02*
X256470000Y-142241000D01*
X286533000Y-142201000D02*
X256467000Y-142201000D01*
X286536000Y-142161000D02*
X256464000Y-142161000D01*
X286539000Y-142121000D02*
X256461000Y-142121000D01*
X286542000Y-142081000D02*
X256458000Y-142081000D01*
X286545000Y-142041000D02*
X256455000Y-142041000D01*
X286547000Y-142001000D02*
X256453000Y-142001000D01*
X286550000Y-141961000D02*
X256450000Y-141961000D01*
X286552000Y-141921000D02*
X256448000Y-141921000D01*
X286555000Y-141881000D02*
X256445000Y-141881000D01*
X286557000Y-141841000D02*
X256443000Y-141841000D01*
X286559000Y-141801000D02*
X256441000Y-141801000D01*
X286561000Y-141761000D02*
X256439000Y-141761000D01*
X286563000Y-141721000D02*
X256437000Y-141721000D01*
X286565000Y-141680000D02*
X256435000Y-141680000D01*
X286567000Y-141640000D02*
X256433000Y-141640000D01*
X286569000Y-141600000D02*
X256431000Y-141600000D01*
X286570000Y-141560000D02*
X256430000Y-141560000D01*
X286572000Y-141520000D02*
X256428000Y-141520000D01*
X286573000Y-141480000D02*
X256427000Y-141480000D01*
X286574000Y-141440000D02*
X256426000Y-141440000D01*
X286575000Y-141400000D02*
X256425000Y-141400000D01*
X286576000Y-141360000D02*
X256424000Y-141360000D01*
X286577000Y-141320000D02*
X256423000Y-141320000D01*
X286578000Y-141280000D02*
X256422000Y-141280000D01*
X286579000Y-141200000D02*
X256421000Y-141200000D01*
X286579000Y-141240000D02*
X256421000Y-141240000D01*
X286580000Y-141040000D02*
X256420000Y-141040000D01*
X286580000Y-141080000D02*
X256420000Y-141080000D01*
X286580000Y-141120000D02*
X256420000Y-141120000D01*
X286580000Y-141160000D02*
X256420000Y-141160000D01*
X286581000Y-141000000D02*
X256419000Y-141000000D01*
X286620000Y-141000000D02*
G75*
G02*
X256380000Y-141000000I-15120000J0D01*
G01*
X256380000Y-141000000D02*
G75*
G02*
X286620000Y-141000000I15120000J0D01*
G01*
%TO.C,R72*%
X226245000Y-173453641D02*
X226245000Y-173146359D01*
X227005000Y-173453641D02*
X227005000Y-173146359D01*
%TO.C,R26*%
X199653641Y-157120000D02*
X199346359Y-157120000D01*
X199653641Y-157880000D02*
X199346359Y-157880000D01*
%TO.C,C9*%
X199692164Y-155640000D02*
X199907836Y-155640000D01*
X199692164Y-156360000D02*
X199907836Y-156360000D01*
%TO.C,C15*%
X199692164Y-154540000D02*
X199907836Y-154540000D01*
X199692164Y-155260000D02*
X199907836Y-155260000D01*
%TO.C,R73*%
X194245000Y-173553641D02*
X194245000Y-173246359D01*
X195005000Y-173553641D02*
X195005000Y-173246359D01*
%TO.C,U3*%
X202890000Y-147890000D02*
X202890000Y-148590000D01*
X202890000Y-162110000D02*
X202890000Y-161410000D01*
X203590000Y-147890000D02*
X202890000Y-147890000D01*
X203590000Y-162110000D02*
X202890000Y-162110000D01*
X216410000Y-147890000D02*
X217110000Y-147890000D01*
X216410000Y-162110000D02*
X217110000Y-162110000D01*
X217110000Y-147890000D02*
X217110000Y-148590000D01*
X217110000Y-162110000D02*
X217110000Y-161410000D01*
X216880000Y-163077500D02*
X216410000Y-162737500D01*
X216880000Y-162397500D01*
X216880000Y-163077500D01*
G36*
X216880000Y-163077500D02*
G01*
X216410000Y-162737500D01*
X216880000Y-162397500D01*
X216880000Y-163077500D01*
G37*
%TO.C,R74*%
X225045000Y-173453641D02*
X225045000Y-173146359D01*
X225805000Y-173453641D02*
X225805000Y-173146359D01*
%TO.C,R29*%
X197346359Y-158220000D02*
X197653641Y-158220000D01*
X197346359Y-158980000D02*
X197653641Y-158980000D01*
%TO.C,C25*%
X140025000Y-127820869D02*
X140025000Y-124820869D01*
X141525000Y-126320869D02*
X138525000Y-126320869D01*
X146260000Y-143761000D02*
X133674000Y-143761000D01*
X146260000Y-143801000D02*
X133681000Y-143801000D01*
X146260000Y-143841000D02*
X133689000Y-143841000D01*
X146260000Y-143881000D02*
X133696000Y-143881000D01*
X146260000Y-143921000D02*
X133704000Y-143921000D01*
X146260000Y-143961000D02*
X133712000Y-143961000D01*
X146260000Y-144001000D02*
X133720000Y-144001000D01*
X146260000Y-144041000D02*
X133728000Y-144041000D01*
X146260000Y-144081000D02*
X133737000Y-144081000D01*
X146260000Y-144121000D02*
X133745000Y-144121000D01*
X146260000Y-144161000D02*
X133753000Y-144161000D01*
X146260000Y-144201000D02*
X133762000Y-144201000D01*
X146260000Y-144241000D02*
X133771000Y-144241000D01*
X146260000Y-144281000D02*
X133780000Y-144281000D01*
X146260000Y-144321000D02*
X133789000Y-144321000D01*
X146260000Y-144361000D02*
X133798000Y-144361000D01*
X146260000Y-144401000D02*
X133807000Y-144401000D01*
X146260000Y-144441000D02*
X133816000Y-144441000D01*
X146260000Y-144481000D02*
X133825000Y-144481000D01*
X146260000Y-144521000D02*
X133835000Y-144521000D01*
X146260000Y-144561000D02*
X133845000Y-144561000D01*
X146260000Y-144601000D02*
X133854000Y-144601000D01*
X146260000Y-144641000D02*
X133864000Y-144641000D01*
X146260000Y-144681000D02*
X133874000Y-144681000D01*
X146260000Y-144721000D02*
X133884000Y-144721000D01*
X146260000Y-144761000D02*
X133894000Y-144761000D01*
X146260000Y-144801000D02*
X133905000Y-144801000D01*
X146260000Y-144841000D02*
X133915000Y-144841000D01*
X146260000Y-144881000D02*
X133926000Y-144881000D01*
X146260000Y-144921000D02*
X133936000Y-144921000D01*
X146260000Y-144961000D02*
X133947000Y-144961000D01*
X146260000Y-145001000D02*
X133958000Y-145001000D01*
X146260000Y-145041000D02*
X133969000Y-145041000D01*
X146260000Y-145081000D02*
X133980000Y-145081000D01*
X146260000Y-145121000D02*
X133992000Y-145121000D01*
X146260000Y-145161000D02*
X134003000Y-145161000D01*
X146260000Y-145201000D02*
X134015000Y-145201000D01*
X146260000Y-145241000D02*
X134026000Y-145241000D01*
X146260000Y-145281000D02*
X134038000Y-145281000D01*
X146260000Y-145321000D02*
X134050000Y-145321000D01*
X146260000Y-145361000D02*
X134062000Y-145361000D01*
X146260000Y-145401000D02*
X134074000Y-145401000D01*
X146260000Y-145441000D02*
X134086000Y-145441000D01*
X146260000Y-145481000D02*
X134098000Y-145481000D01*
X146260000Y-145521000D02*
X134111000Y-145521000D01*
X146260000Y-145561000D02*
X134124000Y-145561000D01*
X146260000Y-145601000D02*
X134136000Y-145601000D01*
X146260000Y-145641000D02*
X134149000Y-145641000D01*
X146260000Y-145681000D02*
X134162000Y-145681000D01*
X146260000Y-145721000D02*
X134175000Y-145721000D01*
X146260000Y-145761000D02*
X134188000Y-145761000D01*
X146260000Y-145801000D02*
X134202000Y-145801000D01*
X146260000Y-145841000D02*
X134215000Y-145841000D01*
X146260000Y-145881000D02*
X134229000Y-145881000D01*
X146260000Y-145921000D02*
X134242000Y-145921000D01*
X146260000Y-145961000D02*
X134256000Y-145961000D01*
X146260000Y-146001000D02*
X134270000Y-146001000D01*
X146260000Y-146041000D02*
X134284000Y-146041000D01*
X146260000Y-146081000D02*
X134298000Y-146081000D01*
X146260000Y-146121000D02*
X134313000Y-146121000D01*
X146260000Y-146161000D02*
X134327000Y-146161000D01*
X146260000Y-146201000D02*
X134342000Y-146201000D01*
X146260000Y-146241000D02*
X134357000Y-146241000D01*
X146260000Y-146281000D02*
X134371000Y-146281000D01*
X146260000Y-146321000D02*
X134386000Y-146321000D01*
X146260000Y-146361000D02*
X134401000Y-146361000D01*
X146260000Y-146401000D02*
X134417000Y-146401000D01*
X146260000Y-146441000D02*
X134432000Y-146441000D01*
X146260000Y-146481000D02*
X134448000Y-146481000D01*
X146260000Y-146521000D02*
X134463000Y-146521000D01*
X146260000Y-146561000D02*
X134479000Y-146561000D01*
X146260000Y-146601000D02*
X134495000Y-146601000D01*
X146260000Y-146641000D02*
X134511000Y-146641000D01*
X146260000Y-146681000D02*
X134527000Y-146681000D01*
X146260000Y-146721000D02*
X134543000Y-146721000D01*
X146260000Y-146761000D02*
X134560000Y-146761000D01*
X146260000Y-146801000D02*
X134576000Y-146801000D01*
X146260000Y-146841000D02*
X134593000Y-146841000D01*
X146260000Y-146881000D02*
X134610000Y-146881000D01*
X146260000Y-146921000D02*
X134627000Y-146921000D01*
X146260000Y-146961000D02*
X134644000Y-146961000D01*
X146260000Y-147001000D02*
X134661000Y-147001000D01*
X146260000Y-147041000D02*
X134678000Y-147041000D01*
X146260000Y-147081000D02*
X134696000Y-147081000D01*
X146260000Y-147121000D02*
X134713000Y-147121000D01*
X146260000Y-147161000D02*
X134731000Y-147161000D01*
X146260000Y-147201000D02*
X134749000Y-147201000D01*
X146260000Y-147241000D02*
X134767000Y-147241000D01*
X146260000Y-147281000D02*
X134785000Y-147281000D01*
X146260000Y-147321000D02*
X134804000Y-147321000D01*
X146260000Y-147361000D02*
X134822000Y-147361000D01*
X146260000Y-147401000D02*
X134841000Y-147401000D01*
X146260000Y-147441000D02*
X134860000Y-147441000D01*
X146260000Y-147481000D02*
X134878000Y-147481000D01*
X146260000Y-147521000D02*
X134898000Y-147521000D01*
X146260000Y-147561000D02*
X134917000Y-147561000D01*
X146260000Y-147601000D02*
X134936000Y-147601000D01*
X146260000Y-147641000D02*
X134956000Y-147641000D01*
X146260000Y-147681000D02*
X134975000Y-147681000D01*
X146260000Y-147721000D02*
X134995000Y-147721000D01*
X146260000Y-147761000D02*
X135015000Y-147761000D01*
X146260000Y-147801000D02*
X135035000Y-147801000D01*
X146260000Y-147841000D02*
X135055000Y-147841000D01*
X146260000Y-147881000D02*
X135075000Y-147881000D01*
X146260000Y-147921000D02*
X135096000Y-147921000D01*
X146260000Y-147961000D02*
X135117000Y-147961000D01*
X146260000Y-148001000D02*
X135137000Y-148001000D01*
X146260000Y-148041000D02*
X135158000Y-148041000D01*
X146260000Y-148081000D02*
X135180000Y-148081000D01*
X146260000Y-148121000D02*
X135201000Y-148121000D01*
X146260000Y-148161000D02*
X135222000Y-148161000D01*
X146260000Y-148201000D02*
X135244000Y-148201000D01*
X148540000Y-156120000D02*
X148460000Y-156120000D01*
X149560000Y-156080000D02*
X147440000Y-156080000D01*
X150014000Y-156040000D02*
X146986000Y-156040000D01*
X150362000Y-156000000D02*
X146638000Y-156000000D01*
X150654000Y-155960000D02*
X146346000Y-155960000D01*
X150912000Y-155920000D02*
X146088000Y-155920000D01*
X151144000Y-155880000D02*
X145856000Y-155880000D01*
X151357000Y-155840000D02*
X145643000Y-155840000D01*
X151555000Y-155800000D02*
X145445000Y-155800000D01*
X151740000Y-155760000D02*
X145260000Y-155760000D01*
X151915000Y-155720000D02*
X145085000Y-155720000D01*
X152082000Y-155680000D02*
X144918000Y-155680000D01*
X152240000Y-155640000D02*
X144760000Y-155640000D01*
X152392000Y-155600000D02*
X144608000Y-155600000D01*
X152537000Y-155560000D02*
X144463000Y-155560000D01*
X152678000Y-155520000D02*
X144322000Y-155520000D01*
X152813000Y-155480000D02*
X144187000Y-155480000D01*
X152944000Y-155440000D02*
X144056000Y-155440000D01*
X153071000Y-155400000D02*
X143929000Y-155400000D01*
X153194000Y-155360000D02*
X143806000Y-155360000D01*
X153314000Y-155320000D02*
X143686000Y-155320000D01*
X153430000Y-155280000D02*
X143570000Y-155280000D01*
X153543000Y-155240000D02*
X143457000Y-155240000D01*
X153654000Y-155200000D02*
X143346000Y-155200000D01*
X153762000Y-155160000D02*
X143238000Y-155160000D01*
X153868000Y-155120000D02*
X143132000Y-155120000D01*
X153971000Y-155080000D02*
X143029000Y-155080000D01*
X154072000Y-155040000D02*
X142928000Y-155040000D01*
X154171000Y-155000000D02*
X142829000Y-155000000D01*
X154268000Y-154960000D02*
X142732000Y-154960000D01*
X154364000Y-154920000D02*
X142636000Y-154920000D01*
X154457000Y-154880000D02*
X142543000Y-154880000D01*
X154549000Y-154840000D02*
X142451000Y-154840000D01*
X154639000Y-154800000D02*
X142361000Y-154800000D01*
X154728000Y-154760000D02*
X142272000Y-154760000D01*
X154815000Y-154720000D02*
X142185000Y-154720000D01*
X154900000Y-154680000D02*
X142100000Y-154680000D01*
X154985000Y-154640000D02*
X142015000Y-154640000D01*
X155068000Y-154600000D02*
X141932000Y-154600000D01*
X155149000Y-154560000D02*
X141851000Y-154560000D01*
X155230000Y-154520000D02*
X141770000Y-154520000D01*
X155309000Y-154480000D02*
X141691000Y-154480000D01*
X155387000Y-154440000D02*
X141613000Y-154440000D01*
X155464000Y-154400000D02*
X141536000Y-154400000D01*
X155540000Y-154360000D02*
X141460000Y-154360000D01*
X155615000Y-154320000D02*
X141385000Y-154320000D01*
X155689000Y-154280000D02*
X141311000Y-154280000D01*
X155762000Y-154240000D02*
X141238000Y-154240000D01*
X155834000Y-154200000D02*
X141166000Y-154200000D01*
X155906000Y-154160000D02*
X141094000Y-154160000D01*
X155976000Y-154120000D02*
X141024000Y-154120000D01*
X156045000Y-154080000D02*
X140955000Y-154080000D01*
X156114000Y-154040000D02*
X140886000Y-154040000D01*
X156182000Y-154000000D02*
X140818000Y-154000000D01*
X156248000Y-153960000D02*
X140752000Y-153960000D01*
X156315000Y-153920000D02*
X140685000Y-153920000D01*
X156380000Y-153880000D02*
X140620000Y-153880000D01*
X156445000Y-153840000D02*
X140555000Y-153840000D01*
X156509000Y-153800000D02*
X140491000Y-153800000D01*
X156572000Y-153760000D02*
X140428000Y-153760000D01*
X156635000Y-153720000D02*
X140365000Y-153720000D01*
X156697000Y-153680000D02*
X140303000Y-153680000D01*
X156758000Y-153640000D02*
X140242000Y-153640000D01*
X156818000Y-153600000D02*
X140182000Y-153600000D01*
X156878000Y-153560000D02*
X140122000Y-153560000D01*
X156938000Y-153520000D02*
X140062000Y-153520000D01*
X156997000Y-153480000D02*
X140003000Y-153480000D01*
X157055000Y-153440000D02*
X139945000Y-153440000D01*
X157112000Y-153400000D02*
X139888000Y-153400000D01*
X157169000Y-153360000D02*
X139831000Y-153360000D01*
X157226000Y-153320000D02*
X139774000Y-153320000D01*
X157282000Y-153280000D02*
X139718000Y-153280000D01*
X157337000Y-153240000D02*
X139663000Y-153240000D01*
X157392000Y-153200000D02*
X139608000Y-153200000D01*
X157447000Y-153160000D02*
X139553000Y-153160000D01*
X157500000Y-153120000D02*
X139500000Y-153120000D01*
X157554000Y-153080000D02*
X139446000Y-153080000D01*
X157607000Y-153040000D02*
X139393000Y-153040000D01*
X157659000Y-153000000D02*
X139341000Y-153000000D01*
X157711000Y-152960000D02*
X139289000Y-152960000D01*
X157763000Y-152920000D02*
X139237000Y-152920000D01*
X157814000Y-152880000D02*
X139186000Y-152880000D01*
X157864000Y-152840000D02*
X139136000Y-152840000D01*
X157914000Y-152800000D02*
X139086000Y-152800000D01*
X157964000Y-152760000D02*
X139036000Y-152760000D01*
X158013000Y-152720000D02*
X138987000Y-152720000D01*
X158062000Y-152680000D02*
X138938000Y-152680000D01*
X158111000Y-152640000D02*
X138889000Y-152640000D01*
X158159000Y-152600000D02*
X138841000Y-152600000D01*
X158206000Y-152560000D02*
X138794000Y-152560000D01*
X158254000Y-152520000D02*
X138746000Y-152520000D01*
X158300000Y-152480000D02*
X138700000Y-152480000D01*
X158347000Y-152440000D02*
X138653000Y-152440000D01*
X158393000Y-152400000D02*
X138607000Y-152400000D01*
X158439000Y-152360000D02*
X138561000Y-152360000D01*
X158484000Y-152320000D02*
X138516000Y-152320000D01*
X158529000Y-152280000D02*
X138471000Y-152280000D01*
X158574000Y-152240000D02*
X138426000Y-152240000D01*
X158618000Y-152200000D02*
X138382000Y-152200000D01*
X158662000Y-152160000D02*
X138338000Y-152160000D01*
X158705000Y-152120000D02*
X138295000Y-152120000D01*
X158749000Y-152080000D02*
X138251000Y-152080000D01*
X158792000Y-152040000D02*
X138208000Y-152040000D01*
X158834000Y-152000000D02*
X138166000Y-152000000D01*
X158876000Y-151960000D02*
X138124000Y-151960000D01*
X158918000Y-151920000D02*
X138082000Y-151920000D01*
X158960000Y-151880000D02*
X138040000Y-151880000D01*
X159001000Y-151840000D02*
X137999000Y-151840000D01*
X159042000Y-151800000D02*
X137958000Y-151800000D01*
X159083000Y-151760000D02*
X137917000Y-151760000D01*
X159123000Y-151720000D02*
X137877000Y-151720000D01*
X159163000Y-151680000D02*
X137837000Y-151680000D01*
X159203000Y-151640000D02*
X137797000Y-151640000D01*
X159243000Y-151600000D02*
X137757000Y-151600000D01*
X159282000Y-151560000D02*
X137718000Y-151560000D01*
X159321000Y-151520000D02*
X137679000Y-151520000D01*
X159359000Y-151480000D02*
X137641000Y-151480000D01*
X159398000Y-151440000D02*
X137602000Y-151440000D01*
X159436000Y-151400000D02*
X137564000Y-151400000D01*
X159473000Y-151360000D02*
X137527000Y-151360000D01*
X159511000Y-151320000D02*
X137489000Y-151320000D01*
X159548000Y-151280000D02*
X137452000Y-151280000D01*
X159585000Y-151240000D02*
X137415000Y-151240000D01*
X159622000Y-151200000D02*
X137378000Y-151200000D01*
X159658000Y-151160000D02*
X137342000Y-151160000D01*
X159694000Y-151120000D02*
X137306000Y-151120000D01*
X159730000Y-151080000D02*
X137270000Y-151080000D01*
X159766000Y-151040000D02*
X137234000Y-151040000D01*
X159801000Y-151000000D02*
X137199000Y-151000000D01*
X159836000Y-150960000D02*
X137164000Y-150960000D01*
X159871000Y-150920000D02*
X137129000Y-150920000D01*
X159906000Y-150880000D02*
X137094000Y-150880000D01*
X159940000Y-150840000D02*
X137060000Y-150840000D01*
X159975000Y-150800000D02*
X137025000Y-150800000D01*
X160009000Y-150760000D02*
X136991000Y-150760000D01*
X160042000Y-150720000D02*
X136958000Y-150720000D01*
X160076000Y-150680000D02*
X136924000Y-150680000D01*
X160109000Y-150640000D02*
X136891000Y-150640000D01*
X160142000Y-150600000D02*
X136858000Y-150600000D01*
X160175000Y-150560000D02*
X136825000Y-150560000D01*
X160207000Y-150520000D02*
X136793000Y-150520000D01*
X160239000Y-150480000D02*
X136761000Y-150480000D01*
X160272000Y-150440000D02*
X136728000Y-150440000D01*
X160303000Y-150400000D02*
X136697000Y-150400000D01*
X160335000Y-150360000D02*
X136665000Y-150360000D01*
X160366000Y-150320000D02*
X136634000Y-150320000D01*
X160398000Y-150280000D02*
X136602000Y-150280000D01*
X160429000Y-150240000D02*
X136571000Y-150240000D01*
X160459000Y-150200000D02*
X136541000Y-150200000D01*
X160490000Y-150160000D02*
X136510000Y-150160000D01*
X160520000Y-150120000D02*
X136480000Y-150120000D01*
X160550000Y-150080000D02*
X136450000Y-150080000D01*
X160580000Y-150040000D02*
X136420000Y-150040000D01*
X160610000Y-150000000D02*
X136390000Y-150000000D01*
X160640000Y-149960000D02*
X136360000Y-149960000D01*
X160669000Y-149920000D02*
X136331000Y-149920000D01*
X160698000Y-149880000D02*
X136302000Y-149880000D01*
X160727000Y-149840000D02*
X136273000Y-149840000D01*
X160756000Y-149800000D02*
X136244000Y-149800000D01*
X160784000Y-149760000D02*
X136216000Y-149760000D01*
X160813000Y-149720000D02*
X136187000Y-149720000D01*
X160841000Y-149680000D02*
X136159000Y-149680000D01*
X160869000Y-149640000D02*
X136131000Y-149640000D01*
X160897000Y-149600000D02*
X136103000Y-149600000D01*
X160924000Y-149560000D02*
X136076000Y-149560000D01*
X160951000Y-149520000D02*
X136049000Y-149520000D01*
X160979000Y-149480000D02*
X136021000Y-149480000D01*
X161006000Y-149440000D02*
X135994000Y-149440000D01*
X161032000Y-149400000D02*
X135968000Y-149400000D01*
X161059000Y-149360000D02*
X135941000Y-149360000D01*
X161086000Y-149320000D02*
X135914000Y-149320000D01*
X161112000Y-149280000D02*
X135888000Y-149280000D01*
X161138000Y-149240000D02*
X135862000Y-149240000D01*
X161164000Y-149200000D02*
X135836000Y-149200000D01*
X161190000Y-149161000D02*
X135810000Y-149161000D01*
X161215000Y-149121000D02*
X135785000Y-149121000D01*
X161240000Y-149081000D02*
X135760000Y-149081000D01*
X161266000Y-149041000D02*
X135734000Y-149041000D01*
X161291000Y-149001000D02*
X135709000Y-149001000D01*
X161316000Y-148961000D02*
X135684000Y-148961000D01*
X161340000Y-148921000D02*
X135660000Y-148921000D01*
X161365000Y-148881000D02*
X135635000Y-148881000D01*
X161389000Y-148841000D02*
X135611000Y-148841000D01*
X161413000Y-148801000D02*
X135587000Y-148801000D01*
X161437000Y-148761000D02*
X135563000Y-148761000D01*
X161461000Y-148721000D02*
X135539000Y-148721000D01*
X161485000Y-148681000D02*
X135515000Y-148681000D01*
X161508000Y-148641000D02*
X135492000Y-148641000D01*
X161532000Y-148601000D02*
X135468000Y-148601000D01*
X161555000Y-148561000D02*
X135445000Y-148561000D01*
X161578000Y-148521000D02*
X135422000Y-148521000D01*
X161601000Y-148481000D02*
X135399000Y-148481000D01*
X161623000Y-148441000D02*
X135377000Y-148441000D01*
X161646000Y-148401000D02*
X135354000Y-148401000D01*
X161668000Y-148361000D02*
X135332000Y-148361000D01*
X161690000Y-148321000D02*
X135310000Y-148321000D01*
X161713000Y-148281000D02*
X135287000Y-148281000D01*
X161734000Y-148241000D02*
X135266000Y-148241000D01*
X161756000Y-148201000D02*
X150740000Y-148201000D01*
X161778000Y-148161000D02*
X150740000Y-148161000D01*
X161799000Y-148121000D02*
X150740000Y-148121000D01*
X161820000Y-148081000D02*
X150740000Y-148081000D01*
X161842000Y-148041000D02*
X150740000Y-148041000D01*
X161863000Y-148001000D02*
X150740000Y-148001000D01*
X161883000Y-147961000D02*
X150740000Y-147961000D01*
X161904000Y-147921000D02*
X150740000Y-147921000D01*
X161925000Y-147881000D02*
X150740000Y-147881000D01*
X161945000Y-147841000D02*
X150740000Y-147841000D01*
X161965000Y-147801000D02*
X150740000Y-147801000D01*
X161985000Y-147761000D02*
X150740000Y-147761000D01*
X162005000Y-147721000D02*
X150740000Y-147721000D01*
X162025000Y-147681000D02*
X150740000Y-147681000D01*
X162044000Y-147641000D02*
X150740000Y-147641000D01*
X162064000Y-147601000D02*
X150740000Y-147601000D01*
X162083000Y-147561000D02*
X150740000Y-147561000D01*
X162102000Y-147521000D02*
X150740000Y-147521000D01*
X162122000Y-147481000D02*
X150740000Y-147481000D01*
X162140000Y-147441000D02*
X150740000Y-147441000D01*
X162159000Y-147401000D02*
X150740000Y-147401000D01*
X162178000Y-147361000D02*
X150740000Y-147361000D01*
X162196000Y-147321000D02*
X150740000Y-147321000D01*
X162215000Y-147281000D02*
X150740000Y-147281000D01*
X162233000Y-147241000D02*
X150740000Y-147241000D01*
X162251000Y-147201000D02*
X150740000Y-147201000D01*
X162269000Y-147161000D02*
X150740000Y-147161000D01*
X162287000Y-147121000D02*
X150740000Y-147121000D01*
X162304000Y-147081000D02*
X150740000Y-147081000D01*
X162322000Y-147041000D02*
X150740000Y-147041000D01*
X162339000Y-147001000D02*
X150740000Y-147001000D01*
X162356000Y-146961000D02*
X150740000Y-146961000D01*
X162373000Y-146921000D02*
X150740000Y-146921000D01*
X162390000Y-146881000D02*
X150740000Y-146881000D01*
X162407000Y-146841000D02*
X150740000Y-146841000D01*
X162424000Y-146801000D02*
X150740000Y-146801000D01*
X162440000Y-146761000D02*
X150740000Y-146761000D01*
X162457000Y-146721000D02*
X150740000Y-146721000D01*
X162473000Y-146681000D02*
X150740000Y-146681000D01*
X162489000Y-146641000D02*
X150740000Y-146641000D01*
X162505000Y-146601000D02*
X150740000Y-146601000D01*
X162521000Y-146561000D02*
X150740000Y-146561000D01*
X162537000Y-146521000D02*
X150740000Y-146521000D01*
X162552000Y-146481000D02*
X150740000Y-146481000D01*
X162568000Y-146441000D02*
X150740000Y-146441000D01*
X162583000Y-146401000D02*
X150740000Y-146401000D01*
X162599000Y-146361000D02*
X150740000Y-146361000D01*
X162614000Y-146321000D02*
X150740000Y-146321000D01*
X162629000Y-146281000D02*
X150740000Y-146281000D01*
X162643000Y-146241000D02*
X150740000Y-146241000D01*
X162658000Y-146201000D02*
X150740000Y-146201000D01*
X162673000Y-146161000D02*
X150740000Y-146161000D01*
X162687000Y-146121000D02*
X150740000Y-146121000D01*
X162702000Y-146081000D02*
X150740000Y-146081000D01*
X162716000Y-146041000D02*
X150740000Y-146041000D01*
X162730000Y-146001000D02*
X150740000Y-146001000D01*
X162744000Y-145961000D02*
X150740000Y-145961000D01*
X162758000Y-145921000D02*
X150740000Y-145921000D01*
X162771000Y-145881000D02*
X150740000Y-145881000D01*
X162785000Y-145841000D02*
X150740000Y-145841000D01*
X162798000Y-145801000D02*
X150740000Y-145801000D01*
X162812000Y-145761000D02*
X150740000Y-145761000D01*
X162825000Y-145721000D02*
X150740000Y-145721000D01*
X162838000Y-145681000D02*
X150740000Y-145681000D01*
X162851000Y-145641000D02*
X150740000Y-145641000D01*
X162864000Y-145601000D02*
X150740000Y-145601000D01*
X162876000Y-145561000D02*
X150740000Y-145561000D01*
X162889000Y-145521000D02*
X150740000Y-145521000D01*
X162902000Y-145481000D02*
X150740000Y-145481000D01*
X162914000Y-145441000D02*
X150740000Y-145441000D01*
X162926000Y-145401000D02*
X150740000Y-145401000D01*
X162938000Y-145361000D02*
X150740000Y-145361000D01*
X162950000Y-145321000D02*
X150740000Y-145321000D01*
X162962000Y-145281000D02*
X150740000Y-145281000D01*
X162974000Y-145241000D02*
X150740000Y-145241000D01*
X162985000Y-145201000D02*
X150740000Y-145201000D01*
X162997000Y-145161000D02*
X150740000Y-145161000D01*
X163008000Y-145121000D02*
X150740000Y-145121000D01*
X163020000Y-145081000D02*
X150740000Y-145081000D01*
X163031000Y-145041000D02*
X150740000Y-145041000D01*
X163042000Y-145001000D02*
X150740000Y-145001000D01*
X163053000Y-144961000D02*
X150740000Y-144961000D01*
X163064000Y-144921000D02*
X150740000Y-144921000D01*
X163074000Y-144881000D02*
X150740000Y-144881000D01*
X163085000Y-144841000D02*
X150740000Y-144841000D01*
X163095000Y-144801000D02*
X150740000Y-144801000D01*
X163106000Y-144761000D02*
X150740000Y-144761000D01*
X163116000Y-144721000D02*
X150740000Y-144721000D01*
X163126000Y-144681000D02*
X150740000Y-144681000D01*
X163136000Y-144641000D02*
X150740000Y-144641000D01*
X163146000Y-144601000D02*
X150740000Y-144601000D01*
X163155000Y-144561000D02*
X150740000Y-144561000D01*
X163165000Y-144521000D02*
X150740000Y-144521000D01*
X163175000Y-144481000D02*
X150740000Y-144481000D01*
X163184000Y-144441000D02*
X150740000Y-144441000D01*
X163193000Y-144401000D02*
X150740000Y-144401000D01*
X163202000Y-144361000D02*
X150740000Y-144361000D01*
X163211000Y-144321000D02*
X150740000Y-144321000D01*
X163220000Y-144281000D02*
X150740000Y-144281000D01*
X163229000Y-144241000D02*
X150740000Y-144241000D01*
X163238000Y-144201000D02*
X150740000Y-144201000D01*
X163247000Y-144161000D02*
X150740000Y-144161000D01*
X163255000Y-144121000D02*
X150740000Y-144121000D01*
X163263000Y-144081000D02*
X150740000Y-144081000D01*
X163272000Y-144041000D02*
X150740000Y-144041000D01*
X163280000Y-144001000D02*
X150740000Y-144001000D01*
X163288000Y-143961000D02*
X150740000Y-143961000D01*
X163296000Y-143921000D02*
X150740000Y-143921000D01*
X163304000Y-143881000D02*
X150740000Y-143881000D01*
X163311000Y-143841000D02*
X150740000Y-143841000D01*
X163319000Y-143801000D02*
X150740000Y-143801000D01*
X163326000Y-143761000D02*
X150740000Y-143761000D01*
X163334000Y-143721000D02*
X133666000Y-143721000D01*
X163341000Y-143681000D02*
X133659000Y-143681000D01*
X163348000Y-143641000D02*
X133652000Y-143641000D01*
X163355000Y-143601000D02*
X133645000Y-143601000D01*
X163362000Y-143561000D02*
X133638000Y-143561000D01*
X163369000Y-143521000D02*
X133631000Y-143521000D01*
X163376000Y-143481000D02*
X133624000Y-143481000D01*
X163382000Y-143441000D02*
X133618000Y-143441000D01*
X163389000Y-143401000D02*
X133611000Y-143401000D01*
X163395000Y-143361000D02*
X133605000Y-143361000D01*
X163401000Y-143321000D02*
X133599000Y-143321000D01*
X163408000Y-143281000D02*
X133592000Y-143281000D01*
X163414000Y-143241000D02*
X133586000Y-143241000D01*
X163420000Y-143201000D02*
X133580000Y-143201000D01*
X163425000Y-143161000D02*
X133575000Y-143161000D01*
X163431000Y-143121000D02*
X133569000Y-143121000D01*
X163437000Y-143081000D02*
X133563000Y-143081000D01*
X163442000Y-143041000D02*
X133558000Y-143041000D01*
X163448000Y-143001000D02*
X133552000Y-143001000D01*
X163453000Y-142961000D02*
X133547000Y-142961000D01*
X163458000Y-142921000D02*
X133542000Y-142921000D01*
X163463000Y-142881000D02*
X133537000Y-142881000D01*
X163468000Y-142841000D02*
X133532000Y-142841000D01*
X163473000Y-142801000D02*
X133527000Y-142801000D01*
X163478000Y-142761000D02*
X133522000Y-142761000D01*
X163482000Y-142721000D02*
X133518000Y-142721000D01*
X163487000Y-142681000D02*
X133513000Y-142681000D01*
X163491000Y-142641000D02*
X133509000Y-142641000D01*
X163496000Y-142601000D02*
X133504000Y-142601000D01*
X163500000Y-142561000D02*
X133500000Y-142561000D01*
X163504000Y-142521000D02*
X133496000Y-142521000D01*
X163508000Y-142481000D02*
X133492000Y-142481000D01*
X163512000Y-142441000D02*
X133488000Y-142441000D01*
X163516000Y-142401000D02*
X133484000Y-142401000D01*
X163519000Y-142361000D02*
X133481000Y-142361000D01*
X163523000Y-142321000D02*
X133477000Y-142321000D01*
X163526000Y-142281000D02*
X133474000Y-142281000D01*
X163530000Y-142241000D02*
X133470000Y-142241000D01*
X163533000Y-142201000D02*
X133467000Y-142201000D01*
X163536000Y-142161000D02*
X133464000Y-142161000D01*
X163539000Y-142121000D02*
X133461000Y-142121000D01*
X163542000Y-142081000D02*
X133458000Y-142081000D01*
X163545000Y-142041000D02*
X133455000Y-142041000D01*
X163547000Y-142001000D02*
X133453000Y-142001000D01*
X163550000Y-141961000D02*
X133450000Y-141961000D01*
X163552000Y-141921000D02*
X133448000Y-141921000D01*
X163555000Y-141881000D02*
X133445000Y-141881000D01*
X163557000Y-141841000D02*
X133443000Y-141841000D01*
X163559000Y-141801000D02*
X133441000Y-141801000D01*
X163561000Y-141761000D02*
X133439000Y-141761000D01*
X163563000Y-141721000D02*
X133437000Y-141721000D01*
X163565000Y-141680000D02*
X133435000Y-141680000D01*
X163567000Y-141640000D02*
X133433000Y-141640000D01*
X163569000Y-141600000D02*
X133431000Y-141600000D01*
X163570000Y-141560000D02*
X133430000Y-141560000D01*
X163572000Y-141520000D02*
X133428000Y-141520000D01*
X163573000Y-141480000D02*
X133427000Y-141480000D01*
X163574000Y-141440000D02*
X133426000Y-141440000D01*
X163575000Y-141400000D02*
X133425000Y-141400000D01*
X163576000Y-141360000D02*
X133424000Y-141360000D01*
X163577000Y-141320000D02*
X133423000Y-141320000D01*
X163578000Y-141280000D02*
X133422000Y-141280000D01*
X163579000Y-141200000D02*
X133421000Y-141200000D01*
X163579000Y-141240000D02*
X133421000Y-141240000D01*
X163580000Y-141040000D02*
X133420000Y-141040000D01*
X163580000Y-141080000D02*
X133420000Y-141080000D01*
X163580000Y-141120000D02*
X133420000Y-141120000D01*
X163580000Y-141160000D02*
X133420000Y-141160000D01*
X163581000Y-141000000D02*
X133419000Y-141000000D01*
X163620000Y-141000000D02*
G75*
G02*
X133380000Y-141000000I-15120000J0D01*
G01*
X133380000Y-141000000D02*
G75*
G02*
X163620000Y-141000000I15120000J0D01*
G01*
%TO.C,L2*%
X192650000Y-73500000D02*
X226550000Y-73500000D01*
X192650000Y-100500000D02*
X192650000Y-73500000D01*
X226550000Y-73500000D02*
X227350000Y-74300000D01*
X227350000Y-74300000D02*
X227350000Y-100500000D01*
X227350000Y-100500000D02*
X192650000Y-100500000D01*
%TO.C,J9*%
X187290000Y-175990000D02*
X187290000Y-177440000D01*
X188560000Y-180260000D02*
X199490000Y-180260000D01*
X189090000Y-175990000D02*
X187290000Y-175990000D01*
X198960000Y-175000000D02*
X198960000Y-175990000D01*
X198960000Y-175990000D02*
X200760000Y-175990000D01*
X200760000Y-175990000D02*
X200760000Y-177440000D01*
%TO.C,R37*%
X204153641Y-168420001D02*
X203846359Y-168420001D01*
X204153641Y-169180001D02*
X203846359Y-169180001D01*
%TO.C,F3*%
X170000000Y-147500000D02*
X170000000Y-140500000D01*
X190000000Y-140500000D02*
X170000000Y-140500000D01*
X190000000Y-147500000D02*
X170000000Y-147500000D01*
X190000000Y-147500000D02*
X190000000Y-140500000D01*
%TO.C,C23*%
X213440000Y-167192164D02*
X213440000Y-167407836D01*
X214160000Y-167192164D02*
X214160000Y-167407836D01*
%TO.C,C36*%
X188238748Y-85765000D02*
X188761252Y-85765000D01*
X188238748Y-87235000D02*
X188761252Y-87235000D01*
%TO.C,R3*%
X213620000Y-145403641D02*
X213620000Y-145096359D01*
X214380000Y-145403641D02*
X214380000Y-145096359D01*
%TO.C,R75*%
X193045000Y-173553641D02*
X193045000Y-173246359D01*
X193805000Y-173553641D02*
X193805000Y-173246359D01*
%TO.C,R69*%
X209620000Y-169956358D02*
X209620000Y-170263640D01*
X210380000Y-169956358D02*
X210380000Y-170263640D01*
%TO.C,R2*%
X234346359Y-167870000D02*
X234653641Y-167870000D01*
X234346359Y-168630000D02*
X234653641Y-168630000D01*
%TO.C,R40*%
X204153641Y-167220001D02*
X203846359Y-167220001D01*
X204153641Y-167980001D02*
X203846359Y-167980001D01*
%TO.C,R81*%
X215620000Y-171843642D02*
X215620000Y-171536360D01*
X216380000Y-171843642D02*
X216380000Y-171536360D01*
%TO.C,R23*%
X197620000Y-159946359D02*
X197620000Y-160253641D01*
X198380000Y-159946359D02*
X198380000Y-160253641D01*
%TO.C,R33*%
X202153641Y-169620002D02*
X201846359Y-169620002D01*
X202153641Y-170380002D02*
X201846359Y-170380002D01*
%TO.C,C12*%
X210140000Y-145142164D02*
X210140000Y-145357836D01*
X210860000Y-145142164D02*
X210860000Y-145357836D01*
%TO.C,R28*%
X199346359Y-158220000D02*
X199653641Y-158220000D01*
X199346359Y-158980000D02*
X199653641Y-158980000D01*
%TO.C,Q4*%
X224300000Y-129550000D02*
X224300000Y-130915000D01*
X226110000Y-129550000D02*
X224300000Y-129550000D01*
X232890000Y-129550000D02*
X234700000Y-129550000D01*
X234700000Y-129550000D02*
X234700000Y-130915000D01*
X226150000Y-126725000D02*
X225680000Y-127065000D01*
X225680000Y-126385000D01*
X226150000Y-126725000D01*
G36*
X226150000Y-126725000D02*
G01*
X225680000Y-127065000D01*
X225680000Y-126385000D01*
X226150000Y-126725000D01*
G37*
%TO.C,Y2*%
X209100000Y-165300000D02*
X209100000Y-168600000D01*
X213100000Y-165300000D02*
X209100000Y-165300000D01*
%TO.C,R88*%
X202120000Y-140443642D02*
X202120000Y-140136360D01*
X202880000Y-140443642D02*
X202880000Y-140136360D01*
%TO.C,C13*%
X219907836Y-160640000D02*
X219692164Y-160640000D01*
X219907836Y-161360000D02*
X219692164Y-161360000D01*
%TO.C,J5*%
X229500000Y-141910000D02*
X236500000Y-141910000D01*
X229500000Y-146090000D02*
X229500000Y-141910000D01*
X232300000Y-146090000D02*
X229500000Y-146090000D01*
X232300000Y-147240000D02*
X232300000Y-146090000D01*
X233700000Y-146090000D02*
X233700000Y-147240000D01*
X233700000Y-147240000D02*
X232300000Y-147240000D01*
X236500000Y-141910000D02*
X236500000Y-146090000D01*
X236500000Y-146090000D02*
X233700000Y-146090000D01*
%TO.C,R71*%
X211120002Y-169956358D02*
X211120002Y-170263640D01*
X211880002Y-169956358D02*
X211880002Y-170263640D01*
%TO.C,C33*%
X188238748Y-83265000D02*
X188761252Y-83265000D01*
X188238748Y-84735000D02*
X188761252Y-84735000D01*
%TO.C,R82*%
X234653641Y-166670000D02*
X234346359Y-166670000D01*
X234653641Y-167430000D02*
X234346359Y-167430000D01*
%TO.C,R84*%
X234346359Y-171620000D02*
X234653641Y-171620000D01*
X234346359Y-172380000D02*
X234653641Y-172380000D01*
%TO.C,R24*%
X199653641Y-159320000D02*
X199346359Y-159320000D01*
X199653641Y-160080000D02*
X199346359Y-160080000D01*
%TO.C,R83*%
X234346359Y-172870000D02*
X234653641Y-172870000D01*
X234346359Y-173630000D02*
X234653641Y-173630000D01*
%TO.C,R39*%
X202153641Y-167220002D02*
X201846359Y-167220002D01*
X202153641Y-167980002D02*
X201846359Y-167980002D01*
%TO.C,R41*%
X202153641Y-166020000D02*
X201846359Y-166020000D01*
X202153641Y-166780000D02*
X201846359Y-166780000D01*
%TO.C,C21*%
X208140000Y-166697786D02*
X208140000Y-166482114D01*
X208860000Y-166697786D02*
X208860000Y-166482114D01*
%TO.C,J8*%
X219290000Y-175990000D02*
X219290000Y-177440000D01*
X220560000Y-180260000D02*
X231490000Y-180260000D01*
X221090000Y-175990000D02*
X219290000Y-175990000D01*
X230960000Y-175000000D02*
X230960000Y-175990000D01*
X230960000Y-175990000D02*
X232760000Y-175990000D01*
X232760000Y-175990000D02*
X232760000Y-177440000D01*
%TO.C,R80*%
X214520000Y-171853641D02*
X214520000Y-171546359D01*
X215280000Y-171853641D02*
X215280000Y-171546359D01*
%TO.C,C16*%
X216640000Y-145112164D02*
X216640000Y-145327836D01*
X217360000Y-145112164D02*
X217360000Y-145327836D01*
%TO.C,C14*%
X199892164Y-149340000D02*
X200107836Y-149340000D01*
X199892164Y-150060000D02*
X200107836Y-150060000D01*
%TO.C,C18*%
X196640000Y-160207836D02*
X196640000Y-159992164D01*
X197360000Y-160207836D02*
X197360000Y-159992164D01*
%TO.C,J6*%
X238500000Y-141910000D02*
X245500000Y-141910000D01*
X238500000Y-146090000D02*
X238500000Y-141910000D01*
X241300000Y-146090000D02*
X238500000Y-146090000D01*
X241300000Y-147240000D02*
X241300000Y-146090000D01*
X242700000Y-146090000D02*
X242700000Y-147240000D01*
X242700000Y-147240000D02*
X241300000Y-147240000D01*
X245500000Y-141910000D02*
X245500000Y-146090000D01*
X245500000Y-146090000D02*
X242700000Y-146090000D01*
%TO.C,J1*%
X202015000Y-175990000D02*
X202015000Y-177440000D01*
X203285000Y-180260000D02*
X216715000Y-180260000D01*
X203815000Y-175990000D02*
X202015000Y-175990000D01*
X216185000Y-175000000D02*
X216185000Y-175990000D01*
X216185000Y-175990000D02*
X217985000Y-175990000D01*
X217985000Y-175990000D02*
X217985000Y-177440000D01*
%TO.C,C8*%
X204340000Y-164692164D02*
X204340000Y-164907836D01*
X205060000Y-164692164D02*
X205060000Y-164907836D01*
%TO.C,R36*%
X202153641Y-168420000D02*
X201846359Y-168420000D01*
X202153641Y-169180000D02*
X201846359Y-169180000D01*
%TO.C,Q3*%
X210050000Y-125800000D02*
X211415000Y-125800000D01*
X210050000Y-127610000D02*
X210050000Y-125800000D01*
X210050000Y-134390000D02*
X210050000Y-136200000D01*
X210050000Y-136200000D02*
X211415000Y-136200000D01*
X207565000Y-134819999D02*
X206885000Y-134820000D01*
X207225000Y-134350000D01*
X207565000Y-134819999D01*
G36*
X207565000Y-134819999D02*
G01*
X206885000Y-134820000D01*
X207225000Y-134350000D01*
X207565000Y-134819999D01*
G37*
%TO.C,R42*%
X204153641Y-166020000D02*
X203846359Y-166020000D01*
X204153641Y-166780000D02*
X203846359Y-166780000D01*
%TO.C,C30*%
X188238748Y-80765000D02*
X188761252Y-80765000D01*
X188238748Y-82235000D02*
X188761252Y-82235000D01*
%TO.C,R25*%
X197346359Y-157120000D02*
X197653641Y-157120000D01*
X197346359Y-157880000D02*
X197653641Y-157880000D01*
%TO.C,R34*%
X204153641Y-169620000D02*
X203846359Y-169620000D01*
X204153641Y-170380000D02*
X203846359Y-170380000D01*
%TO.C,C10*%
X215640000Y-145112164D02*
X215640000Y-145327836D01*
X216360000Y-145112164D02*
X216360000Y-145327836D01*
%TD*%
%LPC*%
D14*
X170037500Y-174000000D02*
G75*
G02*
X169462500Y-174000000I-287500J0D01*
G01*
X169462500Y-174000000D02*
G75*
G02*
X170037500Y-174000000I287500J0D01*
G01*
X171287500Y-175250000D02*
G75*
G02*
X170712500Y-175250000I-287500J0D01*
G01*
X170712500Y-175250000D02*
G75*
G02*
X171287500Y-175250000I287500J0D01*
G01*
X172537500Y-176500000D02*
G75*
G02*
X171962500Y-176500000I-287500J0D01*
G01*
X171962500Y-176500000D02*
G75*
G02*
X172537500Y-176500000I287500J0D01*
G01*
X173787500Y-177750000D02*
G75*
G02*
X173212500Y-177750000I-287500J0D01*
G01*
X173212500Y-177750000D02*
G75*
G02*
X173787500Y-177750000I287500J0D01*
G01*
D15*
%TO.C,J3*%
X185500000Y-166500000D03*
D16*
X185500000Y-171500000D03*
%TD*%
D17*
%TO.C,H2*%
X291000000Y-138000000D03*
%TD*%
%TO.C,H1*%
X210000000Y-69000000D03*
%TD*%
D18*
%TO.C,J2*%
X189800000Y-170300000D03*
D19*
X200200000Y-170300000D03*
%TD*%
D17*
%TO.C,H3*%
X129000000Y-138000000D03*
%TD*%
D20*
%TO.C,C29*%
X188500000Y-110000000D03*
%TD*%
D21*
%TO.C,C38*%
X189450000Y-89000000D03*
X187550000Y-89000000D03*
%TD*%
D22*
%TO.C,C26*%
X271500000Y-136000000D03*
D23*
X271500000Y-146000000D03*
%TD*%
D24*
%TO.C,R72*%
X226625000Y-172790000D03*
X226625000Y-173810000D03*
%TD*%
D25*
%TO.C,R26*%
X198990001Y-157500000D03*
X200009999Y-157500000D03*
%TD*%
D26*
%TO.C,C9*%
X200280000Y-156000000D03*
X199320000Y-156000000D03*
%TD*%
%TO.C,C15*%
X200280000Y-154900000D03*
X199320000Y-154900000D03*
%TD*%
D24*
%TO.C,R73*%
X194625000Y-172890001D03*
X194625000Y-173909999D03*
%TD*%
D27*
%TO.C,U3*%
X216000000Y-162675000D03*
X215500000Y-162675000D03*
X215000000Y-162675000D03*
X214500000Y-162675000D03*
X214000000Y-162675000D03*
X213500000Y-162675000D03*
X213000000Y-162675000D03*
X212500000Y-162675000D03*
X212000000Y-162675000D03*
X211500000Y-162675000D03*
X211000000Y-162675000D03*
X210500000Y-162675000D03*
X210000000Y-162675000D03*
X209500000Y-162675000D03*
X209000000Y-162675000D03*
X208500000Y-162675000D03*
X208000000Y-162675000D03*
X207500000Y-162675000D03*
X207000000Y-162675000D03*
X206500000Y-162675000D03*
X206000000Y-162675000D03*
X205500000Y-162675000D03*
X205000000Y-162675000D03*
X204500000Y-162675000D03*
X204000000Y-162675000D03*
D28*
X202325000Y-161000000D03*
X202325000Y-160500000D03*
X202325000Y-160000000D03*
X202325000Y-159500000D03*
X202325000Y-159000000D03*
X202325000Y-158500000D03*
X202325000Y-158000000D03*
X202325000Y-157500000D03*
X202325000Y-157000000D03*
X202325000Y-156500000D03*
X202325000Y-156000000D03*
X202325000Y-155500000D03*
X202325000Y-155000000D03*
X202325000Y-154500000D03*
X202325000Y-154000000D03*
X202325000Y-153500000D03*
X202325000Y-153000000D03*
X202325000Y-152500000D03*
X202325000Y-152000000D03*
X202325000Y-151500000D03*
X202325000Y-151000000D03*
X202325000Y-150500000D03*
X202325000Y-150000000D03*
X202325000Y-149500000D03*
X202325000Y-149000000D03*
D27*
X204000000Y-147325000D03*
X204500000Y-147325000D03*
X205000000Y-147325000D03*
X205500000Y-147325000D03*
X206000000Y-147325000D03*
X206500000Y-147325000D03*
X207000000Y-147325000D03*
X207500000Y-147325000D03*
X208000000Y-147325000D03*
X208500000Y-147325000D03*
X209000000Y-147325000D03*
X209500000Y-147325000D03*
X210000000Y-147325000D03*
X210500000Y-147325000D03*
X211000000Y-147325000D03*
X211500000Y-147325000D03*
X212000000Y-147325000D03*
X212500000Y-147325000D03*
X213000000Y-147325000D03*
X213500000Y-147325000D03*
X214000000Y-147325000D03*
X214500000Y-147325000D03*
X215000000Y-147325000D03*
X215500000Y-147325000D03*
X216000000Y-147325000D03*
D28*
X217675000Y-149000000D03*
X217675000Y-149500000D03*
X217675000Y-150000000D03*
X217675000Y-150500000D03*
X217675000Y-151000000D03*
X217675000Y-151500000D03*
X217675000Y-152000000D03*
X217675000Y-152500000D03*
X217675000Y-153000000D03*
X217675000Y-153500000D03*
X217675000Y-154000000D03*
X217675000Y-154500000D03*
X217675000Y-155000000D03*
X217675000Y-155500000D03*
X217675000Y-156000000D03*
X217675000Y-156500000D03*
X217675000Y-157000000D03*
X217675000Y-157500000D03*
X217675000Y-158000000D03*
X217675000Y-158500000D03*
X217675000Y-159000000D03*
X217675000Y-159500000D03*
X217675000Y-160000000D03*
X217675000Y-160500000D03*
X217675000Y-161000000D03*
%TD*%
D24*
%TO.C,R74*%
X225425000Y-172790000D03*
X225425000Y-173810000D03*
%TD*%
D29*
%TO.C,R29*%
X198010000Y-158600000D03*
X196990000Y-158600000D03*
%TD*%
D22*
%TO.C,C25*%
X148500000Y-136000000D03*
D23*
X148500000Y-146000000D03*
%TD*%
D30*
%TO.C,L2*%
X225475000Y-77000000D03*
X225475000Y-81000000D03*
X225475000Y-85000000D03*
X225475000Y-89000000D03*
X225475000Y-93000000D03*
X225475000Y-97000000D03*
X194525000Y-97000000D03*
X194525000Y-93000000D03*
X194525000Y-89000000D03*
X194525000Y-85000000D03*
X194525000Y-81000000D03*
X194525000Y-77000000D03*
%TD*%
D31*
%TO.C,J9*%
X198400000Y-175850000D03*
X197150000Y-175850000D03*
X195900000Y-175850000D03*
X194650000Y-175850000D03*
X193400000Y-175850000D03*
X192150000Y-175850000D03*
X190900000Y-175850000D03*
X189650000Y-175850000D03*
D32*
X200250000Y-179050000D03*
X187800000Y-179050000D03*
%TD*%
D25*
%TO.C,R37*%
X203490001Y-168800001D03*
X204509999Y-168800001D03*
%TD*%
D33*
%TO.C,F3*%
X173265000Y-142300000D03*
X173265000Y-145700000D03*
X186735000Y-142300000D03*
X186735000Y-145700000D03*
%TD*%
D34*
%TO.C,C23*%
X213800000Y-167780000D03*
X213800000Y-166820000D03*
%TD*%
D21*
%TO.C,C36*%
X189450000Y-86500000D03*
X187550000Y-86500000D03*
%TD*%
D24*
%TO.C,R3*%
X214000000Y-144740001D03*
X214000000Y-145759999D03*
%TD*%
%TO.C,R75*%
X193425000Y-172890001D03*
X193425000Y-173909999D03*
%TD*%
D35*
%TO.C,R69*%
X210000000Y-170619998D03*
X210000000Y-169600000D03*
%TD*%
D29*
%TO.C,R2*%
X235010000Y-168250000D03*
X233990000Y-168250000D03*
%TD*%
D25*
%TO.C,R40*%
X203490001Y-167600001D03*
X204509999Y-167600001D03*
%TD*%
D24*
%TO.C,R81*%
X216000000Y-171180002D03*
X216000000Y-172200000D03*
%TD*%
D35*
%TO.C,R23*%
X198000000Y-160609999D03*
X198000000Y-159590001D03*
%TD*%
D25*
%TO.C,R33*%
X201490001Y-170000002D03*
X202509999Y-170000002D03*
%TD*%
D34*
%TO.C,C12*%
X210500000Y-145730000D03*
X210500000Y-144770000D03*
%TD*%
D29*
%TO.C,R28*%
X200010000Y-158600000D03*
X198990000Y-158600000D03*
%TD*%
D36*
%TO.C,Q4*%
X226960000Y-126725000D03*
D37*
X229500000Y-135875000D03*
D36*
X232040000Y-126725000D03*
%TD*%
D38*
%TO.C,Y2*%
X210000000Y-166100000D03*
X212200000Y-166100000D03*
X212200000Y-167800000D03*
X210000000Y-167800000D03*
%TD*%
D24*
%TO.C,R88*%
X202500000Y-139780002D03*
X202500000Y-140800000D03*
%TD*%
D39*
%TO.C,C13*%
X219320000Y-161000000D03*
X220280000Y-161000000D03*
%TD*%
D40*
%TO.C,J5*%
X230220000Y-144980000D03*
D41*
X234500000Y-144000000D03*
D42*
X231500000Y-144000000D03*
%TD*%
D35*
%TO.C,R71*%
X211500002Y-170619998D03*
X211500002Y-169600000D03*
%TD*%
D21*
%TO.C,C33*%
X189450000Y-84000000D03*
X187550000Y-84000000D03*
%TD*%
D25*
%TO.C,R82*%
X233990001Y-167050000D03*
X235009999Y-167050000D03*
%TD*%
D29*
%TO.C,R84*%
X235009999Y-172000000D03*
X233990001Y-172000000D03*
%TD*%
D25*
%TO.C,R24*%
X198990001Y-159700000D03*
X200009999Y-159700000D03*
%TD*%
D29*
%TO.C,R83*%
X235010000Y-173250000D03*
X233990000Y-173250000D03*
%TD*%
D25*
%TO.C,R39*%
X201490001Y-167600002D03*
X202509999Y-167600002D03*
%TD*%
%TO.C,R41*%
X201490001Y-166400000D03*
X202509999Y-166400000D03*
%TD*%
D43*
%TO.C,C21*%
X208500000Y-166109950D03*
X208500000Y-167069950D03*
%TD*%
D31*
%TO.C,J8*%
X230400000Y-175850000D03*
X229150000Y-175850000D03*
X227900000Y-175850000D03*
X226650000Y-175850000D03*
X225400000Y-175850000D03*
X224150000Y-175850000D03*
X222900000Y-175850000D03*
X221650000Y-175850000D03*
D32*
X232250000Y-179050000D03*
X219800000Y-179050000D03*
%TD*%
D24*
%TO.C,R80*%
X214900000Y-171190001D03*
X214900000Y-172209999D03*
%TD*%
D34*
%TO.C,C16*%
X217000000Y-145700000D03*
X217000000Y-144740000D03*
%TD*%
D26*
%TO.C,C14*%
X200480000Y-149700000D03*
X199520000Y-149700000D03*
%TD*%
D43*
%TO.C,C18*%
X197000000Y-159620000D03*
X197000000Y-160580000D03*
%TD*%
D40*
%TO.C,J6*%
X239220000Y-144980000D03*
D41*
X243500000Y-144000000D03*
D42*
X240500000Y-144000000D03*
%TD*%
D31*
%TO.C,J1*%
X215625000Y-175850000D03*
X214375000Y-175850000D03*
X213125000Y-175850000D03*
X211875000Y-175850000D03*
X210625000Y-175850000D03*
X209375000Y-175850000D03*
X208125000Y-175850000D03*
X206875000Y-175850000D03*
X205625000Y-175850000D03*
X204375000Y-175850000D03*
D32*
X217475000Y-179050000D03*
X202525000Y-179050000D03*
%TD*%
D34*
%TO.C,C8*%
X204700000Y-165280000D03*
X204700000Y-164320000D03*
%TD*%
D25*
%TO.C,R36*%
X201490001Y-168800000D03*
X202509999Y-168800000D03*
%TD*%
D44*
%TO.C,Q3*%
X207225000Y-133540000D03*
D45*
X216375000Y-131000000D03*
D44*
X207225000Y-128460000D03*
%TD*%
D25*
%TO.C,R42*%
X203490001Y-166400000D03*
X204509999Y-166400000D03*
%TD*%
D21*
%TO.C,C30*%
X189450000Y-81500000D03*
X187550000Y-81500000D03*
%TD*%
D29*
%TO.C,R25*%
X198010000Y-157500000D03*
X196990000Y-157500000D03*
%TD*%
D25*
%TO.C,R34*%
X203490001Y-170000000D03*
X204509999Y-170000000D03*
%TD*%
D34*
%TO.C,C10*%
X216000000Y-145700000D03*
X216000000Y-144740000D03*
%TD*%
%LPD*%
M02*
