%TF.GenerationSoftware,KiCad,Pcbnew,8.0.7*%
%TF.CreationDate,2025-04-17T21:37:30-04:00*%
%TF.ProjectId,kicker,6b69636b-6572-42e6-9b69-6361645f7063,v4*%
%TF.SameCoordinates,Original*%
%TF.FileFunction,Copper,L1,Top*%
%TF.FilePolarity,Positive*%
%FSLAX46Y46*%
G04 Gerber Fmt 4.6, Leading zero omitted, Abs format (unit mm)*
G04 Created by KiCad (PCBNEW 8.0.7) date 2025-04-17 21:37:30*
%MOMM*%
%LPD*%
G01*
G04 APERTURE LIST*
G04 Aperture macros list*
%AMRoundRect*
0 Rectangle with rounded corners*
0 $1 Rounding radius*
0 $2 $3 $4 $5 $6 $7 $8 $9 X,Y pos of 4 corners*
0 Add a 4 corners polygon primitive as box body*
4,1,4,$2,$3,$4,$5,$6,$7,$8,$9,$2,$3,0*
0 Add four circle primitives for the rounded corners*
1,1,$1+$1,$2,$3*
1,1,$1+$1,$4,$5*
1,1,$1+$1,$6,$7*
1,1,$1+$1,$8,$9*
0 Add four rect primitives between the rounded corners*
20,1,$1+$1,$2,$3,$4,$5,0*
20,1,$1+$1,$4,$5,$6,$7,0*
20,1,$1+$1,$6,$7,$8,$9,0*
20,1,$1+$1,$8,$9,$2,$3,0*%
%AMRotRect*
0 Rectangle, with rotation*
0 The origin of the aperture is its center*
0 $1 length*
0 $2 width*
0 $3 Rotation angle, in degrees counterclockwise*
0 Add horizontal line*
21,1,$1,$2,0,0,$3*%
%AMOutline5P*
0 Free polygon, 5 corners , with rotation*
0 The origin of the aperture is its center*
0 number of corners: always 5*
0 $1 to $10 corner X, Y*
0 $11 Rotation angle, in degrees counterclockwise*
0 create outline with 5 corners*
4,1,5,$1,$2,$3,$4,$5,$6,$7,$8,$9,$10,$1,$2,$11*%
%AMOutline6P*
0 Free polygon, 6 corners , with rotation*
0 The origin of the aperture is its center*
0 number of corners: always 6*
0 $1 to $12 corner X, Y*
0 $13 Rotation angle, in degrees counterclockwise*
0 create outline with 6 corners*
4,1,6,$1,$2,$3,$4,$5,$6,$7,$8,$9,$10,$11,$12,$1,$2,$13*%
%AMOutline7P*
0 Free polygon, 7 corners , with rotation*
0 The origin of the aperture is its center*
0 number of corners: always 7*
0 $1 to $14 corner X, Y*
0 $15 Rotation angle, in degrees counterclockwise*
0 create outline with 7 corners*
4,1,7,$1,$2,$3,$4,$5,$6,$7,$8,$9,$10,$11,$12,$13,$14,$1,$2,$15*%
%AMOutline8P*
0 Free polygon, 8 corners , with rotation*
0 The origin of the aperture is its center*
0 number of corners: always 8*
0 $1 to $16 corner X, Y*
0 $17 Rotation angle, in degrees counterclockwise*
0 create outline with 8 corners*
4,1,8,$1,$2,$3,$4,$5,$6,$7,$8,$9,$10,$11,$12,$13,$14,$15,$16,$1,$2,$17*%
%AMFreePoly0*
4,1,6,1.037000,0.000000,0.437000,-0.600000,-0.150000,-0.600000,-0.150000,0.600000,0.437000,0.600000,1.037000,0.000000,1.037000,0.000000,$1*%
%AMFreePoly1*
4,1,6,0.150000,-0.600000,-1.037000,-0.600000,-0.437000,0.000000,-1.037000,0.600000,0.150000,0.600000,0.150000,-0.600000,0.150000,-0.600000,$1*%
G04 Aperture macros list end*
%TA.AperFunction,SMDPad,CuDef*%
%ADD10RoundRect,0.140000X0.219203X0.021213X0.021213X0.219203X-0.219203X-0.021213X-0.021213X-0.219203X0*%
%TD*%
%TA.AperFunction,SMDPad,CuDef*%
%ADD11C,1.500000*%
%TD*%
%TA.AperFunction,SMDPad,CuDef*%
%ADD12RoundRect,0.140000X0.170000X-0.140000X0.170000X0.140000X-0.170000X0.140000X-0.170000X-0.140000X0*%
%TD*%
%TA.AperFunction,SMDPad,CuDef*%
%ADD13RoundRect,0.135000X-0.185000X0.135000X-0.185000X-0.135000X0.185000X-0.135000X0.185000X0.135000X0*%
%TD*%
%TA.AperFunction,ComponentPad*%
%ADD14RoundRect,0.760000X-1.140000X1.140000X-1.140000X-1.140000X1.140000X-1.140000X1.140000X1.140000X0*%
%TD*%
%TA.AperFunction,ComponentPad*%
%ADD15C,3.800000*%
%TD*%
%TA.AperFunction,SMDPad,CuDef*%
%ADD16RoundRect,0.135000X-0.135000X-0.185000X0.135000X-0.185000X0.135000X0.185000X-0.135000X0.185000X0*%
%TD*%
%TA.AperFunction,SMDPad,CuDef*%
%ADD17R,0.800000X0.800000*%
%TD*%
%TA.AperFunction,ComponentPad*%
%ADD18C,6.400000*%
%TD*%
%TA.AperFunction,SMDPad,CuDef*%
%ADD19RoundRect,0.135000X0.185000X-0.135000X0.185000X0.135000X-0.185000X0.135000X-0.185000X-0.135000X0*%
%TD*%
%TA.AperFunction,SMDPad,CuDef*%
%ADD20R,1.000000X1.800000*%
%TD*%
%TA.AperFunction,SMDPad,CuDef*%
%ADD21RotRect,1.500000X1.000000X315.000000*%
%TD*%
%TA.AperFunction,SMDPad,CuDef*%
%ADD22RotRect,1.500000X1.000000X135.000000*%
%TD*%
%TA.AperFunction,SMDPad,CuDef*%
%ADD23RoundRect,0.250000X-0.262500X-0.450000X0.262500X-0.450000X0.262500X0.450000X-0.262500X0.450000X0*%
%TD*%
%TA.AperFunction,SMDPad,CuDef*%
%ADD24RoundRect,0.250000X-0.250000X-0.475000X0.250000X-0.475000X0.250000X0.475000X-0.250000X0.475000X0*%
%TD*%
%TA.AperFunction,SMDPad,CuDef*%
%ADD25RoundRect,0.250000X-1.000000X-0.650000X1.000000X-0.650000X1.000000X0.650000X-1.000000X0.650000X0*%
%TD*%
%TA.AperFunction,SMDPad,CuDef*%
%ADD26RoundRect,0.135000X-0.226274X-0.035355X-0.035355X-0.226274X0.226274X0.035355X0.035355X0.226274X0*%
%TD*%
%TA.AperFunction,SMDPad,CuDef*%
%ADD27RoundRect,0.140000X-0.170000X0.140000X-0.170000X-0.140000X0.170000X-0.140000X0.170000X0.140000X0*%
%TD*%
%TA.AperFunction,SMDPad,CuDef*%
%ADD28RoundRect,0.125000X-0.300000X-0.125000X0.300000X-0.125000X0.300000X0.125000X-0.300000X0.125000X0*%
%TD*%
%TA.AperFunction,SMDPad,CuDef*%
%ADD29R,4.550000X4.410000*%
%TD*%
%TA.AperFunction,SMDPad,CuDef*%
%ADD30RoundRect,0.250000X-0.450000X0.262500X-0.450000X-0.262500X0.450000X-0.262500X0.450000X0.262500X0*%
%TD*%
%TA.AperFunction,SMDPad,CuDef*%
%ADD31RoundRect,0.140000X0.140000X0.170000X-0.140000X0.170000X-0.140000X-0.170000X0.140000X-0.170000X0*%
%TD*%
%TA.AperFunction,SMDPad,CuDef*%
%ADD32RoundRect,0.075000X-0.650000X-0.075000X0.650000X-0.075000X0.650000X0.075000X-0.650000X0.075000X0*%
%TD*%
%TA.AperFunction,HeatsinkPad*%
%ADD33R,1.680000X1.880000*%
%TD*%
%TA.AperFunction,SMDPad,CuDef*%
%ADD34RoundRect,0.237500X-0.287500X-0.237500X0.287500X-0.237500X0.287500X0.237500X-0.287500X0.237500X0*%
%TD*%
%TA.AperFunction,SMDPad,CuDef*%
%ADD35RoundRect,0.250000X-1.400000X-1.000000X1.400000X-1.000000X1.400000X1.000000X-1.400000X1.000000X0*%
%TD*%
%TA.AperFunction,SMDPad,CuDef*%
%ADD36RoundRect,0.250000X0.475000X-0.250000X0.475000X0.250000X-0.475000X0.250000X-0.475000X-0.250000X0*%
%TD*%
%TA.AperFunction,SMDPad,CuDef*%
%ADD37RoundRect,0.100000X0.088388X0.229810X-0.229810X-0.088388X-0.088388X-0.229810X0.229810X0.088388X0*%
%TD*%
%TA.AperFunction,SMDPad,CuDef*%
%ADD38RoundRect,0.237500X0.237500X-0.287500X0.237500X0.287500X-0.237500X0.287500X-0.237500X-0.287500X0*%
%TD*%
%TA.AperFunction,SMDPad,CuDef*%
%ADD39RotRect,3.300000X1.190000X135.000000*%
%TD*%
%TA.AperFunction,SMDPad,CuDef*%
%ADD40RoundRect,0.250000X-0.312500X-0.625000X0.312500X-0.625000X0.312500X0.625000X-0.312500X0.625000X0*%
%TD*%
%TA.AperFunction,SMDPad,CuDef*%
%ADD41RoundRect,0.150000X-0.825000X-0.150000X0.825000X-0.150000X0.825000X0.150000X-0.825000X0.150000X0*%
%TD*%
%TA.AperFunction,SMDPad,CuDef*%
%ADD42R,2.300000X2.500000*%
%TD*%
%TA.AperFunction,SMDPad,CuDef*%
%ADD43RoundRect,0.100000X-0.225000X-0.100000X0.225000X-0.100000X0.225000X0.100000X-0.225000X0.100000X0*%
%TD*%
%TA.AperFunction,SMDPad,CuDef*%
%ADD44FreePoly0,90.000000*%
%TD*%
%TA.AperFunction,SMDPad,CuDef*%
%ADD45FreePoly1,90.000000*%
%TD*%
%TA.AperFunction,SMDPad,CuDef*%
%ADD46RoundRect,0.250000X0.325000X0.650000X-0.325000X0.650000X-0.325000X-0.650000X0.325000X-0.650000X0*%
%TD*%
%TA.AperFunction,SMDPad,CuDef*%
%ADD47C,1.000000*%
%TD*%
%TA.AperFunction,SMDPad,CuDef*%
%ADD48R,1.270000X0.760000*%
%TD*%
%TA.AperFunction,SMDPad,CuDef*%
%ADD49RoundRect,0.250000X-1.000000X1.400000X-1.000000X-1.400000X1.000000X-1.400000X1.000000X1.400000X0*%
%TD*%
%TA.AperFunction,SMDPad,CuDef*%
%ADD50RoundRect,0.150000X-0.309359X-0.521491X0.521491X0.309359X0.309359X0.521491X-0.521491X-0.309359X0*%
%TD*%
%TA.AperFunction,SMDPad,CuDef*%
%ADD51RoundRect,0.200000X0.200000X0.275000X-0.200000X0.275000X-0.200000X-0.275000X0.200000X-0.275000X0*%
%TD*%
%TA.AperFunction,SMDPad,CuDef*%
%ADD52RoundRect,0.135000X0.135000X0.185000X-0.135000X0.185000X-0.135000X-0.185000X0.135000X-0.185000X0*%
%TD*%
%TA.AperFunction,SMDPad,CuDef*%
%ADD53RoundRect,0.140000X-0.219203X-0.021213X-0.021213X-0.219203X0.219203X0.021213X0.021213X0.219203X0*%
%TD*%
%TA.AperFunction,SMDPad,CuDef*%
%ADD54R,1.100000X3.000000*%
%TD*%
%TA.AperFunction,SMDPad,CuDef*%
%ADD55R,1.800000X3.600000*%
%TD*%
%TA.AperFunction,SMDPad,CuDef*%
%ADD56RoundRect,0.150000X0.150000X-0.825000X0.150000X0.825000X-0.150000X0.825000X-0.150000X-0.825000X0*%
%TD*%
%TA.AperFunction,SMDPad,CuDef*%
%ADD57RoundRect,0.250000X-0.475000X0.250000X-0.475000X-0.250000X0.475000X-0.250000X0.475000X0.250000X0*%
%TD*%
%TA.AperFunction,SMDPad,CuDef*%
%ADD58RoundRect,0.250000X0.450000X-0.262500X0.450000X0.262500X-0.450000X0.262500X-0.450000X-0.262500X0*%
%TD*%
%TA.AperFunction,SMDPad,CuDef*%
%ADD59RoundRect,0.140000X-0.140000X-0.170000X0.140000X-0.170000X0.140000X0.170000X-0.140000X0.170000X0*%
%TD*%
%TA.AperFunction,SMDPad,CuDef*%
%ADD60RoundRect,0.150000X0.150000X-0.587500X0.150000X0.587500X-0.150000X0.587500X-0.150000X-0.587500X0*%
%TD*%
%TA.AperFunction,SMDPad,CuDef*%
%ADD61RoundRect,0.200000X0.200000X1.000000X-0.200000X1.000000X-0.200000X-1.000000X0.200000X-1.000000X0*%
%TD*%
%TA.AperFunction,SMDPad,CuDef*%
%ADD62RoundRect,0.250000X0.650000X1.400000X-0.650000X1.400000X-0.650000X-1.400000X0.650000X-1.400000X0*%
%TD*%
%TA.AperFunction,SMDPad,CuDef*%
%ADD63RoundRect,0.250000X1.100000X-0.325000X1.100000X0.325000X-1.100000X0.325000X-1.100000X-0.325000X0*%
%TD*%
%TA.AperFunction,SMDPad,CuDef*%
%ADD64R,6.000000X3.000000*%
%TD*%
%TA.AperFunction,SMDPad,CuDef*%
%ADD65RoundRect,0.150000X0.700000X-0.150000X0.700000X0.150000X-0.700000X0.150000X-0.700000X-0.150000X0*%
%TD*%
%TA.AperFunction,SMDPad,CuDef*%
%ADD66RoundRect,0.250000X1.150000X-0.250000X1.150000X0.250000X-1.150000X0.250000X-1.150000X-0.250000X0*%
%TD*%
%TA.AperFunction,SMDPad,CuDef*%
%ADD67RotRect,1.600000X1.400000X135.000000*%
%TD*%
%TA.AperFunction,SMDPad,CuDef*%
%ADD68RoundRect,0.250000X0.250000X0.475000X-0.250000X0.475000X-0.250000X-0.475000X0.250000X-0.475000X0*%
%TD*%
%TA.AperFunction,SMDPad,CuDef*%
%ADD69RotRect,1.600000X1.400000X225.000000*%
%TD*%
%TA.AperFunction,SMDPad,CuDef*%
%ADD70RotRect,0.800000X2.200000X45.000000*%
%TD*%
%TA.AperFunction,SMDPad,CuDef*%
%ADD71R,1.550000X0.600000*%
%TD*%
%TA.AperFunction,SMDPad,CuDef*%
%ADD72R,2.950000X4.900000*%
%TD*%
%TA.AperFunction,ComponentPad*%
%ADD73R,4.000000X4.000000*%
%TD*%
%TA.AperFunction,ComponentPad*%
%ADD74C,4.000000*%
%TD*%
%TA.AperFunction,ComponentPad*%
%ADD75C,3.200000*%
%TD*%
%TA.AperFunction,ComponentPad*%
%ADD76Outline8P,-0.800000X0.400000X-0.400000X0.800000X0.400000X0.800000X0.800000X0.400000X0.800000X-0.400000X0.400000X-0.800000X-0.400000X-0.800000X-0.800000X-0.400000X0.000000*%
%TD*%
%TA.AperFunction,ComponentPad*%
%ADD77C,1.600000*%
%TD*%
%TA.AperFunction,ViaPad*%
%ADD78C,0.450000*%
%TD*%
%TA.AperFunction,ViaPad*%
%ADD79C,0.800000*%
%TD*%
%TA.AperFunction,Conductor*%
%ADD80C,2.000000*%
%TD*%
%TA.AperFunction,Conductor*%
%ADD81C,0.500000*%
%TD*%
%TA.AperFunction,Conductor*%
%ADD82C,0.250000*%
%TD*%
%TA.AperFunction,Conductor*%
%ADD83C,0.152400*%
%TD*%
%TA.AperFunction,Conductor*%
%ADD84C,0.350000*%
%TD*%
%TA.AperFunction,Conductor*%
%ADD85C,0.200000*%
%TD*%
%TA.AperFunction,Conductor*%
%ADD86C,1.000000*%
%TD*%
%TA.AperFunction,Conductor*%
%ADD87C,0.750000*%
%TD*%
%TA.AperFunction,Conductor*%
%ADD88C,0.130000*%
%TD*%
%TA.AperFunction,Conductor*%
%ADD89C,1.600000*%
%TD*%
G04 APERTURE END LIST*
D10*
%TO.P,C19,1*%
%TO.N,GND*%
X167839411Y-158339411D03*
%TO.P,C19,2*%
%TO.N,+5V*%
X167160589Y-157660589D03*
%TD*%
D11*
%TO.P,TP6,1,1*%
%TO.N,/hv_kicker/flyback_charger/V_{solenoid}*%
X218500000Y-117000000D03*
%TD*%
D12*
%TO.P,C3,1*%
%TO.N,GND*%
X190500000Y-149580000D03*
%TO.P,C3,2*%
%TO.N,+BATT*%
X190500000Y-148620000D03*
%TD*%
D11*
%TO.P,TP3,1,1*%
%TO.N,/digital/CMD_{CHG}*%
X209000000Y-96000000D03*
%TD*%
D13*
%TO.P,R54,1*%
%TO.N,/hv_kicker/solenoid_control/GATE_{kick}*%
X209250000Y-137240001D03*
%TO.P,R54,2*%
%TO.N,GND*%
X209250000Y-138259999D03*
%TD*%
D14*
%TO.P,J3,1,Pin_1*%
%TO.N,GND*%
X185500000Y-166500000D03*
D15*
%TO.P,J3,2,Pin_2*%
%TO.N,/Power Regulation/V_{batt}*%
X185500000Y-171500000D03*
%TD*%
D16*
%TO.P,R11,1*%
%TO.N,Net-(C6-Pad1)*%
X179990001Y-175500000D03*
%TO.P,R11,2*%
%TO.N,GND*%
X181009999Y-175500000D03*
%TD*%
D17*
%TO.P,D4,1,K*%
%TO.N,/digital/BB_LED_DRAIN*%
X291000000Y-133250000D03*
%TO.P,D4,2,A*%
%TO.N,Net-(D4-A)*%
X291000000Y-131750000D03*
%TD*%
D18*
%TO.P,H2,1,1*%
%TO.N,unconnected-(H2-Pad1)*%
X291000000Y-138000000D03*
%TD*%
D16*
%TO.P,R22,1*%
%TO.N,+3V3*%
X237990001Y-155000000D03*
%TO.P,R22,2*%
%TO.N,/digital/NRST*%
X239009999Y-155000000D03*
%TD*%
D19*
%TO.P,R16,1*%
%TO.N,GND*%
X240500000Y-177509998D03*
%TO.P,R16,2*%
%TO.N,Net-(R12-Pad1)*%
X240500000Y-176490000D03*
%TD*%
D20*
%TO.P,Y1,1,1*%
%TO.N,/digital/RCC_OSC32_N*%
X211000000Y-160500000D03*
%TO.P,Y1,2,2*%
%TO.N,/digital/RCC_OSC32_P*%
X213499998Y-160500000D03*
%TD*%
D21*
%TO.P,U6,1,SDI*%
%TO.N,Net-(U4-SDO)*%
X161601041Y-159863782D03*
%TO.P,U6,2,CKI*%
%TO.N,Net-(U4-CKO)*%
X162732412Y-158732412D03*
%TO.P,U6,3,GND*%
%TO.N,GND*%
X163863782Y-157601041D03*
D22*
%TO.P,U6,4,VCC*%
%TO.N,+5V*%
X160398959Y-154136218D03*
%TO.P,U6,5,CKO*%
%TO.N,unconnected-(U6-CKO-Pad5)*%
X159267588Y-155267588D03*
%TO.P,U6,6,SDO*%
%TO.N,unconnected-(U6-SDO-Pad6)*%
X158136218Y-156398959D03*
%TD*%
D17*
%TO.P,D5,1,K*%
%TO.N,GND*%
X246000000Y-168250000D03*
%TO.P,D5,2,A*%
%TO.N,Net-(D5-A)*%
X246000000Y-166750000D03*
%TD*%
D19*
%TO.P,R8,1*%
%TO.N,Net-(D2-A)*%
X201000000Y-147759999D03*
%TO.P,R8,2*%
%TO.N,/Power Regulation/VSW_FB*%
X201000000Y-146740001D03*
%TD*%
D23*
%TO.P,R50,1*%
%TO.N,/hv_kicker/HVMS*%
X203087500Y-137000000D03*
%TO.P,R50,2*%
%TO.N,/digital/V_{sense}_HV*%
X204912500Y-137000000D03*
%TD*%
D21*
%TO.P,U4,1,SDI*%
%TO.N,/digital/DOTSTAR_MOSI*%
X167101041Y-165363782D03*
%TO.P,U4,2,CKI*%
%TO.N,/digital/DOTSTAR_SCK*%
X168232412Y-164232412D03*
%TO.P,U4,3,GND*%
%TO.N,GND*%
X169363782Y-163101041D03*
D22*
%TO.P,U4,4,VCC*%
%TO.N,+5V*%
X165898959Y-159636218D03*
%TO.P,U4,5,CKO*%
%TO.N,Net-(U4-CKO)*%
X164767588Y-160767588D03*
%TO.P,U4,6,SDO*%
%TO.N,Net-(U4-SDO)*%
X163636218Y-161898959D03*
%TD*%
D19*
%TO.P,R32,1*%
%TO.N,+3V3*%
X136000000Y-133009999D03*
%TO.P,R32,2*%
%TO.N,Net-(D6-A)*%
X136000000Y-131990001D03*
%TD*%
D24*
%TO.P,C5,1*%
%TO.N,GND*%
X199550000Y-151000000D03*
%TO.P,C5,2*%
%TO.N,Net-(D2-A)*%
X201450000Y-151000000D03*
%TD*%
D25*
%TO.P,D2,1,K*%
%TO.N,+BATT*%
X192999999Y-151400000D03*
%TO.P,D2,2,A*%
%TO.N,Net-(D2-A)*%
X197000001Y-151400000D03*
%TD*%
D12*
%TO.P,C31,1*%
%TO.N,Net-(U8-SS)*%
X203100000Y-81980000D03*
%TO.P,C31,2*%
%TO.N,GND*%
X203100000Y-81020000D03*
%TD*%
D19*
%TO.P,R30,1*%
%TO.N,+3V3*%
X284000000Y-133009999D03*
%TO.P,R30,2*%
%TO.N,Net-(D4-A)*%
X284000000Y-131990001D03*
%TD*%
D26*
%TO.P,R43,1*%
%TO.N,GND*%
X241139376Y-151139376D03*
%TO.P,R43,2*%
%TO.N,/digital/LED_BB_BLUE*%
X241860624Y-151860624D03*
%TD*%
D27*
%TO.P,C28,1*%
%TO.N,+VSW*%
X218650000Y-140020000D03*
%TO.P,C28,2*%
%TO.N,GND*%
X218650000Y-140980000D03*
%TD*%
D11*
%TO.P,TP4,1,1*%
%TO.N,/hv_kicker/flyback_charger/V_{trans}*%
X216000000Y-92000000D03*
%TD*%
D28*
%TO.P,Q5,1,S*%
%TO.N,/hv_kicker/flyback_charger/CSP*%
X210950001Y-85595000D03*
%TO.P,Q5,2,S*%
X210950001Y-86865000D03*
%TO.P,Q5,3,S*%
X210950001Y-88135000D03*
%TO.P,Q5,4,G*%
%TO.N,Net-(Q5-G)*%
X210950001Y-89405000D03*
D29*
%TO.P,Q5,5,D*%
%TO.N,/hv_kicker/flyback_charger/V_{trans}*%
X214900001Y-87500000D03*
%TD*%
D30*
%TO.P,R46,1*%
%TO.N,/hv_kicker/DL1S*%
X143250000Y-140087500D03*
%TO.P,R46,2*%
%TO.N,Net-(D10-A)*%
X143250000Y-141912500D03*
%TD*%
D31*
%TO.P,C1,1*%
%TO.N,/Power Regulation/3v3_FILT*%
X190360000Y-161000000D03*
%TO.P,C1,2*%
%TO.N,GND*%
X189400000Y-161000000D03*
%TD*%
D32*
%TO.P,U8,1,VC*%
%TO.N,Net-(U8-VC)*%
X205250001Y-81500000D03*
%TO.P,U8,2,FBX*%
%TO.N,/hv_kicker/flyback_charger/FB*%
X205250001Y-82000000D03*
%TO.P,U8,3,SS*%
%TO.N,Net-(U8-SS)*%
X205250001Y-82500000D03*
%TO.P,U8,4,RT*%
%TO.N,Net-(U8-RT)*%
X205250001Y-83000000D03*
%TO.P,U8,5,SYNC*%
%TO.N,GND*%
X205250001Y-83500000D03*
%TO.P,U8,6,SENSE*%
%TO.N,/hv_kicker/flyback_charger/CSP*%
X209550001Y-83500000D03*
%TO.P,U8,7,GATE*%
%TO.N,/hv_kicker/flyback_charger/HVGATE*%
X209550001Y-83000000D03*
%TO.P,U8,8,INTVCC*%
%TO.N,Net-(U8-INTVCC)*%
X209550001Y-82500000D03*
%TO.P,U8,9,~{SHDN}/UVLO*%
%TO.N,/digital/CMD_{CHG}*%
X209550001Y-82000000D03*
%TO.P,U8,10,VIN*%
%TO.N,+BATT*%
X209550001Y-81500000D03*
D33*
%TO.P,U8,11,GND*%
%TO.N,GND*%
X207400001Y-82500000D03*
%TD*%
D34*
%TO.P,F4,1*%
%TO.N,Net-(JP1-B)*%
X195625001Y-155000000D03*
%TO.P,F4,2*%
%TO.N,+3V0*%
X197374999Y-155000000D03*
%TD*%
D35*
%TO.P,D13,1,K*%
%TO.N,/hv_kicker/flyback_charger/V_{solenoid}*%
X251000000Y-136600000D03*
%TO.P,D13,2,A*%
%TO.N,/hv_kicker/solenoid_control/CHIP_SW*%
X251000000Y-143400000D03*
%TD*%
D36*
%TO.P,C39,1*%
%TO.N,Net-(U8-INTVCC)*%
X213400001Y-82450000D03*
%TO.P,C39,2*%
%TO.N,GND*%
X213400001Y-80550000D03*
%TD*%
D30*
%TO.P,R48,1*%
%TO.N,/hv_kicker/DL2S*%
X276750000Y-140337500D03*
%TO.P,R48,2*%
%TO.N,Net-(D11-A)*%
X276750000Y-142162500D03*
%TD*%
D37*
%TO.P,D3,1,K1*%
%TO.N,/digital/NRST*%
X236631371Y-157037868D03*
%TO.P,D3,2,A*%
%TO.N,GND*%
X236171751Y-156578249D03*
%TO.P,D3,3,K2*%
%TO.N,/digital/SWCLK*%
X235712132Y-156118629D03*
%TO.P,D3,4,K3*%
%TO.N,/digital/SWDIO*%
X234368629Y-157462132D03*
%TO.P,D3,5,K4*%
%TO.N,/digital/V_{sense}_HV*%
X234828249Y-157921751D03*
%TO.P,D3,6,K5*%
%TO.N,/digital/USR_BTN*%
X235287868Y-158381371D03*
%TD*%
D38*
%TO.P,F1,1*%
%TO.N,Net-(J2-Pin_1)*%
X197900000Y-165625000D03*
%TO.P,F1,2*%
%TO.N,+5V*%
X197900000Y-163875000D03*
%TD*%
D13*
%TO.P,R5,1*%
%TO.N,+BATT*%
X190500000Y-143990001D03*
%TO.P,R5,2*%
%TO.N,/Power Regulation/VSW_CEN*%
X190500000Y-145009999D03*
%TD*%
D39*
%TO.P,RV1,1,1*%
%TO.N,+3V3*%
X248941207Y-160533310D03*
%TO.P,RV1,2,2*%
%TO.N,/digital/USER_ADJ1*%
X255262742Y-163262742D03*
%TO.P,RV1,3,3*%
%TO.N,GND*%
X252533310Y-156941207D03*
%TD*%
D40*
%TO.P,R65,1*%
%TO.N,GND*%
X205857501Y-87970000D03*
%TO.P,R65,2*%
%TO.N,/hv_kicker/flyback_charger/CSP*%
X208782501Y-87970000D03*
%TD*%
D19*
%TO.P,R19,1*%
%TO.N,GND*%
X243500000Y-177509999D03*
%TO.P,R19,2*%
%TO.N,Net-(R15-Pad1)*%
X243500000Y-176490001D03*
%TD*%
D13*
%TO.P,R79,1*%
%TO.N,/Dribbler/DRIB_BOOT_UART.RTS*%
X207500000Y-165390001D03*
%TO.P,R79,2*%
%TO.N,Net-(J7-Pin_10)*%
X207500000Y-166409999D03*
%TD*%
D11*
%TO.P,TP5,1,1*%
%TO.N,/hv_kicker/flyback_charger/FB*%
X207500000Y-90500000D03*
%TD*%
D19*
%TO.P,R62,1*%
%TO.N,GND*%
X210900001Y-94010000D03*
%TO.P,R62,2*%
%TO.N,/hv_kicker/flyback_charger/HVGATE*%
X210900001Y-92990000D03*
%TD*%
D41*
%TO.P,U5,1,~{CS}*%
%TO.N,/digital/FLASH_NSS*%
X201525000Y-158295000D03*
%TO.P,U5,2,SO/IO1*%
%TO.N,/digital/FLASH_MISO*%
X201525000Y-159565000D03*
%TO.P,U5,3,~{WP}/IO2*%
%TO.N,+3V3*%
X201525000Y-160835000D03*
%TO.P,U5,4,GND*%
%TO.N,GND*%
X201525000Y-162105000D03*
%TO.P,U5,5,SI/IO0*%
%TO.N,/digital/FLASH_MOSI*%
X206475000Y-162105000D03*
%TO.P,U5,6,SCK*%
%TO.N,/digital/FLASH_SCK*%
X206475000Y-160835000D03*
%TO.P,U5,7,~{HOLD}/IO3*%
%TO.N,+3V3*%
X206475000Y-159565000D03*
%TO.P,U5,8,VCC*%
X206475000Y-158295000D03*
%TD*%
D42*
%TO.P,D1,1,A1*%
%TO.N,GND*%
X185000000Y-154150001D03*
%TO.P,D1,2,A2*%
%TO.N,+BATT*%
X185000000Y-149849999D03*
%TD*%
D30*
%TO.P,R67,1*%
%TO.N,/hv_kicker/flyback_charger/FB*%
X206500000Y-92597499D03*
%TO.P,R67,2*%
%TO.N,/hv_kicker/flyback_charger/HVFBS*%
X206500000Y-94422499D03*
%TD*%
D18*
%TO.P,H1,1,1*%
%TO.N,unconnected-(H1-Pad1)*%
X210000000Y-69000000D03*
%TD*%
D43*
%TO.P,U1,1,IN*%
%TO.N,/Power Regulation/3v3_FILT*%
X191750000Y-160950000D03*
%TO.P,U1,2,GND*%
%TO.N,GND*%
X191750000Y-161600000D03*
%TO.P,U1,3,EN*%
%TO.N,/Power Regulation/3v3_FILT*%
X191750000Y-162250000D03*
%TO.P,U1,4,NC*%
%TO.N,unconnected-(U1-NC-Pad4)*%
X193650000Y-162250000D03*
%TO.P,U1,5,OUT*%
%TO.N,/Power Regulation/3v0_PREFUSE*%
X193650000Y-160950000D03*
%TD*%
D44*
%TO.P,JP1,1,A*%
%TO.N,/Power Regulation/3v0_PREFUSE*%
X193500000Y-157150000D03*
D45*
%TO.P,JP1,2,B*%
%TO.N,Net-(JP1-B)*%
X193500000Y-155450000D03*
%TD*%
D46*
%TO.P,C2,1*%
%TO.N,/Power Regulation/3v0_PREFUSE*%
X193475001Y-158900000D03*
%TO.P,C2,2*%
%TO.N,GND*%
X190524999Y-158900000D03*
%TD*%
D12*
%TO.P,C22,1*%
%TO.N,/digital/RCC_OSC32_P*%
X213500000Y-158780000D03*
%TO.P,C22,2*%
%TO.N,GND*%
X213500000Y-157820000D03*
%TD*%
D38*
%TO.P,F2,1*%
%TO.N,Net-(J2-Pin_2)*%
X195900000Y-165625000D03*
%TO.P,F2,2*%
%TO.N,+3V3*%
X195900000Y-163875000D03*
%TD*%
D31*
%TO.P,C17,1*%
%TO.N,+3V0*%
X200280000Y-154900000D03*
%TO.P,C17,2*%
%TO.N,GND*%
X199320000Y-154900000D03*
%TD*%
D47*
%TO.P,TP2,1,1*%
%TO.N,/3v3_UPSTREAM*%
X239000000Y-178000000D03*
%TD*%
D13*
%TO.P,R9,1*%
%TO.N,/Power Regulation/VSW_FB*%
X200000000Y-146740001D03*
%TO.P,R9,2*%
%TO.N,GND*%
X200000000Y-147759999D03*
%TD*%
%TO.P,R60,1*%
%TO.N,Net-(C37-Pad1)*%
X205400001Y-78990000D03*
%TO.P,R60,2*%
%TO.N,Net-(U8-VC)*%
X205400001Y-80010000D03*
%TD*%
D19*
%TO.P,R13,1*%
%TO.N,Net-(R13-Pad1)*%
X240250000Y-170000000D03*
%TO.P,R13,2*%
%TO.N,/digital/DIP2*%
X240250000Y-168980002D03*
%TD*%
D48*
%TO.P,SW2,1*%
%TO.N,Net-(R15-Pad1)*%
X251810000Y-174905000D03*
%TO.P,SW2,2*%
%TO.N,Net-(R14-Pad1)*%
X251810000Y-173635000D03*
%TO.P,SW2,3*%
%TO.N,Net-(R13-Pad1)*%
X251810000Y-172365000D03*
%TO.P,SW2,4*%
%TO.N,Net-(R12-Pad1)*%
X251810000Y-171095000D03*
%TO.P,SW2,5*%
%TO.N,+3V3*%
X244190000Y-171095000D03*
%TO.P,SW2,6*%
X244190000Y-172365000D03*
%TO.P,SW2,7*%
X244190000Y-173635000D03*
%TO.P,SW2,8*%
X244190000Y-174905000D03*
%TD*%
D31*
%TO.P,C24,1*%
%TO.N,GND*%
X209280000Y-158300000D03*
%TO.P,C24,2*%
%TO.N,+3V3*%
X208320000Y-158300000D03*
%TD*%
D49*
%TO.P,D14,1,K*%
%TO.N,/hv_kicker/flyback_charger/V_{solenoid}*%
X199400000Y-99000000D03*
%TO.P,D14,2,A*%
%TO.N,/hv_kicker/flyback_charger/HV_AC*%
X192600000Y-99000000D03*
%TD*%
D13*
%TO.P,R52,1*%
%TO.N,/digital/CMD_{KICK}*%
X211750000Y-141990001D03*
%TO.P,R52,2*%
%TO.N,GND*%
X211750000Y-143009999D03*
%TD*%
%TO.P,R86,1*%
%TO.N,/Ball Sense/SENSE_BOOT_UART.RST*%
X209400000Y-177390001D03*
%TO.P,R86,2*%
%TO.N,GND*%
X209400000Y-178409999D03*
%TD*%
D17*
%TO.P,D9,1,K*%
%TO.N,GND*%
X248000000Y-168250000D03*
%TO.P,D9,2,A*%
%TO.N,Net-(D9-A)*%
X248000000Y-166750000D03*
%TD*%
D50*
%TO.P,Q2,1,G*%
%TO.N,/digital/LED_BB_BLUE*%
X243665336Y-151241161D03*
%TO.P,Q2,2,S*%
%TO.N,GND*%
X245008839Y-152584664D03*
%TO.P,Q2,3,D*%
%TO.N,/digital/BB_LED_DRAIN*%
X245662913Y-150587087D03*
%TD*%
D24*
%TO.P,C40,1*%
%TO.N,Net-(C40-Pad1)*%
X214550000Y-76000000D03*
%TO.P,C40,2*%
%TO.N,/hv_kicker/flyback_charger/V_{trans}*%
X216450000Y-76000000D03*
%TD*%
D47*
%TO.P,TP1,1,1*%
%TO.N,/5v0_UPSTREAM*%
X239000000Y-180000000D03*
%TD*%
D38*
%TO.P,F5,1*%
%TO.N,Net-(JP2-B)*%
X202500000Y-144875000D03*
%TO.P,F5,2*%
%TO.N,+VSW*%
X202500000Y-143125000D03*
%TD*%
D30*
%TO.P,R66,1*%
%TO.N,/hv_kicker/flyback_charger/HVFBS*%
X206500000Y-96087500D03*
%TO.P,R66,2*%
%TO.N,/hv_kicker/flyback_charger/V_{solenoid}*%
X206500000Y-97912500D03*
%TD*%
D51*
%TO.P,L1,1,1*%
%TO.N,+3V3*%
X193425000Y-163900000D03*
%TO.P,L1,2,2*%
%TO.N,/Power Regulation/3v3_FILT*%
X191775000Y-163900000D03*
%TD*%
D12*
%TO.P,C20,1*%
%TO.N,/digital/RCC_OSC32_N*%
X211000000Y-158780000D03*
%TO.P,C20,2*%
%TO.N,GND*%
X211000000Y-157820000D03*
%TD*%
D52*
%TO.P,R10,1*%
%TO.N,+3V3*%
X193009999Y-143000000D03*
%TO.P,R10,2*%
%TO.N,/Power Regulation/VSW_PGOOD*%
X191990001Y-143000000D03*
%TD*%
D53*
%TO.P,C7,1*%
%TO.N,/digital/NRST*%
X251660589Y-150910589D03*
%TO.P,C7,2*%
%TO.N,GND*%
X252339411Y-151589411D03*
%TD*%
D19*
%TO.P,R76,1*%
%TO.N,+3V3*%
X205600000Y-178409999D03*
%TO.P,R76,2*%
%TO.N,/Ball Sense/SENSE_BOOT_UART.CTS*%
X205600000Y-177390001D03*
%TD*%
%TO.P,R17,1*%
%TO.N,GND*%
X241500000Y-177509998D03*
%TO.P,R17,2*%
%TO.N,Net-(R13-Pad1)*%
X241500000Y-176490000D03*
%TD*%
D54*
%TO.P,J2,1,Pin_1*%
%TO.N,Net-(J2-Pin_1)*%
X198000000Y-169000000D03*
%TO.P,J2,2,Pin_2*%
%TO.N,Net-(J2-Pin_2)*%
X196000000Y-169000000D03*
%TO.P,J2,3,Pin_3*%
%TO.N,GND*%
X194000000Y-169000000D03*
%TO.P,J2,4,Pin_4*%
X192000000Y-169000000D03*
D55*
%TO.P,J2,MP,MountPin*%
%TO.N,unconnected-(J2-MountPin-PadMP)_1*%
X189650000Y-173700000D03*
%TO.N,unconnected-(J2-MountPin-PadMP)*%
X200350000Y-173700000D03*
%TD*%
D44*
%TO.P,JP2,1,A*%
%TO.N,Net-(D2-A)*%
X202500000Y-147950000D03*
D45*
%TO.P,JP2,2,B*%
%TO.N,Net-(JP2-B)*%
X202500000Y-146250000D03*
%TD*%
D52*
%TO.P,R20,1*%
%TO.N,/digital/USR_BTN*%
X181009999Y-174500000D03*
%TO.P,R20,2*%
%TO.N,Net-(C6-Pad1)*%
X179990001Y-174500000D03*
%TD*%
D56*
%TO.P,U7,1,NC*%
%TO.N,unconnected-(U7-NC-Pad1)*%
X213345000Y-142975000D03*
%TO.P,U7,2,INA*%
%TO.N,/digital/CMD_{KICK}*%
X214615000Y-142975000D03*
%TO.P,U7,3,GND*%
%TO.N,GND*%
X215885000Y-142975000D03*
%TO.P,U7,4,INB*%
%TO.N,/digital/CMD_{CHIP}*%
X217155000Y-142975000D03*
%TO.P,U7,5,OUTB*%
%TO.N,/hv_kicker/solenoid_control/GATE_{chip}*%
X217155000Y-138025000D03*
%TO.P,U7,6,V+*%
%TO.N,+VSW*%
X215885000Y-138025000D03*
%TO.P,U7,7,OUTA*%
%TO.N,/hv_kicker/solenoid_control/GATE_{kick}*%
X214615000Y-138025000D03*
%TO.P,U7,8,NC*%
%TO.N,unconnected-(U7-NC-Pad8)*%
X213345000Y-138025000D03*
%TD*%
D19*
%TO.P,R7,1*%
%TO.N,/Power Regulation/VSW_CEN*%
X190500000Y-143009999D03*
%TO.P,R7,2*%
%TO.N,GND*%
X190500000Y-141990001D03*
%TD*%
D13*
%TO.P,R6,1*%
%TO.N,/digital/VSW_EN*%
X190500000Y-145990001D03*
%TO.P,R6,2*%
%TO.N,/Power Regulation/VSW_CEN*%
X190500000Y-147009999D03*
%TD*%
D18*
%TO.P,H3,1,1*%
%TO.N,unconnected-(H3-Pad1)*%
X129000000Y-138000000D03*
%TD*%
D23*
%TO.P,R61,1*%
%TO.N,+BATT*%
X210587500Y-76000000D03*
%TO.P,R61,2*%
%TO.N,Net-(C40-Pad1)*%
X212412500Y-76000000D03*
%TD*%
D27*
%TO.P,C37,1*%
%TO.N,Net-(C37-Pad1)*%
X206400001Y-79020000D03*
%TO.P,C37,2*%
%TO.N,GND*%
X206400001Y-79980000D03*
%TD*%
D57*
%TO.P,C27,1*%
%TO.N,+VSW*%
X205500000Y-139550001D03*
%TO.P,C27,2*%
%TO.N,GND*%
X205500000Y-141449999D03*
%TD*%
D58*
%TO.P,R4,1*%
%TO.N,GND*%
X181000000Y-152912500D03*
%TO.P,R4,2*%
%TO.N,+BATT*%
X181000000Y-151087500D03*
%TD*%
D13*
%TO.P,R70,1*%
%TO.N,/Dribbler/DRIB_BOOT_UART.TX*%
X213000000Y-165390000D03*
%TO.P,R70,2*%
%TO.N,Net-(J7-Pin_7)*%
X213000000Y-166410000D03*
%TD*%
D19*
%TO.P,R56,1*%
%TO.N,/hv_kicker/solenoid_control/GATE_{kick}*%
X209250000Y-136009999D03*
%TO.P,R56,2*%
%TO.N,/hv_kicker/solenoid_control/GATE_{kick}_FILT*%
X209250000Y-134990001D03*
%TD*%
D59*
%TO.P,C6,1*%
%TO.N,Net-(C6-Pad1)*%
X180020000Y-176500000D03*
%TO.P,C6,2*%
%TO.N,GND*%
X180980000Y-176500000D03*
%TD*%
D16*
%TO.P,R44,1*%
%TO.N,/digital/ShutdownInitiated*%
X228490001Y-163000000D03*
%TO.P,R44,2*%
%TO.N,Net-(D9-A)*%
X229509999Y-163000000D03*
%TD*%
D19*
%TO.P,R77,1*%
%TO.N,+3V3*%
X206900000Y-178409999D03*
%TO.P,R77,2*%
%TO.N,/Ball Sense/SENSE_BOOT_UART.RX*%
X206900000Y-177390001D03*
%TD*%
D13*
%TO.P,R68,1*%
%TO.N,GND*%
X204000000Y-89990000D03*
%TO.P,R68,2*%
%TO.N,/hv_kicker/flyback_charger/FB*%
X204000000Y-91010000D03*
%TD*%
D60*
%TO.P,Q1,1,G*%
%TO.N,/COMS.RST*%
X228550000Y-168437500D03*
%TO.P,Q1,2,S*%
%TO.N,GND*%
X230450000Y-168437500D03*
%TO.P,Q1,3,D*%
%TO.N,/digital/NRST*%
X229500000Y-166562500D03*
%TD*%
D19*
%TO.P,R63,1*%
%TO.N,/hv_kicker/flyback_charger/HVGATE*%
X210900001Y-92020000D03*
%TO.P,R63,2*%
%TO.N,Net-(Q5-G)*%
X210900001Y-91000000D03*
%TD*%
D49*
%TO.P,D12,1,K*%
%TO.N,/hv_kicker/flyback_charger/V_{solenoid}*%
X236400000Y-138000000D03*
%TO.P,D12,2,A*%
%TO.N,/hv_kicker/solenoid_control/KICK_SW*%
X229600000Y-138000000D03*
%TD*%
D16*
%TO.P,R38,1*%
%TO.N,+BATT*%
X228490001Y-162000000D03*
%TO.P,R38,2*%
%TO.N,Net-(D8-A)*%
X229509999Y-162000000D03*
%TD*%
D31*
%TO.P,C11,1*%
%TO.N,+3V0*%
X200280000Y-156000000D03*
%TO.P,C11,2*%
%TO.N,GND*%
X199320000Y-156000000D03*
%TD*%
D19*
%TO.P,R59,1*%
%TO.N,GND*%
X203100000Y-84010000D03*
%TO.P,R59,2*%
%TO.N,Net-(U8-RT)*%
X203100000Y-82990000D03*
%TD*%
D30*
%TO.P,R47,1*%
%TO.N,/hv_kicker/flyback_charger/V_{solenoid}*%
X276750000Y-136337500D03*
%TO.P,R47,2*%
%TO.N,/hv_kicker/DL2S*%
X276750000Y-138162500D03*
%TD*%
D13*
%TO.P,R51,1*%
%TO.N,/digital/V_{sense}_HV*%
X208500000Y-143490001D03*
%TO.P,R51,2*%
%TO.N,GND*%
X208500000Y-144509999D03*
%TD*%
D61*
%TO.P,J7,1,Pin_1*%
%TO.N,+BATT*%
X222000000Y-168750000D03*
%TO.P,J7,2,Pin_2*%
X220500000Y-168750000D03*
%TO.P,J7,3,Pin_3*%
%TO.N,GND*%
X219000000Y-168750000D03*
%TO.P,J7,4,Pin_4*%
X217500000Y-168750000D03*
%TO.P,J7,5,Pin_5*%
%TO.N,/Dribbler/DRIB_BOOT_UART.BOOT0*%
X216000000Y-168750000D03*
%TO.P,J7,6,Pin_6*%
%TO.N,/Dribbler/DRIB_BOOT_UART.RST*%
X214500000Y-168750000D03*
%TO.P,J7,7,Pin_7*%
%TO.N,Net-(J7-Pin_7)*%
X213000000Y-168750000D03*
%TO.P,J7,8,Pin_8*%
%TO.N,/Dribbler/DRIB_BOOT_UART.RX*%
X211500000Y-168750000D03*
%TO.P,J7,9,Pin_9*%
%TO.N,/Dribbler/DRIB_BOOT_UART.CTS*%
X210000000Y-168750000D03*
%TO.P,J7,10,Pin_10*%
%TO.N,Net-(J7-Pin_10)*%
X208500000Y-168750000D03*
%TO.P,J7,11,Pin_11*%
%TO.N,GND*%
X207000000Y-168750000D03*
%TO.P,J7,12,Pin_12*%
%TO.N,+3V3*%
X205500000Y-168750000D03*
D62*
%TO.P,J7,MP,MountPin*%
%TO.N,unconnected-(J7-MountPin-PadMP)_1*%
X224600000Y-173800000D03*
%TO.N,unconnected-(J7-MountPin-PadMP)*%
X202900000Y-173800000D03*
%TD*%
D63*
%TO.P,C41,1*%
%TO.N,/hv_kicker/flyback_charger/V_{solenoid}*%
X203500000Y-98475001D03*
%TO.P,C41,2*%
%TO.N,GND*%
X203500000Y-95524999D03*
%TD*%
D64*
%TO.P,C29,1*%
%TO.N,+BATT*%
X188500000Y-106000000D03*
%TD*%
D19*
%TO.P,R18,1*%
%TO.N,GND*%
X242500000Y-177509998D03*
%TO.P,R18,2*%
%TO.N,Net-(R14-Pad1)*%
X242500000Y-176490000D03*
%TD*%
D23*
%TO.P,R49,1*%
%TO.N,/hv_kicker/flyback_charger/V_{solenoid}*%
X199087500Y-137000000D03*
%TO.P,R49,2*%
%TO.N,/hv_kicker/HVMS*%
X200912500Y-137000000D03*
%TD*%
D13*
%TO.P,R55,1*%
%TO.N,/hv_kicker/solenoid_control/GATE_{chip}*%
X220000000Y-139990001D03*
%TO.P,R55,2*%
%TO.N,GND*%
X220000000Y-141009999D03*
%TD*%
D19*
%TO.P,R53,1*%
%TO.N,/digital/CMD_{CHIP}*%
X211750000Y-141009999D03*
%TO.P,R53,2*%
%TO.N,GND*%
X211750000Y-139990001D03*
%TD*%
D12*
%TO.P,C34,1*%
%TO.N,Net-(U8-VC)*%
X204400001Y-79980000D03*
%TO.P,C34,2*%
%TO.N,GND*%
X204400001Y-79020000D03*
%TD*%
D16*
%TO.P,R58,1*%
%TO.N,/digital/CMD_{CHG}*%
X210990000Y-96000000D03*
%TO.P,R58,2*%
%TO.N,GND*%
X212010000Y-96000000D03*
%TD*%
%TO.P,R57,1*%
%TO.N,/hv_kicker/solenoid_control/GATE_{chip}*%
X218990001Y-138000000D03*
%TO.P,R57,2*%
%TO.N,/hv_kicker/solenoid_control/GATE_{chip}_FILT*%
X220009999Y-138000000D03*
%TD*%
D17*
%TO.P,D10,1,K*%
%TO.N,GND*%
X129000000Y-144250000D03*
%TO.P,D10,2,A*%
%TO.N,Net-(D10-A)*%
X129000000Y-142750000D03*
%TD*%
%TO.P,D6,1,K*%
%TO.N,/digital/BB_LED_DRAIN*%
X129000000Y-133250000D03*
%TO.P,D6,2,A*%
%TO.N,Net-(D6-A)*%
X129000000Y-131750000D03*
%TD*%
D65*
%TO.P,J11,1,Pin_1*%
%TO.N,/5v0_UPSTREAM*%
X236600000Y-178250000D03*
%TO.P,J11,2,Pin_2*%
%TO.N,/3v3_UPSTREAM*%
X236600000Y-177000000D03*
%TO.P,J11,3,Pin_3*%
%TO.N,/UPSTREAM_GND*%
X236600000Y-175750000D03*
%TO.P,J11,4,Pin_4*%
X236600000Y-174500000D03*
%TO.P,J11,5,Pin_5*%
%TO.N,/COMS.BOOT0*%
X236600000Y-173250000D03*
%TO.P,J11,6,Pin_6*%
%TO.N,/COMS.RST*%
X236600000Y-172000000D03*
%TO.P,J11,7,Pin_7*%
%TO.N,/COMS.RX*%
X236600000Y-170750000D03*
%TO.P,J11,8,Pin_8*%
%TO.N,Net-(J11-Pin_8)*%
X236600000Y-169500000D03*
%TO.P,J11,9,Pin_9*%
%TO.N,Net-(J11-Pin_9)*%
X236600000Y-168250000D03*
%TO.P,J11,10,Pin_10*%
%TO.N,/COMS.CTS*%
X236600000Y-167000000D03*
D66*
%TO.P,J11,MP,MountPin*%
%TO.N,GND*%
X233250000Y-180100000D03*
X233250000Y-165150000D03*
%TD*%
D17*
%TO.P,D11,1,K*%
%TO.N,GND*%
X291000000Y-144250000D03*
%TO.P,D11,2,A*%
%TO.N,Net-(D11-A)*%
X291000000Y-142750000D03*
%TD*%
D67*
%TO.P,SW1,1,1*%
%TO.N,Net-(C6-Pad1)*%
X173884924Y-172906245D03*
X168793755Y-167815076D03*
%TO.P,SW1,2,2*%
%TO.N,+3V3*%
X176006245Y-170784924D03*
X170915076Y-165693755D03*
%TD*%
D68*
%TO.P,C32,1*%
%TO.N,+BATT*%
X209850001Y-79500000D03*
%TO.P,C32,2*%
%TO.N,GND*%
X207950001Y-79500000D03*
%TD*%
D12*
%TO.P,C4,1*%
%TO.N,Net-(U2-DELAY)*%
X200000000Y-145480000D03*
%TO.P,C4,2*%
%TO.N,GND*%
X200000000Y-144520000D03*
%TD*%
D69*
%TO.P,SW3,1,1*%
%TO.N,GND*%
X251606245Y-153515076D03*
X246515076Y-158606245D03*
%TO.P,SW3,2,2*%
%TO.N,/digital/NRST*%
X249484924Y-151393755D03*
X244393755Y-156484924D03*
%TD*%
D17*
%TO.P,D8,1,K*%
%TO.N,GND*%
X250000000Y-168250000D03*
%TO.P,D8,2,A*%
%TO.N,Net-(D8-A)*%
X250000000Y-166750000D03*
%TD*%
D30*
%TO.P,R45,1*%
%TO.N,/hv_kicker/flyback_charger/V_{solenoid}*%
X143250000Y-136337500D03*
%TO.P,R45,2*%
%TO.N,/hv_kicker/DL1S*%
X143250000Y-138162500D03*
%TD*%
D16*
%TO.P,R31,1*%
%TO.N,/digital/LED_GREEN*%
X228490001Y-164000000D03*
%TO.P,R31,2*%
%TO.N,Net-(D5-A)*%
X229509999Y-164000000D03*
%TD*%
D52*
%TO.P,R1,1*%
%TO.N,Net-(J11-Pin_8)*%
X216509999Y-149500000D03*
%TO.P,R1,2*%
%TO.N,/COMS.TX*%
X215490001Y-149500000D03*
%TD*%
D13*
%TO.P,R87,1*%
%TO.N,/Ball Sense/SENSE_BOOT_UART.BOOT0*%
X210700000Y-177390001D03*
%TO.P,R87,2*%
%TO.N,GND*%
X210700000Y-178409999D03*
%TD*%
D19*
%TO.P,R78,1*%
%TO.N,/Ball Sense/SENSE_BOOT_UART.TX*%
X208200000Y-178409999D03*
%TO.P,R78,2*%
%TO.N,Net-(J1-Pin_7)*%
X208200000Y-177390001D03*
%TD*%
%TO.P,R85,1*%
%TO.N,/Ball Sense/SENSE_BOOT_UART.RTS*%
X204400000Y-178409999D03*
%TO.P,R85,2*%
%TO.N,Net-(J1-Pin_10)*%
X204400000Y-177390001D03*
%TD*%
D70*
%TO.P,J4,1,VTref*%
%TO.N,+3V3*%
X240990883Y-163082986D03*
%TO.P,J4,2,SWDIO/TMS*%
%TO.N,/digital/SWDIO*%
X238417014Y-160509117D03*
%TO.P,J4,3,GND*%
%TO.N,GND*%
X241888909Y-162184960D03*
%TO.P,J4,4,SWCLK/TCK*%
%TO.N,/digital/SWCLK*%
X239315040Y-159611091D03*
%TO.P,J4,5,GND*%
%TO.N,GND*%
X242786934Y-161286934D03*
%TO.P,J4,6,SWO/TDO*%
%TO.N,unconnected-(J4-SWO{slash}TDO-Pad6)*%
X240213066Y-158713066D03*
%TO.P,J4,7,KEY*%
%TO.N,unconnected-(J4-KEY-Pad7)*%
X243684960Y-160388909D03*
%TO.P,J4,8,NC/TDI*%
%TO.N,unconnected-(J4-NC{slash}TDI-Pad8)*%
X241111091Y-157815040D03*
%TO.P,J4,9,GNDDetect*%
%TO.N,GND*%
X244582986Y-159490883D03*
%TO.P,J4,10,~{RESET}*%
%TO.N,/digital/NRST*%
X242009117Y-156917014D03*
%TD*%
D40*
%TO.P,R64,1*%
%TO.N,GND*%
X205857501Y-85679999D03*
%TO.P,R64,2*%
%TO.N,/hv_kicker/flyback_charger/CSP*%
X208782501Y-85679999D03*
%TD*%
D19*
%TO.P,R14,1*%
%TO.N,Net-(R14-Pad1)*%
X241250000Y-170000000D03*
%TO.P,R14,2*%
%TO.N,/digital/DIP1*%
X241250000Y-168980002D03*
%TD*%
%TO.P,R21,1*%
%TO.N,/COMS.RST*%
X227000000Y-168259999D03*
%TO.P,R21,2*%
%TO.N,GND*%
X227000000Y-167240001D03*
%TD*%
D39*
%TO.P,RV2,1,1*%
%TO.N,+3V3*%
X253941207Y-155533310D03*
%TO.P,RV2,2,2*%
%TO.N,/digital/USER_ADJ2*%
X260262742Y-158262742D03*
%TO.P,RV2,3,3*%
%TO.N,GND*%
X257533310Y-151941207D03*
%TD*%
D16*
%TO.P,R35,1*%
%TO.N,/digital/LED_RED*%
X228490001Y-165000000D03*
%TO.P,R35,2*%
%TO.N,Net-(D7-A)*%
X229509999Y-165000000D03*
%TD*%
D71*
%TO.P,U2,1,OUT*%
%TO.N,Net-(D2-A)*%
X197700000Y-148405000D03*
%TO.P,U2,2,FB*%
%TO.N,/Power Regulation/VSW_FB*%
X197700000Y-147135000D03*
%TO.P,U2,3,DELAY*%
%TO.N,Net-(U2-DELAY)*%
X197700000Y-145865000D03*
%TO.P,U2,4,NC*%
%TO.N,unconnected-(U2-NC-Pad4)*%
X197700000Y-144595000D03*
%TO.P,U2,5,GND*%
%TO.N,GND*%
X192300000Y-144595000D03*
%TO.P,U2,6,PG*%
%TO.N,/Power Regulation/VSW_PGOOD*%
X192300000Y-145865000D03*
%TO.P,U2,7,EN*%
%TO.N,/Power Regulation/VSW_CEN*%
X192300000Y-147135000D03*
%TO.P,U2,8,IN*%
%TO.N,+BATT*%
X192300000Y-148405000D03*
D72*
%TO.P,U2,9,GND*%
%TO.N,GND*%
X195000000Y-146500000D03*
%TD*%
D19*
%TO.P,R15,1*%
%TO.N,Net-(R15-Pad1)*%
X242250000Y-170000000D03*
%TO.P,R15,2*%
%TO.N,/digital/DIP0*%
X242250000Y-168980002D03*
%TD*%
D17*
%TO.P,D7,1,K*%
%TO.N,GND*%
X244000000Y-168250000D03*
%TO.P,D7,2,A*%
%TO.N,Net-(D7-A)*%
X244000000Y-166750000D03*
%TD*%
D13*
%TO.P,R27,1*%
%TO.N,GND*%
X220500000Y-156490001D03*
%TO.P,R27,2*%
%TO.N,/COMS.BOOT0*%
X220500000Y-157509999D03*
%TD*%
D19*
%TO.P,R12,1*%
%TO.N,Net-(R12-Pad1)*%
X239250001Y-170000000D03*
%TO.P,R12,2*%
%TO.N,/digital/DIP3*%
X239250001Y-168980002D03*
%TD*%
D12*
%TO.P,C35,1*%
%TO.N,+BATT*%
X211400001Y-80980000D03*
%TO.P,C35,2*%
%TO.N,GND*%
X211400001Y-80020000D03*
%TD*%
D73*
%TO.P,C26,1*%
%TO.N,/hv_kicker/flyback_charger/V_{solenoid}*%
X271500000Y-136000000D03*
D74*
%TO.P,C26,2*%
%TO.N,GND*%
X271500000Y-146000000D03*
%TD*%
D73*
%TO.P,C25,1*%
%TO.N,/hv_kicker/flyback_charger/V_{solenoid}*%
X148500000Y-136000000D03*
D74*
%TO.P,C25,2*%
%TO.N,GND*%
X148500000Y-146000000D03*
%TD*%
D75*
%TO.P,F3,1*%
%TO.N,/Power Regulation/V_{batt}*%
X173265000Y-142300000D03*
X173265000Y-145700000D03*
%TO.P,F3,2*%
%TO.N,+BATT*%
X186735000Y-142300000D03*
X186735000Y-145700000D03*
%TD*%
D76*
%TO.P,J5,1,Pin_1*%
%TO.N,/hv_kicker/flyback_charger/V_{solenoid}*%
X234500000Y-144000000D03*
D77*
%TO.P,J5,2,Pin_2*%
%TO.N,/hv_kicker/solenoid_control/KICK_SW*%
X231500000Y-144000000D03*
%TD*%
D76*
%TO.P,J6,1,Pin_1*%
%TO.N,/hv_kicker/solenoid_control/CHIP_SW*%
X243500000Y-144000000D03*
D77*
%TO.P,J6,2,Pin_2*%
%TO.N,/hv_kicker/flyback_charger/V_{solenoid}*%
X240500000Y-144000000D03*
%TD*%
D78*
%TO.N,GND*%
X238250000Y-175750000D03*
X238250000Y-174500000D03*
X209280000Y-158300000D03*
X209400000Y-178409999D03*
X195800000Y-145700000D03*
D79*
X200500000Y-83000000D03*
D78*
X251606245Y-153515076D03*
D79*
X198000000Y-91750000D03*
X198000000Y-90500000D03*
D78*
X210700000Y-178409999D03*
X169363782Y-163101041D03*
X184500000Y-155000000D03*
X200000000Y-144520000D03*
X181009999Y-175500000D03*
D79*
X200500000Y-86750000D03*
X198000000Y-83000000D03*
D78*
X203600000Y-156500000D03*
X228000000Y-98000000D03*
X217500000Y-168000000D03*
X211875000Y-175850000D03*
X207000000Y-169500000D03*
X211750000Y-143009999D03*
X223000000Y-98000000D03*
D79*
X196250000Y-74500000D03*
X196750000Y-83000000D03*
D78*
X244000000Y-168250000D03*
D79*
X200500000Y-94250000D03*
D78*
X195900000Y-175850000D03*
X203100000Y-84010000D03*
X233300000Y-180100000D03*
X220000000Y-141009999D03*
X204509999Y-170000000D03*
X246515076Y-158606245D03*
D79*
X195100000Y-74500000D03*
X196750000Y-94250000D03*
X193850000Y-74500000D03*
D78*
X207400001Y-82500000D03*
X219000000Y-168000000D03*
X216000000Y-172200000D03*
D79*
X198000000Y-81750000D03*
D78*
X233990000Y-173250000D03*
D79*
X200500000Y-93000000D03*
D78*
X204700000Y-165280000D03*
X200000000Y-147759999D03*
D79*
X198000000Y-93000000D03*
X196750000Y-93000000D03*
X172250000Y-176500000D03*
X198750000Y-74500000D03*
D78*
X250000000Y-168250000D03*
X195000000Y-145700000D03*
X206400001Y-79980000D03*
D79*
X199250000Y-90500000D03*
D78*
X229000000Y-99000000D03*
X182500000Y-154000001D03*
D79*
X196750000Y-85500000D03*
X200500000Y-90500000D03*
D78*
X184500000Y-154000000D03*
X206900000Y-81900000D03*
D79*
X200000000Y-74500000D03*
D78*
X240500000Y-177509998D03*
D79*
X200500000Y-91750000D03*
D78*
X199320000Y-154900000D03*
D79*
X199250000Y-83000000D03*
D78*
X191000000Y-161600000D03*
X204509999Y-167600001D03*
X180500000Y-154000000D03*
X195000000Y-147300000D03*
D79*
X173500000Y-179000000D03*
D78*
X218650000Y-140980000D03*
X227900000Y-175850000D03*
X224000000Y-99000000D03*
X226000000Y-98000000D03*
X206900000Y-83100000D03*
D79*
X200500000Y-88000000D03*
D78*
X225000000Y-98000000D03*
X207000000Y-168750000D03*
X207900000Y-83100000D03*
X212010000Y-96000000D03*
X189400000Y-161000000D03*
X243500000Y-177509998D03*
X223000000Y-100000000D03*
X242500000Y-177509998D03*
X185500000Y-154000000D03*
X242786934Y-161286934D03*
D79*
X196750000Y-84250000D03*
D78*
X217500000Y-169500000D03*
D79*
X207950001Y-79500000D03*
D78*
X205000000Y-161400000D03*
D79*
X191900000Y-168650000D03*
D78*
X224000000Y-100000000D03*
D79*
X205500000Y-141449999D03*
D78*
X233990001Y-172000000D03*
X225000000Y-99000000D03*
X181500000Y-155000000D03*
X227000000Y-167250000D03*
X203700000Y-149700000D03*
X204400001Y-79020000D03*
D79*
X196750000Y-81750000D03*
D78*
X180500000Y-155000000D03*
X163863782Y-157601041D03*
D79*
X198000000Y-85500000D03*
D78*
X203100000Y-81020000D03*
D79*
X198000000Y-84250000D03*
D78*
X215700000Y-148600000D03*
X252533310Y-156941207D03*
D79*
X199250000Y-89250000D03*
X171000000Y-175250000D03*
D78*
X195800000Y-147300000D03*
D79*
X195100000Y-73250000D03*
D78*
X190524999Y-158900000D03*
X257533310Y-151941207D03*
X236171751Y-156578249D03*
D79*
X203000000Y-95500000D03*
D78*
X230450000Y-168437500D03*
D79*
X197500000Y-73250000D03*
D78*
X194200000Y-145700000D03*
X222000000Y-99000000D03*
X199320000Y-156000000D03*
X201000000Y-162105000D03*
D79*
X199250000Y-84250000D03*
D78*
X180980000Y-176500000D03*
X226000000Y-100000000D03*
D79*
X199250000Y-85500000D03*
D78*
X204509999Y-168800001D03*
D79*
X200500000Y-89250000D03*
D78*
X228000000Y-99000000D03*
D79*
X199250000Y-91750000D03*
D78*
X220280000Y-161000000D03*
X202525000Y-179050000D03*
D79*
X199250000Y-94250000D03*
D78*
X214900000Y-172209999D03*
X167839411Y-158339411D03*
D79*
X196750000Y-90500000D03*
D78*
X241500000Y-177509998D03*
D79*
X204000000Y-95500000D03*
D78*
X199520000Y-151000000D03*
D79*
X169750000Y-174000000D03*
D78*
X245008839Y-152584664D03*
D79*
X193900000Y-168650000D03*
D78*
X207000000Y-168000000D03*
X213500000Y-157820000D03*
X182500000Y-155000000D03*
X181500000Y-154000000D03*
D79*
X199250000Y-86750000D03*
X198000000Y-94250000D03*
X197500000Y-74500000D03*
D78*
X216000000Y-144740000D03*
D79*
X199250000Y-93000000D03*
D78*
X211400001Y-80020000D03*
X225000000Y-100000000D03*
X223000000Y-99000000D03*
X195800000Y-146500000D03*
X229000000Y-100000000D03*
X233300000Y-165150000D03*
X228000000Y-100000000D03*
X222000000Y-100000000D03*
X211000000Y-157820000D03*
X211750000Y-139990001D03*
D79*
X196750000Y-89250000D03*
D78*
X204000000Y-89990000D03*
X194200000Y-146500000D03*
X199500000Y-149700000D03*
X207900000Y-81900000D03*
X217000000Y-144740000D03*
X227000000Y-98000000D03*
X209250000Y-138259999D03*
X246000000Y-168250000D03*
X227000000Y-100000000D03*
X197000000Y-157500000D03*
D79*
X193850000Y-73250000D03*
X200500000Y-81750000D03*
D78*
X197000000Y-160600000D03*
D79*
X198000000Y-86750000D03*
X200000000Y-73250000D03*
X196750000Y-91750000D03*
X196750000Y-88000000D03*
D78*
X224000000Y-98000000D03*
X220500000Y-156490001D03*
X217475000Y-179050000D03*
D79*
X200500000Y-84250000D03*
D78*
X219000000Y-169500000D03*
D79*
X196250000Y-73250000D03*
X196750000Y-86750000D03*
X198000000Y-89250000D03*
D78*
X213125000Y-175850000D03*
D79*
X213400001Y-80550000D03*
X199250000Y-88000000D03*
D78*
X213800000Y-166820000D03*
X227000000Y-99000000D03*
X210200000Y-148500000D03*
X244582986Y-159490883D03*
X248000000Y-168250000D03*
D79*
X200500000Y-85500000D03*
X198750000Y-73250000D03*
D78*
X195000000Y-146500000D03*
D79*
X173500000Y-177750000D03*
D78*
X183500000Y-155000000D03*
X226000000Y-99000000D03*
D79*
X198000000Y-88000000D03*
D78*
X210500000Y-144770000D03*
X183500000Y-154000000D03*
X185500000Y-155000000D03*
X241888909Y-162184960D03*
X208500000Y-144509999D03*
X190500000Y-149580000D03*
X210900001Y-94010000D03*
X190500000Y-141990001D03*
X208500000Y-167069950D03*
X217500000Y-168750000D03*
X216500000Y-160500000D03*
D79*
X199250000Y-81750000D03*
D78*
X219000000Y-168750000D03*
X194200000Y-147300000D03*
X241139376Y-151139376D03*
D79*
%TO.N,+BATT*%
X191250000Y-84250000D03*
X192500000Y-81750000D03*
X190000000Y-83000000D03*
X188750000Y-89250000D03*
X191250000Y-85500000D03*
D78*
X228490001Y-162000000D03*
D79*
X192500000Y-83000000D03*
X190000000Y-88000000D03*
X192500000Y-88000000D03*
X188750000Y-83000000D03*
D78*
X222000000Y-169500000D03*
D79*
X190000000Y-86750000D03*
X188750000Y-88000000D03*
X188750000Y-84250000D03*
D78*
X192999999Y-151400000D03*
D79*
X188750000Y-85500000D03*
X190000000Y-85500000D03*
D78*
X222000000Y-168000000D03*
D79*
X192500000Y-86750000D03*
X191250000Y-86750000D03*
D78*
X220500000Y-168750000D03*
D79*
X192500000Y-89250000D03*
X192500000Y-85500000D03*
X190000000Y-89250000D03*
X192500000Y-84250000D03*
X191250000Y-89250000D03*
X190000000Y-84250000D03*
X188750000Y-86750000D03*
X191250000Y-81750000D03*
D78*
X222000000Y-168750000D03*
X220500000Y-168000000D03*
D79*
X191250000Y-83000000D03*
X190000000Y-81750000D03*
X191250000Y-88000000D03*
D78*
X220500000Y-169500000D03*
D79*
X188750000Y-81750000D03*
D78*
%TO.N,+3V0*%
X200280000Y-154900000D03*
X200280000Y-156000000D03*
%TO.N,+5V*%
X215625000Y-175850000D03*
X201490001Y-167600002D03*
%TO.N,+3V3*%
X240990883Y-163082986D03*
X244190000Y-171095000D03*
X211500000Y-172000000D03*
X210000000Y-172000000D03*
X136000000Y-133009999D03*
X213500000Y-163900000D03*
X230400000Y-175850000D03*
X198400000Y-175850000D03*
D79*
X195900000Y-163900000D03*
D78*
X214000000Y-144740001D03*
X214375000Y-175850000D03*
X190000000Y-178250000D03*
X193425000Y-172890001D03*
X205500000Y-168750000D03*
X194625000Y-172890001D03*
X205600000Y-178409999D03*
X206475000Y-158295000D03*
X204700000Y-164300000D03*
X205500000Y-169500000D03*
X206900000Y-178409999D03*
X216000000Y-145700000D03*
X193009999Y-143000000D03*
X248941207Y-160533310D03*
X217000000Y-145700000D03*
X201490001Y-166400000D03*
X200500000Y-149700000D03*
X237990001Y-155000000D03*
X210500000Y-145730000D03*
X284000000Y-133009999D03*
X219320000Y-161000000D03*
X253941207Y-155533310D03*
X233990001Y-167050000D03*
X199900000Y-160800000D03*
%TO.N,/digital/RCC_OSC32_N*%
X211000000Y-160500000D03*
%TO.N,/digital/RCC_OSC32_P*%
X213499998Y-160500000D03*
%TO.N,/digital/V_{sense}_HV_FILT*%
X197000000Y-159620000D03*
X207300000Y-164100000D03*
%TO.N,/digital/NRST*%
X249484924Y-151393755D03*
X212600000Y-163900000D03*
X229500000Y-166562499D03*
X209500000Y-164500000D03*
X219250000Y-165900000D03*
X244393755Y-156484924D03*
D79*
%TO.N,+VSW*%
X215500000Y-140000000D03*
D78*
X201490001Y-168800000D03*
D79*
X202500000Y-143125000D03*
X205500000Y-139500000D03*
%TO.N,/hv_kicker/flyback_charger/V_{trans}*%
X231500000Y-81250000D03*
X231500000Y-87500000D03*
X231500000Y-88750000D03*
X230250000Y-83750000D03*
X230250000Y-82500000D03*
X230250000Y-80000000D03*
X229000000Y-83750000D03*
X231500000Y-85000000D03*
X229000000Y-88750000D03*
X229000000Y-82500000D03*
X229000000Y-81250000D03*
X230250000Y-86250000D03*
X229000000Y-85000000D03*
X229000000Y-86250000D03*
X231500000Y-82500000D03*
X229000000Y-77500000D03*
X227750000Y-85000000D03*
X230250000Y-81250000D03*
X227750000Y-76250000D03*
X227750000Y-82500000D03*
X230250000Y-88750000D03*
X227750000Y-87500000D03*
X229000000Y-80000000D03*
X229000000Y-87500000D03*
X227750000Y-86250000D03*
X227750000Y-77500000D03*
X227750000Y-88750000D03*
X229000000Y-78750000D03*
X230250000Y-87500000D03*
X231500000Y-80000000D03*
X230250000Y-85000000D03*
X230250000Y-78750000D03*
X231500000Y-86250000D03*
X227750000Y-83750000D03*
X227750000Y-78750000D03*
X231500000Y-83750000D03*
X227750000Y-80000000D03*
X227750000Y-81250000D03*
D78*
%TO.N,/digital/BB_LED_DRAIN*%
X245662913Y-150587087D03*
X129000000Y-133250000D03*
X291000000Y-133250000D03*
%TO.N,/digital/USR_BTN*%
X233787868Y-159881371D03*
X216500000Y-157000000D03*
X181009999Y-174500000D03*
%TO.N,/digital/SWCLK*%
X221250000Y-151000000D03*
%TO.N,/digital/SWDIO*%
X220750000Y-149750000D03*
%TO.N,/digital/V_{sense}_HV*%
X198990001Y-159700000D03*
D79*
%TO.N,/hv_kicker/flyback_charger/HV_AC*%
X194000000Y-98500000D03*
X195500000Y-100000000D03*
X194000000Y-100000000D03*
X195500000Y-98500000D03*
D78*
%TO.N,Net-(J1-Pin_10)*%
X204375000Y-175850000D03*
%TO.N,/COMS.RST*%
X236600000Y-172000000D03*
%TO.N,Net-(J1-Pin_7)*%
X208125000Y-175850000D03*
%TO.N,/Ball Sense/SENSE_BOOT_UART.CTS*%
X205625000Y-175850000D03*
%TO.N,/COMS.BOOT0*%
X220500000Y-158500000D03*
X236600000Y-173250000D03*
%TO.N,/COMS.RX*%
X214000000Y-149100000D03*
%TO.N,/Dribbler/DRIB_BOOT_UART.CTS*%
X208500000Y-160200000D03*
X210000000Y-169600000D03*
%TO.N,/Dribbler/DRIB_BOOT_UART.BOOT0*%
X205600000Y-151000000D03*
X216000000Y-171180002D03*
%TO.N,/Dribbler/DRIB_BOOT_UART.RX*%
X203700000Y-151000000D03*
X211500002Y-169600000D03*
%TO.N,/Dribbler/DRIB_BOOT_UART.RST*%
X214900000Y-171190001D03*
X204800000Y-151500000D03*
%TO.N,/Breakbeam/BB_LEFT.AGPIO*%
X209000000Y-163900000D03*
X197150000Y-175850000D03*
%TO.N,Net-(R12-Pad1)*%
X240500000Y-176490000D03*
X251810000Y-171095000D03*
X239250001Y-170000000D03*
%TO.N,Net-(R13-Pad1)*%
X251810000Y-172365000D03*
X240250000Y-170000000D03*
X241500000Y-176490000D03*
%TO.N,Net-(R14-Pad1)*%
X241250000Y-170000000D03*
X242500000Y-176490000D03*
X251810000Y-173635000D03*
%TO.N,Net-(R15-Pad1)*%
X251810000Y-174905000D03*
X242250000Y-170000000D03*
X243500000Y-176490001D03*
%TO.N,/Breakbeam/BB_RIGHT.RST*%
X208000000Y-148500000D03*
X224125000Y-177300000D03*
%TO.N,/Breakbeam/BB_RIGHT.~{DET}*%
X222825000Y-177300000D03*
X207500000Y-149100000D03*
%TO.N,/Breakbeam/BB_RIGHT.INT*%
X207000000Y-148500000D03*
X221625000Y-177300000D03*
%TO.N,/Breakbeam/BB_RIGHT.SCL*%
X211000000Y-148500000D03*
X225425000Y-177300000D03*
%TO.N,/Breakbeam/BB_RIGHT.SDA*%
X211500000Y-149100000D03*
X226625000Y-177300000D03*
%TO.N,/Breakbeam/BB_LEFT.INT*%
X189650000Y-177000000D03*
X219800000Y-151500000D03*
%TO.N,/Breakbeam/BB_LEFT.RST*%
X192150000Y-175850000D03*
X219800000Y-150500000D03*
%TO.N,/Breakbeam/BB_LEFT.~{DET}*%
X190900000Y-175850000D03*
X219200000Y-151000000D03*
%TO.N,/Breakbeam/BB_LEFT.SDA*%
X214300000Y-158000000D03*
X194650000Y-175850000D03*
%TO.N,/Breakbeam/BB_LEFT.SCL*%
X219000000Y-150000000D03*
X193400000Y-175850000D03*
%TO.N,/Ball Sense/SENSE_BOOT_UART.RX*%
X206875000Y-175850000D03*
%TO.N,/Ball Sense/SENSE_BOOT_UART.RST*%
X209375000Y-175850000D03*
%TO.N,/Ball Sense/SENSE_BOOT_UART.BOOT0*%
X210625000Y-175850000D03*
%TO.N,/digital/LED_BB_BLUE*%
X243665336Y-151241161D03*
X222000000Y-160000000D03*
%TO.N,/hv_kicker/solenoid_control/GATE_{kick}_FILT*%
X209250000Y-134990001D03*
%TO.N,/hv_kicker/solenoid_control/GATE_{chip}_FILT*%
X222750000Y-134000000D03*
%TO.N,/COMS.TX*%
X213500000Y-148500000D03*
%TO.N,/Power Regulation/VSW_CEN*%
X190500000Y-143009999D03*
X192300000Y-147135000D03*
%TO.N,/Power Regulation/VSW_PGOOD*%
X192300000Y-145865000D03*
%TO.N,/digital/VSW_EN*%
X190500000Y-145990001D03*
%TO.N,/digital/LED_GREEN*%
X222000000Y-159000000D03*
%TO.N,/digital/LED_RED*%
X221400000Y-159500000D03*
%TO.N,/digital/ShutdownInitiated*%
X221400000Y-157500000D03*
%TO.N,/digital/DIP3*%
X221300000Y-166600000D03*
X239250001Y-168980002D03*
%TO.N,/digital/DIP2*%
X240250000Y-168980002D03*
%TO.N,/digital/DIP1*%
X241250000Y-168980002D03*
%TO.N,/digital/DIP0*%
X242250000Y-168980002D03*
%TO.N,/digital/CMD_{KICK}*%
X211750000Y-141990001D03*
%TO.N,/digital/CMD_{CHIP}*%
X217155000Y-142975000D03*
X211750000Y-141009999D03*
%TO.N,/digital/CMD_{CHG}*%
X210000000Y-140300000D03*
X210990000Y-96000000D03*
X211700000Y-81900000D03*
%TO.N,/hv_kicker/flyback_charger/HVGATE*%
X210900001Y-92020000D03*
X211100000Y-83100000D03*
%TO.N,/hv_kicker/flyback_charger/FB*%
X204000000Y-91010000D03*
X204000000Y-81900000D03*
%TO.N,/Dribbler/DRIB_BOOT_UART.TX*%
X204300000Y-150500000D03*
%TO.N,/Ball Sense/SENSE_BOOT_UART.TX*%
X208200000Y-178409999D03*
%TO.N,/digital/USER_ADJ1*%
X220750000Y-149000000D03*
X204300000Y-154500000D03*
%TO.N,/digital/USER_ADJ2*%
X203700000Y-154000000D03*
X219000000Y-148500000D03*
%TO.N,/digital/DOTSTAR_SCK*%
X168232412Y-164232412D03*
X216600000Y-164100000D03*
%TO.N,Net-(J11-Pin_8)*%
X232900000Y-173350000D03*
X236600000Y-169500000D03*
%TO.N,/digital/DOTSTAR_MOSI*%
X167101041Y-165363782D03*
X217100000Y-165200000D03*
%TO.N,/digital/FLASH_SCK*%
X206475000Y-160835000D03*
%TO.N,/digital/FLASH_MOSI*%
X204600000Y-159500000D03*
%TO.N,/COMS.CTS*%
X214000000Y-150400000D03*
X232900000Y-174500000D03*
X236600000Y-167000000D03*
%TO.N,Net-(J11-Pin_9)*%
X236600000Y-168250000D03*
%TO.N,/COMS.RTS*%
X214800000Y-150600000D03*
X231900000Y-174450000D03*
%TO.N,/Dribbler/DRIB_BOOT_UART.RTS*%
X208500000Y-161100000D03*
%TO.N,/digital/FLASH_MISO*%
X203700000Y-160000000D03*
%TO.N,/digital/FLASH_NSS*%
X203700000Y-161000000D03*
%TO.N,/Ball Sense/SENSE_BOOT_UART.RTS*%
X204400000Y-178409999D03*
D79*
%TO.N,Net-(U8-INTVCC)*%
X213400001Y-82450000D03*
D78*
X202500000Y-139780002D03*
%TD*%
D80*
%TO.N,/hv_kicker/flyback_charger/V_{solenoid}*%
X200900000Y-100500000D02*
X215500000Y-100500000D01*
X199400000Y-99000000D02*
X200900000Y-100500000D01*
X215500000Y-100500000D02*
X218500000Y-103500000D01*
X218500000Y-103500000D02*
X218500000Y-117000000D01*
D81*
%TO.N,GND*%
X195000000Y-146500000D02*
X193095000Y-144595000D01*
D82*
X273250000Y-144250000D02*
X271500000Y-146000000D01*
D81*
X218650000Y-140980000D02*
X216670001Y-140980001D01*
X193095000Y-144595000D02*
X192300000Y-144595000D01*
D83*
X251606245Y-153515076D02*
X251606245Y-152322577D01*
D82*
X129000000Y-144250000D02*
X146750000Y-144250000D01*
D84*
X191750000Y-161600000D02*
X191000000Y-161600000D01*
D82*
X291000000Y-144250000D02*
X273250000Y-144250000D01*
D83*
X251606245Y-152322577D02*
X252339411Y-151589411D01*
D81*
X215885001Y-141765001D02*
X215885001Y-142975000D01*
X216670001Y-140980001D02*
X215885001Y-141765001D01*
D85*
X205250001Y-83500000D02*
X206500000Y-83500000D01*
D82*
X146750000Y-144250000D02*
X148500000Y-146000000D01*
D85*
X206500000Y-83500000D02*
X207000000Y-83000000D01*
D81*
%TO.N,+BATT*%
X189400000Y-148620000D02*
X190500000Y-148620000D01*
X186735000Y-145700000D02*
X186735000Y-145955000D01*
D80*
X187750000Y-90250000D02*
X188750000Y-89250000D01*
D85*
X187800000Y-145190001D02*
X187809999Y-145200000D01*
D82*
X209550001Y-81500000D02*
X210880001Y-81500000D01*
D86*
X209850001Y-79500000D02*
X209850001Y-78250001D01*
X209600000Y-76000000D02*
X208600000Y-77000000D01*
X209850001Y-78250001D02*
X208600000Y-77000000D01*
D81*
X211400001Y-80980000D02*
X211080000Y-80980000D01*
D86*
X210587500Y-76000000D02*
X209600000Y-76000000D01*
D83*
X188809999Y-142300000D02*
X186735000Y-142300000D01*
D81*
X190500000Y-148620000D02*
X190715000Y-148405000D01*
D86*
X185000000Y-149849999D02*
X182237501Y-149849999D01*
D84*
X192300000Y-148405000D02*
X192300000Y-150700001D01*
X192300000Y-150700001D02*
X192999999Y-151400000D01*
D86*
X190750000Y-79150000D02*
X190750000Y-82700000D01*
X193500000Y-76400000D02*
X190750000Y-79150000D01*
D80*
X187750000Y-105250000D02*
X187750000Y-90250000D01*
D86*
X182237501Y-149849999D02*
X181000000Y-151087500D01*
D82*
X210880001Y-81500000D02*
X211400001Y-80980000D01*
D81*
X209850001Y-79750001D02*
X209850001Y-79500000D01*
D86*
X208600000Y-77000000D02*
X208000000Y-76400000D01*
D80*
X188500000Y-106000000D02*
X187750000Y-105250000D01*
D85*
X186790001Y-145200000D02*
X186790001Y-146309999D01*
D86*
X208000000Y-76400000D02*
X193500000Y-76400000D01*
D83*
X190500000Y-143990001D02*
X188809999Y-142300000D01*
D80*
X185000000Y-149849999D02*
X185000000Y-147435000D01*
X185000000Y-147435000D02*
X186735000Y-145700000D01*
D81*
X211080000Y-80980000D02*
X209850001Y-79750001D01*
X186735000Y-145955000D02*
X189400000Y-148620000D01*
X190715000Y-148405000D02*
X192300000Y-148405000D01*
%TO.N,Net-(D2-A)*%
X202500000Y-148500000D02*
X202500000Y-147950000D01*
X197700000Y-148405000D02*
X199135000Y-148405000D01*
X201450000Y-151000000D02*
X201450000Y-148820000D01*
X199500000Y-148770000D02*
X201500000Y-148770000D01*
X201450000Y-148820000D02*
X201500000Y-148770000D01*
D84*
X197700000Y-150700001D02*
X197000001Y-151400000D01*
D81*
X202230000Y-148770000D02*
X202500000Y-148500000D01*
X199135000Y-148405000D02*
X199500000Y-148770000D01*
X201500000Y-148770000D02*
X202230000Y-148770000D01*
D85*
X201000000Y-147759999D02*
X201000000Y-148770000D01*
D84*
X197700000Y-148405000D02*
X197700000Y-150700001D01*
D85*
%TO.N,Net-(U2-DELAY)*%
X197700000Y-145865000D02*
X199615000Y-145865000D01*
X199615000Y-145865000D02*
X200000000Y-145480000D01*
D84*
%TO.N,/Power Regulation/3v3_FILT*%
X190300000Y-162200000D02*
X190300000Y-161060000D01*
D85*
X191750000Y-162250000D02*
X190350000Y-162250000D01*
D84*
X191775000Y-163900000D02*
X190600000Y-163900000D01*
X190300000Y-161060000D02*
X190360000Y-161000000D01*
X190300000Y-163600000D02*
X190300000Y-162200000D01*
X191750000Y-160950000D02*
X190410000Y-160950000D01*
X190600000Y-163900000D02*
X190300000Y-163600000D01*
X191775000Y-162275000D02*
X191750000Y-162250000D01*
X190410000Y-160950000D02*
X190360000Y-161000000D01*
D85*
X190350000Y-162250000D02*
X190300000Y-162200000D01*
D84*
%TO.N,/Power Regulation/3v0_PREFUSE*%
X193650000Y-160950000D02*
X193650000Y-159074999D01*
X193475001Y-158900000D02*
X193475001Y-157174999D01*
X193650000Y-159074999D02*
X193475001Y-158900000D01*
X193475001Y-157174999D02*
X193500000Y-157150000D01*
%TO.N,+3V0*%
X200280000Y-154900000D02*
X200280000Y-156000000D01*
X197374999Y-155000000D02*
X198089999Y-154285000D01*
X199665000Y-154285000D02*
X200280000Y-154900000D01*
X198089999Y-154285000D02*
X199665000Y-154285000D01*
D87*
%TO.N,+5V*%
X202900000Y-170100000D02*
X206200000Y-173400000D01*
D82*
X199500000Y-167600000D02*
X199500000Y-168000000D01*
X160398959Y-154136218D02*
X162262741Y-156000000D01*
D87*
X197900000Y-163875000D02*
X197900000Y-163900000D01*
D82*
X165898959Y-159636218D02*
X166321178Y-159213999D01*
X199100000Y-178600000D02*
X197900000Y-179800000D01*
D87*
X206200000Y-173400000D02*
X214500000Y-173400000D01*
D82*
X164000000Y-156000000D02*
X166321178Y-158321178D01*
X165500000Y-163500000D02*
X166000000Y-163000000D01*
X199500000Y-167600000D02*
X199500000Y-163875000D01*
X166000000Y-163000000D02*
X166000000Y-159737259D01*
X197900000Y-179800000D02*
X179050000Y-179800000D01*
D83*
X201490001Y-167600002D02*
X199500002Y-167600002D01*
D87*
X215625000Y-174525000D02*
X215625000Y-175850000D01*
D83*
X199500002Y-167600002D02*
X199500000Y-167600000D01*
D82*
X166981767Y-157660589D02*
X167160589Y-157660589D01*
X179050000Y-179800000D02*
X165500000Y-166250000D01*
D87*
X201375000Y-163875000D02*
X202900000Y-165400000D01*
D82*
X162262741Y-156000000D02*
X164000000Y-156000000D01*
D87*
X199500000Y-163875000D02*
X201375000Y-163875000D01*
X197900000Y-163875000D02*
X199500000Y-163875000D01*
X214500000Y-173400000D02*
X215625000Y-174525000D01*
D82*
X199100000Y-168400000D02*
X199100000Y-178600000D01*
X166321178Y-159213999D02*
X166321178Y-158321178D01*
X199500000Y-168000000D02*
X199100000Y-168400000D01*
D87*
X202900000Y-165400000D02*
X202900000Y-170100000D01*
D82*
X166000000Y-159737259D02*
X165898959Y-159636218D01*
X166321178Y-158321178D02*
X166981767Y-157660589D01*
X165500000Y-166250000D02*
X165500000Y-163500000D01*
D83*
%TO.N,Net-(C6-Pad1)*%
X173884924Y-172906245D02*
X178396246Y-172906245D01*
X173884924Y-172906245D02*
X168793755Y-167815076D01*
X179990001Y-174500000D02*
X179990001Y-175500000D01*
X179990001Y-176470001D02*
X180020000Y-176500000D01*
X179990001Y-175500000D02*
X179990001Y-176470001D01*
X178396246Y-172906245D02*
X179990001Y-174500000D01*
%TO.N,+3V3*%
X206475000Y-159565000D02*
X206475000Y-158295000D01*
X176006245Y-170784924D02*
X170915076Y-165693755D01*
D82*
X241386934Y-162986934D02*
X241336934Y-162986934D01*
X208320000Y-158300000D02*
X206480000Y-158300000D01*
D87*
X195900000Y-163875000D02*
X195900000Y-163900000D01*
D83*
X178784924Y-170784924D02*
X186250000Y-178250000D01*
X199935000Y-160835000D02*
X199900000Y-160800000D01*
D82*
X206480000Y-158300000D02*
X206475000Y-158295000D01*
D83*
X244190000Y-171095000D02*
X244190000Y-174905000D01*
X201525000Y-160835000D02*
X199935000Y-160835000D01*
X176006245Y-170784924D02*
X178784924Y-170784924D01*
X186250000Y-178250000D02*
X190000000Y-178250000D01*
D82*
X241286934Y-163036934D02*
X241286934Y-163086935D01*
X241336934Y-162986934D02*
X241286934Y-163036934D01*
D84*
X193425000Y-163900000D02*
X195900000Y-163900000D01*
D83*
%TO.N,/digital/RCC_OSC32_N*%
X211000000Y-160500000D02*
X211000000Y-158780000D01*
%TO.N,/digital/RCC_OSC32_P*%
X213499998Y-158780002D02*
X213500000Y-158780000D01*
X213499998Y-160500000D02*
X213499998Y-158780002D01*
%TO.N,/digital/V_{sense}_HV_FILT*%
X206200000Y-163000000D02*
X200400000Y-163000000D01*
X197020000Y-159620000D02*
X197000000Y-159620000D01*
X200400000Y-163000000D02*
X197020000Y-159620000D01*
X207300000Y-164100000D02*
X206200000Y-163000000D01*
%TO.N,/digital/NRST*%
X236631371Y-157037868D02*
X237169239Y-156500000D01*
X237169239Y-156500000D02*
X238500000Y-156500000D01*
X241921051Y-157078949D02*
X242009117Y-157167014D01*
X238500000Y-156500000D02*
X239009999Y-155990001D01*
X249484924Y-151393755D02*
X251177423Y-151393755D01*
D88*
X242009117Y-156990883D02*
X241921051Y-157078949D01*
D83*
X251177423Y-151393755D02*
X251660589Y-150910589D01*
X242441207Y-156484924D02*
X242009117Y-156917014D01*
D88*
X239009999Y-155000000D02*
X240092103Y-155000000D01*
D83*
X239009999Y-155990001D02*
X239009999Y-155000000D01*
X244393755Y-156484924D02*
X242441207Y-156484924D01*
D88*
X242009117Y-156917014D02*
X242009117Y-156990883D01*
X240092103Y-155000000D02*
X242009117Y-156917014D01*
D82*
%TO.N,/hv_kicker/flyback_charger/V_{solenoid}*%
X143250000Y-136337500D02*
X148162500Y-136337500D01*
X276750000Y-136337500D02*
X271837500Y-136337500D01*
D85*
X206500000Y-97912500D02*
X206500000Y-100500000D01*
D82*
X148162500Y-136337500D02*
X148500000Y-136000000D01*
X271837500Y-136337500D02*
X271500000Y-136000000D01*
D86*
X203500000Y-98475001D02*
X203500000Y-100500000D01*
D83*
X199000000Y-136912500D02*
X199000000Y-133500000D01*
X199087500Y-137000000D02*
X199000000Y-136912500D01*
D81*
%TO.N,+VSW*%
X218630000Y-140000000D02*
X218650000Y-140020000D01*
X215885000Y-139115000D02*
X215885000Y-138025000D01*
X215500000Y-139500000D02*
X215885000Y-139115000D01*
X215500000Y-140000000D02*
X215500000Y-139500000D01*
X215500000Y-140000000D02*
X218630000Y-140000000D01*
X215520000Y-140020000D02*
X215500000Y-140000000D01*
X215885000Y-138025000D02*
X215885001Y-138025001D01*
D85*
%TO.N,Net-(U8-SS)*%
X205250001Y-82500000D02*
X203620000Y-82500000D01*
X203620000Y-82500000D02*
X203100000Y-81980000D01*
%TO.N,Net-(U8-VC)*%
X204312764Y-81500000D02*
X204200000Y-81387236D01*
X204200000Y-81387236D02*
X204200000Y-80700000D01*
X204400001Y-80499999D02*
X204400001Y-79980000D01*
X205250001Y-81500000D02*
X204312764Y-81500000D01*
X204400001Y-79980000D02*
X205370001Y-79980000D01*
X204200000Y-80700000D02*
X204400001Y-80499999D01*
X205370001Y-79980000D02*
X205400001Y-80010000D01*
D83*
%TO.N,Net-(D4-A)*%
X290759999Y-131990001D02*
X291000000Y-131750000D01*
X284000000Y-131990001D02*
X290759999Y-131990001D01*
%TO.N,Net-(D5-A)*%
X241717600Y-166717600D02*
X242750000Y-166717600D01*
X239000000Y-164000000D02*
X241717600Y-166717600D01*
X245393800Y-166143800D02*
X246000000Y-166750000D01*
X242750000Y-166717600D02*
X243323800Y-166143800D01*
X229509999Y-164000000D02*
X239000000Y-164000000D01*
X243323800Y-166143800D02*
X245393800Y-166143800D01*
%TO.N,Net-(D6-A)*%
X136000000Y-131990001D02*
X129240001Y-131990001D01*
X129240001Y-131990001D02*
X129000000Y-131750000D01*
%TO.N,Net-(D7-A)*%
X241500000Y-167000000D02*
X243750000Y-167000000D01*
X229509999Y-165000000D02*
X230209999Y-164300000D01*
X230209999Y-164300000D02*
X238800000Y-164300000D01*
X238800000Y-164300000D02*
X241500000Y-167000000D01*
X243750000Y-167000000D02*
X244000000Y-166750000D01*
%TO.N,Net-(D8-A)*%
X229509999Y-162000000D02*
X238000000Y-162000000D01*
X242516052Y-166152800D02*
X243089852Y-165579000D01*
X243089852Y-165579000D02*
X248829000Y-165579000D01*
X248829000Y-165579000D02*
X250000000Y-166750000D01*
X238000000Y-162000000D02*
X242152800Y-166152800D01*
X242152800Y-166152800D02*
X242516052Y-166152800D01*
%TO.N,Net-(D9-A)*%
X229509999Y-163000000D02*
X238500000Y-163000000D01*
X247111400Y-165861400D02*
X248000000Y-166750000D01*
X238500000Y-163000000D02*
X241935200Y-166435200D01*
X242633026Y-166435200D02*
X243206826Y-165861400D01*
X241935200Y-166435200D02*
X242633026Y-166435200D01*
X243206826Y-165861400D02*
X247111400Y-165861400D01*
D81*
%TO.N,Net-(C40-Pad1)*%
X214550000Y-76000000D02*
X212412500Y-76000000D01*
D82*
%TO.N,Net-(D10-A)*%
X142412500Y-142750000D02*
X143250000Y-141912500D01*
X129000000Y-142750000D02*
X142412500Y-142750000D01*
D83*
%TO.N,/digital/USR_BTN*%
X233787868Y-159881371D02*
X235287868Y-158381371D01*
%TO.N,/digital/SWCLK*%
X235958488Y-157116218D02*
X235633782Y-156791512D01*
X221250000Y-151000000D02*
X221250000Y-153100626D01*
X235633782Y-156791512D02*
X235633782Y-156196979D01*
X236842271Y-158000000D02*
X235958488Y-157116218D01*
X237453949Y-158000000D02*
X236842271Y-158000000D01*
X221250000Y-153100626D02*
X225768003Y-157618629D01*
X235093503Y-155500000D02*
X235712132Y-156118629D01*
X239315040Y-159861091D02*
X237453949Y-158000000D01*
X225768003Y-157618629D02*
X231881371Y-157618629D01*
X234000000Y-155500000D02*
X235093503Y-155500000D01*
X231881371Y-157618629D02*
X234000000Y-155500000D01*
%TO.N,/digital/SWDIO*%
X226712132Y-158962132D02*
X232868629Y-158962132D01*
X234446979Y-157383782D02*
X235041679Y-157383782D01*
X220750000Y-149750000D02*
X220750000Y-153000000D01*
X220750000Y-153000000D02*
X226712132Y-158962132D01*
X232868629Y-158962132D02*
X234368629Y-157462132D01*
X235041679Y-157383782D02*
X238417014Y-160759117D01*
%TO.N,/digital/V_{sense}_HV*%
X233098440Y-159651560D02*
X225901560Y-159651560D01*
X198990001Y-159347099D02*
X202937400Y-155399700D01*
X202937400Y-149673047D02*
X203750000Y-148860447D01*
X217250000Y-151000000D02*
X217250000Y-148500000D01*
X209250000Y-145509014D02*
X209250000Y-144240001D01*
X208500000Y-140587500D02*
X204912500Y-137000000D01*
X205259999Y-143490001D02*
X208500000Y-143490001D01*
X203750000Y-145000000D02*
X205259999Y-143490001D01*
X209250000Y-144240001D02*
X208500000Y-143490001D01*
X203750000Y-148860447D02*
X203750000Y-145000000D01*
X211240986Y-147500000D02*
X209250000Y-145509014D01*
X202937400Y-155399700D02*
X202937400Y-149673047D01*
X198990001Y-159700000D02*
X198990001Y-159347099D01*
X225901560Y-159651560D02*
X217250000Y-151000000D01*
X217250000Y-148500000D02*
X216250000Y-147500000D01*
X216250000Y-147500000D02*
X211240986Y-147500000D01*
X208500000Y-143490001D02*
X208500000Y-140587500D01*
X234828249Y-157921751D02*
X233098440Y-159651560D01*
D82*
%TO.N,Net-(D11-A)*%
X291000000Y-142750000D02*
X277337500Y-142750000D01*
X277337500Y-142750000D02*
X276750000Y-142162500D01*
D87*
%TO.N,Net-(J2-Pin_1)*%
X197900000Y-165625000D02*
X197900000Y-168650000D01*
D89*
%TO.N,/hv_kicker/solenoid_control/KICK_SW*%
X231500000Y-144000000D02*
X231500000Y-139900000D01*
X231500000Y-139900000D02*
X229600000Y-138000000D01*
D80*
%TO.N,/hv_kicker/solenoid_control/CHIP_SW*%
X243500000Y-144000000D02*
X250400000Y-144000000D01*
X250400000Y-144000000D02*
X251000000Y-143400000D01*
D84*
%TO.N,Net-(JP1-B)*%
X193500000Y-155200000D02*
X193500000Y-155450000D01*
X195625001Y-155000000D02*
X193700000Y-155000000D01*
X193700000Y-155000000D02*
X193500000Y-155200000D01*
D87*
%TO.N,Net-(J2-Pin_2)*%
X195900000Y-165625000D02*
X195900000Y-168650000D01*
D83*
%TO.N,Net-(J1-Pin_10)*%
X204400000Y-177390001D02*
X204400000Y-175875000D01*
X204400000Y-175875000D02*
X204375000Y-175850000D01*
D81*
%TO.N,Net-(JP2-B)*%
X202500000Y-146250000D02*
X202500000Y-144875000D01*
D83*
%TO.N,/COMS.RST*%
X235100000Y-172000000D02*
X236600000Y-172000000D01*
X234500000Y-171400000D02*
X235100000Y-172000000D01*
X228550000Y-168437500D02*
X228550000Y-169650000D01*
X230300000Y-171400000D02*
X234500000Y-171400000D01*
X228550000Y-169650000D02*
X230300000Y-171400000D01*
X227177501Y-168437500D02*
X228550000Y-168437500D01*
X227000000Y-168259999D02*
X227177501Y-168437500D01*
%TO.N,Net-(J1-Pin_7)*%
X208200000Y-175925000D02*
X208125000Y-175850000D01*
X208200000Y-177390001D02*
X208200000Y-175925000D01*
%TO.N,/Ball Sense/SENSE_BOOT_UART.CTS*%
X205600000Y-177390001D02*
X205600000Y-175875000D01*
X205600000Y-175875000D02*
X205625000Y-175850000D01*
D82*
%TO.N,/5v0_UPSTREAM*%
X236600000Y-179450000D02*
X237150000Y-180000000D01*
X236600000Y-178250000D02*
X236600000Y-179450000D01*
X237150000Y-180000000D02*
X239000000Y-180000000D01*
%TO.N,/3v3_UPSTREAM*%
X236600000Y-177000000D02*
X238000000Y-177000000D01*
X238000000Y-177000000D02*
X239000000Y-178000000D01*
D83*
%TO.N,Net-(J7-Pin_7)*%
X213000000Y-168750000D02*
X213000000Y-166410000D01*
%TO.N,/COMS.BOOT0*%
X220500000Y-158500000D02*
X220500000Y-159300000D01*
X234500000Y-172650000D02*
X235100000Y-173250000D01*
X235100000Y-173250000D02*
X236600000Y-173250000D01*
X225564800Y-168266052D02*
X229948748Y-172650000D01*
X220500000Y-158500000D02*
X220500000Y-157509999D01*
X220500000Y-159300000D02*
X225564800Y-164364800D01*
X225564800Y-164364800D02*
X225564800Y-168266052D01*
X229948748Y-172650000D02*
X234500000Y-172650000D01*
%TO.N,/COMS.RX*%
X219117600Y-158716348D02*
X225000000Y-164598748D01*
X225000000Y-168500000D02*
X230350000Y-173850000D01*
X225000000Y-164598748D02*
X225000000Y-168500000D01*
X237700000Y-170750000D02*
X236600000Y-170750000D01*
X237900000Y-173650000D02*
X237900000Y-170950000D01*
X237900000Y-170950000D02*
X237700000Y-170750000D01*
X219117600Y-154217600D02*
X219117600Y-158716348D01*
X214000000Y-149100000D02*
X219117600Y-154217600D01*
X230350000Y-173850000D02*
X237700000Y-173850000D01*
X237700000Y-173850000D02*
X237900000Y-173650000D01*
%TO.N,/Dribbler/DRIB_BOOT_UART.CTS*%
X210000000Y-161700000D02*
X210000000Y-168750000D01*
X208500000Y-160200000D02*
X210000000Y-161700000D01*
%TO.N,/Dribbler/DRIB_BOOT_UART.BOOT0*%
X210847496Y-151000000D02*
X216000000Y-156152504D01*
X205600000Y-151000000D02*
X210847496Y-151000000D01*
X216000000Y-156152504D02*
X216000000Y-168750000D01*
X216000000Y-168750000D02*
X216000000Y-171180002D01*
%TO.N,/Dribbler/DRIB_BOOT_UART.RX*%
X212000000Y-164600000D02*
X214735826Y-164600000D01*
X214735826Y-164600000D02*
X215152800Y-164183026D01*
X203700000Y-151500000D02*
X203700000Y-151000000D01*
X215152800Y-156503426D02*
X210911974Y-152262600D01*
X204462600Y-152262600D02*
X203700000Y-151500000D01*
X211500000Y-165100000D02*
X212000000Y-164600000D01*
X211500000Y-168750000D02*
X211500000Y-165100000D01*
X215152800Y-164183026D02*
X215152800Y-156503426D01*
X210911974Y-152262600D02*
X204462600Y-152262600D01*
%TO.N,/Dribbler/DRIB_BOOT_UART.RST*%
X215717600Y-166182400D02*
X214500000Y-167400000D01*
X210948122Y-151500000D02*
X215717600Y-156269478D01*
X214500000Y-170790001D02*
X214500000Y-168750000D01*
X214500000Y-167400000D02*
X214500000Y-168750000D01*
X215717600Y-156269478D02*
X215717600Y-166182400D01*
X204800000Y-151500000D02*
X210948122Y-151500000D01*
X214900000Y-171190001D02*
X214500000Y-170790001D01*
%TO.N,Net-(J7-Pin_10)*%
X207800000Y-168600000D02*
X207800000Y-167300000D01*
X208500000Y-168750000D02*
X207950000Y-168750000D01*
X207800000Y-167300000D02*
X207500000Y-167000000D01*
X207950000Y-168750000D02*
X207800000Y-168600000D01*
X207500000Y-167000000D02*
X207500000Y-166409999D01*
%TO.N,Net-(R12-Pad1)*%
X239250000Y-170000001D02*
X239250001Y-170000000D01*
%TO.N,/Breakbeam/BB_RIGHT.RST*%
X211930835Y-149882087D02*
X217564800Y-155516052D01*
X223564800Y-165966052D02*
X223564800Y-170733948D01*
X209382087Y-149882087D02*
X211930835Y-149882087D01*
X223100000Y-176275000D02*
X224125000Y-177300000D01*
X220166052Y-163764800D02*
X221363548Y-163764800D01*
X217564800Y-155516052D02*
X217564800Y-161163548D01*
X223100000Y-171198748D02*
X223100000Y-176275000D01*
X223564800Y-170733948D02*
X223100000Y-171198748D01*
X217564800Y-161163548D02*
X220166052Y-163764800D01*
X208000000Y-148500000D02*
X209382087Y-149882087D01*
X221363548Y-163764800D02*
X223564800Y-165966052D01*
%TO.N,/Breakbeam/BB_RIGHT.~{DET}*%
X217282400Y-155633026D02*
X217282400Y-161280522D01*
X222817600Y-177292600D02*
X222825000Y-177300000D01*
X217282400Y-161280522D02*
X220049078Y-164047200D01*
X222817600Y-171081774D02*
X222817600Y-177292600D01*
X211813861Y-150164487D02*
X217282400Y-155633026D01*
X207500000Y-149100000D02*
X208564487Y-150164487D01*
X223282400Y-166083026D02*
X223282400Y-170616974D01*
X220049078Y-164047200D02*
X221246574Y-164047200D01*
X221246574Y-164047200D02*
X223282400Y-166083026D01*
X208564487Y-150164487D02*
X211813861Y-150164487D01*
X223282400Y-170616974D02*
X222817600Y-171081774D01*
%TO.N,/Breakbeam/BB_RIGHT.INT*%
X217000000Y-161397496D02*
X219932104Y-164329600D01*
X207000000Y-149279106D02*
X208167781Y-150446887D01*
X223000000Y-166200000D02*
X223000000Y-170500000D01*
X208167781Y-150446887D02*
X211696887Y-150446887D01*
X222535200Y-170964800D02*
X222535200Y-176389800D01*
X211696887Y-150446887D02*
X217000000Y-155750000D01*
X219932104Y-164329600D02*
X221129600Y-164329600D01*
X217000000Y-155750000D02*
X217000000Y-161397496D01*
X207000000Y-148500000D02*
X207000000Y-149279106D01*
X221129600Y-164329600D02*
X223000000Y-166200000D01*
X222535200Y-176389800D02*
X221625000Y-177300000D01*
X223000000Y-170500000D02*
X222535200Y-170964800D01*
%TO.N,/Breakbeam/BB_RIGHT.SCL*%
X217847200Y-161046574D02*
X220283026Y-163482400D01*
X217847200Y-155399078D02*
X217847200Y-161046574D01*
X221480522Y-163482400D02*
X223847200Y-165849078D01*
X211320581Y-149599687D02*
X212047809Y-149599687D01*
X225425000Y-177300000D02*
X227025000Y-175700000D01*
X227025000Y-175700000D02*
X227025000Y-172250000D01*
X211000000Y-148500000D02*
X211000000Y-149279106D01*
X227025000Y-172250000D02*
X223847200Y-169072200D01*
X223847200Y-165849078D02*
X223847200Y-169000000D01*
X212047809Y-149599687D02*
X217847200Y-155399078D01*
X220283026Y-163482400D02*
X221480522Y-163482400D01*
X211000000Y-149279106D02*
X211320581Y-149599687D01*
X223847200Y-169072200D02*
X223847200Y-169000000D01*
%TO.N,/Breakbeam/BB_RIGHT.SDA*%
X224129600Y-168955226D02*
X227307400Y-172133026D01*
X218129600Y-160929600D02*
X220400000Y-163200000D01*
X220400000Y-163200000D02*
X221597496Y-163200000D01*
X221597496Y-163200000D02*
X224129600Y-165732104D01*
X224129600Y-165732104D02*
X224129600Y-168955226D01*
X227307400Y-176617600D02*
X226625000Y-177300000D01*
X211947496Y-149100000D02*
X218129600Y-155282104D01*
X211500000Y-149100000D02*
X211947496Y-149100000D01*
X227307400Y-172133026D02*
X227307400Y-176617600D01*
X218129600Y-155282104D02*
X218129600Y-160929600D01*
%TO.N,/Ball Sense/SENSE_BOOT_UART.RX*%
X206900000Y-177390001D02*
X206900000Y-175875000D01*
X206900000Y-175875000D02*
X206875000Y-175850000D01*
%TO.N,/Ball Sense/SENSE_BOOT_UART.RST*%
X209400000Y-175875000D02*
X209375000Y-175850000D01*
X209400000Y-177390001D02*
X209400000Y-175875000D01*
%TO.N,/UPSTREAM_GND*%
X236600000Y-175750000D02*
X236600000Y-174500000D01*
%TO.N,/Ball Sense/SENSE_BOOT_UART.BOOT0*%
X210700000Y-175925000D02*
X210625000Y-175850000D01*
X210700000Y-177390001D02*
X210700000Y-175925000D01*
%TO.N,/digital/LED_BB_BLUE*%
X243045873Y-151860624D02*
X241860624Y-151860624D01*
X243665336Y-151241161D02*
X243045873Y-151860624D01*
D85*
%TO.N,/hv_kicker/solenoid_control/GATE_{chip}_FILT*%
X222750000Y-134000000D02*
X222750000Y-135750000D01*
X222750000Y-135750000D02*
X220500000Y-138000000D01*
X220500000Y-138000000D02*
X220009999Y-138000000D01*
D82*
%TO.N,/hv_kicker/flyback_charger/CSP*%
X208782501Y-84617499D02*
X208782501Y-85679999D01*
X209550001Y-83849999D02*
X208782501Y-84617499D01*
X209550001Y-83500000D02*
X209550001Y-83849999D01*
D85*
%TO.N,Net-(Q5-G)*%
X210900001Y-91000000D02*
X210900001Y-89455000D01*
X210900001Y-89455000D02*
X210950001Y-89405000D01*
D83*
%TO.N,/COMS.TX*%
X214490001Y-148500000D02*
X213500000Y-148500000D01*
X215490001Y-149500000D02*
X214490001Y-148500000D01*
D85*
%TO.N,/Power Regulation/VSW_FB*%
X199605001Y-147135000D02*
X200000000Y-146740001D01*
X201000000Y-146740001D02*
X200000000Y-146740001D01*
X197700000Y-147135000D02*
X199605001Y-147135000D01*
D83*
%TO.N,/Power Regulation/VSW_CEN*%
X189973800Y-146483799D02*
X190500000Y-147009999D01*
X189973800Y-145536199D02*
X189973800Y-146483799D01*
D85*
X190625001Y-147135000D02*
X190500000Y-147009999D01*
D83*
X190500000Y-145009999D02*
X189973800Y-145536199D01*
D85*
X192300000Y-147135000D02*
X190625001Y-147135000D01*
D83*
%TO.N,/Power Regulation/VSW_PGOOD*%
X191318800Y-145358800D02*
X191825000Y-145865000D01*
X191318800Y-143671201D02*
X191318800Y-145358800D01*
X191825000Y-145865000D02*
X192300000Y-145865000D01*
X191990001Y-143000000D02*
X191318800Y-143671201D01*
%TO.N,/digital/LED_GREEN*%
X227500000Y-164000000D02*
X228490001Y-164000000D01*
X222500000Y-159000000D02*
X227500000Y-164000000D01*
X222000000Y-159000000D02*
X222500000Y-159000000D01*
%TO.N,/digital/LED_RED*%
X221400000Y-159500000D02*
X222600626Y-159500000D01*
X222600626Y-159500000D02*
X228100626Y-165000000D01*
X228100626Y-165000000D02*
X228490001Y-165000000D01*
%TO.N,/digital/ShutdownInitiated*%
X228490001Y-163000000D02*
X226900000Y-163000000D01*
X226900000Y-163000000D02*
X221400000Y-157500000D01*
D82*
%TO.N,/hv_kicker/DL1S*%
X143250000Y-138162500D02*
X143250000Y-140087500D01*
%TO.N,/hv_kicker/DL2S*%
X276750000Y-138162500D02*
X276750000Y-140337500D01*
D83*
%TO.N,/hv_kicker/HVMS*%
X200912500Y-137000000D02*
X203087500Y-137000000D01*
D85*
%TO.N,/hv_kicker/solenoid_control/GATE_{kick}*%
X209250000Y-137240001D02*
X209250000Y-136009999D01*
X214615000Y-137050001D02*
X213574998Y-136009999D01*
X213574998Y-136009999D02*
X209250000Y-136009999D01*
X214615000Y-138025000D02*
X214615000Y-137050001D01*
%TO.N,/hv_kicker/solenoid_control/GATE_{chip}*%
X220000000Y-139990001D02*
X220000000Y-139500000D01*
X220000000Y-139500000D02*
X218990001Y-138490001D01*
X217155000Y-138025000D02*
X217180000Y-138000000D01*
X218990001Y-138490001D02*
X218990001Y-138000000D01*
X217180000Y-138000000D02*
X218990001Y-138000000D01*
D83*
%TO.N,/digital/CMD_{KICK}*%
X214615000Y-142000001D02*
X214408799Y-141793800D01*
X211946201Y-141793800D02*
X211750000Y-141990001D01*
X214615000Y-142975000D02*
X214615000Y-142000001D01*
X214408799Y-141793800D02*
X211946201Y-141793800D01*
D85*
%TO.N,/digital/CMD_{CHG}*%
X209000000Y-96000000D02*
X210990000Y-96000000D01*
X209550001Y-82000000D02*
X211600000Y-82000000D01*
X211600000Y-82000000D02*
X211700000Y-81900000D01*
%TO.N,/hv_kicker/flyback_charger/HVGATE*%
X211000000Y-83000000D02*
X211100000Y-83100000D01*
X209550001Y-83000000D02*
X211000000Y-83000000D01*
X210900001Y-92020000D02*
X210900001Y-92990000D01*
%TO.N,/hv_kicker/flyback_charger/HVFBS*%
X206500000Y-94422499D02*
X206500000Y-96087500D01*
%TO.N,/hv_kicker/flyback_charger/FB*%
X204100000Y-82000000D02*
X204000000Y-81900000D01*
X204912501Y-91010000D02*
X205422501Y-90500000D01*
X206500000Y-92597499D02*
X204912501Y-91010000D01*
X205422501Y-90500000D02*
X207500000Y-90500000D01*
X204912501Y-91010000D02*
X204000000Y-91010000D01*
X205250001Y-82000000D02*
X204100000Y-82000000D01*
%TO.N,Net-(U8-RT)*%
X205250001Y-83000000D02*
X203410001Y-83000000D01*
X203410001Y-83000000D02*
X203400001Y-82990000D01*
D83*
%TO.N,/Dribbler/DRIB_BOOT_UART.TX*%
X215435200Y-164300000D02*
X215435200Y-156386452D01*
X214345200Y-165390000D02*
X215435200Y-164300000D01*
X204300000Y-151700626D02*
X204300000Y-150500000D01*
X204579574Y-151980200D02*
X204300000Y-151700626D01*
X211028948Y-151980200D02*
X204579574Y-151980200D01*
X215435200Y-156386452D02*
X211028948Y-151980200D01*
X213000000Y-165390000D02*
X214345200Y-165390000D01*
%TO.N,/digital/USER_ADJ1*%
X221730200Y-149980200D02*
X221730200Y-151980200D01*
X224032400Y-154282400D02*
X246282400Y-154282400D01*
X246282400Y-154282400D02*
X255262742Y-163262742D01*
X221730200Y-151980200D02*
X224032400Y-154282400D01*
X220750000Y-149000000D02*
X221730200Y-149980200D01*
%TO.N,/digital/USER_ADJ2*%
X251399374Y-159000000D02*
X259525484Y-159000000D01*
X219000000Y-148500000D02*
X220929106Y-148500000D01*
X246399374Y-154000000D02*
X251399374Y-159000000D01*
X222012600Y-151863226D02*
X224149374Y-154000000D01*
X224149374Y-154000000D02*
X246399374Y-154000000D01*
X259525484Y-159000000D02*
X260262742Y-158262742D01*
X220929106Y-148500000D02*
X222012600Y-149583494D01*
X222012600Y-149583494D02*
X222012600Y-151863226D01*
%TO.N,Net-(J11-Pin_8)*%
X216509999Y-149500000D02*
X216509999Y-151210625D01*
X216509999Y-151210625D02*
X219400000Y-154100626D01*
X225282400Y-164481774D02*
X225282400Y-168383026D01*
X219400000Y-154100626D02*
X219400000Y-158599374D01*
X230249374Y-173350000D02*
X232900000Y-173350000D01*
X219400000Y-158599374D02*
X225282400Y-164481774D01*
X225282400Y-168383026D02*
X230249374Y-173350000D01*
%TO.N,/digital/FLASH_MOSI*%
X204805000Y-162105000D02*
X206475000Y-162105000D01*
X204519800Y-161819800D02*
X204805000Y-162105000D01*
X204519800Y-159580200D02*
X204519800Y-161819800D01*
X204600000Y-159500000D02*
X204519800Y-159580200D01*
%TO.N,/COMS.CTS*%
X220516974Y-162917600D02*
X221714470Y-162917600D01*
X214000000Y-150400000D02*
X214000000Y-150753130D01*
X232469800Y-174930200D02*
X232900000Y-174500000D01*
X221714470Y-162917600D02*
X224435200Y-165638330D01*
X214000000Y-150753130D02*
X218412000Y-155165130D01*
X224435200Y-168733948D02*
X230631452Y-174930200D01*
X218412000Y-160812626D02*
X220516974Y-162917600D01*
X224435200Y-165638330D02*
X224435200Y-168733948D01*
X218412000Y-155165130D02*
X218412000Y-160812626D01*
X230631452Y-174930200D02*
X232469800Y-174930200D01*
%TO.N,/COMS.RTS*%
X230550626Y-174450000D02*
X231900000Y-174450000D01*
X224717600Y-168616974D02*
X230550626Y-174450000D01*
X214800000Y-150600000D02*
X218835200Y-154635200D01*
X218835200Y-154635200D02*
X218835200Y-158833322D01*
X218835200Y-158833322D02*
X224717600Y-164715722D01*
X224717600Y-164715722D02*
X224717600Y-168616974D01*
%TO.N,/Dribbler/DRIB_BOOT_UART.RTS*%
X208500000Y-164900000D02*
X208500000Y-161100000D01*
X207500000Y-165390001D02*
X208009999Y-165390001D01*
X208009999Y-165390001D02*
X208100000Y-165300000D01*
X208100000Y-165300000D02*
X208500000Y-164900000D01*
%TO.N,Net-(U4-CKO)*%
X164767588Y-160767588D02*
X162732412Y-158732412D01*
%TO.N,Net-(U4-SDO)*%
X163636218Y-161898959D02*
X161601041Y-159863782D01*
%TO.N,/digital/FLASH_MISO*%
X203265000Y-159565000D02*
X203700000Y-160000000D01*
X201525000Y-159565000D02*
X203265000Y-159565000D01*
%TO.N,/digital/FLASH_NSS*%
X202695000Y-158295000D02*
X201525000Y-158295000D01*
X204180200Y-160519800D02*
X204180200Y-159780200D01*
X203700000Y-161000000D02*
X204180200Y-160519800D01*
X204180200Y-159780200D02*
X202695000Y-158295000D01*
D85*
%TO.N,Net-(C37-Pad1)*%
X206370001Y-78990000D02*
X206400001Y-79020000D01*
X205400001Y-78990000D02*
X206370001Y-78990000D01*
D82*
%TO.N,Net-(U8-INTVCC)*%
X213350001Y-82500000D02*
X213400001Y-82450000D01*
X209550001Y-82500000D02*
X213350001Y-82500000D01*
%TD*%
%TA.AperFunction,Conductor*%
%TO.N,/hv_kicker/flyback_charger/CSP*%
G36*
X211193039Y-84769685D02*
G01*
X211238794Y-84822489D01*
X211250000Y-84874000D01*
X211250000Y-88376000D01*
X211230315Y-88443039D01*
X211177511Y-88488794D01*
X211126000Y-88500000D01*
X209749999Y-88500000D01*
X209536319Y-88713681D01*
X209474996Y-88747166D01*
X209448638Y-88750000D01*
X209124000Y-88750000D01*
X209056961Y-88730315D01*
X209011206Y-88677511D01*
X209000000Y-88626000D01*
X209000000Y-84874000D01*
X209019685Y-84806961D01*
X209072489Y-84761206D01*
X209124000Y-84750000D01*
X211126000Y-84750000D01*
X211193039Y-84769685D01*
G37*
%TD.AperFunction*%
%TD*%
%TA.AperFunction,Conductor*%
%TO.N,/hv_kicker/flyback_charger/HV_AC*%
G36*
X195943039Y-97519685D02*
G01*
X195988794Y-97572489D01*
X196000000Y-97624000D01*
X196000000Y-100376000D01*
X195980315Y-100443039D01*
X195927511Y-100488794D01*
X195876000Y-100500000D01*
X191624000Y-100500000D01*
X191556961Y-100480315D01*
X191511206Y-100427511D01*
X191500000Y-100376000D01*
X191500000Y-97624000D01*
X191519685Y-97556961D01*
X191572489Y-97511206D01*
X191624000Y-97500000D01*
X195876000Y-97500000D01*
X195943039Y-97519685D01*
G37*
%TD.AperFunction*%
%TD*%
%TA.AperFunction,Conductor*%
%TO.N,GND*%
G36*
X205543039Y-84719685D02*
G01*
X205588794Y-84772489D01*
X205600000Y-84824000D01*
X205600000Y-88776000D01*
X205580315Y-88843039D01*
X205527511Y-88888794D01*
X205476000Y-88900000D01*
X200600000Y-88900000D01*
X200600000Y-84700000D01*
X201000000Y-84700000D01*
X205476000Y-84700000D01*
X205543039Y-84719685D01*
G37*
%TD.AperFunction*%
%TD*%
%TA.AperFunction,Conductor*%
%TO.N,GND*%
G36*
X200943039Y-81269685D02*
G01*
X200988794Y-81322489D01*
X201000000Y-81374000D01*
X201000000Y-84700000D01*
X200600000Y-84700000D01*
X200600000Y-88900000D01*
X201000000Y-88900000D01*
X201000000Y-94676000D01*
X200980315Y-94743039D01*
X200927511Y-94788794D01*
X200876000Y-94800000D01*
X196374000Y-94800000D01*
X196306961Y-94780315D01*
X196261206Y-94727511D01*
X196250000Y-94676000D01*
X196250000Y-81374000D01*
X196269685Y-81306961D01*
X196322489Y-81261206D01*
X196374000Y-81250000D01*
X200876000Y-81250000D01*
X200943039Y-81269685D01*
G37*
%TD.AperFunction*%
%TD*%
%TA.AperFunction,Conductor*%
%TO.N,GND*%
G36*
X186443039Y-152519684D02*
G01*
X186488794Y-152572488D01*
X186500000Y-152623999D01*
X186500000Y-155376000D01*
X186480315Y-155443039D01*
X186427511Y-155488794D01*
X186376000Y-155500000D01*
X180124000Y-155500000D01*
X180056961Y-155480315D01*
X180011206Y-155427511D01*
X180000000Y-155376000D01*
X180000000Y-152623999D01*
X180019685Y-152556960D01*
X180072489Y-152511205D01*
X180123999Y-152499999D01*
X186376003Y-152499999D01*
X186443039Y-152519684D01*
G37*
%TD.AperFunction*%
%TD*%
%TA.AperFunction,Conductor*%
%TO.N,+BATT*%
G36*
X192943039Y-81269685D02*
G01*
X192988794Y-81322489D01*
X193000000Y-81374000D01*
X193000000Y-89676000D01*
X192980315Y-89743039D01*
X192927511Y-89788794D01*
X192876000Y-89800000D01*
X188374000Y-89800000D01*
X188306961Y-89780315D01*
X188261206Y-89727511D01*
X188250000Y-89676000D01*
X188250000Y-81374000D01*
X188269685Y-81306961D01*
X188322489Y-81261206D01*
X188374000Y-81250000D01*
X192876000Y-81250000D01*
X192943039Y-81269685D01*
G37*
%TD.AperFunction*%
%TD*%
%TA.AperFunction,Conductor*%
%TO.N,/hv_kicker/flyback_charger/V_{trans}*%
G36*
X227515677Y-75019685D02*
G01*
X227536319Y-75036319D01*
X232213681Y-79713681D01*
X232247166Y-79775004D01*
X232250000Y-79801362D01*
X232250000Y-91876000D01*
X232230315Y-91943039D01*
X232177511Y-91988794D01*
X232126000Y-92000000D01*
X216124000Y-92000000D01*
X216056961Y-91980315D01*
X216011206Y-91927511D01*
X216000000Y-91876000D01*
X216000000Y-75124000D01*
X216019685Y-75056961D01*
X216072489Y-75011206D01*
X216124000Y-75000000D01*
X227448638Y-75000000D01*
X227515677Y-75019685D01*
G37*
%TD.AperFunction*%
%TD*%
%TA.AperFunction,Conductor*%
%TO.N,/hv_kicker/flyback_charger/V_{solenoid}*%
G36*
X246015677Y-115019685D02*
G01*
X246036319Y-115036319D01*
X258000000Y-127000000D01*
X273376000Y-127000000D01*
X273443039Y-127019685D01*
X273488794Y-127072489D01*
X273500000Y-127124000D01*
X273500000Y-137876000D01*
X273480315Y-137943039D01*
X273427511Y-137988794D01*
X273376000Y-138000000D01*
X245999999Y-138000000D01*
X241500000Y-142499999D01*
X241500000Y-144876000D01*
X241480315Y-144943039D01*
X241427511Y-144988794D01*
X241376000Y-145000000D01*
X240105220Y-145000000D01*
X240038181Y-144980315D01*
X239992426Y-144927511D01*
X239983603Y-144900191D01*
X239967818Y-144820841D01*
X239955121Y-144757004D01*
X239897491Y-144617873D01*
X239897490Y-144617872D01*
X239897487Y-144617866D01*
X239813826Y-144492660D01*
X239813823Y-144492656D01*
X239707343Y-144386176D01*
X239707339Y-144386173D01*
X239582133Y-144302512D01*
X239582124Y-144302507D01*
X239442996Y-144244879D01*
X239442988Y-144244877D01*
X239295301Y-144215500D01*
X239295297Y-144215500D01*
X239144703Y-144215500D01*
X239144698Y-144215500D01*
X238997011Y-144244877D01*
X238997003Y-144244879D01*
X238857875Y-144302507D01*
X238857866Y-144302512D01*
X238732660Y-144386173D01*
X238732656Y-144386176D01*
X238626176Y-144492656D01*
X238626173Y-144492660D01*
X238542512Y-144617866D01*
X238542507Y-144617875D01*
X238484879Y-144757003D01*
X238484877Y-144757011D01*
X238456397Y-144900191D01*
X238424012Y-144962102D01*
X238363297Y-144996676D01*
X238334780Y-145000000D01*
X233624000Y-145000000D01*
X233556961Y-144980315D01*
X233511206Y-144927511D01*
X233500000Y-144876000D01*
X233500000Y-137500000D01*
X229000000Y-133000000D01*
X223004575Y-133000000D01*
X222968581Y-132994661D01*
X222962535Y-132992827D01*
X222951031Y-132989337D01*
X222750000Y-132969538D01*
X222548968Y-132989337D01*
X222535434Y-132993442D01*
X222531418Y-132994661D01*
X222495425Y-133000000D01*
X208999999Y-133000000D01*
X208036319Y-133963681D01*
X207974996Y-133997166D01*
X207948638Y-134000000D01*
X176999999Y-134000000D01*
X173036319Y-137963681D01*
X172974996Y-137997166D01*
X172948638Y-138000000D01*
X146624000Y-138000000D01*
X146556961Y-137980315D01*
X146511206Y-137927511D01*
X146500000Y-137876000D01*
X146500000Y-127124000D01*
X146519685Y-127056961D01*
X146572489Y-127011206D01*
X146624000Y-127000000D01*
X162000000Y-127000000D01*
X173963681Y-115036319D01*
X174025004Y-115002834D01*
X174051362Y-115000000D01*
X245948638Y-115000000D01*
X246015677Y-115019685D01*
G37*
%TD.AperFunction*%
%TD*%
%TA.AperFunction,Conductor*%
%TO.N,GND*%
G36*
X238443039Y-174219685D02*
G01*
X238488794Y-174272489D01*
X238500000Y-174324000D01*
X238500000Y-174676000D01*
X238480315Y-174743039D01*
X238427511Y-174788794D01*
X238376000Y-174800000D01*
X238124000Y-174800000D01*
X238056961Y-174780315D01*
X238011206Y-174727511D01*
X238000000Y-174676000D01*
X238000000Y-174324000D01*
X238019685Y-174256961D01*
X238072489Y-174211206D01*
X238124000Y-174200000D01*
X238376000Y-174200000D01*
X238443039Y-174219685D01*
G37*
%TD.AperFunction*%
%TD*%
%TA.AperFunction,Conductor*%
%TO.N,GND*%
G36*
X238443039Y-175469685D02*
G01*
X238488794Y-175522489D01*
X238500000Y-175574000D01*
X238500000Y-175926000D01*
X238480315Y-175993039D01*
X238427511Y-176038794D01*
X238376000Y-176050000D01*
X238124000Y-176050000D01*
X238056961Y-176030315D01*
X238011206Y-175977511D01*
X238000000Y-175926000D01*
X238000000Y-175574000D01*
X238019685Y-175506961D01*
X238072489Y-175461206D01*
X238124000Y-175450000D01*
X238376000Y-175450000D01*
X238443039Y-175469685D01*
G37*
%TD.AperFunction*%
%TD*%
M02*
