M48
; DRILL file {KiCad 8.0.7} date 2025-04-13T15:12:29-0400
; FORMAT={-:-/ absolute / inch / decimal}
; #@! TF.CreationDate,2025-04-13T15:12:29-04:00
; #@! TF.GenerationSoftware,Kicad,Pcbnew,8.0.7
; #@! TF.FileFunction,Plated,1,6,PTH
FMAT,2
INCH
; #@! TA.AperFunction,Plated,PTH,ViaDrill
T1C0.0079
; #@! TA.AperFunction,Plated,PTH,ViaDrill
T2C0.0118
; #@! TA.AperFunction,Plated,PTH,ComponentDrill
T3C0.0236
; #@! TA.AperFunction,Plated,PTH,ComponentDrill
T4C0.0315
; #@! TA.AperFunction,Plated,PTH,ComponentDrill
T5C0.0394
; #@! TA.AperFunction,Plated,PTH,ComponentDrill
T6C0.0866
; #@! TA.AperFunction,Plated,PTH,ComponentDrill
T7C0.1063
; #@! TA.AperFunction,Plated,PTH,ComponentDrill
T8C0.1260
%
G90
G05
T1
X6.7717Y-2.7953
X6.7815Y-2.6935
X6.7913Y-2.7447
X6.8209Y-2.6935
T2
X3.1374Y-4.8701
X3.1374Y-4.9213
X3.1496Y-5.1181
X3.1496Y-5.1496
X3.1496Y-5.1811
X3.185Y-5.1181
X3.185Y-5.1501
X3.185Y-5.1816
X3.2106Y-4.7234
X3.2106Y-4.8711
X3.2106Y-4.9203
X3.2106Y-4.9695
X3.2205Y-5.1181
X3.2205Y-5.1496
X3.2205Y-5.1811
X3.2736Y-5.4508
X3.2736Y-5.5157
X3.2736Y-5.4841
X3.3327Y-5.4508
X3.3327Y-5.5157
X3.3327Y-5.4841
X3.3917Y-5.4841
X3.3937Y-5.5634
X3.4508Y-5.4841
X3.4528Y-5.5634
X3.5098Y-5.4841
X3.5689Y-5.3563
X3.5689Y-5.4841
X3.5709Y-5.5634
X3.628Y-5.3465
X3.628Y-5.4841
X3.628Y-5.315
X3.6299Y-5.5634
X3.687Y-5.4841
X3.689Y-5.4051
X3.7185Y-5.2756
X3.7185Y-5.2126
X3.7185Y-5.3386
X3.7461Y-5.4841
X3.7673Y-4.2441
X3.8051Y-5.4841
X3.8185Y-4.0354
X3.8423Y-3.2562
X3.8484Y-4.1841
X3.8484Y-4.2411
X3.8819Y-4.1841
X3.8819Y-4.2411
X3.884Y-3.2144
X3.8858Y-4.102
X3.8898Y-3.6496
X3.8898Y-3.7087
X3.8976Y-3.9774
X3.8976Y-4.0344
X3.9114Y-5.2126
X3.9114Y-5.3386
X3.9114Y-5.2756
X3.9258Y-3.1726
X3.9311Y-3.9774
X3.9311Y-4.0344
X3.937Y-3.8972
X3.9543Y-3.033
X3.9606Y-3.6496
X3.9606Y-3.7087
X3.9675Y-3.1309
X3.9724Y-4.0232
X3.9764Y-4.1053
X3.9764Y-4.1624
X3.9827Y-3.2307
X4.0093Y-3.0891
X4.0098Y-4.1053
X4.0098Y-4.1624
X4.0157Y-4.2445
X4.0315Y-3.7087
X4.0315Y-3.6496
X4.037Y-2.9504
X4.0511Y-3.0474
X4.0512Y-4.1185
X4.0551Y-3.9774
X4.0551Y-4.0344
X4.0803Y-2.9071
X4.0886Y-3.9774
X4.0886Y-4.0344
X4.0928Y-3.0056
X4.0984Y-4.3232
X4.1024Y-3.6496
X4.1024Y-3.7087
X4.1043Y-4.1841
X4.1043Y-4.2411
X4.1132Y-3.2141
X4.1346Y-2.9639
X4.1378Y-4.1841
X4.1378Y-4.2411
X4.1551Y-2.9
X4.1578Y-3.2586
X4.1697Y-3.9764
X4.1786Y-2.9235
X4.1949Y-4.1004
X4.1969Y-2.8583
X4.201Y-2.946
X4.2023Y-3.3031
X4.2169Y-4.1811
X4.2204Y-2.8818
X4.2428Y-2.9042
X4.2496Y-3.0776
X4.2942Y-3.1222
X4.2953Y-3.3307
X4.3307Y-2.685
X4.3307Y-3.0079
X4.4331Y-4.7657
X4.4646Y-3.2047
X4.4646Y-3.2362
X4.4646Y-3.2677
X4.5Y-3.2042
X4.5Y-3.2357
X4.5Y-3.2677
X4.5354Y-2.8394
X4.5354Y-3.2047
X4.5354Y-3.2362
X4.5354Y-3.2677
X4.5669Y-3.3071
X4.5827Y-2.8394
X4.6071Y-2.9213
X4.6457Y-3.3465
X4.6929Y-2.8819
X4.6929Y-5.0827
X4.6988Y-4.689
X4.7244Y-3.4646
X4.7441Y-4.9833
X4.7638Y-3.4646
X4.7835Y-4.9833
X4.8228Y-3.622
X4.8228Y-3.6614
X4.8228Y-5.0594
X4.8228Y-4.9833
X4.8622Y-4.9833
X4.8622Y-5.0594
X4.8776Y-2.685
X4.8776Y-3.0079
X4.8917Y-4.689
X4.8917Y-4.752
X4.8917Y-4.815
X4.9016Y-4.9091
X4.9016Y-4.9833
X4.9291Y-3.1299
X4.939Y-3.3031
X4.9409Y-4.9833
X4.9409Y-5.0594
X4.9744Y-3.3031
X4.9803Y-4.9833
X4.9803Y-5.0594
X4.9862Y-3.4547
X4.9882Y-2.9807
X5.0098Y-3.374
X5.0197Y-4.9833
X5.0197Y-4.9091
X5.0394Y-3.1102
X5.0394Y-3.1496
X5.0453Y-3.374
X5.0669Y-2.5941
X5.0984Y-4.9833
X5.1142Y-2.5941
X5.1146Y-3.1102
X5.1146Y-3.1496
X5.1496Y-5.0827
X5.1614Y-2.5941
X5.2087Y-2.5941
X5.2372Y-5.065
X5.25Y-4.689
X5.25Y-4.752
X5.25Y-4.815
X5.2539Y-4.0571
X5.31Y-4.939
X5.3157Y-3.811
X5.3346Y-2.9807
X5.3535Y-3.811
X5.3551Y-3.8504
X5.3551Y-4.0591
X5.3593Y-4.939
X5.3669Y-3.5096
X5.3917Y-4.0591
X5.3933Y-3.8508
X5.4085Y-4.939
X5.4193Y-3.5441
X5.4193Y-3.5819
X5.435Y-3.6535
X5.4429Y-4.689
X5.4577Y-4.939
X5.4833Y-4.4724
X5.4961Y-3.15
X5.4965Y-2.626
X5.4965Y-2.9646
X5.498Y-2.8913
X5.5039Y-5.0122
X5.5069Y-4.939
X5.5173Y-4.4193
X5.5315Y-3.5945
X5.5315Y-3.8504
X5.5315Y-4.0669
X5.5453Y-4.1772
X5.5531Y-4.689
X5.5551Y-4.4193
X5.5551Y-5.0122
X5.5561Y-4.939
X5.561Y-3.4528
X5.5748Y-4.0709
X5.5787Y-3.7854
X5.5827Y-3.6929
X5.5945Y-3.15
X5.5965Y-2.626
X5.5965Y-2.8913
X5.5965Y-2.9646
X5.6004Y-4.5669
X5.6004Y-4.6063
X5.6024Y-4.8657
X5.6053Y-4.939
X5.6063Y-4.0709
X5.6102Y-3.7835
X5.6181Y-3.6929
X5.6358Y-3.9587
X5.6437Y-3.7835
X5.6535Y-5.0122
X5.6545Y-4.939
X5.6594Y-3.4606
X5.6791Y-3.435
X5.687Y-3.8287
X5.6965Y-2.626
X5.6965Y-2.9646
X5.6969Y-2.8913
X5.6969Y-3.15
X5.7008Y-5.0122
X5.7037Y-4.939
X5.7185Y-3.8287
X5.7382Y-3.7854
X5.7461Y-4.689
X5.752Y-3.8602
X5.753Y-4.939
X5.7579Y-4.4173
X5.7579Y-4.4551
X5.7677Y-4.3031
X5.7697Y-3.7854
X5.7874Y-3.5591
X5.7965Y-2.626
X5.7965Y-2.9646
X5.7972Y-2.8913
X5.7972Y-3.15
X5.7972Y-3.3984
X5.7972Y-3.437
X5.7972Y-3.8287
X5.7972Y-4.0984
X5.811Y-4.7087
X5.8169Y-4.065
X5.8258Y-5.065
X5.8327Y-3.7854
X5.8366Y-4.0984
X5.8957Y-3.15
X5.8957Y-4.0984
X5.8957Y-4.7665
X5.8957Y-4.8043
X5.8965Y-2.626
X5.8965Y-2.9646
X5.8976Y-2.8913
X5.9104Y-5.065
X5.9154Y-3.3819
X5.9154Y-4.065
X5.935Y-4.0984
X5.935Y-4.7665
X5.935Y-4.8043
X5.9547Y-4.4173
X5.9547Y-4.4551
X5.9606Y-4.3031
X5.9665Y-4.061
X5.9843Y-3.3976
X5.9843Y-3.4362
X5.9843Y-3.5591
X5.9852Y-4.9409
X5.9882Y-4.685
X5.9921Y-3.3465
X5.9961Y-3.15
X5.9965Y-2.626
X5.9965Y-2.9646
X5.998Y-2.8913
X5.998Y-4.061
X6.0295Y-3.9469
X6.0335Y-4.128
X6.0335Y-4.3051
X6.0344Y-4.9409
X6.0354Y-3.3189
X6.0433Y-4.0965
X6.0531Y-4.2795
X6.0571Y-4.065
X6.061Y-3.9469
X6.0728Y-3.5965
X6.0728Y-4.3051
X6.0748Y-4.0925
X6.0837Y-4.9409
X6.0925Y-3.5709
X6.0925Y-4.2795
X6.0965Y-2.626
X6.0965Y-2.8913
X6.0965Y-2.9646
X6.0965Y-3.15
X6.1122Y-4.4587
X6.1319Y-4.3091
X6.1329Y-4.9409
X6.1476Y-3.9272
X6.1516Y-3.5866
X6.1516Y-4.2421
X6.1713Y-3.561
X6.1713Y-4.3071
X6.1772Y-4.0965
X6.1791Y-3.9272
X6.1811Y-5.0083
X6.1821Y-4.9409
X6.1909Y-4.2815
X6.1965Y-2.626
X6.1965Y-2.9646
X6.1969Y-2.8913
X6.1969Y-3.15
X6.2008Y-4.0748
X6.2028Y-3.7638
X6.2106Y-4.4173
X6.2106Y-4.4551
X6.2146Y-4.5709
X6.2205Y-4.3031
X6.2244Y-4.0531
X6.2283Y-3.783
X6.2303Y-5.0083
X6.2313Y-4.9409
X6.248Y-4.0315
X6.248Y-4.5709
X6.2539Y-3.8031
X6.2598Y-3.2421
X6.2795Y-3.6654
X6.2795Y-3.7047
X6.2795Y-3.8223
X6.2795Y-3.8898
X6.2795Y-4.189
X6.2795Y-4.5394
X6.2795Y-4.5709
X6.2805Y-4.9409
X6.2894Y-3.4654
X6.2894Y-3.5031
X6.2933Y-4.689
X6.3287Y-5.0083
X6.3297Y-4.9409
X6.3326Y-4.3366
X6.3327Y-4.378
X6.3327Y-4.4949
X6.3563Y-3.2008
X6.3701Y-3.9213
X6.3701Y-3.9606
X6.378Y-3.1772
X6.378Y-5.0083
X6.3789Y-4.9409
X6.3957Y-3.9803
X6.3976Y-3.939
X6.3996Y-4.0709
X6.4043Y-4.1142
X6.4069Y-3.9012
X6.4075Y-3.685
X6.4281Y-4.9409
X6.4413Y-4.1555
X6.4413Y-4.1969
X6.4421Y-4.1142
X6.4421Y-4.2382
X6.4421Y-4.2776
X6.4441Y-3.9016
X6.4453Y-3.685
X6.4744Y-3.2008
X6.4862Y-4.689
X6.4921Y-2.5504
X6.4921Y-2.6201
X6.4921Y-2.9705
X6.4961Y-3.1772
X6.498Y-4.3795
X6.498Y-4.4965
X6.499Y-5.065
X6.5Y-3.9626
X6.5394Y-4.4197
X6.5461Y-3.8976
X6.5575Y-4.1142
X6.5669Y-4.0492
X6.5827Y-3.7217
X6.5827Y-3.7705
X6.6102Y-3.3209
X6.6142Y-3.0728
X6.6142Y-3.1102
X6.626Y-4.0709
X6.6575Y-4.9409
X6.6575Y-5.0161
X6.6732Y-2.8346
X6.687Y-4.0728
X6.689Y-2.6935
X6.7067Y-4.9409
X6.7224Y-4.689
X6.7323Y-2.7723
X6.7933Y-4.0394
X6.8228Y-4.0256
X6.8268Y-4.3533
X6.8543Y-4.9409
X6.8563Y-3.6654
X6.8878Y-2.8012
X6.9098Y-2.8346
X6.9154Y-4.689
X6.9331Y-2.6935
X6.9783Y-4.2638
X7.0315Y-4.2748
X7.0551Y-4.5984
X7.0551Y-4.6299
X7.0571Y-3.0256
X7.0866Y-4.5984
X7.0866Y-4.6299
X7.1024Y-4.9409
X7.1024Y-4.9724
X7.1181Y-4.5984
X7.1181Y-4.6299
X7.1319Y-2.9646
X7.1339Y-2.8676
X7.1339Y-4.9409
X7.1339Y-4.9724
X7.1545Y-4.2362
X7.1654Y-4.9409
X7.1654Y-4.9724
X7.1811Y-4.5984
X7.1811Y-4.6299
X7.1811Y-4.8465
X7.1811Y-4.878
X7.2126Y-4.5984
X7.2126Y-4.6299
X7.2126Y-4.8465
X7.2126Y-4.878
X7.2319Y-2.626
X7.2319Y-2.9646
X7.2323Y-2.785
X7.2421Y-3.6457
X7.2441Y-4.5984
X7.2441Y-4.6299
X7.2441Y-4.8465
X7.2441Y-4.878
X7.2598Y-4.6732
X7.2598Y-4.7047
X7.2598Y-4.7362
X7.2598Y-4.7677
X7.2598Y-4.7992
X7.2913Y-4.6732
X7.2913Y-4.7047
X7.2913Y-4.7362
X7.2913Y-4.7677
X7.2913Y-4.7992
X7.31Y-3.3898
X7.31Y-3.4685
X7.31Y-3.5079
X7.31Y-3.5472
X7.31Y-3.6654
X7.31Y-3.7835
X7.3228Y-4.6732
X7.3228Y-4.7047
X7.3228Y-4.7362
X7.3228Y-4.7677
X7.3228Y-4.7992
X7.3543Y-4.6732
X7.3543Y-4.7047
X7.3543Y-4.7362
X7.3543Y-4.7677
X7.3543Y-4.7992
X7.3642Y-4.6063
X7.3941Y-4.1102
X7.4094Y-3.3386
X7.4094Y-3.8346
X7.4138Y-3.4685
X7.4138Y-3.5079
X7.4719Y-3.1555
X7.5Y-3.3996
X7.509Y-2.7954
X7.5508Y-2.8372
X7.5925Y-2.8789
X7.6083Y-3.2919
X7.6343Y-2.9207
X7.6529Y-3.2473
X7.6614Y-3.4672
X7.6761Y-2.9624
X7.6837Y-3.4449
X7.6865Y-3.4922
X7.6953Y-2.8618
X7.6974Y-3.2028
X7.706Y-3.4226
X7.7091Y-3.4696
X7.7115Y-3.5173
X7.7178Y-3.0042
X7.7314Y-3.4473
X7.7338Y-3.495
X7.7362Y-2.9035
X7.7382Y-4.689
X7.7561Y-3.4727
X7.7596Y-3.046
X7.7878Y-3.7992
X7.7878Y-4.1142
X7.7898Y-4.4291
X7.8013Y-3.0877
X7.8189Y-3.1535
X7.8193Y-2.9878
X7.8424Y-3.13
X7.8602Y-3.0276
X7.8607Y-3.1953
X7.8648Y-3.1076
X7.8842Y-3.1718
X7.9066Y-3.1494
X7.9311Y-4.689
X8.0Y-5.1181
X8.0Y-5.1496
X8.0Y-5.1811
X8.0354Y-5.1181
X8.0354Y-5.1501
X8.0354Y-5.1816
X8.0709Y-5.1181
X8.0709Y-5.1496
X8.0709Y-5.1811
X8.0728Y-4.689
X8.124Y-5.4508
X8.124Y-5.5177
X8.124Y-5.4841
X8.1815Y-3.7953
X8.1831Y-5.4508
X8.1831Y-5.5177
X8.1831Y-5.4841
X8.1835Y-4.1161
X8.2402Y-5.5634
X8.2421Y-5.1299
X8.2421Y-5.4841
X8.2579Y-4.3406
X8.2657Y-4.689
X8.287Y-3.2802
X8.2874Y-4.311
X8.2992Y-5.5634
X8.3012Y-5.1614
X8.3012Y-5.4841
X8.3578Y-3.3509
X8.3583Y-5.4051
X8.3602Y-5.4841
X8.3931Y-3.3863
X8.4173Y-5.5634
X8.4193Y-5.4841
X8.4285Y-3.4216
X8.4722Y-3.5045
X8.4764Y-5.5634
X8.4783Y-5.4841
X8.5236Y-4.9567
X8.5354Y-5.4051
X8.5374Y-5.4841
X8.5557Y-3.421
X8.5965Y-5.4841
X8.602Y-4.8189
X8.6201Y-5.0886
X8.6421Y-4.8602
X8.6555Y-5.4841
X8.6726Y-3.705
X8.7618Y-5.2126
X8.7692Y-5.126
X8.7697Y-5.0886
T4
X4.9878Y-2.6756
X4.9878Y-2.7756
X4.9878Y-2.8756
X5.2878Y-2.6756
X5.2878Y-2.7756
X5.2878Y-2.8756
T5
X3.7963Y-4.9502
X3.7963Y-5.0502
X3.8963Y-4.9502
X3.8963Y-5.0502
X3.9963Y-4.9502
X3.9963Y-5.0502
X4.0963Y-4.9502
X4.0963Y-5.0502
X4.1963Y-4.9502
X4.1963Y-5.0502
X7.3122Y-4.0453
X7.3122Y-4.2224
X7.5681Y-4.0453
X7.5681Y-4.2224
X7.7067Y-3.7303
X7.7067Y-3.9075
X7.7067Y-4.0453
X7.7067Y-4.2224
X7.7067Y-4.3602
X7.7067Y-4.5374
X7.9626Y-3.7303
X7.9626Y-3.9075
X7.9626Y-4.0453
X7.9626Y-4.2224
X7.9626Y-4.3602
X7.9626Y-4.5374
X8.1004Y-3.7303
X8.1004Y-3.9075
X8.1004Y-4.0453
X8.1004Y-4.2224
X8.3563Y-3.7303
X8.3563Y-3.9075
X8.3563Y-4.0453
X8.3563Y-4.2224
T6
X3.4449Y-3.5236
X3.4449Y-5.0984
X4.5472Y-3.5236
X4.5472Y-5.0984
T7
X7.7205Y-5.5
X7.7205Y-5.6969
T8
X3.189Y-4.1339
X4.8622Y-3.8583
X7.0276Y-3.8583
X8.622Y-4.1339
T3
G00X6.6409Y-2.547
M15
G01X6.6409Y-2.488
M16
G05
G00X6.6409Y-2.7482
M15
G01X6.6409Y-2.7089
M16
G05
G00X6.9811Y-2.547
M15
G01X6.9811Y-2.488
M16
G05
G00X6.9811Y-2.7482
M15
G01X6.9811Y-2.7089
M16
G05
M30
