%TF.GenerationSoftware,KiCad,Pcbnew,8.0.7*%
%TF.CreationDate,2025-04-13T15:12:29-04:00*%
%TF.ProjectId,control,636f6e74-726f-46c2-9e6b-696361645f70,rev?*%
%TF.SameCoordinates,Original*%
%TF.FileFunction,Soldermask,Bot*%
%TF.FilePolarity,Negative*%
%FSLAX46Y46*%
G04 Gerber Fmt 4.6, Leading zero omitted, Abs format (unit mm)*
G04 Created by KiCad (PCBNEW 8.0.7) date 2025-04-13 15:12:29*
%MOMM*%
%LPD*%
G01*
G04 APERTURE LIST*
G04 Aperture macros list*
%AMRoundRect*
0 Rectangle with rounded corners*
0 $1 Rounding radius*
0 $2 $3 $4 $5 $6 $7 $8 $9 X,Y pos of 4 corners*
0 Add a 4 corners polygon primitive as box body*
4,1,4,$2,$3,$4,$5,$6,$7,$8,$9,$2,$3,0*
0 Add four circle primitives for the rounded corners*
1,1,$1+$1,$2,$3*
1,1,$1+$1,$4,$5*
1,1,$1+$1,$6,$7*
1,1,$1+$1,$8,$9*
0 Add four rect primitives between the rounded corners*
20,1,$1+$1,$2,$3,$4,$5,0*
20,1,$1+$1,$4,$5,$6,$7,0*
20,1,$1+$1,$6,$7,$8,$9,0*
20,1,$1+$1,$8,$9,$2,$3,0*%
%AMFreePoly0*
4,1,6,1.037000,0.000000,0.437000,-0.600000,-0.150000,-0.600000,-0.150000,0.600000,0.437000,0.600000,1.037000,0.000000,1.037000,0.000000,$1*%
%AMFreePoly1*
4,1,6,0.150000,-0.600000,-1.037000,-0.600000,-0.437000,0.000000,-1.037000,0.600000,0.150000,0.600000,0.150000,-0.600000,0.150000,-0.600000,$1*%
G04 Aperture macros list end*
%ADD10C,0.150000*%
%ADD11C,0.160000*%
%ADD12R,1.600000X1.600000*%
%ADD13C,1.600000*%
%ADD14C,3.600000*%
%ADD15C,6.400000*%
%ADD16O,1.100000X2.100000*%
%ADD17O,1.100000X2.600000*%
%ADD18C,3.800000*%
%ADD19R,1.700000X1.700000*%
%ADD20O,1.700000X1.700000*%
%ADD21RoundRect,0.140000X-0.170000X0.140000X-0.170000X-0.140000X0.170000X-0.140000X0.170000X0.140000X0*%
%ADD22RoundRect,0.135000X-0.135000X-0.185000X0.135000X-0.185000X0.135000X0.185000X-0.135000X0.185000X0*%
%ADD23RoundRect,0.135000X0.185000X-0.135000X0.185000X0.135000X-0.185000X0.135000X-0.185000X-0.135000X0*%
%ADD24RoundRect,0.135000X-0.185000X0.135000X-0.185000X-0.135000X0.185000X-0.135000X0.185000X0.135000X0*%
%ADD25RoundRect,0.140000X0.170000X-0.140000X0.170000X0.140000X-0.170000X0.140000X-0.170000X-0.140000X0*%
%ADD26RoundRect,0.237500X-0.237500X0.287500X-0.237500X-0.287500X0.237500X-0.287500X0.237500X0.287500X0*%
%ADD27RoundRect,0.150000X0.587500X0.150000X-0.587500X0.150000X-0.587500X-0.150000X0.587500X-0.150000X0*%
%ADD28RoundRect,0.150000X0.150000X-0.587500X0.150000X0.587500X-0.150000X0.587500X-0.150000X-0.587500X0*%
%ADD29RoundRect,0.140000X-0.140000X-0.170000X0.140000X-0.170000X0.140000X0.170000X-0.140000X0.170000X0*%
%ADD30RoundRect,0.135000X0.135000X0.185000X-0.135000X0.185000X-0.135000X-0.185000X0.135000X-0.185000X0*%
%ADD31RoundRect,0.135000X0.035355X-0.226274X0.226274X-0.035355X-0.035355X0.226274X-0.226274X0.035355X0*%
%ADD32FreePoly0,180.000000*%
%ADD33FreePoly1,180.000000*%
%ADD34RoundRect,0.225000X0.250000X-0.225000X0.250000X0.225000X-0.250000X0.225000X-0.250000X-0.225000X0*%
%ADD35RoundRect,0.237500X0.287500X0.237500X-0.287500X0.237500X-0.287500X-0.237500X0.287500X-0.237500X0*%
%ADD36RoundRect,0.200000X0.200000X0.275000X-0.200000X0.275000X-0.200000X-0.275000X0.200000X-0.275000X0*%
%ADD37RoundRect,0.135000X0.226274X0.035355X0.035355X0.226274X-0.226274X-0.035355X-0.035355X-0.226274X0*%
%ADD38RoundRect,0.140000X0.140000X0.170000X-0.140000X0.170000X-0.140000X-0.170000X0.140000X-0.170000X0*%
%ADD39R,1.200000X1.400000*%
%ADD40RoundRect,0.140000X-0.021213X0.219203X-0.219203X0.021213X0.021213X-0.219203X0.219203X-0.021213X0*%
%ADD41RoundRect,0.050000X0.400000X0.600000X-0.400000X0.600000X-0.400000X-0.600000X0.400000X-0.600000X0*%
%ADD42RoundRect,0.050000X0.750000X1.000000X-0.750000X1.000000X-0.750000X-1.000000X0.750000X-1.000000X0*%
%ADD43RoundRect,0.135000X-0.035355X0.226274X-0.226274X0.035355X0.035355X-0.226274X0.226274X-0.035355X0*%
%ADD44RoundRect,0.250000X0.250000X0.475000X-0.250000X0.475000X-0.250000X-0.475000X0.250000X-0.475000X0*%
%ADD45RoundRect,0.250000X-0.450000X-0.800000X0.450000X-0.800000X0.450000X0.800000X-0.450000X0.800000X0*%
%ADD46RoundRect,0.135000X-0.226274X-0.035355X-0.035355X-0.226274X0.226274X0.035355X0.035355X0.226274X0*%
%ADD47RoundRect,0.075000X0.662500X0.075000X-0.662500X0.075000X-0.662500X-0.075000X0.662500X-0.075000X0*%
%ADD48RoundRect,0.075000X0.075000X0.662500X-0.075000X0.662500X-0.075000X-0.662500X0.075000X-0.662500X0*%
%ADD49RoundRect,0.100000X0.225000X0.100000X-0.225000X0.100000X-0.225000X-0.100000X0.225000X-0.100000X0*%
%ADD50R,1.800000X1.000000*%
%ADD51R,2.300000X2.500000*%
%ADD52RoundRect,0.150000X-0.150000X0.587500X-0.150000X-0.587500X0.150000X-0.587500X0.150000X0.587500X0*%
%ADD53RoundRect,0.760000X-1.140000X1.140000X-1.140000X-1.140000X1.140000X-1.140000X1.140000X1.140000X0*%
%ADD54RoundRect,0.250000X-0.650000X0.325000X-0.650000X-0.325000X0.650000X-0.325000X0.650000X0.325000X0*%
%ADD55RoundRect,0.225000X0.225000X0.250000X-0.225000X0.250000X-0.225000X-0.250000X0.225000X-0.250000X0*%
G04 APERTURE END LIST*
D10*
X121057704Y-76879636D02*
X121857704Y-76879636D01*
X121857704Y-76879636D02*
X121857704Y-76689160D01*
X121857704Y-76689160D02*
X121819609Y-76574874D01*
X121819609Y-76574874D02*
X121743419Y-76498684D01*
X121743419Y-76498684D02*
X121667228Y-76460589D01*
X121667228Y-76460589D02*
X121514847Y-76422493D01*
X121514847Y-76422493D02*
X121400561Y-76422493D01*
X121400561Y-76422493D02*
X121248180Y-76460589D01*
X121248180Y-76460589D02*
X121171990Y-76498684D01*
X121171990Y-76498684D02*
X121095800Y-76574874D01*
X121095800Y-76574874D02*
X121057704Y-76689160D01*
X121057704Y-76689160D02*
X121057704Y-76879636D01*
X121057704Y-75660589D02*
X121057704Y-76117732D01*
X121057704Y-75889160D02*
X121857704Y-75889160D01*
X121857704Y-75889160D02*
X121743419Y-75965351D01*
X121743419Y-75965351D02*
X121667228Y-76041541D01*
X121667228Y-76041541D02*
X121629133Y-76117732D01*
X113357704Y-76879636D02*
X114157704Y-76879636D01*
X114157704Y-76879636D02*
X114157704Y-76689160D01*
X114157704Y-76689160D02*
X114119609Y-76574874D01*
X114119609Y-76574874D02*
X114043419Y-76498684D01*
X114043419Y-76498684D02*
X113967228Y-76460589D01*
X113967228Y-76460589D02*
X113814847Y-76422493D01*
X113814847Y-76422493D02*
X113700561Y-76422493D01*
X113700561Y-76422493D02*
X113548180Y-76460589D01*
X113548180Y-76460589D02*
X113471990Y-76498684D01*
X113471990Y-76498684D02*
X113395800Y-76574874D01*
X113395800Y-76574874D02*
X113357704Y-76689160D01*
X113357704Y-76689160D02*
X113357704Y-76879636D01*
X114081514Y-76117732D02*
X114119609Y-76079636D01*
X114119609Y-76079636D02*
X114157704Y-76003446D01*
X114157704Y-76003446D02*
X114157704Y-75812970D01*
X114157704Y-75812970D02*
X114119609Y-75736779D01*
X114119609Y-75736779D02*
X114081514Y-75698684D01*
X114081514Y-75698684D02*
X114005323Y-75660589D01*
X114005323Y-75660589D02*
X113929133Y-75660589D01*
X113929133Y-75660589D02*
X113814847Y-75698684D01*
X113814847Y-75698684D02*
X113357704Y-76155827D01*
X113357704Y-76155827D02*
X113357704Y-75660589D01*
X119957704Y-76879636D02*
X120757704Y-76879636D01*
X120757704Y-76879636D02*
X120757704Y-76689160D01*
X120757704Y-76689160D02*
X120719609Y-76574874D01*
X120719609Y-76574874D02*
X120643419Y-76498684D01*
X120643419Y-76498684D02*
X120567228Y-76460589D01*
X120567228Y-76460589D02*
X120414847Y-76422493D01*
X120414847Y-76422493D02*
X120300561Y-76422493D01*
X120300561Y-76422493D02*
X120148180Y-76460589D01*
X120148180Y-76460589D02*
X120071990Y-76498684D01*
X120071990Y-76498684D02*
X119995800Y-76574874D01*
X119995800Y-76574874D02*
X119957704Y-76689160D01*
X119957704Y-76689160D02*
X119957704Y-76879636D01*
X120757704Y-75927255D02*
X120757704Y-75851065D01*
X120757704Y-75851065D02*
X120719609Y-75774874D01*
X120719609Y-75774874D02*
X120681514Y-75736779D01*
X120681514Y-75736779D02*
X120605323Y-75698684D01*
X120605323Y-75698684D02*
X120452942Y-75660589D01*
X120452942Y-75660589D02*
X120262466Y-75660589D01*
X120262466Y-75660589D02*
X120110085Y-75698684D01*
X120110085Y-75698684D02*
X120033895Y-75736779D01*
X120033895Y-75736779D02*
X119995800Y-75774874D01*
X119995800Y-75774874D02*
X119957704Y-75851065D01*
X119957704Y-75851065D02*
X119957704Y-75927255D01*
X119957704Y-75927255D02*
X119995800Y-76003446D01*
X119995800Y-76003446D02*
X120033895Y-76041541D01*
X120033895Y-76041541D02*
X120110085Y-76079636D01*
X120110085Y-76079636D02*
X120262466Y-76117732D01*
X120262466Y-76117732D02*
X120452942Y-76117732D01*
X120452942Y-76117732D02*
X120605323Y-76079636D01*
X120605323Y-76079636D02*
X120681514Y-76041541D01*
X120681514Y-76041541D02*
X120719609Y-76003446D01*
X120719609Y-76003446D02*
X120757704Y-75927255D01*
X115633895Y-77374874D02*
X115595800Y-77412970D01*
X115595800Y-77412970D02*
X115557704Y-77527255D01*
X115557704Y-77527255D02*
X115557704Y-77603446D01*
X115557704Y-77603446D02*
X115595800Y-77717732D01*
X115595800Y-77717732D02*
X115671990Y-77793922D01*
X115671990Y-77793922D02*
X115748180Y-77832017D01*
X115748180Y-77832017D02*
X115900561Y-77870113D01*
X115900561Y-77870113D02*
X116014847Y-77870113D01*
X116014847Y-77870113D02*
X116167228Y-77832017D01*
X116167228Y-77832017D02*
X116243419Y-77793922D01*
X116243419Y-77793922D02*
X116319609Y-77717732D01*
X116319609Y-77717732D02*
X116357704Y-77603446D01*
X116357704Y-77603446D02*
X116357704Y-77527255D01*
X116357704Y-77527255D02*
X116319609Y-77412970D01*
X116319609Y-77412970D02*
X116281514Y-77374874D01*
X115557704Y-77032017D02*
X116357704Y-77032017D01*
X116357704Y-77032017D02*
X115786276Y-76765351D01*
X115786276Y-76765351D02*
X116357704Y-76498684D01*
X116357704Y-76498684D02*
X115557704Y-76498684D01*
X115557704Y-76117731D02*
X116357704Y-76117731D01*
X116357704Y-76117731D02*
X116357704Y-75927255D01*
X116357704Y-75927255D02*
X116319609Y-75812969D01*
X116319609Y-75812969D02*
X116243419Y-75736779D01*
X116243419Y-75736779D02*
X116167228Y-75698684D01*
X116167228Y-75698684D02*
X116014847Y-75660588D01*
X116014847Y-75660588D02*
X115900561Y-75660588D01*
X115900561Y-75660588D02*
X115748180Y-75698684D01*
X115748180Y-75698684D02*
X115671990Y-75736779D01*
X115671990Y-75736779D02*
X115595800Y-75812969D01*
X115595800Y-75812969D02*
X115557704Y-75927255D01*
X115557704Y-75927255D02*
X115557704Y-76117731D01*
X114457704Y-76879636D02*
X115257704Y-76879636D01*
X115257704Y-76879636D02*
X115257704Y-76689160D01*
X115257704Y-76689160D02*
X115219609Y-76574874D01*
X115219609Y-76574874D02*
X115143419Y-76498684D01*
X115143419Y-76498684D02*
X115067228Y-76460589D01*
X115067228Y-76460589D02*
X114914847Y-76422493D01*
X114914847Y-76422493D02*
X114800561Y-76422493D01*
X114800561Y-76422493D02*
X114648180Y-76460589D01*
X114648180Y-76460589D02*
X114571990Y-76498684D01*
X114571990Y-76498684D02*
X114495800Y-76574874D01*
X114495800Y-76574874D02*
X114457704Y-76689160D01*
X114457704Y-76689160D02*
X114457704Y-76879636D01*
X115257704Y-76155827D02*
X115257704Y-75660589D01*
X115257704Y-75660589D02*
X114952942Y-75927255D01*
X114952942Y-75927255D02*
X114952942Y-75812970D01*
X114952942Y-75812970D02*
X114914847Y-75736779D01*
X114914847Y-75736779D02*
X114876752Y-75698684D01*
X114876752Y-75698684D02*
X114800561Y-75660589D01*
X114800561Y-75660589D02*
X114610085Y-75660589D01*
X114610085Y-75660589D02*
X114533895Y-75698684D01*
X114533895Y-75698684D02*
X114495800Y-75736779D01*
X114495800Y-75736779D02*
X114457704Y-75812970D01*
X114457704Y-75812970D02*
X114457704Y-76041541D01*
X114457704Y-76041541D02*
X114495800Y-76117732D01*
X114495800Y-76117732D02*
X114533895Y-76155827D01*
X117457704Y-77717731D02*
X116657704Y-77451064D01*
X116657704Y-77451064D02*
X117457704Y-77184398D01*
X116657704Y-76917731D02*
X117457704Y-76917731D01*
X117457704Y-76917731D02*
X117457704Y-76727255D01*
X117457704Y-76727255D02*
X117419609Y-76612969D01*
X117419609Y-76612969D02*
X117343419Y-76536779D01*
X117343419Y-76536779D02*
X117267228Y-76498684D01*
X117267228Y-76498684D02*
X117114847Y-76460588D01*
X117114847Y-76460588D02*
X117000561Y-76460588D01*
X117000561Y-76460588D02*
X116848180Y-76498684D01*
X116848180Y-76498684D02*
X116771990Y-76536779D01*
X116771990Y-76536779D02*
X116695800Y-76612969D01*
X116695800Y-76612969D02*
X116657704Y-76727255D01*
X116657704Y-76727255D02*
X116657704Y-76917731D01*
X116657704Y-76117731D02*
X117457704Y-76117731D01*
X117457704Y-76117731D02*
X117457704Y-75927255D01*
X117457704Y-75927255D02*
X117419609Y-75812969D01*
X117419609Y-75812969D02*
X117343419Y-75736779D01*
X117343419Y-75736779D02*
X117267228Y-75698684D01*
X117267228Y-75698684D02*
X117114847Y-75660588D01*
X117114847Y-75660588D02*
X117000561Y-75660588D01*
X117000561Y-75660588D02*
X116848180Y-75698684D01*
X116848180Y-75698684D02*
X116771990Y-75736779D01*
X116771990Y-75736779D02*
X116695800Y-75812969D01*
X116695800Y-75812969D02*
X116657704Y-75927255D01*
X116657704Y-75927255D02*
X116657704Y-76117731D01*
X117833895Y-77108207D02*
X117795800Y-77146303D01*
X117795800Y-77146303D02*
X117757704Y-77260588D01*
X117757704Y-77260588D02*
X117757704Y-77336779D01*
X117757704Y-77336779D02*
X117795800Y-77451065D01*
X117795800Y-77451065D02*
X117871990Y-77527255D01*
X117871990Y-77527255D02*
X117948180Y-77565350D01*
X117948180Y-77565350D02*
X118100561Y-77603446D01*
X118100561Y-77603446D02*
X118214847Y-77603446D01*
X118214847Y-77603446D02*
X118367228Y-77565350D01*
X118367228Y-77565350D02*
X118443419Y-77527255D01*
X118443419Y-77527255D02*
X118519609Y-77451065D01*
X118519609Y-77451065D02*
X118557704Y-77336779D01*
X118557704Y-77336779D02*
X118557704Y-77260588D01*
X118557704Y-77260588D02*
X118519609Y-77146303D01*
X118519609Y-77146303D02*
X118481514Y-77108207D01*
X117757704Y-76384398D02*
X117757704Y-76765350D01*
X117757704Y-76765350D02*
X118557704Y-76765350D01*
X117757704Y-76117731D02*
X118557704Y-76117731D01*
X117757704Y-75660588D02*
X118214847Y-76003446D01*
X118557704Y-75660588D02*
X118100561Y-76117731D01*
X119619609Y-77336779D02*
X119657704Y-77412969D01*
X119657704Y-77412969D02*
X119657704Y-77527255D01*
X119657704Y-77527255D02*
X119619609Y-77641541D01*
X119619609Y-77641541D02*
X119543419Y-77717731D01*
X119543419Y-77717731D02*
X119467228Y-77755826D01*
X119467228Y-77755826D02*
X119314847Y-77793922D01*
X119314847Y-77793922D02*
X119200561Y-77793922D01*
X119200561Y-77793922D02*
X119048180Y-77755826D01*
X119048180Y-77755826D02*
X118971990Y-77717731D01*
X118971990Y-77717731D02*
X118895800Y-77641541D01*
X118895800Y-77641541D02*
X118857704Y-77527255D01*
X118857704Y-77527255D02*
X118857704Y-77451064D01*
X118857704Y-77451064D02*
X118895800Y-77336779D01*
X118895800Y-77336779D02*
X118933895Y-77298683D01*
X118933895Y-77298683D02*
X119200561Y-77298683D01*
X119200561Y-77298683D02*
X119200561Y-77451064D01*
X118857704Y-76955826D02*
X119657704Y-76955826D01*
X119657704Y-76955826D02*
X118857704Y-76498683D01*
X118857704Y-76498683D02*
X119657704Y-76498683D01*
X118857704Y-76117731D02*
X119657704Y-76117731D01*
X119657704Y-76117731D02*
X119657704Y-75927255D01*
X119657704Y-75927255D02*
X119619609Y-75812969D01*
X119619609Y-75812969D02*
X119543419Y-75736779D01*
X119543419Y-75736779D02*
X119467228Y-75698684D01*
X119467228Y-75698684D02*
X119314847Y-75660588D01*
X119314847Y-75660588D02*
X119200561Y-75660588D01*
X119200561Y-75660588D02*
X119048180Y-75698684D01*
X119048180Y-75698684D02*
X118971990Y-75736779D01*
X118971990Y-75736779D02*
X118895800Y-75812969D01*
X118895800Y-75812969D02*
X118857704Y-75927255D01*
X118857704Y-75927255D02*
X118857704Y-76117731D01*
D11*
%TO.C,JP1*%
X171600000Y-108200000D02*
X169600000Y-108200000D01*
X169600000Y-107000000D01*
X171600000Y-107000000D01*
X171600000Y-108200000D01*
G36*
X171600000Y-108200000D02*
G01*
X169600000Y-108200000D01*
X169600000Y-107000000D01*
X171600000Y-107000000D01*
X171600000Y-108200000D01*
G37*
%TD*%
D12*
%TO.C,SW4*%
X134310000Y-73040000D03*
D13*
X134310000Y-67960000D03*
X126690000Y-67960000D03*
X126690000Y-73040000D03*
X134310000Y-70500000D03*
X126690000Y-70500000D03*
%TD*%
%TO.C,SW11*%
X185730000Y-102750000D03*
X192230000Y-102750000D03*
X185730000Y-107250000D03*
X192230000Y-107250000D03*
%TD*%
%TO.C,SW8*%
X195750000Y-102750000D03*
X202250000Y-102750000D03*
X195750000Y-107250000D03*
X202250000Y-107250000D03*
%TD*%
D14*
%TO.C,H1*%
X81000000Y-105000000D03*
D15*
X81000000Y-105000000D03*
%TD*%
D16*
%TO.C,P1*%
X177320000Y-69305000D03*
D17*
X177320000Y-63945000D03*
D16*
X168680000Y-69305000D03*
D17*
X168680000Y-63945000D03*
%TD*%
D13*
%TO.C,SW12*%
X195750000Y-94750000D03*
X202250000Y-94750000D03*
X195750000Y-99250000D03*
X202250000Y-99250000D03*
%TD*%
D18*
%TO.C,H5*%
X115500000Y-89500000D03*
%TD*%
D14*
%TO.C,H4*%
X178500000Y-98000000D03*
D15*
X178500000Y-98000000D03*
%TD*%
D13*
%TO.C,SW10*%
X205750000Y-102750000D03*
X212250000Y-102750000D03*
X205750000Y-107250000D03*
X212250000Y-107250000D03*
%TD*%
D18*
%TO.C,H7*%
X115500000Y-129500000D03*
%TD*%
D13*
%TO.C,SW7*%
X205750000Y-94750000D03*
X212250000Y-94750000D03*
X205750000Y-99250000D03*
X212250000Y-99250000D03*
%TD*%
%TO.C,SW9*%
X195750000Y-110750000D03*
X202250000Y-110750000D03*
X195750000Y-115250000D03*
X202250000Y-115250000D03*
%TD*%
D14*
%TO.C,H2*%
X219000000Y-105000000D03*
D15*
X219000000Y-105000000D03*
%TD*%
D18*
%TO.C,H8*%
X87500000Y-129500000D03*
%TD*%
%TO.C,H6*%
X87500000Y-89500000D03*
%TD*%
D14*
%TO.C,H3*%
X123500000Y-98000000D03*
D15*
X123500000Y-98000000D03*
%TD*%
D19*
%TO.C,J15*%
X96425000Y-128275000D03*
D20*
X96425000Y-125735000D03*
X98965000Y-128275000D03*
X98965000Y-125735000D03*
X101505000Y-128275000D03*
X101505000Y-125735000D03*
X104045000Y-128275000D03*
X104045000Y-125735000D03*
X106585000Y-128275000D03*
X106585000Y-125735000D03*
%TD*%
D21*
%TO.C,C35*%
X205700000Y-104620000D03*
X205700000Y-105580000D03*
%TD*%
D22*
%TO.C,R71*%
X96990000Y-102500000D03*
X98010000Y-102500000D03*
%TD*%
D23*
%TO.C,R111*%
X104200000Y-96510000D03*
X104200000Y-95490000D03*
%TD*%
D24*
%TO.C,R90*%
X147250000Y-78990000D03*
X147250000Y-80010000D03*
%TD*%
%TO.C,R63*%
X125500000Y-74690000D03*
X125500000Y-75710000D03*
%TD*%
D25*
%TO.C,C23*%
X137650000Y-90980000D03*
X137650000Y-90020000D03*
%TD*%
D26*
%TO.C,F7*%
X182600000Y-119025000D03*
X182600000Y-120775000D03*
%TD*%
D24*
%TO.C,R47*%
X163250000Y-123690000D03*
X163250000Y-124710000D03*
%TD*%
D27*
%TO.C,Q4*%
X98937500Y-121037500D03*
X98937500Y-122937500D03*
X97062500Y-121987500D03*
%TD*%
D23*
%TO.C,R65*%
X100000000Y-100010000D03*
X100000000Y-98990000D03*
%TD*%
D28*
%TO.C,Q2*%
X181150000Y-76850000D03*
X179250000Y-76850000D03*
X180200000Y-74975000D03*
%TD*%
D23*
%TO.C,R82*%
X104100000Y-109810000D03*
X104100000Y-108790000D03*
%TD*%
%TO.C,R6*%
X183700000Y-73860000D03*
X183700000Y-72840000D03*
%TD*%
D22*
%TO.C,R87*%
X206790000Y-96400000D03*
X207810000Y-96400000D03*
%TD*%
D25*
%TO.C,C3*%
X167200000Y-96730000D03*
X167200000Y-95770000D03*
%TD*%
D29*
%TO.C,C17*%
X162670000Y-104500000D03*
X163630000Y-104500000D03*
%TD*%
D24*
%TO.C,R19*%
X93700000Y-137290000D03*
X93700000Y-138310000D03*
%TD*%
%TO.C,R89*%
X149750000Y-78990000D03*
X149750000Y-80010000D03*
%TD*%
%TO.C,R122*%
X124500000Y-124690000D03*
X124500000Y-125710000D03*
%TD*%
D30*
%TO.C,R94*%
X200610000Y-102750000D03*
X199590000Y-102750000D03*
%TD*%
D31*
%TO.C,R35*%
X191350000Y-74600000D03*
X192071248Y-73878752D03*
%TD*%
D32*
%TO.C,JP1*%
X171450000Y-107600000D03*
D33*
X169750000Y-107600000D03*
%TD*%
D34*
%TO.C,C15*%
X136320000Y-90695000D03*
X136320000Y-89145000D03*
%TD*%
D24*
%TO.C,R18*%
X89200000Y-137290000D03*
X89200000Y-138310000D03*
%TD*%
%TO.C,R59*%
X126700000Y-74690000D03*
X126700000Y-75710000D03*
%TD*%
D30*
%TO.C,R107*%
X200610000Y-110750000D03*
X199590000Y-110750000D03*
%TD*%
D24*
%TO.C,R99*%
X154850000Y-73440000D03*
X154850000Y-74460000D03*
%TD*%
D23*
%TO.C,R51*%
X143600000Y-127310000D03*
X143600000Y-126290000D03*
%TD*%
D24*
%TO.C,R125*%
X122500000Y-127490000D03*
X122500000Y-128510000D03*
%TD*%
D35*
%TO.C,F8*%
X168275000Y-107600000D03*
X166525000Y-107600000D03*
%TD*%
D21*
%TO.C,C36*%
X185700000Y-104420000D03*
X185700000Y-105380000D03*
%TD*%
%TO.C,C34*%
X195700000Y-112520000D03*
X195700000Y-113480000D03*
%TD*%
D36*
%TO.C,L1*%
X181725000Y-107600000D03*
X180075000Y-107600000D03*
%TD*%
D31*
%TO.C,R36*%
X197889376Y-76610624D03*
X198610624Y-75889376D03*
%TD*%
D24*
%TO.C,R98*%
X157400000Y-73440000D03*
X157400000Y-74460000D03*
%TD*%
%TO.C,R58*%
X170350000Y-126390000D03*
X170350000Y-127410000D03*
%TD*%
D37*
%TO.C,R30*%
X103260624Y-75660624D03*
X102539376Y-74939376D03*
%TD*%
D30*
%TO.C,R115*%
X190610000Y-102750000D03*
X189590000Y-102750000D03*
%TD*%
%TO.C,R25*%
X188310000Y-88100000D03*
X187290000Y-88100000D03*
%TD*%
D21*
%TO.C,C4*%
X167200000Y-93570000D03*
X167200000Y-94530000D03*
%TD*%
D24*
%TO.C,R103*%
X144700000Y-73440000D03*
X144700000Y-74460000D03*
%TD*%
D29*
%TO.C,C8*%
X162670000Y-108650000D03*
X163630000Y-108650000D03*
%TD*%
D38*
%TO.C,C6*%
X135980000Y-96800000D03*
X135020000Y-96800000D03*
%TD*%
D21*
%TO.C,C32*%
X205700000Y-96420000D03*
X205700000Y-97380000D03*
%TD*%
D24*
%TO.C,R85*%
X154850000Y-78990000D03*
X154850000Y-80010000D03*
%TD*%
D21*
%TO.C,C19*%
X151250000Y-112200000D03*
X151250000Y-113160000D03*
%TD*%
D24*
%TO.C,R4*%
X180250000Y-68390000D03*
X180250000Y-69410000D03*
%TD*%
D39*
%TO.C,Y2*%
X165100000Y-102850000D03*
X165100000Y-100650000D03*
X166800000Y-100650000D03*
X166800000Y-102850000D03*
%TD*%
D24*
%TO.C,R124*%
X123500000Y-127490000D03*
X123500000Y-128510000D03*
%TD*%
D22*
%TO.C,R77*%
X126090000Y-79000000D03*
X127110000Y-79000000D03*
%TD*%
D24*
%TO.C,R13*%
X165050000Y-113190000D03*
X165050000Y-114210000D03*
%TD*%
D37*
%TO.C,R28*%
X104360624Y-78860624D03*
X103639376Y-78139376D03*
%TD*%
D30*
%TO.C,R62*%
X80710000Y-123700000D03*
X79690000Y-123700000D03*
%TD*%
D40*
%TO.C,C13*%
X218539411Y-89660589D03*
X217860589Y-90339411D03*
%TD*%
D30*
%TO.C,R93*%
X210610000Y-94750000D03*
X209590000Y-94750000D03*
%TD*%
%TO.C,R24*%
X188310000Y-89100000D03*
X187290000Y-89100000D03*
%TD*%
D24*
%TO.C,R100*%
X152350000Y-73440000D03*
X152350000Y-74460000D03*
%TD*%
D29*
%TO.C,C7*%
X162670000Y-107650000D03*
X163630000Y-107650000D03*
%TD*%
D27*
%TO.C,Q3*%
X222737500Y-128300000D03*
X222737500Y-130200000D03*
X220862500Y-129250000D03*
%TD*%
D24*
%TO.C,R5*%
X182150000Y-68390000D03*
X182150000Y-69410000D03*
%TD*%
D38*
%TO.C,C5*%
X136980000Y-97800000D03*
X136020000Y-97800000D03*
%TD*%
D41*
%TO.C,J1*%
X113720000Y-74200000D03*
X114820000Y-74200000D03*
X115920000Y-74200000D03*
X117020000Y-74200000D03*
X118120000Y-74200000D03*
X119220000Y-74200000D03*
X120320000Y-74200000D03*
X121420000Y-74200000D03*
D42*
X123890000Y-68200000D03*
X123890000Y-76400000D03*
X110000000Y-68200000D03*
X110000000Y-76400000D03*
%TD*%
D43*
%TO.C,R33*%
X196500000Y-73750000D03*
X195778752Y-74471248D03*
%TD*%
D25*
%TO.C,C24*%
X147250000Y-87280000D03*
X147250000Y-86320000D03*
%TD*%
D23*
%TO.C,R7*%
X183700000Y-71760000D03*
X183700000Y-70740000D03*
%TD*%
D24*
%TO.C,R68*%
X132300000Y-65890000D03*
X132300000Y-66910000D03*
%TD*%
D23*
%TO.C,R120*%
X126500000Y-128510000D03*
X126500000Y-127490000D03*
%TD*%
D24*
%TO.C,R10*%
X165050000Y-111240000D03*
X165050000Y-112260000D03*
%TD*%
D22*
%TO.C,R106*%
X196840000Y-112500000D03*
X197860000Y-112500000D03*
%TD*%
%TO.C,R88*%
X196790000Y-104500000D03*
X197810000Y-104500000D03*
%TD*%
D26*
%TO.C,F6*%
X180600000Y-119025000D03*
X180600000Y-120775000D03*
%TD*%
D24*
%TO.C,R64*%
X134300000Y-74690000D03*
X134300000Y-75710000D03*
%TD*%
D23*
%TO.C,R108*%
X98800000Y-96510000D03*
X98800000Y-95490000D03*
%TD*%
%TO.C,R38*%
X215300000Y-141310000D03*
X215300000Y-140290000D03*
%TD*%
D24*
%TO.C,R101*%
X149800000Y-73440000D03*
X149800000Y-74460000D03*
%TD*%
%TO.C,R105*%
X139650000Y-73440000D03*
X139650000Y-74460000D03*
%TD*%
D44*
%TO.C,C38*%
X185200000Y-125950000D03*
X183300000Y-125950000D03*
%TD*%
D23*
%TO.C,R76*%
X102000000Y-107810000D03*
X102000000Y-106790000D03*
%TD*%
%TO.C,R79*%
X98700000Y-105210000D03*
X98700000Y-104190000D03*
%TD*%
D24*
%TO.C,R69*%
X128700000Y-65890000D03*
X128700000Y-66910000D03*
%TD*%
D45*
%TO.C,D9*%
X216500000Y-125900000D03*
X220900000Y-125900000D03*
%TD*%
D38*
%TO.C,C21*%
X141100000Y-112250000D03*
X140140000Y-112250000D03*
%TD*%
D22*
%TO.C,R113*%
X186790000Y-104400000D03*
X187810000Y-104400000D03*
%TD*%
D31*
%TO.C,R37*%
X198928752Y-77621248D03*
X199650000Y-76900000D03*
%TD*%
D23*
%TO.C,R17*%
X90700000Y-141310000D03*
X90700000Y-140290000D03*
%TD*%
D46*
%TO.C,R26*%
X99439376Y-78039376D03*
X100160624Y-78760624D03*
%TD*%
D23*
%TO.C,R56*%
X169100000Y-127410000D03*
X169100000Y-126390000D03*
%TD*%
D22*
%TO.C,R81*%
X95690000Y-107800000D03*
X96710000Y-107800000D03*
%TD*%
D24*
%TO.C,R55*%
X139800000Y-126290000D03*
X139800000Y-127310000D03*
%TD*%
D22*
%TO.C,R22*%
X152990000Y-117700000D03*
X154010000Y-117700000D03*
%TD*%
%TO.C,R66*%
X104890000Y-101000000D03*
X105910000Y-101000000D03*
%TD*%
D24*
%TO.C,R119*%
X100600000Y-121040000D03*
X100600000Y-122060000D03*
%TD*%
%TO.C,R54*%
X141100000Y-126290000D03*
X141100000Y-127310000D03*
%TD*%
%TO.C,R70*%
X131100000Y-65890000D03*
X131100000Y-66910000D03*
%TD*%
%TO.C,R102*%
X147250000Y-73440000D03*
X147250000Y-74460000D03*
%TD*%
D30*
%TO.C,R117*%
X200610000Y-94750000D03*
X199590000Y-94750000D03*
%TD*%
D21*
%TO.C,C20*%
X146250000Y-112200000D03*
X146250000Y-113160000D03*
%TD*%
D24*
%TO.C,R41*%
X216800000Y-137290000D03*
X216800000Y-138310000D03*
%TD*%
D25*
%TO.C,C25*%
X152000000Y-87280000D03*
X152000000Y-86320000D03*
%TD*%
D24*
%TO.C,R48*%
X158250000Y-126190000D03*
X158250000Y-127210000D03*
%TD*%
D29*
%TO.C,C26*%
X162750000Y-93600000D03*
X163710000Y-93600000D03*
%TD*%
D21*
%TO.C,C18*%
X157750000Y-112200000D03*
X157750000Y-113160000D03*
%TD*%
D22*
%TO.C,R96*%
X218490000Y-123450000D03*
X219510000Y-123450000D03*
%TD*%
D21*
%TO.C,C30*%
X178600000Y-107620000D03*
X178600000Y-108580000D03*
%TD*%
D25*
%TO.C,C27*%
X159750000Y-88980000D03*
X159750000Y-88020000D03*
%TD*%
D22*
%TO.C,R116*%
X196790000Y-96500000D03*
X197810000Y-96500000D03*
%TD*%
%TO.C,R74*%
X128890000Y-79000000D03*
X129910000Y-79000000D03*
%TD*%
D30*
%TO.C,R114*%
X210610000Y-102750000D03*
X209590000Y-102750000D03*
%TD*%
D29*
%TO.C,C16*%
X162720000Y-99100000D03*
X163680000Y-99100000D03*
%TD*%
D24*
%TO.C,R46*%
X159500000Y-123690000D03*
X159500000Y-124710000D03*
%TD*%
D23*
%TO.C,R72*%
X102900000Y-104610000D03*
X102900000Y-103590000D03*
%TD*%
D24*
%TO.C,R42*%
X210800000Y-140290000D03*
X210800000Y-141310000D03*
%TD*%
D31*
%TO.C,R2*%
X217039376Y-89560624D03*
X217760624Y-88839376D03*
%TD*%
D23*
%TO.C,R50*%
X144800000Y-127310000D03*
X144800000Y-126290000D03*
%TD*%
D24*
%TO.C,R104*%
X142150000Y-73440000D03*
X142150000Y-74460000D03*
%TD*%
D21*
%TO.C,C33*%
X195700000Y-104520000D03*
X195700000Y-105480000D03*
%TD*%
D23*
%TO.C,R109*%
X100600000Y-96510000D03*
X100600000Y-95490000D03*
%TD*%
%TO.C,R44*%
X162000000Y-127210000D03*
X162000000Y-126190000D03*
%TD*%
D37*
%TO.C,R31*%
X104360624Y-74560624D03*
X103639376Y-73839376D03*
%TD*%
D24*
%TO.C,R11*%
X160850000Y-111199999D03*
X160850000Y-112219999D03*
%TD*%
%TO.C,R49*%
X157000000Y-126190000D03*
X157000000Y-127210000D03*
%TD*%
D29*
%TO.C,C9*%
X162650000Y-105550000D03*
X163610000Y-105550000D03*
%TD*%
D38*
%TO.C,C12*%
X167230000Y-99000000D03*
X166270000Y-99000000D03*
%TD*%
D24*
%TO.C,R20*%
X87700000Y-140290000D03*
X87700000Y-141310000D03*
%TD*%
%TO.C,R1*%
X164900000Y-67290000D03*
X164900000Y-68310000D03*
%TD*%
%TO.C,R86*%
X152300000Y-78990000D03*
X152300000Y-80010000D03*
%TD*%
D47*
%TO.C,U1*%
X160662500Y-91087500D03*
X160662500Y-91587500D03*
X160662500Y-92087500D03*
X160662500Y-92587500D03*
X160662500Y-93087500D03*
X160662500Y-93587500D03*
X160662500Y-94087500D03*
X160662500Y-94587500D03*
X160662500Y-95087500D03*
X160662500Y-95587500D03*
X160662500Y-96087500D03*
X160662500Y-96587500D03*
X160662500Y-97087500D03*
X160662500Y-97587500D03*
X160662500Y-98087500D03*
X160662500Y-98587500D03*
X160662500Y-99087500D03*
X160662500Y-99587500D03*
X160662500Y-100087500D03*
X160662500Y-100587500D03*
X160662500Y-101087500D03*
X160662500Y-101587500D03*
X160662500Y-102087500D03*
X160662500Y-102587500D03*
X160662500Y-103087500D03*
X160662500Y-103587500D03*
X160662500Y-104087500D03*
X160662500Y-104587500D03*
X160662500Y-105087500D03*
X160662500Y-105587500D03*
X160662500Y-106087500D03*
X160662500Y-106587500D03*
X160662500Y-107087500D03*
X160662500Y-107587500D03*
X160662500Y-108087500D03*
X160662500Y-108587500D03*
D48*
X158750000Y-110500000D03*
X158250000Y-110500000D03*
X157750000Y-110500000D03*
X157250000Y-110500000D03*
X156750000Y-110500000D03*
X156250000Y-110500000D03*
X155750000Y-110500000D03*
X155250000Y-110500000D03*
X154750000Y-110500000D03*
X154250000Y-110500000D03*
X153750000Y-110500000D03*
X153250000Y-110500000D03*
X152750000Y-110500000D03*
X152250000Y-110500000D03*
X151750000Y-110500000D03*
X151250000Y-110500000D03*
X150750000Y-110500000D03*
X150250000Y-110500000D03*
X149750000Y-110500000D03*
X149250000Y-110500000D03*
X148750000Y-110500000D03*
X148250000Y-110500000D03*
X147750000Y-110500000D03*
X147250000Y-110500000D03*
X146750000Y-110500000D03*
X146250000Y-110500000D03*
X145750000Y-110500000D03*
X145250000Y-110500000D03*
X144750000Y-110500000D03*
X144250000Y-110500000D03*
X143750000Y-110500000D03*
X143250000Y-110500000D03*
X142750000Y-110500000D03*
X142250000Y-110500000D03*
X141750000Y-110500000D03*
X141250000Y-110500000D03*
D47*
X139337500Y-108587500D03*
X139337500Y-108087500D03*
X139337500Y-107587500D03*
X139337500Y-107087500D03*
X139337500Y-106587500D03*
X139337500Y-106087500D03*
X139337500Y-105587500D03*
X139337500Y-105087500D03*
X139337500Y-104587500D03*
X139337500Y-104087500D03*
X139337500Y-103587500D03*
X139337500Y-103087500D03*
X139337500Y-102587500D03*
X139337500Y-102087500D03*
X139337500Y-101587500D03*
X139337500Y-101087500D03*
X139337500Y-100587500D03*
X139337500Y-100087500D03*
X139337500Y-99587500D03*
X139337500Y-99087500D03*
X139337500Y-98587500D03*
X139337500Y-98087500D03*
X139337500Y-97587500D03*
X139337500Y-97087500D03*
X139337500Y-96587500D03*
X139337500Y-96087500D03*
X139337500Y-95587500D03*
X139337500Y-95087500D03*
X139337500Y-94587500D03*
X139337500Y-94087500D03*
X139337500Y-93587500D03*
X139337500Y-93087500D03*
X139337500Y-92587500D03*
X139337500Y-92087500D03*
X139337500Y-91587500D03*
X139337500Y-91087500D03*
D48*
X141250000Y-89175000D03*
X141750000Y-89175000D03*
X142250000Y-89175000D03*
X142750000Y-89175000D03*
X143250000Y-89175000D03*
X143750000Y-89175000D03*
X144250000Y-89175000D03*
X144750000Y-89175000D03*
X145250000Y-89175000D03*
X145750000Y-89175000D03*
X146250000Y-89175000D03*
X146750000Y-89175000D03*
X147250000Y-89175000D03*
X147750000Y-89175000D03*
X148250000Y-89175000D03*
X148750000Y-89175000D03*
X149250000Y-89175000D03*
X149750000Y-89175000D03*
X150250000Y-89175000D03*
X150750000Y-89175000D03*
X151250000Y-89175000D03*
X151750000Y-89175000D03*
X152250000Y-89175000D03*
X152750000Y-89175000D03*
X153250000Y-89175000D03*
X153750000Y-89175000D03*
X154250000Y-89175000D03*
X154750000Y-89175000D03*
X155250000Y-89175000D03*
X155750000Y-89175000D03*
X156250000Y-89175000D03*
X156750000Y-89175000D03*
X157250000Y-89175000D03*
X157750000Y-89175000D03*
X158250000Y-89175000D03*
X158750000Y-89175000D03*
%TD*%
D24*
%TO.C,R95*%
X142100000Y-78990000D03*
X142100000Y-80010000D03*
%TD*%
%TO.C,R43*%
X209300000Y-140290000D03*
X209300000Y-141310000D03*
%TD*%
D21*
%TO.C,C37*%
X195700000Y-96520000D03*
X195700000Y-97480000D03*
%TD*%
D22*
%TO.C,R91*%
X218490000Y-122400000D03*
X219510000Y-122400000D03*
%TD*%
D49*
%TO.C,U3*%
X177250000Y-107650000D03*
X177250000Y-108300000D03*
X177250000Y-108950000D03*
X175350000Y-108950000D03*
X175350000Y-107650000D03*
%TD*%
D24*
%TO.C,R67*%
X129900000Y-65890000D03*
X129900000Y-66910000D03*
%TD*%
D23*
%TO.C,R73*%
X100900000Y-103210000D03*
X100900000Y-102190000D03*
%TD*%
%TO.C,R39*%
X213800000Y-141310000D03*
X213800000Y-140290000D03*
%TD*%
D43*
%TO.C,R32*%
X195460624Y-72689376D03*
X194739376Y-73410624D03*
%TD*%
D24*
%TO.C,R14*%
X160850000Y-113149999D03*
X160850000Y-114169999D03*
%TD*%
D22*
%TO.C,R75*%
X128890000Y-80000000D03*
X129910000Y-80000000D03*
%TD*%
%TO.C,R112*%
X206840000Y-104550000D03*
X207860000Y-104550000D03*
%TD*%
D23*
%TO.C,R118*%
X153300000Y-85310000D03*
X153300000Y-84290000D03*
%TD*%
D22*
%TO.C,R78*%
X126090000Y-80000000D03*
X127110000Y-80000000D03*
%TD*%
D37*
%TO.C,R29*%
X101160624Y-82060624D03*
X100439376Y-81339376D03*
%TD*%
D24*
%TO.C,R21*%
X86200000Y-140290000D03*
X86200000Y-141310000D03*
%TD*%
%TO.C,R92*%
X144700000Y-78990000D03*
X144700000Y-80010000D03*
%TD*%
%TO.C,R40*%
X212300000Y-137290000D03*
X212300000Y-138310000D03*
%TD*%
D29*
%TO.C,C11*%
X165600000Y-104500000D03*
X166560000Y-104500000D03*
%TD*%
D22*
%TO.C,R23*%
X152990000Y-119000000D03*
X154010000Y-119000000D03*
%TD*%
D30*
%TO.C,R61*%
X80710000Y-125000000D03*
X79690000Y-125000000D03*
%TD*%
D24*
%TO.C,R12*%
X166100000Y-111240000D03*
X166100000Y-112260000D03*
%TD*%
D22*
%TO.C,R80*%
X106090000Y-106200000D03*
X107110000Y-106200000D03*
%TD*%
D46*
%TO.C,R27*%
X100439376Y-77039376D03*
X101160624Y-77760624D03*
%TD*%
D29*
%TO.C,C10*%
X162650000Y-106600000D03*
X163610000Y-106600000D03*
%TD*%
D23*
%TO.C,R121*%
X125500000Y-128510000D03*
X125500000Y-127490000D03*
%TD*%
D50*
%TO.C,Y1*%
X165450000Y-96400000D03*
X165450000Y-93900000D03*
%TD*%
D24*
%TO.C,R84*%
X157400000Y-78990000D03*
X157400000Y-80010000D03*
%TD*%
D23*
%TO.C,R3*%
X164900000Y-65800001D03*
X164900000Y-64780001D03*
%TD*%
D38*
%TO.C,C22*%
X136980000Y-103100000D03*
X136020000Y-103100000D03*
%TD*%
D30*
%TO.C,R8*%
X180710000Y-78600000D03*
X179690000Y-78600000D03*
%TD*%
D23*
%TO.C,R53*%
X146100000Y-127310000D03*
X146100000Y-126290000D03*
%TD*%
D51*
%TO.C,D1*%
X201700000Y-140050000D03*
X201700000Y-144350000D03*
%TD*%
D52*
%TO.C,Q1*%
X180250000Y-70962500D03*
X182150000Y-70962500D03*
X181200000Y-72837500D03*
%TD*%
D23*
%TO.C,R16*%
X92200000Y-141310000D03*
X92200000Y-140290000D03*
%TD*%
D53*
%TO.C,J11*%
X196100000Y-139700000D03*
D18*
X196100000Y-144700000D03*
%TD*%
D54*
%TO.C,C31*%
X173400000Y-107625000D03*
X173400000Y-110575000D03*
%TD*%
D24*
%TO.C,R60*%
X135500000Y-74690000D03*
X135500000Y-75710000D03*
%TD*%
%TO.C,R97*%
X139600000Y-78990000D03*
X139600000Y-80010000D03*
%TD*%
D31*
%TO.C,R34*%
X194650000Y-77700000D03*
X195371248Y-76978752D03*
%TD*%
D24*
%TO.C,R123*%
X127500000Y-124690000D03*
X127500000Y-125710000D03*
%TD*%
%TO.C,R52*%
X142300000Y-123590000D03*
X142300000Y-124610000D03*
%TD*%
%TO.C,R9*%
X166100000Y-109290000D03*
X166100000Y-110310000D03*
%TD*%
D55*
%TO.C,C14*%
X140825000Y-113600000D03*
X139275000Y-113600000D03*
%TD*%
D23*
%TO.C,R45*%
X160750000Y-127210000D03*
X160750000Y-126190000D03*
%TD*%
%TO.C,R110*%
X102400000Y-96510000D03*
X102400000Y-95490000D03*
%TD*%
M02*
