%TF.GenerationSoftware,KiCad,Pcbnew,8.0.7*%
%TF.CreationDate,2025-04-13T15:12:29-04:00*%
%TF.ProjectId,control,636f6e74-726f-46c2-9e6b-696361645f70,rev?*%
%TF.SameCoordinates,Original*%
%TF.FileFunction,Paste,Top*%
%TF.FilePolarity,Positive*%
%FSLAX46Y46*%
G04 Gerber Fmt 4.6, Leading zero omitted, Abs format (unit mm)*
G04 Created by KiCad (PCBNEW 8.0.7) date 2025-04-13 15:12:29*
%MOMM*%
%LPD*%
G01*
G04 APERTURE LIST*
G04 Aperture macros list*
%AMRoundRect*
0 Rectangle with rounded corners*
0 $1 Rounding radius*
0 $2 $3 $4 $5 $6 $7 $8 $9 X,Y pos of 4 corners*
0 Add a 4 corners polygon primitive as box body*
4,1,4,$2,$3,$4,$5,$6,$7,$8,$9,$2,$3,0*
0 Add four circle primitives for the rounded corners*
1,1,$1+$1,$2,$3*
1,1,$1+$1,$4,$5*
1,1,$1+$1,$6,$7*
1,1,$1+$1,$8,$9*
0 Add four rect primitives between the rounded corners*
20,1,$1+$1,$2,$3,$4,$5,0*
20,1,$1+$1,$4,$5,$6,$7,0*
20,1,$1+$1,$6,$7,$8,$9,0*
20,1,$1+$1,$8,$9,$2,$3,0*%
%AMRotRect*
0 Rectangle, with rotation*
0 The origin of the aperture is its center*
0 $1 length*
0 $2 width*
0 $3 Rotation angle, in degrees counterclockwise*
0 Add horizontal line*
21,1,$1,$2,0,0,$3*%
G04 Aperture macros list end*
%ADD10R,1.000000X2.700000*%
%ADD11R,1.800000X3.800000*%
%ADD12RoundRect,0.200000X-0.742462X1.025305X-1.025305X0.742462X0.742462X-1.025305X1.025305X-0.742462X0*%
%ADD13RoundRect,0.250000X-0.707107X1.626346X-1.626346X0.707107X0.707107X-1.626346X1.626346X-0.707107X0*%
%ADD14R,1.500000X1.000000*%
%ADD15R,1.130000X2.440000*%
%ADD16RotRect,1.500000X1.000000X135.000000*%
%ADD17RotRect,1.500000X1.000000X315.000000*%
%ADD18RoundRect,0.150000X0.150000X0.625000X-0.150000X0.625000X-0.150000X-0.625000X0.150000X-0.625000X0*%
%ADD19RoundRect,0.250000X0.350000X0.650000X-0.350000X0.650000X-0.350000X-0.650000X0.350000X-0.650000X0*%
%ADD20RoundRect,0.150000X-0.150000X-0.700000X0.150000X-0.700000X0.150000X0.700000X-0.150000X0.700000X0*%
%ADD21RoundRect,0.250000X-0.250000X-1.100000X0.250000X-1.100000X0.250000X1.100000X-0.250000X1.100000X0*%
%ADD22R,0.650000X0.850000*%
%ADD23RoundRect,0.135000X0.185000X-0.135000X0.185000X0.135000X-0.185000X0.135000X-0.185000X-0.135000X0*%
%ADD24RoundRect,0.140000X0.170000X-0.140000X0.170000X0.140000X-0.170000X0.140000X-0.170000X-0.140000X0*%
%ADD25RoundRect,0.200000X-0.200000X-1.250000X0.200000X-1.250000X0.200000X1.250000X-0.200000X1.250000X0*%
%ADD26RoundRect,0.250000X-0.650000X-1.650000X0.650000X-1.650000X0.650000X1.650000X-0.650000X1.650000X0*%
%ADD27R,0.800000X0.800000*%
%ADD28R,0.300000X0.700000*%
%ADD29R,1.000000X0.700000*%
%ADD30RoundRect,0.135000X-0.185000X0.135000X-0.185000X-0.135000X0.185000X-0.135000X0.185000X0.135000X0*%
%ADD31RoundRect,0.250001X0.768977X0.114905X0.114905X0.768977X-0.768977X-0.114905X-0.114905X-0.768977X0*%
%ADD32R,1.800000X0.800000*%
%ADD33RoundRect,0.135000X-0.135000X-0.185000X0.135000X-0.185000X0.135000X0.185000X-0.135000X0.185000X0*%
%ADD34RoundRect,0.150000X0.700000X-0.150000X0.700000X0.150000X-0.700000X0.150000X-0.700000X-0.150000X0*%
%ADD35RoundRect,0.250000X1.150000X-0.250000X1.150000X0.250000X-1.150000X0.250000X-1.150000X-0.250000X0*%
%ADD36R,0.475000X0.250000*%
%ADD37R,0.250000X0.475000*%
%ADD38RoundRect,0.250001X-0.624999X0.462499X-0.624999X-0.462499X0.624999X-0.462499X0.624999X0.462499X0*%
%ADD39RotRect,0.800000X2.200000X135.000000*%
%ADD40RoundRect,0.200000X1.025305X0.742462X0.742462X1.025305X-1.025305X-0.742462X-0.742462X-1.025305X0*%
%ADD41RoundRect,0.250000X1.626346X0.707107X0.707107X1.626346X-1.626346X-0.707107X-0.707107X-1.626346X0*%
%ADD42RotRect,1.600000X1.400000X135.000000*%
%ADD43R,1.100000X1.500000*%
%ADD44RoundRect,0.150000X-0.625000X0.150000X-0.625000X-0.150000X0.625000X-0.150000X0.625000X0.150000X0*%
%ADD45RoundRect,0.250000X-0.650000X0.350000X-0.650000X-0.350000X0.650000X-0.350000X0.650000X0.350000X0*%
%ADD46RoundRect,0.250001X0.114905X-0.768977X0.768977X-0.114905X-0.114905X0.768977X-0.768977X0.114905X0*%
%ADD47RoundRect,0.135000X0.135000X0.185000X-0.135000X0.185000X-0.135000X-0.185000X0.135000X-0.185000X0*%
%ADD48RotRect,1.500000X1.000000X225.000000*%
%ADD49RotRect,1.500000X1.000000X45.000000*%
G04 APERTURE END LIST*
D10*
%TO.C,J13*%
X180600000Y-120800000D03*
X182600000Y-120800000D03*
X184600000Y-120800000D03*
X186600000Y-120800000D03*
D11*
X188950000Y-125250000D03*
X178250000Y-125250000D03*
%TD*%
D12*
%TO.C,J6*%
X109260660Y-71039340D03*
X108200000Y-72100000D03*
X107139340Y-73160660D03*
X106078679Y-74221321D03*
X105018019Y-75281981D03*
X103957359Y-76342641D03*
X102896699Y-77403301D03*
X101836039Y-78463961D03*
X100775379Y-79524621D03*
X99714718Y-80585282D03*
X98654058Y-81645942D03*
X97593398Y-82706602D03*
D13*
X107775736Y-65877461D03*
X92431519Y-81221678D03*
%TD*%
D14*
%TO.C,U9*%
X164750000Y-122300000D03*
X164750000Y-120700000D03*
X164750000Y-119100000D03*
X159850000Y-119100000D03*
X159850000Y-120700000D03*
X159850000Y-122300000D03*
%TD*%
D15*
%TO.C,SW3*%
X183690000Y-66700000D03*
X181150000Y-66700000D03*
X181150000Y-75300000D03*
X183690000Y-75300000D03*
%TD*%
D16*
%TO.C,U6*%
X192048959Y-77886218D03*
X190917588Y-79017588D03*
X189786218Y-80148959D03*
D17*
X193251041Y-83613782D03*
X194382412Y-82482412D03*
X195513782Y-81351041D03*
%TD*%
D14*
%TO.C,U11*%
X138250000Y-122300000D03*
X138250000Y-120700000D03*
X138250000Y-119100000D03*
X133350000Y-119100000D03*
X133350000Y-120700000D03*
X133350000Y-122300000D03*
%TD*%
D18*
%TO.C,J5*%
X129500000Y-126575000D03*
X128500000Y-126575000D03*
X127500000Y-126575000D03*
X126500000Y-126575000D03*
X125500000Y-126575000D03*
X124500000Y-126575000D03*
X123500000Y-126575000D03*
X122500000Y-126575000D03*
X121500000Y-126575000D03*
X120500000Y-126575000D03*
D19*
X130800000Y-129100000D03*
X119200000Y-129100000D03*
%TD*%
D20*
%TO.C,J12*%
X169100000Y-125500000D03*
X170350000Y-125500000D03*
X171600000Y-125500000D03*
X172850000Y-125500000D03*
X174100000Y-125500000D03*
D21*
X167250000Y-128700000D03*
X175950000Y-128700000D03*
%TD*%
D22*
%TO.C,D3*%
X99849999Y-101025000D03*
X98999999Y-101025000D03*
X99849999Y-102475000D03*
X98999999Y-102475000D03*
%TD*%
D14*
%TO.C,U8*%
X175650000Y-122300000D03*
X175650000Y-120700000D03*
X175650000Y-119100000D03*
X170750000Y-119100000D03*
X170750000Y-120700000D03*
X170750000Y-122300000D03*
%TD*%
%TO.C,U14*%
X209950000Y-122300000D03*
X209950000Y-120700000D03*
X209950000Y-119100000D03*
X205050000Y-119100000D03*
X205050000Y-120700000D03*
X205050000Y-122300000D03*
%TD*%
%TO.C,U13*%
X201450000Y-122300000D03*
X201450000Y-120700000D03*
X201450000Y-119100000D03*
X196550000Y-119100000D03*
X196550000Y-120700000D03*
X196550000Y-122300000D03*
%TD*%
D15*
%TO.C,SW6*%
X157390000Y-66700000D03*
X154850000Y-66700000D03*
X152310000Y-66700000D03*
X149770000Y-66700000D03*
X147230000Y-66700000D03*
X144690000Y-66700000D03*
X142150000Y-66700000D03*
X139610000Y-66700000D03*
X139610000Y-75300000D03*
X142150000Y-75300000D03*
X144690000Y-75300000D03*
X147230000Y-75300000D03*
X149770000Y-75300000D03*
X152310000Y-75300000D03*
X154850000Y-75300000D03*
X157390000Y-75300000D03*
%TD*%
D14*
%TO.C,U4*%
X99350000Y-135600000D03*
X99350000Y-134000000D03*
X99350000Y-132400000D03*
X94450000Y-132400000D03*
X94450000Y-134000000D03*
X94450000Y-135600000D03*
%TD*%
%TO.C,U7*%
X222550000Y-135600000D03*
X222550000Y-134000000D03*
X222550000Y-132400000D03*
X217650000Y-132400000D03*
X217650000Y-134000000D03*
X217650000Y-135600000D03*
%TD*%
D23*
%TO.C,R83*%
X116150000Y-69670000D03*
X116150000Y-68650000D03*
%TD*%
D24*
%TO.C,C1*%
X116400000Y-73080000D03*
X116400000Y-72120000D03*
%TD*%
D15*
%TO.C,SW5*%
X122290000Y-66700000D03*
X119750000Y-66700000D03*
X119750000Y-75300000D03*
X122290000Y-75300000D03*
%TD*%
D25*
%TO.C,J8*%
X203350000Y-139295000D03*
X204850000Y-139295000D03*
X206350000Y-139295000D03*
X207850000Y-139295000D03*
X209350000Y-139295000D03*
X210850000Y-139295000D03*
X212350000Y-139295000D03*
X213850000Y-139295000D03*
X215350000Y-139295000D03*
X216850000Y-139295000D03*
X218350000Y-139295000D03*
X219850000Y-139295000D03*
D26*
X200750000Y-143995000D03*
X222450000Y-143995000D03*
%TD*%
D27*
%TO.C,D10*%
X98800000Y-92700000D03*
X98800000Y-94200000D03*
%TD*%
D28*
%TO.C,P1*%
X176000000Y-69715000D03*
X175500000Y-69715000D03*
X175000000Y-69715000D03*
X174500000Y-69715000D03*
X174000000Y-69715000D03*
X173500000Y-69715000D03*
X172500000Y-69715000D03*
X172000000Y-69715000D03*
X171500000Y-69715000D03*
X171000000Y-69715000D03*
X170500000Y-69715000D03*
X170000000Y-69715000D03*
D29*
X169900000Y-68415000D03*
D28*
X170750000Y-68415000D03*
X171250000Y-68415000D03*
X171750000Y-68415000D03*
X172250000Y-68415000D03*
X172750000Y-68415000D03*
X173250000Y-68415000D03*
X173750000Y-68415000D03*
X174250000Y-68415000D03*
X174750000Y-68415000D03*
X175250000Y-68415000D03*
D29*
X176100000Y-68415000D03*
%TD*%
D25*
%TO.C,J3*%
X80150000Y-139295000D03*
X81650000Y-139295000D03*
X83150000Y-139295000D03*
X84650000Y-139295000D03*
X86150000Y-139295000D03*
X87650000Y-139295000D03*
X89150000Y-139295000D03*
X90650000Y-139295000D03*
X92150000Y-139295000D03*
X93650000Y-139295000D03*
X95150000Y-139295000D03*
X96650000Y-139295000D03*
D26*
X77550000Y-143995000D03*
X99250000Y-143995000D03*
%TD*%
D27*
%TO.C,D12*%
X102400000Y-92700000D03*
X102400000Y-94200000D03*
%TD*%
D30*
%TO.C,R57*%
X196100000Y-131090000D03*
X196100000Y-132110000D03*
%TD*%
D31*
%TO.C,F2*%
X114151821Y-76951821D03*
X112048179Y-74848179D03*
%TD*%
D32*
%TO.C,BZ1*%
X218950000Y-125750000D03*
X218950000Y-129250000D03*
X222750000Y-129250000D03*
%TD*%
D33*
%TO.C,R15*%
X174490000Y-72000000D03*
X175510000Y-72000000D03*
%TD*%
D22*
%TO.C,D6*%
X98600000Y-106275001D03*
X97750000Y-106275001D03*
X98600000Y-107725001D03*
X97750000Y-107725001D03*
%TD*%
D27*
%TO.C,D13*%
X104200000Y-92700000D03*
X104200000Y-94200000D03*
%TD*%
D34*
%TO.C,J14*%
X81550000Y-126225000D03*
X81550000Y-124975000D03*
X81550000Y-123725000D03*
X81550000Y-122475000D03*
X81550000Y-121225000D03*
X81550000Y-119975000D03*
D35*
X78200000Y-128075000D03*
X78200000Y-118125000D03*
%TD*%
D22*
%TO.C,D4*%
X103850001Y-101025000D03*
X103000001Y-101025000D03*
X103850001Y-102475000D03*
X103000001Y-102475000D03*
%TD*%
D24*
%TO.C,C2*%
X115200000Y-73080000D03*
X115200000Y-72120000D03*
%TD*%
D36*
%TO.C,U2*%
X148837500Y-118050000D03*
X148837500Y-118550000D03*
X148837500Y-119050000D03*
X148837500Y-119550000D03*
D37*
X149500000Y-119712500D03*
X150000000Y-119712500D03*
X150500000Y-119712500D03*
D36*
X151162500Y-119550000D03*
X151162500Y-119050000D03*
X151162500Y-118550000D03*
X151162500Y-118050000D03*
D37*
X150500000Y-117887500D03*
X150000000Y-117887500D03*
X149500000Y-117887500D03*
%TD*%
D38*
%TO.C,F1*%
X80900000Y-131612500D03*
X80900000Y-134587500D03*
%TD*%
D24*
%TO.C,C28*%
X149750000Y-122030000D03*
X149750000Y-121070000D03*
%TD*%
D39*
%TO.C,J2*%
X214082986Y-86909117D03*
X211509117Y-89482986D03*
X213184960Y-86011091D03*
X210611091Y-88584960D03*
X212286934Y-85113066D03*
X209713066Y-87686934D03*
X211388909Y-84215040D03*
X208815040Y-86788909D03*
X210490883Y-83317014D03*
X207917014Y-85890883D03*
%TD*%
D20*
%TO.C,J9*%
X152025000Y-125500000D03*
X153275000Y-125500000D03*
X154525000Y-125500000D03*
X155775000Y-125500000D03*
X157025000Y-125500000D03*
X158275000Y-125500000D03*
X159525000Y-125500000D03*
X160775000Y-125500000D03*
X162025000Y-125500000D03*
X163275000Y-125500000D03*
D21*
X150175000Y-128700000D03*
X165125000Y-128700000D03*
%TD*%
D40*
%TO.C,J7*%
X202396643Y-82670619D03*
X201335983Y-81609959D03*
X200275323Y-80549299D03*
X199214662Y-79488638D03*
X198154002Y-78427978D03*
X197093342Y-77367318D03*
X196032682Y-76306658D03*
X194972022Y-75245998D03*
X193911362Y-74185338D03*
X192850701Y-73124677D03*
X191790041Y-72064017D03*
X190729381Y-71003357D03*
D41*
X207558522Y-81185695D03*
X192214305Y-65841478D03*
%TD*%
D42*
%TO.C,SW2*%
X220284924Y-94106245D03*
X215193755Y-89015076D03*
X222406245Y-91984924D03*
X217315076Y-86893755D03*
%TD*%
D20*
%TO.C,J10*%
X134875000Y-125450000D03*
X136125000Y-125450000D03*
X137375000Y-125450000D03*
X138625000Y-125450000D03*
X139875000Y-125450000D03*
X141125000Y-125450000D03*
X142375000Y-125450000D03*
X143625000Y-125450000D03*
X144875000Y-125450000D03*
X146125000Y-125450000D03*
D21*
X133025000Y-128650000D03*
X147975000Y-128650000D03*
%TD*%
D43*
%TO.C,SW1*%
X164900000Y-75450000D03*
X164900000Y-66550000D03*
%TD*%
D27*
%TO.C,D8*%
X116150000Y-65750000D03*
X116150000Y-67250000D03*
%TD*%
%TO.C,D2*%
X196100000Y-135050000D03*
X196100000Y-133550000D03*
%TD*%
D44*
%TO.C,J4*%
X185675000Y-86100000D03*
X185675000Y-87100000D03*
X185675000Y-88100000D03*
X185675000Y-89100000D03*
X185675000Y-90100000D03*
X185675000Y-91100000D03*
X185675000Y-92100000D03*
X185675000Y-93100000D03*
X185675000Y-94100000D03*
X185675000Y-95100000D03*
X185675000Y-96100000D03*
D45*
X188200000Y-84800000D03*
X188200000Y-97400000D03*
%TD*%
D46*
%TO.C,F3*%
X196448179Y-87551821D03*
X198551821Y-85448179D03*
%TD*%
D38*
%TO.C,F4*%
X204100000Y-131612500D03*
X204100000Y-134587500D03*
%TD*%
D22*
%TO.C,D7*%
X105100000Y-106275001D03*
X104250000Y-106275001D03*
X105100000Y-107725001D03*
X104250000Y-107725001D03*
%TD*%
D14*
%TO.C,U10*%
X145950000Y-122300000D03*
X145950000Y-120700000D03*
X145950000Y-119100000D03*
X141050000Y-119100000D03*
X141050000Y-120700000D03*
X141050000Y-122300000D03*
%TD*%
D27*
%TO.C,D11*%
X100600000Y-92700000D03*
X100600000Y-94200000D03*
%TD*%
D24*
%TO.C,C29*%
X150750000Y-122030000D03*
X150750000Y-121070000D03*
%TD*%
D47*
%TO.C,R126*%
X170520000Y-72000000D03*
X169500000Y-72000000D03*
%TD*%
D14*
%TO.C,U12*%
X124250000Y-122300000D03*
X124250000Y-120700000D03*
X124250000Y-119100000D03*
X119350000Y-119100000D03*
X119350000Y-120700000D03*
X119350000Y-122300000D03*
%TD*%
D48*
%TO.C,U5*%
X104476259Y-81637024D03*
X105607629Y-82768395D03*
X106739000Y-83899765D03*
D49*
X110203823Y-80434942D03*
X109072453Y-79303571D03*
X107941082Y-78172201D03*
%TD*%
D22*
%TO.C,D5*%
X101000000Y-104275000D03*
X101850000Y-104275000D03*
X101000000Y-105725000D03*
X101850000Y-105725000D03*
%TD*%
M02*
