%TF.GenerationSoftware,KiCad,Pcbnew,8.0.7*%
%TF.CreationDate,2025-04-13T15:12:29-04:00*%
%TF.ProjectId,control,636f6e74-726f-46c2-9e6b-696361645f70,rev?*%
%TF.SameCoordinates,Original*%
%TF.FileFunction,Copper,L1,Top*%
%TF.FilePolarity,Positive*%
%FSLAX46Y46*%
G04 Gerber Fmt 4.6, Leading zero omitted, Abs format (unit mm)*
G04 Created by KiCad (PCBNEW 8.0.7) date 2025-04-13 15:12:29*
%MOMM*%
%LPD*%
G01*
G04 APERTURE LIST*
G04 Aperture macros list*
%AMRoundRect*
0 Rectangle with rounded corners*
0 $1 Rounding radius*
0 $2 $3 $4 $5 $6 $7 $8 $9 X,Y pos of 4 corners*
0 Add a 4 corners polygon primitive as box body*
4,1,4,$2,$3,$4,$5,$6,$7,$8,$9,$2,$3,0*
0 Add four circle primitives for the rounded corners*
1,1,$1+$1,$2,$3*
1,1,$1+$1,$4,$5*
1,1,$1+$1,$6,$7*
1,1,$1+$1,$8,$9*
0 Add four rect primitives between the rounded corners*
20,1,$1+$1,$2,$3,$4,$5,0*
20,1,$1+$1,$4,$5,$6,$7,0*
20,1,$1+$1,$6,$7,$8,$9,0*
20,1,$1+$1,$8,$9,$2,$3,0*%
%AMRotRect*
0 Rectangle, with rotation*
0 The origin of the aperture is its center*
0 $1 length*
0 $2 width*
0 $3 Rotation angle, in degrees counterclockwise*
0 Add horizontal line*
21,1,$1,$2,0,0,$3*%
G04 Aperture macros list end*
%TA.AperFunction,SMDPad,CuDef*%
%ADD10R,1.000000X2.700000*%
%TD*%
%TA.AperFunction,SMDPad,CuDef*%
%ADD11R,1.800000X3.800000*%
%TD*%
%TA.AperFunction,SMDPad,CuDef*%
%ADD12RoundRect,0.200000X-0.742462X1.025305X-1.025305X0.742462X0.742462X-1.025305X1.025305X-0.742462X0*%
%TD*%
%TA.AperFunction,SMDPad,CuDef*%
%ADD13RoundRect,0.250000X-0.707107X1.626346X-1.626346X0.707107X0.707107X-1.626346X1.626346X-0.707107X0*%
%TD*%
%TA.AperFunction,SMDPad,CuDef*%
%ADD14R,1.500000X1.000000*%
%TD*%
%TA.AperFunction,SMDPad,CuDef*%
%ADD15R,1.130000X2.440000*%
%TD*%
%TA.AperFunction,SMDPad,CuDef*%
%ADD16RotRect,1.500000X1.000000X135.000000*%
%TD*%
%TA.AperFunction,SMDPad,CuDef*%
%ADD17RotRect,1.500000X1.000000X315.000000*%
%TD*%
%TA.AperFunction,SMDPad,CuDef*%
%ADD18RoundRect,0.150000X0.150000X0.625000X-0.150000X0.625000X-0.150000X-0.625000X0.150000X-0.625000X0*%
%TD*%
%TA.AperFunction,SMDPad,CuDef*%
%ADD19RoundRect,0.250000X0.350000X0.650000X-0.350000X0.650000X-0.350000X-0.650000X0.350000X-0.650000X0*%
%TD*%
%TA.AperFunction,SMDPad,CuDef*%
%ADD20RoundRect,0.150000X-0.150000X-0.700000X0.150000X-0.700000X0.150000X0.700000X-0.150000X0.700000X0*%
%TD*%
%TA.AperFunction,SMDPad,CuDef*%
%ADD21RoundRect,0.250000X-0.250000X-1.100000X0.250000X-1.100000X0.250000X1.100000X-0.250000X1.100000X0*%
%TD*%
%TA.AperFunction,SMDPad,CuDef*%
%ADD22R,0.650000X0.850000*%
%TD*%
%TA.AperFunction,ComponentPad*%
%ADD23R,1.600000X1.600000*%
%TD*%
%TA.AperFunction,ComponentPad*%
%ADD24C,1.600000*%
%TD*%
%TA.AperFunction,SMDPad,CuDef*%
%ADD25RoundRect,0.135000X0.185000X-0.135000X0.185000X0.135000X-0.185000X0.135000X-0.185000X-0.135000X0*%
%TD*%
%TA.AperFunction,SMDPad,CuDef*%
%ADD26RoundRect,0.140000X0.170000X-0.140000X0.170000X0.140000X-0.170000X0.140000X-0.170000X-0.140000X0*%
%TD*%
%TA.AperFunction,SMDPad,CuDef*%
%ADD27RoundRect,0.200000X-0.200000X-1.250000X0.200000X-1.250000X0.200000X1.250000X-0.200000X1.250000X0*%
%TD*%
%TA.AperFunction,SMDPad,CuDef*%
%ADD28RoundRect,0.250000X-0.650000X-1.650000X0.650000X-1.650000X0.650000X1.650000X-0.650000X1.650000X0*%
%TD*%
%TA.AperFunction,ComponentPad*%
%ADD29C,3.600000*%
%TD*%
%TA.AperFunction,ConnectorPad*%
%ADD30C,6.400000*%
%TD*%
%TA.AperFunction,SMDPad,CuDef*%
%ADD31R,0.800000X0.800000*%
%TD*%
%TA.AperFunction,SMDPad,CuDef*%
%ADD32R,0.300000X0.700000*%
%TD*%
%TA.AperFunction,SMDPad,CuDef*%
%ADD33R,1.000000X0.700000*%
%TD*%
%TA.AperFunction,ComponentPad*%
%ADD34O,1.100000X2.100000*%
%TD*%
%TA.AperFunction,ComponentPad*%
%ADD35O,1.100000X2.600000*%
%TD*%
%TA.AperFunction,SMDPad,CuDef*%
%ADD36RoundRect,0.135000X-0.185000X0.135000X-0.185000X-0.135000X0.185000X-0.135000X0.185000X0.135000X0*%
%TD*%
%TA.AperFunction,SMDPad,CuDef*%
%ADD37RoundRect,0.250001X0.768977X0.114905X0.114905X0.768977X-0.768977X-0.114905X-0.114905X-0.768977X0*%
%TD*%
%TA.AperFunction,SMDPad,CuDef*%
%ADD38R,1.800000X0.800000*%
%TD*%
%TA.AperFunction,SMDPad,CuDef*%
%ADD39RoundRect,0.135000X-0.135000X-0.185000X0.135000X-0.185000X0.135000X0.185000X-0.135000X0.185000X0*%
%TD*%
%TA.AperFunction,ComponentPad*%
%ADD40C,3.800000*%
%TD*%
%TA.AperFunction,SMDPad,CuDef*%
%ADD41RoundRect,0.150000X0.700000X-0.150000X0.700000X0.150000X-0.700000X0.150000X-0.700000X-0.150000X0*%
%TD*%
%TA.AperFunction,SMDPad,CuDef*%
%ADD42RoundRect,0.250000X1.150000X-0.250000X1.150000X0.250000X-1.150000X0.250000X-1.150000X-0.250000X0*%
%TD*%
%TA.AperFunction,SMDPad,CuDef*%
%ADD43R,0.475000X0.250000*%
%TD*%
%TA.AperFunction,SMDPad,CuDef*%
%ADD44R,0.250000X0.475000*%
%TD*%
%TA.AperFunction,SMDPad,CuDef*%
%ADD45RoundRect,0.250001X-0.624999X0.462499X-0.624999X-0.462499X0.624999X-0.462499X0.624999X0.462499X0*%
%TD*%
%TA.AperFunction,SMDPad,CuDef*%
%ADD46RotRect,0.800000X2.200000X135.000000*%
%TD*%
%TA.AperFunction,SMDPad,CuDef*%
%ADD47RoundRect,0.200000X1.025305X0.742462X0.742462X1.025305X-1.025305X-0.742462X-0.742462X-1.025305X0*%
%TD*%
%TA.AperFunction,SMDPad,CuDef*%
%ADD48RoundRect,0.250000X1.626346X0.707107X0.707107X1.626346X-1.626346X-0.707107X-0.707107X-1.626346X0*%
%TD*%
%TA.AperFunction,SMDPad,CuDef*%
%ADD49RotRect,1.600000X1.400000X135.000000*%
%TD*%
%TA.AperFunction,SMDPad,CuDef*%
%ADD50R,1.100000X1.500000*%
%TD*%
%TA.AperFunction,SMDPad,CuDef*%
%ADD51RoundRect,0.150000X-0.625000X0.150000X-0.625000X-0.150000X0.625000X-0.150000X0.625000X0.150000X0*%
%TD*%
%TA.AperFunction,SMDPad,CuDef*%
%ADD52RoundRect,0.250000X-0.650000X0.350000X-0.650000X-0.350000X0.650000X-0.350000X0.650000X0.350000X0*%
%TD*%
%TA.AperFunction,SMDPad,CuDef*%
%ADD53RoundRect,0.250001X0.114905X-0.768977X0.768977X-0.114905X-0.114905X0.768977X-0.768977X0.114905X0*%
%TD*%
%TA.AperFunction,SMDPad,CuDef*%
%ADD54RoundRect,0.135000X0.135000X0.185000X-0.135000X0.185000X-0.135000X-0.185000X0.135000X-0.185000X0*%
%TD*%
%TA.AperFunction,SMDPad,CuDef*%
%ADD55RotRect,1.500000X1.000000X225.000000*%
%TD*%
%TA.AperFunction,SMDPad,CuDef*%
%ADD56RotRect,1.500000X1.000000X45.000000*%
%TD*%
%TA.AperFunction,ComponentPad*%
%ADD57R,1.700000X1.700000*%
%TD*%
%TA.AperFunction,ComponentPad*%
%ADD58O,1.700000X1.700000*%
%TD*%
%TA.AperFunction,ComponentPad*%
%ADD59RoundRect,0.760000X-1.140000X1.140000X-1.140000X-1.140000X1.140000X-1.140000X1.140000X1.140000X0*%
%TD*%
%TA.AperFunction,ViaPad*%
%ADD60C,0.450000*%
%TD*%
%TA.AperFunction,ViaPad*%
%ADD61C,0.350000*%
%TD*%
%TA.AperFunction,Conductor*%
%ADD62C,0.200000*%
%TD*%
%TA.AperFunction,Conductor*%
%ADD63C,0.153000*%
%TD*%
G04 APERTURE END LIST*
D10*
%TO.P,J13,1,Pin_1*%
%TO.N,Net-(J13-Pin_1)*%
X180600000Y-120800000D03*
%TO.P,J13,2,Pin_2*%
%TO.N,Net-(J13-Pin_2)*%
X182600000Y-120800000D03*
%TO.P,J13,3,Pin_3*%
%TO.N,GND*%
X184600000Y-120800000D03*
%TO.P,J13,4,Pin_4*%
X186600000Y-120800000D03*
D11*
%TO.P,J13,MP*%
%TO.N,N/C*%
X188950000Y-125250000D03*
X178250000Y-125250000D03*
%TD*%
D12*
%TO.P,J6,1,Pin_1*%
%TO.N,Net-(J6-Pin_1)*%
X109260660Y-71039340D03*
%TO.P,J6,2,Pin_2*%
X108200000Y-72100000D03*
%TO.P,J6,3,Pin_3*%
%TO.N,GND*%
X107139340Y-73160660D03*
%TO.P,J6,4,Pin_4*%
X106078679Y-74221321D03*
%TO.P,J6,5,Pin_5*%
%TO.N,/back_right_drive_motor/MOTOR.BOOT0*%
X105018019Y-75281981D03*
%TO.P,J6,6,Pin_6*%
%TO.N,/back_right_drive_motor/MOTOR.RST*%
X103957359Y-76342641D03*
%TO.P,J6,7,Pin_7*%
%TO.N,Net-(J6-Pin_7)*%
X102896699Y-77403301D03*
%TO.P,J6,8,Pin_8*%
%TO.N,/back_right_drive_motor/MOTOR.RX*%
X101836039Y-78463961D03*
%TO.P,J6,9,Pin_9*%
%TO.N,/back_right_drive_motor/MOTOR.CTS*%
X100775379Y-79524621D03*
%TO.P,J6,10,Pin_10*%
%TO.N,Net-(J6-Pin_10)*%
X99714718Y-80585282D03*
%TO.P,J6,11,Pin_11*%
%TO.N,GND*%
X98654058Y-81645942D03*
%TO.P,J6,12,Pin_12*%
%TO.N,+3V3*%
X97593398Y-82706602D03*
D13*
%TO.P,J6,MP*%
%TO.N,N/C*%
X107775736Y-65877461D03*
X92431519Y-81221678D03*
%TD*%
D14*
%TO.P,U9,1,SDI*%
%TO.N,Net-(U8-SDO)*%
X164750000Y-122300000D03*
%TO.P,U9,2,CKI*%
%TO.N,Net-(U8-CKO)*%
X164750000Y-120700000D03*
%TO.P,U9,3,GND*%
%TO.N,GND*%
X164750000Y-119100000D03*
%TO.P,U9,4,VCC*%
%TO.N,+5V*%
X159850000Y-119100000D03*
%TO.P,U9,5,CKO*%
%TO.N,Net-(U10-CKI)*%
X159850000Y-120700000D03*
%TO.P,U9,6,SDO*%
%TO.N,Net-(U10-SDI)*%
X159850000Y-122300000D03*
%TD*%
D15*
%TO.P,SW3,1*%
%TO.N,+3V3*%
X183690000Y-66700000D03*
%TO.P,SW3,2*%
%TO.N,VBUS*%
X181150000Y-66700000D03*
%TO.P,SW3,3*%
%TO.N,/mcu/USB_BOOT0_CONTROL*%
X181150000Y-75300000D03*
%TO.P,SW3,4*%
%TO.N,/mcu/USER_BOOT0_OVERRIDE*%
X183690000Y-75300000D03*
%TD*%
D16*
%TO.P,U6,1,SDI*%
%TO.N,Net-(U5-SDO)*%
X192048959Y-77886218D03*
%TO.P,U6,2,CKI*%
%TO.N,Net-(U5-CKO)*%
X190917588Y-79017588D03*
%TO.P,U6,3,GND*%
%TO.N,GND*%
X189786218Y-80148959D03*
D17*
%TO.P,U6,4,VCC*%
%TO.N,+5V*%
X193251041Y-83613782D03*
%TO.P,U6,5,CKO*%
%TO.N,Net-(U6-CKO)*%
X194382412Y-82482412D03*
%TO.P,U6,6,SDO*%
%TO.N,Net-(U6-SDO)*%
X195513782Y-81351041D03*
%TD*%
D14*
%TO.P,U11,1,SDI*%
%TO.N,Net-(U10-SDO)*%
X138250000Y-122300000D03*
%TO.P,U11,2,CKI*%
%TO.N,Net-(U10-CKO)*%
X138250000Y-120700000D03*
%TO.P,U11,3,GND*%
%TO.N,GND*%
X138250000Y-119100000D03*
%TO.P,U11,4,VCC*%
%TO.N,+5V*%
X133350000Y-119100000D03*
%TO.P,U11,5,CKO*%
%TO.N,Net-(U11-CKO)*%
X133350000Y-120700000D03*
%TO.P,U11,6,SDO*%
%TO.N,Net-(U11-SDO)*%
X133350000Y-122300000D03*
%TD*%
D18*
%TO.P,J5,1,Pin_1*%
%TO.N,GND*%
X129500000Y-126575000D03*
%TO.P,J5,2,Pin_2*%
%TO.N,/mcu/ODIN.~{DET}*%
X128500000Y-126575000D03*
%TO.P,J5,3,Pin_3*%
%TO.N,Net-(J5-Pin_3)*%
X127500000Y-126575000D03*
%TO.P,J5,4,Pin_4*%
%TO.N,/mcu/ODIN.CTS*%
X126500000Y-126575000D03*
%TO.P,J5,5,Pin_5*%
%TO.N,/mcu/ODIN.RX*%
X125500000Y-126575000D03*
%TO.P,J5,6,Pin_6*%
%TO.N,Net-(J5-Pin_6)*%
X124500000Y-126575000D03*
%TO.P,J5,7,Pin_7*%
%TO.N,/mcu/ODIN.BOOT0*%
X123500000Y-126575000D03*
%TO.P,J5,8,Pin_8*%
%TO.N,/mcu/ODIN.~{RST}*%
X122500000Y-126575000D03*
%TO.P,J5,9,Pin_9*%
%TO.N,+3V3*%
X121500000Y-126575000D03*
%TO.P,J5,10,Pin_10*%
%TO.N,+5V*%
X120500000Y-126575000D03*
D19*
%TO.P,J5,MP,MountPin*%
%TO.N,GND*%
X130800000Y-129100000D03*
X119200000Y-129100000D03*
%TD*%
D20*
%TO.P,J12,1,Pin_1*%
%TO.N,/mcu/POWER.RX*%
X169100000Y-125500000D03*
%TO.P,J12,2,Pin_2*%
%TO.N,Net-(J12-Pin_2)*%
X170350000Y-125500000D03*
%TO.P,J12,3,Pin_3*%
%TO.N,unconnected-(J12-Pin_3-Pad3)*%
X171600000Y-125500000D03*
%TO.P,J12,4,Pin_4*%
%TO.N,unconnected-(J12-Pin_4-Pad4)*%
X172850000Y-125500000D03*
%TO.P,J12,5,Pin_5*%
%TO.N,GND*%
X174100000Y-125500000D03*
D21*
%TO.P,J12,MP*%
%TO.N,N/C*%
X167250000Y-128700000D03*
X175950000Y-128700000D03*
%TD*%
D22*
%TO.P,D3,1,A1*%
%TO.N,Net-(D3-A1)*%
X99849999Y-101025000D03*
%TO.P,D3,2,A2*%
%TO.N,/mcu/BOT_ID_DISPLAY.FL*%
X98999999Y-101025000D03*
%TO.P,D3,3,K1*%
X99849999Y-102475000D03*
%TO.P,D3,4,K2*%
%TO.N,Net-(D3-K2)*%
X98999999Y-102475000D03*
%TD*%
D14*
%TO.P,U8,1,SDI*%
%TO.N,Net-(U13-SDO)*%
X175650000Y-122300000D03*
%TO.P,U8,2,CKI*%
%TO.N,Net-(U13-CKO)*%
X175650000Y-120700000D03*
%TO.P,U8,3,GND*%
%TO.N,GND*%
X175650000Y-119100000D03*
%TO.P,U8,4,VCC*%
%TO.N,+5V*%
X170750000Y-119100000D03*
%TO.P,U8,5,CKO*%
%TO.N,Net-(U8-CKO)*%
X170750000Y-120700000D03*
%TO.P,U8,6,SDO*%
%TO.N,Net-(U8-SDO)*%
X170750000Y-122300000D03*
%TD*%
%TO.P,U14,1,SDI*%
%TO.N,Net-(U14-SDI)*%
X209950000Y-122300000D03*
%TO.P,U14,2,CKI*%
%TO.N,Net-(U14-CKI)*%
X209950000Y-120700000D03*
%TO.P,U14,3,GND*%
%TO.N,GND*%
X209950000Y-119100000D03*
%TO.P,U14,4,VCC*%
%TO.N,+5V*%
X205050000Y-119100000D03*
%TO.P,U14,5,CKO*%
%TO.N,Net-(U13-CKI)*%
X205050000Y-120700000D03*
%TO.P,U14,6,SDO*%
%TO.N,Net-(U13-SDI)*%
X205050000Y-122300000D03*
%TD*%
%TO.P,U13,1,SDI*%
%TO.N,Net-(U13-SDI)*%
X201450000Y-122300000D03*
%TO.P,U13,2,CKI*%
%TO.N,Net-(U13-CKI)*%
X201450000Y-120700000D03*
%TO.P,U13,3,GND*%
%TO.N,GND*%
X201450000Y-119100000D03*
%TO.P,U13,4,VCC*%
%TO.N,+5V*%
X196550000Y-119100000D03*
%TO.P,U13,5,CKO*%
%TO.N,Net-(U13-CKO)*%
X196550000Y-120700000D03*
%TO.P,U13,6,SDO*%
%TO.N,Net-(U13-SDO)*%
X196550000Y-122300000D03*
%TD*%
D15*
%TO.P,SW6,1*%
%TO.N,+3V3*%
X157390000Y-66700000D03*
%TO.P,SW6,2*%
X154850000Y-66700000D03*
%TO.P,SW6,3*%
X152310000Y-66700000D03*
%TO.P,SW6,4*%
X149770000Y-66700000D03*
%TO.P,SW6,5*%
X147230000Y-66700000D03*
%TO.P,SW6,6*%
X144690000Y-66700000D03*
%TO.P,SW6,7*%
X142150000Y-66700000D03*
%TO.P,SW6,8*%
X139610000Y-66700000D03*
%TO.P,SW6,9*%
%TO.N,Net-(R105-Pad2)*%
X139610000Y-75300000D03*
%TO.P,SW6,10*%
%TO.N,Net-(R104-Pad2)*%
X142150000Y-75300000D03*
%TO.P,SW6,11*%
%TO.N,Net-(R103-Pad2)*%
X144690000Y-75300000D03*
%TO.P,SW6,12*%
%TO.N,Net-(R102-Pad2)*%
X147230000Y-75300000D03*
%TO.P,SW6,13*%
%TO.N,Net-(R101-Pad2)*%
X149770000Y-75300000D03*
%TO.P,SW6,14*%
%TO.N,Net-(R100-Pad2)*%
X152310000Y-75300000D03*
%TO.P,SW6,15*%
%TO.N,Net-(R85-Pad1)*%
X154850000Y-75300000D03*
%TO.P,SW6,16*%
%TO.N,Net-(R84-Pad1)*%
X157390000Y-75300000D03*
%TD*%
D14*
%TO.P,U4,1,SDI*%
%TO.N,/mcu/DOTSTARS.MOSI*%
X99350000Y-135600000D03*
%TO.P,U4,2,CKI*%
%TO.N,/mcu/DOTSTARS.SCK*%
X99350000Y-134000000D03*
%TO.P,U4,3,GND*%
%TO.N,GND*%
X99350000Y-132400000D03*
%TO.P,U4,4,VCC*%
%TO.N,+5V*%
X94450000Y-132400000D03*
%TO.P,U4,5,CKO*%
%TO.N,Net-(U4-CKO)*%
X94450000Y-134000000D03*
%TO.P,U4,6,SDO*%
%TO.N,Net-(U4-SDO)*%
X94450000Y-135600000D03*
%TD*%
%TO.P,U7,1,SDI*%
%TO.N,Net-(U6-SDO)*%
X222550000Y-135600000D03*
%TO.P,U7,2,CKI*%
%TO.N,Net-(U6-CKO)*%
X222550000Y-134000000D03*
%TO.P,U7,3,GND*%
%TO.N,GND*%
X222550000Y-132400000D03*
%TO.P,U7,4,VCC*%
%TO.N,+5V*%
X217650000Y-132400000D03*
%TO.P,U7,5,CKO*%
%TO.N,Net-(U14-CKI)*%
X217650000Y-134000000D03*
%TO.P,U7,6,SDO*%
%TO.N,Net-(U14-SDI)*%
X217650000Y-135600000D03*
%TD*%
D23*
%TO.P,SW4,1,1*%
%TO.N,Net-(R64-Pad1)*%
X134310000Y-73040000D03*
D24*
%TO.P,SW4,3,4*%
%TO.N,Net-(SW4-4)*%
X134310000Y-67960000D03*
%TO.P,SW4,4,2*%
%TO.N,Net-(SW4-2)*%
X126690000Y-67960000D03*
%TO.P,SW4,6,8*%
%TO.N,Net-(SW4-8)*%
X126690000Y-73040000D03*
%TO.P,SW4,C,C*%
%TO.N,+3V3*%
X134310000Y-70500000D03*
X126690000Y-70500000D03*
%TD*%
D25*
%TO.P,R83,1*%
%TO.N,/mcu/BOT_ID_DISPLAY.SrcDisagree*%
X116150000Y-69670000D03*
%TO.P,R83,2*%
%TO.N,Net-(D8-A)*%
X116150000Y-68650000D03*
%TD*%
D26*
%TO.P,C1,1*%
%TO.N,+3V3*%
X116400000Y-73080000D03*
%TO.P,C1,2*%
%TO.N,GND*%
X116400000Y-72120000D03*
%TD*%
D15*
%TO.P,SW5,1*%
%TO.N,+3V3*%
X122290000Y-66700000D03*
%TO.P,SW5,2*%
X119750000Y-66700000D03*
%TO.P,SW5,3*%
%TO.N,Net-(R75-Pad1)*%
X119750000Y-75300000D03*
%TO.P,SW5,4*%
%TO.N,Net-(R74-Pad1)*%
X122290000Y-75300000D03*
%TD*%
D24*
%TO.P,SW11,1,1*%
%TO.N,Net-(C36-Pad1)*%
X185730000Y-102750000D03*
%TO.P,SW11,2,2*%
%TO.N,Net-(R115-Pad1)*%
X192230000Y-102750000D03*
%TO.P,SW11,3,3*%
%TO.N,GND*%
X185730000Y-107250000D03*
%TO.P,SW11,4,4*%
%TO.N,unconnected-(SW11-Pad4)*%
X192230000Y-107250000D03*
%TD*%
%TO.P,SW8,1,1*%
%TO.N,Net-(C33-Pad1)*%
X195750000Y-102750000D03*
%TO.P,SW8,2,2*%
%TO.N,Net-(R94-Pad1)*%
X202250000Y-102750000D03*
%TO.P,SW8,3,3*%
%TO.N,GND*%
X195750000Y-107250000D03*
%TO.P,SW8,4,4*%
%TO.N,unconnected-(SW8-Pad4)*%
X202250000Y-107250000D03*
%TD*%
D27*
%TO.P,J8,1,Pin_1*%
%TO.N,Net-(J8-Pin_1)*%
X203350000Y-139295000D03*
%TO.P,J8,2,Pin_2*%
X204850000Y-139295000D03*
%TO.P,J8,3,Pin_3*%
%TO.N,GND*%
X206350000Y-139295000D03*
%TO.P,J8,4,Pin_4*%
X207850000Y-139295000D03*
%TO.P,J8,5,Pin_5*%
%TO.N,/front_left_drive_motor/MOTOR.BOOT0*%
X209350000Y-139295000D03*
%TO.P,J8,6,Pin_6*%
%TO.N,/front_left_drive_motor/MOTOR.RST*%
X210850000Y-139295000D03*
%TO.P,J8,7,Pin_7*%
%TO.N,Net-(J8-Pin_7)*%
X212350000Y-139295000D03*
%TO.P,J8,8,Pin_8*%
%TO.N,/front_left_drive_motor/MOTOR.RX*%
X213850000Y-139295000D03*
%TO.P,J8,9,Pin_9*%
%TO.N,/front_left_drive_motor/MOTOR.CTS*%
X215350000Y-139295000D03*
%TO.P,J8,10,Pin_10*%
%TO.N,Net-(J8-Pin_10)*%
X216850000Y-139295000D03*
%TO.P,J8,11,Pin_11*%
%TO.N,GND*%
X218350000Y-139295000D03*
%TO.P,J8,12,Pin_12*%
%TO.N,+3V3*%
X219850000Y-139295000D03*
D28*
%TO.P,J8,MP*%
%TO.N,N/C*%
X200750000Y-143995000D03*
X222450000Y-143995000D03*
%TD*%
D29*
%TO.P,H1,1*%
%TO.N,N/C*%
X81000000Y-105000000D03*
D30*
X81000000Y-105000000D03*
%TD*%
D31*
%TO.P,D10,1,K*%
%TO.N,GND*%
X98800000Y-92700000D03*
%TO.P,D10,2,A*%
%TO.N,Net-(D10-A)*%
X98800000Y-94200000D03*
%TD*%
D32*
%TO.P,P1,A1,GND*%
%TO.N,GND*%
X176000000Y-69715000D03*
%TO.P,P1,A2*%
%TO.N,N/C*%
X175500000Y-69715000D03*
%TO.P,P1,A3*%
X175000000Y-69715000D03*
%TO.P,P1,A4,VBUS*%
%TO.N,VBUS*%
X174500000Y-69715000D03*
%TO.P,P1,A5,CC1*%
%TO.N,Net-(P1-CC1)*%
X174000000Y-69715000D03*
%TO.P,P1,A6,D+*%
%TO.N,/mcu/USB_HS_D_P*%
X173500000Y-69715000D03*
%TO.P,P1,A7,D-*%
%TO.N,/mcu/USB_HS_D_N*%
X172500000Y-69715000D03*
%TO.P,P1,A8*%
%TO.N,N/C*%
X172000000Y-69715000D03*
%TO.P,P1,A9,VBUS*%
%TO.N,VBUS*%
X171500000Y-69715000D03*
%TO.P,P1,A10*%
%TO.N,N/C*%
X171000000Y-69715000D03*
%TO.P,P1,A11*%
X170500000Y-69715000D03*
%TO.P,P1,A12,GND*%
%TO.N,GND*%
X170000000Y-69715000D03*
D33*
%TO.P,P1,B1,GND*%
X169900000Y-68415000D03*
D32*
%TO.P,P1,B2*%
%TO.N,N/C*%
X170750000Y-68415000D03*
%TO.P,P1,B3*%
X171250000Y-68415000D03*
%TO.P,P1,B4,VBUS*%
%TO.N,VBUS*%
X171750000Y-68415000D03*
%TO.P,P1,B5,CC2*%
%TO.N,Net-(P1-CC2)*%
X172250000Y-68415000D03*
%TO.P,P1,B6,D+*%
%TO.N,/mcu/USB_HS_D_P*%
X172750000Y-68415000D03*
%TO.P,P1,B7,D-*%
%TO.N,/mcu/USB_HS_D_N*%
X173250000Y-68415000D03*
%TO.P,P1,B8*%
%TO.N,N/C*%
X173750000Y-68415000D03*
%TO.P,P1,B9,VBUS*%
%TO.N,VBUS*%
X174250000Y-68415000D03*
%TO.P,P1,B10*%
%TO.N,N/C*%
X174750000Y-68415000D03*
%TO.P,P1,B11*%
X175250000Y-68415000D03*
D33*
%TO.P,P1,B12,GND*%
%TO.N,GND*%
X176100000Y-68415000D03*
D34*
%TO.P,P1,S1,SHIELD*%
X177320000Y-69305000D03*
D35*
X177320000Y-63945000D03*
D34*
X168680000Y-69305000D03*
D35*
X168680000Y-63945000D03*
%TD*%
D27*
%TO.P,J3,1,Pin_1*%
%TO.N,Net-(J3-Pin_1)*%
X80150000Y-139295000D03*
%TO.P,J3,2,Pin_2*%
X81650000Y-139295000D03*
%TO.P,J3,3,Pin_3*%
%TO.N,GND*%
X83150000Y-139295000D03*
%TO.P,J3,4,Pin_4*%
X84650000Y-139295000D03*
%TO.P,J3,5,Pin_5*%
%TO.N,/front_right_drive_motor/MOTOR.BOOT0*%
X86150000Y-139295000D03*
%TO.P,J3,6,Pin_6*%
%TO.N,/front_right_drive_motor/MOTOR.RST*%
X87650000Y-139295000D03*
%TO.P,J3,7,Pin_7*%
%TO.N,Net-(J3-Pin_7)*%
X89150000Y-139295000D03*
%TO.P,J3,8,Pin_8*%
%TO.N,/front_right_drive_motor/MOTOR.RX*%
X90650000Y-139295000D03*
%TO.P,J3,9,Pin_9*%
%TO.N,/front_right_drive_motor/MOTOR.CTS*%
X92150000Y-139295000D03*
%TO.P,J3,10,Pin_10*%
%TO.N,Net-(J3-Pin_10)*%
X93650000Y-139295000D03*
%TO.P,J3,11,Pin_11*%
%TO.N,GND*%
X95150000Y-139295000D03*
%TO.P,J3,12,Pin_12*%
%TO.N,+3V3*%
X96650000Y-139295000D03*
D28*
%TO.P,J3,MP*%
%TO.N,N/C*%
X77550000Y-143995000D03*
X99250000Y-143995000D03*
%TD*%
D31*
%TO.P,D12,1,K*%
%TO.N,GND*%
X102400000Y-92700000D03*
%TO.P,D12,2,A*%
%TO.N,Net-(D12-A)*%
X102400000Y-94200000D03*
%TD*%
D36*
%TO.P,R57,1*%
%TO.N,+BATT*%
X196100000Y-131090000D03*
%TO.P,R57,2*%
%TO.N,Net-(D2-A)*%
X196100000Y-132110000D03*
%TD*%
D37*
%TO.P,F2,1*%
%TO.N,+BATT*%
X114151821Y-76951821D03*
%TO.P,F2,2*%
%TO.N,Net-(J6-Pin_1)*%
X112048179Y-74848179D03*
%TD*%
D24*
%TO.P,SW12,1,1*%
%TO.N,Net-(C37-Pad1)*%
X195750000Y-94750000D03*
%TO.P,SW12,2,2*%
%TO.N,Net-(R117-Pad1)*%
X202250000Y-94750000D03*
%TO.P,SW12,3,3*%
%TO.N,GND*%
X195750000Y-99250000D03*
%TO.P,SW12,4,4*%
%TO.N,unconnected-(SW12-Pad4)*%
X202250000Y-99250000D03*
%TD*%
D38*
%TO.P,BZ1,*%
%TO.N,*%
X218950000Y-125750000D03*
%TO.P,BZ1,1,+*%
%TO.N,+3V3*%
X218950000Y-129250000D03*
%TO.P,BZ1,2,-*%
%TO.N,Net-(BZ1--)*%
X222750000Y-129250000D03*
%TD*%
D39*
%TO.P,R15,1*%
%TO.N,Net-(P1-CC1)*%
X174490000Y-72000000D03*
%TO.P,R15,2*%
%TO.N,GND*%
X175510000Y-72000000D03*
%TD*%
D40*
%TO.P,H5,1*%
%TO.N,N/C*%
X115500000Y-89500000D03*
%TD*%
D22*
%TO.P,D6,1,A1*%
%TO.N,Net-(D6-A1)*%
X98600000Y-106275001D03*
%TO.P,D6,2,A2*%
%TO.N,/mcu/BOT_ID_DISPLAY.BL*%
X97750000Y-106275001D03*
%TO.P,D6,3,K1*%
X98600000Y-107725001D03*
%TO.P,D6,4,K2*%
%TO.N,Net-(D6-K2)*%
X97750000Y-107725001D03*
%TD*%
D29*
%TO.P,H4,1*%
%TO.N,N/C*%
X178500000Y-98000000D03*
D30*
X178500000Y-98000000D03*
%TD*%
D31*
%TO.P,D13,1,K*%
%TO.N,GND*%
X104200000Y-92700000D03*
%TO.P,D13,2,A*%
%TO.N,Net-(D13-A)*%
X104200000Y-94200000D03*
%TD*%
D24*
%TO.P,SW10,1,1*%
%TO.N,Net-(C35-Pad1)*%
X205750000Y-102750000D03*
%TO.P,SW10,2,2*%
%TO.N,Net-(R114-Pad1)*%
X212250000Y-102750000D03*
%TO.P,SW10,3,3*%
%TO.N,GND*%
X205750000Y-107250000D03*
%TO.P,SW10,4,4*%
%TO.N,unconnected-(SW10-Pad4)*%
X212250000Y-107250000D03*
%TD*%
D41*
%TO.P,J14,1,Pin_1*%
%TO.N,+3V3*%
X81550000Y-126225000D03*
%TO.P,J14,2,Pin_2*%
%TO.N,/mcu/SHELL_DETECT.SDA*%
X81550000Y-124975000D03*
%TO.P,J14,3,Pin_3*%
%TO.N,/mcu/SHELL_DETECT.SCL*%
X81550000Y-123725000D03*
%TO.P,J14,4,Pin_4*%
%TO.N,/mcu/SHELL_DETECT.RST*%
X81550000Y-122475000D03*
%TO.P,J14,5,Pin_5*%
%TO.N,/mcu/SHELL_DETECT.LIGHT*%
X81550000Y-121225000D03*
%TO.P,J14,6,Pin_6*%
%TO.N,GND*%
X81550000Y-119975000D03*
D42*
%TO.P,J14,MP*%
%TO.N,N/C*%
X78200000Y-128075000D03*
X78200000Y-118125000D03*
%TD*%
D22*
%TO.P,D4,1,A1*%
%TO.N,Net-(D4-A1)*%
X103850001Y-101025000D03*
%TO.P,D4,2,A2*%
%TO.N,/mcu/BOT_ID_DISPLAY.FR*%
X103000001Y-101025000D03*
%TO.P,D4,3,K1*%
X103850001Y-102475000D03*
%TO.P,D4,4,K2*%
%TO.N,Net-(D4-K2)*%
X103000001Y-102475000D03*
%TD*%
D26*
%TO.P,C2,1*%
%TO.N,+3V3*%
X115200000Y-73080000D03*
%TO.P,C2,2*%
%TO.N,GND*%
X115200000Y-72120000D03*
%TD*%
D43*
%TO.P,U2,1,SDO*%
%TO.N,/imu/IMU.MISO*%
X148837500Y-118050000D03*
%TO.P,U2,2,NC*%
%TO.N,unconnected-(U2-NC-Pad2)*%
X148837500Y-118550000D03*
%TO.P,U2,3,NC*%
%TO.N,unconnected-(U2-NC-Pad3)*%
X148837500Y-119050000D03*
%TO.P,U2,4,INT1*%
%TO.N,Net-(U2-INT1)*%
X148837500Y-119550000D03*
D44*
%TO.P,U2,5,VDDIO*%
%TO.N,+3V3*%
X149500000Y-119712500D03*
%TO.P,U2,6,GNDIO*%
%TO.N,GND*%
X150000000Y-119712500D03*
%TO.P,U2,7,GND*%
X150500000Y-119712500D03*
D43*
%TO.P,U2,8,VDD*%
%TO.N,+3V3*%
X151162500Y-119550000D03*
%TO.P,U2,9,INT2*%
%TO.N,Net-(U2-INT2)*%
X151162500Y-119050000D03*
%TO.P,U2,10,NC*%
%TO.N,unconnected-(U2-NC-Pad10)*%
X151162500Y-118550000D03*
%TO.P,U2,11,NC*%
%TO.N,unconnected-(U2-NC-Pad11)*%
X151162500Y-118050000D03*
D44*
%TO.P,U2,12,CSB*%
%TO.N,/imu/IMU.~{SS}0*%
X150500000Y-117887500D03*
%TO.P,U2,13,SCx*%
%TO.N,/imu/IMU.SCK*%
X150000000Y-117887500D03*
%TO.P,U2,14,SDx*%
%TO.N,/imu/IMU.MOSI*%
X149500000Y-117887500D03*
%TD*%
D40*
%TO.P,H7,1*%
%TO.N,N/C*%
X115500000Y-129500000D03*
%TD*%
D45*
%TO.P,F1,1*%
%TO.N,+BATT*%
X80900000Y-131612500D03*
%TO.P,F1,2*%
%TO.N,Net-(J3-Pin_1)*%
X80900000Y-134587500D03*
%TD*%
D26*
%TO.P,C28,1*%
%TO.N,+3V3*%
X149750000Y-122030000D03*
%TO.P,C28,2*%
%TO.N,GND*%
X149750000Y-121070000D03*
%TD*%
D46*
%TO.P,J2,1,VTref*%
%TO.N,+3V3*%
X214082986Y-86909117D03*
%TO.P,J2,2,SWDIO/TMS*%
%TO.N,/mcu/SWDIO*%
X211509117Y-89482986D03*
%TO.P,J2,3,GND*%
%TO.N,GND*%
X213184960Y-86011091D03*
%TO.P,J2,4,SWCLK/TCK*%
%TO.N,/mcu/SWCLK*%
X210611091Y-88584960D03*
%TO.P,J2,5,GND*%
%TO.N,GND*%
X212286934Y-85113066D03*
%TO.P,J2,6,SWO/TDO*%
%TO.N,unconnected-(J2-SWO{slash}TDO-Pad6)*%
X209713066Y-87686934D03*
%TO.P,J2,7,KEY*%
%TO.N,unconnected-(J2-KEY-Pad7)*%
X211388909Y-84215040D03*
%TO.P,J2,8,NC/TDI*%
%TO.N,unconnected-(J2-NC{slash}TDI-Pad8)*%
X208815040Y-86788909D03*
%TO.P,J2,9,GNDDetect*%
%TO.N,GND*%
X210490883Y-83317014D03*
%TO.P,J2,10,~{RESET}*%
%TO.N,/mcu/NRST*%
X207917014Y-85890883D03*
%TD*%
D20*
%TO.P,J9,1,Pin_1*%
%TO.N,+5V*%
X152025000Y-125500000D03*
%TO.P,J9,2,Pin_2*%
%TO.N,+3V3*%
X153275000Y-125500000D03*
%TO.P,J9,3,Pin_3*%
%TO.N,GND*%
X154525000Y-125500000D03*
%TO.P,J9,4,Pin_4*%
X155775000Y-125500000D03*
%TO.P,J9,5,Pin_5*%
%TO.N,/kicker/KICKER.BOOT0*%
X157025000Y-125500000D03*
%TO.P,J9,6,Pin_6*%
%TO.N,/kicker/KICKER.RST*%
X158275000Y-125500000D03*
%TO.P,J9,7,Pin_7*%
%TO.N,Net-(J9-Pin_7)*%
X159525000Y-125500000D03*
%TO.P,J9,8,Pin_8*%
%TO.N,/kicker/KICKER.RX*%
X160775000Y-125500000D03*
%TO.P,J9,9,Pin_9*%
%TO.N,/kicker/KICKER.CTS*%
X162025000Y-125500000D03*
%TO.P,J9,10,Pin_10*%
%TO.N,Net-(J9-Pin_10)*%
X163275000Y-125500000D03*
D21*
%TO.P,J9,MP,MountPin*%
%TO.N,GND*%
X150175000Y-128700000D03*
X165125000Y-128700000D03*
%TD*%
D47*
%TO.P,J7,1,Pin_1*%
%TO.N,Net-(J7-Pin_1)*%
X202396643Y-82670619D03*
%TO.P,J7,2,Pin_2*%
X201335983Y-81609959D03*
%TO.P,J7,3,Pin_3*%
%TO.N,GND*%
X200275323Y-80549299D03*
%TO.P,J7,4,Pin_4*%
X199214662Y-79488638D03*
%TO.P,J7,5,Pin_5*%
%TO.N,/back_left_drive_motor/MOTOR.BOOT0*%
X198154002Y-78427978D03*
%TO.P,J7,6,Pin_6*%
%TO.N,/back_left_drive_motor/MOTOR.RST*%
X197093342Y-77367318D03*
%TO.P,J7,7,Pin_7*%
%TO.N,Net-(J7-Pin_7)*%
X196032682Y-76306658D03*
%TO.P,J7,8,Pin_8*%
%TO.N,/back_left_drive_motor/MOTOR.RX*%
X194972022Y-75245998D03*
%TO.P,J7,9,Pin_9*%
%TO.N,/back_left_drive_motor/MOTOR.CTS*%
X193911362Y-74185338D03*
%TO.P,J7,10,Pin_10*%
%TO.N,Net-(J7-Pin_10)*%
X192850701Y-73124677D03*
%TO.P,J7,11,Pin_11*%
%TO.N,GND*%
X191790041Y-72064017D03*
%TO.P,J7,12,Pin_12*%
%TO.N,+3V3*%
X190729381Y-71003357D03*
D48*
%TO.P,J7,MP*%
%TO.N,N/C*%
X207558522Y-81185695D03*
X192214305Y-65841478D03*
%TD*%
D24*
%TO.P,SW7,1,1*%
%TO.N,Net-(C32-Pad1)*%
X205750000Y-94750000D03*
%TO.P,SW7,2,2*%
%TO.N,Net-(R93-Pad1)*%
X212250000Y-94750000D03*
%TO.P,SW7,3,3*%
%TO.N,GND*%
X205750000Y-99250000D03*
%TO.P,SW7,4,4*%
%TO.N,unconnected-(SW7-Pad4)*%
X212250000Y-99250000D03*
%TD*%
%TO.P,SW9,1,1*%
%TO.N,Net-(C34-Pad1)*%
X195750000Y-110750000D03*
%TO.P,SW9,2,2*%
%TO.N,Net-(R107-Pad1)*%
X202250000Y-110750000D03*
%TO.P,SW9,3,3*%
%TO.N,GND*%
X195750000Y-115250000D03*
%TO.P,SW9,4,4*%
%TO.N,unconnected-(SW9-Pad4)*%
X202250000Y-115250000D03*
%TD*%
D49*
%TO.P,SW2,1,1*%
%TO.N,GND*%
X220284924Y-94106245D03*
X215193755Y-89015076D03*
%TO.P,SW2,2,2*%
%TO.N,/mcu/NRST*%
X222406245Y-91984924D03*
X217315076Y-86893755D03*
%TD*%
D20*
%TO.P,J10,1,Pin_1*%
%TO.N,+5V*%
X134875000Y-125450000D03*
%TO.P,J10,2,Pin_2*%
%TO.N,+3V3*%
X136125000Y-125450000D03*
%TO.P,J10,3,Pin_3*%
%TO.N,GND*%
X137375000Y-125450000D03*
%TO.P,J10,4,Pin_4*%
X138625000Y-125450000D03*
%TO.P,J10,5,Pin_5*%
%TO.N,/mcu/OPTICAL_FLOW.BOOT0*%
X139875000Y-125450000D03*
%TO.P,J10,6,Pin_6*%
%TO.N,/mcu/OPTICAL_FLOW.RST*%
X141125000Y-125450000D03*
%TO.P,J10,7,Pin_7*%
%TO.N,Net-(J10-Pin_7)*%
X142375000Y-125450000D03*
%TO.P,J10,8,Pin_8*%
%TO.N,/mcu/OPTICAL_FLOW.RX*%
X143625000Y-125450000D03*
%TO.P,J10,9,Pin_9*%
%TO.N,/mcu/OPTICAL_FLOW.CTS*%
X144875000Y-125450000D03*
%TO.P,J10,10,Pin_10*%
%TO.N,Net-(J10-Pin_10)*%
X146125000Y-125450000D03*
D21*
%TO.P,J10,MP,MountPin*%
%TO.N,GND*%
X133025000Y-128650000D03*
X147975000Y-128650000D03*
%TD*%
D50*
%TO.P,SW1,1*%
%TO.N,+3V3*%
X164900000Y-75450000D03*
%TO.P,SW1,2*%
%TO.N,Net-(R1-Pad1)*%
X164900000Y-66550000D03*
%TD*%
D31*
%TO.P,D8,1,K*%
%TO.N,GND*%
X116150000Y-65750000D03*
%TO.P,D8,2,A*%
%TO.N,Net-(D8-A)*%
X116150000Y-67250000D03*
%TD*%
%TO.P,D2,1,K*%
%TO.N,GND*%
X196100000Y-135050000D03*
%TO.P,D2,2,A*%
%TO.N,Net-(D2-A)*%
X196100000Y-133550000D03*
%TD*%
D51*
%TO.P,J4,1,Pin_1*%
%TO.N,GND*%
X185675000Y-86100000D03*
%TO.P,J4,2,Pin_2*%
%TO.N,/imu/IMU.~{DET}*%
X185675000Y-87100000D03*
%TO.P,J4,3,Pin_3*%
%TO.N,/imu/IMU.INT2*%
X185675000Y-88100000D03*
%TO.P,J4,4,Pin_4*%
%TO.N,/imu/IMU.INT1*%
X185675000Y-89100000D03*
%TO.P,J4,5,Pin_5*%
%TO.N,/imu/IMU.SCK*%
X185675000Y-90100000D03*
%TO.P,J4,6,Pin_6*%
%TO.N,/imu/IMU.MISO*%
X185675000Y-91100000D03*
%TO.P,J4,7,Pin_7*%
%TO.N,/imu/IMU.MOSI*%
X185675000Y-92100000D03*
%TO.P,J4,8,Pin_8*%
%TO.N,/imu/IMU.~{SS}3*%
X185675000Y-93100000D03*
%TO.P,J4,9,Pin_9*%
%TO.N,/imu/IMU.~{SS}2*%
X185675000Y-94100000D03*
%TO.P,J4,10,Pin_10*%
%TO.N,/imu/IMU.~{SS}1*%
X185675000Y-95100000D03*
%TO.P,J4,11,Pin_11*%
%TO.N,+3V3*%
X185675000Y-96100000D03*
D52*
%TO.P,J4,MP,MountPin*%
%TO.N,GND*%
X188200000Y-84800000D03*
X188200000Y-97400000D03*
%TD*%
D53*
%TO.P,F3,1*%
%TO.N,+BATT*%
X196448179Y-87551821D03*
%TO.P,F3,2*%
%TO.N,Net-(J7-Pin_1)*%
X198551821Y-85448179D03*
%TD*%
D45*
%TO.P,F4,1*%
%TO.N,+BATT*%
X204100000Y-131612500D03*
%TO.P,F4,2*%
%TO.N,Net-(J8-Pin_1)*%
X204100000Y-134587500D03*
%TD*%
D22*
%TO.P,D7,1,A1*%
%TO.N,Net-(D7-A1)*%
X105100000Y-106275001D03*
%TO.P,D7,2,A2*%
%TO.N,/mcu/BOT_ID_DISPLAY.BR*%
X104250000Y-106275001D03*
%TO.P,D7,3,K1*%
X105100000Y-107725001D03*
%TO.P,D7,4,K2*%
%TO.N,Net-(D7-K2)*%
X104250000Y-107725001D03*
%TD*%
D14*
%TO.P,U10,1,SDI*%
%TO.N,Net-(U10-SDI)*%
X145950000Y-122300000D03*
%TO.P,U10,2,CKI*%
%TO.N,Net-(U10-CKI)*%
X145950000Y-120700000D03*
%TO.P,U10,3,GND*%
%TO.N,GND*%
X145950000Y-119100000D03*
%TO.P,U10,4,VCC*%
%TO.N,+5V*%
X141050000Y-119100000D03*
%TO.P,U10,5,CKO*%
%TO.N,Net-(U10-CKO)*%
X141050000Y-120700000D03*
%TO.P,U10,6,SDO*%
%TO.N,Net-(U10-SDO)*%
X141050000Y-122300000D03*
%TD*%
D31*
%TO.P,D11,1,K*%
%TO.N,GND*%
X100600000Y-92700000D03*
%TO.P,D11,2,A*%
%TO.N,Net-(D11-A)*%
X100600000Y-94200000D03*
%TD*%
D29*
%TO.P,H2,1*%
%TO.N,N/C*%
X219000000Y-105000000D03*
D30*
X219000000Y-105000000D03*
%TD*%
D26*
%TO.P,C29,1*%
%TO.N,+3V3*%
X150750000Y-122030000D03*
%TO.P,C29,2*%
%TO.N,GND*%
X150750000Y-121070000D03*
%TD*%
D40*
%TO.P,H8,1*%
%TO.N,N/C*%
X87500000Y-129500000D03*
%TD*%
D54*
%TO.P,R126,1*%
%TO.N,Net-(P1-CC2)*%
X170520000Y-72000000D03*
%TO.P,R126,2*%
%TO.N,GND*%
X169500000Y-72000000D03*
%TD*%
D14*
%TO.P,U12,1,SDI*%
%TO.N,Net-(U11-SDO)*%
X124250000Y-122300000D03*
%TO.P,U12,2,CKI*%
%TO.N,Net-(U11-CKO)*%
X124250000Y-120700000D03*
%TO.P,U12,3,GND*%
%TO.N,GND*%
X124250000Y-119100000D03*
%TO.P,U12,4,VCC*%
%TO.N,+5V*%
X119350000Y-119100000D03*
%TO.P,U12,5,CKO*%
%TO.N,unconnected-(U12-CKO-Pad5)*%
X119350000Y-120700000D03*
%TO.P,U12,6,SDO*%
%TO.N,unconnected-(U12-SDO-Pad6)*%
X119350000Y-122300000D03*
%TD*%
D40*
%TO.P,H6,1*%
%TO.N,N/C*%
X87500000Y-89500000D03*
%TD*%
D29*
%TO.P,H3,1*%
%TO.N,N/C*%
X123500000Y-98000000D03*
D30*
X123500000Y-98000000D03*
%TD*%
D55*
%TO.P,U5,1,SDI*%
%TO.N,Net-(U4-SDO)*%
X104476259Y-81637024D03*
%TO.P,U5,2,CKI*%
%TO.N,Net-(U4-CKO)*%
X105607629Y-82768395D03*
%TO.P,U5,3,GND*%
%TO.N,GND*%
X106739000Y-83899765D03*
D56*
%TO.P,U5,4,VCC*%
%TO.N,+5V*%
X110203823Y-80434942D03*
%TO.P,U5,5,CKO*%
%TO.N,Net-(U5-CKO)*%
X109072453Y-79303571D03*
%TO.P,U5,6,SDO*%
%TO.N,Net-(U5-SDO)*%
X107941082Y-78172201D03*
%TD*%
D57*
%TO.P,J15,1,Pin_1*%
%TO.N,Net-(J15-Pin_1)*%
X96425000Y-128275000D03*
D58*
%TO.P,J15,2,Pin_2*%
%TO.N,unconnected-(J15-Pin_2-Pad2)*%
X96425000Y-125735000D03*
%TO.P,J15,3,Pin_3*%
%TO.N,GND*%
X98965000Y-128275000D03*
%TO.P,J15,4,Pin_4*%
X98965000Y-125735000D03*
%TO.P,J15,5,Pin_5*%
%TO.N,/display/LCD.TX*%
X101505000Y-128275000D03*
%TO.P,J15,6,Pin_6*%
%TO.N,unconnected-(J15-Pin_6-Pad6)*%
X101505000Y-125735000D03*
%TO.P,J15,7,Pin_7*%
%TO.N,/display/LCD.RX*%
X104045000Y-128275000D03*
%TO.P,J15,8,Pin_8*%
%TO.N,unconnected-(J15-Pin_8-Pad8)*%
X104045000Y-125735000D03*
%TO.P,J15,9,Pin_9*%
%TO.N,+5V*%
X106585000Y-128275000D03*
%TO.P,J15,10,Pin_10*%
%TO.N,unconnected-(J15-Pin_10-Pad10)*%
X106585000Y-125735000D03*
%TD*%
D22*
%TO.P,D5,1,A1*%
%TO.N,Net-(D5-A1)*%
X101000000Y-104275000D03*
%TO.P,D5,2,A2*%
%TO.N,/mcu/BOT_ID_DISPLAY.TeamBlue*%
X101850000Y-104275000D03*
%TO.P,D5,3,K1*%
X101000000Y-105725000D03*
%TO.P,D5,4,K2*%
%TO.N,Net-(D5-K2)*%
X101850000Y-105725000D03*
%TD*%
D59*
%TO.P,J11,1,Pin_1*%
%TO.N,GND*%
X196100000Y-139700000D03*
D40*
%TO.P,J11,2,Pin_2*%
%TO.N,+BATT*%
X196100000Y-144700000D03*
%TD*%
D60*
%TO.N,Net-(BZ1--)*%
X222750000Y-129250000D03*
%TO.N,+3V3*%
X183690000Y-66700000D03*
X188309999Y-88100000D03*
X196500000Y-73750000D03*
X121500000Y-126575000D03*
X183200000Y-123100000D03*
X146250000Y-112200000D03*
X105909999Y-101000000D03*
X126500000Y-128509999D03*
X219850000Y-139295000D03*
X151250000Y-112200000D03*
X184000000Y-123100000D03*
X152310000Y-66700000D03*
X160850000Y-111200000D03*
X181725000Y-107600000D03*
X214082986Y-86909117D03*
X143600000Y-127309999D03*
X182400000Y-123900000D03*
X147230000Y-66700000D03*
X187809999Y-104400000D03*
X162000000Y-127209999D03*
X100439376Y-77039376D03*
X149770000Y-66700000D03*
X98700000Y-104190001D03*
X90700000Y-141309999D03*
X197809999Y-96500000D03*
X213800000Y-141309999D03*
X162735691Y-99090376D03*
X144690000Y-66700000D03*
X147250000Y-87300000D03*
X190729381Y-71003357D03*
X141100000Y-112250000D03*
X197859999Y-112500000D03*
X117020000Y-74200000D03*
X183200000Y-123900000D03*
X136990000Y-97810000D03*
X195460624Y-72689376D03*
X153275000Y-125500000D03*
X162670000Y-104500000D03*
X197809999Y-104500000D03*
X152000000Y-87280000D03*
X185675000Y-96099999D03*
X136125000Y-125450000D03*
X184000000Y-123900000D03*
X136950000Y-103100000D03*
X107109999Y-106200000D03*
X160750000Y-127209999D03*
X79690000Y-125000000D03*
X144800000Y-127309999D03*
X218950000Y-129250000D03*
X157750000Y-112200000D03*
X96650000Y-139295000D03*
X135980000Y-96800000D03*
X92200000Y-141309999D03*
X81550000Y-126225000D03*
X142150000Y-66700000D03*
X97593398Y-82706602D03*
X207859999Y-104550000D03*
X157390000Y-66700000D03*
X125500000Y-128509999D03*
X79690000Y-123700000D03*
X216500000Y-125900000D03*
X100000000Y-98990001D03*
X162750000Y-93600000D03*
X169100000Y-127409999D03*
X154850000Y-66700000D03*
X188309999Y-89100000D03*
X100900000Y-102190001D03*
X207809999Y-96400000D03*
X159750000Y-88980000D03*
X149750000Y-122030000D03*
X139610000Y-66700000D03*
X215300000Y-141309999D03*
X164900000Y-75450000D03*
X150750000Y-122030000D03*
X137650000Y-90980000D03*
X182400000Y-123100000D03*
%TO.N,GND*%
X87700000Y-141309999D03*
X163630000Y-108650000D03*
X158000000Y-109300000D03*
X152000000Y-86300000D03*
X213184960Y-86011091D03*
X149750000Y-121070000D03*
X177249999Y-108300000D03*
X103639376Y-73839376D03*
X123890000Y-76400000D03*
X163610000Y-105550000D03*
X169900000Y-68415000D03*
X185675000Y-86100001D03*
X102900000Y-104609999D03*
X152350000Y-73440001D03*
X154525000Y-125500000D03*
X142150000Y-73440001D03*
X100600000Y-92699999D03*
X166270000Y-99000000D03*
X154850000Y-73440001D03*
X165075000Y-128650000D03*
X155775000Y-125500000D03*
X222737500Y-130200000D03*
X129500000Y-126575000D03*
X86200000Y-141309999D03*
X138250000Y-119100000D03*
X124250000Y-119100000D03*
X102539376Y-74939376D03*
X189786218Y-80148959D03*
X199650000Y-76900000D03*
X164900000Y-64780001D03*
X186000000Y-120300000D03*
X163710000Y-93600000D03*
X186800000Y-121900000D03*
X188200000Y-97400000D03*
X209950000Y-119100000D03*
X146250000Y-113160000D03*
X119200000Y-129100000D03*
X146500000Y-109300000D03*
X84650000Y-138450000D03*
X163680000Y-99100000D03*
X160850000Y-114169998D03*
X128700000Y-65890001D03*
X212286934Y-85113066D03*
X107197506Y-73197505D03*
X102000000Y-107809999D03*
X185200000Y-119500000D03*
X157000000Y-127209999D03*
X188200000Y-84800000D03*
X106600000Y-72600000D03*
X207850000Y-138450000D03*
X184400000Y-120300000D03*
X147000000Y-90400000D03*
X140140000Y-112250000D03*
X191790041Y-72064017D03*
X140500000Y-103300000D03*
X119200000Y-73200000D03*
X174100000Y-125500000D03*
X157750000Y-113160000D03*
X122500000Y-128509999D03*
X110000000Y-76400000D03*
X99350000Y-132400000D03*
X201450000Y-119100000D03*
X123500000Y-128509999D03*
X185200000Y-121900000D03*
X96990001Y-102500000D03*
X166800000Y-102850000D03*
X178600000Y-108580000D03*
X163610000Y-106600000D03*
X184400000Y-121100000D03*
X219509999Y-123450000D03*
X200827388Y-79993935D03*
X206349999Y-139295000D03*
X186800000Y-121100000D03*
X167200000Y-94530000D03*
X107766726Y-73766726D03*
X83149998Y-140100000D03*
X186800000Y-118700000D03*
X149800000Y-73440001D03*
X135020000Y-96800000D03*
X159750000Y-88020000D03*
X84650001Y-139295000D03*
X129900000Y-65890001D03*
X147250000Y-73440001D03*
X136320000Y-89145000D03*
X98654058Y-81645942D03*
X123890000Y-68200000D03*
X164750000Y-119100000D03*
X137650000Y-90020000D03*
X179250000Y-76850000D03*
X84650000Y-140100000D03*
X105539338Y-73660662D03*
X166560000Y-104500000D03*
X167200000Y-95770000D03*
X220284924Y-94106245D03*
X222550000Y-132400000D03*
X183700000Y-70740001D03*
X157400000Y-73440001D03*
X206349998Y-140150000D03*
X95690001Y-107800000D03*
X125200000Y-79500000D03*
X186000000Y-121900000D03*
X102400001Y-92699999D03*
X147250000Y-86320000D03*
X140500000Y-97800000D03*
X147975000Y-128650000D03*
X138625000Y-125450000D03*
X106739000Y-83899765D03*
X131100000Y-65890001D03*
X210800000Y-141309999D03*
X210490883Y-83317014D03*
X139650000Y-73440001D03*
X207850000Y-140150000D03*
X159500000Y-106400000D03*
X185200000Y-118700000D03*
X207850001Y-139295000D03*
X106136844Y-74258166D03*
X152000000Y-90400000D03*
X139275000Y-113600000D03*
X110000000Y-68200000D03*
X186000000Y-118700000D03*
X104100000Y-109809999D03*
X95150000Y-139295000D03*
X83149998Y-138450000D03*
X199660662Y-81160662D03*
X199766726Y-78933274D03*
X130800000Y-129100000D03*
X153300000Y-84300000D03*
X151400000Y-109300000D03*
X169500000Y-72000000D03*
X218350000Y-139295000D03*
X198600000Y-80100000D03*
X166100000Y-112259999D03*
X175650000Y-119100000D03*
X141100000Y-127309999D03*
X165050000Y-114209999D03*
X158250000Y-127209999D03*
X139800000Y-127309999D03*
X116400000Y-72120000D03*
X175510000Y-72000000D03*
X150125000Y-128650000D03*
X173400000Y-110575001D03*
X144700000Y-73440001D03*
X186800000Y-120300000D03*
X132300000Y-65890001D03*
X145950000Y-119100000D03*
X98800000Y-92700000D03*
X198610624Y-75889376D03*
X206349998Y-138450000D03*
X186800000Y-119500000D03*
X81550000Y-119975000D03*
X199197505Y-79502494D03*
X215193755Y-89015076D03*
X151250000Y-113160000D03*
X83149999Y-139295000D03*
X159500000Y-98800000D03*
X186000000Y-119500000D03*
X185200000Y-120300000D03*
X133025000Y-128650000D03*
X176100000Y-68415000D03*
X150750000Y-121070000D03*
X140500000Y-91300000D03*
X184400000Y-121900000D03*
X115200000Y-72120000D03*
X136020000Y-97800000D03*
X163630000Y-107650000D03*
X184400000Y-119500000D03*
X136020000Y-103100000D03*
X163630000Y-104500000D03*
X106706065Y-74827388D03*
X200258166Y-80563156D03*
X185200000Y-121100000D03*
X209300000Y-141309999D03*
X137375000Y-125450000D03*
X184400000Y-118700000D03*
X165100000Y-100650000D03*
X186000000Y-121100000D03*
X104200000Y-92700000D03*
%TO.N,/mcu/NRST*%
X217315076Y-86893755D03*
X169850000Y-103450000D03*
X168300000Y-103400000D03*
X162550000Y-103400000D03*
%TO.N,+5V*%
X141050000Y-119100000D03*
X120500000Y-126575000D03*
X152025000Y-125500000D03*
X165050000Y-111240001D03*
X182000000Y-125500000D03*
X134875000Y-125450000D03*
X170750000Y-119100000D03*
X193251041Y-83613782D03*
X190500000Y-86350000D03*
X94450000Y-132400000D03*
X182000000Y-126300000D03*
X109100000Y-84600000D03*
X133350000Y-119100000D03*
X196550000Y-119100000D03*
X181200000Y-126300000D03*
X159850000Y-119100000D03*
X180400000Y-125500000D03*
X205050000Y-119100000D03*
X180400000Y-126300000D03*
X181200000Y-125500000D03*
X119350000Y-119100000D03*
%TO.N,+BATT*%
X195165685Y-87500000D03*
X81800000Y-130800000D03*
X80000000Y-130800000D03*
X205000000Y-131600000D03*
X194600000Y-88065685D03*
X114300000Y-83000000D03*
X204100000Y-130812500D03*
X204100000Y-130000000D03*
X113400000Y-83000000D03*
X203200000Y-130800000D03*
X80900000Y-130812500D03*
X115200000Y-81400000D03*
X80000000Y-130000000D03*
X195731371Y-86934315D03*
X205000000Y-130000000D03*
X113400000Y-82200000D03*
X197004163Y-88207107D03*
X203200000Y-130000000D03*
X196376606Y-87561872D03*
X114300000Y-81387500D03*
X195236396Y-88702082D03*
X113400000Y-81400000D03*
X195872792Y-89338478D03*
X203200000Y-131600000D03*
X81800000Y-130000000D03*
X115200000Y-83000000D03*
X80900000Y-130000000D03*
X196438478Y-88772792D03*
X81800000Y-131600000D03*
X187050000Y-117000000D03*
X115200000Y-82200000D03*
X80000000Y-131600000D03*
X114300000Y-82187500D03*
X204100000Y-131612500D03*
X195810920Y-88127557D03*
X205000000Y-130800000D03*
X80900000Y-131612500D03*
%TO.N,/mcu/BOT_ID_DISPLAY.FL*%
X98999999Y-101025000D03*
X99849999Y-102475000D03*
X153850000Y-103250000D03*
%TO.N,Net-(D3-A1)*%
X99849999Y-101025000D03*
%TO.N,Net-(D3-K2)*%
X98999999Y-102475000D03*
%TO.N,Net-(D4-K2)*%
X103000001Y-102475000D03*
%TO.N,Net-(D4-A1)*%
X103850001Y-101025000D03*
%TO.N,/mcu/BOT_ID_DISPLAY.FR*%
X103850001Y-102475000D03*
X103000001Y-101025000D03*
X154300000Y-103950000D03*
%TO.N,Net-(D5-K2)*%
X101850000Y-105725000D03*
%TO.N,/mcu/BOT_ID_DISPLAY.TeamBlue*%
X101850000Y-104275000D03*
X143150000Y-100550000D03*
X101000000Y-105725000D03*
X106550000Y-104150000D03*
%TO.N,Net-(D5-A1)*%
X101000000Y-104275000D03*
%TO.N,/mcu/BOT_ID_DISPLAY.BL*%
X98600000Y-107725001D03*
X153500000Y-104050000D03*
X97750000Y-106275001D03*
%TO.N,Net-(D6-A1)*%
X98600000Y-106275001D03*
%TO.N,Net-(D6-K2)*%
X97750000Y-107725001D03*
%TO.N,Net-(D7-A1)*%
X105100000Y-106275001D03*
%TO.N,Net-(D7-K2)*%
X104250000Y-107725001D03*
%TO.N,/mcu/BOT_ID_DISPLAY.BR*%
X153250000Y-104850000D03*
X105100000Y-107725001D03*
X104250000Y-106275001D03*
%TO.N,Net-(D10-A)*%
X98800000Y-94200000D03*
%TO.N,Net-(D11-A)*%
X100600000Y-94200000D03*
%TO.N,Net-(D12-A)*%
X102400000Y-94200000D03*
%TO.N,Net-(D13-A)*%
X104200000Y-94200000D03*
%TO.N,Net-(J13-Pin_1)*%
X180000000Y-116800000D03*
X179200000Y-117600000D03*
X180800000Y-116800000D03*
X179200000Y-116800000D03*
X180000000Y-117600000D03*
X180800000Y-117600000D03*
%TO.N,Net-(J13-Pin_2)*%
X184000000Y-117600000D03*
X183200000Y-117600000D03*
X184000000Y-116800000D03*
X182400000Y-117600000D03*
X182400000Y-116800000D03*
X183200000Y-116800000D03*
%TO.N,/mcu/SDMMC1_D0*%
X125450000Y-83900000D03*
X127250000Y-85700000D03*
%TO.N,/mcu/SDMMC1_D1*%
X126350000Y-83900000D03*
X128150000Y-85700000D03*
%TO.N,/mcu/SWCLK*%
X141250000Y-87700000D03*
X162000000Y-80700000D03*
X165000000Y-80700000D03*
%TO.N,/mcu/SWDIO*%
X164450000Y-81300000D03*
X161450000Y-81300000D03*
X138050000Y-92800000D03*
%TO.N,/front_right_drive_motor/MOTOR.RX*%
X90650000Y-136050000D03*
X90650000Y-139295000D03*
%TO.N,Net-(J3-Pin_7)*%
X89150000Y-139295000D03*
%TO.N,Net-(J3-Pin_10)*%
X93650001Y-139295000D03*
%TO.N,/front_right_drive_motor/MOTOR.BOOT0*%
X86150000Y-139295000D03*
%TO.N,/front_right_drive_motor/MOTOR.RST*%
X87650000Y-139295000D03*
%TO.N,/front_right_drive_motor/MOTOR.CTS*%
X92149999Y-139295000D03*
X92149999Y-135800000D03*
%TO.N,/imu/IMU.~{DET}*%
X153250000Y-109350000D03*
%TO.N,/imu/IMU.MISO*%
X156250000Y-107750000D03*
%TO.N,/imu/IMU.SCK*%
X185675000Y-90100000D03*
X183950000Y-92600000D03*
X156750000Y-109400000D03*
%TO.N,/imu/IMU.~{SS}3*%
X185675000Y-93100000D03*
X154750000Y-108700000D03*
X174150000Y-93100000D03*
%TO.N,/imu/IMU.~{SS}1*%
X160849265Y-110149265D03*
%TO.N,/imu/IMU.INT1*%
X154250000Y-109350000D03*
X185675000Y-89100000D03*
%TO.N,/imu/IMU.MOSI*%
X155750000Y-109450000D03*
%TO.N,/imu/IMU.~{SS}2*%
X155250000Y-113250000D03*
%TO.N,/imu/IMU.INT2*%
X185675000Y-88100000D03*
X153750000Y-108700000D03*
%TO.N,Net-(J5-Pin_3)*%
X127499999Y-126575000D03*
%TO.N,/mcu/ODIN.RX*%
X125500000Y-126575000D03*
X146550000Y-96150000D03*
%TO.N,/mcu/ODIN.CTS*%
X126500000Y-126575000D03*
X144450000Y-97250000D03*
%TO.N,/mcu/ODIN.~{RST}*%
X147250000Y-97250000D03*
X122500001Y-126575000D03*
%TO.N,/mcu/ODIN.BOOT0*%
X123500000Y-126575000D03*
X148150000Y-96150000D03*
%TO.N,/mcu/ODIN.~{DET}*%
X146100000Y-98050000D03*
%TO.N,Net-(J5-Pin_6)*%
X124500000Y-126575000D03*
%TO.N,/back_right_drive_motor/MOTOR.BOOT0*%
X120000000Y-88000000D03*
X105018019Y-75281981D03*
X116000000Y-84000000D03*
%TO.N,Net-(J6-Pin_7)*%
X102896699Y-77403301D03*
%TO.N,/back_right_drive_motor/MOTOR.RST*%
X121000000Y-88000000D03*
X103957359Y-76342641D03*
X118000000Y-85000000D03*
%TO.N,/back_right_drive_motor/MOTOR.RX*%
X101836039Y-78463961D03*
%TO.N,/back_right_drive_motor/MOTOR.CTS*%
X100775379Y-79524621D03*
X122500000Y-92000000D03*
X152200000Y-85000000D03*
%TO.N,Net-(J6-Pin_10)*%
X99714718Y-80585282D03*
%TO.N,/back_left_drive_motor/MOTOR.RST*%
X197093342Y-77367318D03*
%TO.N,/back_left_drive_motor/MOTOR.RX*%
X194972022Y-75245998D03*
%TO.N,Net-(J7-Pin_10)*%
X192850701Y-73124677D03*
%TO.N,/back_left_drive_motor/MOTOR.CTS*%
X193911362Y-74185338D03*
%TO.N,Net-(J7-Pin_7)*%
X196032682Y-76306658D03*
%TO.N,/back_left_drive_motor/MOTOR.BOOT0*%
X198154002Y-78427978D03*
%TO.N,/front_left_drive_motor/MOTOR.RST*%
X210850000Y-131100000D03*
X210850000Y-139295000D03*
X173300000Y-102250000D03*
%TO.N,/front_left_drive_motor/MOTOR.CTS*%
X215349999Y-139295000D03*
X162450000Y-101100000D03*
%TO.N,Net-(J8-Pin_7)*%
X212350000Y-139295000D03*
%TO.N,/front_left_drive_motor/MOTOR.RX*%
X161800000Y-99600000D03*
X213850000Y-139295000D03*
%TO.N,Net-(J8-Pin_10)*%
X216850001Y-139295000D03*
%TO.N,/front_left_drive_motor/MOTOR.BOOT0*%
X172550000Y-102600000D03*
X209350000Y-130300000D03*
X209350000Y-139295000D03*
%TO.N,/kicker/KICKER.RX*%
X156150000Y-99750000D03*
X157850000Y-116100000D03*
X160775000Y-125500000D03*
%TO.N,/kicker/KICKER.RST*%
X158275000Y-125500000D03*
X158700000Y-102400000D03*
%TO.N,/kicker/KICKER.BOOT0*%
X157025000Y-125500000D03*
X158100000Y-102950000D03*
%TO.N,/kicker/KICKER.CTS*%
X156900000Y-104050000D03*
X159500000Y-116100000D03*
X162025000Y-125500000D03*
%TO.N,Net-(J9-Pin_10)*%
X163275000Y-125500000D03*
%TO.N,Net-(J9-Pin_7)*%
X159525000Y-125500000D03*
%TO.N,/mcu/OPTICAL_FLOW.RST*%
X141125000Y-125450000D03*
X154750000Y-90700000D03*
%TO.N,/mcu/OPTICAL_FLOW.CTS*%
X144875000Y-125450000D03*
%TO.N,Net-(J10-Pin_7)*%
X142375000Y-125450000D03*
%TO.N,/mcu/OPTICAL_FLOW.RX*%
X156250000Y-91100000D03*
X143625000Y-125450000D03*
%TO.N,Net-(J10-Pin_10)*%
X146125000Y-125450000D03*
%TO.N,/mcu/OPTICAL_FLOW.BOOT0*%
X139875000Y-125450000D03*
X154250000Y-91350000D03*
%TO.N,/mcu/POWER.RX*%
X169100000Y-125500000D03*
%TO.N,Net-(J12-Pin_2)*%
X170350000Y-125500000D03*
%TO.N,/mcu/SHELL_DETECT.RST*%
X158850000Y-96600000D03*
%TO.N,/mcu/SHELL_DETECT.SCL*%
X158200000Y-96087500D03*
X81550000Y-123725000D03*
%TO.N,/mcu/SHELL_DETECT.SDA*%
X157550000Y-95600000D03*
X81550000Y-124975000D03*
%TO.N,/mcu/SHELL_DETECT.LIGHT*%
X159500000Y-97087500D03*
%TO.N,/display/LCD.TX*%
X142500000Y-96100000D03*
%TO.N,/display/LCD.RX*%
X143350000Y-96100000D03*
%TO.N,VBUS*%
X174950000Y-71150000D03*
X171000000Y-70417002D03*
%TO.N,/mcu/USB_HS_D_P*%
X142700000Y-93800000D03*
D61*
%TO.N,Net-(P1-CC2)*%
X172250000Y-68415000D03*
X172000000Y-71000000D03*
%TO.N,/mcu/USB_HS_D_N*%
X173250000Y-68415000D03*
X172500000Y-69715000D03*
D60*
X141800000Y-93800000D03*
%TO.N,/mcu/BOOT0*%
X181200000Y-72837501D03*
X167900000Y-84350000D03*
%TO.N,/mcu/USB_BOOT0_CONTROL*%
X181150000Y-75300000D03*
%TO.N,/display/LCD.RST*%
X141700000Y-96150000D03*
X112600000Y-121050000D03*
%TO.N,/mcu/DEBUG_MODE*%
X159500000Y-94100000D03*
X159000000Y-82350000D03*
%TO.N,Net-(R1-Pad1)*%
X164900000Y-66550000D03*
%TO.N,/mcu/USER_BOOT0_OVERRIDE*%
X183690000Y-75300000D03*
%TO.N,/front_right_drive_motor/MOTOR.RTS*%
X92150000Y-135000000D03*
X93700000Y-137290001D03*
%TO.N,Net-(U2-INT1)*%
X147600000Y-119600000D03*
%TO.N,Net-(U2-INT2)*%
X152100000Y-119000000D03*
%TO.N,/back_right_drive_motor/MOTOR.RTS*%
X101160624Y-82060624D03*
X150250000Y-85900000D03*
X122500000Y-93000000D03*
%TO.N,/front_left_drive_motor/MOTOR.TX*%
X162500000Y-100050000D03*
X212300000Y-137290001D03*
%TO.N,/front_left_drive_motor/MOTOR.RTS*%
X161800000Y-100600000D03*
X216800000Y-137290001D03*
%TO.N,/kicker/KICKER.TX*%
X158700000Y-116100000D03*
X156950000Y-99750000D03*
%TO.N,/kicker/KICKER.RTS*%
X159500000Y-115300000D03*
X157500000Y-103500000D03*
%TO.N,/mcu/OPTICAL_FLOW.TX*%
X142300000Y-123590001D03*
X156750000Y-90450000D03*
%TO.N,/mcu/BOT_ID_SWITCHES.IDX3*%
X143750000Y-87900000D03*
X126700000Y-75709999D03*
%TO.N,/mcu/BOT_ID_SWITCHES.IDX2*%
X144250000Y-87250000D03*
X135500000Y-75709999D03*
%TO.N,/mcu/BOT_ID_SWITCHES.TEAM_BLUE_~{YELLOW}*%
X142400000Y-103400000D03*
X129909999Y-79000000D03*
%TO.N,Net-(R74-Pad1)*%
X128000000Y-79000000D03*
%TO.N,Net-(R75-Pad1)*%
X128000000Y-80000000D03*
%TO.N,/mcu/BOT_ID_SWITCHES.SRC_PRIO_USER_~{AUTO}*%
X129909999Y-80000000D03*
X141600000Y-103400000D03*
%TO.N,/mcu/BOT_ID_DISPLAY.SrcDisagree*%
X126650000Y-87750000D03*
X140850000Y-106100000D03*
X133450000Y-103050000D03*
%TO.N,/mcu/DIP.0*%
X152350000Y-103150000D03*
X157400000Y-80009999D03*
%TO.N,Net-(R84-Pad1)*%
X157390000Y-75300000D03*
%TO.N,Net-(R85-Pad1)*%
X154850000Y-75300000D03*
%TO.N,/mcu/DIP.1*%
X154850000Y-80009999D03*
X151550000Y-103150000D03*
%TO.N,/mcu/DIP.2*%
X150750000Y-104100000D03*
X152300000Y-80009999D03*
%TO.N,Net-(R100-Pad2)*%
X152310000Y-75300000D03*
%TO.N,Net-(R101-Pad2)*%
X149770000Y-75300000D03*
%TO.N,/mcu/DIP.3*%
X150250000Y-103250000D03*
X149750000Y-80009999D03*
%TO.N,/mcu/DIP.4*%
X147250000Y-80009999D03*
X149750000Y-104100000D03*
%TO.N,Net-(R102-Pad2)*%
X147230000Y-75300000D03*
%TO.N,/mcu/BUZZER*%
X218490001Y-122400000D03*
X159500000Y-93100000D03*
%TO.N,Net-(R103-Pad2)*%
X144690000Y-75300000D03*
%TO.N,/mcu/DIP.5*%
X148250000Y-104100000D03*
X144700000Y-80009999D03*
%TO.N,/mcu/DIP.6*%
X142100000Y-80009999D03*
X147750000Y-103250000D03*
%TO.N,Net-(R104-Pad2)*%
X142150000Y-75300000D03*
%TO.N,/mcu/DIP.7*%
X147250000Y-104100000D03*
X139600000Y-80009999D03*
%TO.N,Net-(R105-Pad2)*%
X139610000Y-75300000D03*
%TO.N,/mcu/DOTSTARS.SCK*%
X153150000Y-100250000D03*
X142250000Y-116000000D03*
X99350001Y-134000000D03*
%TO.N,/mcu/ODIN.TX*%
X124500000Y-124690001D03*
X145750000Y-96150000D03*
%TO.N,/mcu/ODIN.RTS*%
X127500000Y-124690001D03*
X145250000Y-97250000D03*
%TO.N,/imu/IMU.~{SS}0*%
X157250000Y-108750000D03*
%TO.N,/mcu/DOTSTARS.MOSI*%
X99350000Y-135600000D03*
X153950000Y-100250000D03*
X142250000Y-117000000D03*
%TO.N,Net-(U4-SDO)*%
X94450000Y-135600000D03*
X104476259Y-81637024D03*
%TO.N,Net-(U4-CKO)*%
X94449999Y-134000000D03*
X105607629Y-82768395D03*
%TO.N,Net-(U5-SDO)*%
X168000000Y-78050000D03*
X107941082Y-78172201D03*
%TO.N,Net-(U5-CKO)*%
X109072453Y-79303571D03*
X168000000Y-79000000D03*
%TO.N,Net-(U6-SDO)*%
X209750000Y-110250000D03*
X195513782Y-81351041D03*
%TO.N,Net-(U6-CKO)*%
X194382412Y-82482412D03*
X210500000Y-109500000D03*
%TO.N,Net-(U11-CKO)*%
X133350000Y-120700000D03*
X124250000Y-120700000D03*
%TO.N,Net-(U11-SDO)*%
X133350000Y-122300000D03*
X124250000Y-122300000D03*
%TD*%
D62*
%TO.N,+3V3*%
X116400000Y-73080000D02*
X116400000Y-73580000D01*
X149500000Y-120350000D02*
X149200000Y-120650000D01*
X149750000Y-122030000D02*
X150750000Y-122030000D01*
X149715000Y-122030000D02*
X149750000Y-122030000D01*
X116400000Y-73580000D02*
X117020000Y-74200000D01*
X151700000Y-119750000D02*
X151700000Y-121080000D01*
X149500000Y-119712500D02*
X149500000Y-120350000D01*
X149200000Y-121515000D02*
X149715000Y-122030000D01*
X151500000Y-119550000D02*
X151700000Y-119750000D01*
X123400000Y-66700000D02*
X126690000Y-69990000D01*
X149200000Y-120650000D02*
X149200000Y-121515000D01*
X119750000Y-66700000D02*
X122290000Y-66700000D01*
X126690000Y-69990000D02*
X126690000Y-70500000D01*
X122290000Y-66700000D02*
X123400000Y-66700000D01*
X115200000Y-73080000D02*
X116400000Y-73080000D01*
X151700000Y-121080000D02*
X150750000Y-122030000D01*
X151162500Y-119550000D02*
X151500000Y-119550000D01*
%TO.N,GND*%
X176000000Y-68515000D02*
X176100000Y-68415000D01*
X150750000Y-120650000D02*
X150750000Y-121070000D01*
X150500000Y-119712500D02*
X150500000Y-120400000D01*
X112450000Y-65750000D02*
X110000000Y-68200000D01*
X150500000Y-120400000D02*
X150750000Y-120650000D01*
X170000000Y-68515000D02*
X169900000Y-68415000D01*
X176000000Y-69715000D02*
X176000000Y-68515000D01*
X116150000Y-65750000D02*
X112450000Y-65750000D01*
X150000000Y-119712500D02*
X150000000Y-120400000D01*
X196100000Y-135050000D02*
X196100000Y-139700000D01*
X150000000Y-120400000D02*
X149750000Y-120650000D01*
X149750000Y-120650000D02*
X149750000Y-121070000D01*
X170000000Y-69715000D02*
X170000000Y-68515000D01*
D63*
%TO.N,/mcu/NRST*%
X169850000Y-103450000D02*
X171550000Y-101750000D01*
X210650000Y-81300000D02*
X211721321Y-81300000D01*
X162550000Y-103400000D02*
X168300000Y-103400000D01*
X192000000Y-97500000D02*
X192000000Y-94000000D01*
X171550000Y-101750000D02*
X182100000Y-101750000D01*
X182100000Y-101750000D02*
X183850000Y-100000000D01*
X189500000Y-100000000D02*
X192000000Y-97500000D01*
X217315076Y-86893755D02*
X222406245Y-91984924D01*
X207200000Y-84750000D02*
X210650000Y-81300000D01*
X183850000Y-100000000D02*
X189500000Y-100000000D01*
X207200000Y-85173869D02*
X207200000Y-84750000D01*
X194015076Y-91984924D02*
X222406245Y-91984924D01*
X207917014Y-85890883D02*
X207200000Y-85173869D01*
X211721321Y-81300000D02*
X217315076Y-86893755D01*
X192000000Y-94000000D02*
X194015076Y-91984924D01*
D62*
%TO.N,+5V*%
X213300000Y-129650000D02*
X213300000Y-119350000D01*
X206100000Y-119100000D02*
X205050000Y-119100000D01*
X216050000Y-132400000D02*
X213300000Y-129650000D01*
X207400000Y-117800000D02*
X206100000Y-119100000D01*
X213300000Y-119350000D02*
X211750000Y-117800000D01*
X211750000Y-117800000D02*
X207400000Y-117800000D01*
X217650000Y-132400000D02*
X216050000Y-132400000D01*
X109100000Y-81538765D02*
X109100000Y-84600000D01*
X110203823Y-80434942D02*
X109100000Y-81538765D01*
%TO.N,+BATT*%
X196100000Y-126050000D02*
X196100000Y-131090001D01*
X187050000Y-117000000D02*
X196100000Y-126050000D01*
X202909999Y-131090001D02*
X203200000Y-130800000D01*
X196100000Y-131090001D02*
X202909999Y-131090001D01*
%TO.N,Net-(D2-A)*%
X196100000Y-133550000D02*
X196100000Y-132109999D01*
%TO.N,Net-(D8-A)*%
X116150000Y-67250000D02*
X116150000Y-68650000D01*
D63*
%TO.N,/mcu/SDMMC1_D0*%
X127250000Y-85700000D02*
X125450000Y-83900000D01*
%TO.N,/mcu/SDMMC1_D1*%
X126350000Y-83900000D02*
X128150000Y-85700000D01*
%TO.N,/mcu/SWCLK*%
X208846051Y-90350000D02*
X195850000Y-90350000D01*
X162000000Y-80700000D02*
X161370470Y-80700000D01*
X160969500Y-81100970D02*
X160969500Y-81384520D01*
X161370470Y-80700000D02*
X160969500Y-81100970D01*
X186200000Y-80700000D02*
X165000000Y-80700000D01*
X153604020Y-88750000D02*
X142300000Y-88750000D01*
X142300000Y-88750000D02*
X141250000Y-87700000D01*
X195850000Y-90350000D02*
X186200000Y-80700000D01*
X160969500Y-81384520D02*
X153604020Y-88750000D01*
X210611091Y-88584960D02*
X208846051Y-90350000D01*
%TO.N,/mcu/SWDIO*%
X153720000Y-89030000D02*
X161450000Y-81300000D01*
X185650000Y-80980000D02*
X165550000Y-80980000D01*
X186080000Y-80980000D02*
X185650000Y-80980000D01*
X210362103Y-90630000D02*
X205250000Y-90630000D01*
X211875251Y-89116852D02*
X210362103Y-90630000D01*
X165550000Y-80980000D02*
X165230000Y-81300000D01*
X205250000Y-90630000D02*
X195730000Y-90630000D01*
X195730000Y-90630000D02*
X194600000Y-89500000D01*
X194600000Y-89500000D02*
X186080000Y-80980000D01*
X150220000Y-89030000D02*
X153720000Y-89030000D01*
X146450000Y-92800000D02*
X150220000Y-89030000D01*
X211509117Y-89482986D02*
X211875251Y-89116852D01*
X165230000Y-81300000D02*
X164450000Y-81300000D01*
X138050000Y-92800000D02*
X146450000Y-92800000D01*
%TO.N,/front_right_drive_motor/MOTOR.RX*%
X90650000Y-136050000D02*
X90650000Y-139295000D01*
%TO.N,/front_right_drive_motor/MOTOR.CTS*%
X92149999Y-135800000D02*
X92149999Y-139295000D01*
%TO.N,/imu/IMU.~{DET}*%
X153250000Y-105750000D02*
X161460000Y-97540000D01*
X153250000Y-109350000D02*
X153250000Y-105750000D01*
X161460000Y-97540000D02*
X167868040Y-97540000D01*
X167868040Y-97540000D02*
X178308041Y-87099999D01*
X178308041Y-87099999D02*
X185675000Y-87099999D01*
%TO.N,/imu/IMU.MISO*%
X177250000Y-91100000D02*
X185675001Y-91100000D01*
X155269500Y-110838540D02*
X149308040Y-116800000D01*
X155269500Y-108730500D02*
X155269500Y-110838540D01*
X148800000Y-116800000D02*
X148200000Y-117400000D01*
X148200000Y-117800000D02*
X148450000Y-118050000D01*
X162723520Y-101580500D02*
X166769500Y-101580500D01*
X156554020Y-107750000D02*
X162723520Y-101580500D01*
X156250000Y-107750000D02*
X155269500Y-108730500D01*
X166769500Y-101580500D02*
X177250000Y-91100000D01*
X148450000Y-118050000D02*
X148837500Y-118050000D01*
X149308040Y-116800000D02*
X148800000Y-116800000D01*
X156250000Y-107750000D02*
X156554020Y-107750000D01*
X148200000Y-117400000D02*
X148200000Y-117800000D01*
%TO.N,/imu/IMU.SCK*%
X156750000Y-110150000D02*
X156750000Y-109400000D01*
X175600000Y-93541960D02*
X176541960Y-92600000D01*
X176541960Y-92600000D02*
X183950000Y-92600000D01*
X150000000Y-117887500D02*
X150000000Y-116900000D01*
X175600000Y-93550000D02*
X175600000Y-93541960D01*
X167009500Y-102140500D02*
X175600000Y-93550000D01*
X156750000Y-109400000D02*
X156750000Y-108345980D01*
X156750000Y-108345980D02*
X162955480Y-102140500D01*
X162955480Y-102140500D02*
X167009500Y-102140500D01*
X150000000Y-116900000D02*
X156750000Y-110150000D01*
%TO.N,/imu/IMU.~{SS}3*%
X154939950Y-105247990D02*
X161807940Y-98380000D01*
X168215980Y-98380000D02*
X168380000Y-98215980D01*
X168380000Y-98215980D02*
X169272990Y-97322990D01*
X154750000Y-108700000D02*
X154750000Y-105437940D01*
X154750000Y-105437940D02*
X154939950Y-105247990D01*
X161807940Y-98380000D02*
X162050000Y-98380000D01*
X162050000Y-98380000D02*
X168215980Y-98380000D01*
X169272990Y-97322990D02*
X173495980Y-93100000D01*
X173495980Y-93100000D02*
X174150000Y-93100000D01*
%TO.N,/imu/IMU.~{SS}1*%
X183080000Y-93830000D02*
X184350001Y-95100001D01*
X176111960Y-93830000D02*
X183080000Y-93830000D01*
X169200000Y-106450000D02*
X169200000Y-100741960D01*
X169200000Y-100741960D02*
X176111960Y-93830000D01*
X184350001Y-95100001D02*
X185675000Y-95100001D01*
X161268530Y-109730000D02*
X165920000Y-109730000D01*
X160849265Y-110149265D02*
X161268530Y-109730000D01*
X165920000Y-109730000D02*
X169200000Y-106450000D01*
%TO.N,/imu/IMU.INT1*%
X168100000Y-98100000D02*
X161691960Y-98100000D01*
X161691960Y-98100000D02*
X154250000Y-105541960D01*
X154250000Y-105541960D02*
X154250000Y-109350000D01*
X185675000Y-89100000D02*
X177100000Y-89100000D01*
X177100000Y-89100000D02*
X168100000Y-98100000D01*
%TO.N,/imu/IMU.MOSI*%
X155750000Y-109450000D02*
X155750000Y-110754020D01*
X155750000Y-109450000D02*
X155750000Y-108950000D01*
X162839500Y-101860500D02*
X166885480Y-101860500D01*
X149500000Y-117004020D02*
X149500000Y-117887500D01*
X155750000Y-110754020D02*
X149500000Y-117004020D01*
X155750000Y-108950000D02*
X162839500Y-101860500D01*
X176645980Y-92100000D02*
X185675000Y-92100000D01*
X166885480Y-101860500D02*
X176645980Y-92100000D01*
%TO.N,/imu/IMU.~{SS}2*%
X183195980Y-93550000D02*
X183745980Y-94100000D01*
X158450000Y-114000000D02*
X159400000Y-113050000D01*
X165804020Y-109450000D02*
X168920000Y-106334020D01*
X168920000Y-100625980D02*
X175995980Y-93550000D01*
X183745980Y-94100000D02*
X185675000Y-94100000D01*
X175995980Y-93550000D02*
X183195980Y-93550000D01*
X159400000Y-110450000D02*
X160400000Y-109450000D01*
X159400000Y-113050000D02*
X159400000Y-110450000D01*
X168920000Y-106334020D02*
X168920000Y-100625980D01*
X155250000Y-113250000D02*
X156000000Y-114000000D01*
X156000000Y-114000000D02*
X158450000Y-114000000D01*
X160400000Y-109450000D02*
X165804020Y-109450000D01*
%TO.N,/imu/IMU.INT2*%
X153750000Y-105645980D02*
X161575980Y-97820000D01*
X167984020Y-97820000D02*
X177704020Y-88100000D01*
X161575980Y-97820000D02*
X167984020Y-97820000D01*
X153750000Y-108700000D02*
X153750000Y-105645980D01*
X177704020Y-88100000D02*
X185675000Y-88100000D01*
%TO.N,/mcu/ODIN.RX*%
X144100000Y-96700000D02*
X143969500Y-96830500D01*
X126220000Y-124905000D02*
X125500000Y-125625000D01*
X125500000Y-125625000D02*
X125500000Y-126575000D01*
X143969500Y-96830500D02*
X143969500Y-102039600D01*
X146000000Y-96700000D02*
X144100000Y-96700000D01*
X146550000Y-96150000D02*
X146000000Y-96700000D01*
X144150000Y-110820100D02*
X139570100Y-115400000D01*
X144150000Y-102220100D02*
X144150000Y-110820100D01*
X143969500Y-102039600D02*
X144150000Y-102220100D01*
X139570100Y-115400000D02*
X132720100Y-115400000D01*
X126220000Y-121900100D02*
X126220000Y-124905000D01*
X132720100Y-115400000D02*
X126220000Y-121900100D01*
%TO.N,/mcu/ODIN.CTS*%
X139686080Y-115680000D02*
X132836080Y-115680000D01*
X144430000Y-110936080D02*
X139686080Y-115680000D01*
X144450000Y-97250000D02*
X144450000Y-102316080D01*
X144450000Y-102316080D02*
X144430000Y-102336080D01*
X126500000Y-122016080D02*
X126500000Y-126575000D01*
X132836080Y-115680000D02*
X126500000Y-122016080D01*
X144430000Y-102336080D02*
X144430000Y-110936080D01*
%TO.N,/mcu/ODIN.~{RST}*%
X145550000Y-111400000D02*
X140150000Y-116800000D01*
X130480000Y-119620000D02*
X130480000Y-127515980D01*
X147250000Y-101100000D02*
X145550000Y-102800000D01*
X122200000Y-129200000D02*
X122019500Y-129019500D01*
X122019500Y-128130500D02*
X122500001Y-127649999D01*
X145550000Y-102800000D02*
X145550000Y-111400000D01*
X122500001Y-127649999D02*
X122500001Y-126575000D01*
X122019500Y-129019500D02*
X122019500Y-128130500D01*
X133300000Y-116800000D02*
X130480000Y-119620000D01*
X130480000Y-127515980D02*
X128795980Y-129200000D01*
X147250000Y-97250000D02*
X147250000Y-101100000D01*
X140150000Y-116800000D02*
X133300000Y-116800000D01*
X128795980Y-129200000D02*
X122200000Y-129200000D01*
%TO.N,/mcu/ODIN.BOOT0*%
X145270000Y-111284020D02*
X140034020Y-116520000D01*
X133184020Y-116520000D02*
X130200000Y-119504020D01*
X146769500Y-101184520D02*
X145270000Y-102684020D01*
X140034020Y-116520000D02*
X133184020Y-116520000D01*
X130200000Y-119504020D02*
X130200000Y-127400000D01*
X147670470Y-96150000D02*
X146769500Y-97050970D01*
X148150000Y-96150000D02*
X147670470Y-96150000D01*
X123500000Y-127600000D02*
X123500000Y-126575000D01*
X130200000Y-127400000D02*
X129600000Y-128000000D01*
X145270000Y-102684020D02*
X145270000Y-111284020D01*
X129600000Y-128000000D02*
X123900000Y-128000000D01*
X123900000Y-128000000D02*
X123500000Y-127600000D01*
X146769500Y-97050970D02*
X146769500Y-101184520D01*
%TO.N,/mcu/ODIN.~{DET}*%
X133068040Y-116240000D02*
X128500000Y-120808040D01*
X128500000Y-120808040D02*
X128500000Y-126575000D01*
X139918040Y-116240000D02*
X133068040Y-116240000D01*
X144990000Y-102568040D02*
X144990000Y-111168040D01*
X146100000Y-98050000D02*
X146100000Y-101458040D01*
X144990000Y-111168040D02*
X139918040Y-116240000D01*
X146100000Y-101458040D02*
X144990000Y-102568040D01*
%TO.N,/back_right_drive_motor/MOTOR.BOOT0*%
X120000000Y-88000000D02*
X116000000Y-84000000D01*
%TO.N,/back_right_drive_motor/MOTOR.RST*%
X121000000Y-88000000D02*
X118000000Y-85000000D01*
%TO.N,/back_right_drive_motor/MOTOR.CTS*%
X123854020Y-92000000D02*
X131034020Y-84820000D01*
X152020000Y-84820000D02*
X152200000Y-85000000D01*
X131034020Y-84820000D02*
X152020000Y-84820000D01*
X122500000Y-92000000D02*
X123854020Y-92000000D01*
%TO.N,/mcu/SHELL_DETECT.RST*%
X157915980Y-94830000D02*
X132265980Y-94830000D01*
X114212990Y-116361030D02*
X108099020Y-122475000D01*
X132265980Y-94830000D02*
X114212990Y-112882990D01*
X158850000Y-96600000D02*
X158850000Y-95764020D01*
X114212990Y-112882990D02*
X114212990Y-116361030D01*
X108099020Y-122475000D02*
X81550000Y-122475000D01*
X158850000Y-95764020D02*
X157915980Y-94830000D01*
%TO.N,/mcu/SHELL_DETECT.SCL*%
X158200000Y-95510000D02*
X157800000Y-95110000D01*
X158200000Y-96087500D02*
X158200000Y-95510000D01*
X107950000Y-123020000D02*
X90984020Y-123020000D01*
X114492990Y-112998970D02*
X114492990Y-116477010D01*
X157800000Y-95110000D02*
X132381960Y-95110000D01*
X114492990Y-116477010D02*
X107950000Y-123020000D01*
X132381960Y-95110000D02*
X114492990Y-112998970D01*
X90279020Y-123725000D02*
X81550000Y-123725000D01*
X90984020Y-123020000D02*
X90279020Y-123725000D01*
%TO.N,/mcu/SHELL_DETECT.SDA*%
X108065980Y-123300000D02*
X114772990Y-116592990D01*
X132287940Y-95600000D02*
X157550000Y-95600000D01*
X89425000Y-124975000D02*
X91100000Y-123300000D01*
X114772990Y-113114950D02*
X132287940Y-95600000D01*
X91100000Y-123300000D02*
X108065980Y-123300000D01*
X114772990Y-116592990D02*
X114772990Y-113114950D01*
X81550000Y-124975000D02*
X89425000Y-124975000D01*
%TO.N,/mcu/SHELL_DETECT.LIGHT*%
X159500000Y-97087500D02*
X159500000Y-96018040D01*
X81575000Y-121250000D02*
X81550000Y-121225000D01*
X108900000Y-121250000D02*
X81575000Y-121250000D01*
X113932990Y-116217010D02*
X108900000Y-121250000D01*
X113932990Y-112767010D02*
X113932990Y-116217010D01*
X159500000Y-96018040D02*
X158031960Y-94550000D01*
X132150000Y-94550000D02*
X113932990Y-112767010D01*
X158031960Y-94550000D02*
X132150000Y-94550000D01*
%TO.N,/display/LCD.TX*%
X138463550Y-101870000D02*
X132884020Y-101870000D01*
X142500000Y-97833550D02*
X138463550Y-101870000D01*
X142500000Y-96100000D02*
X142500000Y-97833550D01*
X107754020Y-127000000D02*
X102779999Y-127000000D01*
X132884020Y-101870000D02*
X107754020Y-127000000D01*
X102779999Y-127000000D02*
X101504999Y-128275000D01*
%TO.N,/display/LCD.RX*%
X105320000Y-129550000D02*
X104045000Y-128275000D01*
X109100000Y-127550000D02*
X107100000Y-129550000D01*
X143350000Y-96100000D02*
X143350000Y-97379530D01*
X109100000Y-126050000D02*
X109100000Y-127550000D01*
X138579530Y-102150000D02*
X133000000Y-102150000D01*
X133000000Y-102150000D02*
X109100000Y-126050000D01*
X143350000Y-97379530D02*
X138579530Y-102150000D01*
X107100000Y-129550000D02*
X105320000Y-129550000D01*
D62*
%TO.N,VBUS*%
X174250000Y-68915000D02*
X174250000Y-68415000D01*
X174500000Y-70700000D02*
X174950000Y-71150000D01*
X171500000Y-70169000D02*
X171500000Y-69715000D01*
X179000000Y-66700000D02*
X181150000Y-66700000D01*
X171000000Y-70417002D02*
X171251998Y-70417002D01*
X171750000Y-68742000D02*
X171621000Y-68871000D01*
X171251998Y-70417002D02*
X171500000Y-70169000D01*
X177850000Y-71150000D02*
X178500000Y-70500000D01*
X174950000Y-71150000D02*
X177850000Y-71150000D01*
X178500000Y-70500000D02*
X178500000Y-67200000D01*
X174500000Y-69165000D02*
X174250000Y-68915000D01*
X174500000Y-69715000D02*
X174500000Y-70700000D01*
X174327000Y-68992000D02*
X174367500Y-69032500D01*
X171500000Y-68992000D02*
X171750000Y-68742000D01*
X171750000Y-68742000D02*
X171750000Y-68415000D01*
X178500000Y-67200000D02*
X179000000Y-66700000D01*
X171500000Y-69715000D02*
X171500000Y-68992000D01*
X174500000Y-69715000D02*
X174500000Y-69165000D01*
D63*
%TO.N,/mcu/USB_HS_D_P*%
X173500000Y-69715000D02*
X173500000Y-71047990D01*
X173500000Y-69715000D02*
X173500000Y-69572000D01*
X173500000Y-69572000D02*
X172750000Y-68822000D01*
X150747990Y-93800000D02*
X142700000Y-93800000D01*
X173500000Y-71047990D02*
X150747990Y-93800000D01*
X172750000Y-68822000D02*
X172750000Y-68415000D01*
%TO.N,Net-(P1-CC2)*%
X172000000Y-71000000D02*
X171000000Y-72000000D01*
X171000000Y-72000000D02*
X170520000Y-72000000D01*
%TO.N,/mcu/USB_HS_D_N*%
X142899030Y-93319500D02*
X143079530Y-93500000D01*
X142280500Y-93319500D02*
X142899030Y-93319500D01*
X172500000Y-71500000D02*
X172500000Y-69715000D01*
X150500000Y-93500000D02*
X172500000Y-71500000D01*
X141800000Y-93800000D02*
X142280500Y-93319500D01*
X143079530Y-93500000D02*
X150500000Y-93500000D01*
%TO.N,Net-(P1-CC1)*%
X174000000Y-71000000D02*
X174490000Y-71490000D01*
X174490000Y-71490000D02*
X174490000Y-72000000D01*
X174000000Y-69715000D02*
X174000000Y-71000000D01*
%TO.N,/display/LCD.RST*%
X138347570Y-101590000D02*
X132768040Y-101590000D01*
X141700000Y-96150000D02*
X141700000Y-98237570D01*
X113308040Y-121050000D02*
X112600000Y-121050000D01*
X141700000Y-98237570D02*
X138347570Y-101590000D01*
X132768040Y-101590000D02*
X113308040Y-121050000D01*
%TO.N,/front_right_drive_motor/MOTOR.RTS*%
X92150000Y-135000000D02*
X92750000Y-135600000D01*
X92750000Y-136340001D02*
X93700000Y-137290001D01*
X92750000Y-135600000D02*
X92750000Y-136340001D01*
%TO.N,Net-(U2-INT1)*%
X147650000Y-119550000D02*
X148837500Y-119550000D01*
X147600000Y-119600000D02*
X147650000Y-119550000D01*
%TO.N,Net-(U2-INT2)*%
X152050000Y-119050000D02*
X152100000Y-119000000D01*
X151162500Y-119050000D02*
X152050000Y-119050000D01*
%TO.N,/back_right_drive_motor/MOTOR.RTS*%
X123250000Y-93000000D02*
X131150000Y-85100000D01*
X122500000Y-93000000D02*
X123250000Y-93000000D01*
X149450000Y-85100000D02*
X150250000Y-85900000D01*
X131150000Y-85100000D02*
X149450000Y-85100000D01*
%TO.N,Net-(R74-Pad1)*%
X124000000Y-79000000D02*
X128000000Y-79000000D01*
X122290000Y-77290000D02*
X124000000Y-79000000D01*
X122290000Y-75300000D02*
X122290000Y-77290000D01*
%TO.N,Net-(R75-Pad1)*%
X120600000Y-78000000D02*
X122600000Y-80000000D01*
X122600000Y-80000000D02*
X128000000Y-80000000D01*
X119750000Y-75300000D02*
X119750000Y-77150000D01*
X119750000Y-77150000D02*
X120600000Y-78000000D01*
D62*
%TO.N,/mcu/BOT_ID_DISPLAY.SrcDisagree*%
X114663000Y-71157000D02*
X114663000Y-75763000D01*
X114663000Y-75763000D02*
X126650000Y-87750000D01*
X116150000Y-69670000D02*
X114663000Y-71157000D01*
X136500000Y-106100000D02*
X133450000Y-103050000D01*
X140850000Y-106100000D02*
X136500000Y-106100000D01*
D63*
%TO.N,/mcu/DOTSTARS.SCK*%
X152900000Y-103574490D02*
X152489500Y-103984990D01*
X152489500Y-103984990D02*
X152489500Y-106660500D01*
X144150000Y-116000000D02*
X142250000Y-116000000D01*
X146730500Y-113419500D02*
X144150000Y-116000000D01*
X152489500Y-106660500D02*
X146730500Y-112419500D01*
X153150000Y-101250000D02*
X152900000Y-101500000D01*
X146730500Y-112419500D02*
X146730500Y-113419500D01*
X99350001Y-134000000D02*
X99350000Y-134000000D01*
X153150000Y-100250000D02*
X153150000Y-101250000D01*
X152900000Y-101500000D02*
X152900000Y-103574490D01*
%TO.N,/mcu/ODIN.TX*%
X143870000Y-110704120D02*
X139454120Y-115120000D01*
X125940000Y-121784120D02*
X125940000Y-123250001D01*
X144254020Y-96150000D02*
X143689500Y-96714520D01*
X132604120Y-115120000D02*
X125940000Y-121784120D01*
X143870000Y-102336080D02*
X143870000Y-110704120D01*
X143689500Y-102155580D02*
X143870000Y-102336080D01*
X139454120Y-115120000D02*
X132604120Y-115120000D01*
X125940000Y-123250001D02*
X124500000Y-124690001D01*
X143689500Y-96714520D02*
X143689500Y-102155580D01*
X145750000Y-96150000D02*
X144254020Y-96150000D01*
%TO.N,/mcu/ODIN.RTS*%
X145250000Y-97250000D02*
X145250000Y-101912060D01*
X144710000Y-102452060D02*
X144710000Y-111052060D01*
X145250000Y-101912060D02*
X144710000Y-102452060D01*
X127500000Y-121412060D02*
X127500000Y-124690001D01*
X139802060Y-115960000D02*
X132952060Y-115960000D01*
X144710000Y-111052060D02*
X139802060Y-115960000D01*
X132952060Y-115960000D02*
X127500000Y-121412060D01*
%TO.N,/imu/IMU.~{SS}0*%
X157250000Y-108750000D02*
X157250000Y-110450000D01*
X157250000Y-110450000D02*
X150500000Y-117200000D01*
X150500000Y-117200000D02*
X150500000Y-117887500D01*
%TO.N,/mcu/DOTSTARS.MOSI*%
X147010500Y-112535480D02*
X147010500Y-113535480D01*
X153950000Y-100850000D02*
X153180000Y-101620000D01*
X143545980Y-117000000D02*
X142250000Y-117000000D01*
X153950000Y-100250000D02*
X153950000Y-100850000D01*
X153180000Y-103690470D02*
X152769500Y-104100970D01*
X152769500Y-106776480D02*
X147010500Y-112535480D01*
X147010500Y-113535480D02*
X143545980Y-117000000D01*
X153180000Y-101620000D02*
X153180000Y-103690470D01*
X152769500Y-104100970D02*
X152769500Y-106776480D01*
%TO.N,Net-(U5-SDO)*%
X189280000Y-78020000D02*
X190200000Y-77100000D01*
X190200000Y-77100000D02*
X191262741Y-77100000D01*
X168000000Y-78050000D02*
X168030000Y-78020000D01*
X168030000Y-78020000D02*
X189280000Y-78020000D01*
X191262741Y-77100000D02*
X192048959Y-77886218D01*
%TO.N,Net-(U5-CKO)*%
X168000000Y-79000000D02*
X168700000Y-78300000D01*
X168700000Y-78300000D02*
X190200000Y-78300000D01*
X190200000Y-78300000D02*
X190917588Y-79017588D01*
%TO.N,Net-(U6-SDO)*%
X216984020Y-130630000D02*
X214370000Y-128015980D01*
X214370000Y-128015980D02*
X214370000Y-114870000D01*
X219220000Y-131265980D02*
X218584020Y-130630000D01*
X221500000Y-135600000D02*
X219220000Y-133320000D01*
X218584020Y-130630000D02*
X216984020Y-130630000D01*
X222550000Y-135600000D02*
X221500000Y-135600000D01*
X219220000Y-133320000D02*
X219220000Y-131265980D01*
X214370000Y-114870000D02*
X209750000Y-110250000D01*
%TO.N,Net-(U6-CKO)*%
X218700000Y-130350000D02*
X219500000Y-131150000D01*
X221500000Y-134000000D02*
X222550001Y-134000000D01*
X210500000Y-109500000D02*
X214650000Y-113650000D01*
X214650000Y-113650000D02*
X214650000Y-127900000D01*
X219500000Y-131150000D02*
X219500000Y-132000000D01*
X217100000Y-130350000D02*
X218700000Y-130350000D01*
X214650000Y-127900000D02*
X217100000Y-130350000D01*
X219500000Y-132000000D02*
X221500000Y-134000000D01*
%TO.N,Net-(U14-CKI)*%
X209950000Y-120700000D02*
X211150000Y-120700000D01*
X215300000Y-134000000D02*
X217649999Y-134000000D01*
X212680000Y-131380000D02*
X215300000Y-134000000D01*
X212680000Y-122230000D02*
X212680000Y-131380000D01*
X211150000Y-120700000D02*
X212680000Y-122230000D01*
%TO.N,Net-(U14-SDI)*%
X212400000Y-133000000D02*
X215000000Y-135600000D01*
X212400000Y-122950000D02*
X212400000Y-133000000D01*
X215000000Y-135600000D02*
X217650000Y-135600000D01*
X211750000Y-122300000D02*
X212400000Y-122950000D01*
X209950000Y-122300000D02*
X211750000Y-122300000D01*
%TO.N,Net-(U8-SDO)*%
X164750000Y-122300000D02*
X170750000Y-122300000D01*
%TO.N,Net-(U8-CKO)*%
X164750000Y-120700000D02*
X170750000Y-120700000D01*
%TO.N,Net-(U10-CKI)*%
X153050000Y-123150000D02*
X155500000Y-120700000D01*
X155500000Y-120700000D02*
X159850000Y-120700000D01*
X145950000Y-120700000D02*
X147150000Y-120700000D01*
X149600000Y-123150000D02*
X153050000Y-123150000D01*
X147150000Y-120700000D02*
X149600000Y-123150000D01*
%TO.N,Net-(U10-SDI)*%
X148354020Y-122300000D02*
X149504020Y-123450000D01*
X145950000Y-122300000D02*
X148354020Y-122300000D01*
X149504020Y-123450000D02*
X158700000Y-123450000D01*
X158700000Y-123450000D02*
X159850000Y-122300000D01*
%TO.N,Net-(U10-CKO)*%
X138250000Y-120700000D02*
X141050000Y-120700000D01*
%TO.N,Net-(U10-SDO)*%
X141050000Y-122300000D02*
X138250000Y-122300000D01*
%TO.N,Net-(U13-CKO)*%
X177750000Y-120000000D02*
X177050000Y-120700000D01*
X177050000Y-120700000D02*
X175650000Y-120700000D01*
X194245980Y-120700000D02*
X189215980Y-115670000D01*
X178630000Y-115670000D02*
X177750000Y-116550000D01*
X189215980Y-115670000D02*
X178630000Y-115670000D01*
X177750000Y-116550000D02*
X177750000Y-120000000D01*
X196550000Y-120700000D02*
X194245980Y-120700000D01*
%TO.N,Net-(U13-SDO)*%
X178030000Y-121320000D02*
X177050000Y-122300000D01*
X178030000Y-116665980D02*
X178030000Y-121320000D01*
X178745980Y-115950000D02*
X178030000Y-116665980D01*
X196550000Y-122300000D02*
X195450000Y-122300000D01*
X195450000Y-122300000D02*
X189100000Y-115950000D01*
X189100000Y-115950000D02*
X178745980Y-115950000D01*
X177050000Y-122300000D02*
X175650000Y-122300000D01*
%TO.N,Net-(U13-CKI)*%
X205050000Y-120700000D02*
X201450000Y-120700000D01*
%TO.N,Net-(U13-SDI)*%
X205050000Y-122300000D02*
X201450000Y-122300000D01*
%TD*%
%TA.AperFunction,Conductor*%
%TO.N,+BATT*%
G36*
X196057547Y-86144966D02*
G01*
X196101894Y-86173467D01*
X196933452Y-87005024D01*
X197765011Y-87836584D01*
X197798495Y-87897905D01*
X197793511Y-87967597D01*
X197765010Y-88011944D01*
X195960473Y-89816481D01*
X195899150Y-89849966D01*
X195829458Y-89844982D01*
X195785111Y-89816481D01*
X194953553Y-88984923D01*
X194121993Y-88153363D01*
X194088510Y-88092043D01*
X194093494Y-88022351D01*
X194121993Y-87978006D01*
X195926534Y-86173465D01*
X195987855Y-86139982D01*
X196057547Y-86144966D01*
G37*
%TD.AperFunction*%
%TD*%
%TA.AperFunction,Conductor*%
%TO.N,Net-(J6-Pin_1)*%
G36*
X108556328Y-69672174D02*
G01*
X108600675Y-69700675D01*
X113375060Y-74475060D01*
X113408545Y-74536383D01*
X113403561Y-74606075D01*
X113375060Y-74650422D01*
X111853366Y-76172117D01*
X111792043Y-76205602D01*
X111722351Y-76200618D01*
X111678004Y-76172117D01*
X106903618Y-71397731D01*
X106870133Y-71336408D01*
X106875117Y-71266716D01*
X106903614Y-71222374D01*
X108425313Y-69700674D01*
X108486636Y-69667190D01*
X108556328Y-69672174D01*
G37*
%TD.AperFunction*%
%TD*%
%TA.AperFunction,Conductor*%
%TO.N,GND*%
G36*
X187143039Y-118319685D02*
G01*
X187188794Y-118372489D01*
X187200000Y-118424000D01*
X187200000Y-122176000D01*
X187180315Y-122243039D01*
X187127511Y-122288794D01*
X187076000Y-122300000D01*
X184124000Y-122300000D01*
X184056961Y-122280315D01*
X184011206Y-122227511D01*
X184000000Y-122176000D01*
X184000000Y-118424000D01*
X184019685Y-118356961D01*
X184072489Y-118311206D01*
X184124000Y-118300000D01*
X187076000Y-118300000D01*
X187143039Y-118319685D01*
G37*
%TD.AperFunction*%
%TD*%
%TA.AperFunction,Conductor*%
%TO.N,Net-(J7-Pin_1)*%
G36*
X202133283Y-80275117D02*
G01*
X202177627Y-80303616D01*
X202938477Y-81064465D01*
X203699324Y-81825313D01*
X203732809Y-81886636D01*
X203727825Y-81956328D01*
X203699324Y-82000675D01*
X198924939Y-86775060D01*
X198863616Y-86808545D01*
X198793924Y-86803561D01*
X198749577Y-86775060D01*
X197988729Y-86014213D01*
X197227880Y-85253363D01*
X197194397Y-85192043D01*
X197199381Y-85122351D01*
X197227880Y-85078006D01*
X202002270Y-80303616D01*
X202063591Y-80270133D01*
X202133283Y-80275117D01*
G37*
%TD.AperFunction*%
%TD*%
%TA.AperFunction,Conductor*%
%TO.N,Net-(J13-Pin_1)*%
G36*
X181143039Y-116419685D02*
G01*
X181188794Y-116472489D01*
X181200000Y-116524000D01*
X181200000Y-122076000D01*
X181180315Y-122143039D01*
X181127511Y-122188794D01*
X181076000Y-122200000D01*
X180124000Y-122200000D01*
X180056961Y-122180315D01*
X180011206Y-122127511D01*
X180000000Y-122076000D01*
X180000000Y-118000000D01*
X178924000Y-118000000D01*
X178856961Y-117980315D01*
X178811206Y-117927511D01*
X178800000Y-117876000D01*
X178800000Y-116524000D01*
X178819685Y-116456961D01*
X178872489Y-116411206D01*
X178924000Y-116400000D01*
X181076000Y-116400000D01*
X181143039Y-116419685D01*
G37*
%TD.AperFunction*%
%TD*%
%TA.AperFunction,Conductor*%
%TO.N,Net-(J13-Pin_2)*%
G36*
X184343039Y-116419685D02*
G01*
X184388794Y-116472489D01*
X184400000Y-116524000D01*
X184400000Y-117876000D01*
X184380315Y-117943039D01*
X184327511Y-117988794D01*
X184276000Y-118000000D01*
X183200000Y-118000000D01*
X183200000Y-122076000D01*
X183180315Y-122143039D01*
X183127511Y-122188794D01*
X183076000Y-122200000D01*
X182124000Y-122200000D01*
X182056961Y-122180315D01*
X182011206Y-122127511D01*
X182000000Y-122076000D01*
X182000000Y-116524000D01*
X182019685Y-116456961D01*
X182072489Y-116411206D01*
X182124000Y-116400000D01*
X184276000Y-116400000D01*
X184343039Y-116419685D01*
G37*
%TD.AperFunction*%
%TD*%
%TA.AperFunction,Conductor*%
%TO.N,+BATT*%
G36*
X82143039Y-129619685D02*
G01*
X82188794Y-129672489D01*
X82200000Y-129724000D01*
X82200000Y-132276000D01*
X82180315Y-132343039D01*
X82127511Y-132388794D01*
X82076000Y-132400000D01*
X79724000Y-132400000D01*
X79656961Y-132380315D01*
X79611206Y-132327511D01*
X79600000Y-132276000D01*
X79600000Y-129724000D01*
X79619685Y-129656961D01*
X79672489Y-129611206D01*
X79724000Y-129600000D01*
X82076000Y-129600000D01*
X82143039Y-129619685D01*
G37*
%TD.AperFunction*%
%TD*%
%TA.AperFunction,Conductor*%
%TO.N,Net-(J8-Pin_1)*%
G36*
X205243039Y-133819685D02*
G01*
X205288794Y-133872489D01*
X205300000Y-133924000D01*
X205300000Y-140676000D01*
X205280315Y-140743039D01*
X205227511Y-140788794D01*
X205176000Y-140800000D01*
X203024000Y-140800000D01*
X202956961Y-140780315D01*
X202911206Y-140727511D01*
X202900000Y-140676000D01*
X202900000Y-133924000D01*
X202919685Y-133856961D01*
X202972489Y-133811206D01*
X203024000Y-133800000D01*
X205176000Y-133800000D01*
X205243039Y-133819685D01*
G37*
%TD.AperFunction*%
%TD*%
%TA.AperFunction,Conductor*%
%TO.N,Net-(J3-Pin_1)*%
G36*
X82043039Y-133819685D02*
G01*
X82088794Y-133872489D01*
X82100000Y-133924000D01*
X82100000Y-140676000D01*
X82080315Y-140743039D01*
X82027511Y-140788794D01*
X81976000Y-140800000D01*
X79824000Y-140800000D01*
X79756961Y-140780315D01*
X79711206Y-140727511D01*
X79700000Y-140676000D01*
X79700000Y-133924000D01*
X79719685Y-133856961D01*
X79772489Y-133811206D01*
X79824000Y-133800000D01*
X81976000Y-133800000D01*
X82043039Y-133819685D01*
G37*
%TD.AperFunction*%
%TD*%
%TA.AperFunction,Conductor*%
%TO.N,+BATT*%
G36*
X205343039Y-129619685D02*
G01*
X205388794Y-129672489D01*
X205400000Y-129724000D01*
X205400000Y-132276000D01*
X205380315Y-132343039D01*
X205327511Y-132388794D01*
X205276000Y-132400000D01*
X202924000Y-132400000D01*
X202856961Y-132380315D01*
X202811206Y-132327511D01*
X202800000Y-132276000D01*
X202800000Y-129724000D01*
X202819685Y-129656961D01*
X202872489Y-129611206D01*
X202924000Y-129600000D01*
X205276000Y-129600000D01*
X205343039Y-129619685D01*
G37*
%TD.AperFunction*%
%TD*%
%TA.AperFunction,Conductor*%
%TO.N,+BATT*%
G36*
X114301997Y-75822791D02*
G01*
X114345105Y-75850701D01*
X115563485Y-77063648D01*
X115597107Y-77124895D01*
X115600000Y-77151524D01*
X115600000Y-83275999D01*
X115580315Y-83343038D01*
X115527511Y-83388793D01*
X115476000Y-83399999D01*
X113124000Y-83399999D01*
X113056961Y-83380314D01*
X113011206Y-83327510D01*
X113000000Y-83275999D01*
X113000000Y-77052015D01*
X113019685Y-76984976D01*
X113037106Y-76963554D01*
X114170734Y-75850112D01*
X114232353Y-75817181D01*
X114301997Y-75822791D01*
G37*
%TD.AperFunction*%
%TD*%
M02*
