%TF.GenerationSoftware,KiCad,Pcbnew,8.0.7*%
%TF.CreationDate,2025-04-13T15:12:29-04:00*%
%TF.ProjectId,control,636f6e74-726f-46c2-9e6b-696361645f70,rev?*%
%TF.SameCoordinates,Original*%
%TF.FileFunction,Copper,L6,Bot*%
%TF.FilePolarity,Positive*%
%FSLAX46Y46*%
G04 Gerber Fmt 4.6, Leading zero omitted, Abs format (unit mm)*
G04 Created by KiCad (PCBNEW 8.0.7) date 2025-04-13 15:12:29*
%MOMM*%
%LPD*%
G01*
G04 APERTURE LIST*
G04 Aperture macros list*
%AMRoundRect*
0 Rectangle with rounded corners*
0 $1 Rounding radius*
0 $2 $3 $4 $5 $6 $7 $8 $9 X,Y pos of 4 corners*
0 Add a 4 corners polygon primitive as box body*
4,1,4,$2,$3,$4,$5,$6,$7,$8,$9,$2,$3,0*
0 Add four circle primitives for the rounded corners*
1,1,$1+$1,$2,$3*
1,1,$1+$1,$4,$5*
1,1,$1+$1,$6,$7*
1,1,$1+$1,$8,$9*
0 Add four rect primitives between the rounded corners*
20,1,$1+$1,$2,$3,$4,$5,0*
20,1,$1+$1,$4,$5,$6,$7,0*
20,1,$1+$1,$6,$7,$8,$9,0*
20,1,$1+$1,$8,$9,$2,$3,0*%
%AMFreePoly0*
4,1,6,1.037000,0.000000,0.437000,-0.600000,-0.150000,-0.600000,-0.150000,0.600000,0.437000,0.600000,1.037000,0.000000,1.037000,0.000000,$1*%
%AMFreePoly1*
4,1,6,0.150000,-0.600000,-1.037000,-0.600000,-0.437000,0.000000,-1.037000,0.600000,0.150000,0.600000,0.150000,-0.600000,0.150000,-0.600000,$1*%
G04 Aperture macros list end*
%TA.AperFunction,ComponentPad*%
%ADD10R,1.600000X1.600000*%
%TD*%
%TA.AperFunction,ComponentPad*%
%ADD11C,1.600000*%
%TD*%
%TA.AperFunction,ComponentPad*%
%ADD12C,3.600000*%
%TD*%
%TA.AperFunction,ConnectorPad*%
%ADD13C,6.400000*%
%TD*%
%TA.AperFunction,ComponentPad*%
%ADD14O,1.100000X2.100000*%
%TD*%
%TA.AperFunction,ComponentPad*%
%ADD15O,1.100000X2.600000*%
%TD*%
%TA.AperFunction,ComponentPad*%
%ADD16C,3.800000*%
%TD*%
%TA.AperFunction,ComponentPad*%
%ADD17R,1.700000X1.700000*%
%TD*%
%TA.AperFunction,ComponentPad*%
%ADD18O,1.700000X1.700000*%
%TD*%
%TA.AperFunction,SMDPad,CuDef*%
%ADD19RoundRect,0.140000X-0.170000X0.140000X-0.170000X-0.140000X0.170000X-0.140000X0.170000X0.140000X0*%
%TD*%
%TA.AperFunction,SMDPad,CuDef*%
%ADD20RoundRect,0.135000X-0.135000X-0.185000X0.135000X-0.185000X0.135000X0.185000X-0.135000X0.185000X0*%
%TD*%
%TA.AperFunction,SMDPad,CuDef*%
%ADD21RoundRect,0.135000X0.185000X-0.135000X0.185000X0.135000X-0.185000X0.135000X-0.185000X-0.135000X0*%
%TD*%
%TA.AperFunction,SMDPad,CuDef*%
%ADD22RoundRect,0.135000X-0.185000X0.135000X-0.185000X-0.135000X0.185000X-0.135000X0.185000X0.135000X0*%
%TD*%
%TA.AperFunction,SMDPad,CuDef*%
%ADD23RoundRect,0.140000X0.170000X-0.140000X0.170000X0.140000X-0.170000X0.140000X-0.170000X-0.140000X0*%
%TD*%
%TA.AperFunction,SMDPad,CuDef*%
%ADD24RoundRect,0.237500X-0.237500X0.287500X-0.237500X-0.287500X0.237500X-0.287500X0.237500X0.287500X0*%
%TD*%
%TA.AperFunction,SMDPad,CuDef*%
%ADD25RoundRect,0.150000X0.587500X0.150000X-0.587500X0.150000X-0.587500X-0.150000X0.587500X-0.150000X0*%
%TD*%
%TA.AperFunction,SMDPad,CuDef*%
%ADD26RoundRect,0.150000X0.150000X-0.587500X0.150000X0.587500X-0.150000X0.587500X-0.150000X-0.587500X0*%
%TD*%
%TA.AperFunction,SMDPad,CuDef*%
%ADD27RoundRect,0.140000X-0.140000X-0.170000X0.140000X-0.170000X0.140000X0.170000X-0.140000X0.170000X0*%
%TD*%
%TA.AperFunction,SMDPad,CuDef*%
%ADD28RoundRect,0.135000X0.135000X0.185000X-0.135000X0.185000X-0.135000X-0.185000X0.135000X-0.185000X0*%
%TD*%
%TA.AperFunction,SMDPad,CuDef*%
%ADD29RoundRect,0.135000X0.035355X-0.226274X0.226274X-0.035355X-0.035355X0.226274X-0.226274X0.035355X0*%
%TD*%
%TA.AperFunction,SMDPad,CuDef*%
%ADD30FreePoly0,180.000000*%
%TD*%
%TA.AperFunction,SMDPad,CuDef*%
%ADD31FreePoly1,180.000000*%
%TD*%
%TA.AperFunction,SMDPad,CuDef*%
%ADD32RoundRect,0.225000X0.250000X-0.225000X0.250000X0.225000X-0.250000X0.225000X-0.250000X-0.225000X0*%
%TD*%
%TA.AperFunction,SMDPad,CuDef*%
%ADD33RoundRect,0.237500X0.287500X0.237500X-0.287500X0.237500X-0.287500X-0.237500X0.287500X-0.237500X0*%
%TD*%
%TA.AperFunction,SMDPad,CuDef*%
%ADD34RoundRect,0.200000X0.200000X0.275000X-0.200000X0.275000X-0.200000X-0.275000X0.200000X-0.275000X0*%
%TD*%
%TA.AperFunction,SMDPad,CuDef*%
%ADD35RoundRect,0.135000X0.226274X0.035355X0.035355X0.226274X-0.226274X-0.035355X-0.035355X-0.226274X0*%
%TD*%
%TA.AperFunction,SMDPad,CuDef*%
%ADD36RoundRect,0.140000X0.140000X0.170000X-0.140000X0.170000X-0.140000X-0.170000X0.140000X-0.170000X0*%
%TD*%
%TA.AperFunction,SMDPad,CuDef*%
%ADD37R,1.200000X1.400000*%
%TD*%
%TA.AperFunction,SMDPad,CuDef*%
%ADD38RoundRect,0.140000X-0.021213X0.219203X-0.219203X0.021213X0.021213X-0.219203X0.219203X-0.021213X0*%
%TD*%
%TA.AperFunction,SMDPad,CuDef*%
%ADD39R,0.800000X1.200000*%
%TD*%
%TA.AperFunction,SMDPad,CuDef*%
%ADD40R,1.500000X2.000000*%
%TD*%
%TA.AperFunction,SMDPad,CuDef*%
%ADD41RoundRect,0.135000X-0.035355X0.226274X-0.226274X0.035355X0.035355X-0.226274X0.226274X-0.035355X0*%
%TD*%
%TA.AperFunction,SMDPad,CuDef*%
%ADD42RoundRect,0.250000X0.250000X0.475000X-0.250000X0.475000X-0.250000X-0.475000X0.250000X-0.475000X0*%
%TD*%
%TA.AperFunction,SMDPad,CuDef*%
%ADD43RoundRect,0.250000X-0.450000X-0.800000X0.450000X-0.800000X0.450000X0.800000X-0.450000X0.800000X0*%
%TD*%
%TA.AperFunction,SMDPad,CuDef*%
%ADD44RoundRect,0.135000X-0.226274X-0.035355X-0.035355X-0.226274X0.226274X0.035355X0.035355X0.226274X0*%
%TD*%
%TA.AperFunction,SMDPad,CuDef*%
%ADD45RoundRect,0.075000X0.662500X0.075000X-0.662500X0.075000X-0.662500X-0.075000X0.662500X-0.075000X0*%
%TD*%
%TA.AperFunction,SMDPad,CuDef*%
%ADD46RoundRect,0.075000X0.075000X0.662500X-0.075000X0.662500X-0.075000X-0.662500X0.075000X-0.662500X0*%
%TD*%
%TA.AperFunction,SMDPad,CuDef*%
%ADD47RoundRect,0.100000X0.225000X0.100000X-0.225000X0.100000X-0.225000X-0.100000X0.225000X-0.100000X0*%
%TD*%
%TA.AperFunction,SMDPad,CuDef*%
%ADD48R,1.800000X1.000000*%
%TD*%
%TA.AperFunction,SMDPad,CuDef*%
%ADD49R,2.300000X2.500000*%
%TD*%
%TA.AperFunction,SMDPad,CuDef*%
%ADD50RoundRect,0.150000X-0.150000X0.587500X-0.150000X-0.587500X0.150000X-0.587500X0.150000X0.587500X0*%
%TD*%
%TA.AperFunction,ComponentPad*%
%ADD51RoundRect,0.760000X-1.140000X1.140000X-1.140000X-1.140000X1.140000X-1.140000X1.140000X1.140000X0*%
%TD*%
%TA.AperFunction,SMDPad,CuDef*%
%ADD52RoundRect,0.250000X-0.650000X0.325000X-0.650000X-0.325000X0.650000X-0.325000X0.650000X0.325000X0*%
%TD*%
%TA.AperFunction,SMDPad,CuDef*%
%ADD53RoundRect,0.225000X0.225000X0.250000X-0.225000X0.250000X-0.225000X-0.250000X0.225000X-0.250000X0*%
%TD*%
%TA.AperFunction,ViaPad*%
%ADD54C,0.450000*%
%TD*%
%TA.AperFunction,ViaPad*%
%ADD55C,0.350000*%
%TD*%
%TA.AperFunction,Conductor*%
%ADD56C,0.200000*%
%TD*%
%TA.AperFunction,Conductor*%
%ADD57C,0.153000*%
%TD*%
%TA.AperFunction,Conductor*%
%ADD58C,0.300000*%
%TD*%
%TA.AperFunction,Conductor*%
%ADD59C,0.600000*%
%TD*%
%TA.AperFunction,Conductor*%
%ADD60C,0.400000*%
%TD*%
G04 APERTURE END LIST*
D10*
%TO.P,SW4,1,1*%
%TO.N,Net-(R64-Pad1)*%
X134310000Y-73040000D03*
D11*
%TO.P,SW4,3,4*%
%TO.N,Net-(SW4-4)*%
X134310000Y-67960000D03*
%TO.P,SW4,4,2*%
%TO.N,Net-(SW4-2)*%
X126690000Y-67960000D03*
%TO.P,SW4,6,8*%
%TO.N,Net-(SW4-8)*%
X126690000Y-73040000D03*
%TO.P,SW4,C,C*%
%TO.N,+3V3*%
X134310000Y-70500000D03*
X126690000Y-70500000D03*
%TD*%
%TO.P,SW11,1,1*%
%TO.N,Net-(C36-Pad1)*%
X185730000Y-102750000D03*
%TO.P,SW11,2,2*%
%TO.N,Net-(R115-Pad1)*%
X192230000Y-102750000D03*
%TO.P,SW11,3,3*%
%TO.N,GND*%
X185730000Y-107250000D03*
%TO.P,SW11,4,4*%
%TO.N,unconnected-(SW11-Pad4)*%
X192230000Y-107250000D03*
%TD*%
%TO.P,SW8,1,1*%
%TO.N,Net-(C33-Pad1)*%
X195750000Y-102750000D03*
%TO.P,SW8,2,2*%
%TO.N,Net-(R94-Pad1)*%
X202250000Y-102750000D03*
%TO.P,SW8,3,3*%
%TO.N,GND*%
X195750000Y-107250000D03*
%TO.P,SW8,4,4*%
%TO.N,unconnected-(SW8-Pad4)*%
X202250000Y-107250000D03*
%TD*%
D12*
%TO.P,H1,1*%
%TO.N,N/C*%
X81000000Y-105000000D03*
D13*
X81000000Y-105000000D03*
%TD*%
D14*
%TO.P,P1,S1,SHIELD*%
%TO.N,GND*%
X177320000Y-69305000D03*
D15*
X177320000Y-63945000D03*
D14*
X168680000Y-69305000D03*
D15*
X168680000Y-63945000D03*
%TD*%
D11*
%TO.P,SW12,1,1*%
%TO.N,Net-(C37-Pad1)*%
X195750000Y-94750000D03*
%TO.P,SW12,2,2*%
%TO.N,Net-(R117-Pad1)*%
X202250000Y-94750000D03*
%TO.P,SW12,3,3*%
%TO.N,GND*%
X195750000Y-99250000D03*
%TO.P,SW12,4,4*%
%TO.N,unconnected-(SW12-Pad4)*%
X202250000Y-99250000D03*
%TD*%
D16*
%TO.P,H5,1*%
%TO.N,N/C*%
X115500000Y-89500000D03*
%TD*%
D12*
%TO.P,H4,1*%
%TO.N,N/C*%
X178500000Y-98000000D03*
D13*
X178500000Y-98000000D03*
%TD*%
D11*
%TO.P,SW10,1,1*%
%TO.N,Net-(C35-Pad1)*%
X205750000Y-102750000D03*
%TO.P,SW10,2,2*%
%TO.N,Net-(R114-Pad1)*%
X212250000Y-102750000D03*
%TO.P,SW10,3,3*%
%TO.N,GND*%
X205750000Y-107250000D03*
%TO.P,SW10,4,4*%
%TO.N,unconnected-(SW10-Pad4)*%
X212250000Y-107250000D03*
%TD*%
D16*
%TO.P,H7,1*%
%TO.N,N/C*%
X115500000Y-129500000D03*
%TD*%
D11*
%TO.P,SW7,1,1*%
%TO.N,Net-(C32-Pad1)*%
X205750000Y-94750000D03*
%TO.P,SW7,2,2*%
%TO.N,Net-(R93-Pad1)*%
X212250000Y-94750000D03*
%TO.P,SW7,3,3*%
%TO.N,GND*%
X205750000Y-99250000D03*
%TO.P,SW7,4,4*%
%TO.N,unconnected-(SW7-Pad4)*%
X212250000Y-99250000D03*
%TD*%
%TO.P,SW9,1,1*%
%TO.N,Net-(C34-Pad1)*%
X195750000Y-110750000D03*
%TO.P,SW9,2,2*%
%TO.N,Net-(R107-Pad1)*%
X202250000Y-110750000D03*
%TO.P,SW9,3,3*%
%TO.N,GND*%
X195750000Y-115250000D03*
%TO.P,SW9,4,4*%
%TO.N,unconnected-(SW9-Pad4)*%
X202250000Y-115250000D03*
%TD*%
D12*
%TO.P,H2,1*%
%TO.N,N/C*%
X219000000Y-105000000D03*
D13*
X219000000Y-105000000D03*
%TD*%
D16*
%TO.P,H8,1*%
%TO.N,N/C*%
X87500000Y-129500000D03*
%TD*%
%TO.P,H6,1*%
%TO.N,N/C*%
X87500000Y-89500000D03*
%TD*%
D12*
%TO.P,H3,1*%
%TO.N,N/C*%
X123500000Y-98000000D03*
D13*
X123500000Y-98000000D03*
%TD*%
D17*
%TO.P,J15,1,Pin_1*%
%TO.N,Net-(J15-Pin_1)*%
X96425000Y-128275000D03*
D18*
%TO.P,J15,2,Pin_2*%
%TO.N,unconnected-(J15-Pin_2-Pad2)*%
X96425000Y-125735000D03*
%TO.P,J15,3,Pin_3*%
%TO.N,GND*%
X98965000Y-128275000D03*
%TO.P,J15,4,Pin_4*%
X98965000Y-125735000D03*
%TO.P,J15,5,Pin_5*%
%TO.N,/display/LCD.TX*%
X101505000Y-128275000D03*
%TO.P,J15,6,Pin_6*%
%TO.N,unconnected-(J15-Pin_6-Pad6)*%
X101505000Y-125735000D03*
%TO.P,J15,7,Pin_7*%
%TO.N,/display/LCD.RX*%
X104045000Y-128275000D03*
%TO.P,J15,8,Pin_8*%
%TO.N,unconnected-(J15-Pin_8-Pad8)*%
X104045000Y-125735000D03*
%TO.P,J15,9,Pin_9*%
%TO.N,+5V*%
X106585000Y-128275000D03*
%TO.P,J15,10,Pin_10*%
%TO.N,unconnected-(J15-Pin_10-Pad10)*%
X106585000Y-125735000D03*
%TD*%
D19*
%TO.P,C35,1*%
%TO.N,Net-(C35-Pad1)*%
X205700000Y-104620000D03*
%TO.P,C35,2*%
%TO.N,GND*%
X205700000Y-105580000D03*
%TD*%
D20*
%TO.P,R71,1*%
%TO.N,GND*%
X96990000Y-102500000D03*
%TO.P,R71,2*%
%TO.N,Net-(D3-K2)*%
X98010000Y-102500000D03*
%TD*%
D21*
%TO.P,R111,1*%
%TO.N,/mcu/LEDS.1*%
X104200000Y-96510000D03*
%TO.P,R111,2*%
%TO.N,Net-(D13-A)*%
X104200000Y-95490000D03*
%TD*%
D22*
%TO.P,R90,1*%
%TO.N,Net-(R102-Pad2)*%
X147250000Y-78990000D03*
%TO.P,R90,2*%
%TO.N,/mcu/DIP.4*%
X147250000Y-80010000D03*
%TD*%
%TO.P,R63,1*%
%TO.N,Net-(SW4-2)*%
X125500000Y-74690000D03*
%TO.P,R63,2*%
%TO.N,/mcu/BOT_ID_SWITCHES.IDX1*%
X125500000Y-75710000D03*
%TD*%
D23*
%TO.P,C23,1*%
%TO.N,+3V3*%
X137650000Y-90980000D03*
%TO.P,C23,2*%
%TO.N,GND*%
X137650000Y-90020000D03*
%TD*%
D24*
%TO.P,F7,1*%
%TO.N,Net-(J13-Pin_2)*%
X182600000Y-119025000D03*
%TO.P,F7,2*%
%TO.N,+3V3*%
X182600000Y-120775000D03*
%TD*%
D22*
%TO.P,R47,1*%
%TO.N,/kicker/KICKER.RTS*%
X163250000Y-123690000D03*
%TO.P,R47,2*%
%TO.N,Net-(J9-Pin_10)*%
X163250000Y-124710000D03*
%TD*%
D25*
%TO.P,Q4,1,G*%
%TO.N,/display/LCD.RST*%
X98937500Y-121037500D03*
%TO.P,Q4,2,S*%
%TO.N,GND*%
X98937500Y-122937500D03*
%TO.P,Q4,3,D*%
%TO.N,Net-(J15-Pin_1)*%
X97062500Y-121987500D03*
%TD*%
D21*
%TO.P,R65,1*%
%TO.N,Net-(D3-A1)*%
X100000000Y-100010000D03*
%TO.P,R65,2*%
%TO.N,+3V3*%
X100000000Y-98990000D03*
%TD*%
D26*
%TO.P,Q2,1,G*%
%TO.N,/mcu/USB_BOOT0_CONTROL*%
X181150000Y-76850000D03*
%TO.P,Q2,2,S*%
%TO.N,GND*%
X179250000Y-76850000D03*
%TO.P,Q2,3,D*%
%TO.N,Net-(Q1-G)*%
X180200000Y-74975000D03*
%TD*%
D21*
%TO.P,R82,1*%
%TO.N,GND*%
X104100000Y-109810000D03*
%TO.P,R82,2*%
%TO.N,Net-(D7-K2)*%
X104100000Y-108790000D03*
%TD*%
%TO.P,R6,1*%
%TO.N,/mcu/USER_BOOT0_OVERRIDE*%
X183700000Y-73860000D03*
%TO.P,R6,2*%
%TO.N,/mcu/BOOT0*%
X183700000Y-72840000D03*
%TD*%
D20*
%TO.P,R87,1*%
%TO.N,Net-(C32-Pad1)*%
X206790000Y-96400000D03*
%TO.P,R87,2*%
%TO.N,+3V3*%
X207810000Y-96400000D03*
%TD*%
D23*
%TO.P,C3,1*%
%TO.N,/mcu/RCC_OSC32_N*%
X167200000Y-96730000D03*
%TO.P,C3,2*%
%TO.N,GND*%
X167200000Y-95770000D03*
%TD*%
D27*
%TO.P,C17,1*%
%TO.N,+3V3*%
X162670000Y-104500000D03*
%TO.P,C17,2*%
%TO.N,GND*%
X163630000Y-104500000D03*
%TD*%
D22*
%TO.P,R19,1*%
%TO.N,/front_right_drive_motor/MOTOR.RTS*%
X93700000Y-137290000D03*
%TO.P,R19,2*%
%TO.N,Net-(J3-Pin_10)*%
X93700000Y-138310000D03*
%TD*%
%TO.P,R89,1*%
%TO.N,Net-(R101-Pad2)*%
X149750000Y-78990000D03*
%TO.P,R89,2*%
%TO.N,/mcu/DIP.3*%
X149750000Y-80010000D03*
%TD*%
%TO.P,R122,1*%
%TO.N,/mcu/ODIN.TX*%
X124500000Y-124690000D03*
%TO.P,R122,2*%
%TO.N,Net-(J5-Pin_6)*%
X124500000Y-125710000D03*
%TD*%
D28*
%TO.P,R94,1*%
%TO.N,Net-(R94-Pad1)*%
X200610000Y-102750000D03*
%TO.P,R94,2*%
%TO.N,/mcu/BTNS.ENTER*%
X199590000Y-102750000D03*
%TD*%
D29*
%TO.P,R35,1*%
%TO.N,/back_left_drive_motor/MOTOR.RTS*%
X191350000Y-74600000D03*
%TO.P,R35,2*%
%TO.N,Net-(J7-Pin_10)*%
X192071248Y-73878752D03*
%TD*%
D30*
%TO.P,JP1,1,A*%
%TO.N,/power/3v0_PREFUSE*%
X171450000Y-107600000D03*
D31*
%TO.P,JP1,2,B*%
%TO.N,Net-(JP1-B)*%
X169750000Y-107600000D03*
%TD*%
D32*
%TO.P,C15,1*%
%TO.N,Net-(C15-Pad1)*%
X136320000Y-90695000D03*
%TO.P,C15,2*%
%TO.N,GND*%
X136320000Y-89145000D03*
%TD*%
D22*
%TO.P,R18,1*%
%TO.N,/front_right_drive_motor/MOTOR.TX*%
X89200000Y-137290000D03*
%TO.P,R18,2*%
%TO.N,Net-(J3-Pin_7)*%
X89200000Y-138310000D03*
%TD*%
%TO.P,R59,1*%
%TO.N,Net-(SW4-8)*%
X126700000Y-74690000D03*
%TO.P,R59,2*%
%TO.N,/mcu/BOT_ID_SWITCHES.IDX3*%
X126700000Y-75710000D03*
%TD*%
D28*
%TO.P,R107,1*%
%TO.N,Net-(R107-Pad1)*%
X200610000Y-110750000D03*
%TO.P,R107,2*%
%TO.N,/mcu/BTNS.UP*%
X199590000Y-110750000D03*
%TD*%
D22*
%TO.P,R99,1*%
%TO.N,GND*%
X154850000Y-73440000D03*
%TO.P,R99,2*%
%TO.N,Net-(R85-Pad1)*%
X154850000Y-74460000D03*
%TD*%
D21*
%TO.P,R51,1*%
%TO.N,+3V3*%
X143600000Y-127310000D03*
%TO.P,R51,2*%
%TO.N,/mcu/OPTICAL_FLOW.RX*%
X143600000Y-126290000D03*
%TD*%
D22*
%TO.P,R125,1*%
%TO.N,/mcu/ODIN.~{RST}*%
X122500000Y-127490000D03*
%TO.P,R125,2*%
%TO.N,GND*%
X122500000Y-128510000D03*
%TD*%
D33*
%TO.P,F8,1*%
%TO.N,Net-(JP1-B)*%
X168275000Y-107600000D03*
%TO.P,F8,2*%
%TO.N,+3V0*%
X166525000Y-107600000D03*
%TD*%
D19*
%TO.P,C36,1*%
%TO.N,Net-(C36-Pad1)*%
X185700000Y-104420000D03*
%TO.P,C36,2*%
%TO.N,GND*%
X185700000Y-105380000D03*
%TD*%
%TO.P,C34,1*%
%TO.N,Net-(C34-Pad1)*%
X195700000Y-112520000D03*
%TO.P,C34,2*%
%TO.N,GND*%
X195700000Y-113480000D03*
%TD*%
D34*
%TO.P,L1,1,1*%
%TO.N,+3V3*%
X181725000Y-107600000D03*
%TO.P,L1,2,2*%
%TO.N,/power/3v3_FILT*%
X180075000Y-107600000D03*
%TD*%
D29*
%TO.P,R36,1*%
%TO.N,/back_left_drive_motor/MOTOR.RST*%
X197889376Y-76610624D03*
%TO.P,R36,2*%
%TO.N,GND*%
X198610624Y-75889376D03*
%TD*%
D22*
%TO.P,R98,1*%
%TO.N,GND*%
X157400000Y-73440000D03*
%TO.P,R98,2*%
%TO.N,Net-(R84-Pad1)*%
X157400000Y-74460000D03*
%TD*%
%TO.P,R58,1*%
%TO.N,Net-(J12-Pin_2)*%
X170350000Y-126390000D03*
%TO.P,R58,2*%
%TO.N,/mcu/POWER.TX*%
X170350000Y-127410000D03*
%TD*%
D35*
%TO.P,R30,1*%
%TO.N,/back_right_drive_motor/MOTOR.RST*%
X103260624Y-75660624D03*
%TO.P,R30,2*%
%TO.N,GND*%
X102539376Y-74939376D03*
%TD*%
D28*
%TO.P,R115,1*%
%TO.N,Net-(R115-Pad1)*%
X190610000Y-102750000D03*
%TO.P,R115,2*%
%TO.N,/mcu/BTNS.RIGHT*%
X189590000Y-102750000D03*
%TD*%
%TO.P,R25,1*%
%TO.N,+3V3*%
X188310000Y-88100000D03*
%TO.P,R25,2*%
%TO.N,/imu/IMU.INT2*%
X187290000Y-88100000D03*
%TD*%
D19*
%TO.P,C4,1*%
%TO.N,/mcu/RCC_OSC32_P*%
X167200000Y-93570000D03*
%TO.P,C4,2*%
%TO.N,GND*%
X167200000Y-94530000D03*
%TD*%
D22*
%TO.P,R103,1*%
%TO.N,GND*%
X144700000Y-73440000D03*
%TO.P,R103,2*%
%TO.N,Net-(R103-Pad2)*%
X144700000Y-74460000D03*
%TD*%
D27*
%TO.P,C8,1*%
%TO.N,+3V0*%
X162670000Y-108650000D03*
%TO.P,C8,2*%
%TO.N,GND*%
X163630000Y-108650000D03*
%TD*%
D36*
%TO.P,C6,1*%
%TO.N,+3V3*%
X135980000Y-96800000D03*
%TO.P,C6,2*%
%TO.N,GND*%
X135020000Y-96800000D03*
%TD*%
D19*
%TO.P,C32,1*%
%TO.N,Net-(C32-Pad1)*%
X205700000Y-96420000D03*
%TO.P,C32,2*%
%TO.N,GND*%
X205700000Y-97380000D03*
%TD*%
D22*
%TO.P,R85,1*%
%TO.N,Net-(R85-Pad1)*%
X154850000Y-78990000D03*
%TO.P,R85,2*%
%TO.N,/mcu/DIP.1*%
X154850000Y-80010000D03*
%TD*%
D19*
%TO.P,C19,1*%
%TO.N,+3V3*%
X151250000Y-112200000D03*
%TO.P,C19,2*%
%TO.N,GND*%
X151250000Y-113160000D03*
%TD*%
D22*
%TO.P,R4,1*%
%TO.N,+3V3*%
X180250000Y-68390000D03*
%TO.P,R4,2*%
%TO.N,Net-(Q1-G)*%
X180250000Y-69410000D03*
%TD*%
D37*
%TO.P,Y2,1,1*%
%TO.N,/mcu/RCC_OSC_N*%
X165100000Y-102850000D03*
%TO.P,Y2,2,2*%
%TO.N,GND*%
X165100000Y-100650000D03*
%TO.P,Y2,3,3*%
%TO.N,/mcu/RCC_OSC_P*%
X166800000Y-100650000D03*
%TO.P,Y2,4,4*%
%TO.N,GND*%
X166800000Y-102850000D03*
%TD*%
D22*
%TO.P,R124,1*%
%TO.N,/mcu/ODIN.BOOT0*%
X123500000Y-127490000D03*
%TO.P,R124,2*%
%TO.N,GND*%
X123500000Y-128510000D03*
%TD*%
D20*
%TO.P,R77,1*%
%TO.N,GND*%
X126090000Y-79000000D03*
%TO.P,R77,2*%
%TO.N,Net-(R74-Pad1)*%
X127110000Y-79000000D03*
%TD*%
D22*
%TO.P,R13,1*%
%TO.N,/mcu/V_{sense}_5V0*%
X165050000Y-113190000D03*
%TO.P,R13,2*%
%TO.N,GND*%
X165050000Y-114210000D03*
%TD*%
D35*
%TO.P,R28,1*%
%TO.N,/back_right_drive_motor/MOTOR.TX*%
X104360624Y-78860624D03*
%TO.P,R28,2*%
%TO.N,Net-(J6-Pin_7)*%
X103639376Y-78139376D03*
%TD*%
D28*
%TO.P,R62,1*%
%TO.N,/mcu/SHELL_DETECT.SCL*%
X80710000Y-123700000D03*
%TO.P,R62,2*%
%TO.N,+3V3*%
X79690000Y-123700000D03*
%TD*%
D38*
%TO.P,C13,1*%
%TO.N,/mcu/NRST*%
X218539411Y-89660589D03*
%TO.P,C13,2*%
%TO.N,GND*%
X217860589Y-90339411D03*
%TD*%
D28*
%TO.P,R93,1*%
%TO.N,Net-(R93-Pad1)*%
X210610000Y-94750000D03*
%TO.P,R93,2*%
%TO.N,/mcu/BTNS.BACK*%
X209590000Y-94750000D03*
%TD*%
%TO.P,R24,1*%
%TO.N,+3V3*%
X188310000Y-89100000D03*
%TO.P,R24,2*%
%TO.N,/imu/IMU.INT1*%
X187290000Y-89100000D03*
%TD*%
D22*
%TO.P,R100,1*%
%TO.N,GND*%
X152350000Y-73440000D03*
%TO.P,R100,2*%
%TO.N,Net-(R100-Pad2)*%
X152350000Y-74460000D03*
%TD*%
D27*
%TO.P,C7,1*%
%TO.N,+3V0*%
X162670000Y-107650000D03*
%TO.P,C7,2*%
%TO.N,GND*%
X163630000Y-107650000D03*
%TD*%
D25*
%TO.P,Q3,1,G*%
%TO.N,Net-(Q3-G)*%
X222737500Y-128300000D03*
%TO.P,Q3,2,S*%
%TO.N,GND*%
X222737500Y-130200000D03*
%TO.P,Q3,3,D*%
%TO.N,Net-(BZ1--)*%
X220862500Y-129250000D03*
%TD*%
D22*
%TO.P,R5,1*%
%TO.N,+3V3*%
X182150000Y-68390000D03*
%TO.P,R5,2*%
%TO.N,Net-(Q1-S)*%
X182150000Y-69410000D03*
%TD*%
D36*
%TO.P,C5,1*%
%TO.N,+3V3*%
X136980000Y-97800000D03*
%TO.P,C5,2*%
%TO.N,GND*%
X136020000Y-97800000D03*
%TD*%
D39*
%TO.P,J1,1,DAT2*%
%TO.N,/mcu/SDMMC1_D2*%
X113720000Y-74200000D03*
%TO.P,J1,2,CD/DAT3*%
%TO.N,/mcu/SDMMC1_D3*%
X114820000Y-74200000D03*
%TO.P,J1,3,CMD*%
%TO.N,/mcu/SDMMC1_CMD*%
X115920000Y-74200000D03*
%TO.P,J1,4,VDD*%
%TO.N,+3V3*%
X117020000Y-74200000D03*
%TO.P,J1,5,CLK*%
%TO.N,/mcu/SDMMC1_CK*%
X118120000Y-74200000D03*
%TO.P,J1,6,VSS*%
%TO.N,GND*%
X119220000Y-74200000D03*
%TO.P,J1,7,DAT0*%
%TO.N,/mcu/SDMMC1_D0*%
X120320000Y-74200000D03*
%TO.P,J1,8,DAT1*%
%TO.N,/mcu/SDMMC1_D1*%
X121420000Y-74200000D03*
D40*
%TO.P,J1,9,Anchor*%
%TO.N,GND*%
X123890000Y-68200000D03*
X123890000Y-76400000D03*
X110000000Y-68200000D03*
X110000000Y-76400000D03*
%TD*%
D41*
%TO.P,R33,1*%
%TO.N,+3V3*%
X196500000Y-73750000D03*
%TO.P,R33,2*%
%TO.N,/back_left_drive_motor/MOTOR.RX*%
X195778752Y-74471248D03*
%TD*%
D23*
%TO.P,C24,1*%
%TO.N,+3V3*%
X147250000Y-87280000D03*
%TO.P,C24,2*%
%TO.N,GND*%
X147250000Y-86320000D03*
%TD*%
D21*
%TO.P,R7,1*%
%TO.N,/mcu/BOOT0*%
X183700000Y-71760000D03*
%TO.P,R7,2*%
%TO.N,GND*%
X183700000Y-70740000D03*
%TD*%
D22*
%TO.P,R68,1*%
%TO.N,GND*%
X132300000Y-65890000D03*
%TO.P,R68,2*%
%TO.N,Net-(SW4-4)*%
X132300000Y-66910000D03*
%TD*%
D21*
%TO.P,R120,1*%
%TO.N,+3V3*%
X126500000Y-128510000D03*
%TO.P,R120,2*%
%TO.N,/mcu/ODIN.CTS*%
X126500000Y-127490000D03*
%TD*%
D22*
%TO.P,R10,1*%
%TO.N,+5V*%
X165050000Y-111240000D03*
%TO.P,R10,2*%
%TO.N,/mcu/V_{sense}_5V0*%
X165050000Y-112260000D03*
%TD*%
D20*
%TO.P,R106,1*%
%TO.N,Net-(C34-Pad1)*%
X196840000Y-112500000D03*
%TO.P,R106,2*%
%TO.N,+3V3*%
X197860000Y-112500000D03*
%TD*%
%TO.P,R88,1*%
%TO.N,Net-(C33-Pad1)*%
X196790000Y-104500000D03*
%TO.P,R88,2*%
%TO.N,+3V3*%
X197810000Y-104500000D03*
%TD*%
D24*
%TO.P,F6,1*%
%TO.N,Net-(J13-Pin_1)*%
X180600000Y-119025000D03*
%TO.P,F6,2*%
%TO.N,+5V*%
X180600000Y-120775000D03*
%TD*%
D22*
%TO.P,R64,1*%
%TO.N,Net-(R64-Pad1)*%
X134300000Y-74690000D03*
%TO.P,R64,2*%
%TO.N,/mcu/BOT_ID_SWITCHES.IDX0*%
X134300000Y-75710000D03*
%TD*%
D21*
%TO.P,R108,1*%
%TO.N,/mcu/LEDS.4*%
X98800000Y-96510000D03*
%TO.P,R108,2*%
%TO.N,Net-(D10-A)*%
X98800000Y-95490000D03*
%TD*%
%TO.P,R38,1*%
%TO.N,+3V3*%
X215300000Y-141310000D03*
%TO.P,R38,2*%
%TO.N,/front_left_drive_motor/MOTOR.CTS*%
X215300000Y-140290000D03*
%TD*%
D22*
%TO.P,R101,1*%
%TO.N,GND*%
X149800000Y-73440000D03*
%TO.P,R101,2*%
%TO.N,Net-(R101-Pad2)*%
X149800000Y-74460000D03*
%TD*%
%TO.P,R105,1*%
%TO.N,GND*%
X139650000Y-73440000D03*
%TO.P,R105,2*%
%TO.N,Net-(R105-Pad2)*%
X139650000Y-74460000D03*
%TD*%
D42*
%TO.P,C38,1*%
%TO.N,GND*%
X185200000Y-125950000D03*
%TO.P,C38,2*%
%TO.N,+5V*%
X183300000Y-125950000D03*
%TD*%
D21*
%TO.P,R76,1*%
%TO.N,GND*%
X102000000Y-107810000D03*
%TO.P,R76,2*%
%TO.N,Net-(D5-K2)*%
X102000000Y-106790000D03*
%TD*%
%TO.P,R79,1*%
%TO.N,Net-(D6-A1)*%
X98700000Y-105210000D03*
%TO.P,R79,2*%
%TO.N,+3V3*%
X98700000Y-104190000D03*
%TD*%
D22*
%TO.P,R69,1*%
%TO.N,GND*%
X128700000Y-65890000D03*
%TO.P,R69,2*%
%TO.N,Net-(SW4-2)*%
X128700000Y-66910000D03*
%TD*%
D43*
%TO.P,D9,1,K*%
%TO.N,+3V3*%
X216500000Y-125900000D03*
%TO.P,D9,2,A*%
%TO.N,Net-(BZ1--)*%
X220900000Y-125900000D03*
%TD*%
D36*
%TO.P,C21,1*%
%TO.N,+3V3*%
X141100000Y-112250000D03*
%TO.P,C21,2*%
%TO.N,GND*%
X140140000Y-112250000D03*
%TD*%
D20*
%TO.P,R113,1*%
%TO.N,Net-(C36-Pad1)*%
X186790000Y-104400000D03*
%TO.P,R113,2*%
%TO.N,+3V3*%
X187810000Y-104400000D03*
%TD*%
D29*
%TO.P,R37,1*%
%TO.N,/back_left_drive_motor/MOTOR.BOOT0*%
X198928752Y-77621248D03*
%TO.P,R37,2*%
%TO.N,GND*%
X199650000Y-76900000D03*
%TD*%
D21*
%TO.P,R17,1*%
%TO.N,+3V3*%
X90700000Y-141310000D03*
%TO.P,R17,2*%
%TO.N,/front_right_drive_motor/MOTOR.RX*%
X90700000Y-140290000D03*
%TD*%
D44*
%TO.P,R26,1*%
%TO.N,+3V3*%
X99439376Y-78039376D03*
%TO.P,R26,2*%
%TO.N,/back_right_drive_motor/MOTOR.CTS*%
X100160624Y-78760624D03*
%TD*%
D21*
%TO.P,R56,1*%
%TO.N,+3V3*%
X169100000Y-127410000D03*
%TO.P,R56,2*%
%TO.N,/mcu/POWER.RX*%
X169100000Y-126390000D03*
%TD*%
D20*
%TO.P,R81,1*%
%TO.N,GND*%
X95690000Y-107800000D03*
%TO.P,R81,2*%
%TO.N,Net-(D6-K2)*%
X96710000Y-107800000D03*
%TD*%
D22*
%TO.P,R55,1*%
%TO.N,/mcu/OPTICAL_FLOW.BOOT0*%
X139800000Y-126290000D03*
%TO.P,R55,2*%
%TO.N,GND*%
X139800000Y-127310000D03*
%TD*%
D20*
%TO.P,R22,1*%
%TO.N,Net-(U2-INT1)*%
X152990000Y-117700000D03*
%TO.P,R22,2*%
%TO.N,/imu/IMU.INT1*%
X154010000Y-117700000D03*
%TD*%
%TO.P,R66,1*%
%TO.N,Net-(D4-A1)*%
X104890000Y-101000000D03*
%TO.P,R66,2*%
%TO.N,+3V3*%
X105910000Y-101000000D03*
%TD*%
D22*
%TO.P,R119,1*%
%TO.N,/display/LCD.RST*%
X100600000Y-121040000D03*
%TO.P,R119,2*%
%TO.N,GND*%
X100600000Y-122060000D03*
%TD*%
%TO.P,R54,1*%
%TO.N,/mcu/OPTICAL_FLOW.RST*%
X141100000Y-126290000D03*
%TO.P,R54,2*%
%TO.N,GND*%
X141100000Y-127310000D03*
%TD*%
%TO.P,R70,1*%
%TO.N,GND*%
X131100000Y-65890000D03*
%TO.P,R70,2*%
%TO.N,Net-(R64-Pad1)*%
X131100000Y-66910000D03*
%TD*%
%TO.P,R102,1*%
%TO.N,GND*%
X147250000Y-73440000D03*
%TO.P,R102,2*%
%TO.N,Net-(R102-Pad2)*%
X147250000Y-74460000D03*
%TD*%
D28*
%TO.P,R117,1*%
%TO.N,Net-(R117-Pad1)*%
X200610000Y-94750000D03*
%TO.P,R117,2*%
%TO.N,/mcu/BTNS.DOWN*%
X199590000Y-94750000D03*
%TD*%
D19*
%TO.P,C20,1*%
%TO.N,+3V3*%
X146250000Y-112200000D03*
%TO.P,C20,2*%
%TO.N,GND*%
X146250000Y-113160000D03*
%TD*%
D22*
%TO.P,R41,1*%
%TO.N,/front_left_drive_motor/MOTOR.RTS*%
X216800000Y-137290000D03*
%TO.P,R41,2*%
%TO.N,Net-(J8-Pin_10)*%
X216800000Y-138310000D03*
%TD*%
D23*
%TO.P,C25,1*%
%TO.N,+3V3*%
X152000000Y-87280000D03*
%TO.P,C25,2*%
%TO.N,GND*%
X152000000Y-86320000D03*
%TD*%
D22*
%TO.P,R48,1*%
%TO.N,/kicker/KICKER.RST*%
X158250000Y-126190000D03*
%TO.P,R48,2*%
%TO.N,GND*%
X158250000Y-127210000D03*
%TD*%
D27*
%TO.P,C26,1*%
%TO.N,+3V3*%
X162750000Y-93600000D03*
%TO.P,C26,2*%
%TO.N,GND*%
X163710000Y-93600000D03*
%TD*%
D19*
%TO.P,C18,1*%
%TO.N,+3V3*%
X157750000Y-112200000D03*
%TO.P,C18,2*%
%TO.N,GND*%
X157750000Y-113160000D03*
%TD*%
D20*
%TO.P,R96,1*%
%TO.N,/mcu/BUZZER*%
X218490000Y-123450000D03*
%TO.P,R96,2*%
%TO.N,GND*%
X219510000Y-123450000D03*
%TD*%
D19*
%TO.P,C30,1*%
%TO.N,/power/3v3_FILT*%
X178600000Y-107620000D03*
%TO.P,C30,2*%
%TO.N,GND*%
X178600000Y-108580000D03*
%TD*%
D23*
%TO.P,C27,1*%
%TO.N,+3V3*%
X159750000Y-88980000D03*
%TO.P,C27,2*%
%TO.N,GND*%
X159750000Y-88020000D03*
%TD*%
D20*
%TO.P,R116,1*%
%TO.N,Net-(C37-Pad1)*%
X196790000Y-96500000D03*
%TO.P,R116,2*%
%TO.N,+3V3*%
X197810000Y-96500000D03*
%TD*%
%TO.P,R74,1*%
%TO.N,Net-(R74-Pad1)*%
X128890000Y-79000000D03*
%TO.P,R74,2*%
%TO.N,/mcu/BOT_ID_SWITCHES.TEAM_BLUE_~{YELLOW}*%
X129910000Y-79000000D03*
%TD*%
D28*
%TO.P,R114,1*%
%TO.N,Net-(R114-Pad1)*%
X210610000Y-102750000D03*
%TO.P,R114,2*%
%TO.N,/mcu/BTNS.LEFT*%
X209590000Y-102750000D03*
%TD*%
D27*
%TO.P,C16,1*%
%TO.N,+3V3*%
X162720000Y-99100000D03*
%TO.P,C16,2*%
%TO.N,GND*%
X163680000Y-99100000D03*
%TD*%
D22*
%TO.P,R46,1*%
%TO.N,/kicker/KICKER.TX*%
X159500000Y-123690000D03*
%TO.P,R46,2*%
%TO.N,Net-(J9-Pin_7)*%
X159500000Y-124710000D03*
%TD*%
D21*
%TO.P,R72,1*%
%TO.N,GND*%
X102900000Y-104610000D03*
%TO.P,R72,2*%
%TO.N,Net-(D4-K2)*%
X102900000Y-103590000D03*
%TD*%
D22*
%TO.P,R42,1*%
%TO.N,/front_left_drive_motor/MOTOR.RST*%
X210800000Y-140290000D03*
%TO.P,R42,2*%
%TO.N,GND*%
X210800000Y-141310000D03*
%TD*%
D29*
%TO.P,R2,1*%
%TO.N,+3V3*%
X217039376Y-89560624D03*
%TO.P,R2,2*%
%TO.N,/mcu/NRST*%
X217760624Y-88839376D03*
%TD*%
D21*
%TO.P,R50,1*%
%TO.N,+3V3*%
X144800000Y-127310000D03*
%TO.P,R50,2*%
%TO.N,/mcu/OPTICAL_FLOW.CTS*%
X144800000Y-126290000D03*
%TD*%
D22*
%TO.P,R104,1*%
%TO.N,GND*%
X142150000Y-73440000D03*
%TO.P,R104,2*%
%TO.N,Net-(R104-Pad2)*%
X142150000Y-74460000D03*
%TD*%
D19*
%TO.P,C33,1*%
%TO.N,Net-(C33-Pad1)*%
X195700000Y-104520000D03*
%TO.P,C33,2*%
%TO.N,GND*%
X195700000Y-105480000D03*
%TD*%
D21*
%TO.P,R109,1*%
%TO.N,/mcu/LEDS.3*%
X100600000Y-96510000D03*
%TO.P,R109,2*%
%TO.N,Net-(D11-A)*%
X100600000Y-95490000D03*
%TD*%
%TO.P,R44,1*%
%TO.N,+3V3*%
X162000000Y-127210000D03*
%TO.P,R44,2*%
%TO.N,/kicker/KICKER.CTS*%
X162000000Y-126190000D03*
%TD*%
D35*
%TO.P,R31,1*%
%TO.N,/back_right_drive_motor/MOTOR.BOOT0*%
X104360624Y-74560624D03*
%TO.P,R31,2*%
%TO.N,GND*%
X103639376Y-73839376D03*
%TD*%
D22*
%TO.P,R11,1*%
%TO.N,+3V3*%
X160850000Y-111199999D03*
%TO.P,R11,2*%
%TO.N,/mcu/V_{sense}_3v3*%
X160850000Y-112219999D03*
%TD*%
%TO.P,R49,1*%
%TO.N,/kicker/KICKER.BOOT0*%
X157000000Y-126190000D03*
%TO.P,R49,2*%
%TO.N,GND*%
X157000000Y-127210000D03*
%TD*%
D27*
%TO.P,C9,1*%
%TO.N,+3V0*%
X162650000Y-105550000D03*
%TO.P,C9,2*%
%TO.N,GND*%
X163610000Y-105550000D03*
%TD*%
D36*
%TO.P,C12,1*%
%TO.N,/mcu/RCC_OSC_P*%
X167230000Y-99000000D03*
%TO.P,C12,2*%
%TO.N,GND*%
X166270000Y-99000000D03*
%TD*%
D22*
%TO.P,R20,1*%
%TO.N,/front_right_drive_motor/MOTOR.RST*%
X87700000Y-140290000D03*
%TO.P,R20,2*%
%TO.N,GND*%
X87700000Y-141310000D03*
%TD*%
%TO.P,R1,1*%
%TO.N,Net-(R1-Pad1)*%
X164900000Y-67290000D03*
%TO.P,R1,2*%
%TO.N,/mcu/DEBUG_MODE*%
X164900000Y-68310000D03*
%TD*%
%TO.P,R86,1*%
%TO.N,Net-(R100-Pad2)*%
X152300000Y-78990000D03*
%TO.P,R86,2*%
%TO.N,/mcu/DIP.2*%
X152300000Y-80010000D03*
%TD*%
D45*
%TO.P,U1,1,PE2*%
%TO.N,/back_left_drive_motor/MOTOR.RX*%
X160662500Y-91087500D03*
%TO.P,U1,2,PE3*%
%TO.N,/back_left_drive_motor/MOTOR.TX*%
X160662500Y-91587500D03*
%TO.P,U1,3,PE4*%
%TO.N,/back_left_drive_motor/MOTOR.RST*%
X160662500Y-92087500D03*
%TO.P,U1,4,PE5*%
%TO.N,/back_left_drive_motor/MOTOR.BOOT0*%
X160662500Y-92587500D03*
%TO.P,U1,5,PE6*%
%TO.N,/mcu/BUZZER*%
X160662500Y-93087500D03*
%TO.P,U1,6,VBAT*%
%TO.N,+3V3*%
X160662500Y-93587500D03*
%TO.P,U1,7,PC13*%
%TO.N,/mcu/DEBUG_MODE*%
X160662500Y-94087500D03*
%TO.P,U1,8,PC14*%
%TO.N,/mcu/RCC_OSC32_P*%
X160662500Y-94587500D03*
%TO.P,U1,9,PC15*%
%TO.N,/mcu/RCC_OSC32_N*%
X160662500Y-95087500D03*
%TO.P,U1,10,PF0*%
%TO.N,/mcu/SHELL_DETECT.SDA*%
X160662500Y-95587500D03*
%TO.P,U1,11,PF1*%
%TO.N,/mcu/SHELL_DETECT.SCL*%
X160662500Y-96087500D03*
%TO.P,U1,12,PF2*%
%TO.N,/mcu/SHELL_DETECT.RST*%
X160662500Y-96587500D03*
%TO.P,U1,13,PF3*%
%TO.N,/mcu/SHELL_DETECT.LIGHT*%
X160662500Y-97087500D03*
%TO.P,U1,14,PF4*%
%TO.N,/front_left_drive_motor/MOTOR.RST*%
X160662500Y-97587500D03*
%TO.P,U1,15,PF5*%
%TO.N,/front_left_drive_motor/MOTOR.BOOT0*%
X160662500Y-98087500D03*
%TO.P,U1,16,VSS*%
%TO.N,GND*%
X160662500Y-98587500D03*
%TO.P,U1,17,VDD*%
%TO.N,+3V3*%
X160662500Y-99087500D03*
%TO.P,U1,18,PF6*%
%TO.N,/front_left_drive_motor/MOTOR.RX*%
X160662500Y-99587500D03*
%TO.P,U1,19,PF7*%
%TO.N,/front_left_drive_motor/MOTOR.TX*%
X160662500Y-100087500D03*
%TO.P,U1,20,PF8*%
%TO.N,/front_left_drive_motor/MOTOR.RTS*%
X160662500Y-100587500D03*
%TO.P,U1,21,PF9*%
%TO.N,/front_left_drive_motor/MOTOR.CTS*%
X160662500Y-101087500D03*
%TO.P,U1,22,PF10*%
%TO.N,/mcu/BOT_ID_DISPLAY.TeamBlue*%
X160662500Y-101587500D03*
%TO.P,U1,23,PH0*%
%TO.N,/mcu/RCC_OSC_P*%
X160662500Y-102087500D03*
%TO.P,U1,24,PH1*%
%TO.N,/mcu/RCC_OSC_N*%
X160662500Y-102587500D03*
%TO.P,U1,25,NRST*%
%TO.N,/mcu/NRST*%
X160662500Y-103087500D03*
%TO.P,U1,26,PC0*%
%TO.N,/mcu/BOT_ID_DISPLAY.FL*%
X160662500Y-103587500D03*
%TO.P,U1,27,PC1*%
%TO.N,/mcu/BOT_ID_DISPLAY.FR*%
X160662500Y-104087500D03*
%TO.P,U1,28,PC2_C*%
%TO.N,/mcu/BOT_ID_DISPLAY.BL*%
X160662500Y-104587500D03*
%TO.P,U1,29,PC3_C*%
%TO.N,/mcu/BOT_ID_DISPLAY.BR*%
X160662500Y-105087500D03*
%TO.P,U1,30,VDD*%
%TO.N,+3V3*%
X160662500Y-105587500D03*
%TO.P,U1,31,VSSA*%
%TO.N,GND*%
X160662500Y-106087500D03*
%TO.P,U1,32,VREF+*%
%TO.N,+3V0*%
X160662500Y-106587500D03*
%TO.P,U1,33,VDDA*%
X160662500Y-107087500D03*
%TO.P,U1,34,PA0*%
%TO.N,/mcu/V_{sense}_V_{batt}*%
X160662500Y-107587500D03*
%TO.P,U1,35,PA1*%
%TO.N,/mcu/V_{sense}_5V0*%
X160662500Y-108087500D03*
%TO.P,U1,36,PA2*%
%TO.N,/mcu/V_{sense}_3v3*%
X160662500Y-108587500D03*
D46*
%TO.P,U1,37,PA3*%
%TO.N,/imu/IMU.~{SS}1*%
X158750000Y-110500000D03*
%TO.P,U1,38,VSS*%
%TO.N,GND*%
X158250000Y-110500000D03*
%TO.P,U1,39,VDD*%
%TO.N,+3V3*%
X157750000Y-110500000D03*
%TO.P,U1,40,PA4*%
%TO.N,/imu/IMU.~{SS}0*%
X157250000Y-110500000D03*
%TO.P,U1,41,PA5*%
%TO.N,/imu/IMU.SCK*%
X156750000Y-110500000D03*
%TO.P,U1,42,PA6*%
%TO.N,/imu/IMU.MISO*%
X156250000Y-110500000D03*
%TO.P,U1,43,PA7*%
%TO.N,/imu/IMU.MOSI*%
X155750000Y-110500000D03*
%TO.P,U1,44,PC4*%
%TO.N,/imu/IMU.~{SS}2*%
X155250000Y-110500000D03*
%TO.P,U1,45,PC5*%
%TO.N,/imu/IMU.~{SS}3*%
X154750000Y-110500000D03*
%TO.P,U1,46,PB0*%
%TO.N,/imu/IMU.INT1*%
X154250000Y-110500000D03*
%TO.P,U1,47,PB1*%
%TO.N,/imu/IMU.INT2*%
X153750000Y-110500000D03*
%TO.P,U1,48,PB2*%
%TO.N,/imu/IMU.~{DET}*%
X153250000Y-110500000D03*
%TO.P,U1,49,PF11*%
%TO.N,/mcu/DIP.0*%
X152750000Y-110500000D03*
%TO.P,U1,50,PF12*%
%TO.N,/mcu/DIP.1*%
X152250000Y-110500000D03*
%TO.P,U1,51,VSS*%
%TO.N,GND*%
X151750000Y-110500000D03*
%TO.P,U1,52,VDD*%
%TO.N,+3V3*%
X151250000Y-110500000D03*
%TO.P,U1,53,PF13*%
%TO.N,/mcu/DIP.2*%
X150750000Y-110500000D03*
%TO.P,U1,54,PF14*%
%TO.N,/mcu/DIP.3*%
X150250000Y-110500000D03*
%TO.P,U1,55,PF15*%
%TO.N,/mcu/DIP.4*%
X149750000Y-110500000D03*
%TO.P,U1,56,PG0*%
%TO.N,/mcu/POWER.RX*%
X149250000Y-110500000D03*
%TO.P,U1,57,PG1*%
%TO.N,/mcu/POWER.TX*%
X148750000Y-110500000D03*
%TO.P,U1,58,PE7*%
%TO.N,/mcu/DIP.5*%
X148250000Y-110500000D03*
%TO.P,U1,59,PE8*%
%TO.N,/mcu/DIP.6*%
X147750000Y-110500000D03*
%TO.P,U1,60,PE9*%
%TO.N,/mcu/DIP.7*%
X147250000Y-110500000D03*
%TO.P,U1,61,VSS*%
%TO.N,GND*%
X146750000Y-110500000D03*
%TO.P,U1,62,VDD*%
%TO.N,+3V3*%
X146250000Y-110500000D03*
%TO.P,U1,63,PE10*%
%TO.N,/mcu/BTNS.BACK*%
X145750000Y-110500000D03*
%TO.P,U1,64,PE11*%
%TO.N,/mcu/BTNS.ENTER*%
X145250000Y-110500000D03*
%TO.P,U1,65,PE12*%
%TO.N,/mcu/BTNS.LEFT*%
X144750000Y-110500000D03*
%TO.P,U1,66,PE13*%
%TO.N,/mcu/BTNS.RIGHT*%
X144250000Y-110500000D03*
%TO.P,U1,67,PE14*%
%TO.N,/mcu/BTNS.UP*%
X143750000Y-110500000D03*
%TO.P,U1,68,PE15*%
%TO.N,/mcu/BTNS.DOWN*%
X143250000Y-110500000D03*
%TO.P,U1,69,PB10*%
%TO.N,/mcu/BOT_ID_SWITCHES.TEAM_BLUE_~{YELLOW}*%
X142750000Y-110500000D03*
%TO.P,U1,70,PB11*%
%TO.N,/mcu/BOT_ID_SWITCHES.SRC_PRIO_USER_~{AUTO}*%
X142250000Y-110500000D03*
%TO.P,U1,71,VCAP*%
%TO.N,Net-(C14-Pad1)*%
X141750000Y-110500000D03*
%TO.P,U1,72,VDD*%
%TO.N,+3V3*%
X141250000Y-110500000D03*
D45*
%TO.P,U1,73,PB12*%
%TO.N,/front_right_drive_motor/MOTOR.BOOT0*%
X139337500Y-108587500D03*
%TO.P,U1,74,PB13*%
%TO.N,/front_right_drive_motor/MOTOR.RST*%
X139337500Y-108087500D03*
%TO.P,U1,75,PB14*%
%TO.N,/mcu/OPTICAL_FLOW.RTS*%
X139337500Y-107587500D03*
%TO.P,U1,76,PB15*%
%TO.N,/mcu/OPTICAL_FLOW.CTS*%
X139337500Y-107087500D03*
%TO.P,U1,77,PD8*%
%TO.N,/front_right_drive_motor/MOTOR.TX*%
X139337500Y-106587500D03*
%TO.P,U1,78,PD9*%
%TO.N,/front_right_drive_motor/MOTOR.RX*%
X139337500Y-106087500D03*
%TO.P,U1,79,PD10*%
%TO.N,/mcu/BOT_ID_DISPLAY.SrcDisagree*%
X139337500Y-105587500D03*
%TO.P,U1,80,PD11*%
%TO.N,/front_right_drive_motor/MOTOR.CTS*%
X139337500Y-105087500D03*
%TO.P,U1,81,PD12*%
%TO.N,/front_right_drive_motor/MOTOR.RTS*%
X139337500Y-104587500D03*
%TO.P,U1,82,PD13*%
%TO.N,/mcu/LEDS.4*%
X139337500Y-104087500D03*
%TO.P,U1,83,VSS*%
%TO.N,GND*%
X139337500Y-103587500D03*
%TO.P,U1,84,VDD*%
%TO.N,+3V3*%
X139337500Y-103087500D03*
%TO.P,U1,85,PD14*%
%TO.N,/kicker/KICKER.CTS*%
X139337500Y-102587500D03*
%TO.P,U1,86,PD15*%
%TO.N,/kicker/KICKER.RTS*%
X139337500Y-102087500D03*
%TO.P,U1,87,PG2*%
%TO.N,/kicker/KICKER.BOOT0*%
X139337500Y-101587500D03*
%TO.P,U1,88,PG3*%
%TO.N,/kicker/KICKER.RST*%
X139337500Y-101087500D03*
%TO.P,U1,89,PG4*%
%TO.N,/mcu/LEDS.3*%
X139337500Y-100587500D03*
%TO.P,U1,90,PG5*%
%TO.N,/mcu/LEDS.2*%
X139337500Y-100087500D03*
%TO.P,U1,91,PG6*%
%TO.N,/mcu/LEDS.1*%
X139337500Y-99587500D03*
%TO.P,U1,92,PG7*%
%TO.N,/back_right_drive_motor/MOTOR.BOOT0*%
X139337500Y-99087500D03*
%TO.P,U1,93,PG8*%
%TO.N,/back_right_drive_motor/MOTOR.RST*%
X139337500Y-98587500D03*
%TO.P,U1,94,VSS*%
%TO.N,GND*%
X139337500Y-98087500D03*
%TO.P,U1,95,VDD33USB*%
%TO.N,+3V3*%
X139337500Y-97587500D03*
%TO.P,U1,96,PC6*%
%TO.N,/back_right_drive_motor/MOTOR.TX*%
X139337500Y-97087500D03*
%TO.P,U1,97,PC7*%
%TO.N,/back_right_drive_motor/MOTOR.RX*%
X139337500Y-96587500D03*
%TO.P,U1,98,PC8*%
%TO.N,/mcu/SDMMC1_D0*%
X139337500Y-96087500D03*
%TO.P,U1,99,PC9*%
%TO.N,/mcu/SDMMC1_D1*%
X139337500Y-95587500D03*
%TO.P,U1,100,PA8*%
%TO.N,/display/LCD.RST*%
X139337500Y-95087500D03*
%TO.P,U1,101,PA9*%
%TO.N,/display/LCD.TX*%
X139337500Y-94587500D03*
%TO.P,U1,102,PA10*%
%TO.N,/display/LCD.RX*%
X139337500Y-94087500D03*
%TO.P,U1,103,PA11*%
%TO.N,/mcu/USB_HS_D_N*%
X139337500Y-93587500D03*
%TO.P,U1,104,PA12*%
%TO.N,/mcu/USB_HS_D_P*%
X139337500Y-93087500D03*
%TO.P,U1,105,PA13(JTMS*%
%TO.N,/mcu/SWDIO*%
X139337500Y-92587500D03*
%TO.P,U1,106,VCAP*%
%TO.N,Net-(C15-Pad1)*%
X139337500Y-92087500D03*
%TO.P,U1,107,VSS*%
%TO.N,GND*%
X139337500Y-91587500D03*
%TO.P,U1,108,VDD*%
%TO.N,+3V3*%
X139337500Y-91087500D03*
D46*
%TO.P,U1,109,PA14(JTCK*%
%TO.N,/mcu/SWCLK*%
X141250000Y-89175000D03*
%TO.P,U1,110,PA15(JTDI)*%
%TO.N,/mcu/ODIN.~{DET}*%
X141750000Y-89175000D03*
%TO.P,U1,111,PC10*%
%TO.N,/mcu/SDMMC1_D2*%
X142250000Y-89175000D03*
%TO.P,U1,112,PC11*%
%TO.N,/mcu/SDMMC1_D3*%
X142750000Y-89175000D03*
%TO.P,U1,113,PC12*%
%TO.N,/mcu/SDMMC1_CK*%
X143250000Y-89175000D03*
%TO.P,U1,114,PD0*%
%TO.N,/mcu/BOT_ID_SWITCHES.IDX3*%
X143750000Y-89175000D03*
%TO.P,U1,115,PD1*%
%TO.N,/mcu/BOT_ID_SWITCHES.IDX2*%
X144250000Y-89175000D03*
%TO.P,U1,116,PD2*%
%TO.N,/mcu/SDMMC1_CMD*%
X144750000Y-89175000D03*
%TO.P,U1,117,PD3*%
%TO.N,/mcu/ODIN.CTS*%
X145250000Y-89175000D03*
%TO.P,U1,118,PD4*%
%TO.N,/mcu/ODIN.RTS*%
X145750000Y-89175000D03*
%TO.P,U1,119,PD5*%
%TO.N,/mcu/ODIN.TX*%
X146250000Y-89175000D03*
%TO.P,U1,120,VSS*%
%TO.N,GND*%
X146750000Y-89175000D03*
%TO.P,U1,121,VDD*%
%TO.N,+3V3*%
X147250000Y-89175000D03*
%TO.P,U1,122,PD6*%
%TO.N,/mcu/ODIN.RX*%
X147750000Y-89175000D03*
%TO.P,U1,123,PD7*%
%TO.N,/mcu/ODIN.~{RST}*%
X148250000Y-89175000D03*
%TO.P,U1,124,PG9*%
%TO.N,/mcu/ODIN.BOOT0*%
X148750000Y-89175000D03*
%TO.P,U1,125,PG10*%
%TO.N,/mcu/BOT_ID_SWITCHES.IDX1*%
X149250000Y-89175000D03*
%TO.P,U1,126,PG11*%
%TO.N,/mcu/BOT_ID_SWITCHES.IDX0*%
X149750000Y-89175000D03*
%TO.P,U1,127,PG12*%
%TO.N,/back_right_drive_motor/MOTOR.RTS*%
X150250000Y-89175000D03*
%TO.P,U1,128,PG13*%
%TO.N,/back_left_drive_motor/MOTOR.CTS*%
X150750000Y-89175000D03*
%TO.P,U1,129,PG14*%
%TO.N,/back_left_drive_motor/MOTOR.RTS*%
X151250000Y-89175000D03*
%TO.P,U1,130,VSS*%
%TO.N,GND*%
X151750000Y-89175000D03*
%TO.P,U1,131,VDD*%
%TO.N,+3V3*%
X152250000Y-89175000D03*
%TO.P,U1,132,PG15*%
%TO.N,/back_right_drive_motor/MOTOR.CTS*%
X152750000Y-89175000D03*
%TO.P,U1,133,PB3(JTDO*%
%TO.N,/mcu/DOTSTARS.SCK*%
X153250000Y-89175000D03*
%TO.P,U1,134,PB4(NJTRST)*%
%TO.N,unconnected-(U1-PB4(NJTRST)-Pad134)*%
X153750000Y-89175000D03*
%TO.P,U1,135,PB5*%
%TO.N,/mcu/DOTSTARS.MOSI*%
X154250000Y-89175000D03*
%TO.P,U1,136,PB6*%
%TO.N,/mcu/OPTICAL_FLOW.RST*%
X154750000Y-89175000D03*
%TO.P,U1,137,PB7*%
%TO.N,/mcu/OPTICAL_FLOW.BOOT0*%
X155250000Y-89175000D03*
%TO.P,U1,138,BOOT0*%
%TO.N,/mcu/BOOT0*%
X155750000Y-89175000D03*
%TO.P,U1,139,PB8*%
%TO.N,/mcu/OPTICAL_FLOW.RX*%
X156250000Y-89175000D03*
%TO.P,U1,140,PB9*%
%TO.N,/mcu/OPTICAL_FLOW.TX*%
X156750000Y-89175000D03*
%TO.P,U1,141,PE0*%
%TO.N,/kicker/KICKER.RX*%
X157250000Y-89175000D03*
%TO.P,U1,142,PE1*%
%TO.N,/kicker/KICKER.TX*%
X157750000Y-89175000D03*
%TO.P,U1,143,PDR_ON*%
%TO.N,+3V3*%
X158250000Y-89175000D03*
%TO.P,U1,144,VDD*%
X158750000Y-89175000D03*
%TD*%
D22*
%TO.P,R95,1*%
%TO.N,Net-(R104-Pad2)*%
X142100000Y-78990000D03*
%TO.P,R95,2*%
%TO.N,/mcu/DIP.6*%
X142100000Y-80010000D03*
%TD*%
%TO.P,R43,1*%
%TO.N,/front_left_drive_motor/MOTOR.BOOT0*%
X209300000Y-140290000D03*
%TO.P,R43,2*%
%TO.N,GND*%
X209300000Y-141310000D03*
%TD*%
D19*
%TO.P,C37,1*%
%TO.N,Net-(C37-Pad1)*%
X195700000Y-96520000D03*
%TO.P,C37,2*%
%TO.N,GND*%
X195700000Y-97480000D03*
%TD*%
D20*
%TO.P,R91,1*%
%TO.N,/mcu/BUZZER*%
X218490000Y-122400000D03*
%TO.P,R91,2*%
%TO.N,Net-(Q3-G)*%
X219510000Y-122400000D03*
%TD*%
D47*
%TO.P,U3,1,IN*%
%TO.N,/power/3v3_FILT*%
X177250000Y-107650000D03*
%TO.P,U3,2,GND*%
%TO.N,GND*%
X177250000Y-108300000D03*
%TO.P,U3,3,EN*%
%TO.N,/power/3v3_FILT*%
X177250000Y-108950000D03*
%TO.P,U3,4,NC*%
%TO.N,unconnected-(U3-NC-Pad4)*%
X175350000Y-108950000D03*
%TO.P,U3,5,OUT*%
%TO.N,/power/3v0_PREFUSE*%
X175350000Y-107650000D03*
%TD*%
D22*
%TO.P,R67,1*%
%TO.N,GND*%
X129900000Y-65890000D03*
%TO.P,R67,2*%
%TO.N,Net-(SW4-8)*%
X129900000Y-66910000D03*
%TD*%
D21*
%TO.P,R73,1*%
%TO.N,Net-(D5-A1)*%
X100900000Y-103210000D03*
%TO.P,R73,2*%
%TO.N,+3V3*%
X100900000Y-102190000D03*
%TD*%
%TO.P,R39,1*%
%TO.N,+3V3*%
X213800000Y-141310000D03*
%TO.P,R39,2*%
%TO.N,/front_left_drive_motor/MOTOR.RX*%
X213800000Y-140290000D03*
%TD*%
D41*
%TO.P,R32,1*%
%TO.N,+3V3*%
X195460624Y-72689376D03*
%TO.P,R32,2*%
%TO.N,/back_left_drive_motor/MOTOR.CTS*%
X194739376Y-73410624D03*
%TD*%
D22*
%TO.P,R14,1*%
%TO.N,/mcu/V_{sense}_3v3*%
X160850000Y-113149999D03*
%TO.P,R14,2*%
%TO.N,GND*%
X160850000Y-114169999D03*
%TD*%
D20*
%TO.P,R75,1*%
%TO.N,Net-(R75-Pad1)*%
X128890000Y-80000000D03*
%TO.P,R75,2*%
%TO.N,/mcu/BOT_ID_SWITCHES.SRC_PRIO_USER_~{AUTO}*%
X129910000Y-80000000D03*
%TD*%
%TO.P,R112,1*%
%TO.N,Net-(C35-Pad1)*%
X206840000Y-104550000D03*
%TO.P,R112,2*%
%TO.N,+3V3*%
X207860000Y-104550000D03*
%TD*%
D21*
%TO.P,R118,1*%
%TO.N,/mcu/DOTSTARS.SCK*%
X153300000Y-85310000D03*
%TO.P,R118,2*%
%TO.N,GND*%
X153300000Y-84290000D03*
%TD*%
D20*
%TO.P,R78,1*%
%TO.N,GND*%
X126090000Y-80000000D03*
%TO.P,R78,2*%
%TO.N,Net-(R75-Pad1)*%
X127110000Y-80000000D03*
%TD*%
D35*
%TO.P,R29,1*%
%TO.N,/back_right_drive_motor/MOTOR.RTS*%
X101160624Y-82060624D03*
%TO.P,R29,2*%
%TO.N,Net-(J6-Pin_10)*%
X100439376Y-81339376D03*
%TD*%
D22*
%TO.P,R21,1*%
%TO.N,/front_right_drive_motor/MOTOR.BOOT0*%
X86200000Y-140290000D03*
%TO.P,R21,2*%
%TO.N,GND*%
X86200000Y-141310000D03*
%TD*%
%TO.P,R92,1*%
%TO.N,Net-(R103-Pad2)*%
X144700000Y-78990000D03*
%TO.P,R92,2*%
%TO.N,/mcu/DIP.5*%
X144700000Y-80010000D03*
%TD*%
%TO.P,R40,1*%
%TO.N,/front_left_drive_motor/MOTOR.TX*%
X212300000Y-137290000D03*
%TO.P,R40,2*%
%TO.N,Net-(J8-Pin_7)*%
X212300000Y-138310000D03*
%TD*%
D27*
%TO.P,C11,1*%
%TO.N,/mcu/RCC_OSC_N*%
X165600000Y-104500000D03*
%TO.P,C11,2*%
%TO.N,GND*%
X166560000Y-104500000D03*
%TD*%
D20*
%TO.P,R23,1*%
%TO.N,Net-(U2-INT2)*%
X152990000Y-119000000D03*
%TO.P,R23,2*%
%TO.N,/imu/IMU.INT2*%
X154010000Y-119000000D03*
%TD*%
D28*
%TO.P,R61,1*%
%TO.N,/mcu/SHELL_DETECT.SDA*%
X80710000Y-125000000D03*
%TO.P,R61,2*%
%TO.N,+3V3*%
X79690000Y-125000000D03*
%TD*%
D22*
%TO.P,R12,1*%
%TO.N,/mcu/V_{sense}_V_{batt}*%
X166100000Y-111240000D03*
%TO.P,R12,2*%
%TO.N,GND*%
X166100000Y-112260000D03*
%TD*%
D20*
%TO.P,R80,1*%
%TO.N,Net-(D7-A1)*%
X106090000Y-106200000D03*
%TO.P,R80,2*%
%TO.N,+3V3*%
X107110000Y-106200000D03*
%TD*%
D44*
%TO.P,R27,1*%
%TO.N,+3V3*%
X100439376Y-77039376D03*
%TO.P,R27,2*%
%TO.N,/back_right_drive_motor/MOTOR.RX*%
X101160624Y-77760624D03*
%TD*%
D27*
%TO.P,C10,1*%
%TO.N,+3V0*%
X162650000Y-106600000D03*
%TO.P,C10,2*%
%TO.N,GND*%
X163610000Y-106600000D03*
%TD*%
D21*
%TO.P,R121,1*%
%TO.N,+3V3*%
X125500000Y-128510000D03*
%TO.P,R121,2*%
%TO.N,/mcu/ODIN.RX*%
X125500000Y-127490000D03*
%TD*%
D48*
%TO.P,Y1,1,1*%
%TO.N,/mcu/RCC_OSC32_N*%
X165450000Y-96400000D03*
%TO.P,Y1,2,2*%
%TO.N,/mcu/RCC_OSC32_P*%
X165450000Y-93900000D03*
%TD*%
D22*
%TO.P,R84,1*%
%TO.N,Net-(R84-Pad1)*%
X157400000Y-78990000D03*
%TO.P,R84,2*%
%TO.N,/mcu/DIP.0*%
X157400000Y-80010000D03*
%TD*%
D21*
%TO.P,R3,1*%
%TO.N,Net-(R1-Pad1)*%
X164900000Y-65800001D03*
%TO.P,R3,2*%
%TO.N,GND*%
X164900000Y-64780001D03*
%TD*%
D36*
%TO.P,C22,1*%
%TO.N,+3V3*%
X136980000Y-103100000D03*
%TO.P,C22,2*%
%TO.N,GND*%
X136020000Y-103100000D03*
%TD*%
D28*
%TO.P,R8,1*%
%TO.N,/mcu/USB_BOOT0_CONTROL*%
X180710000Y-78600000D03*
%TO.P,R8,2*%
%TO.N,GND*%
X179690000Y-78600000D03*
%TD*%
D21*
%TO.P,R53,1*%
%TO.N,/mcu/OPTICAL_FLOW.RTS*%
X146100000Y-127310000D03*
%TO.P,R53,2*%
%TO.N,Net-(J10-Pin_10)*%
X146100000Y-126290000D03*
%TD*%
D49*
%TO.P,D1,1,A1*%
%TO.N,GND*%
X201700000Y-140050000D03*
%TO.P,D1,2,A2*%
%TO.N,+BATT*%
X201700000Y-144350000D03*
%TD*%
D50*
%TO.P,Q1,1,G*%
%TO.N,Net-(Q1-G)*%
X180250000Y-70962500D03*
%TO.P,Q1,2,S*%
%TO.N,Net-(Q1-S)*%
X182150000Y-70962500D03*
%TO.P,Q1,3,D*%
%TO.N,/mcu/BOOT0*%
X181200000Y-72837500D03*
%TD*%
D21*
%TO.P,R16,1*%
%TO.N,+3V3*%
X92200000Y-141310000D03*
%TO.P,R16,2*%
%TO.N,/front_right_drive_motor/MOTOR.CTS*%
X92200000Y-140290000D03*
%TD*%
D51*
%TO.P,J11,1,Pin_1*%
%TO.N,GND*%
X196100000Y-139700000D03*
D16*
%TO.P,J11,2,Pin_2*%
%TO.N,+BATT*%
X196100000Y-144700000D03*
%TD*%
D52*
%TO.P,C31,1*%
%TO.N,/power/3v0_PREFUSE*%
X173400000Y-107625000D03*
%TO.P,C31,2*%
%TO.N,GND*%
X173400000Y-110575000D03*
%TD*%
D22*
%TO.P,R60,1*%
%TO.N,Net-(SW4-4)*%
X135500000Y-74690000D03*
%TO.P,R60,2*%
%TO.N,/mcu/BOT_ID_SWITCHES.IDX2*%
X135500000Y-75710000D03*
%TD*%
%TO.P,R97,1*%
%TO.N,Net-(R105-Pad2)*%
X139600000Y-78990000D03*
%TO.P,R97,2*%
%TO.N,/mcu/DIP.7*%
X139600000Y-80010000D03*
%TD*%
D29*
%TO.P,R34,1*%
%TO.N,/back_left_drive_motor/MOTOR.TX*%
X194650000Y-77700000D03*
%TO.P,R34,2*%
%TO.N,Net-(J7-Pin_7)*%
X195371248Y-76978752D03*
%TD*%
D22*
%TO.P,R123,1*%
%TO.N,/mcu/ODIN.RTS*%
X127500000Y-124690000D03*
%TO.P,R123,2*%
%TO.N,Net-(J5-Pin_3)*%
X127500000Y-125710000D03*
%TD*%
%TO.P,R52,1*%
%TO.N,/mcu/OPTICAL_FLOW.TX*%
X142300000Y-123590000D03*
%TO.P,R52,2*%
%TO.N,Net-(J10-Pin_7)*%
X142300000Y-124610000D03*
%TD*%
%TO.P,R9,1*%
%TO.N,+BATT*%
X166100000Y-109290000D03*
%TO.P,R9,2*%
%TO.N,/mcu/V_{sense}_V_{batt}*%
X166100000Y-110310000D03*
%TD*%
D53*
%TO.P,C14,1*%
%TO.N,Net-(C14-Pad1)*%
X140825000Y-113600000D03*
%TO.P,C14,2*%
%TO.N,GND*%
X139275000Y-113600000D03*
%TD*%
D21*
%TO.P,R45,1*%
%TO.N,+3V3*%
X160750000Y-127210000D03*
%TO.P,R45,2*%
%TO.N,/kicker/KICKER.RX*%
X160750000Y-126190000D03*
%TD*%
%TO.P,R110,1*%
%TO.N,/mcu/LEDS.2*%
X102400000Y-96510000D03*
%TO.P,R110,2*%
%TO.N,Net-(D12-A)*%
X102400000Y-95490000D03*
%TD*%
D54*
%TO.N,Net-(BZ1--)*%
X222750000Y-129250000D03*
%TO.N,+3V3*%
X183690000Y-66700000D03*
X188309999Y-88100000D03*
X196500000Y-73750000D03*
X121500000Y-126575000D03*
X183200000Y-123100000D03*
X146250000Y-112200000D03*
X105909999Y-101000000D03*
X126500000Y-128509999D03*
X219850000Y-139295000D03*
X151250000Y-112200000D03*
X184000000Y-123100000D03*
X152310000Y-66700000D03*
X160850000Y-111200000D03*
X181725000Y-107600000D03*
X214082986Y-86909117D03*
X143600000Y-127309999D03*
X182400000Y-123900000D03*
X147230000Y-66700000D03*
X187809999Y-104400000D03*
X162000000Y-127209999D03*
X100439376Y-77039376D03*
X149770000Y-66700000D03*
X98700000Y-104190001D03*
X90700000Y-141309999D03*
X197809999Y-96500000D03*
X213800000Y-141309999D03*
X162735691Y-99090376D03*
X144690000Y-66700000D03*
X147250000Y-87300000D03*
X190729381Y-71003357D03*
X141100000Y-112250000D03*
X197859999Y-112500000D03*
X117020000Y-74200000D03*
X183200000Y-123900000D03*
X136990000Y-97810000D03*
X195460624Y-72689376D03*
X153275000Y-125500000D03*
X162670000Y-104500000D03*
X197809999Y-104500000D03*
X152000000Y-87280000D03*
X185675000Y-96099999D03*
X136125000Y-125450000D03*
X184000000Y-123900000D03*
X136950000Y-103100000D03*
X107109999Y-106200000D03*
X160750000Y-127209999D03*
X79690000Y-125000000D03*
X144800000Y-127309999D03*
X218950000Y-129250000D03*
X157750000Y-112200000D03*
X96650000Y-139295000D03*
X135980000Y-96800000D03*
X92200000Y-141309999D03*
X81550000Y-126225000D03*
X142150000Y-66700000D03*
X97593398Y-82706602D03*
X207859999Y-104550000D03*
X157390000Y-66700000D03*
X125500000Y-128509999D03*
X79690000Y-123700000D03*
X216500000Y-125900000D03*
X100000000Y-98990001D03*
X162750000Y-93600000D03*
X169100000Y-127409999D03*
X154850000Y-66700000D03*
X188309999Y-89100000D03*
X100900000Y-102190001D03*
X207809999Y-96400000D03*
X159750000Y-88980000D03*
X149750000Y-122030000D03*
X139610000Y-66700000D03*
X215300000Y-141309999D03*
X164900000Y-75450000D03*
X150750000Y-122030000D03*
X137650000Y-90980000D03*
X182400000Y-123100000D03*
%TO.N,GND*%
X87700000Y-141309999D03*
X163630000Y-108650000D03*
X158000000Y-109300000D03*
X152000000Y-86300000D03*
X213184960Y-86011091D03*
X149750000Y-121070000D03*
X177249999Y-108300000D03*
X103639376Y-73839376D03*
X123890000Y-76400000D03*
X163610000Y-105550000D03*
X169900000Y-68415000D03*
X185675000Y-86100001D03*
X102900000Y-104609999D03*
X152350000Y-73440001D03*
X154525000Y-125500000D03*
X142150000Y-73440001D03*
X100600000Y-92699999D03*
X166270000Y-99000000D03*
X154850000Y-73440001D03*
X165075000Y-128650000D03*
X155775000Y-125500000D03*
X222737500Y-130200000D03*
X129500000Y-126575000D03*
X86200000Y-141309999D03*
X138250000Y-119100000D03*
X124250000Y-119100000D03*
X102539376Y-74939376D03*
X189786218Y-80148959D03*
X199650000Y-76900000D03*
X164900000Y-64780001D03*
X186000000Y-120300000D03*
X163710000Y-93600000D03*
X186800000Y-121900000D03*
X188200000Y-97400000D03*
X209950000Y-119100000D03*
X146250000Y-113160000D03*
X119200000Y-129100000D03*
X146500000Y-109300000D03*
X84650000Y-138450000D03*
X163680000Y-99100000D03*
X160850000Y-114169998D03*
X128700000Y-65890001D03*
X212286934Y-85113066D03*
X107197506Y-73197505D03*
X102000000Y-107809999D03*
X185200000Y-119500000D03*
X157000000Y-127209999D03*
X188200000Y-84800000D03*
X106600000Y-72600000D03*
X207850000Y-138450000D03*
X184400000Y-120300000D03*
X147000000Y-90400000D03*
X140140000Y-112250000D03*
X191790041Y-72064017D03*
X140500000Y-103300000D03*
X119200000Y-73200000D03*
X174100000Y-125500000D03*
X157750000Y-113160000D03*
X122500000Y-128509999D03*
X110000000Y-76400000D03*
X99350000Y-132400000D03*
X201450000Y-119100000D03*
X123500000Y-128509999D03*
X185200000Y-121900000D03*
X96990001Y-102500000D03*
X166800000Y-102850000D03*
X178600000Y-108580000D03*
X163610000Y-106600000D03*
X184400000Y-121100000D03*
X219509999Y-123450000D03*
X200827388Y-79993935D03*
X206349999Y-139295000D03*
X186800000Y-121100000D03*
X167200000Y-94530000D03*
X107766726Y-73766726D03*
X83149998Y-140100000D03*
X186800000Y-118700000D03*
X149800000Y-73440001D03*
X135020000Y-96800000D03*
X159750000Y-88020000D03*
X84650001Y-139295000D03*
X129900000Y-65890001D03*
X147250000Y-73440001D03*
X136320000Y-89145000D03*
X98654058Y-81645942D03*
X123890000Y-68200000D03*
X164750000Y-119100000D03*
X137650000Y-90020000D03*
X179250000Y-76850000D03*
X84650000Y-140100000D03*
X105539338Y-73660662D03*
X166560000Y-104500000D03*
X167200000Y-95770000D03*
X220284924Y-94106245D03*
X222550000Y-132400000D03*
X183700000Y-70740001D03*
X157400000Y-73440001D03*
X206349998Y-140150000D03*
X95690001Y-107800000D03*
X125200000Y-79500000D03*
X186000000Y-121900000D03*
X102400001Y-92699999D03*
X147250000Y-86320000D03*
X140500000Y-97800000D03*
X147975000Y-128650000D03*
X138625000Y-125450000D03*
X106739000Y-83899765D03*
X131100000Y-65890001D03*
X210800000Y-141309999D03*
X210490883Y-83317014D03*
X139650000Y-73440001D03*
X207850000Y-140150000D03*
X159500000Y-106400000D03*
X185200000Y-118700000D03*
X207850001Y-139295000D03*
X106136844Y-74258166D03*
X152000000Y-90400000D03*
X139275000Y-113600000D03*
X110000000Y-68200000D03*
X186000000Y-118700000D03*
X104100000Y-109809999D03*
X95150000Y-139295000D03*
X83149998Y-138450000D03*
X199660662Y-81160662D03*
X199766726Y-78933274D03*
X130800000Y-129100000D03*
X153300000Y-84300000D03*
X151400000Y-109300000D03*
X169500000Y-72000000D03*
X218350000Y-139295000D03*
X198600000Y-80100000D03*
X166100000Y-112259999D03*
X175650000Y-119100000D03*
X141100000Y-127309999D03*
X165050000Y-114209999D03*
X158250000Y-127209999D03*
X139800000Y-127309999D03*
X116400000Y-72120000D03*
X175510000Y-72000000D03*
X150125000Y-128650000D03*
X173400000Y-110575001D03*
X144700000Y-73440001D03*
X186800000Y-120300000D03*
X132300000Y-65890001D03*
X145950000Y-119100000D03*
X98800000Y-92700000D03*
X198610624Y-75889376D03*
X206349998Y-138450000D03*
X186800000Y-119500000D03*
X81550000Y-119975000D03*
X199197505Y-79502494D03*
X215193755Y-89015076D03*
X151250000Y-113160000D03*
X83149999Y-139295000D03*
X159500000Y-98800000D03*
X186000000Y-119500000D03*
X185200000Y-120300000D03*
X133025000Y-128650000D03*
X176100000Y-68415000D03*
X150750000Y-121070000D03*
X140500000Y-91300000D03*
X184400000Y-121900000D03*
X115200000Y-72120000D03*
X136020000Y-97800000D03*
X163630000Y-107650000D03*
X184400000Y-119500000D03*
X136020000Y-103100000D03*
X163630000Y-104500000D03*
X106706065Y-74827388D03*
X200258166Y-80563156D03*
X185200000Y-121100000D03*
X209300000Y-141309999D03*
X137375000Y-125450000D03*
X184400000Y-118700000D03*
X165100000Y-100650000D03*
X186000000Y-121100000D03*
X104200000Y-92700000D03*
%TO.N,/mcu/NRST*%
X217315076Y-86893755D03*
X169850000Y-103450000D03*
X168300000Y-103400000D03*
X162550000Y-103400000D03*
%TO.N,+5V*%
X141050000Y-119100000D03*
X120500000Y-126575000D03*
X152025000Y-125500000D03*
X165050000Y-111240001D03*
X182000000Y-125500000D03*
X134875000Y-125450000D03*
X170750000Y-119100000D03*
X193251041Y-83613782D03*
X190500000Y-86350000D03*
X94450000Y-132400000D03*
X182000000Y-126300000D03*
X109100000Y-84600000D03*
X133350000Y-119100000D03*
X196550000Y-119100000D03*
X181200000Y-126300000D03*
X159850000Y-119100000D03*
X180400000Y-125500000D03*
X205050000Y-119100000D03*
X180400000Y-126300000D03*
X181200000Y-125500000D03*
X119350000Y-119100000D03*
%TO.N,+BATT*%
X195165685Y-87500000D03*
X81800000Y-130800000D03*
X80000000Y-130800000D03*
X205000000Y-131600000D03*
X194600000Y-88065685D03*
X114300000Y-83000000D03*
X204100000Y-130812500D03*
X204100000Y-130000000D03*
X113400000Y-83000000D03*
X203200000Y-130800000D03*
X80900000Y-130812500D03*
X115200000Y-81400000D03*
X80000000Y-130000000D03*
X195731371Y-86934315D03*
X205000000Y-130000000D03*
X113400000Y-82200000D03*
X197004163Y-88207107D03*
X203200000Y-130000000D03*
X196376606Y-87561872D03*
X114300000Y-81387500D03*
X195236396Y-88702082D03*
X113400000Y-81400000D03*
X195872792Y-89338478D03*
X203200000Y-131600000D03*
X81800000Y-130000000D03*
X115200000Y-83000000D03*
X80900000Y-130000000D03*
X196438478Y-88772792D03*
X81800000Y-131600000D03*
X187050000Y-117000000D03*
X115200000Y-82200000D03*
X80000000Y-131600000D03*
X114300000Y-82187500D03*
X204100000Y-131612500D03*
X195810920Y-88127557D03*
X205000000Y-130800000D03*
X80900000Y-131612500D03*
%TO.N,/mcu/BOT_ID_DISPLAY.FL*%
X98999999Y-101025000D03*
X99849999Y-102475000D03*
X153850000Y-103250000D03*
%TO.N,Net-(D3-A1)*%
X99849999Y-101025000D03*
%TO.N,Net-(D3-K2)*%
X98999999Y-102475000D03*
%TO.N,Net-(D4-K2)*%
X103000001Y-102475000D03*
%TO.N,Net-(D4-A1)*%
X103850001Y-101025000D03*
%TO.N,/mcu/BOT_ID_DISPLAY.FR*%
X103850001Y-102475000D03*
X103000001Y-101025000D03*
X154300000Y-103950000D03*
%TO.N,Net-(D5-K2)*%
X101850000Y-105725000D03*
%TO.N,/mcu/BOT_ID_DISPLAY.TeamBlue*%
X101850000Y-104275000D03*
X143150000Y-100550000D03*
X101000000Y-105725000D03*
X106550000Y-104150000D03*
%TO.N,Net-(D5-A1)*%
X101000000Y-104275000D03*
%TO.N,/mcu/BOT_ID_DISPLAY.BL*%
X98600000Y-107725001D03*
X153500000Y-104050000D03*
X97750000Y-106275001D03*
%TO.N,Net-(D6-A1)*%
X98600000Y-106275001D03*
%TO.N,Net-(D6-K2)*%
X97750000Y-107725001D03*
%TO.N,Net-(D7-A1)*%
X105100000Y-106275001D03*
%TO.N,Net-(D7-K2)*%
X104250000Y-107725001D03*
%TO.N,/mcu/BOT_ID_DISPLAY.BR*%
X153250000Y-104850000D03*
X105100000Y-107725001D03*
X104250000Y-106275001D03*
%TO.N,Net-(D10-A)*%
X98800000Y-94200000D03*
%TO.N,Net-(D11-A)*%
X100600000Y-94200000D03*
%TO.N,Net-(D12-A)*%
X102400000Y-94200000D03*
%TO.N,Net-(D13-A)*%
X104200000Y-94200000D03*
%TO.N,Net-(J13-Pin_1)*%
X180000000Y-116800000D03*
X179200000Y-117600000D03*
X180800000Y-116800000D03*
X179200000Y-116800000D03*
X180000000Y-117600000D03*
X180800000Y-117600000D03*
%TO.N,Net-(J13-Pin_2)*%
X184000000Y-117600000D03*
X183200000Y-117600000D03*
X184000000Y-116800000D03*
X182400000Y-117600000D03*
X182400000Y-116800000D03*
X183200000Y-116800000D03*
%TO.N,/mcu/SDMMC1_D0*%
X125450000Y-83900000D03*
X127250000Y-85700000D03*
%TO.N,/mcu/SDMMC1_D1*%
X126350000Y-83900000D03*
X128150000Y-85700000D03*
%TO.N,/mcu/SWCLK*%
X141250000Y-87700000D03*
X162000000Y-80700000D03*
X165000000Y-80700000D03*
%TO.N,/mcu/SWDIO*%
X164450000Y-81300000D03*
X161450000Y-81300000D03*
X138050000Y-92800000D03*
%TO.N,/front_right_drive_motor/MOTOR.RX*%
X90650000Y-136050000D03*
X90650000Y-139295000D03*
%TO.N,Net-(J3-Pin_7)*%
X89150000Y-139295000D03*
%TO.N,Net-(J3-Pin_10)*%
X93650001Y-139295000D03*
%TO.N,/front_right_drive_motor/MOTOR.BOOT0*%
X86150000Y-139295000D03*
%TO.N,/front_right_drive_motor/MOTOR.RST*%
X87650000Y-139295000D03*
%TO.N,/front_right_drive_motor/MOTOR.CTS*%
X92149999Y-139295000D03*
X92149999Y-135800000D03*
%TO.N,/imu/IMU.~{DET}*%
X153250000Y-109350000D03*
%TO.N,/imu/IMU.MISO*%
X156250000Y-107750000D03*
%TO.N,/imu/IMU.SCK*%
X185675000Y-90100000D03*
X183950000Y-92600000D03*
X156750000Y-109400000D03*
%TO.N,/imu/IMU.~{SS}3*%
X185675000Y-93100000D03*
X154750000Y-108700000D03*
X174150000Y-93100000D03*
%TO.N,/imu/IMU.~{SS}1*%
X160849265Y-110149265D03*
%TO.N,/imu/IMU.INT1*%
X154250000Y-109350000D03*
X185675000Y-89100000D03*
%TO.N,/imu/IMU.MOSI*%
X155750000Y-109450000D03*
%TO.N,/imu/IMU.~{SS}2*%
X155250000Y-113250000D03*
%TO.N,/imu/IMU.INT2*%
X185675000Y-88100000D03*
X153750000Y-108700000D03*
%TO.N,Net-(J5-Pin_3)*%
X127499999Y-126575000D03*
%TO.N,/mcu/ODIN.RX*%
X125500000Y-126575000D03*
X146550000Y-96150000D03*
%TO.N,/mcu/ODIN.CTS*%
X126500000Y-126575000D03*
X144450000Y-97250000D03*
%TO.N,/mcu/ODIN.~{RST}*%
X147250000Y-97250000D03*
X122500001Y-126575000D03*
%TO.N,/mcu/ODIN.BOOT0*%
X123500000Y-126575000D03*
X148150000Y-96150000D03*
%TO.N,/mcu/ODIN.~{DET}*%
X146100000Y-98050000D03*
%TO.N,Net-(J5-Pin_6)*%
X124500000Y-126575000D03*
%TO.N,/back_right_drive_motor/MOTOR.BOOT0*%
X120000000Y-88000000D03*
X105018019Y-75281981D03*
X116000000Y-84000000D03*
%TO.N,Net-(J6-Pin_7)*%
X102896699Y-77403301D03*
%TO.N,/back_right_drive_motor/MOTOR.RST*%
X121000000Y-88000000D03*
X103957359Y-76342641D03*
X118000000Y-85000000D03*
%TO.N,/back_right_drive_motor/MOTOR.RX*%
X101836039Y-78463961D03*
%TO.N,/back_right_drive_motor/MOTOR.CTS*%
X100775379Y-79524621D03*
X122500000Y-92000000D03*
X152200000Y-85000000D03*
%TO.N,Net-(J6-Pin_10)*%
X99714718Y-80585282D03*
%TO.N,/back_left_drive_motor/MOTOR.RST*%
X197093342Y-77367318D03*
%TO.N,/back_left_drive_motor/MOTOR.RX*%
X194972022Y-75245998D03*
%TO.N,Net-(J7-Pin_10)*%
X192850701Y-73124677D03*
%TO.N,/back_left_drive_motor/MOTOR.CTS*%
X193911362Y-74185338D03*
%TO.N,Net-(J7-Pin_7)*%
X196032682Y-76306658D03*
%TO.N,/back_left_drive_motor/MOTOR.BOOT0*%
X198154002Y-78427978D03*
%TO.N,/front_left_drive_motor/MOTOR.RST*%
X210850000Y-131100000D03*
X210850000Y-139295000D03*
X173300000Y-102250000D03*
%TO.N,/front_left_drive_motor/MOTOR.CTS*%
X215349999Y-139295000D03*
X162450000Y-101100000D03*
%TO.N,Net-(J8-Pin_7)*%
X212350000Y-139295000D03*
%TO.N,/front_left_drive_motor/MOTOR.RX*%
X161800000Y-99600000D03*
X213850000Y-139295000D03*
%TO.N,Net-(J8-Pin_10)*%
X216850001Y-139295000D03*
%TO.N,/front_left_drive_motor/MOTOR.BOOT0*%
X172550000Y-102600000D03*
X209350000Y-130300000D03*
X209350000Y-139295000D03*
%TO.N,/kicker/KICKER.RX*%
X156150000Y-99750000D03*
X157850000Y-116100000D03*
X160775000Y-125500000D03*
%TO.N,/kicker/KICKER.RST*%
X158275000Y-125500000D03*
X158700000Y-102400000D03*
%TO.N,/kicker/KICKER.BOOT0*%
X157025000Y-125500000D03*
X158100000Y-102950000D03*
%TO.N,/kicker/KICKER.CTS*%
X156900000Y-104050000D03*
X159500000Y-116100000D03*
X162025000Y-125500000D03*
%TO.N,Net-(J9-Pin_10)*%
X163275000Y-125500000D03*
%TO.N,Net-(J9-Pin_7)*%
X159525000Y-125500000D03*
%TO.N,/mcu/OPTICAL_FLOW.RST*%
X141125000Y-125450000D03*
X154750000Y-90700000D03*
%TO.N,/mcu/OPTICAL_FLOW.CTS*%
X144875000Y-125450000D03*
%TO.N,Net-(J10-Pin_7)*%
X142375000Y-125450000D03*
%TO.N,/mcu/OPTICAL_FLOW.RX*%
X156250000Y-91100000D03*
X143625000Y-125450000D03*
%TO.N,Net-(J10-Pin_10)*%
X146125000Y-125450000D03*
%TO.N,/mcu/OPTICAL_FLOW.BOOT0*%
X139875000Y-125450000D03*
X154250000Y-91350000D03*
%TO.N,/mcu/POWER.RX*%
X169100000Y-125500000D03*
%TO.N,Net-(J12-Pin_2)*%
X170350000Y-125500000D03*
%TO.N,/mcu/SHELL_DETECT.RST*%
X158850000Y-96600000D03*
%TO.N,/mcu/SHELL_DETECT.SCL*%
X158200000Y-96087500D03*
X81550000Y-123725000D03*
%TO.N,/mcu/SHELL_DETECT.SDA*%
X157550000Y-95600000D03*
X81550000Y-124975000D03*
%TO.N,/mcu/SHELL_DETECT.LIGHT*%
X159500000Y-97087500D03*
%TO.N,/display/LCD.TX*%
X142500000Y-96100000D03*
%TO.N,/display/LCD.RX*%
X143350000Y-96100000D03*
%TO.N,VBUS*%
X174950000Y-71150000D03*
X171000000Y-70417002D03*
%TO.N,/mcu/USB_HS_D_P*%
X142700000Y-93800000D03*
D55*
%TO.N,Net-(P1-CC2)*%
X172250000Y-68415000D03*
X172000000Y-71000000D03*
%TO.N,/mcu/USB_HS_D_N*%
X173250000Y-68415000D03*
X172500000Y-69715000D03*
D54*
X141800000Y-93800000D03*
%TO.N,/mcu/BOOT0*%
X181200000Y-72837501D03*
X167900000Y-84350000D03*
%TO.N,/mcu/USB_BOOT0_CONTROL*%
X181150000Y-75300000D03*
%TO.N,/display/LCD.RST*%
X141700000Y-96150000D03*
X112600000Y-121050000D03*
%TO.N,/mcu/DEBUG_MODE*%
X159500000Y-94100000D03*
X159000000Y-82350000D03*
%TO.N,Net-(R1-Pad1)*%
X164900000Y-66550000D03*
%TO.N,/mcu/USER_BOOT0_OVERRIDE*%
X183690000Y-75300000D03*
%TO.N,/front_right_drive_motor/MOTOR.RTS*%
X92150000Y-135000000D03*
X93700000Y-137290001D03*
%TO.N,Net-(U2-INT1)*%
X147600000Y-119600000D03*
%TO.N,Net-(U2-INT2)*%
X152100000Y-119000000D03*
%TO.N,/back_right_drive_motor/MOTOR.RTS*%
X101160624Y-82060624D03*
X150250000Y-85900000D03*
X122500000Y-93000000D03*
%TO.N,/front_left_drive_motor/MOTOR.TX*%
X162500000Y-100050000D03*
X212300000Y-137290001D03*
%TO.N,/front_left_drive_motor/MOTOR.RTS*%
X161800000Y-100600000D03*
X216800000Y-137290001D03*
%TO.N,/kicker/KICKER.TX*%
X158700000Y-116100000D03*
X156950000Y-99750000D03*
%TO.N,/kicker/KICKER.RTS*%
X159500000Y-115300000D03*
X157500000Y-103500000D03*
%TO.N,/mcu/OPTICAL_FLOW.TX*%
X142300000Y-123590001D03*
X156750000Y-90450000D03*
%TO.N,/mcu/BOT_ID_SWITCHES.IDX3*%
X143750000Y-87900000D03*
X126700000Y-75709999D03*
%TO.N,/mcu/BOT_ID_SWITCHES.IDX2*%
X144250000Y-87250000D03*
X135500000Y-75709999D03*
%TO.N,/mcu/BOT_ID_SWITCHES.TEAM_BLUE_~{YELLOW}*%
X142400000Y-103400000D03*
X129909999Y-79000000D03*
%TO.N,Net-(R74-Pad1)*%
X128000000Y-79000000D03*
%TO.N,Net-(R75-Pad1)*%
X128000000Y-80000000D03*
%TO.N,/mcu/BOT_ID_SWITCHES.SRC_PRIO_USER_~{AUTO}*%
X129909999Y-80000000D03*
X141600000Y-103400000D03*
%TO.N,/mcu/BOT_ID_DISPLAY.SrcDisagree*%
X126650000Y-87750000D03*
X140850000Y-106100000D03*
X133450000Y-103050000D03*
%TO.N,/mcu/DIP.0*%
X152350000Y-103150000D03*
X157400000Y-80009999D03*
%TO.N,Net-(R84-Pad1)*%
X157390000Y-75300000D03*
%TO.N,Net-(R85-Pad1)*%
X154850000Y-75300000D03*
%TO.N,/mcu/DIP.1*%
X154850000Y-80009999D03*
X151550000Y-103150000D03*
%TO.N,/mcu/DIP.2*%
X150750000Y-104100000D03*
X152300000Y-80009999D03*
%TO.N,Net-(R100-Pad2)*%
X152310000Y-75300000D03*
%TO.N,Net-(R101-Pad2)*%
X149770000Y-75300000D03*
%TO.N,/mcu/DIP.3*%
X150250000Y-103250000D03*
X149750000Y-80009999D03*
%TO.N,/mcu/DIP.4*%
X147250000Y-80009999D03*
X149750000Y-104100000D03*
%TO.N,Net-(R102-Pad2)*%
X147230000Y-75300000D03*
%TO.N,/mcu/BUZZER*%
X218490001Y-122400000D03*
X159500000Y-93100000D03*
%TO.N,Net-(R103-Pad2)*%
X144690000Y-75300000D03*
%TO.N,/mcu/DIP.5*%
X148250000Y-104100000D03*
X144700000Y-80009999D03*
%TO.N,/mcu/DIP.6*%
X142100000Y-80009999D03*
X147750000Y-103250000D03*
%TO.N,Net-(R104-Pad2)*%
X142150000Y-75300000D03*
%TO.N,/mcu/DIP.7*%
X147250000Y-104100000D03*
X139600000Y-80009999D03*
%TO.N,Net-(R105-Pad2)*%
X139610000Y-75300000D03*
%TO.N,/mcu/DOTSTARS.SCK*%
X153150000Y-100250000D03*
X142250000Y-116000000D03*
X99350001Y-134000000D03*
%TO.N,/mcu/ODIN.TX*%
X124500000Y-124690001D03*
X145750000Y-96150000D03*
%TO.N,/mcu/ODIN.RTS*%
X127500000Y-124690001D03*
X145250000Y-97250000D03*
%TO.N,/imu/IMU.~{SS}0*%
X157250000Y-108750000D03*
%TO.N,/mcu/DOTSTARS.MOSI*%
X99350000Y-135600000D03*
X153950000Y-100250000D03*
X142250000Y-117000000D03*
%TO.N,Net-(U4-SDO)*%
X94450000Y-135600000D03*
X104476259Y-81637024D03*
%TO.N,Net-(U4-CKO)*%
X94449999Y-134000000D03*
X105607629Y-82768395D03*
%TO.N,Net-(U5-SDO)*%
X168000000Y-78050000D03*
X107941082Y-78172201D03*
%TO.N,Net-(U5-CKO)*%
X109072453Y-79303571D03*
X168000000Y-79000000D03*
%TO.N,Net-(U6-SDO)*%
X209750000Y-110250000D03*
X195513782Y-81351041D03*
%TO.N,Net-(U6-CKO)*%
X194382412Y-82482412D03*
X210500000Y-109500000D03*
%TO.N,Net-(U11-CKO)*%
X133350000Y-120700000D03*
X124250000Y-120700000D03*
%TO.N,Net-(U11-SDO)*%
X133350000Y-122300000D03*
X124250000Y-122300000D03*
%TD*%
D56*
%TO.N,Net-(BZ1--)*%
X220862499Y-125937501D02*
X220900000Y-125900000D01*
X222750000Y-129250000D02*
X220862499Y-129250000D01*
X220862499Y-129250000D02*
X220862499Y-125937501D01*
%TO.N,+3V3*%
X162670000Y-104500000D02*
X161582500Y-105587500D01*
X160675000Y-99100000D02*
X160662500Y-99087500D01*
D57*
X182150000Y-67450000D02*
X182900000Y-66700000D01*
D56*
X162737500Y-93587500D02*
X162750000Y-93600000D01*
X146250000Y-112200000D02*
X146250000Y-110500000D01*
X162735691Y-99090376D02*
X162732815Y-99087500D01*
X147250000Y-87280000D02*
X147250000Y-87300000D01*
X161582500Y-105587500D02*
X160662500Y-105587500D01*
X157750000Y-110500000D02*
X157750000Y-112200000D01*
X139337500Y-103087500D02*
X136992500Y-103087500D01*
X147250000Y-87300000D02*
X147250000Y-89175000D01*
D57*
X99439376Y-78039376D02*
X100439376Y-77039376D01*
D56*
X139337500Y-97587500D02*
X138012500Y-97587500D01*
X136950000Y-103100000D02*
X136950000Y-103130000D01*
D57*
X182900000Y-66700000D02*
X183690000Y-66700000D01*
D56*
X152000000Y-88000000D02*
X152000000Y-87280000D01*
D57*
X215128752Y-87650000D02*
X217039376Y-89560624D01*
D56*
X141250000Y-112100000D02*
X141100000Y-112250000D01*
X152250000Y-88250000D02*
X152000000Y-88000000D01*
D57*
X214823869Y-87650000D02*
X215128752Y-87650000D01*
D56*
X136980000Y-103100000D02*
X136950000Y-103100000D01*
X158945000Y-88980000D02*
X158750000Y-89175000D01*
X162732815Y-99087500D02*
X160662500Y-99087500D01*
X152250000Y-89175000D02*
X152250000Y-88250000D01*
X135980000Y-96800000D02*
X136980000Y-97800000D01*
D57*
X182150000Y-68390001D02*
X182150000Y-67450000D01*
D56*
X138012500Y-97587500D02*
X137800000Y-97800000D01*
X141250000Y-110500000D02*
X141250000Y-112100000D01*
X136992500Y-103087500D02*
X136980000Y-103100000D01*
X137800000Y-97800000D02*
X136980000Y-97800000D01*
X151250000Y-110500000D02*
X151250000Y-112200000D01*
X160675000Y-93600000D02*
X160662500Y-93587500D01*
X137757500Y-91087500D02*
X137650000Y-90980000D01*
X136950000Y-103130000D02*
X136980000Y-103100000D01*
X159750000Y-88980000D02*
X158945000Y-88980000D01*
D57*
X214082986Y-86909117D02*
X214823869Y-87650000D01*
X180250000Y-68390001D02*
X182150000Y-68390001D01*
D56*
X162750000Y-93600000D02*
X160675000Y-93600000D01*
X139337500Y-91087500D02*
X137757500Y-91087500D01*
D57*
X158250000Y-89175000D02*
X158750000Y-89175000D01*
%TO.N,GND*%
X179250000Y-78500000D02*
X179250000Y-76850000D01*
D56*
X158250000Y-110500000D02*
X158250000Y-109550000D01*
D57*
X195700000Y-99200000D02*
X195750000Y-99250000D01*
D56*
X151400000Y-109300000D02*
X151750000Y-109650000D01*
X119220000Y-74200000D02*
X119220000Y-73220000D01*
D57*
X126090001Y-79500000D02*
X126090001Y-79000000D01*
D56*
X151750000Y-89175000D02*
X151750000Y-90150000D01*
X146750000Y-109550000D02*
X146500000Y-109300000D01*
X159500000Y-98800000D02*
X159712500Y-98587500D01*
D57*
X98937500Y-125707500D02*
X98965000Y-125735000D01*
D56*
X160662500Y-106087500D02*
X159812500Y-106087500D01*
D57*
X100600000Y-122059999D02*
X100600000Y-122750000D01*
D56*
X158250000Y-109550000D02*
X158000000Y-109300000D01*
X151750000Y-109650000D02*
X151750000Y-110500000D01*
D58*
X185199999Y-125950000D02*
X185199999Y-121900001D01*
D56*
X146750000Y-89175000D02*
X146750000Y-90150000D01*
X140212500Y-91587500D02*
X140500000Y-91300000D01*
D57*
X185700000Y-105380000D02*
X185700000Y-107220000D01*
D56*
X119220000Y-73220000D02*
X119200000Y-73200000D01*
X146750000Y-90150000D02*
X147000000Y-90400000D01*
X139337500Y-103587500D02*
X140212500Y-103587500D01*
D57*
X195700000Y-113480000D02*
X195700000Y-115200000D01*
X185700000Y-107220000D02*
X185730000Y-107250000D01*
D56*
X139337500Y-98087500D02*
X140212500Y-98087500D01*
D58*
X185199999Y-121900001D02*
X185200000Y-121900000D01*
D57*
X179350000Y-78600000D02*
X179250000Y-78500000D01*
D56*
X146750000Y-110500000D02*
X146750000Y-109550000D01*
D57*
X126090001Y-80000000D02*
X126090001Y-79500000D01*
X195700000Y-115200000D02*
X195750000Y-115250000D01*
D59*
X201700000Y-140049999D02*
X199549999Y-140049999D01*
X199200000Y-139700000D02*
X196100000Y-139700000D01*
D56*
X151750000Y-90150000D02*
X152000000Y-90400000D01*
D57*
X205700000Y-107200000D02*
X205750000Y-107250000D01*
X98937500Y-122937500D02*
X98937500Y-125707500D01*
X195700000Y-105480000D02*
X195700000Y-107200000D01*
X100387500Y-122937500D02*
X98937500Y-122937500D01*
D56*
X140212500Y-98087500D02*
X140500000Y-97800000D01*
D57*
X217860589Y-90339411D02*
X217450000Y-90750000D01*
X216928679Y-90750000D02*
X215193755Y-89015076D01*
D56*
X140212500Y-103587500D02*
X140500000Y-103300000D01*
D57*
X179690000Y-78600000D02*
X179350000Y-78600000D01*
X195700000Y-97480000D02*
X195700000Y-99200000D01*
D56*
X139337500Y-91587500D02*
X140212500Y-91587500D01*
D57*
X100600000Y-122750000D02*
X100400000Y-122950000D01*
D56*
X159712500Y-98587500D02*
X160662500Y-98587500D01*
D57*
X100400000Y-122950000D02*
X100387500Y-122937500D01*
X205600000Y-99200000D02*
X205650000Y-99250000D01*
X205700000Y-105580000D02*
X205700000Y-107200000D01*
X205700000Y-97380000D02*
X205700000Y-99200000D01*
X217450000Y-90750000D02*
X216928679Y-90750000D01*
X195700000Y-107200000D02*
X195750000Y-107250000D01*
D56*
X159812500Y-106087500D02*
X159500000Y-106400000D01*
D57*
X126090001Y-79500000D02*
X125200000Y-79500000D01*
D59*
X199549999Y-140049999D02*
X199200000Y-139700000D01*
D56*
%TO.N,/mcu/RCC_OSC32_N*%
X166230001Y-96730000D02*
X165900000Y-96399999D01*
X164137501Y-95087500D02*
X160662500Y-95087500D01*
X167200000Y-96730000D02*
X165780001Y-96730000D01*
X165450000Y-96399999D02*
X164137501Y-95087500D01*
X165780001Y-96730000D02*
X165450000Y-96399999D01*
%TO.N,/mcu/RCC_OSC32_P*%
X165450000Y-93900001D02*
X164762501Y-94587500D01*
X165780001Y-93570000D02*
X165450000Y-93900001D01*
X167200000Y-93570000D02*
X165780001Y-93570000D01*
X166230001Y-93570000D02*
X165900000Y-93900001D01*
X164762501Y-94587500D02*
X160662500Y-94587500D01*
D60*
%TO.N,+3V0*%
X163110001Y-109400000D02*
X162670000Y-108959999D01*
X165550000Y-107600000D02*
X164750000Y-108400000D01*
X162670000Y-106620000D02*
X162650000Y-106600000D01*
X164250000Y-109400000D02*
X163110001Y-109400000D01*
D56*
X160675000Y-106600000D02*
X160662500Y-106587500D01*
X162250000Y-107650000D02*
X162670000Y-107650000D01*
D60*
X164750000Y-108900000D02*
X164250000Y-109400000D01*
D56*
X162250000Y-107650000D02*
X161687500Y-107087500D01*
D60*
X164750000Y-108400000D02*
X164750000Y-108900000D01*
D56*
X161687500Y-107087500D02*
X160662500Y-107087500D01*
D60*
X162670000Y-107650000D02*
X162670000Y-106620000D01*
X162670000Y-108959999D02*
X162670000Y-108650000D01*
D56*
X162650000Y-106600000D02*
X160675000Y-106600000D01*
D60*
X162670000Y-108650000D02*
X162670000Y-107650000D01*
X166525001Y-107600000D02*
X165550000Y-107600000D01*
X162650000Y-105550000D02*
X162650000Y-106600000D01*
D56*
X162650000Y-107630000D02*
X162670000Y-107650000D01*
%TO.N,/mcu/RCC_OSC_N*%
X165100000Y-104000000D02*
X165600000Y-104500000D01*
X165100000Y-102850000D02*
X165100000Y-104000000D01*
X164837500Y-102587500D02*
X165100000Y-102850000D01*
X160662500Y-102587500D02*
X164837500Y-102587500D01*
%TO.N,/mcu/RCC_OSC_P*%
X166800000Y-100650000D02*
X165591665Y-101858335D01*
X167230000Y-99000000D02*
X167230000Y-100220000D01*
X161558335Y-101858335D02*
X161329170Y-102087500D01*
X165591665Y-101858335D02*
X161558335Y-101858335D01*
X161329170Y-102087500D02*
X160662500Y-102087500D01*
X167230000Y-100220000D02*
X166800000Y-100650000D01*
D57*
%TO.N,/mcu/NRST*%
X168300000Y-103400000D02*
X169800000Y-103400000D01*
X217760624Y-88839376D02*
X216950000Y-88028752D01*
X169800000Y-103400000D02*
X169850000Y-103450000D01*
X162237500Y-103087500D02*
X162550000Y-103400000D01*
X216950000Y-87258831D02*
X217315076Y-86893755D01*
X218539411Y-89660589D02*
X218539411Y-89618163D01*
X160662500Y-103087500D02*
X162237500Y-103087500D01*
X218539411Y-89618163D02*
X217760624Y-88839376D01*
X216950000Y-88028752D02*
X216950000Y-87258831D01*
D56*
%TO.N,Net-(C14-Pad1)*%
X141750000Y-112675000D02*
X140825000Y-113600000D01*
X141750000Y-110500000D02*
X141750000Y-112675000D01*
%TO.N,Net-(C15-Pad1)*%
X139337500Y-92087500D02*
X137712500Y-92087500D01*
X137712500Y-92087500D02*
X136320000Y-90695000D01*
%TO.N,/power/3v3_FILT*%
X177900000Y-108850000D02*
X177900000Y-107650000D01*
D60*
X177250000Y-107650000D02*
X177900000Y-107650000D01*
X177900000Y-107650000D02*
X178570000Y-107650000D01*
X180055000Y-107620000D02*
X180075000Y-107600000D01*
D56*
X177800000Y-108950000D02*
X177900000Y-108850000D01*
X177250000Y-108950000D02*
X177800000Y-108950000D01*
D60*
X178600000Y-107620000D02*
X180055000Y-107620000D01*
X178570000Y-107650000D02*
X178600000Y-107620000D01*
%TO.N,/power/3v0_PREFUSE*%
X171450000Y-107600000D02*
X173375001Y-107600000D01*
X173425001Y-107650000D02*
X173400000Y-107624999D01*
X173375001Y-107600000D02*
X173400000Y-107624999D01*
X175350000Y-107650000D02*
X173425001Y-107650000D01*
D57*
%TO.N,Net-(C32-Pad1)*%
X205600000Y-94800000D02*
X205650000Y-94750000D01*
X205700000Y-96420000D02*
X206770001Y-96420000D01*
X205700000Y-96420000D02*
X205700000Y-94800000D01*
X206770001Y-96420000D02*
X206790001Y-96400000D01*
%TO.N,Net-(C33-Pad1)*%
X195700000Y-104520000D02*
X195700000Y-102800000D01*
X195700000Y-104520000D02*
X196770001Y-104520000D01*
X196770001Y-104520000D02*
X196790001Y-104500000D01*
X195700000Y-102800000D02*
X195750000Y-102750000D01*
%TO.N,Net-(C34-Pad1)*%
X195700000Y-110800000D02*
X195750000Y-110750000D01*
X195720000Y-112500000D02*
X195700000Y-112520000D01*
X195700000Y-112520000D02*
X195700000Y-110800000D01*
X196840001Y-112500000D02*
X195720000Y-112500000D01*
%TO.N,Net-(C35-Pad1)*%
X205700000Y-104620000D02*
X206770001Y-104620000D01*
X206770001Y-104620000D02*
X206840001Y-104550000D01*
X205700000Y-102800000D02*
X205750000Y-102750000D01*
X205700000Y-104620000D02*
X205700000Y-102800000D01*
%TO.N,Net-(C36-Pad1)*%
X185720000Y-104400000D02*
X185700000Y-104420000D01*
X186790000Y-104400000D02*
X185720000Y-104400000D01*
X185700000Y-102780000D02*
X185730000Y-102750000D01*
X185700000Y-104420000D02*
X185700000Y-102780000D01*
%TO.N,Net-(C37-Pad1)*%
X195700000Y-94800000D02*
X195750000Y-94750000D01*
X195700000Y-96520000D02*
X196770001Y-96520000D01*
X195700000Y-96520000D02*
X195700000Y-94800000D01*
X196770001Y-96520000D02*
X196790001Y-96500000D01*
D58*
%TO.N,+5V*%
X182350000Y-125950000D02*
X182000000Y-126300000D01*
D56*
X193251041Y-83613782D02*
X190514823Y-86350000D01*
X190514823Y-86350000D02*
X190500000Y-86350000D01*
D58*
X183300001Y-125950000D02*
X182350000Y-125950000D01*
D56*
%TO.N,+BATT*%
X166100000Y-109290001D02*
X168690001Y-109290001D01*
D59*
X199549999Y-144350001D02*
X199200000Y-144700000D01*
X199200000Y-144700000D02*
X196100000Y-144700000D01*
X201700000Y-144350001D02*
X199549999Y-144350001D01*
D56*
X173600000Y-114200000D02*
X182250000Y-114200000D01*
X170750000Y-111350000D02*
X173600000Y-114200000D01*
X168690001Y-109290001D02*
X170750000Y-111350000D01*
X182250000Y-114200000D02*
X184250000Y-114200000D01*
X184250000Y-114200000D02*
X187050000Y-117000000D01*
D57*
%TO.N,/mcu/BOT_ID_DISPLAY.FL*%
X155560030Y-104530500D02*
X157149030Y-104530500D01*
X157149030Y-104530500D02*
X158092030Y-103587500D01*
D56*
X99849999Y-101875000D02*
X98999999Y-101025000D01*
D57*
X154279530Y-103250000D02*
X155560030Y-104530500D01*
X153850000Y-103250000D02*
X154279530Y-103250000D01*
D56*
X99849999Y-102475000D02*
X99849999Y-101875000D01*
D57*
X158092030Y-103587500D02*
X160662500Y-103587500D01*
D56*
%TO.N,Net-(D3-A1)*%
X100000000Y-100874999D02*
X99849999Y-101025000D01*
X100000000Y-100009999D02*
X100000000Y-100874999D01*
%TO.N,Net-(D3-K2)*%
X98974999Y-102500000D02*
X98999999Y-102475000D01*
X98009999Y-102500000D02*
X98974999Y-102500000D01*
%TO.N,Net-(D4-K2)*%
X102900000Y-102575001D02*
X103000001Y-102475000D01*
X102900000Y-103590001D02*
X102900000Y-102575001D01*
%TO.N,Net-(D4-A1)*%
X104890001Y-101000000D02*
X103875001Y-101000000D01*
X103875001Y-101000000D02*
X103850001Y-101025000D01*
%TO.N,/mcu/BOT_ID_DISPLAY.FR*%
X103850001Y-102475000D02*
X103850001Y-101875000D01*
D57*
X160662500Y-104087500D02*
X157988010Y-104087500D01*
X154450000Y-103950000D02*
X154300000Y-103950000D01*
X157988010Y-104087500D02*
X157265010Y-104810500D01*
X155310500Y-104810500D02*
X154450000Y-103950000D01*
D56*
X103850001Y-101875000D02*
X103000001Y-101025000D01*
D57*
X157265010Y-104810500D02*
X155310500Y-104810500D01*
D56*
%TO.N,Net-(D5-K2)*%
X102000000Y-105875000D02*
X101850000Y-105725000D01*
X102000000Y-106790001D02*
X102000000Y-105875000D01*
D57*
%TO.N,/mcu/BOT_ID_DISPLAY.TeamBlue*%
X157271520Y-100807500D02*
X152650000Y-100807500D01*
X101995501Y-104129499D02*
X101850000Y-104275000D01*
X143407500Y-100807500D02*
X143150000Y-100550000D01*
X158707500Y-100807500D02*
X157271520Y-100807500D01*
X159512500Y-101587500D02*
X159500000Y-101600000D01*
D56*
X101000000Y-105125000D02*
X101850000Y-104275000D01*
D57*
X106550000Y-104150000D02*
X106529499Y-104129499D01*
X106529499Y-104129499D02*
X101995501Y-104129499D01*
D56*
X101000000Y-105725000D02*
X101000000Y-105125000D01*
D57*
X152650000Y-100807500D02*
X143407500Y-100807500D01*
X159500000Y-101600000D02*
X158707500Y-100807500D01*
X160662500Y-101587500D02*
X159512500Y-101587500D01*
D56*
%TO.N,Net-(D5-A1)*%
X100900000Y-104175000D02*
X101000000Y-104275000D01*
X100900000Y-103209999D02*
X100900000Y-104175000D01*
D57*
%TO.N,/mcu/BOT_ID_DISPLAY.BL*%
X154690500Y-105090500D02*
X157380990Y-105090500D01*
D56*
X98600000Y-107125001D02*
X97750000Y-106275001D01*
D57*
X157380990Y-105090500D02*
X157883990Y-104587500D01*
D56*
X98600000Y-107725001D02*
X98600000Y-107125001D01*
D57*
X153500000Y-104050000D02*
X153650000Y-104050000D01*
X157883990Y-104587500D02*
X160662500Y-104587500D01*
X153650000Y-104050000D02*
X154690500Y-105090500D01*
D56*
%TO.N,Net-(D6-A1)*%
X98700000Y-106175001D02*
X98600000Y-106275001D01*
X98700000Y-105209999D02*
X98700000Y-106175001D01*
%TO.N,Net-(D6-K2)*%
X97675001Y-107800000D02*
X97750000Y-107725001D01*
X96709999Y-107800000D02*
X97675001Y-107800000D01*
%TO.N,Net-(D7-A1)*%
X105175001Y-106200000D02*
X105100000Y-106275001D01*
X106090001Y-106200000D02*
X105175001Y-106200000D01*
%TO.N,Net-(D7-K2)*%
X104100000Y-107875001D02*
X104250000Y-107725001D01*
X104100000Y-108790001D02*
X104100000Y-107875001D01*
D57*
%TO.N,/mcu/BOT_ID_DISPLAY.BR*%
X153250000Y-104850000D02*
X153800000Y-105400000D01*
X159612501Y-105400000D02*
X159925001Y-105087500D01*
X159925001Y-105087500D02*
X160662500Y-105087500D01*
D56*
X105100000Y-107125001D02*
X104250000Y-106275001D01*
X105100000Y-107725001D02*
X105100000Y-107125001D01*
D57*
X153800000Y-105400000D02*
X159612501Y-105400000D01*
%TO.N,Net-(D10-A)*%
X98800000Y-95490001D02*
X98800000Y-94200000D01*
%TO.N,Net-(D11-A)*%
X100600000Y-95490001D02*
X100600000Y-94200000D01*
%TO.N,Net-(D12-A)*%
X102400000Y-95490001D02*
X102400000Y-94200000D01*
%TO.N,Net-(D13-A)*%
X104200000Y-95490001D02*
X104200000Y-94200000D01*
D60*
%TO.N,Net-(JP1-B)*%
X168274999Y-107600000D02*
X169750000Y-107600000D01*
D57*
%TO.N,/mcu/SDMMC1_D2*%
X142250000Y-87145980D02*
X142250000Y-89175000D01*
X113720000Y-74200000D02*
X113720000Y-74970000D01*
X140204020Y-85100000D02*
X142250000Y-87145980D01*
X113720000Y-74970000D02*
X123850000Y-85100000D01*
X123850000Y-85100000D02*
X140204020Y-85100000D01*
%TO.N,/mcu/SDMMC1_CMD*%
X115900000Y-73980000D02*
X115900000Y-73300000D01*
X122250000Y-73300000D02*
X122250000Y-79100000D01*
X144750000Y-87050000D02*
X144750000Y-89175000D01*
X127410000Y-84260000D02*
X141960000Y-84260000D01*
X121650000Y-72700000D02*
X122250000Y-73300000D01*
X115920000Y-74000000D02*
X115900000Y-73980000D01*
X116500000Y-72700000D02*
X121650000Y-72700000D01*
X115920000Y-74200000D02*
X115920000Y-74000000D01*
X115900000Y-73300000D02*
X116500000Y-72700000D01*
X141960000Y-84260000D02*
X144750000Y-87050000D01*
X122250000Y-79100000D02*
X127410000Y-84260000D01*
%TO.N,/mcu/SDMMC1_CK*%
X118120000Y-74200000D02*
X118120000Y-78578040D01*
X118120000Y-78578040D02*
X124081960Y-84540000D01*
X124081960Y-84540000D02*
X140440000Y-84540000D01*
X140440000Y-84540000D02*
X143250000Y-87350000D01*
X143250000Y-87350000D02*
X143250000Y-89175000D01*
%TO.N,/mcu/SDMMC1_D0*%
X137687500Y-96087500D02*
X127300000Y-85700000D01*
X127300000Y-85700000D02*
X127250000Y-85700000D01*
X125450000Y-83900000D02*
X120320000Y-78770000D01*
X137687500Y-96087500D02*
X139337500Y-96087500D01*
X120320000Y-78770000D02*
X120320000Y-74200000D01*
%TO.N,/mcu/SDMMC1_D3*%
X114820000Y-74200000D02*
X114820000Y-75674020D01*
X142750000Y-87250000D02*
X142750000Y-89175000D01*
X123965980Y-84820000D02*
X140320000Y-84820000D01*
X114820000Y-75674020D02*
X123965980Y-84820000D01*
X140320000Y-84820000D02*
X142750000Y-87250000D01*
%TO.N,/mcu/SDMMC1_D1*%
X128500000Y-86504020D02*
X137583480Y-95587500D01*
X128500000Y-86050000D02*
X128500000Y-86504020D01*
X121420000Y-74200000D02*
X121420000Y-78970000D01*
X121420000Y-78970000D02*
X126350000Y-83900000D01*
X137583480Y-95587500D02*
X139337500Y-95587500D01*
X128150000Y-85700000D02*
X128500000Y-86050000D01*
%TO.N,/mcu/SWCLK*%
X141250000Y-87700000D02*
X141250000Y-89175000D01*
X165000000Y-80700000D02*
X162000000Y-80700000D01*
%TO.N,/mcu/SWDIO*%
X138262500Y-92587500D02*
X139337500Y-92587500D01*
X138050000Y-92800000D02*
X138262500Y-92587500D01*
X164450000Y-81300000D02*
X161450000Y-81300000D01*
%TO.N,/front_right_drive_motor/MOTOR.RX*%
X90700000Y-139345000D02*
X90650000Y-139295000D01*
X100984020Y-136320000D02*
X131216520Y-106087500D01*
X131216520Y-106087500D02*
X139337500Y-106087500D01*
X90700000Y-140290001D02*
X90700000Y-139345000D01*
X90650000Y-136050000D02*
X90920000Y-136320000D01*
X90920000Y-136320000D02*
X100984020Y-136320000D01*
%TO.N,Net-(J3-Pin_7)*%
X89200000Y-138309999D02*
X89200000Y-139245000D01*
X89200000Y-139245000D02*
X89150000Y-139295000D01*
%TO.N,Net-(J3-Pin_10)*%
X93700000Y-138309999D02*
X93700000Y-139245001D01*
X93700000Y-139245001D02*
X93650001Y-139295000D01*
%TO.N,/front_right_drive_motor/MOTOR.BOOT0*%
X139337500Y-108587500D02*
X130938010Y-108587500D01*
X86750000Y-141162453D02*
X86750000Y-140840001D01*
X130938010Y-108587500D02*
X115629530Y-123895980D01*
X96420000Y-142680000D02*
X88267547Y-142680000D01*
X115629530Y-123895980D02*
X115204020Y-123895980D01*
X115204020Y-123895980D02*
X96420000Y-142680000D01*
X86750000Y-140840001D02*
X86200000Y-140290001D01*
X86200000Y-140290001D02*
X86200000Y-139345000D01*
X88267547Y-142680000D02*
X86750000Y-141162453D01*
X86200000Y-139345000D02*
X86150000Y-139295000D01*
%TO.N,/front_right_drive_motor/MOTOR.RST*%
X115513550Y-123615980D02*
X115088040Y-123615980D01*
X115088040Y-123615980D02*
X96304020Y-142400000D01*
X139337500Y-108087500D02*
X131042030Y-108087500D01*
X87700000Y-140290001D02*
X87700000Y-139345000D01*
X87700000Y-139345000D02*
X87650000Y-139295000D01*
X131042030Y-108087500D02*
X115513550Y-123615980D01*
X96304020Y-142400000D02*
X89809999Y-142400000D01*
X89809999Y-142400000D02*
X87700000Y-140290001D01*
%TO.N,/front_right_drive_motor/MOTOR.CTS*%
X92200000Y-139345001D02*
X92149999Y-139295000D01*
X92200000Y-140290001D02*
X92200000Y-139345001D01*
X92149999Y-135800000D02*
X92849999Y-135100000D01*
X92849999Y-135100000D02*
X101808040Y-135100000D01*
X131820540Y-105087500D02*
X139337500Y-105087500D01*
X101808040Y-135100000D02*
X131820540Y-105087500D01*
%TO.N,/imu/IMU.~{DET}*%
X153250000Y-110500000D02*
X153250000Y-109350000D01*
%TO.N,/imu/IMU.MISO*%
X156250000Y-107750000D02*
X156250000Y-110500000D01*
%TO.N,/imu/IMU.SCK*%
X156750000Y-109400000D02*
X156750000Y-110500000D01*
X183950000Y-92600000D02*
X183950000Y-90900000D01*
X183950000Y-90900000D02*
X184750000Y-90100000D01*
X184750000Y-90100000D02*
X185675000Y-90100000D01*
%TO.N,/imu/IMU.~{SS}3*%
X154750000Y-110500000D02*
X154750000Y-108700000D01*
X174150000Y-93100000D02*
X185675000Y-93100000D01*
%TO.N,/imu/IMU.~{SS}1*%
X160498530Y-110500000D02*
X158750000Y-110500000D01*
X160849265Y-110149265D02*
X160498530Y-110500000D01*
%TO.N,/imu/IMU.INT1*%
X154009999Y-114090001D02*
X154250000Y-113850000D01*
X154009999Y-117700000D02*
X154009999Y-114090001D01*
X154250000Y-109350000D02*
X154250000Y-110500000D01*
X154250000Y-113850000D02*
X154250000Y-110500000D01*
X187290001Y-89100000D02*
X185675000Y-89100000D01*
%TO.N,/imu/IMU.MOSI*%
X155750000Y-110500000D02*
X155750000Y-109450000D01*
%TO.N,/imu/IMU.~{SS}2*%
X155250000Y-113250000D02*
X155250000Y-110500000D01*
%TO.N,/imu/IMU.INT2*%
X153750000Y-110500000D02*
X153750000Y-108700000D01*
X153536499Y-113813501D02*
X153750000Y-113600000D01*
X153536499Y-118526500D02*
X153536499Y-113813501D01*
X154009999Y-119000000D02*
X153536499Y-118526500D01*
X153750000Y-113600000D02*
X153750000Y-110500000D01*
X187290001Y-88100000D02*
X185675000Y-88100000D01*
%TO.N,Net-(J5-Pin_3)*%
X127500000Y-126574999D02*
X127499999Y-126575000D01*
X127500000Y-125709999D02*
X127500000Y-126574999D01*
%TO.N,/mcu/ODIN.RX*%
X147750000Y-94950000D02*
X146550000Y-96150000D01*
X147750000Y-89175000D02*
X147750000Y-94950000D01*
X125500000Y-127490001D02*
X125500000Y-126575000D01*
%TO.N,/mcu/ODIN.CTS*%
X144450000Y-95970470D02*
X145250000Y-95170470D01*
X145250000Y-95170470D02*
X145250000Y-89175000D01*
X144450000Y-97250000D02*
X144450000Y-95970470D01*
X126500000Y-127490001D02*
X126500000Y-126575000D01*
%TO.N,/mcu/ODIN.~{RST}*%
X122500000Y-127490001D02*
X122500000Y-126575001D01*
X122500000Y-126575001D02*
X122500001Y-126575000D01*
X147250000Y-96370470D02*
X148250000Y-95370470D01*
X147250000Y-97250000D02*
X147250000Y-96370470D01*
X148250000Y-95370470D02*
X148250000Y-89175000D01*
%TO.N,/mcu/ODIN.BOOT0*%
X148750000Y-89175000D02*
X148750000Y-95550000D01*
X148750000Y-95550000D02*
X148150000Y-96150000D01*
X123500000Y-127490001D02*
X123500000Y-126575000D01*
%TO.N,/mcu/ODIN.~{DET}*%
X141750000Y-92074490D02*
X141750000Y-89175000D01*
X146100000Y-98050000D02*
X144261000Y-98050000D01*
X144261000Y-98050000D02*
X143830500Y-97619500D01*
X143830500Y-97619500D02*
X143830500Y-94154990D01*
X143830500Y-94154990D02*
X141750000Y-92074490D01*
%TO.N,Net-(J5-Pin_6)*%
X124500000Y-125709999D02*
X124500000Y-126575000D01*
%TO.N,/back_right_drive_motor/MOTOR.BOOT0*%
X131087500Y-99087500D02*
X120000000Y-88000000D01*
X107000000Y-79004020D02*
X107000000Y-77263962D01*
X104360624Y-74624586D02*
X105018019Y-75281981D01*
X111995980Y-84000000D02*
X107000000Y-79004020D01*
X116000000Y-84000000D02*
X111995980Y-84000000D01*
X107000000Y-77263962D02*
X105018019Y-75281981D01*
X104360624Y-74560624D02*
X104360624Y-74624586D01*
X139337500Y-99087500D02*
X131087500Y-99087500D01*
%TO.N,Net-(J6-Pin_7)*%
X103639376Y-78139376D02*
X103632774Y-78139376D01*
X103632774Y-78139376D02*
X102896699Y-77403301D01*
%TO.N,/back_right_drive_motor/MOTOR.RST*%
X112600000Y-85000000D02*
X103957359Y-76357359D01*
X139337500Y-98587500D02*
X131587500Y-98587500D01*
X103957359Y-76357359D02*
X103957359Y-76342641D01*
X103260624Y-75660624D02*
X103275342Y-75660624D01*
X118000000Y-85000000D02*
X112600000Y-85000000D01*
X131587500Y-98587500D02*
X121000000Y-88000000D01*
X103275342Y-75660624D02*
X103957359Y-76342641D01*
%TO.N,/back_right_drive_motor/MOTOR.RX*%
X103100000Y-76700000D02*
X102450000Y-76700000D01*
X102100000Y-77600000D02*
X101536039Y-78163961D01*
X101160624Y-77760624D02*
X101160624Y-77788546D01*
X101536039Y-78163961D02*
X101836039Y-78463961D01*
X101160624Y-77788546D02*
X101536039Y-78163961D01*
X137083480Y-96587500D02*
X126495980Y-86000000D01*
X102450000Y-76700000D02*
X102100000Y-77050000D01*
X126495980Y-86000000D02*
X112400000Y-86000000D01*
X112400000Y-86000000D02*
X103100000Y-76700000D01*
X102100000Y-77050000D02*
X102100000Y-77600000D01*
X139337500Y-96587500D02*
X137083480Y-96587500D01*
%TO.N,/back_right_drive_motor/MOTOR.CTS*%
X100160624Y-78909866D02*
X100775379Y-79524621D01*
X100160624Y-78760624D02*
X100160624Y-78909866D01*
X152750000Y-89175000D02*
X152750000Y-85550000D01*
X152750000Y-85550000D02*
X152200000Y-85000000D01*
X100775379Y-80425379D02*
X103950000Y-83600000D01*
X103950000Y-83600000D02*
X112350000Y-92000000D01*
X112350000Y-92000000D02*
X122500000Y-92000000D01*
X100775379Y-79524621D02*
X100775379Y-80425379D01*
%TO.N,Net-(J6-Pin_10)*%
X100439376Y-81339376D02*
X100439376Y-81309940D01*
X100439376Y-81309940D02*
X99714718Y-80585282D01*
%TO.N,/back_left_drive_motor/MOTOR.RST*%
X197850036Y-76610624D02*
X197093342Y-77367318D01*
X197093342Y-77367318D02*
X190470660Y-83990000D01*
X171255980Y-83990000D02*
X163158480Y-92087500D01*
X190470660Y-83990000D02*
X171255980Y-83990000D01*
X197889376Y-76610624D02*
X197850036Y-76610624D01*
X163158480Y-92087500D02*
X160662500Y-92087500D01*
%TO.N,/back_left_drive_motor/MOTOR.RX*%
X188120000Y-83430000D02*
X194972022Y-76577978D01*
X195746772Y-74471248D02*
X194972022Y-75245998D01*
X171024020Y-83430000D02*
X188120000Y-83430000D01*
X195778752Y-74471248D02*
X195746772Y-74471248D01*
X160662500Y-91087500D02*
X163366520Y-91087500D01*
X194972022Y-76577978D02*
X194972022Y-75245998D01*
X163366520Y-91087500D02*
X171024020Y-83430000D01*
%TO.N,Net-(J7-Pin_10)*%
X192096626Y-73878752D02*
X192850701Y-73124677D01*
X192071248Y-73878752D02*
X192096626Y-73878752D01*
%TO.N,/back_left_drive_motor/MOTOR.CTS*%
X194686076Y-73410624D02*
X194298350Y-73798350D01*
X182080000Y-82870000D02*
X192305823Y-72644177D01*
X150750000Y-84804020D02*
X152684020Y-82870000D01*
X192305823Y-72644177D02*
X193144177Y-72644177D01*
X194739376Y-73410624D02*
X194686076Y-73410624D01*
X150750000Y-89175000D02*
X150750000Y-84804020D01*
X152684020Y-82870000D02*
X182080000Y-82870000D01*
X194298350Y-73798350D02*
X193911362Y-74185338D01*
X193144177Y-72644177D02*
X194298350Y-73798350D01*
%TO.N,Net-(J7-Pin_7)*%
X195371248Y-76978752D02*
X195371248Y-76968092D01*
X195371248Y-76968092D02*
X196032682Y-76306658D01*
%TO.N,/back_left_drive_motor/MOTOR.BOOT0*%
X197588316Y-78427978D02*
X191746294Y-84270000D01*
X191746294Y-84270000D02*
X171371960Y-84270000D01*
X198154002Y-78427978D02*
X198172022Y-78427978D01*
X198928752Y-77653228D02*
X198154002Y-78427978D01*
X171371960Y-84270000D02*
X163054460Y-92587500D01*
X198928752Y-77621248D02*
X198928752Y-77653228D01*
X198154002Y-78427978D02*
X197588316Y-78427978D01*
X163054460Y-92587500D02*
X160662500Y-92587500D01*
%TO.N,/front_left_drive_motor/MOTOR.RST*%
X172300000Y-101250000D02*
X173300000Y-102250000D01*
X210800000Y-139345000D02*
X210850000Y-139295000D01*
X160662500Y-97587500D02*
X167733480Y-97587500D01*
X210850000Y-139295000D02*
X210850000Y-131100000D01*
X210800000Y-140290001D02*
X210800000Y-139345000D01*
X167733480Y-97587500D02*
X171395980Y-101250000D01*
X171395980Y-101250000D02*
X172300000Y-101250000D01*
%TO.N,/front_left_drive_motor/MOTOR.CTS*%
X162437500Y-101087500D02*
X162450000Y-101100000D01*
X215300000Y-140290001D02*
X215300000Y-139344999D01*
X215300000Y-139344999D02*
X215349999Y-139295000D01*
X160662500Y-101087500D02*
X162437500Y-101087500D01*
%TO.N,Net-(J8-Pin_7)*%
X212300000Y-139245000D02*
X212350000Y-139295000D01*
X212300000Y-138309999D02*
X212300000Y-139245000D01*
%TO.N,/front_left_drive_motor/MOTOR.RX*%
X213800000Y-139345000D02*
X213850000Y-139295000D01*
X160662500Y-99587500D02*
X161787500Y-99587500D01*
X161787500Y-99587500D02*
X161800000Y-99600000D01*
X213800000Y-140290001D02*
X213800000Y-139345000D01*
%TO.N,Net-(J8-Pin_10)*%
X216800000Y-138309999D02*
X216800000Y-139244999D01*
X216800000Y-139244999D02*
X216850001Y-139295000D01*
%TO.N,/front_left_drive_motor/MOTOR.BOOT0*%
X160662500Y-98087500D02*
X167837500Y-98087500D01*
X209300000Y-140290001D02*
X209300000Y-139345000D01*
X172350000Y-102600000D02*
X172550000Y-102600000D01*
X171280000Y-101530000D02*
X172350000Y-102600000D01*
X209300000Y-139345000D02*
X209350000Y-139295000D01*
X209350000Y-130300000D02*
X209350000Y-139295000D01*
X167837500Y-98087500D02*
X171280000Y-101530000D01*
%TO.N,/kicker/KICKER.RX*%
X156827010Y-94927010D02*
X156150000Y-95604020D01*
X157250000Y-94504020D02*
X156827010Y-94927010D01*
X159300000Y-126200000D02*
X159309999Y-126190001D01*
X156150000Y-95604020D02*
X156150000Y-99750000D01*
X158900000Y-125800000D02*
X159300000Y-126200000D01*
X157850000Y-116100000D02*
X157850000Y-123117990D01*
X160750000Y-125525000D02*
X160775000Y-125500000D01*
X157250000Y-89175000D02*
X157250000Y-94504020D01*
X158900000Y-124167990D02*
X158900000Y-125800000D01*
X159309999Y-126190001D02*
X160750000Y-126190001D01*
X157850000Y-123117990D02*
X158900000Y-124167990D01*
X160750000Y-126190001D02*
X160750000Y-125525000D01*
%TO.N,/kicker/KICKER.RST*%
X158250000Y-126190001D02*
X158250000Y-125525000D01*
X139337500Y-101087500D02*
X157387500Y-101087500D01*
X157387500Y-101087500D02*
X158700000Y-102400000D01*
X158250000Y-125525000D02*
X158275000Y-125500000D01*
%TO.N,/kicker/KICKER.BOOT0*%
X157000000Y-125525000D02*
X157025000Y-125500000D01*
X156737500Y-101587500D02*
X158100000Y-102950000D01*
X157000000Y-126190001D02*
X157000000Y-125525000D01*
X139337500Y-101587500D02*
X156737500Y-101587500D01*
%TO.N,/kicker/KICKER.CTS*%
X139337500Y-102587500D02*
X155437500Y-102587500D01*
X159500000Y-116700000D02*
X162025000Y-119225000D01*
X162000000Y-126190001D02*
X162000000Y-125525000D01*
X155437500Y-102587500D02*
X156900000Y-104050000D01*
X162000000Y-125525000D02*
X162025000Y-125500000D01*
X159500000Y-116100000D02*
X159500000Y-116700000D01*
X162025000Y-119225000D02*
X162025000Y-125500000D01*
%TO.N,Net-(J9-Pin_10)*%
X163275000Y-124734999D02*
X163250000Y-124709999D01*
X163275000Y-125500000D02*
X163275000Y-124734999D01*
%TO.N,Net-(J9-Pin_7)*%
X159500000Y-125475000D02*
X159525000Y-125500000D01*
X159500000Y-124709999D02*
X159500000Y-125475000D01*
%TO.N,/mcu/OPTICAL_FLOW.RST*%
X141100000Y-125475000D02*
X141125000Y-125450000D01*
X154750000Y-89175000D02*
X154750000Y-90700000D01*
X141100000Y-126290001D02*
X141100000Y-125475000D01*
%TO.N,/mcu/OPTICAL_FLOW.CTS*%
X141130000Y-108915980D02*
X140415980Y-109630000D01*
X137180000Y-112065980D02*
X137180000Y-116630000D01*
X144800000Y-126290001D02*
X144800000Y-125525000D01*
X144800000Y-125525000D02*
X144875000Y-125450000D01*
X139615980Y-109630000D02*
X137180000Y-112065980D01*
X140333480Y-107087500D02*
X141130000Y-107884020D01*
X144875000Y-124325000D02*
X144875000Y-125450000D01*
X140415980Y-109630000D02*
X139615980Y-109630000D01*
X137180000Y-116630000D02*
X144875000Y-124325000D01*
X141130000Y-107884020D02*
X141130000Y-108915980D01*
X139337500Y-107087500D02*
X140333480Y-107087500D01*
%TO.N,Net-(J10-Pin_7)*%
X142300000Y-125375000D02*
X142375000Y-125450000D01*
X142300000Y-124609999D02*
X142300000Y-125375000D01*
%TO.N,/mcu/OPTICAL_FLOW.RX*%
X143600000Y-125475000D02*
X143625000Y-125450000D01*
X156250000Y-89175000D02*
X156250000Y-91100000D01*
X143600000Y-126290001D02*
X143600000Y-125475000D01*
%TO.N,Net-(J10-Pin_10)*%
X146100000Y-126290001D02*
X146100000Y-125475000D01*
X146100000Y-125475000D02*
X146125000Y-125450000D01*
X146100000Y-125425000D02*
X146125000Y-125450000D01*
%TO.N,/mcu/OPTICAL_FLOW.BOOT0*%
X155250000Y-90879530D02*
X154779530Y-91350000D01*
X155250000Y-89175000D02*
X155250000Y-90879530D01*
X139800000Y-125525000D02*
X139875000Y-125450000D01*
X139800000Y-126290001D02*
X139800000Y-125525000D01*
X154779530Y-91350000D02*
X154250000Y-91350000D01*
%TO.N,/mcu/POWER.RX*%
X147119500Y-119400970D02*
X147119500Y-121569500D01*
X163350000Y-128000000D02*
X165850000Y-125500000D01*
X147119500Y-121569500D02*
X153550000Y-128000000D01*
X149250000Y-110500000D02*
X149250000Y-117270470D01*
X169100000Y-126390001D02*
X169100000Y-125500000D01*
X153550000Y-128000000D02*
X163350000Y-128000000D01*
X165850000Y-125500000D02*
X169100000Y-125500000D01*
X149250000Y-117270470D02*
X147119500Y-119400970D01*
%TO.N,Net-(J12-Pin_2)*%
X170350000Y-126390001D02*
X170350000Y-125500000D01*
X170300000Y-125450000D02*
X170350000Y-125500000D01*
%TO.N,/mcu/SHELL_DETECT.RST*%
X158862500Y-96587500D02*
X158850000Y-96600000D01*
X160662500Y-96587500D02*
X158862500Y-96587500D01*
%TO.N,/mcu/SHELL_DETECT.SCL*%
X81525000Y-123700000D02*
X81550000Y-123725000D01*
X158200000Y-96087500D02*
X160662500Y-96087500D01*
X80710000Y-123700000D02*
X81525000Y-123700000D01*
%TO.N,/mcu/SHELL_DETECT.SDA*%
X160662500Y-95587500D02*
X157562500Y-95587500D01*
X80710000Y-125000000D02*
X81525000Y-125000000D01*
X81525000Y-125000000D02*
X81550000Y-124975000D01*
X157562500Y-95587500D02*
X157550000Y-95600000D01*
%TO.N,/mcu/SHELL_DETECT.LIGHT*%
X159500000Y-97087500D02*
X160662500Y-97087500D01*
%TO.N,/display/LCD.TX*%
X142500000Y-96100000D02*
X140987500Y-94587500D01*
X140987500Y-94587500D02*
X139337500Y-94587500D01*
%TO.N,/display/LCD.RX*%
X139337500Y-94087500D02*
X141337500Y-94087500D01*
X141337500Y-94087500D02*
X143350000Y-96100000D01*
%TO.N,Net-(J15-Pin_1)*%
X97700000Y-124100000D02*
X97062499Y-123462499D01*
X97062499Y-123462499D02*
X97062499Y-121987500D01*
X96425000Y-128275000D02*
X97700000Y-127000000D01*
X97700000Y-127000000D02*
X97700000Y-124100000D01*
D56*
%TO.N,VBUS*%
X171000000Y-68500000D02*
X172000000Y-67500000D01*
X174000000Y-67500000D02*
X174950000Y-68450000D01*
X171000000Y-70417002D02*
X171000000Y-68500000D01*
X174950000Y-68450000D02*
X174950000Y-71150000D01*
X172000000Y-67500000D02*
X174000000Y-67500000D01*
D57*
%TO.N,/mcu/USB_HS_D_P*%
X142367030Y-93087500D02*
X139337500Y-93087500D01*
X142700000Y-93800000D02*
X142700000Y-93420470D01*
X142700000Y-93420470D02*
X142367030Y-93087500D01*
%TO.N,Net-(P1-CC2)*%
X172000000Y-71000000D02*
X172000000Y-69320311D01*
X172250000Y-69070311D02*
X172250000Y-68415000D01*
X172000000Y-69320311D02*
X172250000Y-69070311D01*
%TO.N,/mcu/USB_HS_D_N*%
X141800000Y-93800000D02*
X141587500Y-93587500D01*
X173250000Y-68832500D02*
X173250000Y-68415000D01*
X172500000Y-69582500D02*
X173250000Y-68832500D01*
X141587500Y-93587500D02*
X139337500Y-93587500D01*
X172500000Y-69715000D02*
X172500000Y-69582500D01*
%TO.N,/mcu/BOOT0*%
X181202500Y-72840001D02*
X181200000Y-72837501D01*
X159837501Y-84350000D02*
X167900000Y-84350000D01*
X155750000Y-89175000D02*
X155750000Y-88437501D01*
X183700000Y-72840001D02*
X183700000Y-71759999D01*
X183700000Y-72840001D02*
X181202500Y-72840001D01*
X155750000Y-88437501D02*
X159837501Y-84350000D01*
%TO.N,Net-(Q1-G)*%
X180200000Y-71012500D02*
X180250000Y-70962500D01*
X180200000Y-74974999D02*
X180200000Y-71012500D01*
X180250000Y-69409999D02*
X180250000Y-70962500D01*
%TO.N,Net-(Q1-S)*%
X182150000Y-69409999D02*
X182150000Y-70962500D01*
%TO.N,/mcu/USB_BOOT0_CONTROL*%
X181050000Y-78600000D02*
X181150000Y-78500000D01*
X180710000Y-78600000D02*
X181050000Y-78600000D01*
X181150000Y-76850000D02*
X181150000Y-75300000D01*
X181150000Y-78500000D02*
X181150000Y-76850000D01*
%TO.N,Net-(Q3-G)*%
X222750000Y-128287500D02*
X222737500Y-128300000D01*
X222750000Y-123600000D02*
X222750000Y-128287500D01*
X219509999Y-122400000D02*
X221550000Y-122400000D01*
X221550000Y-122400000D02*
X222750000Y-123600000D01*
%TO.N,/display/LCD.RST*%
X141700000Y-96150000D02*
X140637500Y-95087500D01*
X140637500Y-95087500D02*
X139337500Y-95087500D01*
X98937500Y-121037500D02*
X100597499Y-121037500D01*
X100597499Y-121037500D02*
X100600000Y-121040001D01*
X112600000Y-121050000D02*
X112590001Y-121040001D01*
X112590001Y-121040001D02*
X100600000Y-121040001D01*
%TO.N,/mcu/DEBUG_MODE*%
X159000000Y-82350000D02*
X159000000Y-74209999D01*
X159000000Y-74209999D02*
X164900000Y-68309999D01*
X159512500Y-94087500D02*
X159500000Y-94100000D01*
X160662500Y-94087500D02*
X159512500Y-94087500D01*
%TO.N,Net-(R1-Pad1)*%
X164900000Y-67290001D02*
X164900000Y-66550000D01*
X164900000Y-65800000D02*
X164900000Y-66550000D01*
%TO.N,/mcu/USER_BOOT0_OVERRIDE*%
X183700000Y-75290000D02*
X183690000Y-75300000D01*
X183700000Y-73859999D02*
X183700000Y-75290000D01*
%TO.N,/mcu/V_{sense}_V_{batt}*%
X162186500Y-108015714D02*
X162186500Y-109336500D01*
X163159999Y-110309999D02*
X166100000Y-110309999D01*
X166100000Y-111240001D02*
X166100000Y-110309999D01*
X160662500Y-107587500D02*
X161758286Y-107587500D01*
X161758286Y-107587500D02*
X162186500Y-108015714D01*
X162186500Y-109336500D02*
X163159999Y-110309999D01*
%TO.N,/mcu/V_{sense}_5V0*%
X161906500Y-110206500D02*
X163959999Y-112259999D01*
X163959999Y-112259999D02*
X165050000Y-112259999D01*
X160662500Y-108087500D02*
X161594000Y-108087500D01*
X161906500Y-108400000D02*
X161906500Y-110206500D01*
X165050000Y-113190001D02*
X165050000Y-112259999D01*
X161594000Y-108087500D02*
X161906500Y-108400000D01*
%TO.N,/mcu/V_{sense}_3v3*%
X160662500Y-108587500D02*
X161464000Y-108587500D01*
X161243001Y-112219998D02*
X160850000Y-112219998D01*
X161626500Y-108750000D02*
X161626500Y-111836499D01*
X160850000Y-113150000D02*
X160850000Y-112219998D01*
X161626500Y-111836499D02*
X161243001Y-112219998D01*
X161464000Y-108587500D02*
X161626500Y-108750000D01*
%TO.N,/front_right_drive_motor/MOTOR.TX*%
X89890001Y-136600000D02*
X89200000Y-137290001D01*
X131112500Y-106587500D02*
X101100000Y-136600000D01*
X139337500Y-106587500D02*
X131112500Y-106587500D01*
X101100000Y-136600000D02*
X89890001Y-136600000D01*
%TO.N,/front_right_drive_motor/MOTOR.RTS*%
X101692060Y-134820000D02*
X131924560Y-104587500D01*
X92150000Y-135000000D02*
X92330000Y-134820000D01*
X92330000Y-134820000D02*
X101692060Y-134820000D01*
X131924560Y-104587500D02*
X139337500Y-104587500D01*
%TO.N,Net-(U2-INT1)*%
X147600000Y-119600000D02*
X150400000Y-119600000D01*
X152300000Y-117700000D02*
X153090001Y-117700000D01*
X150400000Y-119600000D02*
X152300000Y-117700000D01*
%TO.N,Net-(U2-INT2)*%
X152100000Y-119000000D02*
X153090001Y-119000000D01*
%TO.N,/back_right_drive_motor/MOTOR.TX*%
X137187500Y-97087500D02*
X139337500Y-97087500D01*
X112300000Y-86800000D02*
X126900000Y-86800000D01*
X104360624Y-78860624D02*
X112300000Y-86800000D01*
X126900000Y-86800000D02*
X137187500Y-97087500D01*
%TO.N,/back_right_drive_motor/MOTOR.RTS*%
X109450000Y-90350000D02*
X112100000Y-93000000D01*
X101160624Y-82060624D02*
X109450000Y-90350000D01*
X112100000Y-93000000D02*
X122500000Y-93000000D01*
X150250000Y-85900000D02*
X150250000Y-89175000D01*
%TO.N,/back_left_drive_motor/MOTOR.TX*%
X171140000Y-83710000D02*
X163262500Y-91587500D01*
X188640000Y-83710000D02*
X171140000Y-83710000D01*
X194650000Y-77700000D02*
X188640000Y-83710000D01*
X163262500Y-91587500D02*
X160662500Y-91587500D01*
%TO.N,/back_left_drive_motor/MOTOR.RTS*%
X152800000Y-83150000D02*
X182800000Y-83150000D01*
X151250000Y-89175000D02*
X151250000Y-84700000D01*
X182800000Y-83150000D02*
X191350000Y-74600000D01*
X151250000Y-84700000D02*
X152800000Y-83150000D01*
%TO.N,/front_left_drive_motor/MOTOR.TX*%
X160662500Y-100087500D02*
X162462500Y-100087500D01*
X162462500Y-100087500D02*
X162500000Y-100050000D01*
%TO.N,/front_left_drive_motor/MOTOR.RTS*%
X160662500Y-100587500D02*
X161787500Y-100587500D01*
X161787500Y-100587500D02*
X161800000Y-100600000D01*
%TO.N,/kicker/KICKER.TX*%
X158700000Y-122890001D02*
X159500000Y-123690001D01*
X156950000Y-95200000D02*
X156950000Y-99750000D01*
X157750000Y-89175000D02*
X157750000Y-94400000D01*
X158700000Y-116100000D02*
X158700000Y-122890001D01*
X157750000Y-94400000D02*
X156950000Y-95200000D01*
%TO.N,/kicker/KICKER.RTS*%
X163250000Y-119950000D02*
X163250000Y-123690001D01*
X160050000Y-116750000D02*
X163250000Y-119950000D01*
X160050000Y-115850000D02*
X160050000Y-116750000D01*
X156087500Y-102087500D02*
X157500000Y-103500000D01*
X159500000Y-115300000D02*
X160050000Y-115850000D01*
X139337500Y-102087500D02*
X156087500Y-102087500D01*
%TO.N,/mcu/OPTICAL_FLOW.TX*%
X156750000Y-89175000D02*
X156750000Y-90450000D01*
%TO.N,/mcu/OPTICAL_FLOW.RTS*%
X146100000Y-127309999D02*
X146100000Y-128500000D01*
X146100000Y-128500000D02*
X145500000Y-129100000D01*
X140437500Y-107587500D02*
X139337500Y-107587500D01*
X140300000Y-109350000D02*
X140850000Y-108800000D01*
X139500000Y-109350000D02*
X140300000Y-109350000D01*
X136900000Y-122850000D02*
X136900000Y-111950000D01*
X145500000Y-129100000D02*
X139050000Y-129100000D01*
X138000000Y-123950000D02*
X136900000Y-122850000D01*
X140850000Y-108000000D02*
X140437500Y-107587500D01*
X139050000Y-129100000D02*
X138000000Y-128050000D01*
X136900000Y-111950000D02*
X139500000Y-109350000D01*
X138000000Y-128050000D02*
X138000000Y-123950000D01*
X140850000Y-108800000D02*
X140850000Y-108000000D01*
%TO.N,/mcu/POWER.TX*%
X148750000Y-117374490D02*
X146839500Y-119284990D01*
X146839500Y-119284990D02*
X146839500Y-121685480D01*
X148750000Y-110500000D02*
X148750000Y-117374490D01*
X164100000Y-128000000D02*
X170100000Y-128000000D01*
X163820000Y-128280000D02*
X164100000Y-128000000D01*
X146839500Y-121685480D02*
X153434020Y-128280000D01*
X153434020Y-128280000D02*
X163820000Y-128280000D01*
X170100000Y-128000000D02*
X170350000Y-127750000D01*
X170350000Y-127750000D02*
X170350000Y-127409999D01*
%TO.N,Net-(SW4-8)*%
X126690000Y-73040000D02*
X128260000Y-73040000D01*
X126700000Y-74690001D02*
X126700000Y-73050000D01*
X128260000Y-73040000D02*
X129900000Y-71400000D01*
X126700000Y-73050000D02*
X126690000Y-73040000D01*
X129900000Y-71400000D02*
X129900000Y-66909999D01*
%TO.N,/mcu/BOT_ID_SWITCHES.IDX3*%
X143750000Y-89175000D02*
X143750000Y-87900000D01*
%TO.N,Net-(SW4-4)*%
X134310000Y-67960000D02*
X132960000Y-67960000D01*
X135500000Y-69150000D02*
X134310000Y-67960000D01*
X135500000Y-74690001D02*
X135500000Y-69150000D01*
X132960000Y-67960000D02*
X132300000Y-67300000D01*
X132300000Y-67300000D02*
X132300000Y-66909999D01*
%TO.N,/mcu/BOT_ID_SWITCHES.IDX2*%
X144250000Y-89175000D02*
X144250000Y-87250000D01*
%TO.N,Net-(SW4-2)*%
X128700000Y-67300000D02*
X128700000Y-66909999D01*
X128040000Y-67960000D02*
X128700000Y-67300000D01*
X125500000Y-69150000D02*
X126690000Y-67960000D01*
X125500000Y-74690001D02*
X125500000Y-69150000D01*
X126690000Y-67960000D02*
X128040000Y-67960000D01*
%TO.N,/mcu/BOT_ID_SWITCHES.IDX1*%
X140774021Y-82580000D02*
X134794021Y-76600000D01*
X145334020Y-82580000D02*
X140774021Y-82580000D01*
X126000000Y-76600000D02*
X125500000Y-76100000D01*
X149250000Y-89175000D02*
X149250000Y-86495980D01*
X149250000Y-86495980D02*
X145334020Y-82580000D01*
X125500000Y-76100000D02*
X125500000Y-75709999D01*
X134794021Y-76600000D02*
X126000000Y-76600000D01*
%TO.N,/mcu/BOT_ID_SWITCHES.IDX0*%
X145450000Y-82300000D02*
X149750000Y-86600000D01*
X134300000Y-75709999D02*
X140890001Y-82300000D01*
X140890001Y-82300000D02*
X145450000Y-82300000D01*
X149750000Y-86600000D02*
X149750000Y-89175000D01*
%TO.N,Net-(R64-Pad1)*%
X134300000Y-73050000D02*
X134310000Y-73040000D01*
X134310000Y-73040000D02*
X132740000Y-73040000D01*
X132740000Y-73040000D02*
X131100000Y-71400000D01*
X131100000Y-71400000D02*
X131100000Y-66909999D01*
X134300000Y-74690001D02*
X134300000Y-73050000D01*
%TO.N,/mcu/BOT_ID_SWITCHES.TEAM_BLUE_~{YELLOW}*%
X142750000Y-110500000D02*
X142750000Y-103750000D01*
X142750000Y-103750000D02*
X142400000Y-103400000D01*
%TO.N,Net-(R74-Pad1)*%
X127109999Y-79000000D02*
X128000000Y-79000000D01*
X128890001Y-79000000D02*
X128000000Y-79000000D01*
%TO.N,Net-(R75-Pad1)*%
X128890001Y-80000000D02*
X128000000Y-80000000D01*
X127109999Y-80000000D02*
X128000000Y-80000000D01*
%TO.N,/mcu/BOT_ID_SWITCHES.SRC_PRIO_USER_~{AUTO}*%
X142250000Y-104050000D02*
X141600000Y-103400000D01*
X142250000Y-110500000D02*
X142250000Y-104050000D01*
D56*
%TO.N,/mcu/BOT_ID_DISPLAY.SrcDisagree*%
X140337500Y-105587500D02*
X140850000Y-106100000D01*
X139337500Y-105587500D02*
X140337500Y-105587500D01*
D57*
%TO.N,/mcu/DIP.0*%
X152350000Y-103150000D02*
X152750000Y-103550000D01*
X152750000Y-103550000D02*
X152750000Y-110500000D01*
%TO.N,Net-(R84-Pad1)*%
X157400000Y-75310000D02*
X157390000Y-75300000D01*
X157400000Y-74459999D02*
X157400000Y-75290000D01*
X157400000Y-75290000D02*
X157390000Y-75300000D01*
X157400000Y-78990001D02*
X157400000Y-75310000D01*
%TO.N,Net-(R85-Pad1)*%
X154850000Y-78990001D02*
X154850000Y-75300000D01*
X154850000Y-74459999D02*
X154850000Y-75300000D01*
%TO.N,/mcu/DIP.1*%
X151550000Y-103150000D02*
X151550000Y-104150000D01*
X152103500Y-110353500D02*
X152250000Y-110500000D01*
X152103500Y-104703500D02*
X152103500Y-110353500D01*
X151550000Y-104150000D02*
X152103500Y-104703500D01*
%TO.N,/mcu/DIP.2*%
X150750000Y-104100000D02*
X150750000Y-110500000D01*
%TO.N,Net-(R100-Pad2)*%
X152300000Y-75310000D02*
X152310000Y-75300000D01*
X152300000Y-78990001D02*
X152300000Y-75310000D01*
X152350000Y-75260000D02*
X152310000Y-75300000D01*
X152350000Y-74459999D02*
X152350000Y-75260000D01*
%TO.N,Net-(R101-Pad2)*%
X149750000Y-75320000D02*
X149770000Y-75300000D01*
X149750000Y-78990001D02*
X149750000Y-75320000D01*
X149800000Y-75270000D02*
X149770000Y-75300000D01*
X149800000Y-74459999D02*
X149800000Y-75270000D01*
%TO.N,/mcu/DIP.3*%
X150250000Y-103250000D02*
X150250000Y-110500000D01*
%TO.N,/mcu/DIP.4*%
X149750000Y-105450000D02*
X149750000Y-104100000D01*
X149750000Y-110500000D02*
X149750000Y-105450000D01*
%TO.N,Net-(R102-Pad2)*%
X147250000Y-75320000D02*
X147230000Y-75300000D01*
X147250000Y-75280000D02*
X147230000Y-75300000D01*
X147250000Y-74459999D02*
X147250000Y-75280000D01*
X147250000Y-78990001D02*
X147250000Y-75320000D01*
D56*
%TO.N,/mcu/BUZZER*%
X218490001Y-122400000D02*
X218490001Y-123450000D01*
D57*
X160662500Y-93087500D02*
X159512500Y-93087500D01*
X159512500Y-93087500D02*
X159500000Y-93100000D01*
%TO.N,Net-(R103-Pad2)*%
X144700000Y-75290000D02*
X144690000Y-75300000D01*
X144700000Y-74459999D02*
X144700000Y-75290000D01*
X144700000Y-75310000D02*
X144690000Y-75300000D01*
X144700000Y-78990001D02*
X144700000Y-75310000D01*
%TO.N,/mcu/DIP.5*%
X148250000Y-110500000D02*
X148250000Y-104100000D01*
%TO.N,Net-(R93-Pad1)*%
X210610000Y-94750000D02*
X212250000Y-94750000D01*
%TO.N,/mcu/BTNS.BACK*%
X145750000Y-110500000D02*
X145736500Y-110513500D01*
X188450000Y-125950000D02*
X188450000Y-100150000D01*
X153880500Y-129130500D02*
X185269500Y-129130500D01*
X145736500Y-110513500D02*
X145736500Y-111613500D01*
X188450000Y-100150000D02*
X195400000Y-93200000D01*
X145469500Y-111880500D02*
X145469500Y-120719500D01*
X185269500Y-129130500D02*
X188450000Y-125950000D01*
X145469500Y-120719500D02*
X153880500Y-129130500D01*
X145736500Y-111613500D02*
X145469500Y-111880500D01*
X208040000Y-93200000D02*
X209590000Y-94750000D01*
X195400000Y-93200000D02*
X208040000Y-93200000D01*
%TO.N,Net-(R94-Pad1)*%
X200610000Y-102750000D02*
X202250000Y-102750000D01*
%TO.N,/mcu/BTNS.ENTER*%
X198100000Y-101250000D02*
X199590000Y-102740000D01*
X145250000Y-111700000D02*
X145189500Y-111760500D01*
X188730000Y-126120000D02*
X188730000Y-102120000D01*
X199590000Y-102740000D02*
X199590000Y-102750000D01*
X145189500Y-111760500D02*
X145189500Y-120835480D01*
X185439500Y-129410500D02*
X188730000Y-126120000D01*
X145189500Y-120835480D02*
X153764520Y-129410500D01*
X189600000Y-101250000D02*
X198100000Y-101250000D01*
X153764520Y-129410500D02*
X185439500Y-129410500D01*
X145250000Y-110500000D02*
X145250000Y-111700000D01*
X188730000Y-102120000D02*
X189600000Y-101250000D01*
%TO.N,/mcu/DIP.6*%
X147750000Y-110500000D02*
X147750000Y-103250000D01*
%TO.N,Net-(R104-Pad2)*%
X142150000Y-74459999D02*
X142150000Y-75300000D01*
X142100000Y-78990001D02*
X142100000Y-75350000D01*
X142100000Y-75350000D02*
X142150000Y-75300000D01*
%TO.N,/mcu/DIP.7*%
X147250000Y-110500000D02*
X147250000Y-104100000D01*
%TO.N,Net-(R105-Pad2)*%
X139650000Y-75260000D02*
X139610000Y-75300000D01*
X139600000Y-75310000D02*
X139610000Y-75300000D01*
X139600000Y-78990001D02*
X139600000Y-75310000D01*
X139650000Y-74459999D02*
X139650000Y-75260000D01*
%TO.N,Net-(R107-Pad1)*%
X200610000Y-110750000D02*
X202250000Y-110750000D01*
%TO.N,/mcu/BTNS.UP*%
X197840000Y-109000000D02*
X199590000Y-110750000D01*
X185849500Y-130250500D02*
X190350000Y-125750000D01*
X143750000Y-110500000D02*
X143750000Y-120583920D01*
X195000000Y-109000000D02*
X197840000Y-109000000D01*
X153416580Y-130250500D02*
X185849500Y-130250500D01*
X190350000Y-113650000D02*
X195000000Y-109000000D01*
X190350000Y-125750000D02*
X190350000Y-113650000D01*
X143750000Y-120583920D02*
X153416580Y-130250500D01*
%TO.N,/mcu/LEDS.4*%
X139337500Y-104087500D02*
X120999560Y-104087500D01*
X100450001Y-98160000D02*
X98800000Y-96509999D01*
X115072060Y-98160000D02*
X100450001Y-98160000D01*
X120999560Y-104087500D02*
X115072060Y-98160000D01*
%TO.N,/mcu/LEDS.3*%
X115188040Y-97880000D02*
X119918040Y-102610000D01*
X128931960Y-102610000D02*
X130954460Y-100587500D01*
X101970001Y-97880000D02*
X115188040Y-97880000D01*
X130954460Y-100587500D02*
X139337500Y-100587500D01*
X100600000Y-96509999D02*
X101970001Y-97880000D01*
X119918040Y-102610000D02*
X128931960Y-102610000D01*
%TO.N,/mcu/LEDS.2*%
X102400000Y-96509999D02*
X103490001Y-97600000D01*
X115304020Y-97600000D02*
X120034020Y-102330000D01*
X120034020Y-102330000D02*
X128815980Y-102330000D01*
X103490001Y-97600000D02*
X115304020Y-97600000D01*
X128815980Y-102330000D02*
X131058480Y-100087500D01*
X131058480Y-100087500D02*
X139337500Y-100087500D01*
%TO.N,/mcu/LEDS.1*%
X104200000Y-96509999D02*
X105010001Y-97320000D01*
X105010001Y-97320000D02*
X115420000Y-97320000D01*
X115420000Y-97320000D02*
X120150000Y-102050000D01*
X131162500Y-99587500D02*
X139337500Y-99587500D01*
X120150000Y-102050000D02*
X128700000Y-102050000D01*
X128700000Y-102050000D02*
X131162500Y-99587500D01*
%TO.N,/mcu/BTNS.LEFT*%
X189695980Y-101550000D02*
X196900000Y-101550000D01*
X199500000Y-104150000D02*
X202625000Y-104150000D01*
X153648540Y-129690500D02*
X185559500Y-129690500D01*
X208340000Y-101500000D02*
X209590000Y-102750000D01*
X205275000Y-101500000D02*
X208340000Y-101500000D01*
X185559500Y-129690500D02*
X189010000Y-126240000D01*
X189010000Y-126240000D02*
X189010000Y-102235980D01*
X144750000Y-110500000D02*
X144750000Y-120791960D01*
X189010000Y-102235980D02*
X189695980Y-101550000D01*
X202625000Y-104150000D02*
X205275000Y-101500000D01*
X196900000Y-101550000D02*
X199500000Y-104150000D01*
X144750000Y-120791960D02*
X153648540Y-129690500D01*
%TO.N,Net-(R114-Pad1)*%
X210610000Y-102750000D02*
X212250000Y-102750000D01*
%TO.N,Net-(R115-Pad1)*%
X190610000Y-102750000D02*
X192230000Y-102750000D01*
%TO.N,/mcu/BTNS.RIGHT*%
X144250000Y-110500000D02*
X144250000Y-120687940D01*
X153532560Y-129970500D02*
X185679500Y-129970500D01*
X189590000Y-126060000D02*
X189590000Y-102750000D01*
X144250000Y-120687940D02*
X153532560Y-129970500D01*
X185679500Y-129970500D02*
X189590000Y-126060000D01*
%TO.N,Net-(R117-Pad1)*%
X200610000Y-94750000D02*
X202250000Y-94750000D01*
%TO.N,/mcu/BTNS.DOWN*%
X205750000Y-101000000D02*
X199590000Y-94840000D01*
X185969500Y-130530500D02*
X192400000Y-124100000D01*
X192400000Y-119729900D02*
X195129900Y-117000000D01*
X153300600Y-130530500D02*
X185969500Y-130530500D01*
X214000000Y-102300000D02*
X212700000Y-101000000D01*
X143250000Y-120479900D02*
X153300600Y-130530500D01*
X199590000Y-94840000D02*
X199590000Y-94750000D01*
X205500000Y-117000000D02*
X214000000Y-108500000D01*
X195129900Y-117000000D02*
X205500000Y-117000000D01*
X143250000Y-110500000D02*
X143250000Y-120479900D01*
X214000000Y-108500000D02*
X214000000Y-102300000D01*
X212700000Y-101000000D02*
X205750000Y-101000000D01*
X192400000Y-124100000D02*
X192400000Y-119729900D01*
%TO.N,/mcu/DOTSTARS.SCK*%
X153300000Y-89125000D02*
X153250000Y-89175000D01*
X153250000Y-89175000D02*
X153250000Y-100150000D01*
X153250000Y-100150000D02*
X153150000Y-100250000D01*
X153300000Y-85309999D02*
X153300000Y-89125000D01*
%TO.N,/mcu/ODIN.TX*%
X146250000Y-89175000D02*
X146250000Y-95650000D01*
X146250000Y-95650000D02*
X145750000Y-96150000D01*
%TO.N,/mcu/ODIN.RTS*%
X145250000Y-97250000D02*
X145250000Y-95970470D01*
X145750000Y-95470470D02*
X145750000Y-89175000D01*
X145250000Y-95970470D02*
X145750000Y-95470470D01*
%TO.N,/imu/IMU.~{SS}0*%
X157250000Y-110500000D02*
X157250000Y-108750000D01*
%TO.N,/mcu/DOTSTARS.MOSI*%
X153950000Y-100250000D02*
X153650000Y-99950000D01*
X153650000Y-99950000D02*
X153650000Y-91270470D01*
X154250000Y-90670470D02*
X154250000Y-89175000D01*
X153650000Y-91270470D02*
X154250000Y-90670470D01*
%TO.N,Net-(U11-CKO)*%
X124250000Y-120700000D02*
X133350000Y-120700000D01*
%TO.N,Net-(U11-SDO)*%
X124250000Y-122300000D02*
X133350000Y-122300000D01*
%TD*%
%TA.AperFunction,Conductor*%
%TO.N,Net-(J13-Pin_2)*%
G36*
X184343039Y-116419685D02*
G01*
X184388794Y-116472489D01*
X184400000Y-116524000D01*
X184400000Y-117876000D01*
X184380315Y-117943039D01*
X184327511Y-117988794D01*
X184276000Y-118000000D01*
X183200000Y-118000000D01*
X183200000Y-119476000D01*
X183180315Y-119543039D01*
X183127511Y-119588794D01*
X183076000Y-119600000D01*
X182124000Y-119600000D01*
X182056961Y-119580315D01*
X182011206Y-119527511D01*
X182000000Y-119476000D01*
X182000000Y-116524000D01*
X182019685Y-116456961D01*
X182072489Y-116411206D01*
X182124000Y-116400000D01*
X184276000Y-116400000D01*
X184343039Y-116419685D01*
G37*
%TD.AperFunction*%
%TD*%
%TA.AperFunction,Conductor*%
%TO.N,Net-(J13-Pin_1)*%
G36*
X181143039Y-116419685D02*
G01*
X181188794Y-116472489D01*
X181200000Y-116524000D01*
X181200000Y-119476000D01*
X181180315Y-119543039D01*
X181127511Y-119588794D01*
X181076000Y-119600000D01*
X180124000Y-119600000D01*
X180056961Y-119580315D01*
X180011206Y-119527511D01*
X180000000Y-119476000D01*
X180000000Y-118000000D01*
X178924000Y-118000000D01*
X178856961Y-117980315D01*
X178811206Y-117927511D01*
X178800000Y-117876000D01*
X178800000Y-116524000D01*
X178819685Y-116456961D01*
X178872489Y-116411206D01*
X178924000Y-116400000D01*
X181076000Y-116400000D01*
X181143039Y-116419685D01*
G37*
%TD.AperFunction*%
%TD*%
%TA.AperFunction,Conductor*%
%TO.N,+5V*%
G36*
X181143039Y-120219685D02*
G01*
X181188794Y-120272489D01*
X181200000Y-120324000D01*
X181200000Y-125100000D01*
X182276000Y-125100000D01*
X182343039Y-125119685D01*
X182388794Y-125172489D01*
X182400000Y-125224000D01*
X182400000Y-126576000D01*
X182380315Y-126643039D01*
X182327511Y-126688794D01*
X182276000Y-126700000D01*
X180124000Y-126700000D01*
X180056961Y-126680315D01*
X180011206Y-126627511D01*
X180000000Y-126576000D01*
X180000000Y-120324000D01*
X180019685Y-120256961D01*
X180072489Y-120211206D01*
X180124000Y-120200000D01*
X181076000Y-120200000D01*
X181143039Y-120219685D01*
G37*
%TD.AperFunction*%
%TD*%
%TA.AperFunction,Conductor*%
%TO.N,+3V3*%
G36*
X183143039Y-120219685D02*
G01*
X183188794Y-120272489D01*
X183200000Y-120324000D01*
X183200000Y-122700000D01*
X184276000Y-122700000D01*
X184343039Y-122719685D01*
X184388794Y-122772489D01*
X184400000Y-122824000D01*
X184400000Y-124176000D01*
X184380315Y-124243039D01*
X184327511Y-124288794D01*
X184276000Y-124300000D01*
X182124000Y-124300000D01*
X182056961Y-124280315D01*
X182011206Y-124227511D01*
X182000000Y-124176000D01*
X182000000Y-120324000D01*
X182019685Y-120256961D01*
X182072489Y-120211206D01*
X182124000Y-120200000D01*
X183076000Y-120200000D01*
X183143039Y-120219685D01*
G37*
%TD.AperFunction*%
%TD*%
M02*
